<svg xmlns="http://www.w3.org/2000/svg" viewBox="0 0 1440 900" xmlns:v="https://vecta.io/nano"><style><![CDATA[.z{fill:none}.AA{stroke-miterlimit:10}.AB{stroke-linejoin:round}.AC{stroke-linecap:round}.AD{stroke-width:1.463}.AE{fill:#ffab89}.AF{stroke:#b6d0fd}.AG{stroke:#000}.AH{fill:#528ac1}.AI{fill:#fff}.AJ{fill:#f0faff}.AK{fill:#002f90}.AL{opacity:.6}.AM{fill:#accede}.AN{fill:#0057bc}.AO{opacity:.2}.AP{opacity:.4}.AQ{stroke:#393e5c}.AR{stroke-width:1.198}.AS{fill:#a2cc02}.AT{fill:#ff7858}.AU{fill:#c5764a}.AV{fill:#f42c2b}.AW{stroke-width:1.47}.AX{stroke-width:1.984}]]></style><linearGradient id="A" gradientUnits="userSpaceOnUse" x1="1083.934" y1="1123.726" x2="1083.912" y2="1122.97"><stop offset="0" stop-color="#83d2e4"/><stop offset=".937" stop-color="#25a6d2"/></linearGradient><path d="M1083.9 1123.3h0 0z" fill="url(#A)"/><path d="M1083.9 1123.3h0 0z" fill="url(#A)"/><path d="M0 .4h1440V900H0z" fill="#c7dff8"/><path d="M871.1 200.2c4.5-21.3 4.5-34.2 2.7-53.7-1.8-19.6 1.7-42.5 8.7-53.4s15-3.3 17.5 5.4 4.3 23.5 10.3 28.2c5.9 4.8 6.7 20.3 11.9 30.4 5.2 10 5.4 8.2 15.3 15.2 9.8 7.1 14 13.5 17.2 21.8s3.6 23.9 9.7 30.5 7.7-1.3 7 13.6-3.2 17.3.9 22.2 13.5 11.6 13.5 11.6 14.7 13 20.9 20.8c6.1 7.7 8.8 13.9 14.2 21.3s8.1 13.9 12.8 22.1 8.1 4.2 10.8 5.2c2.7.9 8.3 12 8.3 12s9.9 23.4 18.1 33.6 19.9 28.3 20 38.7-4.8 21.2-.9 28.3c3.9 7.2 5.8 8.5 6.4 15.9.5 7.4-2.8 32.2-2.8 32.2s-18.3 14-16.9 22.8-1.3 17.9-3.4 24.1c-2.2 6.1-18.6 20-22 23.9-3.4 4 .4.3-6.4 14.6s-11.8 21.3-14.6 33.8-18.6 29.6-22.9 32.9c-4.2 3.3-16.4-.3-26.1 9.4-9.7 9.6-15 19-26.3 16.8-11.3-2.1-4.2 3.3-11.3-2.1s1.7-17.6-13.6-13.1-16 9.4-23.8 10.7c-7.7 1.3-19.9-2.3-31.8-8.1-12-5.8-10.5-6.3-17.3-12.1s-12.5-8.6-13-14.4c-.4-5.8 3.4-4.6-3.3-14.1l-6.7-9.5-28.2 10.6c-4.3 1.8-9.5 1.8-12.7-.6-3.1-2.4-.4-5.5-.5-6.7-.1-1.1-.9-1.7 5.6-4.1s17.5-9.1 19.3-10.4c1.8-1.2 1.2-4.5 1.2-4.5-8.2-.9-10.2 3-11.9-.6-1.8-3.6-5.5-8.5-2.2-9.5s3.1-3.6 5.6-4.9 4.5-10 4.5-10 2.8-8-1-14.1c-3.8-6-7.4-9.1-7.9-6.3s-1.8 6.3-1.8 6.3-2.8 2.4-8.5 5.8-13.8 14-13.4 20.3c.5 6.3-8.9 10.3-12.5 2.4s-.3-18.9-10.6-23-13.4-5.7-14.2-11.6.6-7.1-6.1-11.5c-6.6-4.3-4.3-7.5-11.6-5.8s-17.9-.9-17.9-.9l-18.9-4.6s-25.6 6.3-33.4 10.6c-7.9 4.3-33.9 13.7-33.9 13.7s-18.4 2.5-24.8 6.3-22 4.6-23.1 19.6-11.3 17.9-18.7 18.5c-7.4.5-37 2.7-44.8 7-7.9 4.3-9.2.7-16.5 8.7-7.2 8-10.1 14.1-10.1 14.1s-10.7 5.7-10.5 8.3-12.5 1.7-24.4 1.8-23.5-.9-28.6-4.6-8.1-14.3-5.7-17.4 8.7-22.6 6.1-28.7c-2.7-6.1-19.7-45-27.9-55.2s-16.6-28.7-24.4-38.1-9.4-16.3-8.2-19.8c1.2-3.4 4.8-10.4-.5-16.3s-9.9-13-13.5-22.1c-3.6-9-4.2-46.5-3.5-47.3s7.1-4.2 9.2-6.6 10-16 17.9-19.9 45.3-30.5 60.6-35.7c15.2-5.2 45.3-16 45.6-26.4s-3.8-21.7 4.4-30.8c8.2-9.2 21.3-18.3 22.8-23.3 1.5-4.9 1.4-11.3 8.3-19.2s31.5-32.1 33.7-37.4c2.2-5.4 10.1-19.7 16.6-17.6s30.4 19.3 40.3 22.3 13-4.7 13.5-8.4c.5-3.8 12.4-12.8 11.3-18.7-1.2-5.9.4-19.7 7.1-25.1 6.7-5.3 7.6-13.2 17.6-13.9s34.4-2.9 34.4-7c.1-4.1-5.9-9.2-9.2-14.2s9.6-1.1 18 1.6 30.6 6.3 36.9 6.2 29.3-1 31.6-4.6c2.3-3.5 4.3-7.8 7.3-2 3 5.7 1 19.3-.4 24.6-1.5 5.3-19 14.8-13.2 22.5 5.8 7.8 1.5 15.9.6 18.5-.9 2.7 16 20.4 23.3 23.6s25.4 5.9 39.8 14.9 33.6 11.7 36.5 11.4c2.7-.2 10.5-17.9 12.5-27.7zm109.5 495.4c-.9 2.7 5.8 12.6 6.3 15.2.6 2.6-11.9 9.8-11.9 9.8s-6.1-2.2-12.6.9-10.6-2.9-18.9-4.6c-8.3-1.6-22.9-12.4-19.4-.8s7.8 10.6 11.7 17.7c3.9 7.2 5.4 12.2 5.2 19.7s-6.4 13.5.7 20 4.2 11.6 11.6 6.6 8.4-7.7 9.7-9.6c1.3-2-1-8.1 6.2-6.4s10.8 5.5 12.6-.2 5.3-24.2 6.7-30.2c1.4-6.1 6-14.9 8.8-21.5 2.9-6.5-1.5-15.5-5-17.5-3.4-2-11.7.9-11.7.9z" opacity=".47" fill="#80b7f0"/><g class="AI"><use href="#C"/><path d="M1266.3 85.7l-.9 1.4h0 0l-.2-.1h0l-.2-.1v.6l-.5 1.6-.6 1.6c-.4 1.1-.9 2.1-1.4 3-1.1 2.1-2.3 3.9-3.7 5.3-1.4 1.6-3.1 2.7-4.8 3.4-1.9.7-3.6 1-5.5.7-.9-.1-1.9-.1-2.8-.4-.2 0-.4-.1-.5-.1-.3-.1-.6-.1-.8-.2l-1.4-.5c-.4-.1-.8-.3-1.3-.6-.2-.1-.3-.2-.5-.3-.3-.1-.5-.3-.8-.5l-.5-.4-1.8-1.6c-.4-.3-.7-.7-1-1.1-.1-.1-.2-.3-.3-.4-.2-.3-.4-.5-.6-.8l-1.6-2.7-1.2-3c-.3-.9-.6-2-.7-3v-.4h-.1c-.2-.6-.6-.9-1.2-1-.6 0-1.1.5-1.2 1.1h-.1l.1.4-.4 3c-.2 1-.5 2-.9 3.1s-.9 2-1.4 2.8-1.1 1.7-1.8 2.4a6.55 6.55 0 0 1-1.8 1.5l-.4.3-.5.3c-.7.4-1.3.8-2.1 1-.8.4-1.7.5-2.6.7h-.1c-.5.2-1.2.2-1.8.2-.4 0-.7 0-1.1.1-.6.1-1.2 0-1.8 0-.4 0-.7-.1-1-.1-.6 0-1.2-.2-1.8-.3-.3-.1-.7-.1-1-.2l-.8-.3c-.7-.2-1.3-.4-1.9-.7l-1.3-.6-1.3-.8c-.3-.1-.5-.4-.8-.6-.1-.1-.2-.2-.4-.3l-1.1-1c-.4-.4-.7-.8-1-1.2-.4-.5-.6-.9-.9-1.3-.6-.9-1-1.9-1.3-2.9-.4-1.1-.6-2.1-.7-3l.1-.4h-.1c-.1-.3-.4-.6-.7-.6h-.1c-.3 0-.7.2-.8.6h-.1v.4c-.1.9-.3 1.8-.6 2.7l-1 2.7c-.4.8-.8 1.6-1.4 2.4l-.8 1.1-.6.6-.4.4c-.2.2-.4.4-.6.5-.1.1-.3.2-.4.3-.3.2-.6.5-1 .7-.1.1-.3.2-.4.3-.2.1-.5.3-.7.4l-1.2.5c-.5.2-1 .3-1.5.5-.3.1-.6.2-.8.2-.3 0-.6.1-.9.1-.5.1-1.1.2-1.6.2h-.5-.9c-.3 0-.7 0-1.2-.1l-1.3-.2c-.3 0-.5-.1-.8-.2-.2-.1-.3-.1-.5-.2-.6-.2-1.2-.5-1.8-.8-.2-.1-.4-.2-.5-.3-.7-.5-1.4-1-2.1-1.7-.2-.2-.4-.4-.6-.7l-.2-.3c-.3-.3-.5-.6-.8-1.1-.3-.4-.5-.8-.7-1.2-.3-.5-.5-.9-.6-1.3-.4-.9-.7-1.9-1-2.8s-.5-1.9-.7-3c-.1-.3-.3-.5-.6-.4l-.2.1-.2.4.1.2c.4 2.4.9 4.4 1.6 6l.6 1.4c.2.5.5.9.8 1.4s.6.9.9 1.3l.2.3c.2.3.5.6.7.8.7.8 1.5 1.4 2.3 1.9.2.1.4.2.5.3.6.4 1.3.7 2 .9a.76.76 0 0 1 .4.2l.9.3 1.3.2c.6.1 1.2.1 1.8.2h.9c.6 0 1.2-.1 1.7-.1.3 0 .6-.1 1-.1.3-.1.6-.2.9-.2.6-.1 1.2-.3 1.8-.5l1.3-.5c.3-.1.6-.3.8-.5l.4-.2c.4-.2.8-.5 1.2-.9a1.38 1.38 0 0 1 .4-.3c.3-.2.5-.4.8-.7l.3-.3.7-.7.9-1.2c.6-.9 1.1-1.8 1.6-2.7.4-.8.7-1.6 1-2.4.4 1 .8 2.2 1.4 3.2l1 1.5a6.73 6.73 0 0 0 1.1 1.4c.4.5.8.9 1.2 1.2a1.38 1.38 0 0 0 .4.3c.3.3.6.5.9.7l1.4.9 1.4.7c.7.4 1.5.6 2.2.8.3.1.5.2.9.3.3.1.7.1 1.1.2.7.1 1.3.3 2 .3.4 0 .7.1 1.1.1.7.1 1.3.1 2.1.1h1c.7 0 1.3 0 2-.2 1-.2 2.1-.4 3.1-.8.9-.2 1.7-.7 2.5-1.2l.5-.3.4-.3c.8-.6 1.6-1.1 2.2-1.9.9-.8 1.6-1.8 2.2-2.8s1.2-2.1 1.7-3.3l.6-1.7c.2.6.5 1.1.7 1.7a28.38 28.38 0 0 0 1.8 3.1c.2.4.5.7.8 1 .1.1.2.3.3.4.4.5.8.9 1.2 1.3.8.8 1.6 1.4 2.5 2l.2.2c.3.2.6.4 1 .5.2.1.3.2.5.3.6.3 1.1.6 1.5.7l1.5.5c.3.1.7.2 1 .2.2 0 .4.1.5.1 1.1.3 2.1.3 3.1.3.4 0 .8.1 1.1.1 1.8 0 3.6-.4 5.2-1.1 1.9-.9 3.8-2.3 5.3-4.1 1.4-1.7 2.6-3.7 3.7-6 .5-1.1.9-2.2 1.3-3.3.2-.6.4-1.1.5-1.7l.5-2h0l.5-1.3zM51.5 144.5c.6.4 1.3.8 2 1 1 .4 2 .6 2.7.7.6.1 1.2.2 1.8.2h1c.6 0 1.2-.1 1.8-.1.3 0 .6-.1 1-.1.3-.1.6-.1.9-.2.6-.1 1.2-.3 1.8-.5l1.3-.5c.3-.1.6-.3.8-.5l.4-.2c.4-.2.8-.5 1.2-.9l.3-.3c.3-.2.6-.4.8-.7l.3-.4c.2-.2.5-.5.7-.8l1-1.2c.6-1 1.2-1.8 1.6-2.7l.8-1.8c.3.9.7 1.8 1.2 2.6l1 1.5c.3.5.7.9 1.1 1.4s.8.9 1.2 1.3a1.38 1.38 0 0 0 .4.3c.3.3.6.6 1 .8l1.4.9 1.4.7c.7.4 1.5.6 2.2.8.3.1.5.2.9.3.3.1.7.1 1 .2.7.1 1.3.3 2 .3.4 0 .7.1 1.1.1.5.1 1 .1 1.5.1h.6 1c.7 0 1.3 0 2-.2 1.1-.2 2.1-.4 3.1-.8.9-.3 1.7-.7 2.5-1.2l.5-.3.4-.3c.8-.6 1.6-1.2 2.2-1.9.9-.9 1.6-1.9 2.2-2.8.6-1 1.1-2.1 1.6-3.3.3-.7.5-1.4.7-2 .2.6.5 1.3.8 2a28.38 28.38 0 0 0 1.8 3.1c.2.4.5.7.8 1 .1.1.2.3.3.4.4.5.8.9 1.2 1.3.7.7 1.5 1.3 2.3 1.9l.4.3c.3.2.6.4 1 .5.2.1.3.2.5.3l1.5.7 1.5.5c.3.1.7.2 1 .2.2 0 .3.1.5.1 1.1.3 2.1.3 3.1.3 2.1.2 4.3-.2 6.3-1.1 1.9-.8 3.7-2.3 5.3-4.1 2.7-3.2 4.7-7.4 6-12.6l-.8-.3c-1.5 4.9-3.6 8.9-6.2 11.7-2.5 2.7-5.8 4.3-9 4.3-.5 0-.9 0-1.4-.1-.9-.1-1.9-.1-2.8-.4-.2 0-.4-.1-.5-.1-.3-.1-.6-.1-.9-.2l-1.4-.5c-.4-.1-.8-.3-1.3-.6-.2-.1-.3-.2-.5-.3-.3-.1-.5-.3-.8-.5l-.4-.3c-.7-.5-1.3-1-1.9-1.7-.4-.3-.7-.7-1-1.1-.1-.1-.2-.3-.3-.4-.2-.3-.4-.5-.6-.9-.5-.8-1.1-1.7-1.6-2.7-.5-1.1-.9-2.1-1.2-3.1-.3-.9-.6-2-.7-3v-.4h-.1a1.44 1.44 0 0 0-1.1-.9c-.5 0-1 .4-1.1 1h-.1l.1.4c-.1 1-.2 2.1-.5 3-.2.9-.5 1.9-.9 3.1-.4 1-.9 2-1.4 2.8s-1.1 1.7-1.9 2.4c-.5.6-1.1 1-1.8 1.5l-.4.3-.5.3c-.7.4-1.3.7-2 .9-.8.3-1.6.5-2.4.6l-.3.1c-.5.2-1.1.2-1.8.2-.4 0-.7 0-1.1.1-.6.1-1.2 0-1.8-.1-.4 0-.7-.1-1-.1-.6 0-1.2-.2-1.8-.3-.3-.1-.7-.1-1-.2s-.5-.2-.8-.3c-.7-.2-1.3-.4-1.9-.7l-1.3-.6-1.3-.8c-.3-.1-.5-.4-.7-.6a1.38 1.38 0 0 0-.4-.3c-.3-.3-.7-.6-1-1-.4-.4-.7-.8-.9-1.2-.4-.5-.6-.9-.8-1.3-.5-.9-.9-1.9-1.3-2.8-.2-.7-.6-1.8-.7-2.9l.1-.4h-.1c-.1-.5-.5-.8-.9-.9-.6-.1-1.1.3-1.2.9h-.1v.4c-.1.8-.3 1.7-.6 2.6-.2.9-.6 1.8-1 2.6s-.8 1.6-1.3 2.4l-.8 1.1-.6.6-.4.4c-.2.2-.4.4-.6.5-.1.1-.2.2-.4.3-.3.2-.6.5-1 .7-.1.1-.3.2-.4.3-.2.1-.5.3-.7.4l-1.2.5c-.5.2-1 .3-1.5.5-.3.1-.6.2-.8.2-.3 0-.6.1-.9.1-.5.1-1.1.2-1.6.2h-.4-1c-.3 0-.7 0-1.1-.1l-1.3-.2c-.2 0-.5-.1-.7-.2s-.3-.1-.5-.1c-.6-.1-1.2-.4-1.7-.8-.2-.1-.4-.2-.5-.3-.7-.5-1.4-1-2.1-1.7-.2-.2-.4-.4-.6-.7l-.2-.3-.8-1.1c-.3-.4-.5-.8-.7-1.2-.3-.5-.5-.9-.6-1.3-.7-1.6-1.3-3.5-1.7-5.7l-.8.2c.2 1 .3 2 .6 3.1.2.9.5 2 .9 3 .2.4.4.9.6 1.4s.5.9.7 1.4c.3.5.6 1 .9 1.3l.2.3c.2.3.5.6.7.9.7.8 1.5 1.4 2.3 2l.4.4z"/><path d="M148.5 146.5l-.9 1.4h0 0l-.2-.1h0l-.2-.1v.6l-.5 1.6-.6 1.6c-.4 1.1-.9 2.1-1.4 3-1.1 2.1-2.3 3.9-3.7 5.3-1.4 1.6-3.1 2.7-4.8 3.4-1.9.7-3.6 1-5.5.7-.9-.1-1.9-.1-2.8-.4-.2 0-.4-.1-.5-.1-.3-.1-.6-.1-.8-.2l-1.4-.5c-.4-.1-.8-.3-1.3-.6-.2-.1-.3-.2-.5-.3-.3-.1-.5-.3-.8-.5l-.5-.4-1.8-1.6c-.4-.3-.7-.7-1-1.1-.1-.1-.2-.3-.3-.4-.2-.3-.4-.5-.6-.8l-1.6-2.7-1.2-3c-.3-.9-.6-2-.7-3v-.4h-.1c-.2-.6-.6-.9-1.2-1-.6 0-1.1.5-1.2 1.1h-.1l.1.4-.4 3c-.2 1-.5 2-.9 3.1s-.9 2-1.4 2.8-1.1 1.7-1.8 2.4a6.55 6.55 0 0 1-1.8 1.5l-.4.3-.5.3c-.7.4-1.3.8-2.1 1-.8.4-1.7.5-2.6.7h-.1c-.5.2-1.2.2-1.8.2-.4 0-.7 0-1.1.1-.6.1-1.2 0-1.8 0-.4 0-.7-.1-1-.1-.6 0-1.2-.2-1.8-.3-.3-.1-.7-.1-1-.2l-.8-.3c-.7-.2-1.3-.4-1.9-.7l-1.3-.6-1.3-.8c-.3-.1-.5-.4-.8-.6a1.38 1.38 0 0 0-.4-.3l-1.1-1c-.4-.4-.7-.8-1-1.2-.4-.5-.6-.9-.9-1.3-.6-.9-1-1.9-1.3-2.9-.4-1.1-.6-2.1-.7-3l.1-.4h-.1c-.1-.3-.4-.6-.7-.6h-.1c-.3 0-.7.2-.8.6h-.1v.4c-.1.9-.3 1.8-.6 2.7l-1 2.7c-.4.8-.8 1.6-1.4 2.4l-.8 1.1-.6.6-.4.4c-.2.2-.4.4-.6.5-.1.1-.3.2-.4.3-.3.2-.6.5-1 .7-.1.1-.3.2-.4.3-.2.1-.5.3-.7.4l-1.2.5c-.5.2-1 .3-1.5.5-.3.1-.6.2-.8.2-.3 0-.6.1-.9.1-.5.1-1.1.2-1.6.2h-.5-.9c-.3 0-.7 0-1.2-.1l-1.3-.2c-.3 0-.5-.1-.8-.2-.2-.1-.3-.1-.5-.2-.6-.2-1.2-.5-1.8-.8-.2-.1-.4-.2-.5-.3-.7-.5-1.4-1-2.1-1.7-.2-.2-.4-.4-.6-.7l-.2-.3c-.3-.3-.5-.6-.8-1.1-.3-.4-.5-.8-.7-1.2-.3-.5-.5-.9-.6-1.3-.4-.9-.7-1.9-1-2.8s-.5-1.9-.7-3c-.1-.3-.3-.5-.6-.4l-.2.1-.2.4.1.2c.4 2.4.9 4.4 1.6 6l.6 1.4c.2.5.5.9.8 1.4s.6.9.9 1.3l.2.3c.2.3.5.6.7.8.7.8 1.5 1.4 2.3 1.9.2.1.4.2.5.3.6.4 1.3.7 2 .9a.76.76 0 0 1 .4.2l.9.3 1.3.2c.6.1 1.2.1 1.8.2h.9c.6 0 1.2-.1 1.7-.1.3 0 .6-.1 1-.1.3-.1.6-.2.9-.2.6-.1 1.2-.3 1.8-.5l1.3-.5c.3-.1.6-.3.8-.5l.4-.2c.4-.2.8-.5 1.2-.9.1-.1.2-.2.4-.3.3-.2.5-.4.8-.7l.3-.3.7-.7.9-1.2c.6-.9 1.1-1.8 1.6-2.7.4-.8.7-1.6 1-2.4.4 1 .8 2.2 1.4 3.2l1 1.5a6.73 6.73 0 0 0 1.1 1.4c.4.5.8.9 1.2 1.2a1.38 1.38 0 0 0 .4.3c.3.3.6.5.9.7L87 164l1.4.7c.7.4 1.5.6 2.2.8.3.1.5.2.9.3.3.1.7.1 1.1.2.7.1 1.3.3 2 .3.4 0 .7.1 1.1.1.7.1 1.3.1 2.1.1h1c.7 0 1.3 0 2-.2 1-.2 2.1-.4 3.1-.8.9-.2 1.7-.7 2.5-1.2l.5-.3.4-.3c.8-.6 1.6-1.1 2.2-1.9.9-.8 1.6-1.8 2.2-2.8s1.2-2.1 1.7-3.3l.6-1.7c.2.6.5 1.1.7 1.7a28.38 28.38 0 0 0 1.8 3.1c.2.4.5.7.8 1 .1.1.2.3.3.4.4.5.8.9 1.2 1.3.8.8 1.6 1.4 2.5 2l.2.2c.3.2.6.4 1 .5.2.1.3.2.5.3.6.3 1.1.6 1.5.7l1.5.5c.3.1.7.2 1 .2.2 0 .4.1.5.1 1.1.3 2.1.3 3.1.3.4 0 .8.1 1.1.1 1.8 0 3.6-.4 5.2-1.1 1.9-.9 3.8-2.3 5.3-4.1 1.4-1.7 2.6-3.7 3.7-6 .5-1.1.9-2.2 1.3-3.3.2-.6.4-1.1.5-1.7l.5-2h0l.3-1.7z"/><use href="#C" x="176.5" y="228.3"/><path d="M1442.9 314l-.9 1.4h0 0l-.2-.1h0l-.2-.1v.6l-.5 1.6-.6 1.6c-.4 1.1-.9 2.1-1.4 3-1.1 2.1-2.3 3.9-3.7 5.3-1.4 1.6-3.1 2.7-4.8 3.4-1.9.7-3.6 1-5.5.7-.9-.1-1.9-.1-2.8-.4-.2 0-.4-.1-.5-.1-.3-.1-.6-.1-.8-.2l-1.4-.5c-.4-.1-.8-.3-1.3-.6-.2-.1-.3-.2-.5-.3-.3-.1-.5-.3-.8-.5l-.5-.4-1.8-1.6c-.4-.3-.7-.7-1-1.1-.1-.1-.2-.3-.3-.4-.2-.3-.4-.5-.6-.8l-1.6-2.7-1.2-3c-.3-.9-.6-2-.7-3v-.4h-.1c-.2-.6-.6-.9-1.2-1-.6 0-1.1.5-1.2 1.1h-.1l.1.4-.4 3c-.2 1-.5 2-.9 3.1s-.9 2-1.4 2.8-1.1 1.7-1.8 2.4a6.55 6.55 0 0 1-1.8 1.5l-.4.3-.5.3c-.7.4-1.3.8-2.1 1-.8.4-1.7.5-2.6.7h-.1c-.5.2-1.2.2-1.8.2-.4 0-.7 0-1.1.1-.6.1-1.2 0-1.8 0-.4 0-.7-.1-1-.1-.6 0-1.2-.2-1.8-.3-.3-.1-.7-.1-1-.2l-.8-.3c-.7-.2-1.3-.4-1.9-.7l-1.3-.6-1.3-.8c-.3-.1-.5-.4-.8-.6a1.38 1.38 0 0 0-.4-.3l-1.1-1c-.4-.4-.7-.8-1-1.2-.4-.5-.6-.9-.9-1.3-.6-.9-1-1.9-1.3-2.9-.4-1.1-.6-2.1-.7-3l.1-.4h-.1c-.1-.3-.4-.6-.7-.6h-.1c-.3 0-.7.2-.8.6h-.1v.4c-.1.9-.3 1.8-.6 2.7l-1 2.7c-.4.8-.8 1.6-1.4 2.4l-.8 1.1-.6.6-.4.4c-.2.2-.4.4-.6.5-.1.1-.3.2-.4.3-.3.2-.6.5-1 .7-.1.1-.3.2-.4.3-.2.1-.5.3-.7.4l-1.2.5c-.5.2-1 .3-1.5.5-.3.1-.6.2-.8.2-.3 0-.6.1-.9.1-.5.1-1.1.2-1.6.2h-.5-.9c-.3 0-.7 0-1.2-.1l-1.3-.2c-.3 0-.5-.1-.8-.2-.2-.1-.3-.1-.5-.2-.6-.2-1.2-.5-1.8-.8-.2-.1-.4-.2-.5-.3-.7-.5-1.4-1-2.1-1.7-.2-.2-.4-.4-.6-.7l-.2-.3c-.3-.3-.5-.6-.8-1.1-.3-.4-.5-.8-.7-1.2-.3-.5-.5-.9-.6-1.3-.4-.9-.7-1.9-1-2.8s-.5-1.9-.7-3c-.1-.3-.3-.5-.6-.4l-.2.1-.2.4.1.2c.4 2.4.9 4.4 1.6 6l.6 1.4c.2.5.5.9.8 1.4s.6.9.9 1.3l.2.3c.2.3.5.6.7.8.7.8 1.5 1.4 2.3 1.9.2.1.4.2.5.3.6.4 1.3.7 2 .9a.76.76 0 0 1 .4.2l.9.3 1.3.2c.6.1 1.2.1 1.8.2h.9c.6 0 1.2-.1 1.7-.1.3 0 .6-.1 1-.1.3-.1.6-.2.9-.2.6-.1 1.2-.3 1.8-.5l1.3-.5c.3-.1.6-.3.8-.5l.4-.2c.4-.2.8-.5 1.2-.9a1.38 1.38 0 0 1 .4-.3c.3-.2.5-.4.8-.7l.3-.3.7-.7.9-1.2c.6-.9 1.1-1.8 1.6-2.7.4-.8.7-1.6 1-2.4.4 1 .8 2.2 1.4 3.2l1 1.5a6.73 6.73 0 0 0 1.1 1.4c.4.5.8.9 1.2 1.2a1.38 1.38 0 0 0 .4.3c.3.3.6.5.9.7l1.4.9 1.4.7c.7.4 1.5.6 2.2.8.3.1.5.2.9.3.3.1.7.1 1.1.2.7.1 1.3.3 2 .3.4 0 .7.1 1.1.1.7.1 1.3.1 2.1.1h1c.7 0 1.3 0 2-.2 1-.2 2.1-.4 3.1-.8.9-.2 1.7-.7 2.5-1.2l.5-.3.4-.3c.8-.6 1.6-1.1 2.2-1.9.9-.8 1.6-1.8 2.2-2.8s1.2-2.1 1.7-3.3l.6-1.7c.2.6.5 1.1.7 1.7a28.38 28.38 0 0 0 1.8 3.1c.2.4.5.7.8 1 .1.1.2.3.3.4.4.5.8.9 1.2 1.3.8.8 1.6 1.4 2.5 2l.2.2c.3.2.6.4 1 .5.2.1.3.2.5.3.6.3 1.1.6 1.5.7l1.5.5c.3.1.7.2 1 .2.2 0 .4.1.5.1 1.1.3 2.1.3 3.1.3.4 0 .8.1 1.1.1 1.8 0 3.6-.4 5.2-1.1 1.9-.9 3.8-2.3 5.3-4.1 1.4-1.7 2.6-3.7 3.7-6 .5-1.1.9-2.2 1.3-3.3.2-.6.4-1.1.5-1.7l.5-2h0l.5-1.3zM767.3 45.2c.6.4 1.3.8 2 1 1 .4 2 .6 2.7.7.6.1 1.2.2 1.8.2h1c.6 0 1.2-.1 1.8-.1.3 0 .6-.1 1-.1.3-.1.6-.1.9-.2.6-.1 1.2-.3 1.8-.5l1.3-.5c.3-.1.6-.3.8-.5l.4-.2c.4-.2.8-.5 1.2-.9l.3-.3c.3-.2.6-.4.8-.7l.3-.4c.2-.2.5-.5.7-.8l1-1.2c.6-1 1.2-1.8 1.6-2.7l.8-1.8c.3.9.7 1.8 1.2 2.6l1 1.5c.3.5.7.9 1.1 1.4s.8.9 1.2 1.3a1.38 1.38 0 0 0 .4.3c.3.3.6.6 1 .8l1.4.9 1.4.7c.7.4 1.5.6 2.2.8.3.1.5.2.9.3.3.1.7.1 1 .2.7.1 1.3.3 2 .3.4 0 .7.1 1.1.1.5.1 1 .1 1.5.1h.6 1c.7 0 1.3 0 2-.2 1.1-.2 2.1-.4 3.1-.8.9-.3 1.7-.7 2.5-1.2l.5-.3.4-.3c.8-.6 1.6-1.2 2.2-1.9.9-.9 1.6-1.9 2.2-2.8.6-1 1.1-2.1 1.6-3.3.3-.7.5-1.4.7-2 .2.6.5 1.3.8 2a28.38 28.38 0 0 0 1.8 3.1c.2.4.5.7.8 1 .1.1.2.3.3.4.4.5.8.9 1.2 1.3.7.7 1.5 1.3 2.3 1.9l.4.3c.3.2.6.4 1 .5.2.1.3.2.5.3l1.5.7 1.5.5c.3.1.7.2 1 .2.2 0 .3.1.5.1 1.1.3 2.1.3 3.1.3 2.1.2 4.3-.2 6.3-1.1 1.9-.8 3.7-2.3 5.3-4.1 2.7-3.2 4.7-7.4 6-12.6l-.8-.3c-1.5 4.9-3.6 8.9-6.2 11.7-2.5 2.7-5.8 4.3-9 4.3-.5 0-.9 0-1.4-.1-.9-.1-1.9-.1-2.8-.4-.2 0-.4-.1-.5-.1-.3-.1-.6-.1-.9-.2l-1.4-.5c-.4-.1-.8-.3-1.3-.6-.2-.1-.3-.2-.5-.3-.3-.1-.5-.3-.8-.5l-.4-.5c-.7-.5-1.3-1-1.9-1.7-.4-.3-.7-.7-1-1.1-.1-.1-.2-.3-.3-.4-.2-.3-.4-.5-.6-.9-.5-.8-1.1-1.7-1.6-2.7-.5-1.1-.9-2.1-1.2-3.1-.3-.9-.6-2-.7-3v-.4h-.1a1.44 1.44 0 0 0-1.1-.9c-.5 0-1 .4-1.1 1h-.1l.1.4c-.1 1-.2 2.1-.5 3-.2.9-.5 1.9-.9 3.1-.4 1-.9 2-1.4 2.8s-1.1 1.7-1.9 2.4c-.5.6-1.1 1-1.8 1.5l-.4.3-.5.3c-.7.4-1.3.7-2 .9-.8.3-1.6.5-2.4.6l-.3.1c-.5.2-1.1.2-1.8.2-.4 0-.7 0-1.1.1-.6.1-1.2 0-1.8-.1-.4 0-.7-.1-1-.1-.6 0-1.2-.2-1.8-.3-.3-.1-.7-.1-1-.2s-.5-.2-.8-.3c-.7-.2-1.3-.4-1.9-.7l-1.3-.6-1.3-.8c-.3-.1-.5-.4-.7-.6-.1-.1-.2-.2-.4-.3-.3-.3-.7-.6-1-1-.4-.4-.7-.8-.9-1.2-.4-.5-.6-.9-.8-1.3-.5-.9-.9-1.9-1.3-2.8-.2-.7-.6-1.8-.7-2.9l.1-.4h-.1c-.1-.5-.5-.8-.9-.9-.6-.1-1.1.3-1.2.9h-.1v.4c-.1.8-.3 1.7-.6 2.6-.2.9-.6 1.8-1 2.6s-.8 1.6-1.3 2.4l-.8 1.1-.6.6-.4.4c-.2.2-.4.4-.6.5a1.38 1.38 0 0 1-.4.3c-.3.2-.6.5-1 .7-.1.1-.3.2-.4.3-.2.1-.5.3-.7.4l-1.2.5c-.5.2-1 .3-1.5.5-.3.1-.6.2-.8.2-.3 0-.6.1-.9.1-.5.1-1.1.2-1.6.2h-.4-1c-.3 0-.7 0-1.1-.1l-1.3-.2c-.2 0-.5-.1-.7-.2s-.3-.1-.5-.1c-.6-.1-1.2-.4-1.7-.8-.2-.1-.4-.2-.5-.3-.7-.5-1.4-1-2.1-1.7-.2-.2-.4-.4-.6-.7l-.2-.3-.8-1.1c-.3-.4-.5-.8-.7-1.2-.3-.5-.5-.9-.6-1.3-.7-1.6-1.3-3.5-1.7-5.7l-.8.2c.2 1 .3 2 .6 3.1.2.9.5 2 .9 3 .2.4.4.9.6 1.4s.5.9.7 1.4c.3.5.6 1 .9 1.3l.2.3c.2.3.5.6.7.9.7.8 1.5 1.4 2.3 2l.4.6z"/><path d="M864.3 47.2l-.9 1.4h0 0l-.2-.1h0l-.2-.1v.6l-.5 1.6-.6 1.6c-.4 1.1-.9 2.1-1.4 3-1.1 2.1-2.3 3.9-3.7 5.3-1.4 1.6-3.1 2.7-4.8 3.4-1.9.7-3.6 1-5.5.7-.9-.1-1.9-.1-2.8-.4-.2 0-.4-.1-.5-.1-.3-.1-.6-.1-.8-.2l-1.4-.5c-.4-.1-.8-.3-1.3-.6-.2-.1-.3-.2-.5-.3-.3-.1-.5-.3-.8-.5l-.5-.4-1.8-1.6c-.4-.3-.7-.7-1-1.1-.1-.1-.2-.3-.3-.4-.2-.3-.4-.5-.6-.8l-1.6-2.7-1.2-3c-.3-.9-.6-2-.7-3v-.4h-.1c-.2-.6-.6-.9-1.2-1-.6 0-1.1.5-1.2 1.1h-.1l.1.4-.4 3c-.2 1-.5 2-.9 3.1s-.9 2-1.4 2.8-1.1 1.7-1.8 2.4a6.55 6.55 0 0 1-1.8 1.5l-.4.3-.5.3c-.7.4-1.3.8-2.1 1-.8.4-1.7.5-2.6.7h-.1c-.5.2-1.2.2-1.8.2-.4 0-.7 0-1.1.1-.6.1-1.2 0-1.8 0-.4 0-.7-.1-1-.1-.6 0-1.2-.2-1.8-.3-.3-.1-.7-.1-1-.2l-.8-.3c-.7-.2-1.3-.4-1.9-.7l-1.3-.6-1.3-.8c-.3-.1-.5-.4-.8-.6-.1-.1-.2-.2-.4-.3l-1.1-1c-.4-.4-.7-.8-1-1.2-.4-.5-.6-.9-.9-1.3-.6-.9-1-1.9-1.3-2.9-.4-1.1-.6-2.1-.7-3l.1-.4h-.1c-.1-.3-.4-.6-.7-.6h-.1c-.3 0-.7.2-.8.6h-.1v.4c-.1.9-.3 1.8-.6 2.7l-1 2.7c-.4.8-.8 1.6-1.4 2.4l-.8 1.1-.6.6-.4.4c-.2.2-.4.4-.6.5-.1.1-.3.2-.4.3-.3.2-.6.5-1 .7-.1.1-.3.2-.4.3-.2.1-.5.3-.7.4l-1.2.5c-.5.2-1 .3-1.5.5-.3.1-.6.2-.8.2-.3 0-.6.1-.9.1-.5.1-1.1.2-1.6.2h-.5-.9c-.3 0-.7 0-1.2-.1l-1.3-.2c-.3 0-.5-.1-.8-.2-.2-.1-.3-.1-.5-.2-.6-.2-1.2-.5-1.8-.8-.2-.1-.4-.2-.5-.3-.7-.5-1.4-1-2.1-1.7-.2-.2-.4-.4-.6-.7l-.2-.3c-.3-.3-.5-.6-.8-1.1-.3-.4-.5-.8-.7-1.2-.3-.5-.5-.9-.6-1.3-.4-.9-.7-1.9-1-2.8s-.5-1.9-.7-3c-.1-.3-.3-.5-.6-.4l-.2.1-.2.4.1.2c.4 2.4.9 4.4 1.6 6l.6 1.4c.2.5.5.9.8 1.4s.6.9.9 1.3l.2.3c.2.3.5.6.7.8.7.8 1.5 1.4 2.3 1.9.2.1.4.2.5.3.6.4 1.3.7 2 .9a.76.76 0 0 1 .4.2l.9.3 1.3.2c.6.1 1.2.1 1.8.2h.9c.6 0 1.2-.1 1.7-.1.3 0 .6-.1 1-.1.3-.1.6-.2.9-.2.6-.1 1.2-.3 1.8-.5l1.3-.5c.3-.1.6-.3.8-.5l.4-.2c.4-.2.8-.5 1.2-.9.1-.1.2-.2.4-.3.3-.2.5-.4.8-.7l.3-.3.7-.7.9-1.2c.6-.9 1.1-1.8 1.6-2.7.4-.8.7-1.6 1-2.4.4 1 .8 2.2 1.4 3.2l1 1.5a6.73 6.73 0 0 0 1.1 1.4c.4.5.8.9 1.2 1.2a1.38 1.38 0 0 0 .4.3c.3.3.6.5.9.7l1.4.9 1.4.7c.7.4 1.5.6 2.2.8.3.1.5.2.9.3.3.1.7.1 1.1.2.7.1 1.3.3 2 .3.4 0 .7.1 1.1.1.7.1 1.3.1 2.1.1h1c.7 0 1.3 0 2-.2 1-.2 2.1-.4 3.1-.8.9-.2 1.7-.7 2.5-1.2l.5-.3.4-.3c.8-.6 1.6-1.1 2.2-1.9.9-.8 1.6-1.8 2.2-2.8s1.2-2.1 1.7-3.3l.6-1.7c.2.6.5 1.1.7 1.7a28.38 28.38 0 0 0 1.8 3.1c.2.4.5.7.8 1 .1.1.2.3.3.4.4.5.8.9 1.2 1.3.8.8 1.6 1.4 2.5 2l.2.2c.3.2.6.4 1 .5.2.1.3.2.5.3.6.3 1.1.6 1.5.7l1.5.5c.3.1.7.2 1 .2.2 0 .4.1.5.1 1.1.3 2.1.3 3.1.3.4 0 .8.1 1.1.1 1.8 0 3.6-.4 5.2-1.1 1.9-.9 3.8-2.3 5.3-4.1 1.4-1.7 2.6-3.7 3.7-6 .5-1.1.9-2.2 1.3-3.3.2-.6.4-1.1.5-1.7l.5-2h0l.5-1.3z"/><use href="#C" x="-1048.6" y="269.4"/><path d="M217.8 355l-.9 1.4h0 0l-.2-.1h0l-.2-.1v.6l-.5 1.6-.6 1.6c-.4 1.1-.9 2.1-1.4 3-1.1 2.1-2.3 3.9-3.7 5.3-1.4 1.6-3.1 2.7-4.8 3.4-1.9.7-3.6 1-5.5.7-.9-.1-1.9-.1-2.8-.4-.2 0-.4-.1-.5-.1-.3-.1-.6-.1-.8-.2l-1.4-.5c-.4-.1-.8-.3-1.3-.6-.2-.1-.3-.2-.5-.3-.3-.1-.5-.3-.8-.5l-.5-.4-1.8-1.6c-.4-.3-.7-.7-1-1.1-.1-.1-.2-.3-.3-.4-.2-.3-.4-.5-.6-.8l-1.6-2.7-1.2-3c-.3-.9-.6-2-.7-3v-.4h-.1c-.2-.6-.6-.9-1.2-1-.6 0-1.1.5-1.2 1.1h-.1l.1.4-.4 3c-.2 1-.5 2-.9 3.1s-.9 2-1.4 2.8-1.1 1.7-1.8 2.4a6.55 6.55 0 0 1-1.8 1.5l-.4.3-.5.3c-.7.4-1.3.8-2.1 1-.8.4-1.7.5-2.6.7h-.1c-.5.2-1.2.2-1.8.2-.4 0-.7 0-1.1.1-.6.1-1.2 0-1.8 0-.4 0-.7-.1-1-.1-.6 0-1.2-.2-1.8-.3-.3-.1-.7-.1-1-.2l-.8-.3c-.7-.2-1.3-.4-1.9-.7l-1.3-.6-1.3-.8c-.3-.1-.5-.4-.8-.6a1.38 1.38 0 0 0-.4-.3l-1.1-1c-.4-.4-.7-.8-1-1.2-.4-.5-.6-.9-.9-1.3-.6-.9-1-1.9-1.3-2.9-.4-1.1-.6-2.1-.7-3l.1-.4h-.1c-.1-.3-.4-.6-.7-.6h-.1c-.3 0-.7.2-.8.6h-.1v.4c-.1.9-.3 1.8-.6 2.7l-1 2.7c-.4.8-.8 1.6-1.4 2.4l-.8 1.1-.6.6-.4.4c-.2.2-.4.4-.6.5-.1.1-.3.2-.4.3-.3.2-.6.5-1 .7-.1.1-.3.2-.4.3-.2.1-.5.3-.7.4l-1.2.5c-.5.2-1 .3-1.5.5-.3.1-.6.2-.8.2-.3 0-.6.1-.9.1-.5.1-1.1.2-1.6.2h-.5-.9c-.3 0-.7 0-1.2-.1l-1.3-.2c-.3 0-.5-.1-.8-.2-.2-.1-.3-.1-.5-.2-.6-.2-1.2-.5-1.8-.8-.2-.1-.4-.2-.5-.3-.7-.5-1.4-1-2.1-1.7-.2-.2-.4-.4-.6-.7l-.2-.3c-.3-.3-.5-.6-.8-1.1-.3-.4-.5-.8-.7-1.2-.3-.5-.5-.9-.6-1.3-.4-.9-.7-1.9-1-2.8s-.5-1.9-.7-3c-.1-.3-.3-.5-.6-.4l-.2.1-.2.4.1.2c.4 2.4.9 4.4 1.6 6l.6 1.4c.2.5.5.9.8 1.4s.6.9.9 1.3l.2.3c.2.3.5.6.7.8.7.8 1.5 1.4 2.3 1.9.2.1.4.2.5.3.6.4 1.3.7 2 .9a.76.76 0 0 1 .4.2l.9.3 1.3.2c.6.1 1.2.1 1.8.2h.9c.6 0 1.2-.1 1.7-.1.3 0 .6-.1 1-.1.3-.1.6-.2.9-.2.6-.1 1.2-.3 1.8-.5l1.3-.5c.3-.1.6-.3.8-.5l.4-.2c.4-.2.8-.5 1.2-.9.1-.1.2-.2.4-.3.3-.2.5-.4.8-.7l.3-.3.7-.7.9-1.2c.6-.9 1.1-1.8 1.6-2.7.4-.8.7-1.6 1-2.4.4 1 .8 2.2 1.4 3.2l1 1.5a6.73 6.73 0 0 0 1.1 1.4c.4.5.8.9 1.2 1.2.1.1.2.2.4.3.3.3.6.5.9.7l1.4.9 1.4.7c.7.4 1.5.6 2.2.8.3.1.5.2.9.3.3.1.7.1 1.1.2.7.1 1.3.3 2 .3.4 0 .7.1 1.1.1.7.1 1.3.1 2.1.1h1c.7 0 1.3 0 2-.2 1-.2 2.1-.4 3.1-.8.9-.2 1.7-.7 2.5-1.2l.5-.3.4-.3c.8-.6 1.6-1.1 2.2-1.9.9-.8 1.6-1.8 2.2-2.8s1.2-2.1 1.7-3.3l.6-1.7c.2.6.5 1.1.7 1.7a28.38 28.38 0 0 0 1.8 3.1c.2.4.5.7.8 1 .1.1.2.3.3.4.4.5.8.9 1.2 1.3.8.8 1.6 1.4 2.5 2l.2.2c.3.2.6.4 1 .5.2.1.3.2.5.3.6.3 1.1.6 1.5.7l1.5.5c.3.1.7.2 1 .2.2 0 .4.1.5.1 1.1.3 2.1.3 3.1.3.4 0 .8.1 1.1.1 1.8 0 3.6-.4 5.2-1.1 1.9-.9 3.8-2.3 5.3-4.1 1.4-1.7 2.6-3.7 3.7-6 .5-1.1.9-2.2 1.3-3.3.2-.6.4-1.1.5-1.7l.5-2h0l.5-1.3z"/><path d="M266 105.3h-42.2-21.7l-99.9-.1H59.6L0 105.1V73c9.8-4.2 20.3-6.4 31.1-6.4 14.8 0 28.9 4.3 41.6 11.9 19.4-34.4 43.3-54.8 69.1-54.8 28.6 0 54.8 25.2 75.2 66.8 5.3-3.2 11-5 17-5 12.5 0 23.8 7.6 32 19.8zm1174 115v62.2h-21.4-29.5l-62-.1h-7.3-37c5.7-9.4 13.6-15.2 22.2-15.2 6.9 0 13.3 3.9 18.6 10.3 12.4-15.4 28.3-24.7 45.7-24.7 10.3 0 20.1 3.3 28.9 9.2 11.9-23.6 26.2-38.6 41.8-41.7z" opacity=".74"/></g><path d="M248.5 324.4H228h-10.5l-48.6-.1h-20.7-43.5-5.1-.3l3-3.1c8.7-9.7 19.8-15.6 32.1-15.6 7.2 0 14.1 2.1 20.3 5.8 9.5-16.8 21.1-26.7 33.6-26.7 13.9 0 26.7 12.3 36.6 32.5 2.6-1.6 5.4-2.5 8.3-2.5 5.9 0 11.3 3.7 15.3 9.7zM1288.7 40h-20.5-10.5-48.7-20.7-43.5-5.1-.3l3-3.1c8.7-9.7 19.8-15.6 32.1-15.6 7.2 0 14.1 2.1 20.3 5.8 9.5-16.8 21.1-26.7 33.6-26.7 13.9 0 26.7 12.3 36.6 32.5 2.6-1.6 5.4-2.5 8.3-2.5 5.9 0 11.4 3.7 15.4 9.6z" opacity=".47" fill="#80b7f0"/><path d="M1416.4 613.2V648h-38.6v-34.4h-51.9v-31.5h-31.2V648h-21.4v-98.5h-33.8V648h-31.7v-50.6h-40.5v-14h-30.1v30.2H1110v-31.9h-72.1V648h-3.9v-98.5h-33.8v4.6h-38v-42.2h-63.7v71.5h-.6V648h-26.1v-56.5h-1.1v-9.8h-72.1V648h-35.5v-93.9h-40.2v-42.2h-63.8V648h-26.6v-56.5h-21.2V648H600v-34.8h-22.9V648h-38.6v-34.4h-51.9v-31.5h-31.2V648H434v-98.5h-33.8V648h-31.7v-50.6H328v-14h-30.1V648h-27.2v-66.3h-72.1V648h-35.5v-93.9h-40.2v-42.2H59.1V648H32.5v-56.5H11.3V648H0v73.1h600 239.3H1200h239.3v-51.3V648v-34.8z" fill="#a5d1e8"/><path d="M0 724.5h1440.1V900H0z" fill="#4092dd"/><path d="M0 721.3h1440.1v5H0z" fill="#6a7c85"/><g fill="#1c4a77"><path d="M481.9 639.5v25.1H470l-11.1-5.7c6.2-6.1 13.9-12.6 23-19.4m1.7-3.2c-11 8-20.1 15.7-26.9 22.4v.8l12.9 6.7h14v-29.9h0zm53.7 24.2v4h-4.5l4.5-4m1.6-3.5l-2.3 2c-2.9 2.5-5.6 4.9-8.1 7.2h10.4V657h0z"/><path d="M537.3 604.6v54.6c-3.4.9-15.2 3.3-23.6 5v-46.1c7.5-4.5 15.4-9.1 23.6-13.5m1.6-2.7c-9.5 5.1-18.5 10.2-26.9 15.4v49s26.1-5.1 26.9-5.8v-58.6h0zm53.8-23.3v86h-23.6v-75.8c7.8-3.6 15.7-7 23.6-10.2m1.6-2.4c-9.2 3.7-18.2 7.5-26.9 11.5v78.5h26.9v-90h0zm53.8-16.3v104.7h-23.6V567c7.9-2.6 15.8-5 23.6-7.1m1.6-2.1c-9.1 2.4-18.1 5.1-26.9 8v100.4h26.9V557.8h0zm53.8-9v115.8h-23.6v-112c7.9-1.6 15.8-2.8 23.6-3.8m1.6-1.9c-9 1.1-18 2.5-26.9 4.3v115h26.9V546.9h0zm40.8-.9c4.3 0 8.6.1 12.9.2v118.4h-23.6V546.2c3.6-.2 7.2-.2 10.7-.2m0-1.7c-4.1 0-8.2.1-12.4.2v121.6h26.9V544.6c-4.7-.2-9.6-.3-14.5-.3h0zm44.7 4.3c7.8.9 15.8 2.1 23.6 3.5v112.4h-23.6V548.6m-1.6-1.8v119.4h26.9V550.8c-8.9-1.6-17.8-3-26.9-4h0zm57 12.3c7.8 2 15.8 4.3 23.6 6.9v98.6H846V559.1m-1.7-2.1v109.2h26.9V564.8c-8.7-2.8-17.7-5.4-26.9-7.8h0zm57.1 20.5c7.9 3.2 15.9 6.6 23.6 10.3v76.8h-23.6v-87.1m-1.7-2.4v91.1h26.9v-79.5c-8.6-4.1-17.6-8-26.9-11.6h0zm57 28.9c8.1 4.5 16 9.3 23.6 14.2v46.4h-23.6V604m-1.6-2.8v65H982v-48.9c-8.3-5.4-17.3-10.8-26.9-16.1h0zm57 39.5c7.8 6.2 15 12.4 20.9 18.2l-20.9 10.8v-29m-1.6-3.4v35l25.3-13.1c-6.6-6.6-15.1-14-25.3-21.9h0z"/><path d="M445.7 659h602.7v7.2H445.7z"/><path d="M745.3 546.9c31.4 0 63.5 4.1 95.7 12.1 28 7 56 17 83.1 29.7 58.8 27.5 93.7 57.7 106.1 69.5l-29.7 22.8c-8.4-8.1-38.9-36-83.8-61.9-57.5-33.1-115.2-49.9-171.4-49.9-56.1 0-114 17-172.1 50.6-45 26-74.8 53.2-83 61.2l-29.7-22.8c10.4-9.9 25.2-21.2 42.1-32.2 20.7-13.5 44.4-26.4 68.4-37.3 42-19.1 106.2-41.8 174.3-41.8m0-3.3c-123.1 0-248.8 73.9-289.8 114.9l34.9 26.8c16.6-16.6 123.5-112.8 254.9-112.8s236.3 94.3 254.9 112.8l34.9-26.8c-40.8-40.9-154.8-114.9-289.8-114.9h0z"/></g><g fill="#9b8374"><path d="M1046.5 681.7h-41l4.6-74h31.8z"/><use href="#D"/><use href="#D" class="AO"/><use href="#E"/><use href="#E" class="AO"/><path d="M1050 629.7h-48l1-12.2h46.1zm2.2 37.8h-52.4l.4-10.4h51.5z"/></g><path d="M1030.7 657h-9.4v-9.2c0-2.6 2.1-4.7 4.7-4.7h0c2.6 0 4.7 2.1 4.7 4.7v9.2z" fill="#3d3632"/><path d="M778.4 738.5v21.7l-462.8 43.3-75.3-8.4s-173.1-7.5-212-20.7c-4.9-1.7-7.2-3.4-7.5-5v-18l757.6-12.9z" fill="#596970"/><path d="M114.3 729.4s-125.1 14.1-86.1 27.3c38.9 13.3 212 20.7 212 20.7l75.3 8.4 462.8-43.3v-21.7s-41.7-12.5-84-15.2-167.9-7.6-167.9-7.6l-412.1 31.4z" fill="#6a7c85"/><g class="AH"><use href="#F"/><use href="#F" class="AL"/></g><path d="M240.7 532s38.8 8.1 70 31.1c2.4 1.7-22.9 64.8-22.9 64.8s5.5-27-47.1-95.9z" class="AJ"/><g class="AH"><path d="M297.1 656.6l-45.2-49.9-5.6-6.1c-8.4-26.7-5.5-68.5-5.5-68.5s1.6 2.2 4.3 6.2c7 10.3 21.3 32.2 34.7 57.4 18.6 35 17.3 60.9 17.3 60.9z"/><path d="M247.8 542.1s1.3 41.4 7.8 68.9l-9.1-10.4-5.1-50.7 3.2-10.1 3.2 2.3z" class="AP"/></g><path d="M273 588.1s-8.9 4.9-11.6 12.2l1.1 14.6s30.7 13.8 19.7-8.8c-2.8-5.6-8.1-16.9-9.2-18z" class="AJ"/><g class="AM"><use href="#G"/><path d="M251.9 606.7l-5.6-6.1c-8.4-26.7-5.5-68.5-5.5-68.5s1.6 2.2 4.3 6.2c-1.2 14.1-1.2 37.8 6.8 68.4z"/></g><path d="M201.3 623l7.2 91.5 88.1-12z" class="AJ"/><path d="M208.9 715.3l-53.6-40.5c-14.2-22.8-32.7-60.2-32.7-60.2s5.6 4.4 9.2 7.6c9.3 8.2 28.6 25.9 47.9 47.1 26.5 29.3 29.2 46 29.2 46z" class="AH"/><path d="M162.5 680.3l-7.2-5.5c-15.4-23.4-33.5-60.7-33.5-60.7s.4.1 4.1 3.2c17.6 34.3 26.5 50.5 36.6 63z" class="AM"/><g class="AH"><use href="#H"/><use href="#H" class="AL"/><path d="M150.8 639.3v23.5l-12.9 17.3 52.4 1.8z" class="AP"/><use href="#I"/></g><g fill="#618b9b"><use href="#I"/><use href="#I" class="AL"/></g><path d="M210 718.5s-25.8-50.5-86.5-101.2l-1.7-3.2c77.2 60.2 86.9 99 86.9 99l1.3 5.4z" class="AM"/><g class="AJ"><use href="#J"/><use href="#J" opacity=".3"/></g><g class="AH"><path d="M249.9 703.1l-45.2-49.9-5.6-6.1c-8.4-26.7-5.5-68.5-5.5-68.5s1.6 2.2 4.3 6.2c7 10.3 21.3 32.2 34.7 57.4 18.5 35.1 17.3 60.9 17.3 60.9z"/><path d="M199.4 588.5s1 31.5 5.9 52.5l-7-7.9-3.9-38.7 2.5-7.7 2.5 1.8z" class="AP"/></g><path d="M213.7 614.1s-9.5 5.8-10.6 10.8l4.6 60.4 24.2-6.2c0 .1 12.2-18.9-18.2-65z" class="AJ"/><g class="AM"><use href="#G" x="-47.2" y="46.5"/><path d="M204.7 653.3l-5.6-6.1c-8.4-26.7-5.5-68.5-5.5-68.5s1.6 2.2 4.3 6.2c-1.3 14.1-1.3 37.8 6.8 68.4z"/></g><path d="M121.8 614.2s47.6-3.8 83.9 9.8c2.7 1 3.1 89.2 3.1 89.2s-10.9-39.3-87-99zM563 710.5l-11.6-17.2-22.9 9-34.2-12.6-19.9 32.3s-46.7-52-3.3-95.9l3.4-3.4c42.3-39.5 85.4-20.4 85.4-20.4 20.7 92.1 3.1 108.2 3.1 108.2z" class="AJ"/><path d="M551.3 693.3l-22.8 9.3-34.2-12.8-19.9 32.3s-46.7-52-3.3-95.9l3.4-3.4 76.8 70.5z" class="AH AO"/><g class="AM"><path d="M493.4 691.7l35.1 10.9 22.8-9.3.5-5.1-22.9 10.8-36.6-10.9-12.2 24.7 2.6-.1z"/><path d="M561.3 707.9h3.3s-4.8-10.5-12.8-19.7l-.4 5.2 9.9 14.5zM339 567.1c0-23.5 14-62.1 14-62.1s46.5 27.4 85.6 100.7c39.2 73.3 35.8 116.4 35.8 116.4L339 567.1z"/></g><g class="AH"><path d="M343.4 582.2c.8-13.7 8.4-52 14.3-67.1 4.5 3.6 13.6 11.7 20.3 18.2 14.4 14.1 37.4 37.7 55.2 75 16.4 34.5 25.5 61.9 31.3 81.4.1.5-121.1-107.5-121.1-107.5z"/><path d="M349 588.1c2.3-17.6 8.9-50.7 14.9-67.8l12.2 11.2c13.9 13.6 26.2 26 49.6 64.2 21.2 34.6 33.8 80.9 38.6 93.9L349 588.1z"/></g><path d="M353 505s42 6.8 72.7 44.9 40.3 61 40.3 61 18.1 30.7 16.2 65.2c-1.8 34.5-7.8 45.9-7.8 45.9s-9.2-66.9-36.8-117.9C398.1 531.3 353 505 353 505zm-48.2 55.3s49.8 4.8 76.3 33c32.8 35 47.2 120.6 47.2 120.6s-34.8-97.7-123.5-153.6z" class="AJ"/><g class="AH"><path d="M295.4 606.7s9.5-24.8 14.5-33.8c0 0 87.5 78.4 113.2 144.2L295.4 606.7z"/><path d="M318.2 574.4s-16.3 35.4-17.8 42.7l-4.2-12.9 13.7-31.4 8.3 1.6z" class="AP"/></g><path d="M334.3 596.4l-12.7 17.9L423.1 717l-21.3-49.2zm71.9-30.1L374 592.2 428.2 714l5.9-2.7 39.9 5.4s-30.6-112.2-67.8-150.4z" class="AJ"/><path d="M304.8 560.3s-17.3 24.9-19.1 44c-1.9 19.1 9.8 2.3 9.8 2.3s9.5-24.8 14.5-33.8c0 0 87.5 78.4 113.2 144.2l5.2-3.1c-.2.1-37.2-102.6-123.6-153.6zm-70.7 40.6s-15.7 39.3-8.8 78.5l3.3-1.1s-1.7-49.8 10-67.1l-4.5-10.3z" class="AM"/><g class="AH"><use href="#K"/><use href="#K" class="AL"/><path d="M337.1 685.9c-39-1.4-76.2-5.3-101.2-7.2-2.7-23.4.6-47.4 9.5-69.2 0 0 53.6 32 71.5 50.3s20.2 26.1 20.2 26.1z" class="AP"/></g><path d="M320.2 611.2c-49-16.7-86.2-10.3-86.2-10.3l4.6 10.3s41.1 17.2 115.6 95.3l75.3 1s-67.1-81.9-109.3-96.3zm377 24.1c.3 33-4.2 65.4-4.2 65.4l-10.2 2.5-8.3-12.4-33.8 2.2s-15.3-30.4-14.7-31.1c.9-1.1 1.9-2.2 3-3.3 23.1-23.2 68.2-23.3 68.2-23.3z" class="AJ"/><path d="M674.5 690.7l-33.8 2.2s-15.3-30.4-14.7-31.1c.9-1.1 1.9-2.2 3-3.3l45.5 32.2z" class="AH AO"/><path d="M586 698.9c-3.4-7.2-9-44.1-9-44.1s18.1 1.7 40.5 18.4 27.6 30.3 27.6 30.3l-59.1-4.6z" class="AM"/><g class="AH"><use href="#L" opacity=".8"/><use href="#L" class="AL"/><path d="M591.3 696.7c-1.8-6.7-5.5-32.2-5.9-38 .8.2 1.6.5 2.5.8 6.2 2.1 14.8 6.2 26.2 13.5 11.5 7.4 23 24.5 26.3 27.8l-49.1-4.1z" class="AL"/></g><path d="M577 654.8s24.5-2.1 48.9 7.4c4.1 1.6 21.5 30.4 21.5 30.4l-2.3 10.8s-12.4-19-28.1-30.6c-22.5-16.4-40-18-40-18z" class="AJ"/><path d="M617.5 673.2c-22.4-16.7-40.5-18.4-40.5-18.4s5.6 36.9 9 44.1l59.1 4.6c0 0-5.2-13.6-27.6-30.3zm-36.2-15.5c1.9.4 4.4 1.1 7.4 2.1 6.4 2.2 16.6 6.3 27.5 14.9 14.1 11.1 24 26 24.1 26.1l-51.9-4.1c-1.7-4.2-6.5-34.9-7.1-39z" class="AM"/><use href="#M" class="AH"/><g class="AL AH"><use href="#M"/></g><g fill="#a6836e"><path d="M737 721.5v18.6l-313.8 27.1-106.4 9.7-207.3-18.4v-51.3h13.2v-16.1l211.1 12.4 59.5-4.6 29.4 5.6 24.2 1.6 27.8 7 227.2-13.4z"/><path d="M199.9 695.4l-77.2-4.4v16.1h-13.2v51.3l85.7 7.6" class="AO"/><path d="M176.5 699.4v17.1h-8.8v16.1h-11v29.7l160.1 14.6v-70.1z"/><path d="M737 721.5v18.6l-313.8 27.1v-49.9l-.5-12.8 24.2 1.6 27.8 7 227.2-13.4z" class="AO"/></g><g fill="#483c35"><path d="M309 724.3l-132.5-7.8v-7.4l132.5 7.4zm-.4 16.8l-140.8-8.7v-7.8l140.8 8.7zm197 7.7l187.7-12.3v-7.8L505.6 741z"/><path d="M176.5 710.2l-53.8-2.9v-8l53.7 3.2z"/></g><path d="M1440 757.6V900H729c.3-.2.7-.3 1-.5 10.8-5.5 28.4-14.1 51.8-24.5 116.9-52 378.3-148.1 658.2-117.4z" fill="#fdd941"/><g fill="#eac01e"><ellipse cx="1099.4" cy="875.3" rx="139" ry="25.9" opacity=".58"/><path d="M1420.3 844.2c-.5-.3-1-.6-1.5-.7-.7-.3-1.4-.4-2-.5-.4-.1-.9-.1-1.3-.1h-.7c-.5 0-.9.1-1.3.1-.2 0-.4.1-.7.1-.2.1-.4.1-.7.2-.4.1-.9.2-1.3.4l-1 .4-.6.3-.3.2c-.3.2-.6.3-.9.6-.1.1-.2.1-.3.2-.2.2-.4.3-.6.5l-.3.3c-.2.2-.3.4-.5.6l-.7.9a15.07 15.07 0 0 0-1.2 2l-.6 1.3c-.2-.6-.5-1.3-.9-1.9-.2-.4-.4-.7-.7-1.1-.2-.3-.5-.7-.8-1-.3-.4-.6-.7-.9-.9-.1-.1-.2-.2-.3-.2-.2-.2-.5-.4-.7-.6l-1-.7-1.1-.5c-.5-.3-1.1-.4-1.6-.6-.2-.1-.4-.1-.6-.2-.3 0-.5-.1-.8-.2l-1.5-.3c-.3 0-.5 0-.8-.1-.4 0-.7-.1-1.1-.1h-.4-.7c-.5 0-1 0-1.5.2-.8.1-1.6.3-2.3.6-.7.2-1.3.5-1.8.9l-.4.2-.3.2c-.6.4-1.1.8-1.6 1.4-.7.6-1.2 1.4-1.6 2.1s-.8 1.5-1.2 2.4c-.2.5-.4 1-.5 1.5l-.6-1.4c-.4-.9-.9-1.6-1.3-2.3-.2-.3-.4-.5-.6-.7-.1-.1-.2-.2-.2-.3-.3-.3-.6-.7-.9-.9a11.51 11.51 0 0 0-1.7-1.4l-.3-.2c-.2-.1-.5-.3-.7-.4-.1-.1-.2-.1-.4-.2l-1.1-.5-1.1-.4c-.2-.1-.5-.1-.8-.2-.1 0-.3 0-.4-.1-.8-.2-1.6-.2-2.3-.3-1.5-.1-3.2.1-4.6.8-1.4.6-2.7 1.7-3.9 3-2 2.4-3.5 5.5-4.4 9.3l.6.2c1.1-3.6 2.6-6.5 4.5-8.6 1.8-2 4.2-3.1 6.7-3.1.3 0 .7 0 1 .1.7 0 1.4.1 2.1.3.1 0 .3.1.4.1.2 0 .4.1.6.2l1 .4c.3.1.6.2.9.5.1.1.2.1.4.2l.6.3.3.2c.5.4 1 .7 1.4 1.2.3.3.5.5.7.8.1.1.2.2.2.3.2.2.3.4.5.6.4.6.8 1.2 1.2 2s.7 1.5.9 2.2.4 1.5.5 2.2v.3h.1c.1.4.4.6.8.6s.7-.3.8-.7h.1v-.3c.1-.7.2-1.5.4-2.2s.4-1.4.7-2.3c.3-.8.7-1.4 1-2 .4-.6.8-1.2 1.4-1.8.4-.4.8-.8 1.3-1.1l.3-.2.4-.2c.5-.3 1-.5 1.5-.7.6-.2 1.2-.4 1.8-.5h.2c.4-.1.8-.1 1.3-.1h.8 1.3c.3 0 .5 0 .8.1.4 0 .9.1 1.3.2.3.1.5.1.7.1.2.1.4.1.6.2.5.1.9.3 1.4.5l.9.5.9.6c.2.1.4.3.5.4s.2.2.3.2c.2.2.5.4.8.8.3.3.5.6.7.9.3.3.4.6.6.9.4.6.7 1.4 1 2.1.2.5.4 1.3.5 2.1v.3h.1a1.21 1.21 0 0 0 .7.7c.4.1.8-.2.9-.7h.1v-.3c.1-.6.2-1.3.4-1.9s.4-1.3.7-1.9.6-1.2 1-1.8l.6-.8c.1-.2.3-.3.4-.5l.3-.3.4-.4c.1-.1.2-.1.3-.2.2-.2.4-.4.7-.5.1-.1.2-.1.3-.2.2-.1.3-.2.5-.3l.9-.4c.3-.2.7-.3 1.1-.4.2-.1.4-.1.6-.2.2 0 .5-.1.7-.1.4-.1.8-.1 1.2-.1h.3.7c.2 0 .5 0 .8.1l.9.1c.2 0 .4.1.5.1s.2.1.4.1a3.79 3.79 0 0 1 1.3.6c.1.1.3.1.4.2.5.4 1.1.7 1.5 1.2.2.1.3.3.5.5l.2.2c.2.3.4.6.6.8.2.3.4.6.5.9.2.3.3.6.5.9.5 1.2.9 2.5 1.3 4.2l.6-.2c-.1-.7-.2-1.5-.4-2.3-.2-.7-.4-1.5-.7-2.2-.1-.3-.3-.7-.5-1.1-.2-.3-.3-.7-.5-1-.2-.4-.4-.7-.6-1l-.2-.2c-.2-.2-.3-.5-.5-.6-.5-.6-1.1-1-1.7-1.5h-.6zm-71.3-1.5l.7-1h0 0l.2.1h0l.1.1v-.4l.4-1.2c.1-.4.3-.8.4-1.2.3-.8.7-1.5 1-2.2.8-1.5 1.7-2.8 2.7-3.9 1.1-1.1 2.3-2 3.5-2.5 1.4-.5 2.7-.7 4.1-.5.7 0 1.4.1 2.1.3.1 0 .3.1.4.1.2 0 .4.1.6.2l1 .4c.3.1.6.2.9.4.1.1.2.1.3.2l.6.3.4.3 1.3 1.1c.3.2.5.5.7.8.1.1.2.2.2.3.2.2.3.4.5.6l1.2 2c.4.8.7 1.5.9 2.2s.4 1.4.5 2.2v.3h.1c.1.4.4.7.9.7.4 0 .8-.4.9-.8h.1v-.3c0-.7.2-1.5.3-2.2s.4-1.4.7-2.3c.3-.8.6-1.4 1-2.1.4-.6.8-1.2 1.4-1.8.4-.4.8-.8 1.3-1.1l.3-.2.4-.2c.5-.3 1-.6 1.5-.7.6-.3 1.2-.4 1.9-.5h.1c.4-.1.9-.1 1.3-.2h.8 1.3c.3 0 .5 0 .8.1.4 0 .9.1 1.3.2.3.1.5.1.7.1.2.1.4.1.6.2.5.1 1 .3 1.4.5l.9.5.9.6c.2.1.4.3.6.4.1.1.2.2.3.2.2.2.5.4.8.8.3.3.5.6.7.9.3.4.5.6.6 1 .4.7.7 1.4 1 2.1.3.8.5 1.5.5 2.2v.3h.1c.1.2.3.4.5.4h.1c.3 0 .5-.2.6-.4h.1v-.3l.4-2 .7-2 1-1.8.6-.8c.1-.2.3-.3.4-.5l.3-.3.4-.4c.1-.1.2-.1.3-.2.2-.2.5-.4.8-.5.1-.1.2-.1.3-.2.2-.1.3-.2.5-.3l.9-.4c.4-.2.7-.3 1.1-.4.2-.1.5-.1.6-.2.2 0 .5-.1.7-.1.4-.1.8-.1 1.2-.1h.4.7c.3 0 .5 0 .8.1l.9.1c.2 0 .4.1.6.2.1 0 .2.1.4.1a3.79 3.79 0 0 1 1.3.6c.1.1.3.1.4.2.5.4 1.1.8 1.5 1.3.2.1.3.3.5.5l.2.2c.2.2.4.5.6.8s.4.6.5.9l.5 1c.3.7.5 1.4.7 2 .2.7.3 1.4.5 2.2 0 .2.2.3.4.3l.2-.1.2-.3v-.2c-.3-1.8-.7-3.2-1.2-4.4a4.67 4.67 0 0 0-.5-1c-.2-.3-.3-.7-.6-1-.2-.4-.4-.7-.6-.9l-.2-.2c-.2-.2-.3-.5-.5-.6-.5-.6-1.1-1-1.7-1.4-.1-.1-.3-.1-.4-.2-.5-.3-.9-.5-1.5-.7-.1 0-.2-.1-.3-.1-.2-.1-.4-.2-.7-.2l-1-.2c-.4-.1-.9-.1-1.3-.1h-.7c-.4 0-.9.1-1.3.1-.2 0-.4.1-.7.1-.2.1-.4.1-.7.2-.4.1-.9.2-1.3.4l-.9.4-.6.3-.3.2c-.3.2-.6.3-.9.6-.1.1-.2.1-.3.2-.2.2-.4.3-.6.5l-.3.3-.5.5-.7.9c-.5.7-.8 1.3-1.2 2-.3.6-.5 1.2-.7 1.8-.3-.7-.6-1.6-1.1-2.3-.2-.4-.4-.7-.7-1.1-.2-.3-.5-.7-.8-1-.3-.4-.6-.7-.9-.9-.1-.1-.2-.2-.3-.2-.2-.2-.4-.4-.7-.5l-1-.7-1-.5c-.5-.3-1.1-.4-1.6-.6-.2-.1-.4-.1-.6-.2-.3 0-.5-.1-.8-.2l-1.5-.3c-.3 0-.5 0-.8-.1-.5 0-1-.1-1.5-.1h-.7c-.5 0-1 0-1.5.1a11.2 11.2 0 0 0-2.3.6c-.7.2-1.3.5-1.8.8l-.4.2-.3.2c-.6.4-1.1.8-1.6 1.4-.6.6-1.2 1.3-1.6 2.1-.4.7-.9 1.5-1.2 2.4-.2.5-.3.9-.4 1.3-.2-.4-.3-.8-.5-1.3-.4-.9-.9-1.6-1.3-2.3-.2-.3-.4-.5-.6-.8-.1-.1-.2-.2-.2-.3-.3-.3-.6-.7-.9-1a11.92 11.92 0 0 0-1.8-1.5l-.2-.1c-.2-.1-.5-.3-.7-.4-.1-.1-.2-.1-.4-.2l-1.1-.5-1.1-.4c-.2-.1-.5-.1-.8-.2-.1 0-.3 0-.4-.1-.8-.2-1.6-.2-2.3-.3h-.8c-1.3 0-2.7.3-3.8.8-1.4.6-2.8 1.7-3.9 3.1-1 1.2-1.9 2.7-2.7 4.4-.4.8-.7 1.6-.9 2.4-.1.4-.3.8-.4 1.3l-.4 1.5h0l-.5 1.2zm-242.8-45a4.67 4.67 0 0 0-1-.5c-.5-.2-1-.3-1.4-.4-.3-.1-.6-.1-.9-.1h-.5c-.3 0-.6 0-.9.1-.2 0-.3 0-.5.1-.2 0-.3.1-.5.1-.3.1-.6.1-.9.3l-.7.3a.76.76 0 0 1-.4.2l-.2.1c-.2.1-.4.2-.6.4-.1 0-.1.1-.2.1-.1.1-.3.2-.4.4l-.2.2-.4.4-.5.6-.8 1.4c-.1.3-.3.6-.4.9-.2-.4-.4-.9-.6-1.4-.1-.3-.3-.5-.5-.8-.2-.2-.3-.5-.6-.7-.2-.3-.4-.5-.6-.7l-.2-.2c-.2-.1-.3-.3-.5-.4l-.7-.5-.7-.4c-.4-.2-.8-.3-1.1-.4-.1 0-.3-.1-.4-.1-.2 0-.4-.1-.5-.1-.3-.1-.7-.2-1.1-.2h-.5c-.3 0-.5-.1-.8-.1h-.3-.5c-.3 0-.7 0-1.1.1-.6.1-1.1.2-1.6.4-.5.1-.9.4-1.3.6l-.3.2-.2.2c-.4.3-.8.6-1.1 1-.5.4-.8 1-1.1 1.5s-.6 1.1-.8 1.7c-.1.4-.3.7-.3 1-.1-.3-.3-.7-.4-1l-.9-1.6c-.1-.2-.3-.4-.4-.5l-.2-.2c-.2-.2-.4-.5-.6-.7-.4-.4-.8-.7-1.2-1l-.2-.1c-.2-.1-.3-.2-.5-.3-.1 0-.2-.1-.2-.1-.3-.2-.6-.3-.8-.3l-.8-.3c-.2-.1-.4-.1-.5-.1s-.2 0-.3-.1c-.5-.1-1.1-.2-1.6-.2-1.1-.1-2.2.1-3.2.5s-1.9 1.2-2.7 2.1c-1.4 1.7-2.4 3.9-3.1 6.5l.4.2c.8-2.6 1.8-4.6 3.2-6 1.3-1.4 3-2.2 4.7-2.2h.7c.5 0 1 .1 1.5.2.1 0 .2 0 .3.1.2 0 .3.1.4.1l.7.3c.2.1.4.2.7.3.1 0 .2.1.2.1a.76.76 0 0 0 .4.2l.2.2c.4.3.7.5 1 .9.2.2.4.4.5.6l.2.2c.1.1.2.3.3.5.3.4.6.9.8 1.4.3.6.5 1.1.6 1.6.2.5.3 1 .4 1.6v.2h.1c.1.3.3.4.6.5.3 0 .5-.2.6-.5h.1v-.2c0-.5.1-1.1.2-1.6s.3-1 .5-1.6c.2-.5.5-1 .7-1.4.3-.4.6-.9 1-1.2.3-.3.6-.5.9-.8l.2-.2.3-.2c.3-.2.7-.4 1.1-.5.4-.2.8-.3 1.2-.3h.1c.3-.1.6-.1.9-.1h.5.9.5c.3 0 .6.1.9.1.2 0 .4.1.5.1s.3.1.4.1c.3.1.7.2 1 .4l.7.3.7.4c.1.1.3.2.4.3l.2.2c.2.1.3.3.5.5s.4.4.5.6c.2.2.3.4.4.7.3.4.5 1 .7 1.5.1.4.3.9.4 1.5v.2h.1c.1.2.3.4.5.5.3.1.6-.2.6-.5h.1v-.2l.3-1.3c.1-.4.3-.9.5-1.4.2-.4.4-.8.7-1.2l.4-.6.3-.3.2-.2.3-.3.2-.2c.1-.1.3-.3.5-.4.1 0 .1-.1.2-.1.1-.1.2-.1.3-.2l.6-.3c.2-.1.5-.2.8-.2.2 0 .3-.1.4-.1.2 0 .3 0 .5-.1.3 0 .6-.1.8-.1h.2.5.6l.7.1c.1 0 .3.1.4.1s.2.1.2.1c.3.1.6.2.9.4.1.1.2.1.3.1.4.3.7.5 1.1.9a1.38 1.38 0 0 1 .3.4l.1.2c.2.2.3.4.4.6s.3.4.4.6.2.5.3.7c.4.8.7 1.8.9 2.9l.4-.1-.3-1.6c-.1-.5-.3-1-.5-1.5-.1-.2-.2-.5-.3-.7s-.2-.5-.4-.7c-.2-.3-.3-.5-.4-.7l-.1-.1c-.1-.2-.2-.3-.4-.5-.4-.4-.8-.7-1.2-1l-.9-.2zm-50.3-1.1l.5-.7h0 0l.1.1h0 .1v-.3l.3-.8.3-.8c.2-.6.5-1.1.7-1.6.6-1.1 1.2-2 1.9-2.7.7-.8 1.6-1.4 2.5-1.8 1-.4 1.9-.5 2.9-.4.5 0 1 .1 1.5.2.1 0 .2 0 .3.1.1 0 .3.1.4.1l.7.3.6.3c.1 0 .2.1.2.1a.76.76 0 0 0 .4.2l.3.2c.3.3.6.5.9.8.2.2.4.4.5.6l.2.2c.1.1.2.3.3.4.3.4.5.9.8 1.4.3.6.5 1.1.6 1.6.2.5.3 1 .4 1.5v.2h.1c.1.3.3.5.6.5s.6-.2.6-.6h.1v-.2c0-.5.1-1.1.2-1.6s.3-1 .5-1.6c.2-.5.4-1 .7-1.5.3-.4.6-.9 1-1.3.3-.3.6-.6.9-.8l.2-.2.3-.2c.3-.2.7-.4 1.1-.5.4-.2.9-.3 1.3-.4h.1c.3-.1.6-.1.9-.1h.5.9.5c.3 0 .6.1.9.1.2 0 .4.1.5.1s.3.1.4.1c.3.1.7.2 1 .4l.7.3.7.4c.1.1.3.2.4.3l.2.2c.2.1.3.3.5.5s.4.4.5.6c.2.3.3.5.4.7.3.5.5 1 .7 1.5.2.6.3 1.1.4 1.5v.2h.1c.1.2.2.3.4.3h.1c.2 0 .3-.1.4-.3h.1v-.2l.3-1.4c.1-.4.3-.9.5-1.4l.7-1.3.4-.6.3-.3.2-.2.3-.3.2-.2c.1-.1.3-.3.5-.4.1 0 .1-.1.2-.1.1-.1.2-.2.3-.2l.6-.3c.2-.1.5-.2.8-.3.2 0 .3-.1.4-.1.2 0 .3 0 .5-.1.3 0 .6-.1.8-.1h.3.5c.2 0 .4 0 .6.1l.7.1c.1 0 .3.1.4.1s.2.1.2.1c.3.1.6.2.9.4.1.1.2.1.3.1.4.3.7.5 1.1.9.1.1.2.2.3.4l.1.2c.1.1.3.3.4.6.1.2.3.4.4.6s.2.5.3.7l.5 1.4.3 1.5c0 .1.1.2.3.2h.1l.1-.2v-.1c-.2-1.2-.5-2.3-.8-3.1-.1-.2-.2-.5-.3-.7s-.2-.5-.4-.7c-.2-.3-.3-.5-.5-.7l-.1-.1a.78.78 0 0 0-.4-.4c-.4-.4-.8-.7-1.2-1-.1-.1-.2-.1-.3-.2a4.67 4.67 0 0 0-1-.5c-.1 0-.1-.1-.2-.1-.2-.1-.3-.1-.5-.1l-.7-.1c-.3-.1-.6-.1-.9-.1h-.5c-.3 0-.6 0-.9.1-.2 0-.3 0-.5.1-.2 0-.3.1-.5.1-.3.1-.6.1-.9.3l-.7.3a.76.76 0 0 1-.4.2l-.2.1c-.2.1-.4.2-.6.4-.1.1-.1.1-.2.1-.1.1-.3.2-.4.4l-.2.2-.4.4-.5.6c-.3.5-.6.9-.8 1.4-.2.4-.4.8-.5 1.2-.2-.5-.4-1.1-.7-1.6-.1-.2-.3-.5-.5-.8-.2-.2-.3-.5-.6-.7-.2-.3-.4-.5-.6-.6l-.2-.2c-.2-.1-.3-.3-.5-.4l-.7-.5-.7-.4c-.4-.2-.8-.3-1.1-.4-.1 0-.3-.1-.4-.1-.2 0-.4-.1-.5-.1-.3-.1-.7-.2-1-.2h-.5c-.3 0-.7-.1-1.1 0h-.5c-.3 0-.7 0-1.1.1-.5.1-1.1.2-1.6.4-.5.1-.9.4-1.3.6l-.3.2-.2.2c-.4.3-.8.6-1.1 1-.4.4-.8.9-1.1 1.5-.3.5-.6 1.1-.9 1.7l-.3.9c-.1-.3-.2-.6-.4-.9l-.9-1.6c-.1-.2-.3-.4-.4-.5l-.2-.2c-.2-.2-.4-.5-.6-.7a6.42 6.42 0 0 0-1.3-1l-.1-.1c-.2-.1-.3-.2-.5-.3-.1 0-.2-.1-.2-.1-.3-.2-.6-.3-.8-.4l-.8-.3c-.2-.1-.4-.1-.5-.1s-.2 0-.3-.1c-.5-.1-1.1-.2-1.6-.2h-.6c-.9 0-1.9.2-2.7.6-1 .5-1.9 1.2-2.8 2.1-.7.9-1.4 1.9-1.9 3.1-.2.6-.5 1.1-.7 1.7l-.3.9-.3 1.1h0l-.2 1.1z"/><ellipse cx="962.2" cy="837.2" rx="9.2" ry="2.6"/><ellipse cx="990.1" cy="827.2" rx="6" ry="1.7"/><path d="M1000.1 844.5c0 .6-1.8 1.1-4 1.1s-4-.5-4-1.1 1.8-1.1 4-1.1c2.2-.1 4 .4 4 1.1zm-26.6-24.4c0 .6-1.8 1.1-4 1.1s-4-.5-4-1.1 1.8-1.1 4-1.1c2.2-.1 4 .5 4 1.1zm354.7-10.9c0 1.5-4.1 2.6-9.2 2.6s-9.2-1.2-9.2-2.6c0-1.5 4.1-2.6 9.2-2.6s9.2 1.1 9.2 2.6zm24.6-10.1c0 .9-2.7 1.7-6 1.7s-6-.8-6-1.7 2.7-1.7 6-1.7 6 .8 6 1.7z"/><use href="#N"/><use href="#N" x="-26.5" y="-24.4"/></g><path d="M1356.9,772c5.1-25,10.4-50.8,24.9-71.8" class="z AA AQ AR"/><path d="M1369.1 722.1c-4.9-7.7-5.7-18-2-26.3 3.3 4.7 4.7 10 4.2 15.7-.3 3.6-1 7.2-2.2 10.6z" class="AS"/><path d="M1393.5 700.3c-2.8-6.3-8.5-10.9-15.2-12.4-3.5 6.2-4.1 13.9-1.7 20.6 1.8.4 3.8-.1 5.6-.5 4.5-1 8-4.4 11.3-7.7z" class="AT"/><path d="M1361.5,750.9c5.5-8.9,12.7-16.7,21.2-22.8" class="z AA AQ AR"/><path d="M1392.9 733.8c-.2-6.9-3.7-13.3-9.4-17.3-5.6 4.4-9.1 11.3-9.5 18.4 1.5 1 3.6 1.4 5.4 1.7 4.7.9 9.2-1 13.5-2.8z" class="AT"/><path d="M1361.3 764.3c0 1.4-.6 2.1-2.6 1.2-6.3-3-13.5-5.8-18.4-10.9-6.4-6.5-7.9-17.2-3.6-25.2.4-.8.9-1.5 1-2.4.2-1.8-1.3-3.2-2.5-4.6-5-5.9-4.8-15.6.4-21.3 1.6-1.7 3.9-3.1 6.2-3.2h.6c.8 0 1.5.3 2.3.7 1.8 1.1 2.6 3.2 3.3 5.2 2.9 8.7 4.7 17.6 6.5 26.6.5 2.2.9 4.5 1.4 6.7l1.6 7.8 2.6 12.9c.2 1.6 1.2 4.6 1.2 6.5z" fill="#72a602"/><path d="M1361.8 764.6c0 .1 0 .2-.2.2h0c-.1 0-.2-.1-.2-.2s-.1-.3-.1-.4l-6.2-27.9c-2.9-12.9-5.6-23.6-10.4-33.9-.7-1.6-1.6-3.3-3-4.5h.6c1.2 1.2 2 2.8 2.7 4.3 4.9 10.3 7.5 21 10.5 34 .1.3.1.6.2.9 2.2 9.2 4.2 18.4 6.1 27.5z" fill="#606791"/><path d="M1379.1 773H1265c3.8-7.3 13.3-11.2 21.1-8.5 2.1.7 4.3 1.9 6.5 1.7 2.8-.3 4.9-2.7 6.9-4.8 5.3-5.9 12.4-11 20.3-11.1s15.1 4.7 20.1 10.8c1.7 2.1 3.4 4.5 5.9 5.5 3.8 1.6 8-.2 11.8-1.9 3-1.4 6-2.7 9.3-3 3.2-.4 6.8.3 9.1 2.5 2.4 2.2 3.4 5.6 3.1 8.8z" class="AS"/><path d="M958.9,881.5c-6.4-31.6-13.2-64.1-31.4-90.7" class="z AA AQ AR"/><path d="M943.4 818.5c6.2-9.8 7.2-22.7 2.5-33.3-4.2 5.9-6 12.6-5.3 19.8.5 4.6 1.3 9.1 2.8 13.5z" class="AS"/><path d="M912.6 790.9c3.5-8 10.7-13.8 19.3-15.6 4.4 7.8 5.2 17.6 2.2 26-2.3.5-4.9-.2-7.1-.6-5.9-1.3-10.2-5.7-14.4-9.8z" class="AT"/><path d="M953.1,854.9c-6.9-11.3-16.1-21.1-26.8-28.8" class="z AA AQ AR"/><path d="M913.4 833.3c.2-8.7 4.7-16.8 11.8-21.8 7 5.6 11.5 14.3 11.9 23.2-1.9 1.3-4.6 1.7-6.8 2.1-5.8 1.1-11.4-1.3-16.9-3.5z" class="AT"/><path d="M1022.5 885.3h-99.6c5.9-7.8 12.4-15.5 21.1-19.9 9.8-4.9 23.2-4.4 29.9 4.3 2.4 3.1 4.1 7.2 7.8 8.5 5 1.8 9.8-2.6 14.6-4.8 5.5-2.6 12.3-2.2 17.6.8 4.1 2.5 7.2 6.5 8.6 11.1z" class="AS"/><path d="M709.5 786.9c-2.3-1.1-4.7-2.7-7.2-2.2-1.9.4-3.4 2-4.1 3.9-.6 1.9-.4 3.9.1 5.8a17.56 17.56 0 0 0 8.5 10.9c4.1 2.3 9.2 2.9 13.7 1.5 3.3-1 6.3-3 9.2-4.9l5.5-3.7c2.8-1.9 5.8-4 6.5-7.3.7-3.4-1.7-8.2-5-9.6-2.7-1.1-4.5.3-6.6 1.8-6.3 4.2-13.1 7.2-20.6 3.8zm105.1-1.9c1.6-3.1 1.9-6.7 2.6-10.1s2.2-7 5.3-8.6c3.3-1.8 7.5-.7 10.3 1.8s4.3 6.1 5.1 9.7c3.4 14.7-3.9 31.2-17 38.7-5.4 3.1-11.6 4.7-17.4 7.1-2.1.9-4.7 1.9-6.7.7-3.5-2.1-4.3-11.1-4.8-14.8-.4-3.3-.3-6.5 1.9-9.2 5.5-6.9 16.5-6.9 20.7-15.3z" fill="#6c8a02"/><path d="M730.8 735.2c-1.7-1.6-2.1-3.9-.1-5.5 1.1-.8 2.5-1.1 3.9-1.2 2.9-.1 5.9.8 8.3 2.5-.6-1.4-1.1-2.8-1.2-4.3 0-1.5.5-3.1 1.8-3.9 1.7-1.1 4-.4 5.4.9 1.4 1.4 2.1 3.3 2.8 5.1 1.1-3.2 3.7-5.9 6.9-7.1.8-.3 1.7-.5 2.6-.2.7.3 1.3 1 1.6 1.7 1 1.9 1.5 4 1.3 6.2 1.9-1.2 3.9-2.5 6.1-2.6 4.6-.3 6.1 4.2 4 7.6-6.6 10.7-22.1 15.1-32.9 8.7-3.7-2.2-7.3-4.8-10.5-7.9z" fill="#bd3b39"/><path d="M805.9 790.7c4.2 15.9 4.5 30.8 4.2 42.9-.2 10.1-.3 19.3-1 27.3-.4 4-.9 7.7-1.6 11l-27.6 7.5c-5.9-6.7-13.6-16.9-15.2-19.1-7.5-9.8-18.2-22.1-26.7-38.8-4.6-8.9-8.7-19.3-11.4-31.5-2.3-10.5-1.9-19.6.4-27 6.1-19.5 25.4-27.9 44.4-20.5 17 6.7 29.3 28.4 34.5 48.2z" fill="#6c8a02"/><path d="M754.8 743.3c-.2 0-.1.3.1.2.1 0 0-.3-.1-.2z" fill="#72a602"/><path d="M731.1 753.4s-.4 32.4 13 63.3 36.9 61.7 36.9 61.7m-41-133.6s3.9 22.6 19.4 66.1S786 878 786 878m-32.1-139s7.9 19.2 15.7 46.7 22.5 89.6 22.5 89.6m-20.7-132.7s12.9 32.2 18.2 64.6C794.8 839.7 802 873 802 873m-6.4-107.9s12.7 73.2 13.1 98.5m-107.3-77s8.1 10.5 26.1 3.3m-27.6 8.1s12.9 6.7 27.9-2m95.3-28.8s1.4 15.9-5 22.2c-6.3 6.3-8.7 7.3-8.7 7.3m18.1-30.9s5.4 14.8-1.5 25.3c-6.9 10.4-14.9 13.1-14.9 13.1m-.4 6.7s18.9-11.1 22.7-20.5 2.4-17.6 2.4-17.6m-23.6 42.6s15-3.1 22.2-12.6" stroke="#7bb300" stroke-width="1.321" class="z AA"/><path d="M1081.6 810.3v64.9l-71.7-13.9 2.1-64.1" class="AE"/><path d="M1006.1 855.7h78.6l-.3 33.5H967.9c3.6-15.5 32.4-16.8 38.2-33.5z" class="AN"/><g class="z AA AD AF AB"><path d="M1085 882.3H971.8m42.7-17.3h-17.8m20.2-5.6h-15.7" class="AC"/><use href="#O"/></g><use href="#P" class="AK"/><path d="M1085.3 841.8l-3.7-137.6c0-40.7 15-199 15-199" class="z AA AB AC AD AF"/><path d="M1201 769.6l29 58-70.3 19.6-26.8-58.2" class="AE"/><path d="M1153.8 843.9l70.3-35.2 14.7 30.1-104.2 52.2c-3.7-15.5 21.5-29.5 19.2-47.1z" class="AN"/><g class="z AA AD AF AB"><g class="AC"><path d="M1236.2 832.4L1135 883.1"/><path d="M1165.5 848.5l-15.9 8m15.6-14.1l-14.1 7.1"/></g><path d="M1220.6 823.6c2 3.9.4 8.7-3.6 10.7-3.9 2-8.7.4-10.7-3.6-2-3.9-.4-8.7 3.6-10.7s8.7-.4 10.7 3.6z"/></g><use href="#Q" class="AK"/><g class="z AA AB AC AD AF"><path d="M1085.8 539.5c-.3-.2 0 29.2 0 29.2s-8.3-4.7-9.4-10.4-2.4-23.3-2.4-23.3m16.7 150.3c-3.9-25.7-4.2-32.4-4.9-100.9"/><use href="#R"/><path d="M1158.1 577.5l-45.7-48.2m-96.2 41.4l39-41.4"/></g><path d="M1117 279.8c-1-2.8-2.6-5.6-4.8-8.1-11-12.7-28.7-10.8-38.9 1.7-9 11.1-29.3 53.7-2.7 58.2 13.7 2.3 27.7-5.5 36.5-15.5 8.6-9.8 14.3-24 9.9-36.3z" class="AE"/><path d="M1114.3 325.7c1.4-1.3 2.8-2.6 4.4-3.6 6.2-3.7 11.5-9.1 14.5-15.7 1.9-4.3 2.9-9.1 2.1-13.8-.7-4.2-2.7-8.1-4.8-11.9-2.9-5.2-5.9-10.4-10.2-14.7-.9-.9-1.9-1.5-2.8-2.3-1-1-1.8-2.3-2.8-3.3-2-2.1-4.2-3.9-6.7-5.3-.5-.3-.9-.5-1.4-.8-4.3-2.2-9.3-3.7-14.1-2.8s-9.2 4.7-9.7 9.6c-2.9-1.6-6.8-.2-8.9 2.5s-2.6 6.9-2.5 10.2c6.7-4.3 17.6-5.1 24.7-.3 3.5 2.3 7.4 6.5 7.1 11-.3 3.5-3.7 5.7-5.5 8.6-2.8 4.4-1.9 10.7 2 14.1.7.6 1.5 1.1 2 1.9 1 1.4.2 3.9.3 5.6 0 1.1.9 2.5 1.4 3.5.7 1.5 3 13 3 13 3.3-1 5.6-3.3 7.9-5.5z" class="AU"/><use href="#S" class="AE"/><use href="#T" class="AU"/><path d="M1087.2 294.2c2.9.8 6 2.9 7.5 5.6m-21.3-11.9c-1-1.8-3.4-2.7-5.3-2.1" class="z AA AB AC AD AG"/><g class="AE"><path d="M1080.1 311.4c-1 3.4.9 6.9 4.3 7.9s6.9-.9 7.9-4.3-.9-6.9-4.3-7.9c-3.3-1-6.9 1-7.9 4.3zm-20-9.1c-1.4 2.8-.3 6.2 2.4 7.5s6 .1 7.4-2.7.3-6.2-2.4-7.5-6-.1-7.4 2.7z" class="AL"/></g><use href="#U" class="z AA AB AC AD AG"/><use href="#V" class="AI"/><path d="M1070.6 331.6s9.6 3.5 25.1-6" class="z AA AB AC AD AG"/><path d="M984.5 318.1s14 6 14.4 19.3c.4 10.7-9.8 36.4-9.8 36.4l-29-2.2s-2.9-7.9-2.5-13.6 8.5-21.3 8.5-21.3l18.4-18.6z" class="AE"/><path d="M1135 96.9l-72.5 112.6c52.9 74.7 174.6 37.6 222.2 119.4l53.8-109c-45.2-76.5-159.4-43.3-203.5-123z" class="AK"/><path d="M1205.1 211.3l-9.1-2.5-11-3.1c-7-7.1-13.8-14.4-20.1-22.4-1.1-1.4-2.2-2.8-3.2-4.2a174.77 174.77 0 0 1-4.9-7c-3.1 0-6.2-.1-9.3-.2l-5.7-.3c-11-.8-21.4-2.5-31.2-5.6-2.6-2.8-5-5.8-7.4-8.9h0c-.2-.2-.3-.4-.5-.7s-.5-.7-.7-1-.4-.5-.5-.8a41.94 41.94 0 0 1-1.5-2.2l5.4-8.6c4.8 2.6 9.9 4.7 15.1 6.4a142.96 142.96 0 0 0 9.9 2.7 145.48 145.48 0 0 0 16.7 2.7c-2.7-5.2-5.1-10.7-7.3-16.5-1.4-3.7-2.7-7.5-3.8-11.4-2.2-7.3-4-15.1-5.4-23.5l4.8-7.6c.3.5.6 1.1.9 1.6 1 1.8 2.1 3.5 3.2 5.1 2.3 3.5 4.8 6.7 7.3 9.7 3.4 11.7 7.7 22.1 12.8 31.5h0l2.7 4.8 4.5 7.4 9.3-.1h0c2 0 4-.1 5.9-.2 11.5-.5 23.2-1.7 35-3.1l10.5 3.2 8.6 2.5c-.3.6-.7 1.1-1 1.7-1 1.6-1.9 3.2-2.9 4.8l-23.8 3h0c-4 .5-8 .9-12 1.3h0c-6.4.7-12.7 1.2-18.9 1.6 3.4 4.2 6.8 8.2 10.4 12.1l6.9 7.3c4.6 4.7 9.3 9.3 14.1 13.9-1 1.6-1.9 3.2-2.9 4.8-.3.7-.6 1.3-.9 1.8z" class="AI"/><path d="M1205.1 211.3l-9.1-2.5c-8.5-8.2-16.7-16.6-24.2-25.7-2.2-2.6-4.3-5.3-6.3-8-1.9-2.5-3.7-5.2-5.5-7.9-3.5 0-7-.1-10.4-.3-3.7-.2-7.4-.5-11-.9h0c-12.6-1.4-24.5-4.2-35.3-9h0c-.2-.2-.3-.4-.5-.7s-.5-.7-.7-1-.4-.5-.5-.8c-.5-.7-1-1.4-1.5-2.2l2.2-3.6c8.1 4.3 16.9 7.3 26.2 9.2h0c3.4.7 6.9 1.3 10.5 1.8 5.6.8 11.4 1.2 17.3 1.5-2.9-4.8-5.6-9.9-8.1-15.3h0c-1.6-3.4-3-6.9-4.4-10.5-4.2-10.9-7.5-23.1-9.7-36.8l1.5-2.3c.3.5.6 1.1.9 1.6 1 1.8 2.1 3.5 3.2 5.1a3.04 3.04 0 0 0 .5.7c3.2 15 7.8 28.1 13.5 39.7h0a145.69 145.69 0 0 0 5.1 9.6c1.6 2.9 3.3 5.6 5.1 8.3 3.5 0 7 0 10.6-.2h0c3.8-.1 7.7-.3 11.7-.6h0c13.7-.9 27.8-2.5 41.7-4.3l8.6 2.5c-.3.6-.7 1.1-1 1.7l-37.3 4.5c-4 .4-8 .7-11.9 1-6.3.5-12.5.8-18.6 1 3.2 4.4 6.5 8.7 10 12.8h0l6.6 7.6h0c7 7.7 14.4 14.9 22 22.1-.6.8-.9 1.4-1.2 1.9z" class="AV"/><path d="M1214 196.3l-19.2-5.4-10.7-3.3h0c-4.2-1.4-8.3-2.8-12.4-4.4l-5.4-2.1c-.5.8-1 1.6-1.5 2.3l-8.2 12.9c-1.6-.6-3.2-1.3-4.7-2-1.2-.5-2.5-1.1-3.7-1.7l-1.8-.9h0l-5.4-2.7c-1.2-.6-2.4-1.3-3.5-1.9-1.5-.8-2.9-1.7-4.3-2.6l8.5-12.9c.5-.8 1-1.6 1.5-2.3a77.59 77.59 0 0 1-4.7-3.2h0a95.81 95.81 0 0 1-10.1-8h0c-2.7-2.5-5.4-5.1-7.9-7.9-3.7-4.2-7.2-8.8-10.4-13.9l15-23.7c3.3 5.5 6.9 10.5 10.8 15 2.4 2.8 5 5.4 7.7 7.9 3.1 2.9 6.4 5.6 9.8 8h0c1.5 1.1 3 2.2 4.6 3.2.5-.8 1-1.6 1.5-2.3h0l8.5-12.9c1.4.9 2.7 1.8 4.1 2.6.1 0 .1.1.2.1.4.3.9.5 1.3.8 3 1.8 6 3.4 9.1 4.9l7.5 3.5-8.2 12.9c-.5.8-1 1.5-1.5 2.3l5.3 2.2h0c4 1.6 8 3 12.1 4.4 3.5 1.2 7 2.3 10.5 3.4h0l18.8 5.5c-.9 1.4-1.7 2.9-2.6 4.3l-8.1 13.6-2.5 4.3z" class="AI"/><path d="M1216.6 192l-28.6-8.4c-3.5-1.1-7-2.3-10.5-3.6-4.1-1.5-8.1-3.1-12-4.8-.3-.1-.6-.3-1-.4-.9 1.5-1.9 3-2.8 4.4l-9.7 15.1c-1.2-.5-2.5-1.1-3.7-1.7l-1.8-.9h0l-5.4-2.7c-1.2-.6-2.4-1.3-3.5-1.9l9.9-15.1 2.9-4.4c-.3-.2-.6-.3-.9-.5-3.7-2.2-7.2-4.5-10.6-7.1-2.9-2.2-5.7-4.5-8.4-7-6.5-6-12.3-12.9-17.4-21.1l9.2-14.6a103.97 103.97 0 0 0 17.5 21.9c2.7 2.5 5.4 4.8 8.3 7 3.4 2.6 6.9 4.9 10.5 7.1.3.2.6.4.9.5 1-1.5 1.9-3 2.9-4.4l9.9-15.1c.1 0 .1.1.2.1.4.3.9.5 1.3.8 3 1.8 6 3.4 9.1 4.9l3.1 1.5-9.7 15.1c-.9 1.5-1.9 3-2.8 4.4.3.1.6.3.9.4 3.9 1.7 7.8 3.4 11.8 4.9 3.4 1.3 6.9 2.5 10.4 3.7 9.3 3.1 18.8 5.8 28.2 8.5-2.8 4.3-5.5 8.8-8.2 13.4z" class="AV"/><path d="M1283.7 205.5l-6.4 1.7 3.5-5.4-5.4-3.6 6.6-.9-.2-6.3 4.7 4.4 5-4.2-.8 6.4 6.2 1.5-5.4 3.3 2.8 6-5.9-2.5-2.6 5.9-2.1-6.3zm17.2 34.4l-4.7.5 2.8-4.6-3.8-4.3 4.9.2.1-6 3.3 4.9 3.8-3.1-.8 6 4.5 2.5-4.1 2.1 1.8 6.3-4.2-3.4-2.2 5.1c-.6-2-1-4.1-1.4-6.2zm-60.5-11.9l-5.8 1.9 3.1-4.6-5-2.5 6.1-1.2-.4-5 4.4 3.1 4.5-3.7-.5 5.2 5.9.5-5 3.1 2.9 4.4-5.7-1.3-2.3 4.9-2.2-4.8zm6.8 45.3l-5.5 1.3 3-4.6-4.8-3.2 5.8-.7-.3-5.4 4.2 3.8 4.3-3.5-.5 5.5 5.5 1.3-4.7 2.7 2.6 5.1c-1.7-.8-3.5-1.5-5.3-2.1l-2.2 5c-.8-1.7-1.5-3.4-2.1-5.2zM1124 229.2a317.51 317.51 0 0 1-12.4 3l7.3-9.6c-3.2-2.3-6.3-4.7-9.3-7.3 4-.2 8.1-.4 12.2-.8.1-3.8.3-7.7.5-11.6 2.6 2.9 5.3 5.7 8.1 8.3l9.9-7.4-2 11.1c4.1.5 8.3.9 12.6 1.3l-11.1 6.5c1.9 3.1 3.9 6.1 5.9 9.1-4.1-.8-8.2-1.7-12.3-2.6l-5.5 10.3-3.9-10.3zm165.5 16.3l-.2 3 1.9 2.2-2.4.3-.9 2.7-1.3-2.8-2.5-.5 1.7-2.1-.7-2.9 2.4 1.4c.5-.4 1.3-.8 2-1.3z" class="AI"/><path d="M1137.4 94.5c-.5.8-107.5 165.6-168.2 259.2" class="z AA AB AC AG AW"/><g class="AE"><use href="#W"/><path d="M957.7 340.5c.8 3.1 2 6.3 4.6 8 .8.6 1.9.9 2.8.7 1.3-.2 2.4-1.6 2.3-3 .9 1.3 2.4 1.3 3.8.6s2.3-2.4 2-4c1 .6 1.3 1.2 2.4 1.5s2.3.3 3.3-.3 1.6-1.7 1.9-2.9c.2-1.2-.2-3.1-.2-3.1s1.7 2.8 3.8 1.8c1.5-.7 2.5-2.1 3-3.7.6-1.5.8-3.2.2-4.7l-3.2-13.5"/><use href="#W" opacity=".3"/></g><path d="M981 338.8s-4.1-7.3-3.9-16.6m-7.7 3.5s-.9 10.4 3.9 17.2m-11.5-12.1s-.8 10.7 5.7 15.4m28.7-12.3c-2-1.6-5.8-4.8-7.8-6.5-.6-.5-1.3-1.1-2.1-1.4s-1.7-.3-2.4.2-1 1.5-1 2.4c0 1.3.4 2.5.9 3.7 1.3 2.9 3.2 5.5 5.1 8-7.3 3.5-12.3 11-13.3 19.2" class="z AA AB AC AD AG"/><path d="M1158 364l-42.2-13.7h0l-1.7-11.7s-20.2 7.8-29.3 9-14.4-2.3-14.4-2.3l-2.5 9.1-34.1 9.6-9.9 178.4H1174L1158 364z" class="AI"/><path d="M1067.9 354.5s3.1 2.3 8 3.6m10.5 0s16.2-1.9 29.4-7.7m-91 178.9h148.4" stroke="#0057bc" class="z AA AD"/><path d="M1262.9 379.6c5.2-.3-9.1 14.2-4 12.9 5.2-1.3 28.5-18.6 30.5-16.5 2.8 3.1-19.3 17.9-19.3 17.9s24.6-15 26.9-12.7-23.5 20.5-23.5 20.5 22.8-14.1 24.6-10.8c1.2 2.3-21.8 17.7-21.8 17.7s18.8-11.2 19.8-8.5-46.1 32.8-77.3 54.8l-7.1-35.4c0-.2 47.2-39.7 51.2-39.9z" class="AE"/><path d="M1257.5 393.5s-1.6 7-9.7 13.5m25.7 1.3c-4.1.2-15.8 3-22.7 5.9" class="z AA AB AC AD AG"/><g class="AN"><path d="M1028.4 361.6s-5.5 20.4-8.6 60.1L1009.7 552l33.1 7.5 13.4-182.1 8.8-28.4-36.6 12.6z"/><use href="#X"/></g><g class="z AA AB AC AD AF"><path d="M1029.3 359.9s-5.8 18-3.3 36.2"/><path d="M1062.7 352.8l-35.4 13.2m-12.9 125.4l13.8 4.1-3.6 44.4"/><use href="#Y"/></g><path d="M1054.9 351.8c-6.3 6.3-15.5 18.6-15.5 18.6l9.5-.6 7.1 9.5 13.4-25.7.9-13.1c.1 0-9 5-15.4 11.3z" class="AK"/><path d="M1043.9 547.2l-33.1-7.7m5.4-68l11.1-85.8m-20.3 12.1l7.4 33.7m-13.5-61.3l-50.3 9.8" class="z AA AB AC AD AF"/><g class="AN"><use href="#Z"/><use href="#a"/></g><g class="z AA AB AC AD AF"><path d="M1202.3 421.4l-16.2 14.1m-41.9 111.7l-2.1-45.4h9.3l25.5 19.1"/><use href="#b"/><path d="M1159.2 367.2l-33-14.4"/><use href="#c"/></g><use href="#d" class="AK"/><g class="z AA"><path d="M1124.6 547.2h53.4m-2.5-80.4l-35.4-45.4m89.8-28.7l24.6 45.1" class="AB AC AD AF"/><path d="M1191.7 890h45.6m-291.1 0H1177" stroke="#fff" class="AX"/></g><use href="#e" class="AE"/><path d="M1109.8 308.9l-9.9-.2m9.4 5.9c-2.4 3.1-8.9 3-11.5-.5" class="z AA AB AC AD AG"/><path d="M1086.2 300.8c.8-1.4 2.3-2 3.3-1.4s1.2 2.2.4 3.5c-.8 1.4-2.3 2-3.3 1.4s-1.2-2.1-.4-3.5zm-20.4-9.5c.8-1.4 2.3-2 3.3-1.4s1.2 2.2.4 3.5c-.8 1.4-2.3 2-3.3 1.4s-1.2-2.2-.4-3.5z"/><path d="M969.1 353.7l-40.9 63" class="z AA AB AC AG AW"/><path d="M1924.3 864.4v64.9l-71.7-13.9 2.1-64.1" class="AE"/><path d="M1848.8 909.7h78.6l-.3 33.5h-116.4c3.6-15.5 32.4-16.7 38.1-33.5z" class="AN"/><g class="z AA AD AF AB"><path d="M1927.7 936.3h-113.2m42.8-17.2h-17.8m20.2-5.6h-15.8" class="AC"/><use href="#O" x="842.7" y="54.1"/></g><use href="#P" x="842.7" y="54" class="AK"/><path d="M1928 895.9l-3.7-137.6c0-40.7 15-199 15-199" class="z AA AB AC AD AF"/><path d="M2043.7 823.7l29 58-70.3 19.6-26.8-58.2" class="AE"/><path d="M1996.5 898l70.3-35.2 14.7 30.1-104.2 52.1c-3.6-15.5 21.6-29.5 19.2-47z" class="AN"/><g class="z AA AD AF AB"><g class="AC"><path d="M2079 886.4l-101.3 50.7"/><path d="M2008.3 902.6l-16 7.9m15.6-14l-14.1 7"/></g><path d="M2063.3 877.6c2 3.9.4 8.7-3.6 10.7-3.9 2-8.7.4-10.7-3.6-2-3.9-.4-8.7 3.6-10.7 4-1.9 8.8-.3 10.7 3.6z"/></g><use href="#Q" x="842.7" y="54.1" class="AK"/><g class="z AA AB AC AD AF"><path d="M1928.6 593.6c-.3-.2 0 29.2 0 29.2s-8.3-4.7-9.4-10.4c-1.1-5.8-2.5-23.3-2.5-23.3m16.8 150.3c-3.9-25.7-4.2-32.4-4.9-100.9"/><use href="#R" x="842.8" y="54"/><path d="M2000.9 631.6l-45.7-48.2m-96.3 41.3l39.1-41.3"/></g><path d="M1959.7 333.9c-1-2.8-2.6-5.6-4.8-8.1-11-12.7-28.7-10.8-38.9 1.7-9 11.1-29.3 53.7-2.7 58.2 13.7 2.3 27.7-5.5 36.5-15.5 8.6-9.8 14.3-24.1 9.9-36.3z" class="AE"/><path d="M1957 379.7c1.4-1.3 2.8-2.6 4.4-3.6 6.2-3.7 11.5-9.1 14.5-15.7 1.9-4.3 2.9-9.1 2.1-13.8-.7-4.2-2.7-8.1-4.8-11.9-2.9-5.2-5.9-10.4-10.2-14.7-.9-.9-1.9-1.5-2.8-2.3-1-1-1.8-2.3-2.8-3.3-2-2.1-4.2-3.9-6.7-5.3-.5-.3-.9-.5-1.4-.8-4.3-2.2-9.3-3.7-14.1-2.8s-9.2 4.7-9.7 9.6c-2.9-1.6-6.8-.2-8.9 2.5-2 2.7-2.6 6.9-2.5 10.2 6.7-4.3 17.6-5.1 24.7-.3 3.5 2.3 7.4 6.5 7.1 11-.3 3.5-3.7 5.7-5.5 8.6-2.8 4.4-1.9 10.7 2 14.1.7.6 1.5 1.1 2 1.9 1 1.4.2 3.9.3 5.6 0 1.1.9 2.5 1.4 3.5.7 1.5 3 13 3 13 3.3-.9 5.6-3.2 7.9-5.5z" class="AU"/><use href="#S" x="842.7" y="54" class="AE"/><use href="#T" x="842.7" y="54.1" class="AU"/><path d="M1929.9 348.2c2.9.8 6 2.9 7.5 5.6m-21.3-11.8c-1-1.8-3.4-2.7-5.3-2.1" class="z AA AB AC AD AG"/><g class="AE"><path d="M1922.9 365.5c-1 3.4.9 6.9 4.3 7.9s6.9-.9 7.9-4.3-.9-6.9-4.3-7.9-6.9.9-7.9 4.3zm-20-9.1c-1.4 2.8-.3 6.2 2.4 7.5s6 .1 7.4-2.7.3-6.2-2.4-7.5-6.1-.1-7.4 2.7z" class="AL"/></g><use href="#U" x="842.7" y="54.1" class="z AA AB AC AD AG"/><use href="#V" x="842.7" y="54.1" class="AI"/><path d="M1913.3 385.7s9.6 3.5 25.1-6" class="z AA AB AC AD AG"/><path d="M1809.3 363.3s15.1 2 19.2 14.6c3.3 10.2.6 37.7.6 37.7l-28.5 5.9s-5-6.8-6.1-12.4 2.3-22.8 2.3-22.8l12.5-23z" class="AE"/><path d="M1893.1 109.1l-38.7 128.3c71.4 57.2 178.2-12 246.5 53.5l21.7-119.6c-64.6-61.1-165.2 2.3-229.5-62.2z" class="AK"/><path d="M1991.9 199.9l-9.4.1H1971c-8.7-4.9-17.3-10.1-25.5-16-1.4-1-2.8-2.1-4.3-3.2-2.2-1.7-4.4-3.5-6.6-5.4-3 .9-6 1.6-9 2.3-1.9.4-3.7.9-5.6 1.3-10.8 2.2-21.3 3.5-31.5 3.2-3.2-2-6.4-4.2-9.5-6.6h0c-.2-.2-.4-.3-.6-.5-.3-.2-.6-.5-1-.8-.2-.2-.5-.4-.7-.6l-2-1.7 2.9-9.7c5.3 1.1 10.8 1.8 16.3 2 3.4.1 6.8.1 10.2-.1 5.5-.3 11.1-1 16.8-2-4-4.3-7.8-8.9-11.5-13.9-2.3-3.1-4.6-6.5-6.8-9.9-4.1-6.4-8-13.4-11.7-21.1l2.5-8.7 1.3 1.3 4.5 4.1c3.2 2.7 6.4 5.1 9.7 7.3 6.5 10.3 13.5 19.1 21 26.8h0l3.9 3.9c2.1 2 4.2 4 6.4 5.8a153.66 153.66 0 0 0 9-2.7h0l5.7-1.8c10.9-3.7 21.9-8 32.8-12.6l11 .2 9 .1c-.2.6-.3 1.3-.5 1.9-.5 1.8-1 3.6-1.4 5.4l-22.1 9.5h0c-3.7 1.6-7.5 3.1-11.2 4.6h0c-5.9 2.4-11.9 4.6-17.8 6.7a277.67 277.67 0 0 0 13.3 8.8l8.6 5.1c5.7 3.3 11.5 6.4 17.4 9.5-.5 1.8-1 3.6-1.4 5.4-.4.7-.5 1.3-.7 2z" class="AI"/><path d="M1991.9 199.9l-9.4.1c-10.4-5.5-20.6-11.3-30.4-18-2.8-1.9-5.6-3.9-8.3-6-2.5-1.9-5-3.9-7.5-6l-10.1 2.6c-3.6.8-7.2 1.6-10.8 2.2h0c-12.5 2.1-24.8 2.7-36.4 1.1h0c-.2-.2-.4-.3-.6-.5-.3-.2-.6-.5-1-.8-.2-.2-.5-.4-.7-.6l-2-1.7 1.2-4c8.9 1.9 18.2 2.3 27.7 1.7h0c3.5-.2 7-.6 10.5-1.1 5.6-.8 11.3-2 17.1-3.4-4.1-3.8-8.1-8-12-12.5h0c-2.4-2.8-4.8-5.8-7.2-8.9-7-9.4-13.6-20.1-19.5-32.7l.8-2.6 1.3 1.3 4.5 4.1c.2.2.4.4.6.5 7.2 13.6 15.3 24.8 23.9 34.4h0c2.5 2.7 5 5.3 7.5 7.8a215.7 215.7 0 0 0 7.2 6.6c3.4-.9 6.7-2 10.2-3.1h0c3.7-1.2 7.4-2.4 11-3.8h0c12.9-4.6 26-10.1 38.9-15.7l9 .1c-.2.6-.3 1.3-.5 1.9l-34.6 14.6c-3.7 1.5-7.4 2.9-11.2 4.3-5.9 2.2-11.8 4.2-17.6 6 4.3 3.4 8.6 6.6 13.1 9.5h0c2.8 1.9 5.6 3.7 8.5 5.4h0c8.9 5.4 18 10.3 27.2 15.2-.1.7-.2 1.3-.4 2z" class="AV"/><path d="M1996.4 182.9l-19.9.1c-3.8 0-7.5-.1-11.2-.2h0c-4.4-.2-8.8-.4-13.1-.8l-5.8-.6c-.3.9-.5 1.8-.8 2.6l-4.3 14.6-5.1-.6-4-.6-2-.3h0c-2-.3-4-.7-5.9-1.1l-3.9-.9c-1.6-.4-3.3-.8-4.9-1.3l4.6-14.7c.3-.9.6-1.8.8-2.7-1.8-.5-3.6-1.1-5.4-1.7h0c-4-1.4-8-3-11.9-4.9h0c-3.3-1.6-6.6-3.4-9.7-5.4-4.8-3-9.4-6.4-13.8-10.5l7.9-27c4.7 4.4 9.5 8.2 14.5 11.5 3.1 2 6.3 3.9 9.5 5.5 3.8 1.9 7.7 3.6 11.7 5h0l5.3 1.8c.3-.9.6-1.8.8-2.7h0l4.6-14.7c1.5.5 3.1 1 4.7 1.4h.2c.5.1 1 .3 1.4.4 3.3.9 6.7 1.6 10.1 2.2 2.7.5 5.5.9 8.2 1.3l-4.4 14.6c-.3.9-.5 1.7-.8 2.6l5.7.6h0c4.2.4 8.5.7 12.8.9a201.93 201.93 0 0 0 11 .3h0l19.6.1c-.4 1.6-.9 3.2-1.3 4.8l-4.1 15.4c-.3 1.8-.7 3.4-1.1 5z" class="AI"/><path d="M1997.7 178.1c-10 .1-20 .2-29.8-.2a206.29 206.29 0 0 1-11.1-.6c-4.3-.3-8.6-.7-12.9-1.3-.3 0-.7-.1-1-.1l-1.5 5-5.1 17.2-4-.6-2-.3h0c-2-.3-4-.7-5.9-1.1l-3.9-.9 5.3-17.3c.5-1.7 1.1-3.4 1.6-5.1-.3-.1-.7-.2-1-.3-4.1-1.1-8.2-2.3-12.2-3.9-3.4-1.3-6.8-2.8-10.1-4.4-7.9-4-15.4-9-22.5-15.5l4.9-16.6c7.2 6.8 14.9 12.1 22.9 16.2 3.2 1.7 6.5 3.1 9.9 4.4 3.9 1.5 8 2.8 12 3.9.3.1.7.2 1 .3.5-1.7 1-3.4 1.6-5.1l5.4-17.3h.2c.5.1 1 .3 1.4.4 3.3.9 6.7 1.6 10.1 2.2l3.4.6-5.2 17.2-1.5 5c.3.1.7.1 1 .1 4.2.6 8.4 1.1 12.7 1.4 3.6.3 7.3.5 11 .7 9.8.4 19.6.4 29.5.3l-4.2 15.7z" class="AV"/><path d="M2065.9 172.6l-5.6 3.3 1.9-6.2-6.2-2 6.1-2.7-2-6 5.7 2.9 3.6-5.4 1 6.4 6.4-.3-4.3 4.6 4.4 5-6.4-.7-.9 6.4-3.7-5.3zm26 28.3l-4.4 1.8 1.4-5.2-4.9-3.1 4.8-1.2-1.6-5.8 4.5 3.8 2.8-4 .8 6c1.7.3 3.3.7 5 1.2l-3.3 3.2 3.4 5.5-5-2.2-.7 5.5-2.8-5.5zm-61.4 5.2l-5.1 3.4 1.7-5.3-5.5-1 5.5-2.8-1.8-4.7 5.1 1.8 3.3-4.8.9 5.1 5.8-1.1-3.9 4.4 4 3.4-5.8.3-.8 5.3-3.4-4zm19 41.7l-5 2.8 1.6-5.2-5.5-1.7 5.4-2.3-1.8-5.1 5.1 2.5 3.1-4.5 1 5.4 5.7-.3-3.8 3.9 3.9 4.2-5.7-.6-.7 5.4-3.3-4.5zm-130.5-8.4c-3.7 2.2-7.4 4.3-11.1 6.3l4.3-11.2c-3.7-1.3-7.4-2.8-11-4.4 3.8-1.3 7.7-2.6 11.5-4.1l-2.7-11.3c3.3 2.1 6.6 4 10 5.7l7.5-9.9 1.2 11.2c4.1-.6 8.3-1.4 12.4-2.2l-8.9 9.3 8.1 7.1a272.27 272.27 0 0 1-12.5.9l-2.5 11.4c-2-2.9-4.2-5.8-6.3-8.8zm163.5-29.9l.6 2.9 2.5 1.6-2.2 1-.1 2.8-2-2.3-2.6.2 1-2.4-1.5-2.6 2.7.7c.5-.7 1-1.3 1.6-1.9z" class="AI"/><path d="M1894.6 106.2c-.3.9-57.7 188.8-90.3 295.5" class="z AA AB AC AG AW"/><g class="AE"><use href="#f"/><path d="M1789.8 392.1c1.7 2.7 3.7 5.5 6.7 6.4 1 .3 2 .4 2.9-.1 1.2-.6 1.9-2.2 1.4-3.5 1.3 1 2.7.6 3.9-.4s1.6-3 .8-4.4c1.1.3 1.6.8 2.7.8s2.3-.4 3.1-1.2c.8-.9 1.1-2.1 1-3.3s-1.1-2.9-1.1-2.9 2.4 2.2 4.1.7c1.2-1.1 1.8-2.7 1.9-4.4.1-1.6-.1-3.3-1.1-4.6l-6.8-12.1"/><use href="#f" opacity=".3"/></g><path d="M1811.7 384.1s-6-5.9-8.3-14.9m-6.4 5.6s2 10.3 8.5 15.5m-14.4-8.5s2.1 10.5 9.7 13.3m24.2-19.9c-2.4-1-6.9-3-9.3-4.1-.8-.3-1.5-.7-2.4-.7-.8-.1-1.7.2-2.2.8-.5.7-.5 1.7-.3 2.5.3 1.2 1.1 2.3 1.9 3.3 2 2.5 4.5 4.4 7.1 6.3-6.1 5.4-8.8 14-7.5 22.1" class="z AA AB AC AD AG"/><path d="M2000.7 418.1l-42.2-13.7h0l-1.7-11.7s-20.2 7.8-29.3 9-14.4-2.3-14.4-2.3l-2.5 9.1-34.1 9.6-9.9 178.4h150.2l-16.1-178.4z" class="AI"/><path d="M1910.6 408.5s3.1 2.3 8 3.6m10.5 0s16.2-1.9 29.4-7.7m-91 179h148.4" stroke="#0057bc" class="z AA AD"/><path d="M2092.3 429.3c4.9-1.7-5.1 16.1-.4 13.5 4.6-2.6 22.6-25.5 25.1-23.9 3.5 2.2-13.9 22.3-13.9 22.3s19.8-20.9 22.6-19.4c2.8 1.6-17.3 25.9-17.3 25.9s18.3-19.6 20.9-16.8c1.8 1.9-16.5 22.8-16.5 22.8s15.2-15.7 16.9-13.4-35.9 43.7-60.2 73.2l-16.2-32.3c0-.1 35.2-50.6 39-51.9z" class="AE"/><path d="M2090.8 444.1s.3 7.2-5.8 15.6m25.1-5.4c-3.9 1.3-14.5 7-20.4 11.7" class="z AA AB AC AD AG"/><g class="AN"><path d="M1871.1 415.6s-5.5 20.4-8.6 60.1L1852.4 606l33.1 7.5 13.4-182.1 8.8-28.4-36.6 12.6z"/><use href="#X" x="842.7" y="54.1"/></g><g class="z AA AB AC AD AF"><path d="M1872 414s-5.8 18-3.3 36.2"/><path d="M1905.5 406.9l-35.4 13.2m-13 125.4l13.9 4-3.7 44.4"/><use href="#Y" x="842.8" y="54"/></g><path d="M1897.7 405.9c-6.3 6.3-15.5 18.6-15.5 18.6l9.5-.6 7.1 9.5 13.4-25.7.9-13.1c0 0-9.1 5-15.4 11.3z" class="AK"/><path d="M1886.6 601.3l-33-7.7m5.3-68.1l11.2-85.7m-20.3 12.1l7.3 33.7m-13.5-61.3l-50.3 9.8" class="z AA AB AC AD AF"/><g class="AN"><use href="#Z" x="842.8" y="54"/><use href="#a" x="842.8" y="54.1"/></g><g class="z AA AB AC AD AF"><path d="M2045 475.4l-16.1 14.2m-42 111.7l-2.1-45.4h9.3l25.6 19"/><use href="#b" x="842.7" y="54"/><path d="M2001.9 421.3l-33-14.4"/><use href="#c" x="842.7" y="54.1"/></g><use href="#d" x="842.8" y="54.1" class="AK"/><g class="z AA"><path d="M1967.3 601.3h53.5m-2.6-80.5l-35.4-45.4m89.9-28.7l24.6 45.2" class="AB AC AD AF"/><path d="M2034.4 944.1h45.7m-291.2 0h230.9" stroke="#fff" class="AX"/></g><use href="#e" x="842.7" y="54.1" class="AE"/><path d="M1952.5 362.9l-9.8-.1m9.3 5.9c-2.4 3.1-8.9 3-11.5-.5" class="z AA AB AC AD AG"/><path d="M1928.9 354.9c.8-1.4 2.3-2 3.3-1.4s1.2 2.2.4 3.5c-.8 1.4-2.3 2-3.3 1.4s-1.1-2.2-.4-3.5zm-20.4-9.6c.8-1.4 2.3-2 3.3-1.4s1.2 2.2.4 3.5c-.8 1.4-2.3 2-3.3 1.4-1-.5-1.2-2.1-.4-3.5z"/><path d="M1804.3 401.7l-22 71.8" class="z AA AB AC AG AW"/><g class="AI"><path d="M163.7 843c-.6-.4-1.3-.8-2-1-1-.4-2-.6-2.7-.7-.6-.1-1.2-.2-1.8-.2h-1c-.6 0-1.2.1-1.8.1-.3 0-.6.1-1 .1-.3.1-.6.1-.9.2-.6.1-1.2.3-1.8.5l-1.3.5c-.3.1-.6.3-.8.5l-.4.2c-.4.2-.8.5-1.2.9l-.3.3c-.3.2-.6.4-.8.7l-.3.4c-.2.2-.5.5-.7.8l-1 1.2c-.6 1-1.2 1.8-1.6 2.7l-.8 1.8c-.3-.9-.7-1.8-1.2-2.6l-1-1.5c-.3-.5-.7-.9-1.1-1.4s-.8-.9-1.2-1.3c-.1-.1-.2-.2-.4-.3-.3-.3-.6-.6-1-.8l-1.4-.9-1.4-.7c-.7-.4-1.5-.6-2.2-.8-.3-.1-.5-.2-.9-.3-.3-.1-.7-.1-1-.2-.7-.1-1.3-.3-2-.3-.4 0-.7-.1-1.1-.1-.5-.1-1-.1-1.5-.1h-.6-1c-.7 0-1.3 0-2 .2-1.1.2-2.1.4-3.1.8-.9.3-1.7.7-2.5 1.2l-.5.3-.4.3c-.8.6-1.6 1.2-2.2 1.9-.9.9-1.6 1.9-2.2 2.8-.6 1-1.1 2.1-1.6 3.3-.3.7-.5 1.4-.7 2-.2-.6-.5-1.3-.8-2a28.38 28.38 0 0 0-1.8-3.1c-.2-.4-.5-.7-.8-1-.1-.1-.2-.3-.3-.4-.4-.5-.8-.9-1.2-1.3-.7-.7-1.5-1.3-2.3-1.9l-.4-.3c-.3-.2-.6-.4-1-.5-.2-.1-.3-.2-.5-.3l-1.5-.7-1.5-.5c-.3-.1-.7-.2-1-.2-.2 0-.3-.1-.5-.1-1.1-.3-2.1-.3-3.1-.3-2.1-.2-4.3.2-6.3 1.1-1.9.8-3.7 2.3-5.3 4.1-2.7 3.2-4.7 7.4-6 12.6l.8.3c1.5-4.9 3.6-8.9 6.2-11.7 2.5-2.7 5.8-4.3 9-4.3.5 0 .9 0 1.4.1.9.1 1.9.1 2.8.4.2 0 .4.1.5.1.3.1.6.1.9.2l1.4.5c.4.1.8.3 1.3.6.2.1.3.2.5.3.3.1.5.3.8.5l.4.3c.7.5 1.3 1 1.9 1.7.4.3.7.7 1 1.1.1.1.2.3.3.4.2.3.4.5.6.9.5.8 1.1 1.7 1.6 2.7.5 1.1.9 2.1 1.2 3.1.3.9.6 2 .7 3v.4h.1a1.44 1.44 0 0 0 1.1.9c.5 0 1-.4 1.1-1h.1l-.1-.4c.1-1 .2-2.1.5-3 .2-.9.5-1.9.9-3.1.4-1 .9-2 1.4-2.8s1.1-1.7 1.9-2.4c.5-.6 1.1-1 1.8-1.5l.4-.3.5-.3c.7-.4 1.3-.7 2-.9.8-.3 1.6-.5 2.4-.6l.3-.1c.5-.2 1.1-.2 1.8-.2.4 0 .7 0 1.1-.1.6-.1 1.2 0 1.8.1.4 0 .7.1 1 .1.6 0 1.2.2 1.8.3.3.1.7.1 1 .2s.5.2.8.3c.7.2 1.3.4 1.9.7l1.3.6 1.3.8c.3.1.5.4.7.6a1.38 1.38 0 0 0 .4.3c.3.3.7.6 1 1 .4.4.7.8.9 1.2.4.5.6.9.8 1.3.5.9.9 1.9 1.3 2.8.2.7.6 1.8.7 2.9l-.1.4h.1c.1.5.5.8.9.9.6.1 1.1-.3 1.2-.9h.1v-.4c.1-.8.3-1.7.6-2.6.2-.9.6-1.8 1-2.6s.8-1.6 1.3-2.4l.8-1.1.6-.6.4-.4c.2-.2.4-.4.6-.5a1.38 1.38 0 0 1 .4-.3c.3-.2.6-.5 1-.7.1-.1.3-.2.4-.3.2-.1.5-.3.7-.4l1.2-.5c.5-.2 1-.3 1.5-.5.3-.1.6-.2.8-.2.3 0 .6-.1.9-.1.5-.1 1.1-.2 1.6-.2h.4 1c.3 0 .7 0 1.1.1l1.3.2c.2 0 .5.1.7.2a.9.9 0 0 0 .5.1c.6.1 1.2.4 1.7.8.2.1.4.2.5.3.7.5 1.4 1 2.1 1.7.2.2.4.4.6.7l.2.3.8 1.1c.3.4.5.8.7 1.2.3.5.5.9.6 1.3.7 1.6 1.3 3.5 1.7 5.7l.8-.2c-.2-1-.3-2-.6-3.1-.2-.9-.5-2-.9-3-.2-.4-.4-.9-.6-1.4s-.5-.9-.7-1.4c-.3-.5-.6-1-.9-1.3l-.2-.3c-.2-.3-.5-.6-.7-.9-.7-.8-1.5-1.4-2.3-2l-.4-.4zm-97-2l.9-1.4h0 0l.2.1h0l.2.1v-.6l.5-1.6.6-1.6c.4-1.1.9-2.1 1.4-3 1.1-2.1 2.3-3.9 3.7-5.3 1.4-1.6 3.1-2.7 4.8-3.4 1.9-.7 3.6-1 5.5-.7.9.1 1.9.1 2.8.4.2 0 .4.1.5.1.3.1.6.1.8.2l1.4.5c.4.1.8.3 1.3.6.2.1.3.2.5.3.3.1.5.3.8.5l.5.4 1.8 1.6c.4.3.7.7 1 1.1.1.1.2.3.3.4.2.3.4.5.6.8l1.6 2.7 1.2 3c.3.9.6 2 .7 3v.4h.1c.2.6.6.9 1.2 1 .6 0 1.1-.5 1.2-1.1h.1l-.1-.4.4-3c.2-1 .5-2 .9-3.1s.9-2 1.4-2.8 1.1-1.7 1.8-2.4a6.55 6.55 0 0 1 1.8-1.5l.4-.3.5-.3c.7-.4 1.3-.8 2.1-1 .8-.4 1.7-.5 2.6-.7h.1c.5-.2 1.2-.2 1.8-.2.4 0 .7 0 1.1-.1.6-.1 1.2 0 1.8 0 .4 0 .7.1 1 .1.6 0 1.2.2 1.8.3.3.1.7.1 1 .2l.8.3c.7.2 1.3.4 1.9.7l1.3.6 1.3.8c.3.1.5.4.8.6.1.1.2.2.4.3l1.1 1c.4.4.7.8 1 1.2.4.5.6.9.9 1.3.6.9 1 1.9 1.3 2.9.4 1.1.6 2.1.7 3l-.1.4h.1c.1.3.4.6.7.6h.1c.3 0 .7-.2.8-.6h.1v-.4c.1-.9.3-1.8.6-2.7l1-2.7c.4-.8.8-1.6 1.4-2.4l.8-1.1.6-.6.4-.4c.2-.2.4-.4.6-.5.1-.1.3-.2.4-.3.3-.2.6-.5 1-.7.1-.1.3-.2.4-.3.2-.1.5-.3.7-.4l1.2-.5c.5-.2 1-.3 1.5-.5.3-.1.6-.2.8-.2.3 0 .6-.1.9-.1.5-.1 1.1-.2 1.6-.2h.5.9c.3 0 .7 0 1.2.1l1.3.2c.3 0 .5.1.8.2.2.1.3.1.5.2.6.2 1.2.5 1.8.8.2.1.4.2.5.3.7.5 1.4 1 2.1 1.7.2.2.4.4.6.7l.2.3c.3.3.5.6.8 1.1.3.4.5.8.7 1.2.3.5.5.9.6 1.3.4.9.7 1.9 1 2.8s.5 1.9.7 3c.1.3.3.5.6.4l.2-.1.2-.4-.1-.2c-.4-2.4-.9-4.4-1.6-6l-.6-1.4c-.2-.5-.5-.9-.8-1.4s-.6-.9-.9-1.3l-.2-.3c-.2-.3-.5-.6-.7-.8-.7-.8-1.5-1.4-2.3-1.9-.2-.1-.4-.2-.5-.3-.6-.4-1.3-.7-2-.9a.76.76 0 0 1-.4-.2l-.9-.3-1.3-.2c-.6-.1-1.2-.1-1.8-.2h-.9c-.6 0-1.2.1-1.7.1-.3 0-.6.1-1 .1-.3.1-.6.2-.9.2-.6.1-1.2.3-1.8.5l-1.3.5c-.3.1-.6.3-.8.5l-.4.2c-.4.2-.8.5-1.2.9-.1.1-.2.2-.4.3-.3.2-.5.4-.8.7l-.3.3-.7.7-.9 1.2c-.6.9-1.1 1.8-1.6 2.7-.4.8-.7 1.6-1 2.4-.4-1-.8-2.2-1.4-3.2l-1-1.5a6.73 6.73 0 0 0-1.1-1.4c-.4-.5-.8-.9-1.2-1.2-.1-.1-.2-.2-.4-.3-.3-.3-.6-.5-.9-.7l-1.4-.9-1.4-.7c-.7-.4-1.5-.6-2.2-.8-.3-.1-.5-.2-.9-.3-.3-.1-.7-.1-1.1-.2-.7-.1-1.3-.3-2-.3-.4 0-.7-.1-1.1-.1-.7-.1-1.3-.1-2.1-.1h-1c-.7 0-1.3 0-2 .2-1 .2-2.1.4-3.1.8-.9.2-1.7.7-2.5 1.2l-.5.3-.4.3c-.8.6-1.6 1.1-2.2 1.9-.9.8-1.6 1.8-2.2 2.8s-1.2 2.1-1.7 3.3l-.6 1.7c-.2-.6-.5-1.1-.7-1.7a28.38 28.38 0 0 0-1.8-3.1c-.2-.4-.5-.7-.8-1-.1-.1-.2-.3-.3-.4-.4-.5-.8-.9-1.2-1.3-.8-.8-1.6-1.4-2.5-2l-.2-.2c-.3-.2-.6-.4-1-.5-.2-.1-.3-.2-.5-.3-.6-.3-1.1-.6-1.5-.7l-1.5-.5c-.3-.1-.7-.2-1-.2-.2 0-.4-.1-.5-.1-1.1-.3-2.1-.3-3.1-.3-.4 0-.8-.1-1.1-.1-1.8 0-3.6.4-5.2 1.1-1.9.9-3.8 2.3-5.3 4.1-1.4 1.7-2.6 3.7-3.7 6-.5 1.1-.9 2.2-1.3 3.3-.2.6-.4 1.1-.5 1.7l-.5 2h0l-.5 1.3zm527.8-14a3.79 3.79 0 0 0-1.3-.6c-.6-.3-1.3-.4-1.8-.5-.4-.1-.8-.1-1.2-.1h-.6c-.4 0-.8 0-1.2.1-.2 0-.4 0-.7.1-.2.1-.4.1-.6.1-.4.1-.8.2-1.2.4l-.9.4-.6.3-.3.2c-.3.1-.5.3-.8.6-.1.1-.2.1-.2.2-.2.1-.4.3-.5.5l-.2.2-.5.5-.6.8-1.1 1.8c-.2.4-.4.8-.5 1.2-.2-.6-.5-1.2-.8-1.7l-.7-1c-.2-.3-.4-.6-.7-.9l-.8-.8c-.1-.1-.2-.1-.2-.2-.2-.2-.4-.4-.6-.5l-.9-.6-1-.5-1.5-.6c-.2-.1-.4-.1-.6-.2-.2 0-.5-.1-.7-.1-.4-.1-.9-.2-1.4-.2-.2 0-.5 0-.7-.1-.3 0-.7-.1-1-.1h-.4-.7c-.4 0-.9 0-1.4.1a8.3 8.3 0 0 0-2.1.6c-.6.2-1.1.5-1.7.8l-.3.2-.3.2-1.5 1.3c-.6.6-1.1 1.3-1.5 1.9s-.8 1.4-1.1 2.2c-.2.5-.3.9-.4 1.3-.2-.4-.3-.8-.6-1.3-.4-.8-.8-1.5-1.2-2.1-.2-.3-.3-.5-.5-.7-.1-.1-.1-.2-.2-.3-.2-.3-.5-.6-.8-.8-.5-.5-1-.9-1.5-1.3l-.2-.2c-.2-.1-.4-.2-.6-.4-.1-.1-.2-.1-.3-.2-.4-.2-.7-.4-1-.4l-1-.4c-.2-.1-.5-.1-.7-.2-.1 0-.2 0-.3-.1-.7-.2-1.4-.2-2.1-.2-1.4-.1-2.9.1-4.2.7s-2.5 1.5-3.5 2.7c-1.8 2.1-3.1 5-4 8.4l.5.2c1-3.3 2.4-5.9 4.1-7.8 1.7-1.8 3.8-2.9 6-2.9.3 0 .6 0 .9.1a6.28 6.28 0 0 1 1.9.3c.1 0 .2.1.4.1s.4.1.6.1l.9.4c.3.1.5.2.8.4.1.1.2.1.3.2.2.1.4.2.5.3l.3.2c.5.3.9.7 1.3 1.1l.7.7c.1.1.1.2.2.3.2.2.3.4.4.6.4.5.7 1.1 1.1 1.8l.8 2c.2.6.4 1.3.5 2v.3h.1c.1.3.4.6.7.6s.7-.3.7-.7h.1v-.3l.3-2a8.93 8.93 0 0 1 .6-2l.9-1.9 1.2-1.6c.3-.4.7-.7 1.2-1l.3-.2.4-.2c.4-.3.9-.5 1.4-.6.5-.2 1-.3 1.6-.4h.2c.4-.1.8-.1 1.2-.1h.7 1.2.7c.4 0 .8.1 1.2.2.2 0 .5.1.7.1.2.1.4.1.5.2.4.1.9.3 1.3.5l.8.4.8.6c.2.1.3.2.5.4.1.1.2.1.3.2l.7.7c.3.3.5.5.6.8l.6.9c.4.6.6 1.2.9 1.9a8.71 8.71 0 0 1 .5 1.9v.3h.1c.1.3.3.6.6.6.4.1.7-.2.8-.6h.1v-.3c.1-.5.2-1.1.4-1.7l.6-1.8c.2-.5.5-1 .9-1.6l.5-.7c.1-.1.2-.3.4-.4l.2-.3c.1-.1.3-.2.4-.4.1-.1.2-.1.2-.2.2-.2.4-.3.7-.5.1-.1.2-.1.3-.2.2-.1.3-.2.4-.3l.8-.4 1-.3c.2-.1.4-.1.6-.2.2 0 .4-.1.6-.1.4-.1.7-.1 1.1-.1h.3.7c.2 0 .5 0 .7.1l.8.1c.2 0 .3.1.5.1.1 0 .2.1.3.1.4.1.8.3 1.2.5.1.1.2.1.3.2a7.55 7.55 0 0 1 1.4 1.1c.2.1.3.3.4.5l.2.2a3.04 3.04 0 0 1 .5.7l.5.8c.2.3.3.6.4.9.5 1.1.8 2.3 1.1 3.8l.5-.1-.4-2.1c-.2-.6-.3-1.3-.6-2-.1-.3-.2-.6-.4-1-.1-.3-.3-.6-.5-.9-.2-.4-.4-.6-.6-.9l-.1-.2c-.2-.2-.3-.4-.5-.6-.5-.5-1-.9-1.5-1.3l-.5-.1zm-64.7-1.3l.6-.9h0 0l.1.1h0l.1.1v-.4l.3-1.1c.1-.4.3-.7.4-1.1l.9-2c.7-1.4 1.6-2.6 2.4-3.5 1-1 2.1-1.8 3.2-2.3 1.2-.5 2.4-.6 3.7-.5a6.28 6.28 0 0 1 1.9.3c.1 0 .2.1.4.1s.4.1.6.1l.9.4c.3.1.5.2.8.4.1.1.2.1.3.2.2.1.4.2.5.3l.3.2c.4.3.8.6 1.2 1l.7.7c.1.1.1.2.2.3.1.2.3.3.4.6.4.5.7 1.1 1 1.8l.8 2c.2.6.4 1.3.5 2v.3h.1c.1.4.4.6.8.7.4 0 .7-.3.8-.8h.1v-.3c0-.7.2-1.4.3-2s.3-1.3.6-2.1l.9-1.9c.4-.6.7-1.1 1.2-1.6.3-.4.7-.7 1.2-1l.3-.2.3-.2c.5-.3.9-.5 1.4-.7.6-.3 1.1-.4 1.7-.5h.1c.4-.1.8-.1 1.2-.1h.7 1.2.7c.4 0 .8.1 1.2.2.2 0 .5.1.7.1.2.1.4.1.5.2.4.1.9.3 1.3.5l.9.4.9.6c.2.1.3.2.5.4.1.1.2.1.3.2l.7.7c.3.3.5.5.6.8l.6.9c.4.6.6 1.3.9 1.9l.5 2v.3h.1c.1.2.3.4.5.4h.1c.2 0 .4-.2.5-.4h.1v-.3c.1-.6.2-1.2.4-1.8l.7-1.8c.2-.5.5-1.1.9-1.6l.6-.7.4-.4.2-.3c.1-.1.3-.2.4-.4.1-.1.2-.1.2-.2.2-.2.4-.4.7-.5.1-.1.2-.1.3-.2.2-.1.3-.2.4-.3l.8-.4 1-.3c.2-.1.4-.1.6-.2.2 0 .4-.1.6-.1.4-.1.7-.1 1.1-.1h.3.6c.2 0 .5 0 .8.1l.8.1c.2 0 .3.1.5.1.1 0 .2.1.3.1.4.1.8.3 1.2.5.1.1.2.1.3.2a7.55 7.55 0 0 1 1.4 1.1c.2.1.3.3.4.5l.2.2c.2.2.3.4.5.8l.5.8c.2.3.3.6.4.9.3.6.5 1.2.6 1.8.2.6.3 1.3.4 2 0 .2.2.3.4.3l.2-.1.2-.3v-.2c-.3-1.6-.6-2.9-1.1-4-.1-.3-.3-.6-.4-.9s-.3-.6-.5-.9c-.2-.4-.4-.6-.6-.9l-.1-.2c-.2-.2-.3-.4-.5-.6-.5-.5-1-.9-1.5-1.3-.1-.1-.2-.1-.4-.2-.4-.2-.9-.5-1.3-.6-.1 0-.2-.1-.3-.1-.2-.1-.4-.1-.6-.2l-.9-.2c-.4-.1-.8-.1-1.2-.1h-.6c-.4 0-.8.1-1.2.1-.2 0-.4 0-.7.1-.2.1-.4.1-.6.1l-1.2.3-.9.4-.6.3-.3.2c-.3.1-.5.3-.8.6-.1.1-.2.1-.2.2-.2.1-.4.3-.5.5l-.2.2-.5.5-.6.8c-.4.6-.8 1.2-1 1.8-.3.5-.5 1.1-.6 1.6-.2-.7-.5-1.4-1-2.1l-.6-1c-.2-.3-.4-.6-.7-.9l-.8-.8c-.1-.1-.2-.1-.2-.2-.2-.2-.4-.4-.6-.5l-.9-.6-.9-.5-1.4-.6c-.2-.1-.4-.1-.6-.2-.2 0-.5-.1-.7-.1-.4-.1-.9-.2-1.3-.2-.2 0-.5 0-.7-.1-.4 0-.9-.1-1.4-.1h-.7c-.4 0-.9 0-1.4.1-.7.1-1.4.2-2.1.5-.6.2-1.1.5-1.7.8l-.3.2-.3.2c-.5.4-1 .7-1.5 1.2-.6.5-1 1.2-1.5 1.9-.4.6-.8 1.4-1.1 2.2-.2.4-.3.8-.4 1.1-.1-.4-.3-.7-.5-1.2-.4-.8-.8-1.5-1.2-2.1-.2-.3-.3-.5-.5-.7-.1-.1-.1-.2-.2-.3-.2-.3-.5-.6-.8-.9-.5-.5-1.1-1-1.6-1.4l-.1-.1c-.2-.1-.4-.3-.6-.4-.1-.1-.2-.1-.3-.2-.4-.2-.7-.4-1-.5l-1-.4c-.2-.1-.5-.1-.7-.2-.1 0-.2 0-.4-.1-.7-.2-1.4-.2-2.1-.2h-.8c-1.2 0-2.4.3-3.5.8a9.25 9.25 0 0 0-3.5 2.8c-.9 1.1-1.8 2.4-2.4 4l-.9 2.2c-.1.4-.2.8-.4 1.1l-.4 1.4h0l-.4 1.7z"/><path d="M878.5 750.4c-.4-.3-.9-.5-1.4-.7-.7-.3-1.3-.4-1.8-.5-.4-.1-.8-.1-1.2-.1h-.7c-.4 0-.8.1-1.2.1-.2 0-.4 0-.7.1-.2.1-.4.1-.6.1-.4.1-.8.2-1.2.4l-.9.4-.6.3-.3.2c-.3.1-.5.3-.9.6-.1.1-.2.1-.2.2-.2.1-.4.3-.5.5l-.2.2-.5.5-.7.8-1.1 1.9c-.2.4-.4.8-.5 1.2-.2-.6-.5-1.2-.8-1.8-.2-.3-.4-.7-.7-1-.2-.3-.4-.6-.8-1-.3-.4-.6-.6-.9-.9-.1-.1-.2-.1-.2-.2-.2-.2-.4-.4-.7-.5l-1-.6-1-.5c-.5-.3-1-.4-1.5-.6-.2-.1-.4-.1-.6-.2-.2 0-.5-.1-.7-.1-.5-.1-.9-.2-1.4-.2-.2 0-.5 0-.7-.1-.3 0-.7-.1-1-.1h-.4-.7c-.4 0-.9 0-1.4.1-.7.1-1.5.3-2.1.6-.6.2-1.2.5-1.7.8l-.4.2-.3.2c-.5.4-1.1.8-1.5 1.3-.6.6-1.1 1.3-1.5 1.9-.4.7-.8 1.4-1.1 2.2l-.5 1.4-.6-1.3c-.4-.8-.8-1.5-1.2-2.1-.2-.3-.3-.5-.5-.7-.1-.1-.2-.2-.2-.3-.2-.3-.5-.6-.8-.9-.5-.5-1-.9-1.6-1.3l-.2-.2c-.2-.1-.4-.2-.7-.4-.1-.1-.2-.1-.3-.2-.4-.2-.7-.4-1-.5l-1-.4c-.2-.1-.5-.1-.7-.2-.1 0-.2 0-.4-.1-.7-.2-1.5-.2-2.1-.2-1.4-.1-2.9.1-4.3.7-1.3.6-2.5 1.5-3.6 2.8-1.9 2.2-3.2 5.1-4.1 8.6l.5.2c1-3.4 2.4-6.1 4.2-8 1.7-1.9 3.9-2.9 6.2-2.9.3 0 .6 0 1 .1a6.28 6.28 0 0 1 1.9.3c.1 0 .2.1.4.1s.4.1.6.1l1 .4c.3.1.5.2.9.4.1.1.2.1.3.2.2.1.4.2.5.3l.3.2 1.3 1.1c.3.2.5.5.7.8.1.1.1.2.2.3.2.2.3.4.4.6.4.5.7 1.1 1.1 1.9l.8 2.1a12.91 12.91 0 0 1 .5 2.1v.3h.1c.1.3.4.6.7.6.4 0 .7-.3.8-.7h.1v-.3l.3-2.1c.1-.6.3-1.3.6-2.1.3-.7.6-1.3 1-1.9s.8-1.1 1.3-1.6c.3-.4.8-.7 1.2-1l.3-.2.4-.2c.5-.3.9-.5 1.4-.6.5-.2 1.1-.3 1.6-.4h.2c.4-.1.8-.1 1.2-.1h.7 1.2c.2 0 .5 0 .7.1.4 0 .8.1 1.2.2.2 0 .5.1.7.1.2.1.4.1.6.2.5.1.9.3 1.3.5l.9.4.9.6c.2.1.3.2.5.4.1.1.2.1.3.2l.7.7c.3.3.5.5.6.8l.6.9c.4.6.6 1.3.9 1.9.2.5.4 1.2.5 2v.3h.1c.1.3.3.6.6.6.4.1.7-.2.8-.6h.1v-.3c.1-.6.2-1.2.4-1.8l.7-1.8c.2-.5.5-1.1.9-1.6l.6-.7.4-.4.2-.3.4-.4c.1-.1.2-.1.2-.2.2-.2.4-.4.7-.5.1-.1.2-.1.3-.2.2-.1.3-.2.5-.3l.8-.4c.3-.2.7-.2 1-.3.2-.1.4-.1.6-.2.2 0 .4-.1.6-.1.4-.1.8-.1 1.1-.1h.3.7c.2 0 .5 0 .7.1l.9.1c.2 0 .3.1.5.1.1 0 .2.1.3.1.4.1.8.3 1.2.5.1.1.3.1.3.2a7.55 7.55 0 0 1 1.4 1.1c.2.1.3.3.4.5l.2.2c.2.2.4.5.6.8s.4.5.5.8c.2.3.3.6.4.9.5 1.1.9 2.4 1.2 3.9l.6-.1-.4-2.1-.6-2c-.1-.3-.2-.6-.4-1-.1-.3-.3-.6-.5-.9-.2-.4-.4-.7-.6-.9l-.1-.2c-.2-.2-.3-.4-.5-.6l-1.5-1.4-.8-.2zm-66.3-1.4l.6-.9h0 0l.1.1h0l.1.1v-.4l.3-1.1c.1-.4.3-.7.4-1.1l1-2.1c.8-1.4 1.6-2.6 2.5-3.6 1-1.1 2.1-1.9 3.3-2.3 1.3-.5 2.5-.7 3.8-.5a6.28 6.28 0 0 1 1.9.3c.1 0 .2.1.4.1s.4.1.6.1l.9.4c.3.1.5.2.9.4.1.1.2.1.3.2.2.1.4.2.5.3l.3.3c.4.3.9.7 1.2 1.1.3.2.5.5.7.7.1.1.1.2.2.3.2.2.3.4.4.6.4.5.7 1.1 1.1 1.9a11.12 11.12 0 0 1 .8 2.1c.2.6.4 1.3.5 2v.3h.1c.1.4.4.6.8.7.4 0 .7-.3.8-.8h.1v-.3c0-.7.2-1.4.3-2.1s.3-1.3.6-2.1l.9-1.9c.4-.6.8-1.2 1.3-1.7.3-.4.8-.7 1.2-1.1l.3-.2.4-.2c.5-.3.9-.5 1.4-.7.6-.3 1.2-.4 1.8-.5h.1c.4-.1.8-.1 1.2-.1h.7 1.2.7c.4 0 .8.1 1.2.2.2 0 .5.1.7.1.2.1.4.1.6.2.5.1.9.3 1.3.5l.9.4.9.6c.2.1.3.2.5.4.1.1.2.2.3.2.2.2.5.4.7.7.3.3.5.5.7.8.3.3.4.6.6.9.4.6.7 1.3.9 2 .3.7.4 1.4.5 2v.3h.1c.1.2.3.4.5.4h.1c.2 0 .4-.2.5-.4h.1v-.3c.1-.6.2-1.2.4-1.8l.7-1.8c.2-.5.6-1.1.9-1.7l.6-.8c.1-.2.3-.3.4-.4l.2-.3.4-.4c.1-.1.2-.1.3-.2.2-.2.4-.4.7-.5.1-.1.2-.1.3-.2.2-.1.3-.2.5-.3l.8-.4c.3-.2.7-.2 1-.3.2-.1.4-.1.6-.2.2 0 .4-.1.6-.1.4-.1.8-.1 1.1-.1h.3.6c.2 0 .5 0 .8.1l.9.1c.2 0 .3.1.5.1.1 0 .2.1.3.1.4.1.8.3 1.2.5.1.1.3.1.3.2.5.4 1 .7 1.4 1.2.2.1.3.3.4.5l.2.2c.2.2.3.4.5.8l.5.8c.2.3.3.6.4.9.3.6.5 1.3.7 1.9s.3 1.3.5 2c0 .2.2.3.4.3l.2-.1.2-.3v-.2c-.3-1.6-.6-3-1.1-4.1-.1-.3-.3-.6-.4-1-.1-.3-.3-.6-.5-.9-.2-.4-.4-.6-.6-.9l-.2-.2c-.2-.2-.3-.4-.5-.6-.5-.5-1-.9-1.5-1.3-.1-.1-.2-.1-.4-.2-.4-.2-.9-.5-1.4-.6-.1 0-.2-.1-.3-.1-.2-.1-.4-.1-.6-.2l-.9-.2c-.4-.1-.8-.1-1.2-.1h-.6c-.4 0-.8.1-1.2.1-.2 0-.4 0-.7.1-.2.1-.4.1-.6.2-.4.1-.8.2-1.2.4l-.9.4-.6.3-.3.2c-.3.1-.5.3-.8.6-.1.1-.2.1-.2.2-.2.1-.4.3-.5.5l-.2.2-.5.5-.6.8-1.1 1.8c-.3.5-.5 1.1-.7 1.6-.2-.7-.6-1.5-1-2.2-.2-.3-.4-.7-.7-1-.2-.3-.4-.6-.7-.9l-.8-.8c-.1-.1-.2-.1-.2-.2-.2-.2-.4-.4-.6-.5l-.9-.6-1-.5-1.5-.6c-.2-.1-.4-.1-.6-.2-.2 0-.5-.1-.7-.1-.4-.1-.9-.2-1.4-.2-.2 0-.5 0-.7-.1-.5 0-.9-.1-1.4-.1h-.7c-.4 0-.9 0-1.4.1-.7.1-1.4.2-2.1.5-.6.2-1.2.5-1.7.8l-.4.2-.3.2c-.5.4-1.1.8-1.5 1.3-.6.6-1.1 1.2-1.5 1.9s-.8 1.4-1.1 2.2c-.2.4-.3.8-.4 1.2-.1-.4-.3-.8-.5-1.2-.4-.8-.8-1.5-1.2-2.1-.2-.3-.3-.5-.5-.7-.1-.1-.2-.2-.2-.3-.2-.3-.5-.6-.8-.9-.5-.6-1.1-1-1.7-1.4l-.1-.1c-.2-.1-.4-.3-.7-.4-.1-.1-.2-.1-.3-.2-.4-.2-.7-.4-1-.5l-1-.4c-.2-.1-.5-.1-.7-.2-.1 0-.2 0-.4-.1-.7-.2-1.5-.2-2.1-.2h-.8c-1.2 0-2.5.3-3.6.8-1.3.6-2.6 1.6-3.6 2.8-1 1.1-1.8 2.5-2.5 4.1l-.9 2.3c-.1.4-.2.8-.4 1.2l-.4 1.4h0l-.6 1.3zm156.2 11.9c-.4-.2-.7-.4-1.1-.5-.5-.2-1.1-.3-1.5-.4-.3-.1-.7-.1-1-.1h-.5c-.4 0-.7 0-1 .1-.2 0-.3 0-.6.1-.2 0-.3.1-.5.1l-1 .3-.7.3c-.2.1-.3.2-.5.3l-.2.1c-.2.1-.4.3-.7.5l-.2.2c-.2.1-.3.2-.5.4l-.2.2-.4.4-.5.7c-.4.5-.7 1-.9 1.5-.2.3-.3.7-.4 1-.2-.5-.4-1-.7-1.5-.1-.3-.3-.6-.6-.9-.2-.3-.4-.5-.6-.8s-.5-.5-.7-.7l-.2-.2c-.2-.2-.3-.3-.5-.4l-.8-.5-.8-.4c-.4-.2-.8-.3-1.2-.5-.2 0-.3-.1-.5-.2-.2 0-.4-.1-.6-.1-.4-.1-.8-.2-1.2-.2h-.6c-.3 0-.6-.1-.9-.1h-.3-.6c-.4 0-.8 0-1.2.1-.6.1-1.2.2-1.8.5-.5.1-1 .4-1.4.7l-.3.2-.2.2c-.4.3-.9.6-1.2 1.1-.5.5-.9 1.1-1.2 1.6s-.6 1.2-.9 1.9c-.1.4-.3.8-.4 1.1-.1-.3-.3-.7-.5-1.1-.3-.7-.7-1.2-1-1.7-.1-.2-.3-.4-.4-.6l-.2-.2c-.2-.3-.4-.5-.7-.7-.4-.4-.9-.7-1.3-1.1l-.2-.1c-.2-.1-.4-.2-.5-.3-.1 0-.2-.1-.3-.1-.3-.2-.6-.3-.9-.4l-.8-.3c-.2-.1-.4-.1-.6-.1-.1 0-.2 0-.3-.1-.6-.1-1.2-.2-1.8-.2-1.2-.1-2.4.1-3.5.6s-2.1 1.3-3 2.3c-1.5 1.8-2.7 4.2-3.4 7.1l.4.2c.8-2.8 2-5 3.5-6.6 1.4-1.5 3.3-2.4 5.1-2.4.3 0 .5 0 .8.1.5 0 1.1.1 1.6.2.1 0 .2 0 .3.1.2 0 .3.1.5.1l.8.3c.2.1.4.2.7.3.1.1.2.1.3.2.2.1.3.2.4.3l.2.2 1.1.9.6.6.2.2c.1.2.2.3.4.5.3.4.6.9.9 1.5s.5 1.2.7 1.7.3 1.1.4 1.7v.2h.1c.1.3.3.5.6.5s.6-.2.6-.6h.1v-.2c0-.6.1-1.2.3-1.7.1-.5.3-1.1.5-1.7s.5-1.1.8-1.6.6-.9 1.1-1.3c.3-.3.6-.6 1-.9l.2-.2.3-.2c.4-.2.7-.4 1.2-.5.4-.2.9-.3 1.4-.4h.2c.3-.1.6-.1 1-.1h.6 1 .6c.3 0 .7.1 1 .2.2 0 .4.1.6.1a.9.9 0 0 0 .5.1c.4.1.7.2 1.1.4l.7.3.7.5c.1.1.3.2.4.3l.2.2c.2.1.4.3.6.6.2.2.4.4.5.7.2.3.3.5.5.7.3.5.5 1.1.7 1.6l.4 1.6v.2h.1c.1.3.3.5.5.5.3.1.6-.2.7-.5h.1v-.2l.3-1.5c.1-.5.3-1 .5-1.5.2-.4.4-.9.7-1.3l.5-.6.3-.3.2-.2.3-.3.2-.2c.1-.1.3-.3.6-.4.1 0 .2-.1.2-.1a.76.76 0 0 1 .4-.2l.7-.3.8-.3c.2 0 .3-.1.5-.1s.4 0 .5-.1c.3 0 .6-.1.9-.1h.2.6c.2 0 .4 0 .6.1l.7.1c.1 0 .3.1.4.1s.2.1.3.1c.3.1.7.2 1 .4.1.1.2.1.3.1l1.2.9.4.4.1.2c.2.2.3.4.5.6s.3.4.4.7.3.5.4.7c.4.9.7 1.9 1 3.2l.5-.1-.3-1.7c-.1-.5-.3-1.1-.5-1.7-.1-.3-.2-.5-.4-.8-.1-.3-.3-.5-.4-.8-.2-.3-.3-.5-.5-.7l-.1-.2c-.1-.2-.3-.4-.4-.5-.4-.4-.8-.8-1.3-1.1l-.9-.3zm-54.7-1.1l.5-.8h0 0l.1.1h0l.1.1v-.3l.3-.9.3-.9c.2-.6.5-1.2.8-1.7.6-1.2 1.3-2.2 2.1-3 .8-.9 1.8-1.5 2.7-1.9 1-.4 2.1-.5 3.1-.4.5 0 1.1.1 1.6.2.1 0 .2 0 .3.1.2 0 .3.1.5.1l.8.3c.2.1.4.2.7.3.1.1.2.1.3.2.2.1.3.2.4.3l.3.2c.4.3.7.5 1 .9l.6.6.2.2c.1.2.2.3.4.5.3.4.6.9.9 1.5s.5 1.2.7 1.7.3 1.1.4 1.7v.2h.1c.1.3.3.5.7.6.3 0 .6-.3.7-.6h.1v-.2c0-.6.1-1.2.3-1.7.1-.5.3-1.1.5-1.7s.5-1.1.8-1.6.6-1 1-1.4c.3-.3.6-.6 1-.9l.2-.2.3-.2c.4-.2.7-.4 1.2-.6s1-.3 1.5-.4h.1c.3-.1.7-.1 1-.1h.6 1 .6c.3 0 .7.1 1 .2.2 0 .4.1.6.1a.9.9 0 0 0 .5.1c.4.1.7.2 1.1.4l.7.3.7.5c.1.1.3.2.4.3l.2.2c.2.1.4.3.6.6.2.2.4.4.5.7.2.3.4.5.5.7.3.5.5 1.1.7 1.6.2.6.3 1.2.4 1.7v.2h.1c.1.2.2.3.4.3h.1a.55.55 0 0 0 .5-.3h.1v-.2l.3-1.5c.1-.5.3-1 .6-1.5.2-.4.5-.9.8-1.4l.5-.6a1.38 1.38 0 0 0 .3-.4l.2-.2.3-.3.2-.2c.1-.1.4-.3.6-.4.1 0 .2-.1.2-.1a.76.76 0 0 1 .4-.2l.7-.3.9-.3c.2 0 .3-.1.5-.1s.4 0 .5-.1c.3 0 .6-.1.9-.1h.3.5c.2 0 .4 0 .7.1l.7.1c.1 0 .3.1.4.1s.2.1.3.1c.3.1.7.3 1 .4.1.1.2.1.3.2.4.3.8.6 1.2 1 .1.1.2.3.4.4l.1.2c.1.2.3.4.5.6s.3.4.4.7.3.5.3.7a9.83 9.83 0 0 1 .5 1.6l.4 1.7c0 .2.2.3.3.3h.1l.1-.2v-.1c-.2-1.3-.5-2.5-.9-3.4-.1-.3-.2-.5-.4-.8-.1-.3-.3-.5-.4-.8-.2-.3-.3-.5-.5-.7l-.1-.2c-.1-.2-.3-.3-.4-.5-.4-.4-.8-.8-1.3-1.1-.1-.1-.2-.1-.3-.2-.4-.2-.7-.4-1.1-.5-.1 0-.2-.1-.2-.1-.2-.1-.3-.1-.5-.2l-.7-.1c-.3-.1-.7-.1-1-.1h-.5c-.3 0-.7 0-1 .1-.2 0-.3 0-.6.1-.2 0-.3.1-.5.1l-1 .3-.7.3c-.2.1-.3.2-.5.3l-.2.1c-.2.1-.4.3-.7.5l-.2.2c-.1.1-.3.2-.4.4l-.2.2-.4.4-.5.7c-.4.5-.6 1-.9 1.5-.2.5-.4.9-.5 1.4-.2-.6-.5-1.2-.8-1.8-.1-.3-.3-.5-.5-.8s-.4-.5-.6-.8-.5-.5-.7-.7l-.2-.2c-.2-.2-.3-.3-.5-.4l-.8-.5-.8-.4c-.4-.2-.8-.3-1.2-.5-.2 0-.3-.1-.5-.2-.2 0-.4-.1-.6-.1-.4-.1-.7-.2-1.1-.2h-.6c-.4 0-.8-.1-1.2 0h-.6c-.4 0-.8 0-1.1.1-.6.1-1.2.2-1.7.4-.5.1-1 .4-1.4.6l-.3.2-.2.2c-.4.3-.9.6-1.2 1.1-.5.5-.9 1-1.3 1.6-.3.5-.7 1.2-.9 1.8l-.3 1c-.1-.3-.3-.6-.4-1-.3-.7-.7-1.3-1-1.8-.1-.2-.3-.4-.4-.6l-.2-.2c-.2-.3-.4-.5-.7-.7-.4-.5-.9-.8-1.4-1.1l-1.2-.6-.6-.3c-.1 0-.2-.1-.3-.1-.3-.2-.6-.3-.9-.4l-.9-.3c-.2-.1-.4-.1-.6-.1-.1 0-.2 0-.3-.1-.6-.1-1.2-.2-1.8-.2h-.6c-1 0-2 .2-2.9.6-1.1.5-2.1 1.3-3 2.3-.8.9-1.5 2.1-2.1 3.4-.3.6-.5 1.2-.7 1.9l-.3 1-.3 1.2h0v.9z"/></g><defs ><path id="C" d="M1169.3 83.7c.6.4 1.3.8 2 1 1 .4 2 .6 2.7.7.6.1 1.2.2 1.8.2h1c.6 0 1.2-.1 1.8-.1.3 0 .6-.1 1-.1.3-.1.6-.1.9-.2.6-.1 1.2-.3 1.8-.5l1.3-.5c.3-.1.6-.3.8-.5l.4-.2c.4-.2.8-.5 1.2-.9l.3-.3c.3-.2.6-.4.8-.7l.3-.4c.2-.2.5-.5.7-.8l1-1.2c.6-1 1.2-1.8 1.6-2.7l.8-1.8c.3.9.7 1.8 1.2 2.6l1 1.5c.3.5.7.9 1.1 1.4s.8.9 1.2 1.3a1.38 1.38 0 0 0 .4.3c.3.3.6.6 1 .8l1.4.9 1.4.7c.7.4 1.5.6 2.2.8.3.1.5.2.9.3.3.1.7.1 1 .2.7.1 1.3.3 2 .3.4 0 .7.1 1.1.1.5.1 1 .1 1.5.1h.6 1c.7 0 1.3 0 2-.2 1.1-.2 2.1-.4 3.1-.8.9-.3 1.7-.7 2.5-1.2l.5-.3.4-.3c.8-.6 1.6-1.2 2.2-1.9.9-.9 1.6-1.9 2.2-2.8.6-1 1.1-2.1 1.6-3.3.3-.7.5-1.4.7-2 .2.6.5 1.3.8 2a28.38 28.38 0 0 0 1.8 3.1c.2.4.5.7.8 1 .1.1.2.3.3.4.4.5.8.9 1.2 1.3.7.7 1.5 1.3 2.3 1.9l.4.3c.3.2.6.4 1 .5.2.1.3.2.5.3l1.5.7 1.5.5c.3.1.7.2 1 .2.2 0 .3.1.5.1 1.1.3 2.1.3 3.1.3 2.1.2 4.3-.2 6.3-1.1 1.9-.8 3.7-2.3 5.3-4.1 2.7-3.2 4.7-7.4 6-12.6l-.8-.3c-1.5 4.9-3.6 8.9-6.2 11.7-2.5 2.7-5.8 4.3-9 4.3-.5 0-.9 0-1.4-.1-.9-.1-1.9-.1-2.8-.4-.2 0-.4-.1-.5-.1-.3-.1-.6-.1-.9-.2l-1.4-.5c-.4-.1-.8-.3-1.3-.6-.2-.1-.3-.2-.5-.3-.3-.1-.5-.3-.8-.5l-.4-.3c-.7-.5-1.3-1-1.9-1.7-.4-.3-.7-.7-1-1.1-.1-.1-.2-.3-.3-.4-.2-.3-.4-.5-.6-.9-.5-.8-1.1-1.7-1.6-2.7-.5-1.1-.9-2.1-1.2-3.1-.3-.9-.6-2-.7-3v-.4h-.1a1.44 1.44 0 0 0-1.1-.9c-.5 0-1 .4-1.1 1h-.1l.1.4c-.1 1-.2 2.1-.5 3-.2.9-.5 1.9-.9 3.1-.4 1-.9 2-1.4 2.8s-1.1 1.7-1.9 2.4c-.5.6-1.1 1-1.8 1.5l-.4.3-.5.3c-.7.4-1.3.7-2 .9-.8.3-1.6.5-2.4.6l-.3.1c-.5.2-1.1.2-1.8.2-.4 0-.7 0-1.1.1-.6.1-1.2 0-1.8-.1-.4 0-.7-.1-1-.1-.6 0-1.2-.2-1.8-.3-.3-.1-.7-.1-1-.2s-.5-.2-.8-.3c-.7-.2-1.3-.4-1.9-.7l-1.3-.6-1.3-.8c-.3-.1-.5-.4-.7-.6a1.38 1.38 0 0 0-.4-.3c-.3-.3-.7-.6-1-1-.4-.4-.7-.8-.9-1.2-.4-.5-.6-.9-.8-1.3-.5-.9-.9-1.9-1.3-2.8-.2-.7-.6-1.8-.7-2.9l.1-.4h-.1c-.1-.5-.5-.8-.9-.9-.6-.1-1.1.3-1.2.9h-.1v.4c-.1.8-.3 1.7-.6 2.6-.2.9-.6 1.8-1 2.6s-.8 1.6-1.3 2.4l-.8 1.1-.6.6-.4.4c-.2.2-.4.4-.6.5a1.38 1.38 0 0 1-.4.3c-.3.2-.6.5-1 .7-.1.1-.3.2-.4.3-.2.1-.5.3-.7.4l-1.2.5c-.5.2-1 .3-1.5.5-.3.1-.6.2-.8.2-.3 0-.6.1-.9.1-.5.1-1.1.2-1.6.2h-.4-1c-.3 0-.7 0-1.1-.1l-1.3-.2c-.2 0-.5-.1-.7-.2s-.3-.1-.5-.1c-.6-.1-1.2-.4-1.7-.8-.2-.1-.4-.2-.5-.3-.7-.5-1.4-1-2.1-1.7-.2-.2-.4-.4-.6-.7l-.2-.3-.8-1.1c-.3-.4-.5-.8-.7-1.2-.3-.5-.5-.9-.6-1.3-.7-1.6-1.3-3.5-1.7-5.7l-.8.2c.2 1 .3 2 .6 3.1.2.9.5 2 .9 3 .2.4.4.9.6 1.4s.5.9.7 1.4c.3.5.6 1 .9 1.3l.2.3c.2.3.5.6.7.9.7.8 1.5 1.4 2.3 2l.4.4z"/><path id="D" d="M1055.5 724.7h-59l6.7-106.4h45.6z"/><path id="E" d="M1046.8 686.6h-41.6l4.7-75h32.2z"/><path id="F" d="M494.3 689.8L479 719.5l191.9-9.8-77.2-10.9-25.8-.4-16.1-10.2z"/><path id="G" d="M297.1 656.6s1.3-39.9-56.5-119l.3-5.5c57.8 79.1 56.5 119 56.5 119l-.3 5.5z"/><path id="H" d="M146.6 636.6v26.5l-13 15.5-17.4 5.8h76.2c0-.1-27.6-36.5-45.8-47.8z"/><path id="I" d="M124.7 693.1l73.2 4.5-10.3-13.3h-71.4z"/><path id="J" d="M193.6 578.7s46.6 9.4 77.8 32.3c2.4 1.7-21.3 86.6-21.3 86.6s1.3-39.9-56.5-118.9z"/><path id="K" d="M228.6 678.3s-1.7-49.8 10-67.1c0 0 33.8 9.2 115.6 95.3l-39.3.3-138.5-7.4s9-22.7 49-20.8l3.2-.3z"/><path id="L" d="M588.4 696.7c-1.7-4.3-6.5-34.9-7.1-39 1.9.4 4.4 1.1 7.4 2.1 6.4 2.2 16.4 6.6 27.5 14.9s17.7 15.7 21.3 20.4c.1.1 2.7 5.5 2.8 5.6l-51.9-4z"/><path id="M" d="M674.5 690.7l-27.1 2-2.3 10.8 37.7-.4z"/><path id="N" d="M1356.8 816.4c0 .6-1.8 1.1-4 1.1s-4-.5-4-1.1 1.8-1.1 4-1.1 4 .5 4 1.1z"/><path id="O" d="M1075 867.4c0 4.4-3.6 8-8 8s-8-3.6-8-8 3.6-8 8-8 8 3.6 8 8z"/><path id="P" d="M1025.4 499.2s-12.3 82.3-16.3 151.7c-2.9 49.1-1.4 190.9-1.4 190.9h88l-5.6-175.9 16.9-160.8"/><path id="Q" d="M1087.1 527.2s-3.2 122.5 6.1 171.8c11.6 61.4 48.9 139.8 48.9 139.8l77.6-35s-32.6-68.8-42.7-125.9c-5.1-29.2-5.6-101.3-5-140"/><path id="R" d="M1205.5 810.2s-26.4-57.3-40-122.1c-13.4-63.6-6.4-148.2-6.4-148.2"/><path id="S" d="M1070.6 324.6l-1.5 22.7s5.2 6.1 18.9 4.5c13.7-1.5 28.3-10.6 28.3-10.6l-8.1-39.4"/><path id="T" d="M1121.8 292c.2-6.3-4.1-20.4-12.2-25.1-7.7-4.4-16.2-7.1-21.5-6.9-10.5.4-16.7 13.1-16.7 13.1l1 3.8c.5 1.7 2.1 3 4.1 3.3l.9.1c1.3.2 2.4.8 3.2 1.7l2.1 2.5c.9 1.1 2.3 1.7 3.8 1.7h3.1c1.2 0 2.4.4 3.3 1.2l.6.5c1.2 1.1 3 1.5 4.6 1.1l5-1.3c1.9 6.2-2 13.6 8.9 27.5 0 .1 9.5-10.8 9.8-23.2z"/><path id="U" d="M1077.5 293.9s-4.5 8.3-5.5 9.5c-.8 1-.9 2.6-.1 3.3 1.1 1 2.6.6 2.6.6"/><path id="V" d="M1079.2 311.9l-10.2-1.1c-1.4 6.3 1.6 9.3 4 9.6 2.3.2 5.6-2.9 6.2-8.5z"/><path id="W" d="M987.7 331.6l-3.2-13.5c-.8-.7-1.9-1.1-2.9-1.2-.9-.1-1.9.1-2.6.7-1.3 1-1.6 2.9-1.8 4.6-1.3-1.7-3.8-2-5.5-.7-1.3 1-1.9 2.7-2.2 4.3-1.6-.9-3.7-.6-5.3.4-1.5 1-2.5 2.9-2.3 4.7-1.9 0-4.2 2.2-4.6 4s0 3.8.5 5.6c.8 3.1 2 6.3 4.6 8 .8.6 1.9.9 2.8.7 1.3-.2 2.4-1.6 2.3-3 .9 1.3 2.4 1.3 3.8.6s2.3-2.4 2-4c1 .6 1.3 1.2 2.4 1.5s2.3.3 3.3-.3 1.6-1.7 1.9-2.9c.2-1.2.1-2.4 0-3.5.4 1.6 2.1 2.9 3.6 2.3s2.5-2.1 3-3.7c.6-1.4.9-3.1.2-4.6z"/><path id="X" d="M1047.3 428.3c-17.7 26.3-29.7 50.6-49.7 52.5-15.4 1.5-25.3-15.4-32.3-39-6.7-22.8-17.4-74.6-17.4-74.6l50.2-9.6 9 40.2s16.8-34 22.3-37.9c6.1-4.4 25.6-8.1 25.6-8.1"/><path id="Y" d="M1060.7 350.4s-11.7 17.4-13.4 26.9-16.9 176.9-17.1 179.3"/><path id="Z" d="M1122.9 363.3l-4.7 16.8 6.9 181.5 52.8-.2s1.8-119.5-16.9-194.7l-40.8-21.2"/><path id="a" d="M1136.8 416.9s30 47.4 47.5 58c16.1 9.8 28.7 3.9 40.8-7.9 19.6-19.1 38.7-39.3 38.7-39.3l-25.3-43.5-36.2 37.1s-29.5-51-39.1-57.5c-11.6-7.9-41.8-19.6-41.8-19.6"/><path id="b" d="M1144.5 427.1s-.8-39.6 10.3-54.9c5.7-7.8 8.3-8.3 8.3-8.3"/><path id="c" d="M1123 351s4.8 35.5 5.9 51.3 7.7 159.1 7.7 159.1"/><path id="d" d="M1136.8 374.3l-3.8-12.6s-9.7-20.8-11.4-23.1c-1.8-2.3-8.2-3.5-8.2-3.5l2.1 10 2.7 34.9 11.6-9 7 3.3z"/><path id="e" d="M1103.2 302.5c1.9-1.6 9.2-2.2 9.5 3.6.3 5.9-4.6 11.6-10.2 10.8-5.6-.9-4.8-6-4.8-6"/><path id="f" d="M1816.1 375.4l-6.8-12.1c-1-.4-2.1-.5-3.1-.3-.9.2-1.8.6-2.3 1.4-1 1.3-.7 3.2-.4 4.9-1.7-1.3-4.2-.9-5.5.8-1 1.3-1.1 3.1-.9 4.7-1.8-.5-3.8.4-5 1.8s-1.6 3.5-.9 5.2c-1.8.5-3.5 3.3-3.4 5.2s1.1 3.6 2.1 5.2c1.7 2.7 3.7 5.5 6.7 6.4 1 .3 2 .4 2.9-.1 1.2-.6 1.9-2.2 1.4-3.5 1.3 1 2.7.6 3.9-.4s1.6-3 .8-4.4c1.1.3 1.6.8 2.7.8s2.3-.4 3.1-1.2c.8-.9 1.1-2.1 1-3.3s-.5-2.3-1-3.4c.8 1.4 2.8 2.2 4.1 1.2s1.8-2.7 1.9-4.4c0-1.5-.2-3.3-1.3-4.5z"/></defs></svg>