<svg xmlns="http://www.w3.org/2000/svg" class="A" id="A" viewBox="0 0 500 500" xmlns:v="https://vecta.io/nano"><style><![CDATA[svg#A.A #B{animation:1s 1 forwards cubic-bezier(.36,-0.01,.5,1.38) slideDown,3s Infinite linear wind;animation-delay:0s,1s}svg#A.A #C{animation:3s Infinite linear floating;animation-delay:0s}@keyframes slideDown{0%{opacity:0;transform:translateY(-30px)}100%{opacity:1;transform:translateY(0)}} @keyframes wind{0%{transform:rotate( 0deg )}25%{transform:rotate( 1deg )}75%{transform:rotate( -1deg )}} @keyframes floating{0%{opacity:1;transform:translateY(0px)}50%{transform:translateY(-10px)}100%{opacity:1;transform:translateY(0px)}}.D{fill:#e0e0e0}.E{fill:#3560ff}.F{fill:#fff}.G{opacity:.4}.H{fill:#ebebeb}.I{fill:#263238}.J{fill:#f28f8f}.K{fill:#f5f5f5}.L{opacity:.3}.M{fill:#37474f}.N{fill:#fafafa}.O{opacity:.2}.P{fill:#455a64}.Q{opacity:.1}.R{fill:#ffa8a7}.S{fill:#e6e6e6}.T{fill:#f0f0f0}]]></style><path d="M81.5 245.53c-93.06 53.73-93 140.84 0 194.56s243.93 53.73 337 0 93.05-140.83 0-194.56-243.94-53.72-337 0z" class="B K" transform-origin="250.011px 342.81px"/><g class="B D"><path d="M435.25 311.22l-37 21.38c-2.44 1.4-6.69 1.23-9.5-.4L252.6 253.61c-2.81-1.62-3.11-4.08-.68-5.48l37-21.38c2.44-1.4 6.69-1.22 9.5.4l136.13 78.59c2.83 1.62 3.13 4.08.7 5.48z" transform-origin="343.584px 279.677px"/><path d="M211.41 422.19l-124.65-72c-3.21-1.86-3.21-4.86 0-6.71l167-96.4a12.86 12.86 0 0 1 11.62 0l124.64 72c3.21 1.85 3.21 4.85 0 6.71L223 422.19a12.86 12.86 0 0 1-11.59 0z" transform-origin="238.39px 334.631px"/><path d="M180.41,443.59c-.63,1.72-2.46,2.78-5.52,3.19l-50-29.22-5.66-5.74a.44.44,0,0,1,.45-.72l10.42,3.45Z" transform-origin="149.762px 428.931px"/><path d="M135.83 408.26l57.32 33.14 8.85 1.8a.27.27 0 0 0 .29-.4l-2.77-5.08-57.32-33.15c-1.75-1-7.74 2.9-6.37 3.69z" transform-origin="168.977px 423.807px"/><path d="M336.79 451.17l112.68-65.06-73.24-42.29-112.69 65.06 73.25 42.29z" transform-origin="356.505px 397.495px"/><ellipse cx="90.49" cy="387.31" rx="33.04" ry="19.08" transform-origin="90.49px 387.31px"/></g><g class="B"><path d="M141.54 399.57a1.06 1.06 0 0 1 .25.09l-.49-.28-.09-.05h0-.1-.11-.08-.14-.15a2.16 2.16 0 0 0-1.07.33 5.24 5.24 0 0 0-2.37 4.11 2.68 2.68 0 0 0 .06.59v.11a.56.56 0 0 0 0 .12 1.31 1.31 0 0 0 .19.35 1.22 1.22 0 0 0 .35.32l.57.32a1 1 0 0 1-.25-.2 1.91 1.91 0 0 0 1.36-.29 5.26 5.26 0 0 0 2.38-4.11 1.94 1.94 0 0 0-.31-1.41z" class="E" transform-origin="139.533px 402.455px"/><path d="M196.79 431.43l-3.35 5.83-.57-.33-54.38-31.42a1 1 0 0 1-.25-.2 1.88 1.88 0 0 1-.44-1.34 5.25 5.25 0 0 1 2.37-4.11 2.17 2.17 0 0 1 1.07-.32h.3a1.06 1.06 0 0 1 .25.09h0 0z" class="T" transform-origin="167.293px 418.4px"/><path d="M195.11 431.6c1.31-.76 2.37-.14 2.37 1.37a5.22 5.22 0 0 1-2.37 4.11c-1.31.76-2.38.15-2.38-1.37a5.26 5.26 0 0 1 2.38-4.11z" class="E" transform-origin="195.105px 434.341px"/><path d="M200.21 435.13l-.06-.07-3-3.33h0 0l-.05-.06h0 0a1.54 1.54 0 0 0-1.9 0 5.26 5.26 0 0 0-2.38 4.11 1.54 1.54 0 0 0 .92 1.63h0 .17 0l4.39 1a1 1 0 0 0 .76-.17 3 3 0 0 0 1.36-2.35 1.06 1.06 0 0 0-.21-.76z" class="D" transform-origin="196.616px 434.884px"/><path d="M155.91 410.31h0-.08a.58.58 0 0 0-.55.08 1.86 1.86 0 0 0-.84 1.46.63.63 0 0 0 .19.51h0l.1.06 41.58 24 2.37-1.37z" class="P" transform-origin="176.559px 423.347px"/><path d="M193 434.46l3.35 1.94 2.37-1.37-4.54-2.62a5.61 5.61 0 0 0-1.18 2.05z" class="M" transform-origin="195.86px 434.405px"/><use href="#E" class="E" transform-origin="198.525px 435.982px"/><use href="#E" class="Q" transform-origin="198.525px 435.982px"/><path d="M201.56 437.15a1.67 1.67 0 0 1-.77 1.32.6.6 0 0 1-.43.09h0l-2-.45c-.32-.07-.53-.37-.53-.85a2.72 2.72 0 0 1 1.22-2.12.8.8 0 0 1 1 0l.06.06 1.36 1.5h0a.61.61 0 0 1 .09.45z" class="E" transform-origin="199.7px 436.767px"/><path d="M200.8 436.71c.42-.25.76 0 .76.44a1.69 1.69 0 0 1-.76 1.32c-.43.24-.77 0-.77-.44a1.66 1.66 0 0 1 .77-1.32z" class="Q" transform-origin="200.795px 437.588px"/><path d="M146.92,405.12a.59.59,0,0,0-.59.06,1.82,1.82,0,0,0-.84,1.46.56.56,0,0,0,.25.54h0l8.87,5.13a.63.63,0,0,1-.19-.51,1.86,1.86,0,0,1,.84-1.46.58.58,0,0,1,.55-.08Z" class="N" transform-origin="150.648px 408.689px"/><path d="M147.17 405.67a1.87 1.87 0 0 1-.84 1.45.59.59 0 0 1-.59.06.57.57 0 0 1-.25-.54 1.82 1.82 0 0 1 .84-1.46.59.59 0 0 1 .59-.06.61.61 0 0 1 .25.55z" class="K" transform-origin="146.329px 406.15px"/><use href="#F" class="E" transform-origin="142.01px 403.706px"/><use href="#F" opacity=".05" transform-origin="142.01px 403.706px"/><path d="M143.73 402.19c1.18-.68 2.14-.13 2.14 1.23a4.75 4.75 0 0 1-2.14 3.71c-1.18.68-2.13.12-2.13-1.24a4.72 4.72 0 0 1 2.13-3.7z" class="Q" transform-origin="143.735px 404.659px"/><path d="M202.53 438h0l-1.45-.87h0a.24.24 0 0 0-.28 0 .86.86 0 0 0-.4.67.28.28 0 0 0 .12.26h0l1.44.87h0a.5.5 0 0 0 .27.07.56.56 0 0 0 .56-.56.58.58 0 0 0-.26-.44z" class="P" transform-origin="201.594px 438.043px"/><path d="M202.61 438.05h0a.24.24 0 0 0-.08-.06h0a.3.3 0 0 0-.25 0 .84.84 0 0 0-.4.68.25.25 0 0 0 .11.24h0 0a.38.38 0 0 0 .18 0 .56.56 0 0 0 .56-.56.54.54 0 0 0-.12-.3z" class="I" transform-origin="202.304px 438.442px"/><path d="M129.66,410.67l-9.27-1.82a.3.3,0,0,0-.28.48l6.3,7.12Z" class="R" transform-origin="124.854px 412.649px"/><path d="M120.11,409.33a.3.3,0,0,1,.28-.48l1.81.36h0a1.57,1.57,0,0,0-.75,1.48v.16Z" class="I" transform-origin="121.124px 409.848px"/><path d="M167.5 440l-.76-.43-.92-.53-39.41-22.59a4.22 4.22 0 0 1 .26-3.08c.66-1.48 1.93-2.64 3-2.71l39.39 22.59 1.75 1c-1.18-.57-4.48 5.16-3.31 5.75z" class="E" transform-origin="148.521px 425.33px"/><path d="M164.6,438.36l-1.69-1c-.5-.27-.22-1.5.37-2.77.77-1.69,2.3-3.32,3-3l1.25.72.44.26c-.66-.35-2.19,1.28-3,3-.56,1.22-.84,2.41-.42,2.73h0Z" class="H" transform-origin="165.311px 434.955px"/><path d="M164.18,438.12c-1.16-.62,2.17-6.36,3.33-5.74l1.7,1c-1.16-.61-4.49,5.12-3.33,5.74Z" class="E" transform-origin="166.574px 435.727px"/><path d="M167.5 440l-1.68-1c-1.15-.59 2-6.15 3.23-5.79h.07l1.68 1c-1.17-.53-4.47 5.2-3.3 5.79z" class="H" transform-origin="168.186px 436.597px"/><path d="M120.07 409l.32-.16 6.73 3.69 41.3 23.69c.06-.11.12-.12.16 0-1 1.54-1.74 3.48-1.08 3.82l-.76-.43-.92-.53-39.41-22.59h0l-6.3-7.12a.31.31 0 0 1-.04-.37z" opacity=".15" transform-origin="144.303px 424.44px"/><path d="M174.61 444.08L167.5 440c-.5-.26-.23-1.47.35-2.74.77-1.69 2.28-3.34 3-3h0l7.14 4.08c1.41.82.11 3.9-1.47 5.27a1.7 1.7 0 0 1-1.91.47z" class="J" transform-origin="172.915px 439.207px"/><path d="M174.18 441.87a5.15 5.15 0 0 1 2.91-3.51 1.15 1.15 0 0 1 1.06.15c1.07 1-.18 3.81-1.67 5.11a1.71 1.71 0 0 1-1.84.47c-.53-.31-.73-1.09-.46-2.22z" class="Q" transform-origin="176.305px 441.24px"/><path d="M417.33 120.19v4.53s-1.74-1.59-1.84-2.74 1.84-1.79 1.84-1.79z" transform-origin="416.408px 122.455px"/><use href="#G" class="E" transform-origin="414.418px 130.48px"/><use href="#G" class="L" transform-origin="414.418px 130.48px"/><use href="#H" class="E" transform-origin="359.74px 186.261px"/><use href="#H" class="O" transform-origin="359.74px 186.261px"/><path d="M390.64,147.42l-5.1-5.73,26-15c3.93,3,6.95,4.55,10.47,3.07Z" class="P" transform-origin="403.775px 137.055px"/><path d="M410.27 123.58L314.2 68.12a6.61 6.61 0 0 0-6 0l-25.71 14.82 97.42 55.75s4.21-1.09 7.08 1.22 2.7-.62 2.7-.62l21.89-12.64c-1.78-2.39-1.31-3.07-1.31-3.07z" class="K" transform-origin="347.035px 104.099px"/><use href="#I" class="E" transform-origin="383.235px 232.87px"/><use href="#I" class="F" opacity=".25" transform-origin="383.235px 232.87px"/><use href="#J" class="E" transform-origin="326.83px 201.174px"/><use href="#J" class="F G" transform-origin="326.83px 201.174px"/><use href="#K" class="E" transform-origin="390.84px 236.238px"/><use href="#K" class="F G" transform-origin="390.84px 236.238px"/><use href="#L" class="E" transform-origin="411.44px 227.09px"/><g class="F" opacity=".7" transform-origin="411.44px 227.09px"><use href="#L" transform-origin="411.44px 227.09px"/></g><g class="N"><use href="#M" transform-origin="411.4px 163.32px"/><use href="#M" y="120.71" transform-origin="411.4px 284.03px"/></g><use href="#N" class="E" transform-origin="338.34px 113.592px"/><use href="#N" class="F" opacity=".6" transform-origin="338.34px 113.592px"/><use href="#O" class="E" transform-origin="368.961px 102.393px"/><use href="#O" class="F" opacity=".6" transform-origin="368.961px 102.393px"/></g><g id="B" class="B" transform-origin="355.88px 393.35px"><g transform-origin="355.88px 393.35px"><path class="E" d="M337.13 444.88l103.8-59.93-66.31-38.29-103.81 59.93 66.32 38.29z" transform-origin="355.87px 395.77px"/><g><path d="M337.13 444.88l103.8-59.93-66.31-38.29-103.81 59.93 66.32 38.29z" opacity=".15" transform-origin="355.87px 395.77px"/></g><path d="M387.65,414.12v-1.85c0-2.29,4.07-8.82,9.16-11.76L438,376.71V385Z" class="K" transform-origin="412.825px 395.415px"/><path d="M438 376.71l-41.23 23.81c-5.1 2.93-9.19 9.46-9.17 11.74v1.86l-63.38-36.62h0v-1.86c0-2.28 4.08-8.81 9.17-11.75l41.22-23.79h0z" class="N" transform-origin="381.11px 377.11px"/><path d="M438 376.71l-41.23 23.81c-5.1 2.93-9.19 9.46-9.17 11.74v1.86l-63.38-36.62h0v-1.86c0-2.28 4.08-8.81 9.17-11.75l41.24-23.8z" class="N" transform-origin="381.11px 377.105px"/><path d="M387.64 412.4l-3.95-2.29-5.2-3a10.2 10.2 0 0 1 6.4.93 5.35 5.35 0 0 1 2.75 4.36z" class="T" transform-origin="383.065px 409.674px"/><path d="M387.64 412.4l-3.95-2.29-5.2-3a10.2 10.2 0 0 1 6.4.93 5.35 5.35 0 0 1 2.75 4.36z" class="D" transform-origin="383.065px 409.674px"/><path class="E" d="M337.14 446.61l-.01-1.73-66.32-38.29v1.72l66.33 38.3z" transform-origin="303.975px 426.6px"/><g><path class="L" d="M337.14 446.61l-.01-1.73-66.32-38.29v1.72l66.33 38.3z" transform-origin="303.975px 426.6px"/></g><path class="E" d="M337.14 446.61l103.81-59.93-.02-1.73-103.8 59.93.01 1.73z" transform-origin="389.04px 415.78px"/><path d="M387.64 412.4c0-2.29-4.19-4.19-9.3-1.27l-41.22 23.62v8.54l50.53-29.17s.01.57-.01-1.72z" class="K" transform-origin="362.386px 426.467px"/><path class="H" d="M337.12 443.29v-8.54l-63.43-36.62v8.54l63.43 36.62z" transform-origin="305.405px 420.71px"/><path d="M378.35 411.13l-1.85 1.06-39.38 22.56-56-32.35-7.4-4.28 41.22-23.61c3.74-2.15 5.83-2 7.3-1.14h0l64.31 37.12c-2.36-1.31-5.06-1.03-8.2.64z" class="N" transform-origin="330.135px 403.765px"/><path class="D" d="M334.24 428.31l35.11-20.25 1.84-1.06 1.35.78-1.84 1.06-35.11 20.25-1.35-.78z" transform-origin="353.39px 418.045px"/><path class="D" d="M331 426.44l35.1-20.25 1.85-1.06 1.35.78-1.85 1.05-35.1 20.26-1.35-.78z" transform-origin="350.15px 416.175px"/><path class="D" d="M327.76 424.57l35.1-20.26 1.85-1.05 1.35.78-1.85 1.05-35.1 20.26-1.35-.78z" transform-origin="346.91px 414.305px"/><path class="D" d="M324.51 422.7l35.11-20.26 1.85-1.05 1.35.78-1.85 1.05-35.1 20.26-1.36-.78z" transform-origin="343.665px 412.435px"/><path class="D" d="M321.27 420.82l35.11-20.25 1.85-1.06 1.35.78-1.85 1.06-35.11 20.26-1.35-.79z" transform-origin="340.425px 410.56px"/><path class="D" d="M318.03 418.95l35.11-20.25 1.84-1.06 1.35.78-1.84 1.06-35.11 20.25-1.35-.78z" transform-origin="337.18px 408.685px"/><path class="D" d="M314.79 417.08l35.1-20.25 1.85-1.06 1.35.78-1.84 1.06-35.11 20.25-1.35-.78z" transform-origin="333.94px 406.815px"/><path class="D" d="M311.55 415.21l35.1-20.26 1.85-1.05 1.35.78-1.85 1.06-35.1 20.25-1.35-.78z" transform-origin="330.7px 404.945px"/><path class="D" d="M308.31 413.34l35.1-20.26 1.85-1.05 1.35.78-1.85 1.05-35.1 20.26-1.35-.78z" transform-origin="327.46px 403.075px"/><path class="D" d="M305.06 411.47l35.11-20.26 1.85-1.05 1.35.78-1.85 1.05-35.1 20.26-1.36-.78z" transform-origin="324.215px 401.205px"/><path class="D" d="M301.82 409.6l35.11-20.26 1.84-1.06 1.36.78-1.85 1.06-35.11 20.26-1.35-.78z" transform-origin="320.975px 399.33px"/><path class="D" d="M298.58 407.72l35.11-20.25 1.84-1.06 1.35.78-1.84 1.06-35.11 20.25-1.35-.78z" transform-origin="317.73px 397.455px"/><path class="D" d="M295.34 405.85l35.1-20.25 1.85-1.06 1.35.78-1.85 1.06-35.1 20.25-1.35-.78z" transform-origin="314.49px 395.585px"/><path class="D" d="M292.1 403.98l35.1-20.25 1.85-1.06 1.35.78-1.85 1.05-35.1 20.26-1.35-.78z" transform-origin="311.25px 393.715px"/><path class="D" d="M288.86 402.11l35.1-20.26 1.85-1.05 1.35.78-1.85 1.05-35.1 20.26-1.35-.78z" transform-origin="308.01px 391.845px"/><path class="D" d="M285.61 400.24l35.11-20.26 1.85-1.05 1.35.78-1.85 1.05-35.11 20.26-1.35-.78z" transform-origin="304.765px 389.975px"/><path class="D" d="M282.37 398.37l35.11-20.26 1.84-1.06 1.36.78-1.85 1.06-35.11 20.26-1.35-.78z" transform-origin="301.525px 388.1px"/><g><path d="M378.74 408.92c-.76.07-2.38.59-3.26.79-3.75.85-10.37 3.86-16.7 7-8.46 4.23-16.43 8.75-16.43 8.75l-58-33.46 30.59-17.53a13.17 13.17 0 0 1 3.78-1.57 8.2 8.2 0 0 1 2.65.91l.41-.71a4 4 0 0 1 .46.23l64.31 37.12a10.42 10.42 0 0 0-7.81-1.53z" class="Q" transform-origin="335.45px 399.18px"/></g><path class="S" d="M337.08 436.61l6.3-3.19-6.26 3.81-6.28-3.63 6.24 3.01z" transform-origin="337.11px 435.325px"/><path class="S" d="M337.13 440.89l11.54-6.66-11.54 6.21-12.97-7.05 12.97 7.5z" transform-origin="336.415px 437.14px"/><path class="S" d="M273.69 400.01l9.7 5.85-9.7-4.95v-.9z" transform-origin="278.54px 402.935px"/><path class="S" d="M273.7 403.35l14.41 8.8-14.42-8.01.01-.79z" transform-origin="280.9px 407.75px"/><path d="M378.49 407.1a21.81 21.81 0 0 0-2.48.42c-3.75.84-10.36 3.86-16.69 7-8.46 4.23-16.43 8.75-16.43 8.75l-63.47-36.6S303.57 372.81 313 371c4.45-.86 7.18-.26 8.84.68h0l63 36.38a10.2 10.2 0 0 0-6.35-.96z" class="K" transform-origin="332.13px 396.928px"/><path d="M377.69 403.87a10.23 10.23 0 0 0-6.41-.93 21.29 21.29 0 0 0-2.47.42 60.52 60.52 0 0 0-10.36 4l-6.33 3.06c-5.1 2.55-10 5.2-13.12 6.91l1.45.83c3.1-1.71 8-4.36 13.11-6.91l6.33-3.06a61.38 61.38 0 0 1 10.36-4 21.66 21.66 0 0 1 2.47-.42 10.3 10.3 0 0 1 6.41.93z" class="D" transform-origin="359.065px 410.469px"/><path d="M374.44 402a10.37 10.37 0 0 0-6.41-.93 24.31 24.31 0 0 0-2.47.43 60 60 0 0 0-10.36 4l-6.33 3c-5.09 2.55-10 5.2-13.11 6.91l1.44.83c3.1-1.7 8-4.36 13.11-6.91 2.12-1.06 4.27-2.1 6.33-3.05a60.84 60.84 0 0 1 10.36-4 24 24 0 0 1 2.48-.43 10.34 10.34 0 0 1 6.4.93z" class="D" transform-origin="355.82px 408.577px"/><path d="M371.19 400.12a10.2 10.2 0 0 0-6.4-.93 21.81 21.81 0 0 0-2.48.42 61.16 61.16 0 0 0-10.36 4l-6.33 3.06c-5.09 2.55-10 5.2-13.11 6.91l1.44.83c3.11-1.71 8-4.36 13.11-6.91l6.33-3.06a61.16 61.16 0 0 1 10.36-4 21.81 21.81 0 0 1 2.48-.42 10.38 10.38 0 0 1 6.41.93z" class="D" transform-origin="352.575px 406.719px"/><path d="M368 398.24a10.38 10.38 0 0 0-6.41-.93 23.84 23.84 0 0 0-2.47.43 60 60 0 0 0-10.37 4l-6.33 3c-5.09 2.55-10 5.2-13.11 6.91l1.44.83c3.11-1.7 8-4.36 13.12-6.91a201.35 201.35 0 0 1 6.33-3.05 60.52 60.52 0 0 1 10.36-4 21.29 21.29 0 0 1 2.47-.42 10.31 10.31 0 0 1 6.41.92z" class="D" transform-origin="349.375px 404.817px"/><path d="M364.7 396.37a10.23 10.23 0 0 0-6.41-.93 21.29 21.29 0 0 0-2.47.42 60.52 60.52 0 0 0-10.36 4l-6.33 3.06c-5.1 2.55-10 5.2-13.12 6.91l1.45.83c3.1-1.71 8-4.36 13.11-6.91l6.33-3.06a61.71 61.71 0 0 1 10.36-4 21.66 21.66 0 0 1 2.47-.42 10.37 10.37 0 0 1 6.41.93z" class="D" transform-origin="346.075px 402.969px"/><path d="M361.45 394.49a10.34 10.34 0 0 0-6.4-.93 24 24 0 0 0-2.48.43 60 60 0 0 0-10.36 4l-6.33 3c-5.09 2.55-10 5.2-13.11 6.91l1.44.83c3.1-1.7 8-4.36 13.11-6.91 2.12-1.06 4.27-2.1 6.33-3.05a60.84 60.84 0 0 1 10.36-4 21.81 21.81 0 0 1 2.48-.42 10.28 10.28 0 0 1 6.4.92z" class="D" transform-origin="342.83px 401.067px"/><path d="M358.2 392.62a10.2 10.2 0 0 0-6.4-.93 21.81 21.81 0 0 0-2.48.42 61.16 61.16 0 0 0-10.36 4l-6.33 3.06c-5.09 2.55-10 5.2-13.11 6.91l1.44.83c3.11-1.71 8-4.36 13.11-6.91l6.33-3.06a61.75 61.75 0 0 1 10.37-4 23.67 23.67 0 0 1 2.47-.42 10.38 10.38 0 0 1 6.41.93z" class="D" transform-origin="339.585px 399.219px"/><path d="M355 390.74a10.38 10.38 0 0 0-6.41-.93 23.84 23.84 0 0 0-2.47.43 60.89 60.89 0 0 0-10.37 4l-6.33 3c-5.09 2.55-10 5.2-13.11 6.91l1.44.83c3.11-1.7 8-4.36 13.12-6.91a201.35 201.35 0 0 1 6.33-3.05 60.52 60.52 0 0 1 10.36-4 21.29 21.29 0 0 1 2.47-.42 10.31 10.31 0 0 1 6.41.92z" class="D" transform-origin="336.375px 397.317px"/><path d="M346.75 388.77a23.83 23.83 0 0 0-2.48.42c-3.75.85-10.36 3.87-16.69 7-5.09 2.55-10 5.2-13.11 6.91l-1.45-.83c3.11-1.71 8-4.36 13.12-6.91 6.33-3.18 12.94-6.19 16.69-7a21.66 21.66 0 0 1 2.47-.42 10.23 10.23 0 0 1 6.41.93l1.44.83a10.34 10.34 0 0 0-6.4-.93z" class="D" transform-origin="333.085px 395.439px"/><path d="M343.5 386.9a21.81 21.81 0 0 0-2.48.42c-3.75.84-10.36 3.86-16.69 7-5.09 2.55-10 5.21-13.11 6.91l-1.44-.83c3.1-1.71 8-4.36 13.11-6.91 6.33-3.17 12.94-6.19 16.69-7a24 24 0 0 1 2.48-.43 10.34 10.34 0 0 1 6.4.93l1.44.83a10.28 10.28 0 0 0-6.4-.92z" class="D" transform-origin="329.84px 393.567px"/><path d="M340.25 385a21.44 21.44 0 0 0-2.47.43c-3.75.84-10.36 3.86-16.7 7-5.09 2.55-10 5.2-13.11 6.91l-1.44-.83c3.11-1.71 8-4.36 13.11-6.91 6.33-3.17 12.95-6.19 16.69-7a21.81 21.81 0 0 1 2.48-.42 10.24 10.24 0 0 1 6.41.93l1.44.83a10.38 10.38 0 0 0-6.41-.94z" class="D" transform-origin="326.595px 391.679px"/><path d="M337 383.15a21.66 21.66 0 0 0-2.47.42c-3.75.84-10.36 3.86-16.69 7-5.1 2.55-10 5.21-13.12 6.91l-1.44-.83c3.11-1.71 8-4.36 13.11-6.91 6.34-3.17 12.95-6.19 16.7-7a23.84 23.84 0 0 1 2.47-.43 10.37 10.37 0 0 1 6.41.93l1.44.83a10.31 10.31 0 0 0-6.41-.92z" class="D" transform-origin="323.345px 389.817px"/><path d="M333.76 381.27a21.59 21.59 0 0 0-2.48.43c-3.75.84-10.36 3.86-16.69 7-5.09 2.55-10 5.2-13.11 6.91l-1.44-.83c3.1-1.71 8-4.36 13.11-6.91 6.33-3.17 12.94-6.19 16.69-7a21.66 21.66 0 0 1 2.47-.42 10.3 10.3 0 0 1 6.41.93l1.44.83a10.34 10.34 0 0 0-6.4-.94z" class="D" transform-origin="320.1px 387.951px"/><path d="M330.51 379.4a21.81 21.81 0 0 0-2.48.42c-3.75.84-10.36 3.86-16.69 7-5.09 2.55-10 5.2-13.11 6.9l-1.44-.83c3.1-1.71 8-4.36 13.11-6.91 6.33-3.17 12.94-6.19 16.69-7a24 24 0 0 1 2.48-.43 10.34 10.34 0 0 1 6.4.93l1.44.83a10.28 10.28 0 0 0-6.4-.91z" class="D" transform-origin="316.85px 386.057px"/><path d="M327.26 377.52a21.44 21.44 0 0 0-2.47.43c-3.75.84-10.36 3.86-16.7 7-5.09 2.55-10 5.2-13.11 6.91l-1.44-.83c3.11-1.71 8-4.36 13.11-6.91 6.33-3.17 13-6.19 16.69-7a21.81 21.81 0 0 1 2.48-.42 10.31 10.31 0 0 1 6.41.93l1.44.83a10.38 10.38 0 0 0-6.41-.94z" class="D" transform-origin="313.605px 384.201px"/><path d="M324 375.65a21.66 21.66 0 0 0-2.47.42c-3.75.84-10.36 3.86-16.69 7-5.1 2.55-10 5.2-13.12 6.9l-1.44-.83c3.11-1.71 8-4.36 13.12-6.91 6.33-3.17 12.94-6.19 16.69-7a23.84 23.84 0 0 1 2.47-.43 10.37 10.37 0 0 1 6.41.93l1.44.83a10.31 10.31 0 0 0-6.41-.91z" class="D" transform-origin="310.345px 382.307px"/><path d="M320.77 373.77a21.59 21.59 0 0 0-2.48.43c-3.75.84-10.36 3.86-16.69 7-5.09 2.55-10 5.2-13.11 6.91l-1.44-.83c3.1-1.71 8-4.36 13.11-6.91 6.33-3.17 12.94-6.19 16.69-7a21.66 21.66 0 0 1 2.47-.42 10.3 10.3 0 0 1 6.41.93l1.44.83a10.34 10.34 0 0 0-6.4-.94z" class="D" transform-origin="307.11px 380.451px"/><path d="M390.87,397.09a20.65,20.65,0,0,0-5.13,4.39l-1.32-.76a20.65,20.65,0,0,1,5.13-4.39l37-21.29,1.32.76Z" class="D" transform-origin="406.145px 388.26px"/><path d="M390.87,397.09a20.65,20.65,0,0,0-5.13,4.39l-1.32-.76a20.65,20.65,0,0,1,5.13-4.39l37-21.29,1.32.76Z" class="D" transform-origin="406.145px 388.26px"/><path d="M387.63,395.22a20.7,20.7,0,0,0-5.14,4.39l-1.32-.76a20.66,20.66,0,0,1,5.14-4.39l37-21.29,1.31.76Z" class="D" transform-origin="402.895px 386.39px"/><path d="M384.38,393.35a20.62,20.62,0,0,0-5.13,4.39l-1.32-.76a20.66,20.66,0,0,1,5.13-4.4l37-21.29,1.32.77Z" class="D" transform-origin="399.655px 384.515px"/><path d="M381.14,391.47a20.71,20.71,0,0,0-5.14,4.4l-1.31-.77a20.65,20.65,0,0,1,5.13-4.39l37-21.29,1.32.76Z" class="D" transform-origin="396.415px 382.645px"/><path d="M377.9,389.6a20.7,20.7,0,0,0-5.14,4.39l-1.32-.76a20.7,20.7,0,0,1,5.14-4.39l36.95-21.29,1.32.76Z" class="D" transform-origin="393.145px 380.77px"/><path d="M374.65,387.73a20.83,20.83,0,0,0-5.13,4.39l-1.32-.76a20.62,20.62,0,0,1,5.13-4.39l37-21.29,1.32.76Z" class="D" transform-origin="389.925px 378.9px"/><path d="M371.41,385.85a20.71,20.71,0,0,0-5.14,4.4l-1.32-.76a20.71,20.71,0,0,1,5.14-4.4l37-21.29,1.32.77Z" class="D" transform-origin="386.68px 377.025px"/><path d="M368.16,384a20.66,20.66,0,0,0-5.13,4.4l-1.32-.77a20.7,20.7,0,0,1,5.14-4.39l36.95-21.29,1.32.76Z" class="D" transform-origin="383.415px 375.175px"/><path d="M364.92,382.11a20.65,20.65,0,0,0-5.13,4.39l-1.32-.76a20.83,20.83,0,0,1,5.13-4.39l37-21.29,1.32.76Z" class="D" transform-origin="380.195px 373.28px"/><path d="M361.68,380.24a20.66,20.66,0,0,0-5.14,4.39l-1.32-.76a20.46,20.46,0,0,1,5.14-4.39l37-21.29,1.32.76Z" class="D" transform-origin="376.95px 371.41px"/><path d="M358.43,378.36a20.66,20.66,0,0,0-5.13,4.4L352,382a20.66,20.66,0,0,1,5.13-4.4l37-21.29,1.32.76Z" class="D" transform-origin="373.725px 369.535px"/><path d="M355.19,376.49a20.48,20.48,0,0,0-5.13,4.4l-1.32-.77a20.65,20.65,0,0,1,5.13-4.39l37-21.29,1.32.76Z" class="D" transform-origin="370.465px 367.665px"/><path d="M352,374.62a20.7,20.7,0,0,0-5.14,4.39l-1.32-.76a20.66,20.66,0,0,1,5.14-4.39l37-21.29,1.31.76Z" class="D" transform-origin="367.265px 365.79px"/><path d="M348.7,372.75a20.62,20.62,0,0,0-5.13,4.39l-1.32-.76a20.66,20.66,0,0,1,5.13-4.4l37-21.29,1.32.77Z" class="D" transform-origin="363.975px 363.915px"/><path d="M345.46,370.87a20.71,20.71,0,0,0-5.14,4.4l-1.31-.76a20.48,20.48,0,0,1,5.13-4.4l37-21.29,1.32.76Z" class="D" transform-origin="360.735px 362.045px"/><path d="M342.22,369a20.7,20.7,0,0,0-5.14,4.39l-1.32-.76a20.7,20.7,0,0,1,5.14-4.39l37-21.29,1.32.76Z" class="D" transform-origin="357.49px 360.17px"/><path d="M339,367.13a20.83,20.83,0,0,0-5.13,4.39l-1.32-.76a20.62,20.62,0,0,1,5.13-4.39l37-21.29,1.32.76Z" class="D" transform-origin="354.275px 358.3px"/><path class="S" d="M429.39 383.98l8.64-4.56.01-.71-8.65 5.27z" transform-origin="433.715px 381.345px"/><path class="S" d="M438.04 381.96l-14.41 8.06 14.41-8.58v.52z" transform-origin="430.835px 385.73px"/><g><path d="M289.31 381.28C297.1 377.17 307.54 372 313 371c4.45-.86 7.18-.26 8.84.68h0l63 36.38a10.2 10.2 0 0 0-6.4-.93s-31.19-19-51.33-25.52a64.9 64.9 0 0 0-37.8-.33z" opacity=".02" transform-origin="337.075px 389.323px"/></g></g></g><g id="C" class="B" transform-origin="240.02px 230.886px"><g transform-origin="233.731px 319.038px"><path d="M104.84 348.21l4.42-2.36-4-1a3 3 0 0 0-.42 3.36z" class="E" transform-origin="106.884px 346.53px"/><g><path d="M104.84 348.21l4.42-2.36-4-1a3 3 0 0 0-.42 3.36z" opacity=".5" transform-origin="106.884px 346.53px"/></g><path d="M221.94,407.18a9.92,9.92,0,0,1-9,0L112,348.91,263.11,263.1l3.53-2,100.92,56.85c2.47,1.44,2.47,3.77,0,5.19Z" class="E" transform-origin="240.706px 334.68px"/><path d="M184.05,298.53l-35.19,20.25-22.79-13.15-26.5,15.31v17.69c0,2.31,2.59,5.61,3.54,5.07a26.06,26.06,0,0,1,5.07,1.79c3,1.38,7.31,5.42,7.31,5.42l80.87-45.28Z" class="E" transform-origin="147.965px 324.72px"/><g><path d="M184.05,298.53l-35.19,20.25-22.79-13.15-26.5,15.31v17.69c0,2.31,2.59,5.61,3.54,5.07a26.06,26.06,0,0,1,5.07,1.79c3,1.38,7.31,5.42,7.31,5.42l80.87-45.28Z" opacity=".15" transform-origin="147.965px 324.72px"/></g><path d="M114.11,323.07v19.19l-.31-.19a9.07,9.07,0,0,0-4.31-1.34,4.51,4.51,0,0,0-2.84.66V318.76Z" class="M" transform-origin="110.38px 330.51px"/><path d="M119.06 348.86a5.89 5.89 0 0 0-1.27-3.27 10.42 10.42 0 0 0-1.24-1.43l-.42-.4-.56-.47-.46-.35-1-.67v-19.11L119 326v-.09z" class="D" transform-origin="116.585px 336.01px"/><g><path d="M99.57,338.63c0,2.31,2.59,5.61,3.54,5.07h0l3.54-2.3V326.8l-3.55-6.1-1.93-.69-1.6.93Z" class="G" transform-origin="103.11px 331.884px"/></g><path d="M217.45 382.73v21.91a6 6 0 0 1-3-.71l-11.08-6.39-84.32-48.68v-22.95z" class="H" transform-origin="168.25px 365.276px"/><path d="M365 300.44V317a6.67 6.67 0 0 1-3 5.19l-130.5 75.35-11.06 6.39a6 6 0 0 1-3 .71V385.2z" class="K" transform-origin="291.22px 352.541px"/><path d="M263.11 234.63L112 321.86v2c0 1.12-1.57 1.54-3.51.41s-3.53-2.52-3.53-4.46l-.19-1.92 153.93-88.86.62-.36a2 2 0 0 1 .26.93v.93c.03 1.16 1.59 2.96 3.53 4.1z" class="E" transform-origin="183.94px 276.803px"/><g><path d="M263.11 234.63L112 321.86v2c0 1.12-1.57 1.54-3.51.41s-3.53-2.52-3.53-4.46l-.19-1.92 153.93-88.86.62-.36a2 2 0 0 1 .26.93v.93c.03 1.16 1.59 2.96 3.53 4.1z" class="Q" transform-origin="183.94px 276.803px"/></g><path d="M213 380.14l-98.68-57c-1.26-.66-2.4-1.19-2.88-.94l.64-.36 151.08-87.23 1.76-1c1-.56 3.11-.25 4.76.71l97.93 56.54c2.47 1.44 2.47 3.77 0 5.19l-145.67 84.09a10 10 0 0 1-8.94 0z" class="E" transform-origin="240.451px 307.263px"/><path d="M259.35 228.7l-.62.36-153.93 88.86a1.17 1.17 0 0 0-.33-.42l-.52-.29-1.11-.64-1.36-.8a1.41 1.41 0 0 0-1.75.16.43.43 0 0 0-.17.16 2.65 2.65 0 0 0-.47.64 4.53 4.53 0 0 0-.4.86 9.74 9.74 0 0 0-.31 1l-.23 1.18a5.51 5.51 0 0 0-.08.71v.57 1.35-4.32c0-2.39 2-5.49 4.49-6.93l145.63-84.08c2.49-1.44 6.07-1.68 8-.57l1.83 1.07h.07c.12.08.44.26.78.45h0a1.56 1.56 0 0 1 .48.68z" class="E" transform-origin="178.71px 274.102px"/><path d="M213 407.18l-6.09-3.53-91.42-52.75a5.84 5.84 0 0 0-1.24-3.27 13.27 13.27 0 0 0-4-3.51 9 9 0 0 0-4.31-1.35 4.59 4.59 0 0 0-2.84.93 15.87 15.87 0 0 1-1.67-7.56H98c0 4.77 1.57 9.57 3.51 10.67l1.75 1c1 .57 1.76.6 1.76.06V347c0-1 1.57-1 3.53.14S112 350 112 351v1c0 .54 1.35 1.73 3 2.69l88.36 51 9.57 5.52h0a9.3 9.3 0 0 0 4.48 1.06v-4a9.08 9.08 0 0 1-4.41-1.09z" class="E" transform-origin="157.705px 374.206px"/><g><path d="M213 407.18l-6.09-3.53-91.42-52.75a5.84 5.84 0 0 0-1.24-3.27 13.27 13.27 0 0 0-4-3.51 9 9 0 0 0-4.31-1.35 4.59 4.59 0 0 0-2.84.93 15.87 15.87 0 0 1-1.67-7.56H98c0 4.77 1.57 9.57 3.51 10.67l1.75 1c1 .57 1.76.6 1.76.06V347c0-1 1.57-1 3.53.14S112 350 112 351v1c0 .54 1.35 1.73 3 2.69l88.36 51 9.57 5.52h0a9.3 9.3 0 0 0 4.48 1.06v-4a9.08 9.08 0 0 1-4.41-1.09z" class="L" transform-origin="157.705px 374.206px"/></g><path d="M213 380.15h0l-6.09-3.53-70.24-40.52-22.41-12.94c-1.59-.93-2.89-1.26-3-.78a.07.07 0 0 0 0 .06v1c0 1.12-1.57 1.12-3.51 0S105 321 105 319.93v-1.11a1.61 1.61 0 0 0-.52-1.32l-.52-.29-1.11-.64-1.36-.8a1.41 1.41 0 0 0-1.75.16.43.43 0 0 0-.17.16 1.77 1.77 0 0 0-.31.41.94.94 0 0 0-.16.23 4.53 4.53 0 0 0-.4.86 9.74 9.74 0 0 0-.31 1l-.23 1.18a5.51 5.51 0 0 0-.08.71v.57 1.35 13.74h3.46V322.4v-1.07l.09-.87a.22.22 0 0 1 0-.08c.31 2.75 3 5.2 5.23 6.5a8.63 8.63 0 0 0 4.14 1.32 4.66 4.66 0 0 0 3.1-1.15l.31.18.6.36 88.36 51 9.57 5.52a0 0 0 0 1 0 0h.07a9.31 9.31 0 0 0 4.41 1v-4a9.24 9.24 0 0 1-4.42-.96z" class="E" transform-origin="157.75px 350.325px"/><g><path d="M213 380.15h0l-6.09-3.53-70.24-40.52-22.41-12.94c-1.59-.93-2.89-1.26-3-.78a.07.07 0 0 0 0 .06v1c0 1.12-1.57 1.12-3.51 0S105 321 105 319.93v-1.11a1.61 1.61 0 0 0-.52-1.32l-.52-.29-1.11-.64-1.36-.8a1.41 1.41 0 0 0-1.75.16.43.43 0 0 0-.17.16 1.77 1.77 0 0 0-.31.41.94.94 0 0 0-.16.23 4.53 4.53 0 0 0-.4.86 9.74 9.74 0 0 0-.31 1l-.23 1.18a5.51 5.51 0 0 0-.08.71v.57 1.35 13.74h3.46V322.4v-1.07l.09-.87a.22.22 0 0 1 0-.08c.31 2.75 3 5.2 5.23 6.5a8.63 8.63 0 0 0 4.14 1.32 4.66 4.66 0 0 0 3.1-1.15l.31.18.6.36 88.36 51 9.57 5.52a0 0 0 0 1 0 0h.07a9.31 9.31 0 0 0 4.41 1v-4a9.24 9.24 0 0 1-4.42-.96z" class="L" transform-origin="157.75px 350.325px"/></g><path d="M369.41 293.41v4.06a3.1 3.1 0 0 1-1.78 2.56h-.07L231.5 378.62l-9.5 5.52h0a9.32 9.32 0 0 1-4.48 1.06v-4a9.08 9.08 0 0 0 4.5-1.07l6.07-3.51h0l139.52-80.58a3.07 3.07 0 0 0 1.8-2.63z" class="E" transform-origin="293.465px 339.306px"/><g><path d="M369.41 293.41v4.06a3.1 3.1 0 0 1-1.78 2.56h-.07L231.5 378.62l-9.5 5.52h0a9.32 9.32 0 0 1-4.48 1.06v-4a9.08 9.08 0 0 0 4.5-1.07l6.07-3.51h0l139.52-80.58a3.07 3.07 0 0 0 1.8-2.63z" class="O" transform-origin="293.465px 339.306px"/></g><path d="M369.41 320.45v4.06a3.1 3.1 0 0 1-1.78 2.56h-.07L231.5 405.66l-9.5 5.52h0a9.32 9.32 0 0 1-4.48 1.06v-4a9.08 9.08 0 0 0 4.5-1.07l6.07-3.51h0l139.52-80.58a3.07 3.07 0 0 0 1.8-2.63z" class="E" transform-origin="293.465px 366.346px"/><g><path d="M369.41 320.45v4.06a3.1 3.1 0 0 1-1.78 2.56h-.07L231.5 405.66l-9.5 5.52h0a9.32 9.32 0 0 1-4.48 1.06v-4a9.08 9.08 0 0 0 4.5-1.07l6.07-3.51h0l139.52-80.58a3.07 3.07 0 0 0 1.8-2.63z" class="O" transform-origin="293.465px 366.346px"/></g></g><g transform-origin="244.335px 277.348px"><path class="E" d="M104.8 303.91l118 67.21 156.93-90.06-117.99-67.22-156.94 90.07z" transform-origin="242.265px 292.48px"/><g class="F"><path class="O" d="M104.8 303.91l118 67.21 156.93-90.06-117.99-67.22-156.94 90.07z" transform-origin="242.265px 292.48px"/></g><path d="M223.88 367l-114.64-65.64q3.6-10.19-.49-23.76l114.05 65.09s1.74 5.73 1.08 24.31z" class="K" transform-origin="166.39px 322.3px"/><path d="M218.12,335.26c4.87,2.79,8.81,9.58,8.81,15.16v17.71c0,5.58-3.94,7.84-8.81,5.05L104.81,308.3v-4.39l112.11,63.87c2.92,1.67,5.28.32,5.27-3l-.08-16.41a11.59,11.59,0,0,0-5.29-9.1l-112-63.89v-5Z" class="E" transform-origin="165.87px 322.378px"/><g class="F"><path d="M218.12,335.26c4.87,2.79,8.81,9.58,8.81,15.16v17.71c0,5.58-3.94,7.84-8.81,5.05L104.81,308.3v-4.39l112.11,63.87c2.92,1.67,5.28.32,5.27-3l-.08-16.41a11.59,11.59,0,0,0-5.29-9.1l-112-63.89v-5Z" class="G" transform-origin="165.87px 322.378px"/></g><path d="M104.81 270.39l156.93-90.07 113.31 64.89c4.86 2.78 8.8 9.58 8.8 15.15v17.72c0 2.78-1 4.74-2.58 5.65l-156.93 90.06c1.6-.91 2.58-2.87 2.58-5.65v-17.73c0-5.57-3.95-12.36-8.81-15.15z" class="E" transform-origin="244.33px 277.055px"/><g class="F"><path d="M104.81 270.39l156.93-90.07 113.31 64.89c4.86 2.78 8.8 9.58 8.8 15.15v17.72c0 2.78-1 4.74-2.58 5.65l-156.93 90.06c1.6-.91 2.58-2.87 2.58-5.65v-17.73c0-5.57-3.95-12.36-8.81-15.15z" opacity=".85" transform-origin="244.33px 277.055px"/></g><path d="M224.36 341.79a17.85 17.85 0 0 1 2.58 8.62v17.73c0 2.78-1 4.74-2.58 5.65l156.93-90.06c1.6-.91 2.58-2.87 2.58-5.65v-17.72a17.82 17.82 0 0 0-2.58-8.62z" class="E" transform-origin="304.115px 312.765px"/><g class="F"><path d="M224.36 341.79a17.85 17.85 0 0 1 2.58 8.62v17.73c0 2.78-1 4.74-2.58 5.65l156.93-90.06c1.6-.91 2.58-2.87 2.58-5.65v-17.72a17.82 17.82 0 0 0-2.58-8.62z" opacity=".6" transform-origin="304.115px 312.765px"/></g><path d="M360.59,263.49c2.85,12.39,2.81,23.1,0,32.19l-7.29,4.21c2.81-9.09,2.85-19.8,0-32.2Z" class="F" transform-origin="358.006px 281.69px"/><path d="M256.35,323.66c2.86,12.4,2.82,23.11,0,32.2l-7.29,4.2c2.82-9.09,2.86-19.79,0-32.19Z" class="F" transform-origin="253.77px 341.86px"/></g><g transform-origin="229.761px 248.388px"><path d="M198.17 336.05l3.83-2.2s-2.2-.7-3.21-.23-.62 2.43-.62 2.43z" transform-origin="200.048px 334.754px"/><path d="M195.54,333.64a4.64,4.64,0,0,1,6.83,0c3.72,3.42,3.91,6.81,5.45,6.75s1.52-19.73,1.52-19.73l-14.68,6.08Z" class="E" transform-origin="202px 330.525px"/><g><path d="M195.54,333.64a4.64,4.64,0,0,1,6.83,0c3.72,3.42,3.91,6.81,5.45,6.75s1.52-19.73,1.52-19.73l-14.68,6.08Z" class="L" transform-origin="202px 330.525px"/></g><path d="M356.27 238.5l.24-.14-9.26-5.36-92.06-53.51-156.84 90.59c-2.44 1.41-2.88 3.44-1 4.54l3.45 2 94.69 54.69.67-.49z" class="E" transform-origin="226.348px 255.4px"/><g><path d="M356.27 238.5l.24-.14-9.26-5.36-92.06-53.51-156.84 90.59c-2.44 1.41-2.88 3.44-1 4.54l3.45 2 94.69 54.69.67-.49z" class="O" transform-origin="226.348px 255.4px"/></g><path d="M208.16,307.76l-7.33-1.52V328c4.43,1.88,7.24,3.66,7.71,7.36Z" class="P" transform-origin="204.685px 320.8px"/><path d="M197.58 328.42l-93.8-54.15a6.52 6.52 0 0 1-3-5.11v-21.37L195.54 303s1.13 4.09 4.49 5.38.8 2.6.8 2.6V328c-2.9-.31-3.25.42-3.25.42z" class="K" transform-origin="151.272px 288.105px"/><path d="M206.23,306.75c-1-.56-1.73-.59-1.74-.06v.91c0,1-1.55,1-3.48-.13s-3.47-2.82-3.47-3.84v-.93c0-.52-1.31-1.7-2.92-2.63l152.61-87.45,2.37,1.38a2.23,2.23,0,0,1,.58,1.26v.92c0,1,1.55,2.74,3.45,3.84s3.47,1.16,3.47.14v-.92c0-.53.77-.49,1.74.07Z" class="E" transform-origin="276.73px 260.477px"/><g><path d="M206.23,306.75c-1-.56-1.73-.59-1.74-.06v.91c0,1-1.55,1-3.48-.13s-3.47-2.82-3.47-3.84v-.93c0-.52-1.31-1.7-2.92-2.63l152.61-87.45,2.37,1.38a2.23,2.23,0,0,1,.58,1.26v.92c0,1,1.55,2.74,3.45,3.84s3.47,1.16,3.47.14v-.92c0-.53.77-.49,1.74.07Z" class="G" transform-origin="276.73px 260.477px"/></g><path d="M349.37,214.14l.24-.14-2.36-1.37L246,154.15,98.35,239.39c-2.44,1.41-2.88,3.44-1,4.53l3.45,2,94.71,57Z" class="E" transform-origin="222.898px 228.535px"/><g><path d="M349.37,214.14l.24-.14-2.36-1.37L246,154.15,98.35,239.39c-2.44,1.41-2.88,3.44-1,4.53l3.45,2,94.71,57Z" class="O" transform-origin="222.898px 228.535px"/></g><path d="M357.14,218.35l-152.49,88,5.34,4.17,152-87.75a5.87,5.87,0,0,0-2-2.84Z" class="E" transform-origin="283.32px 264.435px"/><g><path d="M357.14,218.35l-152.49,88,5.34,4.17,152-87.75a5.87,5.87,0,0,0-2-2.84Z" class="O" transform-origin="283.32px 264.435px"/></g><path d="M361.39 254.66a2.43 2.43 0 0 0 .28-.2.57.57 0 0 0 .17-.15 2.06 2.06 0 0 0 .3-.41 1.07 1.07 0 0 0 .15-.22 4.73 4.73 0 0 0 .4-.85 9.54 9.54 0 0 0 .3-1l.22-1.15a5.36 5.36 0 0 0 .09-.7c0-.19 0-.36.05-.56v-1.33-17.61a21 21 0 0 0-1.35-7.68l-152 87.76-.65 31.9 152-87.77z" class="E" transform-origin="286.351px 282.63px"/><path d="M231.09 298.38l18.32-10.58c2.79 14 3.19 19.62 0 31.53l-18.32 10.58c3.19-11.91 2.79-17.51 0-31.53z" class="E" transform-origin="241.372px 308.855px"/><g class="F"><path d="M231.09 298.38l18.32-10.58c1.11 14.41 1.13 20.09 0 31.53l-18.32 10.58c1.12-13.63.96-18.77 0-31.53z" class="G" transform-origin="240.67px 308.855px"/></g><path d="M256.2 283.88l6.83-3.95c2.79 14 3.19 19.62 0 31.53l-6.83 3.94c3.19-11.9 2.8-17.5 0-31.52z" class="E" transform-origin="260.738px 297.665px"/><g class="F"><path d="M256.2 283.88l6.83-3.95a164.19 164.19 0 0 1 0 31.53l-6.83 3.94a140.75 140.75 0 0 0 0-31.52z" class="G" transform-origin="259.994px 297.665px"/></g><g class="F"><path d="M339 236.05l6.83-3.94a165 165 0 0 1 0 31.53l-6.83 3.94a140.84 140.84 0 0 0 0-31.53z" class="G" transform-origin="342.792px 249.845px"/></g><path d="M211.39 318.25H208a15.41 15.41 0 0 0-1.65-7.43 4.49 4.49 0 0 1-2.79.92 8.89 8.89 0 0 1-4.23-1.33 13 13 0 0 1-3.93-3.45c-.07-.11-.16-.21-.21-.31a5.57 5.57 0 0 1-1-2.91l-89.84-51.87-3-1.77-3.9-2.24a2.06 2.06 0 0 1-1.19-1.76v-4a2.11 2.11 0 0 0 1.19 1.81h.05l10.31 5.94 86.88 50.17c1.62.93 2.94 2.11 2.94 2.63v.92a2.83 2.83 0 0 0 .8 1.62 10 10 0 0 0 2.66 2.23c1.92 1.1 3.47 1.15 3.47.13v-.92c0-.52.76-.49 1.73.07l1.72 1c1.84 1.14 3.38 5.86 3.38 10.55z" class="E" transform-origin="153.825px 280.175px"/><g><path d="M211.39 318.25H208a15.41 15.41 0 0 0-1.65-7.43 4.49 4.49 0 0 1-2.79.92 8.89 8.89 0 0 1-4.23-1.33 13 13 0 0 1-3.93-3.45c-.07-.11-.16-.21-.21-.31a5.57 5.57 0 0 1-1-2.91l-89.84-51.87-3-1.77-3.9-2.24a2.06 2.06 0 0 1-1.19-1.76v-4a2.11 2.11 0 0 0 1.19 1.81h.05l10.31 5.94 86.88 50.17c1.62.93 2.94 2.11 2.94 2.63v.92a2.83 2.83 0 0 0 .8 1.62 10 10 0 0 0 2.66 2.23c1.92 1.1 3.47 1.15 3.47.13v-.92c0-.52.76-.49 1.73.07l1.72 1c1.84 1.14 3.38 5.86 3.38 10.55z" class="L" transform-origin="153.825px 280.175px"/></g><path d="M208 318.25v17.62 1.05l-.09.86a.22.22 0 0 1 0 .08c-.31-2.7-2.9-5.12-5.14-6.4a8.63 8.63 0 0 0-4.15-1.29 4.6 4.6 0 0 0-3 1.12l-.3-.17-.6-.35-86.98-50.17-5-2.88-1.43-.83-4.2-2.43a2 2 0 0 1-.94-1.64v4a1.89 1.89 0 0 0 .87 1.53l1.55.9 1 .56 1.67 1 1 .6.74.42 1.27.75 69 39.83 22 12.72c1.56.92 2.84 1.24 2.92.77a.66.66 0 0 0 0-.17v-.89c0-1.1 1.55-1.1 3.46 0s2.68 2.4 2.72 3.47v1.09a1.57 1.57 0 0 0 .51 1.29 5.45 5.45 0 0 0 .51.29l1.09.63 1.34.78a1.37 1.37 0 0 0 1.72-.15.4.4 0 0 0 .17-.15 2.1 2.1 0 0 0 .31-.41h0a.8.8 0 0 0 .15-.2 4.7 4.7 0 0 0 .39-.85 9.55 9.55 0 0 0 .31-1l.22-1.15a5.35 5.35 0 0 0 .08-.7c0-.19 0-.36.05-.56v-1.33-17.64z" class="E" transform-origin="153.695px 307.723px"/><g><path d="M208 318.25v17.62 1.05l-.09.86a.22.22 0 0 1 0 .08c-.31-2.7-2.9-5.12-5.14-6.4a8.63 8.63 0 0 0-4.15-1.29 4.6 4.6 0 0 0-3 1.12l-.3-.17-.6-.35-86.98-50.17-5-2.88-1.43-.83-4.2-2.43a2 2 0 0 1-.94-1.64v4a1.89 1.89 0 0 0 .87 1.53l1.55.9 1 .56 1.67 1 1 .6.74.42 1.27.75 69 39.83 22 12.72c1.56.92 2.84 1.24 2.92.77a.66.66 0 0 0 0-.17v-.89c0-1.1 1.55-1.1 3.46 0s2.68 2.4 2.72 3.47v1.09a1.57 1.57 0 0 0 .51 1.29 5.45 5.45 0 0 0 .51.29l1.09.63 1.34.78a1.37 1.37 0 0 0 1.72-.15.4.4 0 0 0 .17-.15 2.1 2.1 0 0 0 .31-.41h0a.8.8 0 0 0 .15-.2 4.7 4.7 0 0 0 .39-.85 9.55 9.55 0 0 0 .31-1l.22-1.15a5.35 5.35 0 0 0 .08-.7c0-.19 0-.36.05-.56v-1.33-17.64z" class="L" transform-origin="153.695px 307.723px"/></g></g><g transform-origin="237.589px 194.054px"><g transform-origin="244.822px 264.403px"><path d="M245.22 260.21l7.87-18.82 22.3 8.81c-10.22 11.73-21.13 25.87-23.39 30.8 0 0-11.8-1.71-14.06-7.48s4.31-11.11 7.28-13.31z" class="R" transform-origin="256.433px 261.195px"/><path d="M232.69 268.31a9.65 9.65 0 0 0-2.36 3c-.66 1.17 0 6.52-.56 9.07s-1 3.25-2 6.46c-1.06 3.56-3.27 6.9.15 15.59s8.15 12.61 12 14.51a9.82 9.82 0 0 0 4.58.76s4.75-2.21 3.78-5.05l-15.59-44.34z" class="I" transform-origin="237.248px 293.019px"/><path d="M254.86 276.48c-.07.93-1.25 2.43-1.71 3.22-1.57 2.65-2.12 6.11-2.51 9.13-1.84 14.3 4.29 21-2.9 26.88-2.09 1.55-6.67 1.51-14.25-6.86-3.87-4.27-6.58-13.44-5.52-17.76s2.75-7.22 3.4-10.53-.26-9.33 1.32-12.25a13 13 0 0 1 4.12-4.11c1.28-.92 4.14-2.21 5.46-3.09s2-1.83 2.95-.9l-1.43 2.08c-2.22 3.6-1.49 4-1.3 5.87A28.4 28.4 0 0 1 242 274c1.59-2.35 2.17-4.34 4.11-4.14s2.17.09 5.11 2.47 3.7 3.33 3.64 4.15z" class="E" transform-origin="241.301px 288.161px"/><g><path d="M254.86 276.48c-.07.93-1.25 2.43-1.71 3.22-1.57 2.65-2.12 6.11-2.51 9.13-1.84 14.3 4.29 21-2.9 26.88-2.09 1.55-6.67 1.51-14.25-6.86-3.87-4.27-6.58-13.44-5.52-17.76s2.75-7.22 3.4-10.53-.26-9.33 1.32-12.25a13 13 0 0 1 4.12-4.11c1.28-.92 4.14-2.21 5.46-3.09s2-1.83 2.95-.9l-1.43 2.08c-2.22 3.6-1.49 4-1.3 5.87A28.4 28.4 0 0 1 242 274c1.59-2.35 2.17-4.34 4.11-4.14s2.17.09 5.11 2.47 3.7 3.33 3.64 4.15z" class="G" transform-origin="241.301px 288.161px"/></g><g><path d="M233.49 308.85c-3.87-4.27-6.58-13.44-5.52-17.76a40 40 0 0 1 1.32-4.22c0 .29-.1.59-.12.84 0 .55-.08 1.1-.09 1.66a12.68 12.68 0 0 0 1.18 6.34c.92 1.69 3.09 6 5.47 5.88 1.34 0 2.38-1.44 2.78-3 .17-.65.41-2.38.41-2.38a20.85 20.85 0 0 1 6.34 2c3.61 2 3.52 2.54 3.52 2.54a9.14 9.14 0 0 0 .11 3 7.58 7.58 0 0 0 1.5 2.91 5 5 0 0 0 .93.64c.1 3.25-.56 5.87-3.58 8.32-2.09 1.64-6.67 1.6-14.25-6.77z" class="L" transform-origin="239.534px 301.667px"/></g><path d="M250.64 288.83a47.53 47.53 0 0 0 0 11.32c-1 3.7-2.17 3.68-2.47 1.82s1.62-9.79 3-16.34c-.24 1.09-.4 2.17-.53 3.2z" class="I" transform-origin="249.654px 294.415px"/><path d="M240.4 266.89a7.86 7.86 0 0 1 1-5.26l.88-.52c1.42-1 2-1.83 2.95-.9l-1.43 2.08c-2.22 3.6-1.49 4-1.3 5.87a28.4 28.4 0 0 1-.5 5.84c-1 6.22-2.14 8.36-2.39 14.19s1.2 9.62.41 10-2.49-.15-3.13-4.76.82-12.53 2-16.33 1.98-7.76 1.51-10.21z" class="I" transform-origin="240.982px 279.047px"/><path d="M238.54,296.66a.64.64,0,0,0,.3.14c4.12.53,6.35,1.39,9.64,4.72a.58.58,0,1,0,.82-.81c-3.47-3.52-5.93-4.49-10.31-5.06a.58.58,0,0,0-.45,1Z" class="H" transform-origin="243.937px 298.695px"/><path d="M238.91,291.79a.64.64,0,0,0,.3.14,15.53,15.53,0,0,1,10.16,5.18.59.59,0,0,0,.84,0,.6.6,0,0,0,0-.84c-3.67-3.69-6.3-4.82-10.82-5.52a.59.59,0,0,0-.48,1Z" class="H" transform-origin="244.561px 294.016px"/><path d="M238.42 286.49a.6.6 0 0 0 .33.16c4.7.73 7.52 2 11.36 5.83a.65.65 0 0 0 .92-.93c-4-4.06-7.1-5.42-12.08-6.19a.65.65 0 0 0-.75.54.62.62 0 0 0 .22.59z" class="H" transform-origin="244.706px 289.009px"/><path d="M238.85 281.91a.73.73 0 0 0 .32.15c4.61.71 7.34 1.89 11.11 5.69a.66.66 0 0 0 .91 0 .65.65 0 0 0 0-.91c-4-4-6.94-5.29-11.82-6a.64.64 0 0 0-.73.54.63.63 0 0 0 .21.53z" class="H" transform-origin="245.007px 284.382px"/><path d="M240.18 277.37a.63.63 0 0 0 .33.15c4.61.72 7.33 1.9 11.11 5.69a.63.63 0 0 0 .9 0 .65.65 0 0 0 0-.91c-4-4-6.93-5.3-11.82-6.05a.63.63 0 0 0-.73.53.64.64 0 0 0 .21.59z" class="H" transform-origin="246.333px 279.82px"/><path d="M219.7,195.75s47.87-5.67,66.61-5.55c19.13.12,20.9,14.48,16.12,23.28-9.16,16.84-38.77,51.25-38.77,51.25s-11.9-3.6-15.19-12.86l6.21-16.66-37.07,5.11-6.75-4.86Z" class="E" transform-origin="257.766px 227.464px"/><g class="F"><path d="M219.7,195.75s47.87-5.67,66.61-5.55c19.13.12,20.9,14.48,16.12,23.28-9.16,16.84-38.77,51.25-38.77,51.25s-11.9-3.6-15.19-12.86l6.21-16.66-37.07,5.11-6.75-4.86Z" class="G" transform-origin="257.766px 227.464px"/></g><g class="E"><path d="M267.44 248.24c-4.11-5.25-6.85-6.47-14.25-9l-4.72 12.66c3.29 9.26 15.19 12.86 15.19 12.86l8.28-9.87a73.35 73.35 0 0 0-4.5-6.65z" class="G" transform-origin="260.205px 252px"/></g><g class="E"><path d="M257.25 219.46c-2.4 3.58-4.49 6.79-6.26 9.85s-7.29 4.56-12.88 3.41a107.33 107.33 0 0 1-19.25-6.3c3.13-5.74 2.53-12.75 2.53-12.75a25.26 25.26 0 0 1-8.51 13.67l1.4 9.72 2.67 3.26 31.9-4.4h0l5.18-.71c6.58-15.69 9.11-22.59 17.25-25.81 0 0-6.94-.52-14.03 10.06z" class="G" transform-origin="242.08px 224.858px"/></g><path d="M282.31 312.85l-17.51-18.7 17.2-14.91c8.05 12.47 15.9 24.39 21 29 0 0-3.39 11.42-9.83 12.09s-9.48-3.87-10.86-7.48z" class="R" transform-origin="283.9px 299.818px"/><path d="M286.45 324.1a10.16 10.16 0 0 0 2.36 3.21c1 1 6.55 1.85 9 3.1s3 1.94 6 3.8c3.28 2.06 6 5.22 15.73 4.2s15-4.69 18-8.07a10.33 10.33 0 0 0 2-4.4s-.9-5.39-4-5.21l-49.09 3.37z" class="I" transform-origin="312.995px 329.667px"/><path d="M300.87 304.07c.91.33 2.09 1.93 2.76 2.62 2.22 2.32 5.56 3.84 8.49 5.07 13.87 5.84 22.37 1.55 26.24 10.41 1 2.54-.34 7.14-10.87 12.44-5.38 2.71-15.37 2.87-19.43.6s-6.49-4.78-9.64-6.36-9.47-2.34-12-4.75a13.67 13.67 0 0 1-3-5.29c-.57-1.55-2.17-6.87-2.17-6.87 3 3.24 5.85 1.95 7.73 2.26a28.87 28.87 0 0 1 5.77 2.13c-1.92-2.26-3.76-3.4-3-5.3s.7-2.15 3.91-4.45 4.39-2.8 5.21-2.51z" class="E" transform-origin="309.942px 320.392px"/><g><path d="M300.87 304.07c.91.33 2.09 1.93 2.76 2.62 2.22 2.32 5.56 3.84 8.49 5.07 13.87 5.84 22.37 1.55 26.24 10.41 1 2.54-.34 7.14-10.87 12.44-5.38 2.71-15.37 2.87-19.43.6s-6.49-4.78-9.64-6.36-9.47-2.34-12-4.75a13.67 13.67 0 0 1-3-5.29c-.57-1.55-2.17-6.87-2.17-6.87 3 3.24 5.85 1.95 7.73 2.26a28.87 28.87 0 0 1 5.77 2.13c-1.92-2.26-3.76-3.4-3-5.3s.7-2.15 3.91-4.45 4.39-2.8 5.21-2.51z" class="G" transform-origin="309.942px 320.392px"/></g><g><path d="M327.49 334.61c-5.38 2.71-15.37 2.87-19.43.6a43.4 43.4 0 0 1-3.87-2.51c.29.12.57.27.81.36.54.2 1.09.38 1.65.55a13.31 13.31 0 0 0 6.7.59c2-.47 6.86-1.45 7.45-3.87.33-1.37-.79-2.8-2.22-3.63-.61-.36-2.29-1.08-2.29-1.08a22 22 0 0 1 3.84-5.81c3-3.06 3.53-2.83 3.53-2.83a9.8 9.8 0 0 0 3.08.73 7.94 7.94 0 0 0 3.34-.7 5.23 5.23 0 0 0 .9-.76c3.31.81 5.76 2.21 7.38 5.92.98 2.54-.36 7.14-10.87 12.44z" class="L" transform-origin="321.408px 326.519px"/></g><path d="M312.12 311.76A49.41 49.41 0 0 0 323.5 315c3.44 2.07 3.1 3.21 1.15 3s-9.41-4.36-15.61-7.58l3.08 1.34z" class="I" transform-origin="317.574px 314.222px"/><path d="M287.18 316c-1.85-.14-3.29 0-4.87-.89-1-.5-1.58-2.81-1.53-3.84l1.64 1.73c2.78 1.24 4.73.94 6.61 1.25a28.87 28.87 0 0 1 5.77 2.13c6 2.72 7.82 4.48 13.61 6.36s10 1.48 10.19 2.38-.84 2.46-5.66 1.82-12.38-4.32-15.88-6.55-7.29-4.23-9.88-4.39z" class="I" transform-origin="299.699px 319.18px"/><path d="M316.62 326.13a.67.67 0 0 0 .23-.27c1.68-4 3.17-6 7.44-8.38a.62.62 0 0 0 .23-.82.6.6 0 0 0-.82-.23c-4.51 2.5-6.17 4.71-8 9a.6.6 0 0 0 .32.79.61.61 0 0 0 .6-.09z" class="H" transform-origin="320.121px 321.307px"/><path d="M311.82,324.39a.58.58,0,0,0,.23-.26c1.85-4.11,3.55-6.26,8.05-8.78a.62.62,0,0,0,.24-.85.63.63,0,0,0-.85-.23c-4.74,2.66-6.6,5-8.57,9.35a.62.62,0,0,0,.9.77Z" class="H" transform-origin="315.645px 319.338px"/><path d="M306.36 323.41a.58.58 0 0 0 .24-.29c2-4.53 4.08-7 9-9.8a.69.69 0 0 0 .26-.93.68.68 0 0 0-.93-.26c-5.22 2.93-7.44 5.63-9.61 10.43a.69.69 0 0 0 .34.91.7.7 0 0 0 .7-.06z" class="H" transform-origin="310.602px 317.789px"/><path d="M301.86,321.7a.63.63,0,0,0,.24-.29c2-4.44,4-6.85,8.83-9.59a.67.67,0,0,0-.66-1.17c-5.11,2.87-7.27,5.51-9.39,10.22a.67.67,0,0,0,1,.83Z" class="H" transform-origin="306.043px 316.196px"/><path d="M297.67 319.09a.73.73 0 0 0 .24-.28c2-4.45 3.95-6.86 8.83-9.6a.68.68 0 0 0 .25-.91.66.66 0 0 0-.91-.25c-5.12 2.87-7.27 5.5-9.39 10.21a.67.67 0 0 0 .33.88.68.68 0 0 0 .65-.05z" class="H" transform-origin="301.852px 313.58px"/><path d="M292.28 293.79c-4.2 7.54-15.53 13.8-15.53 13.8s-4.82-4.36-16.41-13.8c-8.18-6.65-14.91-13.23-19.72-21.26-13.86-2.77-36.84-1.51-62.37-11.53-12.74-5-23.35-16.86-26-29.28a99.34 99.34 0 0 1-2.13-22.32c.23-22.77 73-12.06 73-12.06l-10.24 30 41.27 16.06c4.82 2 6.19 1.91 11.88 9.82 13.02 18.1 26.25 40.57 26.25 40.57z" class="E" transform-origin="221.192px 251.207px"/><g class="F"><path d="M292.28 293.79c-4.2 7.54-15.53 13.8-15.53 13.8s-4.82-4.36-16.41-13.8c-8.18-6.65-14.91-13.23-19.72-21.26-13.86-2.77-36.84-1.51-62.37-11.53-12.74-5-23.35-16.86-26-29.28a99.34 99.34 0 0 1-2.13-22.32c.23-22.77 73-12.06 73-12.06l-10.24 30 41.27 16.06c4.82 2 6.19 1.91 11.88 9.82 13.02 18.1 26.25 40.57 26.25 40.57z" class="G" transform-origin="221.192px 251.207px"/></g><g class="E"><path d="M280.07 305.54l.9-.61c-6.17-5.8-21.72-20.87-26.45-27.26-1.63-2.2-2.9-4.17-4-5.91-2.65-4.08-4.4-6.77-7.59-7.55-.68-.17-2.33-.5-4.81-1-12.67-2.6-46.32-9.49-58-15.81-.34-.19-.67-.4-1-.59 4-4 3.56-11.57.5-16.23-3.28-5-5.78-14.93-4-19.77l-1-.37c-2.11 5.64 1 16 4.07 20.72 2.87 4.38 3.18 11.63-.57 15.08-11.19-7-16.83-19.24-16.33-35.57h-1.06c-.55 17.7 6 30.73 18.85 37.7 11.82 6.4 45.58 13.32 58.29 15.92l4.78 1c2.78.68 4.43 3.24 6.95 7.1 1.13 1.75 2.42 3.73 4.07 6 4.97 6.61 20.67 21.75 26.4 27.15z" class="G" transform-origin="220.834px 257.99px"/></g></g><g transform-origin="220.914px 160.8px"><path d="M211.1 78.15c-1.55-2.3-4.34-3.14-6.92-3.68-1-.22-1 1.94-.06 2.15 2.61.61 6 1.34 6.36 4.53a44.76 44.76 0 0 1 0 5.18v5.19q0 5.17-.05 10.35c0 3.65-.19 7.34 0 11 .06.89 1.73 2.11 1.85.7.35-4.09.16-8.27.18-12.37l.09-12.25c-.02-3.48.6-7.76-1.45-10.8z" class="E" transform-origin="208.023px 94.3337px"/><path class="P" d="M214.48 80.52l-25.34-30.66-1.93-.36-42.81 35.27 25.26 30.66 1.93.37 42.89-35.28z" transform-origin="179.44px 82.65px"/><path class="I" d="M189.14 49.86l-42.82 35.27 25.27 30.67 42.89-35.28-25.34-30.66z" transform-origin="180.4px 82.83px"/><path d="M161 98.85a7.61 7.61 0 0 1-.59 5.63 8 8 0 0 1-4.33 3.18c-3 1.15-5.6 2.25-7.51 4.37-2.39 2.65-3 5.53-2.51 9.78a1.36 1.36 0 0 1-.31 1.06 1.77 1.77 0 0 1-.71.4 14.57 14.57 0 0 0-8.26 8.81c-1.38 3.88-1.75 9.31.26 13a19.73 19.73 0 0 0 6.67 7.21c5.7 3.73 12.72 5.16 19.4 5.83l1.14.11c14.9 1.29 32 1.67 45.15-5.41 6.5-3.48 13.43-7.27 14.25-18.17a15.42 15.42 0 0 0-10.82-16.26c1.51-2.72 3-4.83 1.51-9.22-.94-2.73-3.65-4.82-5.88-6.63s-3-3.68-3.25-6.72a29.71 29.71 0 0 1 .26-5.32c2.12-1.08 2.39-4.09 1.77-6.17l-1.95-5.31c-3.24-4.45-8.13-6.47-13.43-7-4.55-.41-8.91-1-13.45 0a28.54 28.54 0 0 0-12.25 6 18 18 0 0 0-3.57 3.98 16.7 16.7 0 0 0-2.32 6.42 23.1 23.1 0 0 0 .21 8.37c.14.67.31 1.36.52 2.06z" fill="#b16668" transform-origin="179.682px 115.222px"/><g class="M" transform-origin="220.172px 155.99px"><path d="M200.76 124.55c13.18-2.25 17.45 7.54 18.59 13.7 1.31 7.08 1.16 23.72 1.16 23.72l19.13 13.38-6.75 12.41-23-10.39c-6.32-3.12-5.49-5.09-6.36-14.85s-3.22-32.37-2.77-37.97z" transform-origin="220.172px 155.99px"/></g><path d="M148.43 218.49c.21-2.75-1.39-25.9.68-47.1.66-6.78 7.43-35.6 9.1-40.7l13.36-3.79s11.63-1.46 26-2.2l3.18-.15c.91.92 15 11.21 19.33 22.56 2.08 5.47 2.23 19.36 2.44 29.63.22 10.46 1.33 13.54 3.55 15-1.51 11.31-17.38 25.13-36.42 29.54-22.86 5.26-39.79-1.96-41.22-2.79z" class="P" transform-origin="187.053px 173.867px"/><path d="M148.43,218.49c.41,21.08,4.86,29,15.56,37.55,11.6,9.26,34.58,13.35,44.92,14.34,14.13,1.33,29.28,1.72,29.28,1.72s-1.31-15.26,5.71-25.47,29.21-47.32,52.73-54.45c-4.24-3.29-11.67-3.45-36.43-1.22s-33.55,3.24-37-1.47Z" class="P" transform-origin="222.53px 230.784px"/><path d="M211.28 146.54a24.1 24.1 0 0 0 6.24-4.49l-1.43-2.14-.73.79a21.32 21.32 0 0 1-4.57 3.31 50.27 50.27 0 0 1-12 4.64 71.64 71.64 0 0 1-27.41 1.1 112.57 112.57 0 0 1-15.81-3.46c-1-.28-1.25 1.78-.43 2 18.05 5.34 38.86 7.35 56.14-1.75z" class="M" transform-origin="186.084px 146.37px"/><g transform-origin="221.584px 194.61px"><path d="M192.78,234v1.26a3.57,3.57,0,0,0,1.77,3.09l33.89,19.7a3.5,3.5,0,0,0,1.78.48,3.63,3.63,0,0,0,1.78-.46l62.48-35.71a3.56,3.56,0,0,0,1.79-3.08v-.87l-66,37.75Z" class="D" transform-origin="244.525px 238.47px"/><path d="M296.27,218.41l-36.86-21.49a2.11,2.11,0,0,0-2.13,0L193,233.65a.47.47,0,0,0,0,.81l37.21,21.7Z" class="T" transform-origin="244.519px 226.396px"/><path class="N" d="M229.89 253.03l-19.88-11.59 58.43-33.39 19.98 11.52-58.53 33.46z" transform-origin="249.215px 230.54px"/><path class="D" d="M220.24 221l.36.22 9.75 5.68 17.41-9.96.37-.2-10.12-5.89L220.24 221z" transform-origin="234.185px 218.875px"/><path class="N" d="M220.6 221.22l9.75 5.68 17.41-9.96-9.75-5.68-17.41 9.96z" transform-origin="234.18px 219.08px"/><g><g class="O" transform-origin="263.245px 238.47px"><path d="M230.22,256.16v2.37a3.63,3.63,0,0,0,1.78-.46l62.48-35.71a3.56,3.56,0,0,0,1.79-3.08v-.87Z" transform-origin="263.245px 238.47px"/></g></g><path d="M256.16 198a5.29 5.29 0 0 1 .52 1.07l1.77 4.27a8.94 8.94 0 0 0 1.65 2.77c.63.64 2.58 1.87 3.26.71a1.26 1.26 0 0 0 0-.88l-.84-3.71c-.13-.53-.51-2.14 0-2.52a1.17 1.17 0 0 1 .49-.15 3.33 3.33 0 0 0 2-1.15 1.52 1.52 0 0 1 .41-.39 2.09 2.09 0 0 1 .75-.08 1.64 1.64 0 0 0 1.11-.64 2.17 2.17 0 0 0 .33-.57 4.84 4.84 0 0 0 .25-1.82l-.11-3.48a6.23 6.23 0 0 0-.21-1.49c-.38-1.21-1.53-2.07-2.41-2.94l-3.22-2.92a9.44 9.44 0 0 0-2.81-1.91 21.71 21.71 0 0 0-3.48-.81A51.25 51.25 0 0 1 245 178.2c-.43-.18-3.85-2-5.37-2.85-4.54 3.59-7.13 7.65-6.75 12.41a35.53 35.53 0 0 1 3.81 2.55 20.15 20.15 0 0 1 4.25 4.25 20.29 20.29 0 0 0 3.15 3.7c2.08 1.72 4.87 2.41 6.85 4.24a2.84 2.84 0 0 0 1.52 1A1.62 1.62 0 0 0 254 202a4.12 4.12 0 0 0-.6-2.27 19.82 19.82 0 0 0-2.8-4.1c1.74-.38 4.13.76 5.29 2.07a2.52 2.52 0 0 1 .27.3z" class="R" transform-origin="250.355px 191.325px"/><g transform-origin="182.896px 181.508px"><path d="M138.45 189.85c1.12-16.54 2.46-28.24 4.05-40.47 1-7.45 5-14.9 15.58-18.16 9.22 5.69 8.69 24.95 7.75 29.63l-4.1 29.35s4.8 3.39 13.22 8.93c7 4.64 11.7 8.74 19.77 9.16s11.3-.06 15.59 1.48c2.29.81 7.51 2.72 9.3 3.48s5.09 3.69 8.1 5.61c2.84 2-.45 3.38-2.59 2.91a27.09 27.09 0 0 1-6.49-2.64 36.83 36.83 0 0 0-5.54-1.7 32 32 0 0 1 1.56 6.22c.09 1.15.43 2.53-.52 3.44a8.67 8.67 0 0 1-2.34 1.16 1.72 1.72 0 0 1-.4 1.14 2.87 2.87 0 0 1-2 .66 8.77 8.77 0 0 1-1.18-.09 2.12 2.12 0 0 1-1.21 1.74 9.36 9.36 0 0 1-4.9.5c-.25-.08-2.14-.95-2.7-1.19a4.91 4.91 0 0 1-1.88-1c-.44-.57.59-2 1.52-2.24a9.69 9.69 0 0 1 3.14 0 11 11 0 0 1-1.09-2.63c-.94-1.31-7 .49-12.52-.1-4.17-.44-7.41-4.16-9.32-4.87C167 215.58 160.58 214 147.89 208c-10.45-4.93-10.03-9.41-9.44-18.15z" class="R" transform-origin="183.506px 181.773px"/><path d="M214.18 217.72c-.74-1.51-1.83-3.3-3.05-3.65a13.86 13.86 0 0 1 2 3.36c.33.11.69.2 1.05.29z" class="J" transform-origin="212.655px 215.895px"/><path d="M211.79 228.25a13 13 0 0 0-.12-3.41 31.61 31.61 0 0 0-.66-3.33 14.37 14.37 0 0 0-1.14-3.24 6.23 6.23 0 0 0-2.21-2.58 4.82 4.82 0 0 1 1 1.31 11.48 11.48 0 0 1 .74 1.49 23.43 23.43 0 0 1 1 3.18l.8 3.27a28 28 0 0 1 .59 3.31z" class="J" transform-origin="209.755px 221.97px"/><path d="M208.19 230a15.55 15.55 0 0 0-.22-3.34 28.45 28.45 0 0 0-.71-3.27 22.32 22.32 0 0 0-1.13-3.15 6.42 6.42 0 0 0-1.89-2.75 4.18 4.18 0 0 1 .84 1.4l.59 1.53 1 3.15 1.52 6.43z" class="J" transform-origin="206.222px 223.745px"/><path d="M199.05 227.75a5.7 5.7 0 0 1 1.4.1c.45.08.78.28 1.35.42l-.25-.35a1.34 1.34 0 0 0 .13.66 1.57 1.57 0 0 0 .35.49 1.9 1.9 0 0 0 1 .55 4.12 4.12 0 0 1-.62-.82 1.85 1.85 0 0 1-.17-.42 1.11 1.11 0 0 1 0-.38v-.26l-.26-.09a4.19 4.19 0 0 0-1.32-.19 2.79 2.79 0 0 0-1.61.29z" class="J" transform-origin="201.04px 228.53px"/><path d="M158.21 130.69c-4.81.35-12.16 2.34-15 7s-2.7 17.46-3.51 25.66l-2.55 28.82c-.42 5.8-.29 9.91 3 12.79s25.19 10.21 25.19 10.21c.1-4.12 3.46-13.78 8.44-16.85l-11.11-8.44 4.17-30.36s2.83-23.92-8.63-28.83z" class="M" transform-origin="155.379px 172.93px"/></g><path d="M231.22,256.69a4.24,4.24,0,0,0,3.64-.26l62.2-35.56a4.21,4.21,0,0,0,2.07-2.94l7-40.48a4,4,0,0,0,.06-.69,4.2,4.2,0,0,0-1.24-3l-64.64,37a3.12,3.12,0,0,0-1.53,2.17Z" class="N" transform-origin="268.705px 215.371px"/><path d="M230.22,256.16l.42.25a4.41,4.41,0,0,0,.58.28l7.53-43.81a3.12,3.12,0,0,1,1.53-2.17l64.64-37a4,4,0,0,0-.86-.66l-64.77,37a3.12,3.12,0,0,0-1.53,2.17Z" class="D" transform-origin="267.57px 214.87px"/><path d="M264.43 218.8c.47-2.71 3.28-6.3 6.29-8s5.07-.91 4.6 1.8-3.28 6.3-6.29 8-5.03.91-4.6-1.8z" class="E" transform-origin="269.88px 215.7px"/></g><g transform-origin="184.284px 107.283px"><g transform-origin="184.284px 107.283px"><g transform-origin="184.284px 107.283px"><path d="M168.74 111.13a7.15 7.15 0 0 1-6.46-2.23c-3.47-3.56-3.88-7.26-2.37-9.77 1.24-2.06 4.39-3.44 6.66-2.12 2.42 1.4 2.53 2.6 3.47 4.23s3.23.29 2.28-6.36c4.58-2.26 3.64-9.87 6.07-13 3.79-5 10.28-3.88 12.41-2.79a8.6 8.6 0 0 1 8.79-.78c3.15 1.56 6.16 4.63 7 16.77s-.42 17.92-2.76 20.92c-1.71 2.2-5.13 4.7-10.62 4.8l.14 4.55s12.82 12.48-3.14 11.73c-12-.57-18.88-9.59-18.88-9.59v-18.3s-.22 1.44-2.59 1.94z" class="R" transform-origin="182.965px 107.283px"/><circle cx="180.27" cy="99.04" r="3.85" class="J" transform-origin="180.27px 99.04px"/><path d="M201.23 98.55a3.81 3.81 0 0 0 5.63 3.39l-.26-6.9h0a3.7 3.7 0 0 0-1.52-.32 3.85 3.85 0 0 0-3.85 3.83z" class="J" transform-origin="204.045px 98.5615px"/><path d="M186.72 95.75a2 2 0 1 1-2-2 2 2 0 0 1 2 2z" class="I" transform-origin="184.72px 95.75px"/><circle cx="200.54" cy="95.19" r="2" class="I" transform-origin="200.54px 95.19px"/><path d="M194.85,108.33a3.56,3.56,0,0,1-4.11,2.85,3.5,3.5,0,0,1-2.9-4Z" fill="#b16668" transform-origin="191.324px 109.206px"/><path d="M187.85 108.28a3.5 3.5 0 0 0 2.89 2.9 3.8 3.8 0 0 0 1.26 0 3.61 3.61 0 0 0-4.15-2.9z" class="J" transform-origin="189.925px 109.731px"/><path d="M203.33 88.53l-4.63-1.38a2.35 2.35 0 0 1 3-1.64 2.48 2.48 0 0 1 1.63 3.02z" class="I" transform-origin="201.06px 86.9624px"/><path d="M186.16 87.3l-4.86 1.79a2.43 2.43 0 0 1 1.41-3.27 2.75 2.75 0 0 1 3.45 1.48z" class="I" transform-origin="183.627px 87.3735px"/><path d="M208.45 89.5l-.91-.07c-2.94-.19-6.77-.13-9 .63-2.83 1-3.79 1.93-5.39 2s-2.85-.84-6-1.55c-2.5-.57-6.58-.32-9.69.1l-1 .14a1.44 1.44 0 0 0-1 1.57 3.52 3.52 0 0 0 1 1.75 2 2 0 0 1 .36.7c.41 1.22.77 3.58 1.49 4.86a6.52 6.52 0 0 0 1.35 1.72 6.86 6.86 0 0 0 .67.5l.38.22a6 6 0 0 0 1.11.44h.19l.29.07a2.84 2.84 0 0 0 .31.06 9 9 0 0 0 1 .11h.41.51c4-.14 5.52-2 6.39-3.91s.45-4.52 2.28-4.58h.17.17c1.37.25 1.36 2.66 2.32 4.37a7.46 7.46 0 0 0 1.41 1.84l.33.29.18.13.18.12.16.11.18.1.14.08.1.05a6.17 6.17 0 0 0 1.62.55h.15a8.49 8.49 0 0 0 1.94.11c3.72-.16 4.87-2.29 5.4-3.63a29.71 29.71 0 0 0 .82-5 1.35 1.35 0 0 1 .3-.66 3.25 3.25 0 0 0 .72-1.85 1.53 1.53 0 0 0-1.04-1.37zm-18.61 7.69a5.28 5.28 0 0 1-1.22 2.65h0a5.62 5.62 0 0 1-4.23 1.65 5.08 5.08 0 0 1-4.28-1.73l-.15-.18-.13-.18-.11-.17a.86.86 0 0 1-.1-.16l-.07-.12-.06-.11-.1-.18h0l-.24-.54h0l-.12-.32-.17-.52v-.1-.1c-.39-1.29-.91-3.83-.27-4.43s2.42-1.27 5.39-1.11h.32c.46 0 .91.09 1.36.17l.54.1a12.44 12.44 0 0 1 1.34.36l.41.14.45.18.09.05.16.07a2.81 2.81 0 0 1 .93.65c.57.74.5 2.47.26 3.93zM207.05 96c-.17 1-.52 3.24-2.53 4.28a5.48 5.48 0 0 1-2.17.54 5 5 0 0 1-4.54-1.82h0l-.09-.12-.1-.14a.43.43 0 0 1 0-.07 1.37 1.37 0 0 1-.13-.2l-.13-.23a.75.75 0 0 1-.07-.12v-.06a1 1 0 0 0 0-.1.43.43 0 0 0 0-.07 8.09 8.09 0 0 1-.34-1c-.4-1.44-.66-3.12-.16-3.94s2.63-1.78 4.72-2.11a14.27 14.27 0 0 1 1.35-.15h1.2.37a6.45 6.45 0 0 1 .69.09h.17 0 .11.16l.2.06a2.55 2.55 0 0 1 .33.11h.06a2.78 2.78 0 0 1 .76.41c.54.72.34 3.29.14 4.64z" class="M" transform-origin="192.468px 96.0443px"/><path d="M199.69,102.68l-6.76,2.84L191.52,97c.26-1.27.51-2.58,1.62-2.68Z" class="J" transform-origin="195.605px 99.92px"/><path d="M176.22,90.85,166.57,97a11.59,11.59,0,0,1,1.64,1.22L176.62,93Z" class="M" transform-origin="171.595px 94.535px"/></g></g><path d="M193.21,120.78c-6.24-.07-16.59-2.57-19.88-9.78.42,7.13,8.27,10.75,11.79,11.63a34.93,34.93,0,0,0,8.18,1Z" class="J" transform-origin="183.315px 117.315px"/></g><path d="M160.39,96.31s4.72-8.6,13.52-12.33,18.61-.26,18.61-.26,4.47-2.67,8.74-2,5.93,2.66,5.93,2.66l-4-13.76s-4.69-5.69-18-4.66C171.6,67,161.93,73.22,157.83,82Z" class="M" transform-origin="182.51px 81.0727px"/></g></g></g><defs ><path id="E" d="M201.41 436.71h0l-2.75-3-.07-.08a1.07 1.07 0 0 0-1.36 0 3.71 3.71 0 0 0-1.68 2.9 1.11 1.11 0 0 0 .64 1.16h0 .11l4 .88h0a.64.64 0 0 0 .44-.09 1.69 1.69 0 0 0 .76-1.32.61.61 0 0 0-.09-.45z"/><path id="F" d="M145.29 402.07h0 0 0l-3.51-2h-.08 0 0a1.51 1.51 0 0 0-1.45.18 4.7 4.7 0 0 0-2.13 3.7 1.49 1.49 0 0 0 .63 1.38h0l3.54 2h0a1.51 1.51 0 0 0 1.47-.16 4.75 4.75 0 0 0 2.14-3.71 1.52 1.52 0 0 0-.61-1.39z"/><path id="G" d="M413.85,119.1a4.74,4.74,0,0,0,3.49,6.05c4.94,1.55,8.05,0,8.79,1.38s-23.44,15.33-23.44,15.33l4.59-20Z"/><path id="H" d="M411.77,310.36v.29l-9.47-5.49-94.59-54.24V65.44c0-2.89,1.58-4.31,3.53-3.18l3.53,2.05,97,56-.09.85Z"/><path id="I" d="M388.76,146.22c-1-.57-1.42-1.23-.95-1.5l.81-.47c.91-.52.07-1.87-1.89-3s-4.28-1.64-5.19-1.11l-.82.47c-.47.27-2.17-.29-3.83-1.24l.59,180.13,2.43,1.39a2.19,2.19,0,0,0,1.42-.13l.81-.47c.91-.52,3.22,0,5.18,1.1s2.8,2.48,1.9,3l-.82.47c-.46.27,0,.93,1,1.51Z"/><path id="J" d="M379.91 320.6v.28l-2.42-1.39-103.74-59.89V85.03c0-2.88 1.58-4.31 3.53-3.17l3.53 2 99.08 54.79z"/><path id="K" d="M387.62,325.34V145l6.44,2.6V327.35a6,6,0,0,1-3.56-.35Z"/><path id="L" d="M428.73 306.63a1.45 1.45 0 0 1 0 .35.39.39 0 0 1-.05.23 2 2 0 0 1-.2.48 1.42 1.42 0 0 1-.12.25 4.83 4.83 0 0 1-.55.78 8.64 8.64 0 0 1-.72.78l-.91.78a5.19 5.19 0 0 1-.58.44l-.47.33-1.15.73-22.35 12.9a21.35 21.35 0 0 1-7.53 2.68V147.6l34.68-20.78v179.81z"/><path id="M" d="M394.06 162.5v21.67c13.86-4.71 25.75-11.1 34.68-20v-21.7c-8.93 8.93-20.82 15.32-34.68 20.03z"/><path id="N" d="M401.6 144.92l-1.74-3a15.9 15.9 0 0 1-7.44 2.34 4.63 4.63 0 0 0-.61-2.94 9.14 9.14 0 0 0-3.35-3.08 13.42 13.42 0 0 0-5.07-1.72 2.48 2.48 0 0 0-.38 0 5.74 5.74 0 0 0-3.1.58l-92-53.12-3.13-1.79-4-2.31a2.13 2.13 0 0 0-2.17-.16l-3.53 2a2.16 2.16 0 0 1 2.21.13h.06L287.9 88l89 51.37c1.66 1 3.38 1.53 3.85 1.26l.81-.47a2.85 2.85 0 0 1 1.85-.12 10.08 10.08 0 0 1 3.33 1.21c2 1.14 2.8 2.49 1.9 3l-.81.47c-.47.27-.05.93.94 1.51l1.77 1c1.93 1.13 6.9.09 11.06-2.31z"/><path id="O" d="M399.86 141.9L422.2 129l.92-.57.71-.51a.2.2 0 0 0 .07-.06c-2.56 1.11-6 0-8.3-1.28a8.84 8.84 0 0 1-3.28-3 4.67 4.67 0 0 1-.56-3.28l-.31-.18-.62-.35-89-51.36-5.1-3-1.47-.84-4.26-2.45a2 2 0 0 0-1.93 0l1-.56 2.57-1.48a2 2 0 0 1 1.8 0h.05l1.59.91 1 .57 1.71 1 1.06.61.75.43 1.32.75 70.66 40.82 22.57 13c1.61.91 2.55 1.88 2.17 2.2a1.15 1.15 0 0 1-.13.1l-.79.45c-1 .57-.19 1.94 1.77 3.07s3.5 1.15 4.47.63l1-.55a1.62 1.62 0 0 1 1.41-.21c.15.07.33.19.52.3l1.11.64 1.39.8a1.4 1.4 0 0 1 .74 1.6.48.48 0 0 1-.05.23 2 2 0 0 1-.2.48h0a.82.82 0 0 1-.1.24 4.91 4.91 0 0 1-.56.78 10.22 10.22 0 0 1-.71.78l-.92.78a5.06 5.06 0 0 1-.57.44l-.47.33-1.15.72-22.48 12.94z"/></defs></svg>