<?xml version="1.0" encoding="utf-8"?>
<!-- Generator: Adobe Illustrator 28.3.0, SVG Export Plug-In . SVG Version: 6.00 Build 0)  -->
<svg version="1.1" id="Layer_1" xmlns="http://www.w3.org/2000/svg" xmlns:xlink="http://www.w3.org/1999/xlink" x="0px" y="0px"
	 viewBox="0 0 3000 1684.28" style="enable-background:new 0 0 3000 1684.28;" xml:space="preserve">
<style type="text/css">
	.st0{fill:#060075;}
	.st1{fill:#FFFFFF;}
	.st2{fill:#D20000;}
</style>
<g>
	<g>
		<rect x="0.07" y="0.06" class="st0" width="2999.93" height="1684.21"/>
	</g>
	<g>
		<g>
			<rect x="0.07" y="0.06" class="st0" width="1523.51" height="942.71"/>
		</g>
		<g>
			<polygon class="st1" points="1523.58,865.99 1523.58,942.77 1376.74,942.77 870.14,625.34 865.72,622.57 834.83,603.21 
				833.94,602.66 773.19,564.59 769.43,562.24 768.4,561.59 761.57,557.31 752.54,551.66 744.33,546.51 725.77,534.88 725.3,534.59 
				700.66,519.15 699.77,518.59 697.85,517.38 689.41,512.1 672.41,501.45 668,498.68 637.24,479.42 626.88,472.92 528.54,411.31 
				528.08,411.01 488.63,386.3 484.88,383.95 5.1,83.33 0.07,80.18 0.07,0.06 141.57,0.06 144.25,1.74 668,329.9 672.41,332.67 
				699.77,349.81 700.66,350.36 754.26,383.95 758,386.3 761.57,388.53 763.31,389.62 778.96,399.43 797.45,411.01 797.91,411.31 
				815.47,422.31 823.63,427.42 833.94,433.88 834.83,434.43 865.72,453.79 870.14,456.56 878.6,461.87 894.46,471.8 896.25,472.92 
				994.67,534.59 995.13,534.88 1038.82,562.24 1042.56,564.59 			"/>
		</g>
		<g>
			<polygon class="st2" points="1523.58,887.04 1523.58,942.77 1523.33,942.77 1522.72,942.39 913.55,562.24 869.7,534.88 
				865.72,532.4 833.94,512.56 833.46,512.26 815.83,501.26 769.25,472.19 760.39,466.67 758.81,465.68 699.77,428.84 698.5,428.04 
				694.76,425.71 699.77,417.67 703.74,411.31 719.86,385.48 743.19,400.05 760.53,410.87 761.24,411.31 805.29,438.8 
				813.71,444.06 833.94,456.68 853.66,468.99 865.72,476.51 878.15,484.27 959.26,534.88 1003.1,562.24 1523.33,886.88 			"/>
		</g>
		<g>
			<polygon class="st1" points="1523.58,0.06 1523.58,79.85 1038.25,383.95 1034.5,386.3 995.05,411.01 994.59,411.31 
				896.25,472.92 885.89,479.42 878.15,484.27 865.72,492.05 850.72,501.45 833.94,511.96 833.72,512.1 833.46,512.26 
				822.47,519.15 797.83,534.59 797.36,534.88 770.59,551.66 761.57,557.31 754.73,561.59 753.7,562.24 749.94,564.59 
				699.77,596.03 688.3,603.21 668,615.94 652.99,625.34 146.99,942.77 0.07,942.77 0.07,865.67 5.1,862.51 480.57,564.59 
				484.31,562.24 528,534.88 528.46,534.59 626.88,472.92 628.67,471.8 644.53,461.87 644.8,461.69 652.99,456.56 668,447.16 
				688.3,434.43 689.37,433.76 698.5,428.04 699.77,427.25 707.66,422.31 725.22,411.31 725.68,411.01 743.19,400.05 759.82,389.62 
				761.57,388.53 765.13,386.3 768.87,383.95 822.47,350.36 833.94,343.18 850.72,332.67 865.72,323.27 1378.88,1.74 1381.56,0.06 
							"/>
		</g>
		<g>
			<polygon class="st2" points="1512.19,0.06 1509.48,1.74 893.67,383.95 865.72,401.29 849.58,411.31 833.94,421.01 823.63,427.42 
				805.29,438.8 760.39,466.67 759.69,467.1 758.81,465.68 734.73,426.88 759.83,411.31 760.53,410.87 778.96,399.43 803.91,383.95 
				833.94,365.31 865.72,345.58 1419.72,1.74 1422.43,0.06 			"/>
		</g>
		<g>
			<polygon class="st2" points="725.52,456.32 700.48,496.44 699.77,496 668,476.17 644.8,461.69 564.06,411.31 520.22,383.95 
				5.1,62.5 0,59.31 0.07,3.61 5.1,6.76 609.54,383.95 653.39,411.31 668,420.42 689.37,433.76 699.77,440.25 			"/>
		</g>
		<g>
			<rect x="668" y="0.06" class="st1" width="197.72" height="942.71"/>
		</g>
		<g>
			<rect x="0.07" y="383.94" class="st1" width="1523.51" height="178.3"/>
		</g>
		<g>
			<polygon class="st2" points="699.78,0 833.95,0.06 833.95,942.77 699.78,942.77 			"/>
		</g>
		<g>
			<rect x="0.07" y="411.31" class="st2" width="1523.51" height="123.57"/>
		</g>
		<g>
			<polygon class="st2" points="857.43,474.93 833.94,489.8 815.83,501.26 762.71,534.88 744.33,546.51 719.48,562.24 
				699.77,574.71 668,594.83 118.84,942.39 118.24,942.77 25.74,942.77 26.34,942.39 626.97,562.24 668,536.28 670.21,534.88 
				697.85,517.38 699.77,516.17 769.25,472.19 813.71,444.06 830.97,433.13 833.94,437.83 853.66,468.99 			"/>
		</g>
	</g>
	<g>
		<polygon class="st1" points="2419.83,1038.45 2388.43,1022.31 2357.33,1039.03 2362.98,1004.18 2337.47,979.77 2372.36,974.37 
			2387.7,942.56 2403.61,974.08 2438.6,978.83 2413.54,1003.71 		"/>
	</g>
	<g>
		<polygon class="st1" points="850.61,1453.77 774.49,1383.63 698.57,1453.98 705.95,1350.74 603.61,1335.25 688.94,1276.65 
			637.24,1186.97 736.25,1217.15 774.13,1120.82 812.27,1217.04 911.2,1186.59 859.75,1276.41 945.24,1334.77 842.94,1350.55 		"/>
	</g>
	<g>
		<polygon class="st1" points="1939.37,943.13 1897.4,904.45 1855.54,943.25 1859.62,886.32 1803.19,877.78 1850.23,845.47 
			1821.73,796.03 1876.32,812.67 1897.2,759.56 1918.23,812.61 1972.77,795.82 1944.41,845.34 1991.54,877.52 1935.14,886.22 		"/>
	</g>
	<g>
		<polygon class="st1" points="2239.78,1483.32 2197.81,1444.64 2155.95,1483.43 2160.03,1426.51 2103.6,1417.97 2150.64,1385.66 
			2122.14,1336.22 2176.73,1352.86 2197.61,1299.74 2218.64,1352.8 2273.19,1336.01 2244.82,1385.53 2291.95,1417.71 
			2235.55,1426.4 		"/>
	</g>
	<g>
		<polygon class="st1" points="2239.78,462.43 2197.81,423.75 2155.95,462.54 2160.03,405.62 2103.6,397.08 2150.64,364.77 
			2122.14,315.33 2176.73,331.97 2197.61,278.86 2218.64,331.91 2273.19,315.12 2244.82,364.64 2291.95,396.82 2235.55,405.52 		"/>
	</g>
	<g>
		<polygon class="st1" points="2602.63,753.42 2560.67,714.74 2518.81,753.53 2522.88,696.61 2466.45,688.07 2513.5,655.76 
			2484.99,606.32 2539.58,622.96 2560.46,569.84 2581.49,622.9 2636.04,606.11 2607.67,655.63 2654.8,687.81 2598.4,696.5 		"/>
	</g>
</g>
</svg>
