<?xml version="1.0" encoding="utf-8"?>
<!-- Generator: Adobe Illustrator 28.3.0, SVG Export Plug-In . SVG Version: 6.00 Build 0)  -->
<svg version="1.1" id="Flag" xmlns="http://www.w3.org/2000/svg" xmlns:xlink="http://www.w3.org/1999/xlink" x="0px" y="0px"
	 viewBox="0 0 1990 1050" style="enable-background:new 0 0 1990 1050;" xml:space="preserve">
<style type="text/css">
	.st0{fill-rule:evenodd;clip-rule:evenodd;fill:#EC1C24;}
	.st1{fill-rule:evenodd;clip-rule:evenodd;fill:#FFFFFF;}
</style>
<g>
	<g>
		<polygon class="st0" points="0,0 0,1050 497.5,1050 497.5,0 0,0 		"/>
		<polygon class="st1" points="497.5,0 497.5,1050 1492.5,1050 1492.5,0 497.5,0 		"/>
		<polygon class="st0" points="1990,0 1492.5,0 1492.5,1050 1990,1050 1990,0 		"/>
	</g>
	<path class="st0" d="M995,853.33h11.84l-3.8-153.38l10.87-9.14c49.14,5.72,93.14,10.89,142.21,16.75l-12.43-41.93
		c-2-7.38,0.82-15.4,6.4-19.89l142.67-118.6l-29.57-14.24c-12.96-4.75-9.31-12.19-4.69-30.18l21.74-81.06l-82.79,17.82
		c-8.12,1.26-13.49-4.01-14.67-8.99l-10.72-38.14l-65.51,75.1c-9.31,12.03-28.15,12.03-22.27-15.79l27.99-152.13l-37.53,19.93
		c-10.57,5.99-21.06,6.99-27.04-3.76l-52.7-99l-52.72,98.98c-5.87,10.75-16.44,9.78-26.95,3.78l-37.53-19.93l28.01,152.11
		c5.8,27.85-13.04,27.85-22.35,15.81l-65.51-75.1l-10.66,38.14c-1.27,4.98-6.54,10.25-14.67,9.01l-82.86-17.84l21.74,81.04
		c4.69,17.98,8.34,25.45-4.62,30.22l-29.63,14.22l142.67,118.58c5.65,4.48,8.55,12.55,6.54,19.91l-12.51,41.93
		c49.07-5.85,93.07-11,142.21-16.75l10.87,9.14l-3.78,153.38H995L995,853.33z"/>
</g>
</svg>
