<?xml version="1.0" encoding="utf-8"?>
<!-- Generator: Adobe Illustrator 28.3.0, SVG Export Plug-In . SVG Version: 6.00 Build 0)  -->
<svg version="1.1" id="Flag" xmlns="http://www.w3.org/2000/svg" xmlns:xlink="http://www.w3.org/1999/xlink" x="0px" y="0px"
	 viewBox="0 0 1990 1050" style="enable-background:new 0 0 1990 1050;" xml:space="preserve">
<style type="text/css">
	.st0{fill:#00247D;}
	.st1{fill:#FFFFFF;}
	.st2{fill:#CE1124;}
	.st3{fill:#ED1C24;}
</style>
<g>
	<g>
		<g>
			<rect x="0.38" y="0.79" class="st0" width="1989.62" height="1049.21"/>
		</g>
		<g>
			<g>
				<g>
					<rect y="0.05" class="st1" width="999.33" height="534.16"/>
				</g>
				<g>
					<polygon class="st2" points="999.4,213.79 559.38,213.79 559.38,0.08 439.27,0.08 439.27,213.79 0.42,213.79 0.42,320.58 
						439.27,320.58 439.27,534.21 559.38,534.21 559.38,320.58 999.4,320.58 					"/>
				</g>
			</g>
			<g>
				<g>
					<polygon class="st0" points="0.01,62.25 0.01,178.55 217.98,178.55 					"/>
				</g>
				<g>
					<polygon class="st0" points="120.26,0.02 117.07,0.17 399.69,151.77 399.69,0.02 					"/>
				</g>
				<g>
					<polygon class="st2" points="335.44,177.82 0.01,0.05 0.01,41.95 255.51,177.82 					"/>
				</g>
				<g>
					<polygon class="st2" points="664.15,356.39 999.58,534.15 999.58,492.26 744.08,356.39 					"/>
				</g>
			</g>
			<g>
				<g>
					<polygon class="st0" points="0.01,472.86 0.01,356.55 217.98,356.55 					"/>
				</g>
				<g>
					<polygon class="st0" points="120.26,535.08 117.07,534.93 399.69,383.33 399.69,535.08 					"/>
				</g>
				<g>
					<polygon class="st2" points="333.72,356.38 0.23,534.06 78.22,534.14 400.01,363.61 400.01,356.38 					"/>
				</g>
			</g>
			<g>
				<g>
					<polygon class="st0" points="999.59,62.22 999.59,178.52 781.62,178.52 					"/>
				</g>
				<g>
					<polygon class="st0" points="879.34,0 882.53,0.15 599.9,151.75 599.9,0 					"/>
				</g>
				<g>
					<polygon class="st2" points="999.26,0.25 924.25,0.24 600.19,171.98 600.19,178 668.75,178 					"/>
				</g>
			</g>
			<g>
				<g>
					<polygon class="st0" points="999.59,472.81 999.59,356.51 781.62,356.51 					"/>
				</g>
				<g>
					<polygon class="st0" points="879.34,535.04 882.53,534.89 599.9,383.29 599.9,535.04 					"/>
				</g>
			</g>
		</g>
	</g>
	<g>
		<polygon class="st3" points="1265.97,371.72 1284.25,431.15 1343.43,431.15 1295.56,467.89 1313.84,527.33 1265.97,490.59 
			1218.09,527.33 1236.38,467.89 1188.5,431.15 1247.68,431.15 		"/>
		<path class="st1" d="M1323.33,541.11l-57.37-44.01l-57.37,44.01l21.91-71.21l-57.36-44.01h70.9l21.91-71.21l21.91,71.21h70.9
			l-57.36,44.01L1323.33,541.11z M1265.97,484.08l38.39,29.45l-14.66-47.66l38.39-29.45h-47.45l-14.66-47.66l-14.66,47.66h-47.45
			l38.39,29.45l-14.66,47.66L1265.97,484.08z"/>
	</g>
	<g>
		<polygon class="st3" points="1497.21,127.53 1515.5,186.96 1574.68,186.96 1526.8,223.69 1545.09,283.13 1497.21,246.39 
			1449.33,283.13 1467.62,223.69 1419.74,186.96 1478.92,186.96 		"/>
		<path class="st1" d="M1554.58,296.92l-57.37-44.01l-57.36,44.01l21.91-71.21l-57.36-44.01h70.91l21.91-71.21l21.91,71.21h70.91
			l-57.36,44.01L1554.58,296.92z M1497.21,239.89l38.39,29.45l-14.67-47.66l38.39-29.46h-47.45l-14.67-47.66l-14.66,47.66h-47.46
			l38.39,29.46l-14.66,47.66L1497.21,239.89z"/>
	</g>
	<g>
		<polygon class="st3" points="1694.36,305.97 1712.65,365.41 1771.83,365.41 1723.96,402.15 1742.24,461.58 1694.36,424.85 
			1646.49,461.58 1664.77,402.15 1616.9,365.41 1676.08,365.41 		"/>
		<path class="st1" d="M1751.73,475.37l-57.36-44.01L1637,475.37l21.91-71.21l-57.36-44.01h70.91l21.91-71.21l21.91,71.21h70.91
			l-57.36,44.01L1751.73,475.37z M1694.36,418.34l38.39,29.45l-14.66-47.66l38.39-29.45h-47.46l-14.66-47.66l-14.66,47.66h-47.46
			l38.39,29.45l-14.66,47.66L1694.36,418.34z"/>
	</g>
	<g>
		<polygon class="st3" points="1497.11,753.59 1516.25,815.81 1578.21,815.81 1528.09,854.26 1547.23,916.48 1497.11,878.03 
			1446.99,916.48 1466.13,854.26 1416.02,815.81 1477.96,815.81 		"/>
		<path class="st1" d="M1556.72,930.27l-59.61-45.73l-59.61,45.73l22.77-74l-59.6-45.73h73.68l22.76-73.99l22.77,73.99h73.68
			l-59.61,45.73L1556.72,930.27z M1497.11,871.52l40.63,31.17l-15.52-50.44l40.63-31.18h-50.22l-15.52-50.44l-15.52,50.44h-50.23
			l40.63,31.18l-15.52,50.44L1497.11,871.52z"/>
	</g>
</g>
</svg>
