<?xml version="1.0" encoding="utf-8"?>
<!-- Generator: Adobe Illustrator 28.3.0, SVG Export Plug-In . SVG Version: 6.00 Build 0)  -->
<svg version="1.1" id="Layer_1" xmlns="http://www.w3.org/2000/svg" xmlns:xlink="http://www.w3.org/1999/xlink" x="0px" y="0px"
	 viewBox="0 0 800 418.8" style="enable-background:new 0 0 800 418.8;" xml:space="preserve">
<style type="text/css">
	.st0{fill:url(#SVGID_1_);}
	.st1{fill:url(#rect156_00000079463107346252159940000016470873302915715237_);}
	.st2{fill:url(#rect158_00000074416935297632785070000016924341044018949275_);}
	.st3{fill:url(#rect160_00000119804475856851092560000006474496160726970805_);}
	.st4{fill:url(#rect162_00000018958684535479410160000002566261086196553096_);}
	.st5{fill:url(#rect164_00000180349479373056437930000010822132876225890708_);}
	.st6{fill:url(#rect166_00000109021151480453648980000001359455755246578600_);}
	.st7{fill:url(#rect168_00000139973298723301442400000001976316753114948737_);}
	.st8{fill:#FFFFFF;}
	.st9{fill:url(#rect200_00000177462055537761326030000012668253466575759541_);}
</style>
<g id="object">
	<g>
		
			<radialGradient id="SVGID_1_" cx="400.3274" cy="592.1143" r="319.3672" gradientTransform="matrix(1 0 0 -1 0 802)" gradientUnits="userSpaceOnUse">
			<stop  offset="0" style="stop-color:#F1F2F2"/>
			<stop  offset="0.6317" style="stop-color:#ECEDEE"/>
			<stop  offset="1" style="stop-color:#E6E7E8"/>
		</radialGradient>
		<rect y="0.8" class="st0" width="800.7" height="418.2"/>
		<g>
			<g id="g390">
				<g id="g169">
					
						<radialGradient id="rect156_00000143586641747449704720000000014552158587483537_" cx="400.097" cy="786.0469" r="282.4092" gradientTransform="matrix(1.0029 0 0 -0.997 -1.0009 799.796)" gradientUnits="userSpaceOnUse">
						<stop  offset="0" style="stop-color:#ED1C24"/>
						<stop  offset="1" style="stop-color:#901E21"/>
					</radialGradient>
					
						<rect id="rect156" x="0" style="fill:url(#rect156_00000143586641747449704720000000014552158587483537_);" width="800.4" height="32.2"/>
					
						<radialGradient id="rect158_00000153705658690996652340000008086295002051574661_" cx="400.097" cy="721.4258" r="282.4092" gradientTransform="matrix(1.0029 0 0 -0.997 -1.0009 799.796)" gradientUnits="userSpaceOnUse">
						<stop  offset="0" style="stop-color:#ED1C24"/>
						<stop  offset="1" style="stop-color:#901E21"/>
					</radialGradient>
					
						<rect id="rect158" x="0" y="64.4" style="fill:url(#rect158_00000153705658690996652340000008086295002051574661_);" width="800.4" height="32.2"/>
					
						<radialGradient id="rect160_00000014609417280982219390000010534705954777912233_" cx="400.097" cy="656.8054" r="282.4092" gradientTransform="matrix(1.0029 0 0 -0.997 -1.0009 799.796)" gradientUnits="userSpaceOnUse">
						<stop  offset="0" style="stop-color:#ED1C24"/>
						<stop  offset="1" style="stop-color:#901E21"/>
					</radialGradient>
					
						<rect id="rect160" x="0" y="128.9" style="fill:url(#rect160_00000014609417280982219390000010534705954777912233_);" width="800.4" height="32.2"/>
					
						<radialGradient id="rect162_00000034073251655732446570000013517805689694616721_" cx="400.097" cy="592.1843" r="282.4092" gradientTransform="matrix(1.0029 0 0 -0.997 -1.0009 799.796)" gradientUnits="userSpaceOnUse">
						<stop  offset="0" style="stop-color:#ED1C24"/>
						<stop  offset="1" style="stop-color:#901E21"/>
					</radialGradient>
					
						<rect id="rect162" x="0" y="193.3" style="fill:url(#rect162_00000034073251655732446570000013517805689694616721_);" width="800.4" height="32.2"/>
					
						<radialGradient id="rect164_00000182492971295880357580000013178045471923188119_" cx="400.097" cy="527.561" r="282.4092" gradientTransform="matrix(1.0029 0 0 -0.997 -1.0009 799.796)" gradientUnits="userSpaceOnUse">
						<stop  offset="0" style="stop-color:#ED1C24"/>
						<stop  offset="1" style="stop-color:#901E21"/>
					</radialGradient>
					
						<rect id="rect164" x="0" y="257.7" style="fill:url(#rect164_00000182492971295880357580000013178045471923188119_);" width="800.4" height="32.2"/>
					
						<radialGradient id="rect166_00000049942669142399051010000016293142701425317251_" cx="400.097" cy="462.9394" r="282.4092" gradientTransform="matrix(1.0029 0 0 -0.997 -1.0009 799.796)" gradientUnits="userSpaceOnUse">
						<stop  offset="0" style="stop-color:#ED1C24"/>
						<stop  offset="1" style="stop-color:#901E21"/>
					</radialGradient>
					
						<rect id="rect166" x="0" y="322.1" style="fill:url(#rect166_00000049942669142399051010000016293142701425317251_);" width="800.4" height="32.2"/>
					
						<radialGradient id="rect168_00000011712466066702697680000016774156522502601357_" cx="400.097" cy="398.3189" r="282.4091" gradientTransform="matrix(1.0029 0 0 -0.997 -1.0009 799.796)" gradientUnits="userSpaceOnUse">
						<stop  offset="0" style="stop-color:#ED1C24"/>
						<stop  offset="1" style="stop-color:#901E21"/>
					</radialGradient>
					
						<rect id="rect168" x="0" y="386.6" style="fill:url(#rect168_00000011712466066702697680000016774156522502601357_);" width="800.4" height="32.2"/>
				</g>
				<g id="g177">
					<rect id="rect157" x="0" y="32.2" class="st8" width="800.4" height="32.2"/>
					<rect id="rect159" x="0" y="96.6" class="st8" width="800.4" height="32.2"/>
					<rect id="rect161" x="0" y="161.1" class="st8" width="800.4" height="32.2"/>
					<rect id="rect163" x="0" y="225.5" class="st8" width="800.4" height="32.2"/>
					<rect id="rect165" x="0" y="289.9" class="st8" width="800.4" height="32.2"/>
					<rect id="rect167" x="0" y="354.4" class="st8" width="800.4" height="32.2"/>
				</g>
			</g>
			
				<linearGradient id="rect200_00000182507684143829861070000007626506674391032751_" gradientUnits="userSpaceOnUse" x1="160.1249" y1="576.5056" x2="160.1249" y2="802" gradientTransform="matrix(1 0 0 -1 0 802)">
				<stop  offset="0" style="stop-color:#0C0BCD"/>
				<stop  offset="0.8545" style="stop-color:#211E71"/>
			</linearGradient>
			
				<rect id="rect200" x="0" style="fill:url(#rect200_00000182507684143829861070000007626506674391032751_);" width="320.2" height="225.5"/>
			<g id="g274">
				<g id="g218">
					<g id="g194">
						<polygon id="polygon207" class="st8" points="26.7,9.7 29.6,18.6 39.1,18.6 31.4,24.1 34.3,33 26.7,27.5 19.1,33 22,24.1 
							14.4,18.6 23.8,18.6 						"/>
						<polygon id="polygon188" class="st8" points="80.1,9.7 83,18.6 92.4,18.6 84.8,24.1 87.7,33 80.1,27.5 72.5,33 75.4,24.1 
							67.7,18.6 77.2,18.6 						"/>
						<polygon id="polygon189" class="st8" points="133.4,9.7 136.4,18.6 145.8,18.6 138.2,24.1 141.1,33 133.4,27.5 125.8,33 
							128.7,24.1 121.1,18.6 130.5,18.6 						"/>
						<polygon id="polygon190" class="st8" points="186.8,9.7 189.7,18.6 199.1,18.6 191.5,24.1 194.4,33 186.8,27.5 179.2,33 
							182.1,24.1 174.5,18.6 183.9,18.6 						"/>
						<polygon id="polygon191" class="st8" points="240.2,9.7 243.1,18.6 252.5,18.6 244.9,24.1 247.8,33 240.2,27.5 232.5,33 
							235.5,24.1 227.8,18.6 237.3,18.6 						"/>
						<polygon id="polygon192" class="st8" points="293.5,9.7 296.4,18.6 305.9,18.6 298.2,24.1 301.2,33 293.5,27.5 285.9,33 
							288.8,24.1 281.2,18.6 290.6,18.6 						"/>
					</g>
					<g id="g205">
						<polygon id="polygon193" class="st8" points="53.4,32.2 56.3,41.1 65.7,41.1 58.1,46.6 61,55.5 53.4,50 45.8,55.5 48.7,46.6 
							41.1,41.1 50.5,41.1 						"/>
						<polygon id="polygon201" class="st8" points="106.8,32.2 109.7,41.1 119.1,41.1 111.5,46.6 114.4,55.5 106.8,50 99.1,55.5 
							102,46.6 94.4,41.1 103.8,41.1 						"/>
						<polygon id="polygon202" class="st8" points="160.1,32.2 163,41.1 172.5,41.1 164.8,46.6 167.8,55.5 160.1,50 152.5,55.5 
							155.4,46.6 147.8,41.1 157.2,41.1 						"/>
						<polygon id="polygon203" class="st8" points="213.5,32.2 216.4,41.1 225.8,41.1 218.2,46.6 221.1,55.5 213.5,50 205.9,55.5 
							208.8,46.6 201.1,41.1 210.6,41.1 						"/>
						<polygon id="polygon204" class="st8" points="266.9,32.2 269.8,41.1 279.2,41.1 271.6,46.6 274.5,55.5 266.9,50 259.2,55.5 
							262.1,46.6 254.5,41.1 263.9,41.1 						"/>
					</g>
				</g>
				<g id="g232" transform="translate(0,14)">
					<g id="g233">
						<polygon id="polygon234" class="st8" points="26.7,40.8 29.6,49.7 39.1,49.7 31.4,55.2 34.3,64.1 26.7,58.6 19.1,64.1 
							22,55.2 14.4,49.7 23.8,49.7 						"/>
						<polygon id="polygon235" class="st8" points="80.1,40.8 83,49.7 92.4,49.7 84.8,55.2 87.7,64.1 80.1,58.6 72.5,64.1 
							75.4,55.2 67.7,49.7 77.2,49.7 						"/>
						<polygon id="polygon236" class="st8" points="133.4,40.8 136.4,49.7 145.8,49.7 138.2,55.2 141.1,64.1 133.4,58.6 125.8,64.1 
							128.7,55.2 121.1,49.7 130.5,49.7 						"/>
						<polygon id="polygon237" class="st8" points="186.8,40.8 189.7,49.7 199.1,49.7 191.5,55.2 194.4,64.1 186.8,58.6 179.2,64.1 
							182.1,55.2 174.5,49.7 183.9,49.7 						"/>
						<polygon id="polygon238" class="st8" points="240.2,40.8 243.1,49.7 252.5,49.7 244.9,55.2 247.8,64.1 240.2,58.6 232.5,64.1 
							235.5,55.2 227.8,49.7 237.3,49.7 						"/>
						<polygon id="polygon239" class="st8" points="293.5,40.8 296.4,49.7 305.9,49.7 298.2,55.2 301.2,64.1 293.5,58.6 285.9,64.1 
							288.8,55.2 281.2,49.7 290.6,49.7 						"/>
					</g>
					<g id="g240">
						<polygon id="polygon241" class="st8" points="53.4,63.3 56.3,72.2 65.7,72.2 58.1,77.7 61,86.6 53.4,81.1 45.8,86.6 
							48.7,77.7 41.1,72.2 50.5,72.2 						"/>
						<polygon id="polygon242" class="st8" points="106.8,63.3 109.7,72.2 119.1,72.2 111.5,77.7 114.4,86.6 106.8,81.1 99.1,86.6 
							102,77.7 94.4,72.2 103.8,72.2 						"/>
						<polygon id="polygon243" class="st8" points="160.1,63.3 163,72.2 172.5,72.2 164.8,77.7 167.8,86.6 160.1,81.1 152.5,86.6 
							155.4,77.7 147.8,72.2 157.2,72.2 						"/>
						<polygon id="polygon244" class="st8" points="213.5,63.3 216.4,72.2 225.8,72.2 218.2,77.7 221.1,86.6 213.5,81.1 205.9,86.6 
							208.8,77.7 201.1,72.2 210.6,72.2 						"/>
						<polygon id="polygon245" class="st8" points="266.9,63.3 269.8,72.2 279.2,72.2 271.6,77.7 274.5,86.6 266.9,81.1 259.2,86.6 
							262.1,77.7 254.5,72.2 263.9,72.2 						"/>
					</g>
				</g>
				<g id="g246" transform="translate(0,28)">
					<g id="g247">
						<polygon id="polygon248" class="st8" points="26.7,71.9 29.6,80.8 39.1,80.8 31.4,86.3 34.3,95.2 26.7,89.7 19.1,95.2 
							22,86.3 14.4,80.8 23.8,80.8 						"/>
						<polygon id="polygon249" class="st8" points="80.1,71.9 83,80.8 92.4,80.8 84.8,86.3 87.7,95.2 80.1,89.7 72.5,95.2 
							75.4,86.3 67.7,80.8 77.2,80.8 						"/>
						<polygon id="polygon250" class="st8" points="133.4,71.9 136.4,80.8 145.8,80.8 138.2,86.3 141.1,95.2 133.4,89.7 125.8,95.2 
							128.7,86.3 121.1,80.8 130.5,80.8 						"/>
						<polygon id="polygon251" class="st8" points="186.8,71.9 189.7,80.8 199.1,80.8 191.5,86.3 194.4,95.2 186.8,89.7 179.2,95.2 
							182.1,86.3 174.5,80.8 183.9,80.8 						"/>
						<polygon id="polygon252" class="st8" points="240.2,71.9 243.1,80.8 252.5,80.8 244.9,86.3 247.8,95.2 240.2,89.7 232.5,95.2 
							235.5,86.3 227.8,80.8 237.3,80.8 						"/>
						<polygon id="polygon253" class="st8" points="293.5,71.9 296.4,80.8 305.9,80.8 298.2,86.3 301.2,95.2 293.5,89.7 285.9,95.2 
							288.8,86.3 281.2,80.8 290.6,80.8 						"/>
					</g>
					<g id="g254">
						<polygon id="polygon255" class="st8" points="53.4,94.4 56.3,103.3 65.7,103.3 58.1,108.8 61,117.7 53.4,112.2 45.8,117.7 
							48.7,108.8 41.1,103.3 50.5,103.3 						"/>
						<polygon id="polygon256" class="st8" points="106.8,94.4 109.7,103.3 119.1,103.3 111.5,108.8 114.4,117.7 106.8,112.2 
							99.1,117.7 102,108.8 94.4,103.3 103.8,103.3 						"/>
						<polygon id="polygon257" class="st8" points="160.1,94.4 163,103.3 172.5,103.3 164.8,108.8 167.8,117.7 160.1,112.2 
							152.5,117.7 155.4,108.8 147.8,103.3 157.2,103.3 						"/>
						<polygon id="polygon258" class="st8" points="213.5,94.4 216.4,103.3 225.8,103.3 218.2,108.8 221.1,117.7 213.5,112.2 
							205.9,117.7 208.8,108.8 201.1,103.3 210.6,103.3 						"/>
						<polygon id="polygon259" class="st8" points="266.9,94.4 269.8,103.3 279.2,103.3 271.6,108.8 274.5,117.7 266.9,112.2 
							259.2,117.7 262.1,108.8 254.5,103.3 263.9,103.3 						"/>
					</g>
				</g>
				<g id="g260" transform="translate(0,42)">
					<g id="g261">
						<polygon id="polygon262" class="st8" points="26.7,102.9 29.6,111.9 39.1,111.9 31.4,117.4 34.3,126.3 26.7,120.8 19.1,126.3 
							22,117.4 14.4,111.9 23.8,111.9 						"/>
						<polygon id="polygon263" class="st8" points="80.1,102.9 83,111.9 92.4,111.9 84.8,117.4 87.7,126.3 80.1,120.8 72.5,126.3 
							75.4,117.4 67.7,111.9 77.2,111.9 						"/>
						<polygon id="polygon264" class="st8" points="133.4,102.9 136.4,111.9 145.8,111.9 138.2,117.4 141.1,126.3 133.4,120.8 
							125.8,126.3 128.7,117.4 121.1,111.9 130.5,111.9 						"/>
						<polygon id="polygon265" class="st8" points="186.8,102.9 189.7,111.9 199.1,111.9 191.5,117.4 194.4,126.3 186.8,120.8 
							179.2,126.3 182.1,117.4 174.5,111.9 183.9,111.9 						"/>
						<polygon id="polygon266" class="st8" points="240.2,102.9 243.1,111.9 252.5,111.9 244.9,117.4 247.8,126.3 240.2,120.8 
							232.5,126.3 235.5,117.4 227.8,111.9 237.3,111.9 						"/>
						<polygon id="polygon267" class="st8" points="293.5,102.9 296.4,111.9 305.9,111.9 298.2,117.4 301.2,126.3 293.5,120.8 
							285.9,126.3 288.8,117.4 281.2,111.9 290.6,111.9 						"/>
					</g>
					<g id="g268">
						<polygon id="polygon269" class="st8" points="53.4,125.5 56.3,134.4 65.7,134.4 58.1,139.9 61,148.8 53.4,143.3 45.8,148.8 
							48.7,139.9 41.1,134.4 50.5,134.4 						"/>
						<polygon id="polygon270" class="st8" points="106.8,125.5 109.7,134.4 119.1,134.4 111.5,139.9 114.4,148.8 106.8,143.3 
							99.1,148.8 102,139.9 94.4,134.4 103.8,134.4 						"/>
						<polygon id="polygon271" class="st8" points="160.1,125.5 163,134.4 172.5,134.4 164.8,139.9 167.8,148.8 160.1,143.3 
							152.5,148.8 155.4,139.9 147.8,134.4 157.2,134.4 						"/>
						<polygon id="polygon272" class="st8" points="213.5,125.5 216.4,134.4 225.8,134.4 218.2,139.9 221.1,148.8 213.5,143.3 
							205.9,148.8 208.8,139.9 201.1,134.4 210.6,134.4 						"/>
						<polygon id="polygon273" class="st8" points="266.9,125.5 269.8,134.4 279.2,134.4 271.6,139.9 274.5,148.8 266.9,143.3 
							259.2,148.8 262.1,139.9 254.5,134.4 263.9,134.4 						"/>
					</g>
				</g>
				<g id="g211" transform="translate(0,56)">
					<polygon id="polygon212" class="st8" points="26.7,134 29.6,143 39.1,143 31.4,148.5 34.3,157.4 26.7,151.9 19.1,157.4 
						22,148.5 14.4,143 23.8,143 					"/>
					<polygon id="polygon213" class="st8" points="80.1,134 83,143 92.4,143 84.8,148.5 87.7,157.4 80.1,151.9 72.5,157.4 
						75.4,148.5 67.7,143 77.2,143 					"/>
					<polygon id="polygon214" class="st8" points="133.4,134 136.4,143 145.8,143 138.2,148.5 141.1,157.4 133.4,151.9 125.8,157.4 
						128.7,148.5 121.1,143 130.5,143 					"/>
					<polygon id="polygon215" class="st8" points="186.8,134 189.7,143 199.1,143 191.5,148.5 194.4,157.4 186.8,151.9 179.2,157.4 
						182.1,148.5 174.5,143 183.9,143 					"/>
					<polygon id="polygon216" class="st8" points="240.2,134 243.1,143 252.5,143 244.9,148.5 247.8,157.4 240.2,151.9 232.5,157.4 
						235.5,148.5 227.8,143 237.3,143 					"/>
					<polygon id="polygon217" class="st8" points="293.5,134 296.4,143 305.9,143 298.2,148.5 301.2,157.4 293.5,151.9 285.9,157.4 
						288.8,148.5 281.2,143 290.6,143 					"/>
				</g>
			</g>
		</g>
	</g>
</g>
</svg>
