<svg width="122" height="159" viewBox="0 0 122 159" fill="none" xmlns="http://www.w3.org/2000/svg">
<g id="Group">
<path id="Vector" d="M43.8772 33.373C43.1959 33.373 42.6248 33.9456 42.6248 34.6464V42.7974C42.6248 47.955 46.809 52.1586 51.9589 52.1586C57.1088 52.1586 61.2767 47.955 61.2767 42.7974V34.6464C61.2767 33.9456 60.7208 33.373 60.0244 33.373H43.8772ZM58.7569 42.7974C58.7569 46.5534 55.7148 49.6271 51.96 49.6271C48.2052 49.6271 45.1457 46.5534 45.1457 42.7974V35.9046H58.758V42.7974H58.7569Z" fill="white"/>
<path id="Vector_2" d="M40.304 32.3618H63.6029C64.2983 32.3618 64.8628 31.7947 64.8628 31.095C64.8628 30.3953 64.2983 29.8281 63.6029 29.8281H54.9989L61.1166 23.685C61.6087 23.1907 61.6087 22.3899 61.1166 21.8945C60.6235 21.4012 59.8254 21.4012 59.3355 21.8945L53.2134 28.0408V19.3966C53.2134 18.6991 52.6499 18.1309 51.9535 18.1309C51.257 18.1309 50.6936 18.698 50.6936 19.3966V28.0386L44.5736 21.8934C44.0826 21.4001 43.2845 21.4001 42.7914 21.8934C42.3004 22.3889 42.3004 23.1896 42.7914 23.684L48.9092 29.827H40.303C39.6065 29.827 39.0431 30.3953 39.0431 31.0939C39.0431 31.7925 39.6065 32.3607 40.303 32.3607L40.304 32.3618Z" fill="white"/>
<path id="Vector_3" d="M121.915 145.323C119.594 139.297 112.717 135.249 104.804 135.249C100.076 135.249 95.7189 136.695 92.481 139.145C91.1108 136.724 88.1379 135.149 84.7832 135.149C83.4141 135.149 82.1088 135.412 80.9506 135.888C78.991 131.646 75.3421 128.192 70.7222 125.949V94.2684C71.3872 93.9804 71.9896 93.4719 72.3216 92.9472L79.0083 82.6461C79.483 82.8058 79.9913 82.8851 80.4812 82.8851C82.1931 82.8851 83.8727 81.9464 84.7443 80.2905C85.3305 79.1606 85.4429 77.8546 85.046 76.629C84.8384 75.9608 84.4902 75.3546 84.0305 74.8461L84.315 74.3843C84.7281 73.7628 84.8698 73.0142 84.6956 72.2819C84.5226 71.4866 84.0143 70.7869 83.2865 70.3404L72.3843 64.2429C71.702 63.8931 70.8638 63.8127 70.1349 64.0365C68.4392 58.1607 62.9876 53.9266 56.7443 53.9266H43.4814L31.6124 43.2615C31.4383 43.1018 31.2328 43.0062 31.01 42.9584L27.6824 5.12101H28.6546C29.35 5.12101 29.9145 4.55386 29.9145 3.85524C29.9145 3.27831 29.5306 2.79155 29.005 2.63835C29.164 2.42648 29.2602 2.16355 29.2602 1.87671C29.2602 1.17809 28.6957 0.609863 27.9992 0.609863H24.1147C23.4193 0.609863 22.8548 1.17701 22.8548 1.87671C22.8548 2.26568 23.03 2.61337 23.3046 2.84588C23.0018 3.0773 22.805 3.44237 22.805 3.85415C22.805 4.17141 22.9218 4.46042 23.1132 4.68206C23.1035 4.70597 23.1024 4.72226 23.1024 4.74943C23.0386 13.712 22.5314 20.4298 22.1194 25.8275C21.1212 39.1991 20.6929 44.8043 29.5987 55.6617L29.6614 60.1186C29.6614 60.3098 29.709 60.4836 29.788 60.6444C29.8518 60.915 30.0097 61.1703 30.2476 61.3615L38.7403 68.0641V91.1642L35.7144 93.1851C35.603 93.2492 35.524 93.3448 35.4451 93.4404C35.4288 93.4556 35.3975 93.4893 35.3813 93.5197C35.3175 93.6164 35.2699 93.711 35.2385 93.8229C35.2071 93.8718 35.1909 93.9174 35.1909 93.9815C35.1747 94.0608 35.1596 94.1564 35.1596 94.2369V135.054C35.1596 135.116 35.1596 135.164 35.1747 135.226C34.9855 135.594 34.8092 135.968 34.648 136.349C33.9927 136.261 33.32 136.214 32.6365 136.214C27.3558 136.214 22.7682 138.942 21.2218 143.001C20.9741 143.654 21.2996 144.386 21.9485 144.637C22.6039 144.891 23.3284 144.562 23.575 143.906C24.7322 140.869 28.4589 138.747 32.6365 138.747C36.8142 138.747 40.5409 140.869 41.697 143.906C41.8895 144.411 42.3675 144.721 42.8736 144.721C43.0239 144.721 43.1753 144.693 43.3235 144.637C43.9734 144.388 44.2989 143.655 44.0513 143.001C42.9709 140.164 40.4035 137.979 37.1538 136.92C40.2424 130.229 48.6096 125.632 57.9026 125.632C67.1955 125.632 75.7228 130.348 78.7628 137.179C77.8349 137.938 77.1179 138.88 76.6994 139.955C76.4441 140.608 76.7664 141.341 77.411 141.596C78.0577 141.855 78.7909 141.529 79.045 140.879C79.7912 138.969 82.0947 137.684 84.78 137.684C87.4652 137.684 89.7687 138.968 90.516 140.879C90.5182 140.885 90.5204 140.889 90.5225 140.894C89.2897 142.198 88.3228 143.689 87.6923 145.326C87.4988 145.826 87.6437 146.37 88.0125 146.713C84.8708 144.122 80.4639 142.544 75.7542 142.544C71.2867 142.544 67.1761 143.901 64.1199 146.201C62.8221 143.951 59.9768 142.443 56.8428 142.443C53.3259 142.443 50.1658 144.345 49.1568 147.066C48.9157 147.72 49.2466 148.449 49.8998 148.693C50.5465 148.935 51.2776 148.602 51.5187 147.949C52.1557 146.225 54.3965 144.976 56.8438 144.976C59.2912 144.976 61.5298 146.225 62.1689 147.949C62.1689 147.95 62.17 147.951 62.1711 147.953C61.028 149.182 60.1325 150.584 59.5507 152.121C59.302 152.774 59.6297 153.507 60.2796 153.753C60.9328 153.995 61.6585 153.674 61.9061 153.021C63.6743 148.345 69.3714 145.079 75.7553 145.079C82.1391 145.079 87.8881 148.345 89.6563 153.021C89.8488 153.526 90.3246 153.839 90.8361 153.839C90.9843 153.839 91.1357 153.811 91.2828 153.753C91.9327 153.505 92.2593 152.773 92.0117 152.121C91.2449 150.094 89.8899 148.287 88.1228 146.804C88.2104 146.868 88.3066 146.923 88.4126 146.965C89.0626 147.225 89.7925 146.895 90.0424 146.243C91.9619 141.264 98.0322 137.787 104.804 137.787C111.576 137.787 117.648 141.264 119.567 146.243C119.761 146.744 120.234 147.052 120.739 147.052C120.89 147.052 121.047 147.023 121.195 146.965C121.843 146.713 122.167 145.98 121.914 145.327L121.915 145.323ZM71.2121 66.4865L82.019 72.5351C82.1293 72.5992 82.2094 72.7263 82.2094 72.9969L81.939 73.426L80.1654 72.5036C79.5468 72.1852 78.8017 72.4232 78.4697 73.0447C78.1528 73.665 78.3908 74.4299 79.0083 74.7472L81.527 76.0532C82.0655 76.3563 82.4614 76.8333 82.6517 77.4059C82.842 77.9795 82.7782 78.5836 82.5089 79.1095C81.9066 80.2243 80.5439 80.6697 79.4506 80.0971L77.7397 79.2377C77.1049 78.9183 76.3446 79.1736 76.044 79.794C75.7261 80.4155 75.9802 81.1793 76.5988 81.4976L76.7091 81.5454L70.2128 91.5749C70.1803 91.6238 70.1338 91.6695 70.07 91.7184C69.8948 91.0349 69.6569 89.9984 69.3876 88.7891V88.7739L78.0393 76.691C78.4524 76.1173 78.3096 75.3372 77.7549 74.9232C77.1838 74.5245 76.3911 74.6527 75.9953 75.209L68.7225 85.383C68.4381 83.9651 68.1688 82.5005 67.9309 81.2271L74.3331 71.6909C74.7138 71.1183 74.5711 70.3382 73.9849 69.9394C73.4139 69.557 72.6212 69.7004 72.2427 70.2893L67.3621 77.5656C67.3448 77.4537 67.3296 77.3744 67.3296 77.295L70.7524 66.4855C70.8152 66.4366 71.0693 66.4061 71.2121 66.4855V66.4865ZM68.1061 66.4072C68.1061 66.4387 68.1223 66.4865 68.1223 66.5181V66.5354L64.8736 76.692C64.4302 78.1393 67.8682 93.184 67.8855 93.2329C67.9482 93.4546 68.0585 93.6621 68.2013 93.837V109.565L57.0461 117.303L57.0785 81.4509V81.1337L57.0936 56.6961C57.1412 56.632 57.1899 56.5527 57.2364 56.4734C62.7194 56.7113 67.3458 60.8987 68.1072 66.4072H68.1061ZM45.3036 64.8622L46.968 63.7171V85.6872L45.3036 86.7856V64.8633V64.8622ZM49.4867 61.9808L50.9607 60.9628L51.1035 82.9144L49.4867 83.9977V61.9797V61.9808ZM53.607 81.2445L53.4632 59.2439L54.5728 58.479L54.5576 80.6241L53.607 81.2445ZM41.897 64.1473L44.0524 56.4582H53.0533L41.8981 64.1473H41.897ZM24.6402 26.0188C24.9733 21.5924 25.3691 16.3065 25.5433 9.60499L29.1878 50.9963C23.3728 42.9084 23.7372 37.9735 24.6402 26.0188ZM32.1834 59.6731L32.0082 47.0165L41.6591 55.6617L39.0279 65.0687L32.1823 59.6731H32.1834ZM41.2633 67.648L42.7849 66.5963V88.4708L41.2633 89.491V67.648ZM54.5587 83.6489L54.5263 119.038L37.6826 130.707V94.9029L54.5598 83.6489H54.5587ZM52.3709 123.607L68.2002 112.639V124.879C65.0499 123.728 61.5568 123.096 57.9047 123.096C56.0165 123.096 54.1618 123.274 52.3698 123.608L52.3709 123.607Z" fill="white"/>
<path id="Vector_4" d="M24.6219 146.794C20.6724 146.954 17.0971 148.304 14.4767 150.459C13.1087 148.48 10.5153 147.307 7.73168 147.456C4.4646 147.572 1.74907 149.403 0.973664 152.003C0.773595 152.671 1.15211 153.375 1.81828 153.578C1.93941 153.615 2.06161 153.63 2.18057 153.63C2.72238 153.63 3.22309 153.277 3.38639 152.727C3.84493 151.19 5.67043 150.062 7.8474 149.982C9.93244 149.883 11.8953 150.812 12.6393 152.294C11.7104 153.428 10.9998 154.7 10.5619 156.08C10.3499 156.747 10.7154 157.459 11.3784 157.672C11.507 157.712 11.6357 157.731 11.7612 157.731C12.2954 157.731 12.7907 157.387 12.9616 156.849C14.2972 152.641 19.1324 149.547 24.7311 149.323C30.372 149.06 35.644 151.732 37.5485 155.836C37.8426 156.468 38.591 156.743 39.2226 156.446C39.8542 156.151 40.1267 155.398 39.8336 154.764C37.4706 149.676 31.3626 146.485 24.6219 146.792V146.794Z" fill="white"/>
<path id="Vector_5" d="M27.7657 156.315C23.6388 156.418 18.7561 156.466 16.7543 156.466C16.0578 156.466 15.4944 157.033 15.4944 157.732C15.4944 158.43 16.0578 159 16.7543 159C18.768 159 23.681 158.95 27.8306 158.845C28.5259 158.827 29.0753 158.247 29.058 157.547C29.0407 156.851 28.487 156.319 27.7657 156.316V156.315Z" fill="white"/>
<path id="Vector_6" d="M33.6693 156.218C33.1978 156.266 32.5359 156.263 31.7313 156.263C31.0338 156.263 30.4704 156.831 30.4704 157.531C30.4704 158.23 31.0338 158.798 31.7313 158.798C32.6419 158.798 33.3914 158.794 33.9267 158.737C34.6199 158.665 35.1228 158.045 35.0514 157.347C34.98 156.656 34.3604 156.169 33.6693 156.218Z" fill="white"/>
<path id="Vector_7" d="M114.791 148.163C114.217 148.163 113.538 148.164 112.651 148.214C111.956 148.252 111.426 148.851 111.464 149.55C111.503 150.223 112.059 150.744 112.718 150.744C112.743 150.744 112.768 150.743 112.791 150.74C113.619 150.696 114.222 150.733 114.79 150.696C115.486 150.696 116.051 150.126 116.051 149.428C116.051 148.729 115.486 148.162 114.79 148.162L114.791 148.163Z" fill="white"/>
<path id="Vector_8" d="M108.788 148.263C108.788 148.263 108.779 148.263 108.773 148.266L105.148 148.314C102.088 148.36 99.1968 148.398 97.7747 148.366C97.0556 148.362 96.5018 148.901 96.4856 149.603C96.4683 150.303 97.0209 150.881 97.7174 150.896C98.0992 150.907 98.5837 150.911 99.1428 150.911C100.723 150.911 102.908 150.878 105.186 150.846L108.806 150.796C109.5 150.789 110.058 150.215 110.051 149.517C110.043 148.822 109.48 148.264 108.79 148.264L108.788 148.263Z" fill="white"/>
<path id="Vector_9" d="M6.26414 145.936C7.2169 145.936 9.65883 145.885 11.8704 145.78C12.2576 145.762 12.5961 145.569 12.8134 145.282C13.1984 145.744 13.9619 145.737 14.494 145.698C14.6043 145.69 14.7027 145.683 14.7871 145.683C15.4825 145.683 16.047 145.113 16.047 144.416C16.047 143.718 15.4825 143.149 14.7871 143.149C14.6476 143.149 14.4843 143.161 14.3015 143.175C13.8095 143.211 13.113 143.254 12.7756 143.701C12.5323 143.411 12.1732 143.248 11.7525 143.251C9.58096 143.355 7.19419 143.402 6.26522 143.402C5.56768 143.402 5.00424 143.969 5.00424 144.669C5.00424 145.369 5.56768 145.936 6.26522 145.936H6.26414Z" fill="white"/>
</g>
</svg>
