<svg width="98" height="141" viewBox="0 0 98 141" fill="none" xmlns="http://www.w3.org/2000/svg">
<g id="Group">
<path id="Vector" d="M54.213 16.4222L40.0672 21.5677C38.935 21.9795 37.6419 21.3844 37.2281 20.2342C36.8143 19.0841 37.4354 17.8111 38.5676 17.3993L51.4316 12.72C52.6096 12.2915 52.6483 13.2911 53.0727 14.4708C53.4971 15.6505 55.3452 16.0103 54.213 16.4222Z" fill="#C41A1A"/>
<path id="Vector_2" d="M61.9573 24.8202C62.3659 25.9558 63.0958 26.6703 61.9626 27.0825L43.8831 33.658C42.7052 34.0864 41.4527 33.4605 41.0441 32.3248C40.6355 31.1891 41.2001 29.9035 42.378 29.4751L60.4576 22.8996C61.5897 22.4878 61.549 23.6855 61.9573 24.8202Z" fill="#C41A1A"/>
<path id="Vector_3" d="M64.1509 35.8233C64.5591 36.9574 65.7213 37.9878 64.5894 38.3993L18.0201 55.3292C16.8729 55.7463 16.2354 54.6783 15.8268 53.5433C15.4182 52.4082 14.4458 51.9529 15.5778 51.5414L63.102 34.2643C64.234 33.8527 63.7382 34.6736 64.1523 35.824L64.1509 35.8233Z" fill="#C41A1A"/>
<path id="Vector_4" d="M61.0027 49.4445C61.4164 50.5941 60.1698 52.33 59.0378 52.7416L30.6626 63.059C29.5295 63.4709 27.8684 63.1633 27.4601 62.0291C27.0944 61.013 26.2101 60.2881 26.7757 59.8462L26.791 59.8406C26.8688 59.7789 26.9528 59.7311 27.0881 59.6819L59.726 47.8147C59.845 47.7714 59.9497 47.7333 60.0346 47.7359C60.8623 47.5525 60.6223 48.3842 61.0037 49.4441L61.0027 49.4445Z" fill="#C41A1A"/>
<path id="Vector_5" d="M53.7354 64.9687C54.1437 66.1039 53.4514 67.32 52.3038 67.7376L45.104 70.3569C43.9564 70.7744 42.7585 69.9773 42.3498 68.841C42.0005 67.87 41.2753 67.3057 41.7718 66.9048C41.8598 66.8232 41.9893 66.7576 42.1673 66.6928L52.6471 62.8802C52.7813 62.8313 52.8906 62.8088 52.9765 62.811C53.7024 62.7661 53.3696 63.9518 53.7354 64.9687Z" fill="#C41A1A"/>
<path id="Vector_6" fill-rule="evenodd" clip-rule="evenodd" d="M30.5319 10.0274L41.1058 39.4332L13.5733 49.4529C9.46684 42.0665 8.85941 32.9184 12.6892 24.7586C16.2296 17.1095 22.9501 11.9243 30.5319 10.0274Z" fill="#223C77"/>
<path id="Vector_7" d="M24.0739 22.1071C23.9783 22.1419 23.8719 22.1472 23.7682 22.118L22.2713 21.7035L21.4267 22.9655C21.3055 23.1469 21.0837 23.2311 20.8724 23.1718C20.6629 23.1141 20.5143 22.9281 20.5049 22.7099L20.4274 21.1659L18.9713 20.74C18.7627 20.6786 18.6174 20.489 18.6101 20.2701C18.6037 20.0508 18.7386 19.8528 18.9431 19.7783L20.3966 19.2494L20.3202 17.7212C20.31 17.5009 20.4424 17.2992 20.6479 17.221C20.8212 17.1394 21.0844 17.2087 21.221 17.3806L22.1809 18.6L23.6425 18.0681C23.8492 17.9929 24.0794 18.0603 24.2138 18.2354C24.3481 18.4105 24.3529 18.6511 24.2272 18.8331L23.3459 20.1049L24.3012 21.318C24.4365 21.4892 24.4454 21.7284 24.3249 21.9119C24.2638 22.0045 24.1754 22.0725 24.0757 22.1088L24.0739 22.1071ZM21.8848 20.6448C21.9805 20.6099 22.0879 20.6043 22.1916 20.6335L22.553 20.7329L22.3228 20.4415C22.1851 20.2665 22.1778 20.0222 22.3044 19.8399L22.4952 19.5638L22.1807 19.6783C21.9772 19.7523 21.7486 19.6866 21.6144 19.515L21.4061 19.2526L21.4214 19.5737C21.4333 19.7956 21.2983 19.9994 21.0886 20.0757L20.7344 20.2046L21.057 20.2984C21.2618 20.359 21.4076 20.5437 21.417 20.7585L21.4365 21.1392L21.6373 20.8399C21.6991 20.7493 21.7865 20.6817 21.8842 20.6461L21.8848 20.6448Z" fill="white"/>
<path id="Vector_8" d="M31.2832 19.4878C31.1875 19.5226 31.0812 19.5278 30.9774 19.4986L29.4805 19.0842L28.6349 20.3465C28.5137 20.528 28.2939 20.6114 28.0806 20.5529C27.8732 20.4945 27.7225 20.3092 27.7127 20.09L27.6373 18.5452L26.1801 18.1197C25.9705 18.0586 25.8253 17.8691 25.8189 17.6498C25.8116 17.4308 25.9464 17.2328 26.152 17.158L27.6045 16.6294L27.529 15.1008C27.5179 14.881 27.6492 14.6796 27.8558 14.601C28.0219 14.5221 28.2932 14.5884 28.4288 14.7607L29.3898 15.9797L30.8514 15.4478C31.058 15.3726 31.2883 15.44 31.4226 15.6151C31.5569 15.7901 31.5617 16.0308 31.4361 16.2127L30.5548 17.4846L31.5091 18.698C31.6443 18.8693 31.6542 19.1081 31.5327 19.2919C31.4716 19.3846 31.3833 19.4525 31.2835 19.4888L31.2832 19.4878ZM29.0941 18.0255C29.1908 17.9903 29.2961 17.9854 29.3998 18.0146L29.7612 18.1139L29.532 17.8222C29.3953 17.6469 29.388 17.4025 29.5137 17.2205L29.7045 16.9445L29.3899 17.0589C29.1864 17.133 28.9568 17.0677 28.8226 16.896L28.6136 16.6316L28.6292 16.9537C28.6401 17.176 28.5051 17.3798 28.2974 17.4554L27.9432 17.5843L28.2649 17.6785C28.4707 17.7386 28.6165 17.9234 28.6262 18.1392L28.6453 18.5189L28.8462 18.2196C28.907 18.1293 28.9943 18.0618 29.093 18.0258L29.0941 18.0255Z" fill="white"/>
<path id="Vector_9" d="M17.9816 31.1072C17.8849 31.1424 17.7799 31.1483 17.6752 31.1194C17.4667 31.0614 17.3174 30.8768 17.308 30.6586L17.2312 29.1132L15.7737 28.6867C15.5651 28.6252 15.4184 28.435 15.4124 28.2167C15.4041 27.9981 15.5409 27.7994 15.7445 27.7253L17.198 27.1964L17.1226 25.6678C17.1114 25.4479 17.2428 25.2465 17.4483 25.1683C17.6305 25.0766 17.8847 25.1561 18.0214 25.328L18.9823 26.547L20.3961 26.0325C20.6017 25.9577 20.8312 26.023 20.9648 26.1961C21.0991 26.3677 21.1079 26.6069 20.9861 26.7897L20.1434 28.0476L21.1006 29.2657C21.2358 29.4369 21.2447 29.6761 21.1239 29.8586C21.0034 30.0421 20.7788 30.125 20.5703 30.067L19.0734 29.6525L18.2288 30.9145C18.1677 31.0071 18.0786 31.073 17.9809 31.1086L17.9816 31.1072ZM18.6869 28.5903C18.7825 28.5555 18.8899 28.5499 18.9936 28.5791L19.3554 28.6795L19.1248 28.3871C18.9892 28.2148 18.981 27.9742 19.1029 27.7914L19.2902 27.512L18.9828 27.6238C18.7792 27.6979 18.5507 27.6322 18.4158 27.4619L18.2085 27.1992L18.2245 27.5189C18.2363 27.7408 18.1013 27.9446 17.8926 28.0206L17.5384 28.1495L17.8601 28.2437C18.0648 28.3042 18.2103 28.4879 18.221 28.7033L18.2409 29.0851L18.4404 28.7851C18.5022 28.6945 18.5895 28.6269 18.6872 28.5914L18.6869 28.5903Z" fill="white"/>
<path id="Vector_10" d="M26.2667 28.2056C26.167 28.2419 26.0559 28.2466 25.9493 28.2126C25.7396 28.1481 25.595 27.9572 25.5921 27.7378L25.5688 26.2294L24.0984 25.7638C23.8907 25.6985 23.7499 25.5085 23.7467 25.2915C23.7421 25.0738 23.876 24.8797 24.0806 24.8052L25.4974 24.2896L25.4745 22.7789C25.4719 22.5605 25.6342 22.3363 25.8124 22.2911C26.0185 22.2207 26.2464 22.2879 26.3789 22.4612L27.2766 23.6421L28.7311 23.1128C28.9347 23.0387 29.1625 23.1024 29.297 23.2716C29.4309 23.4422 29.4431 23.6779 29.326 23.8613L28.4871 25.1743L29.394 26.368C29.5256 26.5418 29.5311 26.781 29.4085 26.9619C29.2848 27.1396 29.0598 27.2215 28.8506 27.1614L27.3979 26.7354L26.51 28.0178C26.4495 28.1056 26.3634 28.1704 26.2667 28.2056ZM27.0199 25.6714C27.1186 25.6354 27.228 25.6291 27.3328 25.6614L27.6582 25.7565L27.4698 25.5076C27.3401 25.339 27.3313 25.1067 27.4461 24.9264L27.6733 24.5724L27.2692 24.7195C27.0626 24.7947 26.8309 24.7266 26.6966 24.5515L26.5053 24.298L26.51 24.631C26.5142 24.8477 26.3796 25.0432 26.1771 25.1169L25.8208 25.2466L26.2196 25.3727C26.4262 25.4384 26.5684 25.629 26.571 25.8474L26.5759 26.1492L26.778 25.8598C26.8378 25.7699 26.9242 25.7062 27.0199 25.6714Z" fill="white"/>
<path id="Vector_11" d="M16.9573 37.9414C16.8616 37.9762 16.7553 37.9815 16.6515 37.9523C16.441 37.895 16.2934 37.7086 16.283 37.4907L16.2061 35.9454L14.7486 35.5188C14.5401 35.4574 14.3938 35.2682 14.3878 35.0499C14.3804 34.8309 14.5159 34.6316 14.7205 34.5571L16.1353 34.0422L16.0979 32.4883C16.0887 32.053 16.728 31.8203 16.9977 32.1608L17.9583 33.3788L19.3721 32.8643C19.5777 32.7895 19.8076 32.8559 19.9412 33.0289C20.0754 33.2005 20.0843 33.4397 19.962 33.6216L19.1198 34.8804L20.0776 36.0971C20.2128 36.2684 20.2227 36.5072 20.1022 36.6907C19.981 36.8722 19.7586 36.9577 19.5477 36.8994L18.0511 36.486L17.2052 37.7473C17.1437 37.8389 17.0564 37.9065 16.9576 37.9424L16.9573 37.9414ZM17.6622 35.4235C17.7589 35.3884 17.8652 35.3831 17.9686 35.4113L18.3304 35.5117L18.0994 35.2182C17.9638 35.046 17.9556 34.8054 18.0778 34.6236L18.2647 34.3431L17.9594 34.4543C17.7548 34.5287 17.5266 34.464 17.3918 34.2938L17.1431 33.9768L17.1536 34.3804C17.1582 34.5981 17.025 34.7943 16.8204 34.8688L16.5151 34.9799L16.836 35.0755C17.0418 35.1356 17.1877 35.3203 17.197 35.5351L17.2165 35.9159L17.4157 35.6183C17.4781 35.5263 17.5645 35.4591 17.6632 35.4232L17.6622 35.4235Z" fill="white"/>
<path id="Vector_12" d="M28.3439 33.9631C28.2452 33.999 28.1344 34.0047 28.0282 33.9718L26.5284 33.5237L25.7034 34.8144C25.5836 34.9999 25.3591 35.0863 25.1504 35.0306C24.9374 34.9731 24.7864 34.7868 24.7766 34.5675L24.6991 33.0236L23.2426 32.5967C23.0341 32.5352 22.8884 32.3446 22.8814 32.1267C22.8751 31.9074 23.0103 31.7104 23.2149 31.636L24.6684 31.107L24.5919 29.5788C24.5818 29.3585 24.7138 29.1558 24.9197 29.0786C25.1028 29.0246 25.3557 29.0653 25.4927 29.2383L26.4526 30.4577L27.9143 29.9258C28.1209 29.8506 28.3508 29.917 28.4851 30.092C28.6194 30.2671 28.6246 30.5088 28.4982 30.6886L27.6177 31.9626L28.5722 33.1735C28.7082 33.3468 28.7172 33.5895 28.5929 33.772C28.5311 33.8626 28.4454 33.9285 28.3467 33.9644L28.3439 33.9631ZM25.0046 32.0582L25.3273 32.152C25.5321 32.2125 25.6779 32.3972 25.6872 32.612L25.7044 32.9382L25.8848 32.6556C26.0061 32.4648 26.2384 32.3779 26.4543 32.4437L26.7874 32.5441L26.5924 32.2964C26.4551 32.1225 26.4478 31.8781 26.5741 31.6948L26.7645 31.4177L26.45 31.5322C26.2464 31.6063 26.0179 31.5405 25.884 31.3699L25.6757 31.1075L25.6907 31.4276C25.7029 31.6505 25.5679 31.8543 25.3582 31.9307L25.004 32.0596L25.0046 32.0582Z" fill="white"/>
<path id="Vector_13" d="M35.5532 31.3439C35.4554 31.3794 35.3447 31.3851 35.2374 31.3526L33.7377 30.9045L32.9106 32.1959C32.7929 32.3807 32.5673 32.4674 32.3565 32.4125C32.1456 32.3542 31.9946 32.1679 31.9835 31.948L31.9084 30.4043L30.4509 29.9778C30.2413 29.9167 30.0956 29.7261 30.0896 29.5078C30.0823 29.2889 30.2175 29.0919 30.4231 29.0171L31.8756 28.4885L31.7998 26.9589C31.7886 26.739 31.92 26.5377 32.1269 26.4601C32.3029 26.4087 32.564 26.4465 32.6999 26.6198L33.6609 27.8388L35.1225 27.3069C35.3291 27.2317 35.559 27.2981 35.6933 27.4732C35.8277 27.6482 35.8328 27.8899 35.7064 28.0698L34.8259 29.3437L35.7794 30.5551C35.9154 30.7284 35.9244 30.971 35.8001 31.1536C35.7393 31.2438 35.6526 31.31 35.5539 31.3459L35.5532 31.3439ZM32.2139 29.4389L32.5355 29.5331C32.7413 29.5933 32.8871 29.778 32.8968 29.9938L32.9126 30.3194L33.093 30.0367C33.2143 29.846 33.4466 29.7591 33.6625 29.8248L33.9956 29.9252L33.8006 29.6776C33.6643 29.5033 33.657 29.2589 33.7823 29.0759L33.9727 28.7989L33.6582 28.9133C33.4546 28.9874 33.2251 28.922 33.0912 28.7514L32.8822 28.487L32.8979 28.8091C32.9091 29.0324 32.7737 29.2352 32.566 29.3108L32.2118 29.4397L32.2139 29.4389Z" fill="white"/>
<path id="Vector_14" d="M26.2243 41.6264C26.1266 41.6619 26.0165 41.6662 25.911 41.6354L24.4597 41.21L23.5728 42.4921C23.4478 42.6726 23.2235 42.7531 23.0148 42.6882C22.8059 42.6257 22.6596 42.4365 22.6553 42.2165L22.6178 40.6718L21.1309 40.2594C20.919 40.2015 20.7703 40.012 20.7611 39.7914C20.7534 39.5714 20.8872 39.3704 21.0938 39.2952L22.5554 38.7633L22.519 37.2089C22.5137 36.9892 22.6697 36.802 22.8576 36.7163C23.0657 36.6452 23.2957 36.715 23.4259 36.8916L24.3397 38.1139L25.7932 37.585C25.9967 37.5109 26.2287 37.5765 26.3612 37.7499C26.4955 37.9215 26.5044 38.1607 26.3825 38.3436L25.5346 39.6091L26.4579 40.8453C26.5885 41.0194 26.5925 41.258 26.4692 41.4368C26.4077 41.525 26.3226 41.5894 26.2259 41.6246L26.2243 41.6264ZM22.9257 39.7066L23.2483 39.797C23.4612 39.8546 23.6124 40.0478 23.6178 40.2709L23.6265 40.644L23.8408 40.334C23.9665 40.1555 24.1902 40.0764 24.397 40.1362L24.7407 40.2374L24.5132 39.9312C24.3834 39.7591 24.3784 39.5243 24.4983 39.3456L24.6856 39.0662L24.3314 39.1951C24.1227 39.271 23.8889 39.2003 23.7569 39.0221L23.5659 38.7661L23.5727 39.1018C23.5773 39.3195 23.4444 39.5167 23.2399 39.5912L22.9253 39.7056L22.9257 39.7066Z" fill="white"/>
<path id="Vector_15" d="M33.4335 39.0071C33.3348 39.0431 33.2257 39.047 33.1202 39.0161L31.6689 38.5908L30.781 39.8732C30.657 40.0534 30.4317 40.1342 30.222 40.0697C30.0131 40.0072 29.8678 39.8177 29.8625 39.598L29.8248 38.0464L28.3773 37.622C28.1687 37.5605 28.022 37.3703 28.0161 37.152C28.0087 36.9331 28.1432 36.7341 28.3488 36.6593L29.7616 36.1451L29.7252 34.5908C29.7199 34.3711 29.8677 34.1868 30.0637 34.0982C30.2718 34.0271 30.5018 34.0969 30.6317 34.2724L31.5469 35.4954L32.9993 34.9668C33.2049 34.892 33.4349 34.9584 33.5695 35.131C33.7027 35.303 33.7126 35.5418 33.5897 35.7251L32.7407 36.991L33.6651 38.2268C33.7956 38.4009 33.7997 38.6395 33.6764 38.8183C33.6139 38.9069 33.5288 38.9713 33.4321 39.0065L33.4335 39.0071ZM30.141 37.0852L30.4637 37.179C30.6736 37.2411 30.8193 37.4317 30.8256 37.651L30.8343 38.0241L31.0486 37.7141C31.1733 37.536 31.397 37.4569 31.6048 37.5163L31.9485 37.6175L31.721 37.3113C31.5912 37.1392 31.5872 36.904 31.7071 36.7253L31.8934 36.4463L31.5402 36.5748C31.3326 36.6504 31.0995 36.5817 30.9661 36.4028L30.7733 36.1451L30.7808 36.4829C30.7854 36.7006 30.6516 36.8982 30.448 36.9723L30.1427 37.0834L30.141 37.0852Z" fill="white"/>
<path id="Vector_16" d="M18.9927 43.8773C18.894 43.9132 18.7839 43.9175 18.6784 43.8867L17.2271 43.4614L16.3402 44.7434C16.2162 44.9235 15.9902 45.0023 15.7812 44.9399C15.5713 44.8777 15.4256 44.6872 15.4217 44.4681L15.3838 42.9224L13.8979 42.5097C13.686 42.4518 13.5363 42.2627 13.5282 42.0417C13.5194 41.8221 13.6546 41.6217 13.8612 41.5465L15.3228 41.0146L15.2861 39.4592C15.2811 39.2405 15.4153 39.0439 15.6189 38.9699L15.625 38.9676C15.8327 38.8955 16.0624 38.9643 16.194 39.1415L17.1081 40.3649L18.5606 39.8363C18.7672 39.7611 18.9975 39.8285 19.1314 40.0025C19.2654 40.1766 19.2699 40.4196 19.1449 40.6002L18.2633 41.8745L19.2172 43.0869C19.3529 43.2591 19.3615 43.5007 19.2386 43.684C19.1771 43.7756 19.0904 43.8418 18.9927 43.8773ZM15.6917 41.9573L16.0143 42.0477C16.2269 42.1077 16.3778 42.2998 16.3828 42.5219L16.3919 42.8961L16.6072 42.5857C16.7319 42.4076 16.9552 42.3275 17.1634 42.3879L17.4446 42.4691L17.2395 42.209C17.1031 42.0347 17.0958 41.7903 17.2221 41.607L17.4126 41.3299L17.098 41.4444C16.8904 41.5199 16.6577 41.4522 16.5243 41.2734L16.3315 41.0157L16.3391 41.3535C16.3437 41.5712 16.2095 41.7677 16.0059 41.8418L15.6914 41.9563L15.6917 41.9573Z" fill="white"/>
<path id="Vector_17" d="M62.6164 48.2027C69.2027 34.0451 63.1376 17.1815 49.0865 10.5836C42.2839 7.39065 34.6234 7.06441 27.5049 9.65446C20.3865 12.2445 14.7207 17.4196 11.553 24.2403C8.3451 31.0421 7.9953 38.7003 10.5415 45.8279C13.1085 52.9653 18.2654 58.6695 25.0826 61.8583L47.3845 72.3164C45.5583 74.0248 43.9774 76.6395 43.9541 76.6804C43.237 77.9275 42.5232 79.4946 43.3745 80.558C43.6603 80.9171 44.3381 81.4535 45.6718 81.0305C45.7176 81.0139 45.7649 80.9978 45.8097 80.9815C48.0311 80.1733 49.4587 77.9747 50.304 76.1103C53.0441 84.328 60.011 105.608 63.7941 120.696C64.2538 122.519 64.6972 124.235 65.1229 125.883C65.6297 127.843 66.1099 129.704 66.5617 131.527C66.7299 132.206 67.414 132.619 68.0907 132.447C68.1336 132.435 68.1754 132.424 68.2162 132.409C68.8161 132.19 69.1679 131.545 69.0114 130.911C68.5563 129.079 68.0739 127.209 67.5654 125.242C67.1406 123.599 66.6994 121.889 66.2412 120.074C62.4909 105.118 55.641 84.1442 52.813 75.6536C54.3948 76.4454 56.4164 76.9329 58.4545 75.9961C59.8619 75.3489 60.0472 74.5031 59.9554 73.9083C59.7258 72.4373 58.0429 71.8382 51.8549 71.0905L51.8582 71.0836L62.6147 48.201L62.6164 48.2027ZM61.2016 27.3789L43.9204 33.6667C42.741 34.0959 41.4869 33.4689 41.0777 32.3313C40.6686 31.1936 41.234 29.9058 42.4134 29.4766L59.3219 23.3245C60.0706 24.6088 60.6959 25.9727 61.2016 27.3789ZM53.7849 16.6082L40.1144 21.5823C38.9807 21.9948 37.686 21.3988 37.2717 20.2468C36.8574 19.0949 37.4793 17.82 38.6129 17.4075L49.2839 13.5248C50.9313 14.3967 52.4213 15.446 53.7849 16.6082ZM12.915 44.9654C10.5999 38.4802 10.9269 31.5081 13.8336 25.3229C16.7287 19.1084 21.885 14.3901 28.3607 12.0339C29.2265 11.7189 30.0931 11.4544 30.9759 11.2348L41.1312 39.4709L14.8055 49.0495C14.0568 47.7652 13.4318 46.4023 12.915 44.9654ZM16.2456 51.318L62.6891 34.4194C62.813 35.9808 62.7748 37.5688 62.5982 39.1401L19.3335 54.8821C18.1875 53.8093 17.1647 52.6085 16.2456 51.318ZM26.7766 59.8561C26.8546 59.7942 26.9387 59.7463 27.0742 59.697L59.7575 47.8051C59.8766 47.7618 59.9815 47.7236 60.0666 47.7262L57.4275 53.3394L32.3261 62.4726L26.7777 59.8557L26.7766 59.8561ZM42.1629 66.6946L52.6546 62.8771C52.7891 62.8282 52.8985 62.8057 52.9845 62.8079L50.3116 68.4681L49.3765 70.4667L47.3864 69.5324L41.7669 66.9068C41.855 66.8251 41.9846 66.7594 42.1629 66.6946ZM46.2794 77.6694C46.6667 77.0457 47.1613 76.3553 47.6755 75.7132C47.2955 76.4243 46.8311 77.1187 46.2794 77.6694Z" fill="white"/>
</g>
</svg>
