<svg width="6" height="2" viewBox="0 0 6 2" fill="none" xmlns="http://www.w3.org/2000/svg">
<path id="Vector" d="M5.24922 0.714582C4.80359 0.369973 3.93132 -0.0627099 2.82584 0.595129C2.00935 0.0980341 1.16674 0.136564 0.417885 0.714582C0.181719 0.897346 0.152053 1.22049 0.347276 1.43794C0.541906 1.65703 0.891409 1.68456 1.1252 1.50399C1.44148 1.25958 1.81946 1.10543 2.45379 1.62234C2.46388 1.6306 2.47456 1.63832 2.48524 1.64547C2.48583 1.64602 2.48702 1.64656 2.48761 1.64711C2.51906 1.66858 2.55229 1.6873 2.58671 1.70161C2.59205 1.70381 2.59739 1.70547 2.60214 1.70767C2.614 1.71208 2.62587 1.71703 2.63774 1.72088C2.64426 1.72309 2.6502 1.72474 2.65673 1.7264C2.6686 1.7297 2.67987 1.73245 2.69174 1.7352C2.69767 1.7363 2.70419 1.73795 2.71013 1.73906C2.72318 1.74126 2.73624 1.74345 2.74929 1.7451C2.75404 1.74565 2.75938 1.74676 2.76413 1.74676C2.78193 1.74841 2.80033 1.74951 2.81813 1.74951C2.83593 1.74951 2.85314 1.74841 2.87094 1.74676C2.87569 1.74676 2.88043 1.74565 2.88518 1.7451C2.89764 1.74345 2.9107 1.74181 2.92316 1.73961C2.92969 1.73851 2.93621 1.73685 2.94274 1.73575C2.95283 1.73355 2.96351 1.7308 2.9736 1.72805C2.98131 1.72585 2.98962 1.72364 2.99733 1.72088C3.00445 1.71868 3.01157 1.71594 3.01869 1.71318C3.08159 1.69061 3.14033 1.65758 3.19196 1.61299C3.84883 1.10984 4.22563 1.26288 4.53775 1.50344C4.77214 1.684 5.12224 1.65593 5.31746 1.43739C5.51269 1.21994 5.48123 0.896795 5.24685 0.714031L5.24922 0.714582Z" fill="white"/>
</svg>
