<svg xmlns="http://www.w3.org/2000/svg" width="1441" height="239" fill="none" xmlns:v="https://vecta.io/nano"  style="opacity: 0.08;"><path d="M1438.13 233.252h-15.59v-24.596c0-1.59-1.28-2.874-2.87-2.874h-33.23c-1.59 0-2.87 1.284-2.87 2.874v24.596h-27.61v-85.315a2.86 2.86 0 0 0-.84-2.03l-16.88-16.9V14.579c0-.761-.3-1.493-.84-2.03L1325.71.844c-.82-.821-2.06-1.067-3.13-.627-1.08.448-1.78 1.493-1.78 2.657v124.438h-21.74c-1.59 0-2.87 1.284-2.87 2.874v103.059h-25.02v-87.458c0-1.59-1.28-2.874-2.87-2.874h-15.59V83.337c0-1.59-1.28-2.874-2.87-2.874h-33.23c-1.59 0-2.87 1.284-2.87 2.874v117.511h-11.49v-58.651c0-1.59-1.29-2.874-2.87-2.874h-18.26V77.821c0-.761-.31-1.493-.85-2.03l-18.24-18.266c-.54-.538-1.27-.843-2.03-.843h-33.23c-1.58 0-2.87 1.284-2.87 2.874v79.963h-18.65c-1.59 0-2.87 1.284-2.87 2.874v46.132h-14.33c-1.59 0-2.87 1.292-2.87 2.874v41.848h-12.58V124.05c0-1.59-1.28-2.874-2.87-2.874h-19.46V47.685c0-1.59-1.29-2.874-2.87-2.874h-11.31c-1.58 0-2.87 1.284-2.87 2.874v45.363l-24.48 10.428c-1.06.448-1.75 1.493-1.75 2.65v83.919h-10.664v-39.81a2.87 2.87 0 0 0-2.87-2.874h-26.057v-39.906a2.87 2.87 0 0 0-2.87-2.874h-36.078a2.87 2.87 0 0 0-2.027.843l-28.339 28.374a2.88 2.88 0 0 0-.842 2.03v97.438h-7.873V108.352c0-.762-.306-1.493-.842-2.031l-9.879-9.891c-1.118-1.12-2.937-1.12-4.063 0l-22.665 22.693a2.88 2.88 0 0 0-.842 2.031v92.1h-15.403V145.81a2.87 2.87 0 0 0-2.871-2.874h-20.293V94.96a2.87 2.87 0 0 0-2.871-2.874h-31.186a2.87 2.87 0 0 0-2.87 2.874v103.021h-10.58v-32.412a2.88 2.88 0 0 0-1.774-2.657c-1.074-.448-2.311-.202-3.131.627l-20.481 20.505c-.536.538-.842 1.269-.842 2.031v46.789a3.13 3.13 0 0 0-.842-.119h-44.912V195.51c0-1.731-1.402-3.135-3.132-3.135h-38.984V46.588c0-1.269-.761-2.411-1.931-2.896s-2.52-.217-3.415.679L620.064 69.9a3.14 3.14 0 0 0-.917 2.217v71.221l-17.573 17.594a3.14 3.14 0 0 0-.917 2.217v29.218h-.552v-69.094a3.13 3.13 0 0 0-1.931-2.897c-1.17-.485-2.52-.216-3.414.68l-27.705 27.739c-.589.589-.917 1.388-.917 2.217v81.717h-10.683v-36.772c0-1.732-1.402-3.135-3.132-3.135h-50.086v-8.502c0-.829-.328-1.628-.917-2.217l-17.803-17.826v-53.306c0-.829-.328-1.628-.917-2.217l-32.663-32.704a3.13 3.13 0 0 0-5.345 2.217v130.634h-13.413v-19.483c0-1.732-1.401-3.135-3.131-3.135h-17.774v-83.673c0-1.732-1.401-3.135-3.131-3.135h-50.414c-1.73 0-3.131 1.403-3.131 3.135V232.73h-7.262v-12.063c0-1.732-1.401-3.136-3.131-3.136h-16v-20.759a3.14 3.14 0 0 0-.917-2.217l-17.065-17.087a3.13 3.13 0 0 0-2.214-.918H285.41c-1.73 0-3.131 1.403-3.131 3.135v53.045h-6.643V121.661c0-1.732-1.402-3.135-3.131-3.135h-14.702V66.161c0-1.732-1.402-3.135-3.132-3.135h-12.175c-1.729 0-3.131 1.403-3.131 3.135v52.365h-14.21c-1.73 0-3.131 1.403-3.131 3.135v64.623h-5.167v-22.775c0-.829-.328-1.628-.917-2.217l-28.495-28.531c-.894-.895-2.244-1.164-3.414-.679a3.13 3.13 0 0 0-1.931 2.896v31.024h-6.688V113.98c0-1.433-.976-2.687-2.363-3.038-1.394-.351-2.841.291-3.519 1.552l-30.739 57.091c-.246.455-.373.971-.373 1.486v28.299h-20.04c-1.73 0-3.131 1.403-3.131 3.135v30.232h-3.124v-77.686c0-1.732-1.402-3.135-3.132-3.135H83.717c-1.73 0-3.131 1.403-3.131 3.135v63.929h-7.075v-15.475a3.14 3.14 0 0 0-.917-2.217l-13.308-13.325c-.589-.589-1.387-.918-2.214-.918H42.176c-1.73 0-3.131 1.404-3.131 3.135v42.565H3.131c-1.73 0-3.131 1.403-3.131 3.135s1.402 3.135 3.131 3.135h38.992c1.73 0 3.131-1.403 3.131-3.135v-42.564h10.467l11.474 11.488v14.176h-6.374c-1.73 0-3.131 1.403-3.131 3.135v13.765c0 1.732 1.402 3.135 3.131 3.135h9.506c1.73 0 3.131-1.403 3.131-3.135v-10.63h10.207c1.73 0 3.131-1.403 3.131-3.135v-63.929h19.012v77.686c0 1.732 1.402 3.136 3.131 3.136h9.387c1.729 0 3.131-1.404 3.131-3.136V205.64h16.909v30.232c0 1.732 1.402 3.136 3.131 3.136h13.89c1.729 0 3.131-1.404 3.131-3.136v-33.367c0-1.732-1.402-3.135-3.131-3.135h-10.758v-27.508l24.476-45.461v42.736c0 1.732 1.402 3.135 3.131 3.135h12.95c1.73 0 3.132-1.403 3.132-3.135v-26.589l22.232 22.26v21.476h-13.211c-1.73 0-3.132 1.403-3.132 3.135v46.446c0 1.732 1.402 3.135 3.132 3.135h16.342c1.73 0 3.131-1.403 3.131-3.135v-43.311h8.298c1.73 0 3.132-1.403 3.132-3.135v-64.623h14.21c1.729 0 3.131-1.403 3.131-3.135V69.296h5.912v52.365c0 1.732 1.402 3.135 3.132 3.135h14.702v111.069c0 1.732 1.401 3.135 3.131 3.135h12.905c1.73 0 3.132-1.403 3.132-3.135V182.82h17.17l15.231 15.251v22.596c0 1.731 1.402 3.135 3.131 3.135h16v12.063c0 1.732 1.402 3.135 3.131 3.135h13.524c1.73 0 3.132-1.403 3.132-3.135V105.746h44.151v83.673c0 1.732 1.402 3.135 3.131 3.135h17.774v16.348h-19.004c-1.73 0-3.131 1.404-3.131 3.135v23.828c0 1.732 1.401 3.135 3.131 3.135h22.135c1.73 0 3.132-1.403 3.132-3.135v-20.692h16.543c1.73 0 3.132-1.404 3.132-3.136V85.845l26.399 26.433v53.306a3.14 3.14 0 0 0 .917 2.217l17.804 17.826v7.211h-13.673c-1.73 0-3.131 1.403-3.131 3.135v39.907c0 1.732 1.401 3.135 3.131 3.135h16.804c1.73 0 3.132-1.403 3.132-3.135v-36.772h46.954v36.772c0 1.732 1.402 3.135 3.132 3.135h16.946c1.729 0 3.131-1.403 3.131-3.135v-83.553l21.442-21.469v64.66c0 1.732 1.402 3.135 3.131 3.135h3.683v37.234c0 1.732 1.402 3.136 3.132 3.136H624c1.73 0 3.131-1.404 3.131-3.136v-40.369c0-1.732-1.401-3.135-3.131-3.135h-17.125v-27.919l17.572-17.594a3.14 3.14 0 0 0 .917-2.217V73.431L644.6 54.172V195.51c0 1.732 1.401 3.136 3.131 3.136h38.985v37.234c0 1.732 1.401 3.135 3.131 3.135h51.763a2.87 2.87 0 0 0 2.87-2.874v-48.879l14.732-14.758v28.344a2.87 2.87 0 0 0 2.871 2.874h16.327a2.87 2.87 0 0 0 2.871-2.874V97.826h25.438v47.976a2.87 2.87 0 0 0 2.87 2.874h20.294v64.571h-18.654a2.87 2.87 0 0 0-2.87 2.874v20.013a2.87 2.87 0 0 0 2.87 2.874h21.524a2.87 2.87 0 0 0 2.87-2.874v-17.139h18.281a2.87 2.87 0 0 0 2.871-2.874v-93.788l19.794-19.819 7.008 7.017v126.603a2.87 2.87 0 0 0 2.87 2.874h13.614a2.87 2.87 0 0 0 2.87-2.874v-99.125l26.654-26.687h32.021v37.026h-10.251a2.87 2.87 0 0 0-2.871 2.874v85.904a2.87 2.87 0 0 0 2.871 2.874h13.129a2.87 2.87 0 0 0 2.87-2.874v-83.031h23.187v39.81a2.87 2.87 0 0 0 2.87 2.874h16.409c1.59 0 2.87-1.284 2.87-2.874v-84.889l24.49-10.429c1.06-.448 1.75-1.493 1.75-2.65V50.552h5.55v73.505c0 1.59 1.29 2.874 2.87 2.874h19.47v109.195c0 1.59 1.28 2.874 2.87 2.874h18.32c1.58 0 2.87-1.284 2.87-2.874v-41.847h14.33c1.58 0 2.87-1.284 2.87-2.874v-46.133h18.65c1.59 0 2.87-1.284 2.87-2.874V62.436h29.17l16.55 16.579v63.189c0 1.59 1.29 2.874 2.87 2.874h18.27v55.777h-25.43c-1.59 0-2.87 1.284-2.87 2.874v32.397c0 1.59 1.28 2.874 2.87 2.874h28.31c1.59 0 2.87-1.284 2.87-2.874v-29.523h14.36c1.59 0 2.87-1.284 2.87-2.874V86.218h27.48v59.577c0 1.59 1.28 2.874 2.87 2.874h15.59v87.457c0 1.59 1.28 2.874 2.87 2.874h30.77c1.59 0 2.87-1.284 2.87-2.874V133.067h21.74c1.59 0 2.87-1.284 2.87-2.874V9.816l5.95 5.957v114.42c0 .762.3 1.493.84 2.031l16.88 16.9v87.002c0 1.59 1.28 2.874 2.87 2.874h33.35c1.59 0 2.87-1.284 2.87-2.874V211.53h27.48v24.596c0 1.59 1.28 2.874 2.87 2.874h18.46c1.59 0 2.87-1.284 2.87-2.874s-1.29-2.874-2.87-2.874h.06zM67.196 232.73h-3.243v-7.495h3.243v7.495zm85.067-27.09v27.097h-7.627V205.64h7.627zm58.302 27.09h-10.08v-40.176h10.08v40.176zm214.322 0h-15.873v-17.557h15.873v17.557zm71.058 0h-10.542v-33.637h10.542v33.637zm124.939-34.092v34.099H606.89v-34.099h13.994zm209.014 34.614h-15.776v-14.265h15.776v14.265zm131.723 0h-7.381v-80.157h7.381v80.157zm234.889 0h-22.56v-26.649h22.56v26.649z" fill="#79adfd"/></svg>