<svg xmlns="http://www.w3.org/2000/svg" viewBox="0 0 500 500" xmlns:v="https://vecta.io/nano" height='596' width='576' ><style><![CDATA[.B{fill:#263238}.C{fill:#eb9481}.D{fill:#ebebeb}.E{fill:#37474f}.F{fill:#ffc727}]]></style><g class="D"><path d="M341.59 360.09h103.52s-5.15-6.7-10.82-7.54c0 0-11-32.86-29.52-33.09-17.17-.22-24.06 20.2-24.06 20.2s-8-9.16-15.56-5-11.91 16.18-11.91 16.18-8.55 4.64-11.65 9.25zM185.8 232.38H54.89s0-8.36 18-10c0 0 16.46-36.56 41.6-31.64 15.66 3 23.66 24.55 23.66 24.55s11.83-16.92 21.29-13.64 15.08 21.28 15.08 21.28 9.8 4.73 11.28 9.45zm253.64-28.24h-89s8.4-7.82 12.13-7.82 14.63-26.25 28.55-25.13 21.31 20.66 21.31 20.66 16.92-5.3 27.01 12.29zM230.53 340.67h-76.12s3.79-4.93 8-5.54c0 0 8.11-24.16 21.7-24.34 12.63-.16 17.7 14.86 17.7 14.86s5.85-6.73 11.44-3.65 8.75 11.89 8.75 11.89 6.25 3.39 8.53 6.78zm-101.7-227.54h103.52s-5.15-6.7-10.82-7.54c0 0-11-32.86-29.51-33.09C174.84 72.28 168 92.71 168 92.71s-8-9.16-15.56-5-11.91 16.18-11.91 16.18-8.6 4.63-11.7 9.24z"/><ellipse cx="250" cy="447.5" rx="137.33" ry="21.7"/></g><path d="M48.63 422.85l50.35-.24 50.34-.09 100.68-.17 100.68.17 50.34.09 50.35.24-50.35.25-50.34.08-100.68.17-100.68-.17-50.34-.09-50.35-.24z" class="B"/><path d="M200.7 422.85h-80.41s.18-12 8.09-15.14a10.76 10.76 0 0 1 12.6 3s3.22-22 18-22 21.78 19 21.78 19S184 402 192.19 403s8.51 19.85 8.51 19.85zm238.75 0s-2.47-11.5-7.39-13.27-7.92 3.39-7.92 3.39S423 402 416 398.69s-12.22 3.44-12.22 3.44-5.35-13.94-14.92-13.94-14.4 20.4-14.4 20.4-5.65-6.08-11.46-2.59-5.79 16.9-5.79 16.9z" class="E"/><path d="M134.7 422.85H60.55s2.45-10.45 7.36-11.19 7.2 4.1 7.2 4.1-.22-14.58 9-17.06S101 409.1 101 409.1s5.76-7.35 13.6-6.88 9.84 12.61 9.84 12.61 7.1-4.21 10.26 8.02zm227.85 0H317s.11-6.78 4.59-8.58a6.1 6.1 0 0 1 7.14 1.71s1.82-12.46 10.17-12.46 12.34 10.75 12.34 10.75a6.4 6.4 0 0 1 6.5-2.65c4.62.61 4.81 11.23 4.81 11.23z" fill="#455a64"/><g class="B"><path d="M281.76 63.43c11.64 20 7.7 47.77-16.48 66.52-22 17.06-55 14.56-67.26.44-13-15-8-35.77 5.44-42.45 12.95-6.44 26.45-3 34.94-10.74 4.06-3.71 6.87-12.58 12.63-18.33 6.43-6.4 23.24-8.27 30.73 4.56z"/><path d="M213.62 141.18a56 56 0 0 0 28 1.52 62.14 62.14 0 0 0 25.66-11.81 53.35 53.35 0 0 0 17.32-22.24 52.81 52.81 0 0 0 3-27.9 55.38 55.38 0 0 1-3.82 27.57 52 52 0 0 1-7.17 12 56.28 56.28 0 0 1-10.05 9.7 67.1 67.1 0 0 1-11.91 7.33 60.68 60.68 0 0 1-27.18 5.83 54.2 54.2 0 0 1-13.85-2zM199.57 89a27.6 27.6 0 0 1 7.62-4.17 37.05 37.05 0 0 1 8.42-2l8.69-1.27a38.1 38.1 0 0 0 8.52-2.56 24 24 0 0 0 3.94-2.14 17.19 17.19 0 0 0 3.27-3.1 73.71 73.71 0 0 0 4.97-7.28 34 34 0 0 1 5.4-6.76 23.79 23.79 0 0 1 7.25-4.72 22.85 22.85 0 0 0-7.65 4.31 34.65 34.65 0 0 0-5.76 6.69l-5 7.12a16 16 0 0 1-3.1 2.88 22.92 22.92 0 0 1-3.78 2c-5.26 2.34-11.13 3-16.87 3.92a36.84 36.84 0 0 0-8.49 2.35 26 26 0 0 0-7.43 4.73z"/></g><use href="#B" class="F"/><g opacity=".1"><use href="#B"/></g><path d="M197.8 320.89c-3.43-1.5-6.82-2.94-10.17-4.23a99.75 99.75 0 0 0-20.16-5.06s29-60 47.05-69.43c9.88-5.17-7.39 19.83-16.72 78.72zm123.36-10.3c-5.36 1-10.3 2.08-13.53 3.63a72.7 72.7 0 0 0-10.53 6.5c-18-20.36-29.23-35.82-31.27-52.59-1.31-10.76 21.52 32.57 55.33 42.46zm-104.34 18.78l-9.3-4.11c6.86-21.4 8.8-42.74 11.11-41.08 2.52 1.82 0 28.93-1.81 45.19z" opacity=".1"/><path d="M150.81 325.73s-24.16-12.35-37.06-46.7c-1.26-3.35 8.31-35.38 20.13-52.28s26.5-25 44.86-41.52 53.82-71.43 66.44-81.36c8.67-6.82 12.35-6 12.35-6s-11.12 7.13-15.88 13.03c-18.8 23.36-40.64 74.45-49.73 85-11.11 13-24.42 26.55-30.72 39.31-7.06 14.34-12.05 77.36-10.39 90.52z" class="F"/><path d="M353.38 448.13c-2.52.82-76.51.15-79.23-1.62-1-.65 4.41-70.79 4.41-70.79l47.08.3-4.9 46.98s27.45 12.54 30.26 14.8 4.91 9.51 2.38 10.33z" class="C"/><path d="M353.38 448.13c-2.52.82-76.51.15-79.23-1.62-.33-.2-.51-7.32.55-16.59 13.44 2.08 61.4 8.83 65.1 6.59 2.58-1.56.25-3.92-1.9-5.5 6.15 3 11.89 5.83 13.08 6.8 2.77 2.25 4.92 9.51 2.4 10.32z" class="B"/><path d="M324.41 411.67h-51.87l9.36-112.55c-.52-2.71-3.58-15-7.66-31l-4.09-16-11.84-45.88-9.92-38.15h43.95l11.58 37.37c10.52 34.34 24.58 81.6 26 93.09 2.22 18.61-5.51 113.12-5.51 113.12z" class="E"/><g class="B"><path d="M322.11 402.82c-7.92-.16-5.64-.23-13.57-.3-3.87 0-29.35-.26-33 .34a.08.08 0 0 0 0 .16c3.62.6 29.1.38 33 .34l13.57-.31a.12.12 0 0 0 0-.23zm-30.45-111.1c-1.7-7.5-4.24-14.85-6.46-22.21q-6.74-22.42-13.56-44.83-3.4-11.2-6.85-22.41l-3.49-11.29c-1.18-3.76-2.47-7.33-3.51-11-.43-1.51-.66-.68-.12 1.24l3.31 11.6q3.34 11.46 6.74 22.91 6.75 22.8 13.61 45.56 3.42 11.42 6.86 22.82a94 94 0 0 1 2.81 11 51.38 51.38 0 0 1 .46 11.82c-.5 7.93-1.42 15.85-2.15 23.77l-2.21 23.8-3.66 36.67-.51 6c-.05.67 1 .62 1 0l3.81-36.21 4.37-46.68c.36-3.9.78-7.82.78-11.74a48.94 48.94 0 0 0-1.23-10.82z"/><path d="M287.35 168.14l-13.11 100-25.85-100z"/></g><path d="M298.15 449c-2.52.82-76.51.15-79.23-1.62-1-.65 1.16-70.79 1.16-70.79l47.08.31-1.66 46.93s27.46 12.59 30.25 14.85 4.92 9.5 2.4 10.32z" class="C"/><path d="M298.15 449c-2.52.82-76.51.15-79.23-1.62-.33-.2-.34-7.13-.2-16.59 13.44 2.08 62.15 8.83 65.85 6.59 2.58-1.56.25-3.92-1.9-5.5 6.15 3 11.89 5.83 13.08 6.8 2.77 2.24 4.92 9.5 2.4 10.32z" class="B"/><path d="M290.92 168.14s-1 21-5.83 37.69l-1.25 4a78.6 78.6 0 0 0-12.67 6.51l-1 35.8-1 49.62c.44 18.67-1.83 109.67-1.83 109.67l-51.86.21 8.81-109.83c-.1-11 2.51-59.59 4.53-95l2.18-38.67z" class="E"/><g class="B"><path d="M265.52 402.24c-7.92-.13-5.64-.21-13.57-.25-3.87 0-29.35-.13-33 .48-.08 0-.08.15 0 .16 3.62.59 29.1.26 33 .2l13.56-.36a.12.12 0 0 0 .01-.23zm-30.14-226.58l-3.26 86.78c-1.26 28.92-3.05 58-5.48 87l-3.87 43.38c0 .11.15.15.17 0 3.77-28.7 5.37-52.51 7.23-81.39s3.11-57.8 4.1-86.72l1.47-49.08c.01-.23-.35-.2-.36.03zM286 208.61a96.75 96.75 0 0 0-14.82 7.76c-.19.12-.05.41.15.31 5-2.43 10.11-4.77 15-7.47a.342.342 0 0 0-.33-.6z"/><path d="M286.28 190.77l-1.18 5.5-1.11 5.17a8.78 8.78 0 0 1-2.4 4.33c-.68.63-1.42 1.18-2.14 1.76l-1.21.92.14-.74.36-2.1.74-4.66 1.54-9.18a.1.1 0 0 0-.19-.05l-2.27 9c-.32 1.48-1.48 8.81-1.54 9.33l-.11 1.61a6 6 0 0 0 0 1.64c0 .13.19.11.25 0h0a6.32 6.32 0 0 0 .47-1.59l.35-1.59c0-.19.06-.39.08-.58.72-.44 1.4-1 2.07-1.51l2.16-1.62a8.31 8.31 0 0 0 2.63-4.11 30.33 30.33 0 0 0 .86-5.27l.7-6.25c.01-.09-.17-.14-.2-.01z"/></g><g class="C"><path d="M266.35 115.17c14.53 23.27 50.88 57.39 60.65 51 12-7.8 8.44-45.15 8.31-51.55-.08-4.48-33 1.1-31.3 5.59 1 2.72 1.84 6.27 1.17 5.94-2.1-1-6.54-6.73-26.49-20.3-11.11-7.53-21.96-6.09-12.34 9.32z"/><path d="M325.28 75.92a4.75 4.75 0 0 0-4.78 2.6 7.08 7.08 0 0 0-4.5-1.67c-2.92.11-4 4.73-4 4.73a8.66 8.66 0 0 0-5-1c-2.78.38-4.55 4.88-4.55 4.88a7.69 7.69 0 0 0-5 1.91c-3.56 3.39-2.05 10.74-1.14 15.42s7.88 17.11 9 19.62l30.11-5.59s1.89-22.16 0-27.52c-1.62-4.52-6.42-12.84-10.14-13.38z"/></g><path d="M321 78.64c2.81 4.4 4.17 9.39 5.8 14.29a.09.09 0 0 1-.17.06c-1.57-4.9-4.09-9.42-5.85-14.24a.123.123 0 0 1 .22-.11zm-8.62 2.96a13.11 13.11 0 0 1 1.19 3.4q.51 1.83 1 3.66.9 3.67 1.61 7.4c0 .11-.14.17-.17 0l-1.94-7.29-1.09-3.62a16.42 16.42 0 0 1-.89-3.44.18.18 0 0 1 .29-.11zm-9.97 3.96a9.48 9.48 0 0 1 .91 3.07l.76 3.37 1.66 6.7a.09.09 0 0 1-.18 0l-1.87-6.75-.87-3.34a8.84 8.84 0 0 1-.53-3.08.07.07 0 0 1 .12.03z" class="B"/><g class="D"><path d="M303.8,122.34l33.32-6.07s3.16,51.9-12.8,51.9c-12.81,0-46.12-32.39-57.27-50.45s-1.17-20.52,11.6-12.82c10.41,6.28,22.11,17.12,25.63,20Z"/><path d="M304.16 124.89l35.46-3.16-1.04-7.06-35.53 6.69 1.11 3.53z"/></g><path d="M327.58,167.34a6.69,6.69,0,0,1-3.26.83c-12.81,0-46.12-32.39-57.27-50.45-7.76-12.56-5.29-17.57,1.23-16.87Z" fill="#dbdbdb"/><path d="M304.28 124.89l.81 3.19.78 3.18 1.56 6.36 1.64 6.32.92 3.14 1 3.13a40 40 0 0 1-2.63-6c-.75-2.07-1.33-4.19-1.88-6.31l-1.34-6.44a64.75 64.75 0 0 1-.86-6.57zm32.19-3.17c-5.16.33-10.31 1-15.45 1.59l-7.66.94c-2.55.33-5.18.76-7.79 1-.09 0-.09.17 0 .16 2.63-.28 5.28-.41 7.92-.65l7.67-.78c5.11-.58 10.26-1.16 15.32-2.13.1.01.07-.14-.01-.13z" class="B"/><path d="M301.34,192.91l-4.44-14.32-3.12-21.14s6.59-11.85,2.57-20.24c-2-4.25-19.67-30.63-27-35.83-6.9-4.88-16.76.56-20.41,4.49-14,15.16-17.08,52.45-21.69,93l49.35-4,4.84-10.61,4.52,9.86Z" class="D"/><path d="M297.57 139.64a19.55 19.55 0 0 0-2.43-5l-2.06-3.16-.9-2a30.7 30.7 0 0 1-1.49-2.91.08.08 0 1 0-.15.06 31.59 31.59 0 0 1 1.27 2.93l-3.94-5.69c-.06-.08-.19 0-.13.08 1.51 1.92 6.46 10.36 7.66 12.5a14.45 14.45 0 0 1 1.79 6.91 31.27 31.27 0 0 1-.88 7.42c-.06.21.15.31.23.11a20 20 0 0 0 1.3-5.53 16.17 16.17 0 0 0-.27-5.72z" class="B"/><path d="M254.3 112.73c-4.46 6.89-26.39 34.44-27.16 37s5.91 8.33 5.87 9.39c-.15 4.29-7.83 33.27-11.68 30.58-5.08-3.54-29.16-29-26.89-41s48.89-43 56.39-45.84 7.87 3.08 3.47 9.87z" class="C"/><g class="D"><path d="M210.51 180.23l20.85-23.36s-3.87-5.61-3.85-6.44 19.21-23.57 26.6-36 4.37-16.27-9.75-9.19-48.35 33.62-50.07 42.3c-2.62 13.24 16.22 32.69 16.22 32.69z"/><path d="M207.13 179.61l5.59 5.6 19.88-27.37-2.29-3.16-23.18 24.93z"/></g><path d="M229.16 155.45a67.83 67.83 0 0 0-5.22 5.37l-5.07 5.51c-3.37 3.71-6.65 7.45-9.82 11.33a.081.081 0 0 0 .12.11c3.57-3.56 7-7.23 10.36-11l5-5.59a67.54 67.54 0 0 0 4.76-5.66c.04-.06-.07-.12-.13-.07zm16.43-26.77l-2.5 2.17-.3.26q2.19-3 4.3-6s-.05-.1-.08-.06a174.56 174.56 0 0 0-12.08 15.7.08.08 0 0 0 .12.09c2.35-2.66 4.56-5.45 6.69-8.3.53-.46 1-.94 1.54-1.43.79-.79 1.6-1.56 2.42-2.32.08-.07-.04-.17-.11-.11z" class="B"/><path d="M240 198.89c2.82-2.83-2.14-4.53-2.14-4.53s7.72.72 9.49-3.32-4.36-5.74-4.79-5.88c.41 0 7.52.51 8.88-3.74 1.41-4.42-5-5.22-5.4-5.27.4-.09 5.61-1.35 5.91-4.81.51-6-14.72-3.62-18.67-6.43l.08-7.95s-1.09 3.23-3.58 4.49c-3.09 1.57-5.93 2.69-6.94 4.52a4.38 4.38 0 0 0 .51 5.2s-4.22.33-5.4 3.64c-.6 1.71 1.59 4.18 1.59 4.18s-3.37.41-4.23 3.42c-.7 2.4 1.6 4.51 1.6 4.51s-3.05 1.89-3 4.58c.16 5.41 20.02 13.5 26.09 7.39z" class="C"/><path d="M217.19 187.31c-.07 0-.12.05-.06.09a37.14 37.14 0 0 0 21 7.08c.24 0 .35-.39.08-.44a76.25 76.25 0 0 1-21.02-6.73zm2.2-8.31c-.08 0-.14.09-.07.14 6.09 4.34 14.93 7.31 23.34 6.3.29 0 .52-.35.18-.34-5.64.24-17.28-2.97-23.45-6.1zm27.17-3.12c-8.1.66-15.6-1.35-23-4.52-.09 0-.14.1-.07.16 3.2 2.54 8.13 4.06 12.07 4.93a21.52 21.52 0 0 0 11-.29c.17-.04.18-.29 0-.28zm-29.9 11.06c-1.46-1.24-2.66-2.94-2.19-4.94a3.85 3.85 0 0 1 1.48-2.26 6.61 6.61 0 0 1 3-.9c-1.36-1.51-2.16-3.66-1.19-5.59a3.8 3.8 0 0 1 2.15-1.75 12.27 12.27 0 0 1 3.25-.51 4.48 4.48 0 0 1-1.69-3.64 4.82 4.82 0 0 1 2.29-3.77 22.8 22.8 0 0 1 4.88-2.2 11.43 11.43 0 0 0 2.47-1.24 5.11 5.11 0 0 0 1.79-2.37c.07-.17.09 0 0 .14a6.34 6.34 0 0 1-1 1.78 8.74 8.74 0 0 1-1.54 1.5 35.61 35.61 0 0 1-4.59 2.38 7 7 0 0 0-3.18 3.14 4.15 4.15 0 0 0 .71 4.3s0 .16-.09.17a11.75 11.75 0 0 0-2.81.9 4.1 4.1 0 0 0-1.77 1.65 5.3 5.3 0 0 0 .77 5.25 9 9 0 0 0-2.87 1.38 3.88 3.88 0 0 0-1.12 1.86 4.59 4.59 0 0 0 1.4 4.61.09.09 0 0 1 0 .06h0a.09.09 0 0 1 0 .06h0l-1 .66c0 .02 0 0 0-.06a8.22 8.22 0 0 1 .85-.61z" class="B"/><path d="M254.51 101.28c.29 1.17 8.92 8.49 14.27 8.18 1.74-.11-1.37-9.42-1.37-9.42l.15-.7 2.09-9.88-11.65-7.3-1.69-1-.85 6.16c0 .16-.05.32-.07.49s-.06.37-.08.55l-.21 1.55-.14 1.2-.13 1.24a63.25 63.25 0 0 0-.32 8.93z" class="C"/><path d="M255.46 87.35a20.29 20.29 0 0 0 12.1 12l2.09-9.88L258 82.16l-1.69-1-.85 6.19z" class="B"/><path d="M283.55 74.91c2.43 17.56-7.81 21-11.6 21.51-3.43.48-15.2 1.64-19.43-15.57s3.17-23.89 11-25.38 17.6 1.88 20.03 19.44z" class="C"/><g class="B"><path d="M277.62 72.16a9.79 9.79 0 0 1-1.21-.17 2 2 0 0 1-1.2-.41.62.62 0 0 1 0-.77 1.55 1.55 0 0 1 1.51-.46 2.24 2.24 0 0 1 1.49.71.67.67 0 0 1-.59 1.1zm-11.74 2.42c.41.07.81.06 1.22.09a2 2 0 0 0 1.26-.14.63.63 0 0 0 .22-.74 1.58 1.58 0 0 0-1.38-.79 2.28 2.28 0 0 0-1.61.37.68.68 0 0 0 .29 1.21zm2.57 3.09s-.09.06-.09.11c.15 1.2.12 2.6-.93 3.1v.06c1.32-.3 1.35-2.16 1.02-3.27z"/><path d="M267.26 76.51c-1.95 0-1.75 3.92.06 3.89s1.57-3.91-.06-3.89z"/><path d="M266.51 76.76c-.33.23-.65.64-1.05.7s-.85-.31-1.18-.69h-.07c0 .74.36 1.49 1.16 1.56s1.22-.62 1.37-1.38c.03-.09-.1-.29-.23-.19zm9.08-.03s.09 0 .1.1c0 1.21.23 2.59 1.34 2.94v.07c-1.35-.13-1.62-1.96-1.44-3.11z"/><path d="M276.61 75.42c1.93-.23 2.26 3.65.46 3.87s-2.07-3.67-.46-3.87z"/><path d="M277.44 75.61c.32.18.66.53 1 .52s.7-.45.94-.88h.06c.09.74-.09 1.53-.8 1.74s-1.17-.42-1.4-1.14c-.02-.09.07-.31.2-.24zm-7.92 11.27c.29.28.58.67 1 .71a3.15 3.15 0 0 0 1.3-.32 0 0 0 0 1 .05.07 1.65 1.65 0 0 1-1.53.66 1.29 1.29 0 0 1-1-1.06.095.095 0 0 1 .18-.06zm4.76-4.67l.42 2.63c0 .08-.2.13-.49.17h0a4 4 0 0 1-4-1.26.09.09 0 0 1 .12-.12 6.1 6.1 0 0 0 3.75.82c.05-.24-.72-3-.59-3a7.23 7.23 0 0 1 2 .31c-.65-3.74-1.89-7.34-2.48-11.07 0-.13.17-.18.21-.07a61.6 61.6 0 0 1 3.18 11.81c.01.43-1.77-.1-2.12-.22z"/><path d="M274.1 84.36a4.89 4.89 0 0 1-1.68 1.86 2.23 2.23 0 0 1-1.31.32c-1-.08-1.19-1-1.15-1.74a5.38 5.38 0 0 1 .22-1.24 6.36 6.36 0 0 0 3.92.8z"/></g><path d="M272.42 86.22a2.23 2.23 0 0 1-1.31.32c-1-.08-1.19-1-1.15-1.74a2.28 2.28 0 0 1 2.46 1.42z" fill="#e587b4"/><path d="M252.73 79.6c4.22-.18 3.84-6.83 3.84-6.83s4.77-.68 4.72-8.42a11.72 11.72 0 0 0 9.07 5.16c1.39.13-3.4-3.19-3.4-3.19s5.77 4.71 15.91 2.29c.72-.18-1.38-10.89-9.6-14.16s-15.34-.81-20 4.51c0 0-5.74 3-6.12 8.62s3.94 12.08 5.58 12.02z" class="B"/><path d="M255.52,80.6s-4.15-5.33-6.58-3.83.87,9.37,3.87,10.31a3,3,0,0,0,3.93-1.81Z" class="C"/><g class="B"><path d="M249.94 79s-.05.07 0 .08c2.11.73 3.29 2.59 4.15 4.54a1.65 1.65 0 0 0-2.49-.33c-.05 0 0 .12.06.11a1.83 1.83 0 0 1 2.06.54 8.93 8.93 0 0 1 1 1.59c.11.18.44.06.36-.15h0c-.08-2.68-2.3-6.26-5.14-6.38zm16.84 31l4 18.5 3.77 18.56 3.55 18.61 1.69 9.31 1.59 9.34-2.07-9.24-2-9.26-3.77-18.56-3.55-18.61-3.21-18.65zm8.33 18.08a1.19 1.19 0 1 1-1.41-.9 1.19 1.19 0 0 1 1.41.9zm2.11 12.01a1.18 1.18 0 1 1-1.4-.9 1.18 1.18 0 0 1 1.4.9zm2.12 12.02a1.18 1.18 0 1 1-1.41-.91 1.18 1.18 0 0 1 1.41.91z"/><use href="#C"/><use href="#C" x="2.12" y="12.01"/></g><path d="M267.51,100.31l-1.64,8.28-11.4-7.94-2.13,3.64s12.28,13.71,12.21,13l1.92-7.23,5.45,3.75-2.55-11.52Z" class="D"/><path d="M271 108l-1.49-5.66c0-.07-.13-.08-.14 0 0 1.92 1.87 9.13 2.19 10.89h0c-.23-.16-5-3.26-5-3.19-.49 1.18-1.91 6.45-2 6.92-1.95-2.18-9.3-10-11.49-12a.07.07 0 0 0-.11.09c1.8 2.35 11.58 13 11.69 12.91a74.92 74.92 0 0 0 2-7.64c.85.71 5.76 4.3 5.72 4A58.84 58.84 0 0 0 271 108z" class="B"/><path d="M254.45 98.2c-1.25-1.45-2.63 2.27-.33 3.91 3.41 2.43 9.95 5 11.06 4.86s3.15-4.37 3.37-5.21-.74-2.41-1-2.19-2.25 4.56-2.64 4.81-7.76-3.08-10.46-6.18zm11.16 282.23l5.58 1.36-5.6 1-1.26 5.91-1.25-5.91-5.6-1 5.58-1.36 1.27-5.58zm-126.8-39.64l-1.28 5.58-5.53 1.36 5.6 1 1.26 5.9 1.25-5.9 5.6-1-5.58-1.36zm237.59-58.15l-1.27-5.57-1.28 5.57-5.58 1.36 5.6 1 1.26 5.9 1.25-5.9 5.6-1zm-213.59-114.7l-1.28 5.57-5.53 1.37 5.6 1 1.25 5.9 1.25-5.9 5.6-1-5.58-1.37zM383.5 317.57l-.71 3.12-3.12.76 3.13.58.7 3.31.7-3.31 3.13-.57-3.12-.77zM211 334.89l-.71 3.11-3.12.76 3.13.59.7 3.3.7-3.3 3.13-.58-3.11-.77zm101.4 22.27l-.72 3.12-3.11.76 3.13.58.7 3.3.7-3.3 3.13-.58-3.12-.76zm-79.07 41.56l-.71 3.12-3.12.76 3.13.58.7 3.3.7-3.3 3.13-.58-3.11-.76zm-112.09-71.6l-.71 3.12-3.12.76 3.13.58.7 3.31.7-3.31 3.13-.57-3.12-.77zm-10.55-83l-.71 3.12-3.12.76 3.14.58.69 3.31.7-3.31 3.14-.57-3.12-.77zm224.57 118.3a.91.91 0 0 0 0 1.81.91.91 0 0 0 0-1.81zm61.22-105.15a.91.91 0 0 0 0 1.82.91.91 0 0 0 0-1.82zM148 195.72a.91.91 0 0 0 0 1.82.91.91 0 0 0 0-1.82zm218.76 134.83a.91.91 0 0 0 0 1.81.91.91 0 0 0 0-1.81zm-263.24-17.82a.91.91 0 0 0 0 1.81.91.91 0 0 0 0-1.81zM121.89 231a.64.64 0 0 0 0-1.28.64.64 0 0 0 0 1.28zm104.88 132.32a.65.65 0 0 0 0 1.29.65.65 0 0 0 0-1.29zm157-129.88a.64.64 0 0 0 0-1.28.64.64 0 0 0 .05 1.28zM163.43 361a.65.65 0 0 0 0 1.29.65.65 0 0 0 0-1.29zm111.08-5.28a1.74 1.74 0 0 0 0 3.48 1.74 1.74 0 0 0 0-3.44zm-102.86-.62a1.74 1.74 0 0 0 0 3.48 1.74 1.74 0 0 0 0-3.44zm-32.84-161.3a1.74 1.74 0 0 0 0-3.48 1.76 1.76 0 0 0 0 3.52zm248.52 92.85a1.74 1.74 0 0 0 0 3.48 1.74 1.74 0 0 0 0-3.44z" class="F"/><defs ><path id="B" d="M117.86 273.38c-2.66-5.24 41.42-62.34 80-109.95a.05.05 0 0 0 0-.05c17.42-21.48 32.46-43.52 43.84-55.83 7.23-7.83 13.85-9.73 15.79-9.73 6.42 0 23.4 4.33 20.65 38.9-2.08 26.14-7.42 53.7-1.29 82.56s21.95 55.37 38.05 67.07 39.91 12.75 37.41 12.54c-.77-.07-4 4.25-12.08 7.24-10 3.66-25.48 4.65-32.64 8.09-14.66 7-26.55 23.11-48.68 25-23.31 2-48.44-13.71-71.32-22.54-27.75-10.75-46.83 1.89-69.73-43.3z"/><path id="C" d="M281.46 164.12a1.19 1.19 0 1 1-1.41-.91 1.19 1.19 0 0 1 1.41.91z"/></defs></svg>