<?xml version="1.0" encoding="utf-8"?>
<!-- Generator: Adobe Illustrator 28.3.0, SVG Export Plug-In . SVG Version: 6.00 Build 0)  -->
<svg version="1.1" id="Layer_1" xmlns="http://www.w3.org/2000/svg" xmlns:xlink="http://www.w3.org/1999/xlink" x="0px" y="0px"
	 viewBox="0 0 1373 1099" style="enable-background:new 0 0 1373 1099;" xml:space="preserve">
<style type="text/css">
	.st0{fill:#FFFFFF;}
</style>
<path class="st0" d="M1372.6,684.4c0,150.9-49,290.4-132,403.6c-2.7,3.7-5.4,7.3-8.2,10.9h-1092c-10.5-13.7-20.4-27.8-29.9-42.3
	C40.9,949.5,0.4,821.7,0.4,684.4C0.4,306.5,307.6,0.1,686.5,0.1C1065.4,0.1,1372.6,306.5,1372.6,684.4L1372.6,684.4z"/>
<path class="st0" d="M1277,395.2c-16.2-38.1-36.2-74.8-59.5-109.2c-23.1-34-49.6-66-78.7-95.1c-29.2-29.1-61.3-55.5-95.4-78.5
	c-34.5-23.2-71.3-43.2-109.5-59.3c-79.5-33.5-163.9-50.5-251-50.5s-171.5,17-251,50.5c-38.2,16.1-75.1,36.1-109.5,59.3
	c-34.1,23-66.2,49.4-95.4,78.5c-29.2,29.1-55.7,61.1-78.7,95.1c-23.3,34.4-43.3,71.1-59.4,109.2c-33.6,79.3-50.7,163.4-50.7,250.2
	c0,86.8,17,171,50.7,250.2c16.2,38.1,36.2,74.8,59.4,109.2c7.8,11.5,15.9,22.7,24.4,33.7h9.4c-9.7-12.3-18.9-24.9-27.7-37.8
	c-23-34-42.8-70.3-58.8-107.9c-33.2-78.3-50.1-161.6-50.1-247.4s16.9-169,50.1-247.3c16-37.7,35.7-74,58.8-107.9
	c22.8-33.6,49-65.3,77.8-94c28.8-28.8,60.6-54.9,94.3-77.6c34.1-22.9,70.5-42.7,108.3-58.6C513.3,26.7,596.8,9.9,682.9,9.9
	S852.4,26.7,931,59.9c37.8,15.9,74.2,35.6,108.3,58.6c33.8,22.7,65.5,48.8,94.3,77.6c28.9,28.8,55,60.4,77.8,94
	c23,34,42.8,70.3,58.8,107.9c33.2,78.3,50.1,161.6,50.1,247.3s-16.9,169-50.1,247.4c-16,37.7-35.8,74-58.8,107.9
	c-8.7,12.9-18,25.5-27.7,37.8h9.4c8.5-11,16.7-22.2,24.4-33.7c23.3-34.4,43.3-71.1,59.5-109.2c33.6-79.2,50.7-163.4,50.7-250.2
	C1327.7,558.6,1310.6,474.4,1277,395.2z"/>
</svg>
