<?xml version="1.0" encoding="utf-8"?>
<!-- Generator: Adobe Illustrator 28.3.0, SVG Export Plug-In . SVG Version: 6.00 Build 0)  -->
<svg version="1.1" id="Layer_1" xmlns="http://www.w3.org/2000/svg" xmlns:xlink="http://www.w3.org/1999/xlink" x="0px" y="0px"
	 viewBox="0 0 1614 1928" style="enable-background:new 0 0 1614 1928;" xml:space="preserve">
<style type="text/css">
	.st0{fill:none;stroke:#EDEBEC;stroke-width:3.0201;}
	.st1{fill:none;stroke:#EDEBEC;stroke-width:6.0402;}
	.st2{fill:none;stroke:#EDEBEC;stroke-width:9.0604;}
	.st3{fill:none;stroke:#EDEBEC;stroke-width:12.0805;}
	.st4{fill:none;stroke:#EDEBEC;stroke-width:15.1006;}
	.st5{fill:none;stroke:#EDEBEC;stroke-width:18.1207;}
	.st6{fill:#FFFFFF;}
	.st7{fill:#FFFFFF;filter:url(#Adobe_OpacityMaskFilter);}
	.st8{mask:url(#mask0_0_1_00000153676145787904320670000014691148058060867458_);}
	.st9{fill:#FFCCD2;}
	.st10{fill:#FFFFFF;filter:url(#Adobe_OpacityMaskFilter_00000052067746184731463570000013516574351542341253_);}
	.st11{mask:url(#mask1_0_1_00000013904595414855817030000004859217113801752209_);}
	.st12{fill:#FFFFFF;filter:url(#Adobe_OpacityMaskFilter_00000183221395533066192640000000539045914479290284_);}
	.st13{mask:url(#mask2_0_1_00000161625970086637361060000012184214236286405013_);}
	.st14{fill:#FFFFFF;filter:url(#Adobe_OpacityMaskFilter_00000077297112040551084690000001484103468609399473_);}
	.st15{mask:url(#mask3_0_1_00000142144973540384584810000007267925952754263994_);}
</style>
<path class="st0" d="M790.5,1926c435.3,0,788.2-352.9,788.2-788.2c0-435.3-352.9-788.2-788.2-788.2
	c-435.3,0-788.2,352.9-788.2,788.2C2.2,1573.1,355.1,1926,790.5,1926z"/>
<path class="st1" d="M790.5,1881.4c410.7,0,743.7-333,743.7-743.7c0-410.7-333-743.7-743.7-743.7c-410.7,0-743.7,333-743.7,743.7
	C46.8,1548.5,379.7,1881.4,790.5,1881.4z"/>
<path class="st2" d="M790.5,1831.8c383.3,0,694.1-310.8,694.1-694.1c0-383.3-310.8-694.1-694.1-694.1
	c-383.3,0-694.1,310.8-694.1,694.1C96.4,1521.1,407.1,1831.8,790.5,1831.8z"/>
<path class="st3" d="M790.5,1772.1c350.4,0,634.4-284,634.4-634.4c0-350.4-284-634.4-634.4-634.4c-350.4,0-634.4,284-634.4,634.4
	C156.1,1488.1,440.1,1772.1,790.5,1772.1z"/>
<path class="st4" d="M790.5,1719.9c321.5,0,582.2-260.6,582.2-582.2c0-321.5-260.7-582.2-582.2-582.2
	c-321.5,0-582.2,260.7-582.2,582.2C208.3,1459.3,468.9,1719.9,790.5,1719.9z"/>
<path class="st5" d="M790.5,1656.7c286.6,0,518.9-232.3,518.9-518.9c0-286.6-232.3-518.9-518.9-518.9s-518.9,232.3-518.9,518.9
	C271.6,1424.3,503.9,1656.7,790.5,1656.7z"/>
<path class="st6" d="M1475.6,1162.1c0,150.9-49,290.4-132,403.6c-2.7,3.7-5.4,7.3-8.2,10.9h-1092c-10.5-13.7-20.4-27.8-29.9-42.3
	c-69.8-107.1-110.3-234.9-110.3-372.2c0-377.9,307.2-684.3,686.1-684.3C1168.4,477.9,1475.6,784.2,1475.6,1162.1L1475.6,1162.1z"/>
<defs>
	<filter id="Adobe_OpacityMaskFilter" filterUnits="userSpaceOnUse" x="1166" y="108.2" width="306.4" height="264.4">
		<feColorMatrix  type="matrix" values="1 0 0 0 0  0 1 0 0 0  0 0 1 0 0  0 0 0 1 0"/>
	</filter>
</defs>
<mask maskUnits="userSpaceOnUse" x="1166" y="108.2" width="306.4" height="264.4" id="mask0_0_1_00000153676145787904320670000014691148058060867458_">
	<path class="st7" d="M1511.5,174.3L1191.1,48.8l-80.6,205.8l320.4,125.5L1511.5,174.3z"/>
</mask>
<g class="st8">
	<path class="st9" d="M1409.3,242.3c-2.9-1.1-6.2,0.3-7.4,3.2l-23.2,59.2c-66.4-12.5-136.4-39.9-193.7-75.9l23.2-59.2
		c1.1-2.9-0.3-6.2-3.2-7.4c-2.9-1.1-6.2,0.3-7.4,3.2l-24.9,63.6c-1,2.5-0.1,5.4,2.2,6.9c30.7,19.7,64.3,36.7,99.3,50.4
		c35,13.7,71.2,24.1,107.1,30.5c2.7,0.5,5.3-1,6.3-3.5l24.9-63.6C1413.7,246.8,1412.3,243.5,1409.3,242.3z"/>
	<path class="st9" d="M1438.4,316.6c0.3-0.4,0.6-0.9,0.8-1.4l32.2-82.3c0.1-0.2,0.1-0.4,0.2-0.6c0.1-0.2,0.3-0.5,0.4-0.7
		c0.9-2.2,0.3-4.7-1.4-6.3l-124.9-115.5c-1.1-1-2.4-1.5-3.9-1.5l-170.1,0c-2.3,0-4.4,1.4-5.3,3.6c-0.8,2.2-0.3,4.7,1.4,6.3
		l124.9,115.5c0.5,0.5,1.1,0.9,1.8,1.1c0.7,0.3,1.4,0.4,2.1,0.4l161.8,0l-29.7,75.9c-0.2,0.5-0.3,1-0.3,1.5
		c-9.5-1.1-19,4.2-22.7,13.6c-3.7,9.3,0.3,34.2,1.6,41.7c0.3,2,1.7,3.6,3.5,4.4c1.8,0.7,4,0.4,5.6-0.8c6-4.7,26-20.6,29.5-29.5
		C1449.3,332.9,1446.2,322.2,1438.4,316.6L1438.4,316.6z M1298.8,223.7l-112.6-104.1l153.3,0l112.6,104.1L1298.8,223.7z
		 M1417.1,356.2c-1.4-11.4-2.1-22.7-0.8-25.9c2.1-5.2,8-7.8,13.2-5.8c5.2,2.1,7.8,8,5.8,13.2C1434,340.9,1425.9,348.8,1417.1,356.2z
		"/>
</g>
<defs>
	
		<filter id="Adobe_OpacityMaskFilter_00000084500398784451066250000006822974888620322451_" filterUnits="userSpaceOnUse" x="31" y="401.7" width="216" height="216">
		<feColorMatrix  type="matrix" values="1 0 0 0 0  0 1 0 0 0  0 0 1 0 0  0 0 0 1 0"/>
	</filter>
</defs>
<mask maskUnits="userSpaceOnUse" x="31" y="401.7" width="216" height="216" id="mask1_0_1_00000013904595414855817030000004859217113801752209_">
	<path style="fill:#FFFFFF;filter:url(#Adobe_OpacityMaskFilter_00000084500398784451066250000006822974888620322451_);" d="
		M179.5,368.5L0.7,435.4l68.6,183.4L248.1,552L179.5,368.5z"/>
</mask>
<g class="st11">
	<path class="st9" d="M36.3,497.9L193.7,439c1.6-0.6,2.6-2.1,2.5-3.7c-0.1-1.7-1.2-3.1-2.8-3.6L92.6,401.9c-1.7-0.5-3.5,0.2-4.4,1.6
		l-56.5,88.7c-0.9,1.4-0.8,3.2,0.3,4.5C32.9,498,34.7,498.5,36.3,497.9z M93.1,410.1l87.1,25.7L44.3,486.7L93.1,410.1z"/>
	<path class="st9" d="M64.8,494.6L47.7,501c-2,0.7-3,3-2.3,5l25,66.7l-0.4,13c0,1.3,0.6,2.5,1.6,3.2c1,0.7,2.4,0.9,3.6,0.5l26.9-10
		c1.2-0.4,2.1-1.5,2.4-2.7c0.3-1.2,0-2.6-0.9-3.5l-8.8-9.6l-25-66.7C69,494.8,66.8,493.8,64.8,494.6L64.8,494.6z M77.9,580.1l0.2-8
		c0-0.5-0.1-1-0.2-1.5L54,506.8l9.9-3.7L87.7,567c0.2,0.5,0.4,0.9,0.8,1.3l5.5,5.9L77.9,580.1L77.9,580.1z"/>
	<path class="st9" d="M105.6,479.3l-17.1,6.4c-2,0.7-3,3-2.3,5l25,66.7l-0.4,13c0,1.3,0.6,2.5,1.6,3.2c1,0.7,2.4,0.9,3.6,0.5
		l26.9-10c1.2-0.5,2.1-1.5,2.4-2.7c0.3-1.2,0-2.6-0.9-3.5l-8.8-9.6l-25-66.7C109.8,479.6,107.5,478.6,105.6,479.3L105.6,479.3z
		 M118.6,564.9l0.2-8c0-0.5-0.1-1-0.2-1.5l-23.9-63.8l9.9-3.7l23.9,63.8c0.2,0.5,0.4,0.9,0.8,1.3l5.5,5.9L118.6,564.9L118.6,564.9z"
		/>
	<path class="st9" d="M146.3,464.1l-17.1,6.4c-2,0.7-3,3-2.3,5l25,66.7l-0.4,13c0,1.3,0.6,2.5,1.6,3.2c1,0.7,2.4,0.9,3.6,0.5
		l26.9-10c1.2-0.5,2.1-1.5,2.4-2.7c0.3-1.2,0-2.6-0.9-3.5l-8.8-9.6l-25-66.7C150.5,464.3,148.3,463.3,146.3,464.1L146.3,464.1z
		 M159.4,549.6l0.2-8c0-0.5-0.1-1-0.2-1.5l-23.9-63.8l9.9-3.7l23.9,63.8c0.2,0.5,0.4,0.9,0.8,1.3l5.5,5.9L159.4,549.6L159.4,549.6z"
		/>
	<path class="st9" d="M187.1,448.8l-17.1,6.4c-2,0.7-3,3-2.3,5l25,66.7l-0.4,13c0,1.3,0.6,2.5,1.6,3.2c1,0.7,2.4,0.9,3.6,0.5
		l26.9-10c1.2-0.5,2.1-1.5,2.4-2.7c0.3-1.2,0-2.6-0.9-3.5l-8.8-9.6l-25-66.7C191.3,449.1,189,448.1,187.1,448.8L187.1,448.8z
		 M200.2,534.4l0.2-8c0-0.5-0.1-1-0.2-1.5l-23.9-63.8l9.9-3.7l23.9,63.8c0.2,0.5,0.4,0.9,0.8,1.3l5.5,5.9L200.2,534.4L200.2,534.4z"
		/>
	<path class="st9" d="M72.5,600.1c0.7,2,3,3,5,2.2l153.7-57.5c2-0.7,3-3,2.3-5c-0.7-2-3-3-5-2.2L74.8,595.1
		C72.8,595.9,71.7,598.1,72.5,600.1z"/>
	<path class="st9" d="M241.8,546.1L70.3,610.3c-2,0.7-3,3-2.3,5s3,3,5,2.2l171.5-64.2c2-0.7,3-3,2.3-5
		C246,546.4,243.8,545.4,241.8,546.1z"/>
</g>
<defs>
	
		<filter id="Adobe_OpacityMaskFilter_00000166638214914725017500000008796601261392973195_" filterUnits="userSpaceOnUse" x="1417.9" y="453.1" width="187.2" height="244.6">
		<feColorMatrix  type="matrix" values="1 0 0 0 0  0 1 0 0 0  0 0 1 0 0  0 0 0 1 0"/>
	</filter>
</defs>
<mask maskUnits="userSpaceOnUse" x="1417.9" y="453.1" width="187.2" height="244.6" id="mask2_0_1_00000161625970086637361060000012184214236286405013_">
	<path style="fill:#FFFFFF;filter:url(#Adobe_OpacityMaskFilter_00000166638214914725017500000008796601261392973195_);" d="
		M1605.1,453.1h-187.2v244.6h187.2V453.1z"/>
</mask>
<g class="st13">
	<path class="st9" d="M1501.9,642.2c31.7,0,62.2-17.6,76.4-47.5c19.6-41.2,1.4-90.2-40.7-109.4c-42.1-19.2-92.2-1.3-111.8,39.8
		c-19.6,41.2-1.4,90.2,40.7,109.4C1478,639.7,1490,642.2,1501.9,642.2z M1476.2,628.7l1.7-13.7c0.1-0.5,0-1.1-0.3-1.6l-5.2-9.7
		l1.8-3.7l13.7,11l5.6,9.9c0.1,0.1,0.2,0.3,0.2,0.4l9.7,11.9C1494.4,633.3,1485.1,631.9,1476.2,628.7L1476.2,628.7z M1555.3,611.4
		l-12.7-8c-0.9-0.5-2-0.6-2.8-0.1l-14.1,7.8l-16.3-0.6l-4.3-15.5l7.5-22.6c0.2-0.7,0.2-1.5-0.2-2.2l-10.7-18.2l3-19.5l6.8-2
		l3.4,15.2c0.2,0.9,0.8,1.6,1.7,1.9l15.3,5.9l11.2,17c0.5,0.8,1.5,1.3,2.4,1.2l13.3-0.5l12.9,15.5c-0.5,1.3-1.1,2.6-1.7,4
		C1566.3,598.7,1561.2,605.6,1555.3,611.4L1555.3,611.4z M1502.2,486.5c3.8,0,7.7,0.3,11.5,0.9v4.9c0,0.8,0.3,1.5,0.9,2l10.4,9.4
		l0.1,10.8l-10.7-0.4l-8.8-11.2c-0.2-0.3-0.5-0.5-0.9-0.7l-12.5-6.7l-0.8-8.3C1494.9,486.7,1498.5,486.5,1502.2,486.5L1502.2,486.5z
		 M1466.4,551.3l2.2,7.6l-19.1,9.2l-22.4-10.2c0.3-9.4,2.4-19,6.6-28.1l9.8,0.1l4,5.5c0.5,0.6,1.2,1.1,2,1.1
		c0.8,0.1,1.6-0.2,2.2-0.8l14.8-14.3l0.5,10.8c0,0.7,0.3,1.3,0.8,1.8l4.9,4.7l-5.9,10.5C1466.3,549.8,1466.2,550.5,1466.4,551.3
		L1466.4,551.3z M1427.2,563.8l21.2,9.7c0.4,0.2,0.8,0.3,1.2,0.3c0.4,0,0.8-0.1,1.2-0.3l22.4-10.7c1.2-0.6,1.8-1.9,1.4-3.1l-2.5-8.7
		l6.4-11.3c0.6-1.1,0.4-2.4-0.5-3.2l-5.6-5.4l-0.8-15.7c0-1.1-0.7-2-1.7-2.4c-1-0.4-2.2-0.2-2.9,0.6l-16.8,16.3l-2.9-4
		c-0.5-0.7-1.3-1.1-2.2-1.2l-8.5-0.1c10.7-19,29.1-31.7,49.5-36.1l0.9,9.2c0.1,0.9,0.6,1.7,1.4,2.1l13.3,7.2l9.2,11.7
		c0.5,0.6,1.3,1,2.1,1.1l14.9,0.5c0,0,0.1,0,0.1,0c0.7,0,1.4-0.3,1.9-0.8c0.5-0.5,0.8-1.2,0.8-2l-0.1-14.8c0-0.7-0.3-1.5-0.9-2
		l-10.4-9.4v-2.7c4.9,1.1,9.8,2.8,14.6,4.9c34.1,15.6,50.7,53.3,40.1,87.5l-11.6-14c-0.6-0.7-1.4-1-2.2-1l-13.2,0.5l-10.8-16.4
		c-0.3-0.5-0.8-0.8-1.3-1l-14.7-5.6l-3.8-16.7c-0.2-0.7-0.6-1.4-1.3-1.7c-0.7-0.4-1.4-0.5-2.2-0.3l-11.3,3.3c-1,0.3-1.8,1.2-1.9,2.2
		l-3.5,22.1c-0.1,0.6,0,1.2,0.4,1.8L1507,572l-7.4,22.2c-0.2,0.5-0.2,1,0,1.5l5.1,18.2c0.3,1.1,1.4,1.9,2.5,2l19.1,0.7
		c0.5,0,1-0.1,1.4-0.3l13.3-7.3l10.1,6.4c-11.6,9.8-25.9,15.9-41,17.5l-11.9-14.7l-5.7-10.2c-0.2-0.3-0.4-0.6-0.7-0.8l-16.8-13.5
		c-0.7-0.5-1.5-0.7-2.3-0.5c-0.8,0.2-1.5,0.7-1.9,1.5l-3.9,8.1c-0.4,0.8-0.3,1.6,0,2.4l5.4,10.1l-1.4,11.4c-0.2-0.1-0.4-0.2-0.6-0.3
		C1444.4,614.6,1428.7,590,1427.2,563.8L1427.2,563.8z"/>
	<path class="st9" d="M1549.7,470.4l6.4-13.5l-8.3-3.8l-8.3,17.5c-1.1,2.2-0.1,4.9,2.2,6c46.9,21.4,67.3,76.2,45.4,122.1
		c-10.6,22.2-29.4,39.1-53,47.5c-23.6,8.4-49.1,7.3-71.8-3.1c-1.1-0.5-2.4-0.6-3.5-0.1c-1.1,0.4-2.1,1.2-2.6,2.3l-8,16.9l8.3,3.8
		l6.2-12.9c11.2,4.5,22.9,7,34.8,7.6v28.1h-43.7v9h96.5v-9h-43.7v-28.1c10.3-0.5,20.7-2.4,30.7-6c25.9-9.2,46.5-27.7,58.2-52.2
		C1618.8,553.4,1598.3,495.2,1549.7,470.4L1549.7,470.4z"/>
</g>
<defs>
	
		<filter id="Adobe_OpacityMaskFilter_00000087375982537198732160000004868759256306896813_" filterUnits="userSpaceOnUse" x="233.2" y="24.5" width="263.2" height="291.3">
		<feColorMatrix  type="matrix" values="1 0 0 0 0  0 1 0 0 0  0 0 1 0 0  0 0 0 1 0"/>
	</filter>
</defs>
<mask maskUnits="userSpaceOnUse" x="233.2" y="24.5" width="263.2" height="291.3" id="mask3_0_1_00000142144973540384584810000007267925952754263994_">
	<path style="fill:#FFFFFF;filter:url(#Adobe_OpacityMaskFilter_00000087375982537198732160000004868759256306896813_);" d="
		M514.5,40L271.6,0.4l-45.7,280.1l242.9,39.6L514.5,40z"/>
</mask>
<g class="st15">
	<path class="st9" d="M398.4,50.1l11.9,1.9l-2,12c-0.5,2.8,1.4,5.5,4.3,6c2.8,0.5,5.5-1.5,5.9-4.3l2-12l12.7,2.1
		c2.8,0.5,5.5-1.5,5.9-4.3c0.5-2.8-1.4-5.5-4.3-6l-12.7-2.1l2.1-12.8c0.5-2.8-1.4-5.5-4.3-6c-2.8-0.5-5.5,1.5-5.9,4.3L412,41.7
		l-11.9-1.9c-2.8-0.5-5.5,1.5-5.9,4.3C393.6,46.9,395.6,49.6,398.4,50.1z"/>
	<path class="st9" d="M375.8,253.5l-131.5-21.4L269,80.3l216.3,35.3l-15.7,96.6c-0.5,2.8,1.4,5.5,4.3,6c2.8,0.5,5.5-1.5,5.9-4.3
		l16.6-101.7c0.5-2.8-1.4-5.5-4.3-6L265.6,69.2c-2.8-0.5-5.5,1.5-5.9,4.3l-26.4,162.1c-0.5,2.8,1.4,5.5,4.3,6l136.6,22.3
		c2.8,0.5,5.5-1.5,5.9-4.3C380.5,256.7,378.6,254,375.8,253.5z"/>
	<path class="st9" d="M438.9,228.1c-11.1-1.8-21.7,5.8-23.5,17.1c-1.8,11.2,5.7,21.9,16.9,23.7c11.1,1.8,21.7-5.8,23.5-17.1
		C457.6,240.6,450,229.9,438.9,228.1z M433.2,262.7c-7.8-1.3-13-8.7-11.8-16.5c1.3-7.8,8.6-13.2,16.4-11.9c7.8,1.3,13,8.7,11.8,16.5
		C448.4,258.7,441,264,433.2,262.7z"/>
	<path class="st9" d="M461.9,278.6l3.9,0.1c1.6,0,3.1-0.7,4.1-1.9c1-1.2,1.4-2.9,1-4.5l-2-8.7l7.8-4.3c1.4-0.8,2.4-2.1,2.6-3.8
		c0.3-1.6-0.2-3.2-1.3-4.4l-6-6.5l4.6-7.6c0.8-1.4,1-3.1,0.4-4.6c-0.6-1.5-1.8-2.7-3.3-3.1l-8.4-2.6l0.3-8.9
		c0.1-1.6-0.7-3.2-1.9-4.2c-1.2-1-2.9-1.4-4.4-1l-8.6,2l-4.2-7.8c-0.8-1.4-2.1-2.4-3.7-2.7c-1.6-0.3-3.2,0.2-4.4,1.3l-6.5,6.1
		l-7.5-4.6c-1.4-0.8-3-1-4.5-0.4c-1.5,0.6-2.6,1.8-3.1,3.4l-2.6,8.5l-8.8-0.3c-1.6-0.1-3.1,0.7-4.1,1.9c-1,1.2-1.4,2.9-1,4.5l2,8.7
		l-7.8,4.3c-1.4,0.8-2.4,2.1-2.6,3.8c-0.3,1.6,0.2,3.2,1.3,4.4l6,6.5l-4.6,7.6c-0.8,1.4-1,3.1-0.4,4.6c0.6,1.5,1.8,2.7,3.3,3.1
		l3.7,1.1l-14.4,15.8c-1.4,1.5-1.7,3.6-1,5.5c0.7,1.9,2.5,3.1,4.5,3.2l11.9,0.6l1.6,11.9c0.3,2,1.7,3.7,3.6,4.3c1.9,0.6,4,0,5.4-1.5
		l14.7-16.1c0.3,0.1,0.7,0.2,1,0.3c0.3,0.1,0.7,0.1,1.1,0.1l8.8,20c0.7,1.6,2.2,2.7,3.9,3c0.2,0,0.5,0.1,0.7,0.1
		c2,0,3.8-1.1,4.7-2.9l5.3-10.8l11.5,3.2c1.9,0.5,4-0.1,5.3-1.6c1.3-1.5,1.6-3.7,0.8-5.5L461.9,278.6L461.9,278.6z M458,262.1l1.4,6
		l-5.4-0.2c-1.8-0.1-3.5,0.8-4.4,2.3c-1,1.5-1.2,3.4-0.4,5l7.5,17l-5-1.4c-2.3-0.7-4.9,0.5-6,2.7l-2.3,4.7l-6.8-15.4
		c-0.7-1.5-2.1-2.6-3.7-3c-0.1,0-0.1,0-0.2,0c-0.7-0.1-1.5-0.1-2.2,0.1c-0.7-0.4-1.4-0.7-2.2-0.8c-1.7-0.2-3.3,0.4-4.4,1.6
		l-11.3,12.4l-0.7-5.2c-0.3-2.5-2.4-4.4-4.8-4.5l-5.2-0.3l12.6-13.8c1.2-1.3,1.6-3.2,1.2-4.9c-0.5-1.7-1.8-3.1-3.5-3.6l-5.2-1.6
		l3.2-5.2c1.2-2,1-4.6-0.6-6.3l-4.1-4.5l5.3-2.9c2-1.1,3.1-3.5,2.6-5.8l-1.4-6l6.1,0.2c2.3,0.1,4.4-1.5,5.1-3.7l1.8-5.8l5.2,3.2
		c2,1.2,4.5,1,6.2-0.6l4.4-4.2l2.9,5.4c1.1,2.1,3.4,3.1,5.7,2.6l5.9-1.4l-0.2,6.1c-0.1,2.4,1.4,4.5,3.7,5.1l5.8,1.8l-3.2,5.2
		c-1.2,2-1,4.6,0.6,6.3l4.1,4.5l-5.3,2.9C458.5,257.5,457.5,259.9,458,262.1L458,262.1z"/>
	<path class="st9" d="M465.7,133.5l-183.8-30c-2.8-0.5-5.5,1.5-5.9,4.3c-0.5,2.8,1.4,5.5,4.3,6l183.8,30c2.8,0.5,5.5-1.5,5.9-4.3
		C470.4,136.7,468.5,134,465.7,133.5z"/>
	<path class="st9" d="M461.3,160.5l-183.8-30c-2.8-0.5-5.5,1.5-5.9,4.3c-0.5,2.8,1.4,5.5,4.3,6l183.8,30c2.8,0.5,5.5-1.5,5.9-4.3
		C466,163.6,464.1,160.9,461.3,160.5z"/>
	<path class="st9" d="M456.9,187.4l-183.8-30c-2.8-0.5-5.5,1.5-5.9,4.3c-0.5,2.8,1.4,5.5,4.3,6l183.8,30c2.8,0.5,5.5-1.5,5.9-4.3
		C461.6,190.6,459.7,187.9,456.9,187.4z"/>
	<path class="st9" d="M391.1,204.3l-124-20.2c-2.8-0.5-5.5,1.5-5.9,4.3c-0.5,2.8,1.4,5.5,4.3,6l124,20.2c2.8,0.5,5.5-1.5,5.9-4.3
		C395.8,207.5,393.9,204.8,391.1,204.3L391.1,204.3z"/>
</g>
</svg>
