<svg xmlns="http://www.w3.org/2000/svg" width="497" height="497" fill="none" xmlns:v="https://vecta.io/nano"><style><![CDATA[.B{stroke-linejoin:round}.C{stroke-width:1.657}.D{fill:#fff}.E{stroke:#2e353a}.F{stroke-linecap:round}.G{fill:#407bff}.H{stroke-miterlimit:10}.I{stroke-width:1.243}.J{fill:#2e353a}.K{stroke-width:.828}]]></style><use href="#B" class="G"/><use href="#B" opacity=".6" class="D"/><use href="#C" class="G"/><use href="#C" opacity=".3" class="D"/><use href="#D" class="G"/><use href="#D" opacity=".3" class="D"/><path d="M421.068 158.304s-9.721 7.435-11.063 13.161.388 11.818 1.531 15.446 1.332 21.173-9.344 28.985-15.447 15.636-14.304 25.367 15.636 20.407 27.653 22.862 28.985-3.051 35.655-17.355-2.286-30.078-7.246-39.024-4.572-17.356.994-17.733 8.389.994 8.588-6.869-1.72-20.019-11.828-26.122-20.636 1.282-20.636 1.282z" class="B C E J"/><path d="M397.133 254.225c.994.666 9.94 4.314 16.56-5.964s-2.396-19.751-.656-28.826m18.904-49.303s-3.101-10.019 3.618-6.769c7.207 3.479 12.922 19.88 10.437 23.608m-15.903-18.14s-3.728-7.207-1.243-10.437 8.201.497 11.183 2.733m-1.491 27.335s.994 4.473-1.988 13.419-8.449 19.135-2.982 28.578 9.692 15.904 3.479 25.347m1.493-62.125a80.62 80.62 0 0 1-1.243 17.395c-1.739 9.94 3.728 16.401 9.443 22.613s4.225 11.431 2.237 17.147m-19.135-80.515s-11.68.994-15.159-.497-2.733-2.733-2.733-2.733" stroke="#fff" class="H K"/><g class="B C D E"><path d="M431.396 210.022s1.52 15.447 3.469 24.383 5.049 20.218 4.274 23.329-17.892 29.542-17.892 29.542l-5.05-3.499 10.497-31.49-8.837-29.522s8.091-11.858 13.539-12.743z"/><path d="M430.036 207.507c-2.485-2.862-7.823-10.298-7.823-10.298l-8.389-9.94-11.63-16.013c-1.531-2.097-6.68-1.342-21.55-1.143s-60.008-8.389-60.008-8.389l-1.521 9.94s41.311 8.946 51.798 9.94 20.218 2.286 20.218 2.286c-1.433 2.853-2.707 5.783-3.817 8.777-1.144 3.429-14.493 21.739-14.493 21.739s-.328.198-.895.576c-.149 3.32.169 10.368 5.129 14.085 3.837 2.873 9.453 4.085 13.509 4.592l.179-.566c.576-1.531 4.771-3.817 7.057-3.976s9.344.189 13.548-.189 6.481-6.103 6.481-6.103 9.264-9.046 13.529-12.743c-.265-.938-.714-1.813-1.322-2.575z"/></g><path d="M396.407 186.196l-5.278-2.336 3.837 6.103m-11.87 30.963c3.972 2.464 8.672 3.486 13.309 2.892m-17.692-9.84s.865 3.479 6.371 5.795m41.58 32.514s3.608-1.551 6.501 2.505m-5.496-29.522l-9.841-2.505 8.678 6.848m-25.755-54.67s-4.92 8.678-10.705 8.39c-7.863-.398-30.108-6.958-30.108-9.265s6.083-3.18 6.083-3.18" class="F I B E"/><g class="C B E"><path d="M417.828 182.141s-3.976-.994-6.869.765-10.486 18.309-10.486 18.309.566.766 2.862.766 2.863 3.051 2.863 5.904-.199 4.195.756 3.976 6.679-2.286 7.822-1.521-1.53 4.573-.994 4.97 5.338-4.393 6.869-9.542 3.051-12.773 2.664-15.825-2.853-7.047-5.487-7.802z" class="G"/><g class="D"><path d="M421.068 197.975a86.55 86.55 0 0 1-6.67 6.67c-4.393 3.976-8.011 6.868-7.823 4.97s4.573-12.207 5.716-17.892 3.25-9.543 5.537-9.543 7.246 11.65 3.24 15.795z"/><path d="M418.782 173.374a3.47 3.47 0 0 0 .73 1.252 3.46 3.46 0 0 0 1.179.845c1.332.378 11.252-5.338 11.252-5.338s7.057 15.059 5.904 17.346-4.572 5.158-8.389 7.822-10.865 4.772-13.539 3.241-.765-17.157-.765-17.157-2.097-2.485.189-6.49 3.439-1.521 3.439-1.521z"/></g></g><path d="M434.756 188.929s.169-1.182-2.038-1.182-6.083 4.055-6.083 4.055m-1.52.338l-1.183-1.183m-.487 3.389s-3.042-.507-3.549-4.403m10.584-7.156s-.756-3.708-3.976-4.424" class="F I B E"/><path d="M426.654 184.774c-.775.607-1.63.806-1.918.438s.099-1.153.865-1.76 1.63-.805 1.918-.437-.099 1.153-.865 1.759zm4.791 6.262c-.636.497-1.342.666-1.581.358s.08-.994.716-1.461 1.342-.656 1.58-.358-.079.954-.715 1.461z" class="J"/><g class="B C D E"><path d="M412.888 353.337l9.751 13.548s0 2.485-3.479 2.485-5.467 0-7.455-2.485-1.988-3.976-3.976-4.97-3.976-.994-2.982-6.461 8.141-2.117 8.141-2.117z"/><path d="M422.6 367.193c-1.545.742-3.277.998-4.97.735-3.519-.636-5.656-4.154-6.958-5.665s-2.893-1.501-4.394-2.764a9.78 9.78 0 0 1-1.849-2.107c-.208 3.539 1.511 3.658 3.221 4.523 1.988.994 1.988 2.485 3.976 4.97s3.976 2.485 7.455 2.485c2.793 0 3.37-1.511 3.519-2.177z"/></g><path d="M412.331 351.617c-1.988-5.964-4.821-41.668-6.292-52.97-2.982-22.981-16.242-52.811-16.242-52.811l.765-12.207c-4.055-.507-9.671-1.719-13.508-4.592-4.97-3.717-5.278-10.765-5.129-14.085-2.515 1.62-9.94 6.501-16.272 11.63-7.813 6.292-13.16 28.607-14.681 35.655s-3.241 27.832-3.241 27.832-13.737 5.338-19.263 12.922-22.316 24.79-22.316 24.79l1.531 5.726s5.149-3.619 9.533-7.058 38.527-22.504 40.813-23.856 4.97-3.976 8.012-11.63c1.113-2.793 2.684-7.365 4.234-12.047l5.298-16.5 5.1-4.344c5.029 13.598 16.719 39.81 18.379 43.557 1.988 4.493 3.498 24.472 8.995 36.967s6.958 18.488 6.958 18.488 9.324.527 7.326-5.467z" class="B C E J"/><path d="M390.234 235.986l1.899 11.083" stroke="#fff" class="H K"/><g class="B C E G"><path d="M121.447 150.382L92.74 394.21a1.89 1.89 0 0 0 .864 1.802c.298.19.644.292.997.295a1.89 1.89 0 0 0 1.002-.278l18.448-11.351c1.095-.679 2.411-.906 3.67-.633a4.97 4.97 0 0 1 3.08 2.094l23.18 34.462 9.671-144.965-32.205-125.254z"/><path d="M121.268 156.515L95.325 388.117c-.056.5.035 1.006.262 1.455a2.59 2.59 0 0 0 2.454 1.414 2.59 2.59 0 0 0 1.39-.503l13.488-9.94c.702-.519 1.502-.889 2.352-1.088s1.73-.222 2.589-.068a6.4 6.4 0 0 1 2.406.961c.728.481 1.35 1.105 1.828 1.835l15.785 24.095a1.43 1.43 0 0 0 .726.576c.3.105.626.107.927.005s.559-.302.733-.567.255-.582.228-.899l-18.429-248.868c-.019-.09-.068-.172-.14-.23s-.161-.092-.253-.093-.183.029-.256.086a.41.41 0 0 0-.146.227z"/></g><path opacity=".6" d="M121.624 153.155L95.303 388.097c-.056.5.035 1.005.262 1.454s.58.822 1.016 1.073.935.37 1.438.341a2.58 2.58 0 0 0 1.389-.502l13.489-9.94a6.41 6.41 0 0 1 2.351-1.088 6.42 6.42 0 0 1 2.59-.069c.859.154 1.677.481 2.405.962a6.42 6.42 0 0 1 1.829 1.835l15.784 24.094a1.42 1.42 0 0 0 .727.576c.3.106.626.107.927.006a1.42 1.42 0 0 0 .733-.568c.174-.265.254-.582.228-.898l-18.658-252.218c-.006-.02-.019-.037-.036-.049s-.037-.019-.058-.019-.042.007-.059.019-.029.029-.036.049z" fill="#000"/><use href="#E" class="B C E G"/><use href="#E" opacity=".3" fill="#000"/><g class="B C E"><path d="M122.033 150.233l21.938 270.368 255.806-48.746-60.117-210.857-217.627-10.765z" class="J"/><path d="M133.891 156.068l15.069 250.239 240.548-43.736-50.704-194.416-204.913-12.087z" class="G"/><path d="M148.592 279.214l11.441 118.614 218.56-39.74-20.307-89.152-209.694 10.278z" class="D"/><path d="M190.778 391.924l-3.628-38.1m37.075 32.206l-3.498-31.759m36.292 25.407l-4.085-25.407m37.87 19.611l-4.861-30.287m34.622 24.92l-4.145-29.561m32.682 24.283l-6.172-35.545" class="F"/><path d="M416.168 283.776s-3.042 3.062-3.241 4.652 1.392 6.382 1.392 6.382l4.791.795 2.107-8.33-5.049-3.499z" class="D"/></g><g style="mix-blend-mode:multiply" opacity=".49" class="G"><path d="M135.105 225.2s5.05 72.672 9.692 99.172 13.25 66.16 13.25 66.16 149.1-23.08 222.656-54.232l-5.964-28.488L135.105 225.2z"/></g><g class="E"><g class="C"><path d="M128.365 153.344l209.406 11.282s20.387 61.081 40.675 95.573 53.745 32.246 53.745 32.246-76.737 41.956-136.506 64.292c-62.204 23.229-116.149 27.404-116.149 27.404s-49.133-67.115-51.171-230.797z" class="B G"/><use href="#F" class="D H"/></g><g class="B F I"><use href="#G"/><path d="M146.725 149.537s1.491-5.387 5.894-5.089c3.459.239 6.312 5.377 5.835 10.874"/></g><path d="M186.871 144.209c-3.886 0-6.699 3.449-7.584 8.857l3.976.218c.616-3.121 1.839-5.099 3.598-5.099 2.048 0 4.324 3.29 4.324 8.022s-2.276 8.031-4.324 8.031a1.99 1.99 0 0 0-1.988 1.988 1.99 1.99 0 0 0 .583 1.406c.372.373.878.582 1.405.582 4.652 0 8.3-5.278 8.3-12.007s-3.628-11.998-8.29-11.998z" class="C D H"/><g class="B F I"><use href="#G" x="34.541" y="1.739"/><use href="#H"/></g><use href="#F" x="69.082" y="3.479" class="C D H"/><g class="B F I"><use href="#G" x="69.082" y="3.479"/><use href="#H" x="34.541" y="1.739"/></g><path d="M255.965 147.688c-3.886 0-6.699 3.449-7.584 8.857l3.976.218c.616-3.121 1.839-5.099 3.598-5.099 2.048 0 4.324 3.29 4.324 8.022s-2.276 8.031-4.324 8.031c-.527 0-1.033.21-1.406.582s-.582.879-.582 1.406.21 1.033.582 1.406a1.99 1.99 0 0 0 1.406.582c4.652 0 8.3-5.278 8.3-12.007s-3.638-11.998-8.29-11.998z" class="C D H"/><g class="B F I"><use href="#G" x="103.625" y="5.218"/><path d="M250.348 154.756s1.491-5.387 5.894-5.089c3.459.238 6.312 5.377 5.835 10.874"/></g><path d="M291.131 149.229c-3.887 0-6.7 3.449-7.574 8.866l3.976.219c.626-3.121 1.849-5.109 3.598-5.109 2.048 0 4.334 3.3 4.334 8.032s-2.286 8.021-4.334 8.021c-.527 0-1.033.21-1.406.582a1.99 1.99 0 0 0 0 2.812 1.99 1.99 0 0 0 1.406.582c4.662 0 8.31-5.268 8.31-11.997s-3.648-12.008-8.31-12.008z" class="C D H"/><path d="M296.837 164.457c-.189.698-.435 1.38-.735 2.038m-10.584-10.189s1.501-5.397 5.894-5.099c3.469.238 6.312 5.387 5.845 10.884" class="B F I"/><path d="M324.918 151.088c-3.887 0-6.7 3.449-7.574 8.856l3.976.229c.626-3.121 1.849-5.109 3.598-5.109 2.048 0 4.334 3.3 4.334 8.021s-2.286 8.032-4.334 8.032a1.99 1.99 0 0 0-1.988 1.988 1.99 1.99 0 0 0 1.988 1.988c4.662 0 8.31-5.278 8.31-12.008s-3.648-11.997-8.31-11.997z" class="C D H"/><g class="B"><path d="M330.624 166.256a12.95 12.95 0 0 1-.735 2.048m-10.586-10.188s1.501-5.398 5.894-5.1c3.469.239 6.312 5.378 5.845 10.875" class="F I"/><path d="M421.218 287.266s1.988 2.724 1.988 3.887-2.723 3.111-2.723 5.825-3.499 1.988-3.887 0 .775-4.662.775-4.662-1.62-.994-1.988-4.493 2.784-2.505 2.784-2.505l3.051 1.948zm-49.701-26.908c-14.403-24.492-29.532-63.169-34.91-77.403l-187.14-7.584c-.119 138.315 41.748 195.46 41.748 195.46s47.662-3.687 102.631-24.224c52.821-19.73 115.82-52.85 115.82-52.85s-20.227-2.913-38.149-33.399z" class="C D"/><path d="M336.607 182.955l-187.14-7.584c0 13.608.387 26.411 1.103 38.468l197.627-1.849c-5.119-12.196-9.244-22.882-11.59-29.035z" class="C J"/><g class="F"><path d="M339.918 224.187l8.847-.309m-34.851 1.193l19.373-.666m-50.851 1.73l24.899-.845m-56.927 1.928l26.53-.894m-57.493 1.948l24.323-.825m-56.946 1.938l24.343-.835m-53.06 1.809l22.654-.775" stroke-width="4.97"/><g class="C"><path d="M154.418 251.681l205.887-12.545m-173.354 10.775s3.38 54.75 39.472 115.523m-6.253-117.72s3.807 62.622 43.378 108.476M250.25 245.866s1.988 57.652 46.47 99.082m-15.288-100.424s4.91 64.093 47.96 86.667"/><path d="M314.104 241.949s3.459 48.478 47.493 75.027m-21.769-76.597s11.849 49.7 44.998 65.793"/><path d="M158.93 279.92l210.29-23.13m-204.804 47.871s44.899-1.76 214.585-33.031M172.34 330.852s43.736 4.97 215.082-49.59m-205.619 72.442s36.46 12.077 215.559-64.61"/></g></g></g></g><path d="M230.299 202.428l-67.413-.904c-.546-.009-1.071-.215-1.477-.58a2.26 2.26 0 0 1-.73-1.408l-.576-5.448a2.22 2.22 0 0 1 .097-.93c.098-.3.258-.575.471-.808s.472-.418.761-.544a2.24 2.24 0 0 1 .917-.183l66.598 1.153a2.25 2.25 0 0 1 2.137 1.69l1.352 5.179c.085.327.093.67.026 1.001s-.21.643-.416.912a2.23 2.23 0 0 1-.773.637 2.24 2.24 0 0 1-.974.233z" class="D"/><defs ><path id="B" d="M449.229 288.041c1.299-6.47 3.43-12.744 6.342-18.667 7.952-16.282 13.667-30.526 8.608-48.706-12.396-44.402-62.811-49.591-87.681-83.079-38.448-51.747-132.918-56.24-178.045-11.52-13.837 13.707-20.318 33.07-34.303 46.629-20.606 19.989-51.201 22.563-72.364 42.493-34.502 32.514-37.851 87.611-7.226 124.171 32.345 38.606 77.999 32.275 122.342 24.064 21.818-4.035 44.501-8.409 66.737-5.308 47.423 6.68 103.694 32.733 149.656 6.799 24.483-13.816 25.109-35.366 24.542-60.505-.138-5.491.329-10.981 1.392-16.371z"/><path id="C" d="M255.954 423.444c105.128 0 190.351-18.023 190.351-40.257s-85.223-40.257-190.351-40.257-190.35 18.024-190.35 40.257 85.224 40.257 190.351 40.257z"/><path id="D" d="M38.816 113.455c-.232-.839-.285-1.717-.155-2.577a6.2 6.2 0 0 1 .908-2.417c.469-.734 1.086-1.36 1.813-1.839s1.546-.799 2.404-.94c5.199-.706 11.58 6.272 13.608 10.496.169.368 2.246 6.392 2.147 6.392s-9.214.208-12.922-1.442c-3.25-1.401-6.938-4.075-7.803-7.673zM172.33 97.412c-.765 3.618-4.383 6.391-7.544 7.882s-10.666 1.749-12.505 1.779l-3.2 3.897c-1.988 2.544-4.195 5.437-6.382 8.737-.586.885-1.183 1.849-1.779 2.783l3.369-3.36c3.668-2.912 12.455-6.401 16.819-3.498.712.5 1.311 1.146 1.757 1.893a6.21 6.21 0 0 1 .833 2.445 6.19 6.19 0 0 1-.234 2.573c-.258.831-.688 1.599-1.263 2.253-2.355 2.863-6.838 3.658-10.337 3.519s-10.487-3.469-11.978-4.215c-1.282 2.078-2.555 4.245-3.747 6.581-2.221 4.211-4.061 8.612-5.497 13.15l.268.13c1.064-1.402 3.38-4.294 3.599-4.503 3.319-3.31 11.679-7.734 16.341-5.338.754.423 1.411.998 1.931 1.689a6.2 6.2 0 0 1 1.083 2.325 6.21 6.21 0 0 1 .052 2.565c-.161.849-.498 1.655-.989 2.367-1.988 3.111-6.391 4.393-9.88 4.632-3.976.288-12.336-2.853-12.654-2.982a110.2 110.2 0 0 0-2.982 13.846c-.536 3.46-.944 6.958-1.322 10.527.726-.994 3.768-4.801 3.976-5.05 3.32-3.3 11.68-7.733 16.332-5.327.763.42 1.429.996 1.955 1.69s.899 1.493 1.096 2.342a6.2 6.2 0 0 1 .047 2.584c-.166.855-.511 1.666-1.011 2.379-1.988 3.102-6.391 4.384-9.88 4.622-3.927.279-11.928-2.693-12.584-2.982l-.497 4.831-1.65 15.745c-.229 1.799-.507 3.569-.786 5.338 1.134-1.471 3.241-4.105 3.45-4.314 3.32-3.3 11.679-7.733 16.341-5.328.755.422 1.414.996 1.934 1.687s.889 1.484 1.085 2.326a6.2 6.2 0 0 1 .051 2.566c-.162.85-.5 1.656-.993 2.367-1.988 3.101-6.391 4.384-9.88 4.632s-10.268-2.107-12.166-2.803c-.488 2.982-.994 5.855-1.71 8.688-.318 1.222-.557 2.485-.935 3.638l-.994 3.469-2.316 6.689-1.182 3.181c.924-1.67 2.435-4.274 2.594-4.503 2.783-3.767 10.367-9.403 15.337-7.733.819.298 1.565.766 2.191 1.372s1.116 1.337 1.439 2.146a6.19 6.19 0 0 1 .439 2.546c-.035.871-.253 1.724-.639 2.504-1.531 3.38-5.656 5.308-9.076 6.074-3.757.855-11.828-.786-12.812-.994l-2.923 7.435c-2.982 7.385-5.814 13.429-7.832 17.633l-.328.676h14.701l-5.079 99.003c-.139 3.66-1.694 7.123-4.336 9.66a14.14 14.14 0 0 1-9.829 3.938 14.15 14.15 0 0 1-9.747-3.887c-2.631-2.497-4.201-5.91-4.387-9.532l-5.079-99.003H96.19l-.249-2.226c-.527-4.573-1.382-11.113-2.753-18.886l-1.332-7.058c-.994.129-9.165 1.163-12.852 0-3.34-.994-7.316-3.26-8.588-6.739-.326-.807-.479-1.674-.448-2.544a6.2 6.2 0 0 1 .627-2.505c.382-.782.925-1.475 1.593-2.033s1.446-.97 2.283-1.208c5.079-1.302 12.226 4.9 14.721 8.856.159.259 1.7 3.47 2.455 5.13l-.924-4.464c-.477-2.196-.994-4.502-1.581-6.749l-.994-3.489c-.348-1.173-.746-2.286-1.113-3.459-.577-1.69-1.262-3.409-1.988-5.129-2.207.616-8.727 2.296-12.077 1.809s-7.733-2.107-9.513-5.348a6.2 6.2 0 0 1-.831-2.448c-.102-.866-.02-1.743.239-2.575s.692-1.599 1.268-2.253a6.2 6.2 0 0 1 2.077-1.54c4.821-2.058 12.823 2.982 15.904 6.53.099.11.676.925 1.342 1.899l-2.197-4.97c-2.207-4.692-4.602-9.413-6.958-14.145l-1.471-2.982c-1.859.527-8.946 2.416-12.415 1.909s-7.733-2.108-9.513-5.358a6.2 6.2 0 0 1-.563-5.004 6.2 6.2 0 0 1 1.268-2.241 6.22 6.22 0 0 1 2.068-1.532c4.821-2.048 12.823 2.982 15.904 6.541.109.119.795 1.093 1.541 2.196-1.252-2.594-2.475-5.188-3.608-7.813a111.44 111.44 0 0 1-4.97-13.776c-.646.188-8.867 2.574-12.773 1.988-3.459-.497-7.723-2.108-9.503-5.348-.446-.748-.73-1.582-.833-2.447s-.022-1.742.237-2.574a6.21 6.21 0 0 1 1.265-2.254c.575-.654 1.282-1.179 2.074-1.542 4.831-2.048 12.832 2.982 15.904 6.531.219.258 2.644 3.797 3.469 5.099-.004-.056-.004-.113 0-.169a80.71 80.71 0 0 1-2.386-14.184 111.92 111.92 0 0 1-.358-12.853c.099-3.976.427-7.614.745-10.825a152.58 152.58 0 0 1 .596-4.811l-.089.06c-.089.06-1.839-6.063-1.908-6.461-.775-4.622.457-13.996 5.109-16.411.785-.378 1.641-.587 2.512-.613a6.21 6.21 0 0 1 2.544.463c.806.331 1.534.828 2.136 1.458s1.064 1.38 1.357 2.201c1.352 3.449-.139 7.753-1.988 10.745s-7.952 7.336-9.443 8.38l-.517 4.97c-.248 3.21-.497 6.838-.507 10.804l.05 3.3c.358-1.868.885-4.413.994-4.661 1.441-4.454 6.849-12.207 12.097-12.197a6.21 6.21 0 0 1 2.511.612c.785.378 1.481.917 2.044 1.581s.979 1.441 1.222 2.277.307 1.715.188 2.578c-.378 3.687-3.688 6.818-6.68 8.637s-10.695 2.943-12.346 3.132c.08 2.445.209 4.97.507 7.554.471 4.735 1.363 9.418 2.664 13.996h.298c.119-1.76.457-5.448.517-5.756.994-4.582 5.467-12.922 10.686-13.449.868-.07 1.741.044 2.562.333a6.21 6.21 0 0 1 2.204 1.349c.632.599 1.131 1.324 1.464 2.129s.493 1.671.469 2.541c0 3.698-2.912 7.187-5.686 9.314-3.201 2.455-11.868 4.423-12.196 4.493a108.3 108.3 0 0 0 5.119 13.22c1.461 3.181 3.061 6.352 4.702 9.513.06-1.243.497-6.084.567-6.432.994-4.582 5.467-12.922 10.686-13.458a6.21 6.21 0 0 1 2.561.336 6.22 6.22 0 0 1 2.203 1.348c.632.599 1.13 1.324 1.464 2.128a6.21 6.21 0 0 1 .472 2.539c0 3.708-2.922 7.187-5.696 9.314-3.121 2.396-11.411 4.324-12.117 4.483l2.246 4.304 7.316 14.045c.805 1.63 1.541 3.261 2.286 4.891.129-1.859.447-5.219.497-5.507.994-4.582 5.477-12.922 10.685-13.459.868-.07 1.741.044 2.562.333a6.21 6.21 0 0 1 3.668 3.478c.333.804.493 1.67.469 2.541 0 3.707-2.912 7.186-5.686 9.314s-9.731 3.906-11.689 4.383c1.223 2.744 2.395 5.427 3.39 8.171.408 1.193.895 2.375 1.223 3.538l1.054 3.47 1.759 6.858.765 3.3c-.149-1.888-.328-4.9-.318-5.179.249-4.671 3.459-13.568 8.529-14.91a6.22 6.22 0 0 1 2.584-.058c.856.162 1.668.503 2.384 1s1.318 1.139 1.769 1.885.739 1.577.847 2.442a7.86 7.86 0 0 1 .09 1.371c2.041 3.575 3.132 7.613 3.17 11.73 0 .298-.487 3.826-.775 5.626l1.68-4.225c.825-2.097 1.62-4.334 2.415-6.501l1.114-3.449c.397-1.163.636-2.316.994-3.499.457-1.729.835-3.548 1.212-5.347-2.177-.716-8.548-2.903-11.073-5.159s-5.278-6.024-4.97-9.712a6.23 6.23 0 0 1 .66-2.497c.393-.777.945-1.463 1.62-2.013s1.457-.953 2.298-1.181a6.2 6.2 0 0 1 2.579-.143c5.159.994 9.055 9.572 9.652 14.214 0 .149.049 1.143.069 2.326l.905-5.358c.755-5.129 1.352-10.387 1.988-15.645l.407-3.291c-1.839-.586-8.757-2.892-11.401-5.258s-5.278-6.024-4.97-9.711a6.21 6.21 0 0 1 .654-2.502c.392-.779.944-1.466 1.619-2.017a6.21 6.21 0 0 1 2.302-1.179 6.18 6.18 0 0 1 2.582-.137c5.159.994 9.045 9.572 9.652 14.214a55.23 55.23 0 0 0 .069 2.684c.378-2.863.796-5.696 1.302-8.509.825-4.837 1.978-9.612 3.45-14.293-.656-.199-8.817-2.744-11.759-5.368-2.615-2.336-5.288-6.024-4.97-9.711.039-.871.262-1.724.654-2.502a6.19 6.19 0 0 1 1.619-2.017c.675-.55 1.46-.952 2.301-1.179s1.722-.274 2.582-.137c5.149.994 9.046 9.572 9.652 14.214l.08 6.163c0-.06 0-.119.049-.169 1.553-4.547 3.506-8.948 5.835-13.151 2.068-3.772 4.352-7.423 6.839-10.934 2.276-3.27 4.552-6.113 6.6-8.618 1.113-1.352 2.157-2.564 3.141-3.687h-.109c-.1 0 1.819-6.084 1.988-6.452 1.908-4.274 8.101-11.421 13.309-10.864.868.118 1.701.419 2.444.882a6.2 6.2 0 0 1 1.867 1.805 6.18 6.18 0 0 1 .965 2.412 6.19 6.19 0 0 1-.107 2.595zm-60.127 125.84c-.894-.427-7.763-3.827-10.447-6.739a66.34 66.34 0 0 1-7.177 3.369l1.67 7.813a329.14 329.14 0 0 1 3.191 19.035l.348 2.664h.348l1.153-2.236a332.36 332.36 0 0 0 8.131-17.286c.914-2.087 1.849-4.314 2.783-6.62zm27.474-100.096c.08 0 1.67-6.113 1.73-6.52.646-4.632-.835-13.976-5.557-16.262-.795-.357-1.657-.542-2.529-.544s-1.734.18-2.531.534-1.51.87-2.094 1.518-1.025 1.41-1.295 2.239c-1.262 3.479.348 7.743 2.247 10.676 2.226 3.489 10.019 8.359 10.029 8.359z"/><path id="E" d="M116.824 379.25c1.045.018 2.069.291 2.983.796a6.41 6.41 0 0 1 2.266 2.097l15.784 24.094a1.42 1.42 0 0 0 .727.576c.3.105.626.107.927.005s.559-.301.733-.567.254-.582.228-.898l-2.257-30.457-21.729 4.255c.116.022.229.056.338.099z"/><path id="F" d="M152.34 142.47c-3.886 0-6.699 3.449-7.584 8.856l3.976.219c.616-3.121 1.839-5.099 3.598-5.099 2.048 0 4.324 3.29 4.324 8.021s-2.276 8.032-4.324 8.032a1.99 1.99 0 0 0-1.406.582c-.372.373-.582.879-.582 1.406s.21 1.033.582 1.406.879.582 1.406.582c4.652 0 8.3-5.278 8.3-12.008s-3.638-11.997-8.29-11.997z"/><path id="G" d="M158.046 157.688c-.19.701-.436 1.386-.735 2.048"/><path id="H" d="M181.266 151.277s1.491-5.388 5.894-5.09c3.459.239 6.312 5.378 5.835 10.875"/></defs></svg>