<svg xmlns="http://www.w3.org/2000/svg" fill="none" viewBox="0 0 503 503"><path d="M238.199 136.112c-39.344 25.784-14.969 77.864 38.057 45.451 56.99-34.848 135.81-52.785 161.282 20.049 31.086 88.951-68.871 199.52-174.953 199.52-106.083 0-225.083-89.031-206.14-189.128C86.766 51.879 322.22 81.064 238.2 136.112Z" fill="#407BFF"/><path d="M238.199 136.112c-39.344 25.784-14.969 77.864 38.057 45.451 56.99-34.848 135.81-52.785 161.282 20.049 31.086 88.951-68.871 199.52-174.953 199.52-106.083 0-225.083-89.031-206.14-189.128C86.766 51.879 322.22 81.064 238.2 136.112Z" fill="#fff" opacity=".9"/><path d="M251.499 430.126c107.725 0 195.053-5.099 195.053-11.388s-87.328-11.388-195.053-11.388-195.054 5.099-195.054 11.388 87.329 11.388 195.054 11.388Z" fill="#F5F5F5"/><path d="m447.993 298.51-.644 19.687a2.933 2.933 0 0 1-.924 2.041 2.933 2.933 0 0 1-2.094.796l-21.548-.704-63.378-2.062-2.274-.071-15.019-.493a2.936 2.936 0 0 1-2.837-3.018l.643-19.697a2.936 2.936 0 0 1 3.018-2.837l56.548 1.851 45.662 1.489a2.94 2.94 0 0 1 2.847 3.018Z" fill="#407BFF"/><path d="M393.266 317.815a.712.712 0 0 1-.492-.22.72.72 0 0 1-.192-.504l.694-21.126a.704.704 0 0 1 .221-.489.696.696 0 0 1 .504-.185.694.694 0 0 1 .492.22.716.716 0 0 1 .192.504l-.694 21.126a.708.708 0 0 1-.725.674Zm-51.015-1.659a.702.702 0 0 1-.496-.224.715.715 0 0 1-.188-.511l.694-21.126a.708.708 0 0 1 .725-.684.712.712 0 0 1 .684.735l-.695 21.126a.694.694 0 0 1-.22.492.706.706 0 0 1-.504.192Zm5.201.17a.712.712 0 0 1-.684-.734l.694-21.126a.712.712 0 0 1 .22-.492.71.71 0 0 1 .775-.13.722.722 0 0 1 .371.398.712.712 0 0 1 .042.274l-.694 21.126a.713.713 0 0 1-.453.639.696.696 0 0 1-.271.045Zm7.535.242a.712.712 0 0 1-.492-.22.71.71 0 0 1-.192-.504l.694-21.126a.704.704 0 0 1 .221-.489.702.702 0 0 1 .771-.124.713.713 0 0 1 .371.392.713.713 0 0 1 .046.271l-.695 21.126a.705.705 0 0 1-.724.674Zm8.308.322a.718.718 0 0 1-.684-.725l.695-21.126a.68.68 0 0 1 .221-.488.69.69 0 0 1 .503-.186.714.714 0 0 1 .492.221.694.694 0 0 1 .192.504l-.684 21.126a.717.717 0 0 1-.735.674Zm9.094.251a.712.712 0 0 1-.684-.734l.695-21.126a.713.713 0 0 1 .453-.639.713.713 0 0 1 .539.016.69.69 0 0 1 .37.392.694.694 0 0 1 .046.271l-.694 21.126a.693.693 0 0 1-.451.647.691.691 0 0 1-.274.047Zm9.891.322a.723.723 0 0 1-.684-.734l.694-21.126a.704.704 0 1 1 1.408.04l-.684 21.126a.723.723 0 0 1-.734.694Zm62.734-20.552a.704.704 0 0 1 .685.724l-.685 21.126a.72.72 0 0 1-.734.684.716.716 0 0 1-.684-.734l.694-21.126a.704.704 0 0 1 .724-.674Zm-5.203-.141a.71.71 0 0 1 .496.224.694.694 0 0 1 .188.51l-.684 21.126a.713.713 0 0 1-.734.684.72.72 0 0 1-.684-.734l.694-21.126a.698.698 0 0 1 .453-.638.7.7 0 0 1 .271-.046Zm-7.533-.271a.698.698 0 0 1 .638.453.7.7 0 0 1 .046.271l-.684 21.126a.705.705 0 0 1-1.002.623.698.698 0 0 1-.371-.392.718.718 0 0 1-.045-.271l.694-21.126a.698.698 0 0 1 .453-.638.7.7 0 0 1 .271-.046Zm-8.31-.273a.714.714 0 0 1 .492.221.706.706 0 0 1 .192.504l-.694 21.126a.7.7 0 0 1-.993.612.69.69 0 0 1-.37-.392.694.694 0 0 1-.046-.271l.694-21.126a.706.706 0 0 1 .725-.674Zm-9.094-.301a.712.712 0 0 1 .684.734l-.694 21.126a.69.69 0 0 1-.22.492.71.71 0 0 1-.775.13.694.694 0 0 1-.413-.672l.694-21.126a.698.698 0 0 1 .453-.639.718.718 0 0 1 .271-.045Zm-9.867-.322a.717.717 0 0 1 .684.735l-.694 21.126a.714.714 0 0 1-.221.492.706.706 0 0 1-1.188-.533l.694-21.126a.706.706 0 0 1 .725-.694Z" fill="#000" opacity=".2"/><path d="m448.012 297.846-.684 21.056a2.285 2.285 0 0 1-2.354 2.203l-103.528-3.38a2.273 2.273 0 0 1-2.102-1.63l56.648 1.801.734-22.565 9.547.312-.734 22.564 2.766.091.734-22.534 7.042.231-.734 22.565h.926l.734-22.565 7.545.241-.734 22.565h.613l.735-22.565 22.675.745c.112.275.17.568.171.865Z" fill="#000" opacity=".2"/><path d="m445.808 295.502-103.528-3.38a2.272 2.272 0 0 0-2.344 2.203l-.684 21.016c-.011.241.02.483.091.714l2.223.07.734-22.564h1.308l-.734 22.574 3.239.101.734-22.565 2.012.071-.734 22.564 5.352.171.734-22.564 2.918.101-.735 22.564 4.467.141.734-22.565 3.109.101L364 316.89l4.466.151.745-22.565 4.849.151-.745 22.565 2.234.08.744-22.564 7.384.241-.734 22.565h1.116l.735-22.565 63.086 2.062a2.266 2.266 0 0 0-2.072-1.509Z" fill="#fff" opacity=".2"/><path d="M434.592 393.075h-102.25a2.937 2.937 0 0 0-2.938 2.937v19.698a2.937 2.937 0 0 0 2.938 2.937h102.25a2.937 2.937 0 0 0 2.937-2.937v-19.698a2.937 2.937 0 0 0-2.937-2.937Z" fill="#407BFF"/><path d="M383.468 417.098a.717.717 0 0 1-.704-.704v-21.177a.71.71 0 0 1 .704-.704.704.704 0 0 1 .704.704v21.177a.706.706 0 0 1-.704.704Zm-50.343-21.881a.704.704 0 1 0-1.408 0v21.177a.704.704 0 1 0 1.408 0v-21.177Zm4.509 21.881a.704.704 0 0 1-.704-.704v-21.177a.706.706 0 0 1 .704-.704.719.719 0 0 1 .495.209.719.719 0 0 1 .209.495v21.177a.719.719 0 0 1-.209.495.719.719 0 0 1-.495.209Zm7.533 0a.704.704 0 0 1-.704-.704v-21.177a.706.706 0 0 1 1.202-.498.706.706 0 0 1 .206.498v21.177a.706.706 0 0 1-.704.704Zm8.322 0a.706.706 0 0 1-.704-.704v-21.177a.706.706 0 0 1 1.409 0v21.177a.707.707 0 0 1-.705.704Zm9.094 0a.719.719 0 0 1-.495-.209.719.719 0 0 1-.209-.495v-21.177a.719.719 0 0 1 .209-.495.719.719 0 0 1 .495-.209.704.704 0 0 1 .704.704v21.177a.706.706 0 0 1-.704.704Zm9.877 0a.704.704 0 0 1-.704-.704v-21.177a.706.706 0 0 1 1.202-.498.706.706 0 0 1 .206.498v21.177a.706.706 0 0 1-.704.704Zm62.051-22.585a.704.704 0 0 1 .704.704v21.177a.706.706 0 0 1-1.202.498.706.706 0 0 1-.206-.498v-21.177a.706.706 0 0 1 .704-.704Zm-5.201 0a.706.706 0 0 1 .704.704v21.177a.706.706 0 0 1-1.409 0v-21.177a.707.707 0 0 1 .705-.704Zm-7.535 0a.719.719 0 0 1 .495.209.719.719 0 0 1 .209.495v21.177a.719.719 0 0 1-.209.495.719.719 0 0 1-.495.209.715.715 0 0 1-.714-.704v-21.177a.714.714 0 0 1 .714-.704Zm-8.311 0a.717.717 0 0 1 .704.704v21.177a.71.71 0 0 1-.704.704.704.704 0 0 1-.704-.704v-21.177a.706.706 0 0 1 .704-.704Zm-9.115 0a.704.704 0 0 1 .704.704v21.177a.706.706 0 0 1-.704.704.717.717 0 0 1-.704-.704v-21.177a.71.71 0 0 1 .704-.704Zm-9.865 0a.72.72 0 0 1 .495.209.719.719 0 0 1 .209.495v21.177a.719.719 0 0 1-.209.495.72.72 0 0 1-.495.209.704.704 0 0 1-.705-.704v-21.177a.707.707 0 0 1 .705-.704Z" fill="#000" opacity=".2"/><path d="M437.539 395.358v21.026a2.286 2.286 0 0 1-2.274 2.273H331.647a2.264 2.264 0 0 1-2.153-1.559h56.708v-22.575h9.547v22.575h2.767v-22.575h7.092v22.575h.926v-22.575h7.545v22.575h.613v-22.575h22.686c.106.266.161.549.161.835Z" fill="#000" opacity=".2"/><path d="M435.265 393.075H331.647a2.271 2.271 0 0 0-2.274 2.273v21.036c0 .243.041.484.121.714h2.223v-22.585h1.308v22.585h3.229v-22.575h2.012v22.575h5.352v-22.575h2.917v22.575h4.558v-22.575h3.118v22.575h4.467v-22.575h4.859v22.575h2.233v-22.575h7.384v22.575h1.077v-22.575h63.116a2.268 2.268 0 0 0-2.082-1.448Z" fill="#fff" opacity=".2"/><path d="M423.627 367.632h-102.25a2.938 2.938 0 0 0-2.938 2.938v19.697a2.938 2.938 0 0 0 2.938 2.938h102.25a2.937 2.937 0 0 0 2.937-2.938V370.57a2.937 2.937 0 0 0-2.937-2.938Z" fill="#407BFF"/><path d="M372.501 391.656a.705.705 0 0 1-.704-.705v-21.176a.704.704 0 1 1 1.408 0v21.176a.704.704 0 0 1-.704.705Zm-51.045 0a.705.705 0 0 1-.704-.705v-21.176a.704.704 0 1 1 1.408 0v21.176a.704.704 0 0 1-.704.705Zm5.203 0a.705.705 0 0 1-.704-.705v-21.176a.704.704 0 1 1 1.408 0v21.176a.704.704 0 0 1-.704.705Zm7.545 0a.705.705 0 0 1-.704-.705v-21.176a.704.704 0 0 1 .704-.704.708.708 0 0 1 .495.209.708.708 0 0 1 .209.495v21.176a.704.704 0 0 1-.704.705Zm8.317 0a.711.711 0 0 1-.505-.203.718.718 0 0 1-.209-.502v-21.176a.714.714 0 0 1 .714-.704.71.71 0 0 1 .704.704v21.176a.704.704 0 0 1-.704.705Zm9.095 0a.707.707 0 0 1-.704-.705v-21.176a.704.704 0 0 1 .704-.704.714.714 0 0 1 .705.704v21.176a.705.705 0 0 1-.705.705Zm9.869 0a.708.708 0 0 1-.704-.705v-21.176a.717.717 0 0 1 .704-.704.715.715 0 0 1 .715.704v21.176a.703.703 0 0 1-.442.654.708.708 0 0 1-.273.051Zm62.041-22.585a.712.712 0 0 1 .705.704v21.176a.705.705 0 0 1-1.409 0v-21.176a.703.703 0 0 1 .704-.704Zm-5.191 0a.714.714 0 0 1 .714.704v21.176a.702.702 0 0 1-.714.705.705.705 0 0 1-.704-.705v-21.176a.708.708 0 0 1 .209-.495.708.708 0 0 1 .495-.209Zm-7.535 0a.704.704 0 0 1 .704.704v21.176a.704.704 0 1 1-1.408 0v-21.176a.704.704 0 0 1 .704-.704Zm-8.32 0a.707.707 0 0 1 .704.704v21.176a.704.704 0 1 1-1.409 0v-21.176a.705.705 0 0 1 .705-.704Zm-9.133 0a.704.704 0 0 1 .704.704v21.176a.704.704 0 1 1-1.408 0v-21.176a.704.704 0 0 1 .704-.704Zm-9.84 0a.704.704 0 0 1 .704.704v21.176a.704.704 0 1 1-1.408 0v-21.176a.708.708 0 0 1 .209-.495.708.708 0 0 1 .495-.209Z" fill="#000" opacity=".2"/><path d="M426.545 369.917v21.025a2.276 2.276 0 0 1-2.274 2.273H320.653a2.282 2.282 0 0 1-2.163-1.559h56.749v-22.574h9.547v22.574h2.776v-22.574h7.042v22.574h.926v-22.574h7.555v22.574h.613v-22.574h22.686c.106.265.161.548.161.835Z" fill="#000" opacity=".2"/><path d="M424.29 367.643H320.672a2.264 2.264 0 0 0-2.273 2.274v21.025c-.004.243.034.484.11.714h2.224v-22.584h1.307v22.584h3.24v-22.574h2.012v22.574h5.352v-22.574h2.927v22.574h4.467v-22.574h3.118v22.574h4.467v-22.574h4.849v22.574h2.233v-22.574h7.455v22.574h1.116v-22.574h63.127a2.29 2.29 0 0 0-2.113-1.439Z" fill="#fff" opacity=".2"/><path d="M429.109 342.201h-102.25a2.937 2.937 0 0 0-2.937 2.937v19.698a2.937 2.937 0 0 0 2.937 2.937h102.25a2.937 2.937 0 0 0 2.938-2.937v-19.698a2.937 2.937 0 0 0-2.938-2.937Z" fill="#407BFF"/><path d="M377.984 366.184a.704.704 0 0 1-.705-.704v-21.126a.705.705 0 1 1 1.409 0v21.126a.704.704 0 0 1-.704.704Zm-51.036 0a.706.706 0 0 1-.704-.704v-21.126a.704.704 0 1 1 1.409 0v21.126a.708.708 0 0 1-.705.704Zm5.192 0a.704.704 0 0 1-.704-.704v-21.126a.704.704 0 0 1 .704-.705.703.703 0 0 1 .714.705v21.126a.71.71 0 0 1-.21.501.692.692 0 0 1-.504.203Zm7.547 0a.704.704 0 0 1-.705-.704v-21.126a.705.705 0 0 1 1.409 0v21.126a.707.707 0 0 1-.704.704Zm9.022-21.841a.704.704 0 1 0-1.408 0v21.177a.704.704 0 1 0 1.408 0v-21.177Zm8.421 21.841a.704.704 0 0 1-.704-.704v-21.126a.704.704 0 1 1 1.408 0v21.126a.707.707 0 0 1-.704.704Zm9.848 0a.704.704 0 0 1-.705-.704v-21.126a.705.705 0 0 1 1.409 0v21.126a.707.707 0 0 1-.704.704Zm62.05-22.545a.704.704 0 0 1 .705.704v21.126a.705.705 0 0 1-1.409 0v-21.126a.706.706 0 0 1 .704-.704Zm-5.201 0a.704.704 0 0 1 .704.704v21.126a.704.704 0 1 1-1.408 0v-21.126a.706.706 0 0 1 .704-.704Zm-7.545 0a.704.704 0 0 1 .705.704v21.126a.705.705 0 0 1-1.409 0v-21.126a.706.706 0 0 1 .704-.704Zm-8.32 0a.711.711 0 0 1 .504.203.695.695 0 0 1 .21.501v21.126a.702.702 0 0 1-.714.705.705.705 0 0 1-.704-.705v-21.126a.707.707 0 0 1 .704-.704Zm-9.094 0a.704.704 0 0 1 .704.704v21.126a.704.704 0 1 1-1.408 0v-21.126a.706.706 0 0 1 .704-.704Zm-9.877 0a.708.708 0 0 1 .715.704v21.126a.703.703 0 0 1-.442.654.708.708 0 0 1-.273.051.707.707 0 0 1-.704-.705v-21.126a.707.707 0 0 1 .704-.704Z" fill="#000" opacity=".2"/><path d="M432.047 344.474V365.5a2.272 2.272 0 0 1-2.273 2.273H326.156a2.285 2.285 0 0 1-2.123-1.589h56.678v-22.545h9.547v22.545h2.777v-22.545h7.092v22.545h.926v-22.545h7.545v22.545h.613v-22.545h22.686c.102.266.154.55.15.835Z" fill="#000" opacity=".2"/><path d="M429.772 342.201H326.154a2.249 2.249 0 0 0-1.61.663 2.249 2.249 0 0 0-.663 1.61V365.5c0 .242.037.483.111.714h2.233v-22.575h1.308v22.545h3.229v-22.545h2.012v22.545h5.352v-22.545h2.917v22.545h4.467v-22.545h3.118v22.545h4.467v-22.545h4.849v22.545h2.243v-22.545h7.384v22.545h1.127v-22.545h63.117a2.277 2.277 0 0 0-2.043-1.438Z" fill="#fff" opacity=".2"/><path d="M422.902 320.19v19.707a2.923 2.923 0 0 1-2.927 2.938h-102.26a2.928 2.928 0 0 1-2.077-.861 2.926 2.926 0 0 1-.861-2.077V320.19a2.923 2.923 0 0 1 .861-2.074 2.939 2.939 0 0 1 2.077-.854h102.26c.625 0 1.234.2 1.737.572a2.92 2.92 0 0 1 1.059 1.491c.09.279.134.571.131.865Z" fill="#407BFF"/><path d="M368.841 341.276a.705.705 0 0 1-.704-.705v-21.126a.707.707 0 0 1 .704-.704.704.704 0 0 1 .704.704v21.126a.704.704 0 0 1-.704.705Zm-51.037-.001a.702.702 0 0 1-.714-.704v-21.126a.706.706 0 0 1 .442-.654.702.702 0 0 1 .272-.05.704.704 0 0 1 .704.704v21.126a.704.704 0 0 1-.704.704Zm5.203.001a.705.705 0 0 1-.704-.705v-21.126a.707.707 0 0 1 .704-.704.704.704 0 0 1 .704.704v21.126a.704.704 0 0 1-.704.705Zm7.533 0a.705.705 0 0 1-.704-.705v-21.126a.707.707 0 0 1 .704-.704.704.704 0 0 1 .704.704v21.126a.704.704 0 0 1-.704.705Zm8.32 0a.708.708 0 0 1-.704-.705v-21.126a.707.707 0 0 1 .704-.704.704.704 0 0 1 .705.704v21.126a.705.705 0 0 1-.705.705Zm9.096 0a.705.705 0 0 1-.704-.705v-21.126a.707.707 0 0 1 .704-.704.704.704 0 0 1 .704.704v21.126a.704.704 0 0 1-.704.705Zm9.877 0a.705.705 0 0 1-.704-.705v-21.126a.707.707 0 0 1 .704-.704.704.704 0 0 1 .704.704v21.126a.704.704 0 0 1-.704.705Zm62.051-22.575a.704.704 0 0 1 .704.704v21.126a.704.704 0 1 1-1.408 0v-21.126a.707.707 0 0 1 .704-.704Zm-5.201 0a.706.706 0 0 1 .704.704v21.126a.704.704 0 1 1-1.408 0v-21.126a.707.707 0 0 1 .704-.704Zm-7.535 0a.703.703 0 0 1 .704.704v21.126a.704.704 0 0 1-.704.705.711.711 0 0 1-.505-.203.718.718 0 0 1-.209-.502v-21.126a.7.7 0 0 1 .714-.704Zm-8.321 0a.704.704 0 0 1 .704.704v21.126a.704.704 0 1 1-1.408 0v-21.126a.707.707 0 0 1 .704-.704Zm-9.103 0a.703.703 0 0 1 .714.704v21.126a.703.703 0 0 1-.442.654.703.703 0 0 1-.272.051.705.705 0 0 1-.704-.705v-21.126a.703.703 0 0 1 .704-.704Zm-9.867 0a.703.703 0 0 1 .704.704v21.126a.704.704 0 1 1-1.409 0v-21.126a.708.708 0 0 1 .705-.704Z" fill="#000" opacity=".2"/><path d="M422.912 319.536v21.026a2.273 2.273 0 0 1-2.274 2.273H317.02a2.264 2.264 0 0 1-2.153-1.559h56.678v-22.575h9.547v22.575h2.767v-22.575h7.042v22.575h.925v-22.575h7.545v22.575h.614v-22.575h22.685c.133.26.215.544.242.835Z" fill="#000" opacity=".2"/><path d="M420.638 317.262H317.02a2.275 2.275 0 0 0-2.274 2.274v21.025c-.001.243.039.485.121.714h2.223v-22.574h1.308v22.574h3.229v-22.574h2.012v22.574h5.352v-22.574h2.988v22.574h4.467v-22.574h3.118v22.574h4.487v-22.574h4.859v22.574h2.183v-22.574h7.394v22.574h1.117v-22.574h63.116a2.275 2.275 0 0 0-2.082-1.439Z" fill="#fff" opacity=".2"/><path d="M317.715 317.262h26.709c-.583 1.006-8.199 13.481-29.647 11.801v-8.873a2.923 2.923 0 0 1 .861-2.074 2.939 2.939 0 0 1 2.077-.854Z" fill="#000" opacity=".2"/><path d="M399.491 293.993c-5.1 6.348-18.107 19.335-42.352 24.204l-15.02-.493a2.94 2.94 0 0 1-2.837-3.018l.644-19.697a2.939 2.939 0 0 1 3.018-2.837l56.547 1.841Z" fill="#000" opacity=".2"/><path d="m395.347 240.763-86.533 54.472a2.938 2.938 0 0 0-.921 4.051l10.493 16.669a2.938 2.938 0 0 0 4.051.922l86.533-54.472a2.938 2.938 0 0 0 .921-4.051l-10.493-16.669a2.938 2.938 0 0 0-4.051-.922Z" fill="#407BFF"/><path d="M364.888 288.289a.699.699 0 0 1-.551.108.713.713 0 0 1-.455-.329l-11.277-17.907a.707.707 0 0 1-.104-.55.714.714 0 0 1 .325-.456.71.71 0 0 1 .551-.108.688.688 0 0 1 .455.329l11.277 17.917a.684.684 0 0 1 .108.546.697.697 0 0 1-.329.45Zm-43.199 27.202a.717.717 0 0 1-.264.112.699.699 0 0 1-.742-.333l-11.287-17.917a.739.739 0 0 1-.1-.549.732.732 0 0 1 .321-.457c.08-.053.17-.09.264-.108a.725.725 0 0 1 .547.121.72.72 0 0 1 .195.209l11.297 17.947a.692.692 0 0 1 .089.536.714.714 0 0 1-.32.439Zm4.406-2.777a.703.703 0 0 1-1.006-.221l-11.216-17.917a.703.703 0 0 1 .221-1.006.701.701 0 0 1 .813.01.687.687 0 0 1 .193.212l11.277 17.906a.708.708 0 0 1-.049.834.701.701 0 0 1-.233.182Zm6.377-4.013a.709.709 0 0 1-.552.113.7.7 0 0 1-.454-.334l-11.287-17.917a.733.733 0 0 1-.1-.549.729.729 0 0 1 .586-.562.734.734 0 0 1 .545.12.726.726 0 0 1 .196.206l11.277 17.917a.685.685 0 0 1 .113.263.69.69 0 0 1-.115.548.708.708 0 0 1-.209.195Zm7.044-4.436a.707.707 0 0 1-1.006-.221l-11.278-17.917a.691.691 0 0 1 .007-.814.67.67 0 0 1 .215-.192.694.694 0 0 1 .813.009.71.71 0 0 1 .193.212l11.277 17.917a.693.693 0 0 1-.221 1.006Zm7.694-4.839a.717.717 0 0 1-.264.112.711.711 0 0 1-.742-.333l-11.207-17.917a.72.72 0 0 1 .221-1.006.697.697 0 0 1 .552-.108.702.702 0 0 1 .454.33l11.278 17.916a.7.7 0 0 1 .078.568.713.713 0 0 1-.138.259.712.712 0 0 1-.232.179Zm8.36-5.271a.717.717 0 0 1-1.006-.212l-11.277-17.916a.712.712 0 0 1 .009-.813.698.698 0 0 1 .212-.193.703.703 0 0 1 1.006.221l11.277 17.917a.697.697 0 0 1-.221.996Zm40.48-52.162a.697.697 0 0 1 .551-.108.713.713 0 0 1 .455.329l11.278 17.907a.724.724 0 0 1 .103.55.707.707 0 0 1-.325.456.703.703 0 0 1-1.006-.221l-11.277-17.917a.7.7 0 0 1-.107-.546.688.688 0 0 1 .328-.45Zm-4.406 2.767a.707.707 0 0 1 1.006.221l11.278 17.917a.718.718 0 0 1 .108.551.706.706 0 0 1-.33.455.72.72 0 0 1-1.006-.221l-11.277-17.917a.724.724 0 0 1-.104-.55.73.73 0 0 1 .325-.456Zm-6.347 4.013a.717.717 0 0 1 .549-.099.737.737 0 0 1 .457.321l11.277 17.917a.71.71 0 0 1-.012.811.734.734 0 0 1-.209.195.715.715 0 0 1-.551.108.699.699 0 0 1-.455-.33l-11.277-17.917a.703.703 0 0 1 .221-1.006Zm-7.043 4.437a.732.732 0 0 1 .264-.111.706.706 0 0 1 .742.333l11.277 17.917a.682.682 0 0 1-.006.814.694.694 0 0 1-.215.192.7.7 0 0 1-.813.001.703.703 0 0 1-.193-.213l-11.287-17.916a.713.713 0 0 1 .016-.822.716.716 0 0 1 .215-.195Zm-7.724 4.85a.699.699 0 0 1 .551-.108.713.713 0 0 1 .455.329l11.277 17.917a.682.682 0 0 1-.006.815.69.69 0 0 1-.215.191.717.717 0 0 1-.264.112.711.711 0 0 1-.742-.333l-11.277-17.957a.699.699 0 0 1-.092-.53.7.7 0 0 1 .313-.436Zm-8.371 5.26a.707.707 0 0 1 1.006.221l11.278 17.917a.699.699 0 0 1-.222 1.006.693.693 0 0 1-1.006-.221l-11.287-17.917a.715.715 0 0 1 .231-1.006Z" fill="#000" opacity=".2"/><path d="m399.05 241.088 11.206 17.796a2.278 2.278 0 0 1 .294 1.713 2.27 2.27 0 0 1-1.008 1.416l-87.622 55.189a2.26 2.26 0 0 1-2.656-.171l47.966-30.18-12.072-19.114 8.048-5.09 12.072 19.114 2.344-1.479-12.072-19.114 6.036-3.773 12.072 19.114.784-.493-12.072-19.114 6.389-4.024 12.072 19.114.503-.372-12.072-19.114 19.194-12.072c.241.174.444.397.594.654Z" fill="#000" opacity=".2"/><path d="m395.92 240.373-87.663 55.189a2.286 2.286 0 0 0-1.003 1.424 2.283 2.283 0 0 0 .299 1.715l11.197 17.786c.125.21.288.394.482.543l1.882-1.146-12.072-19.114 1.106-.695 12.072 19.114 2.737-1.72-12.072-19.114 1.74-1.096 12.022 19.114 4.527-2.857-12.022-19.114 2.465-1.56 12.072 19.114 3.782-2.384-12.072-19.114 2.646-1.66 12.022 19.114 3.782-2.384-12.021-19.114 4.104-2.586 12.022 19.114 1.931-1.166-12.021-19.114 6.247-3.944 12.072 19.114.945-.594-12.021-19.114 53.368-33.69a2.254 2.254 0 0 0-2.555-.061Z" fill="#fff" opacity=".2"/><path d="M249.235 393.075h-102.25a2.937 2.937 0 0 0-2.937 2.937v19.698a2.937 2.937 0 0 0 2.937 2.937h102.25a2.937 2.937 0 0 0 2.938-2.937v-19.698a2.937 2.937 0 0 0-2.938-2.937Z" fill="#407BFF"/><path d="M198.11 417.098a.703.703 0 0 1-.704-.704v-21.177a.702.702 0 0 1 1.2-.495.719.719 0 0 1 .209.495v21.177a.719.719 0 0 1-.209.495.721.721 0 0 1-.496.209Zm-51.044 0a.704.704 0 0 1-.705-.704v-21.177a.707.707 0 0 1 .705-.704.703.703 0 0 1 .704.704v21.177a.702.702 0 0 1-.704.704Zm5.202 0a.704.704 0 0 1-.705-.704v-21.177a.707.707 0 0 1 1.203-.498.706.706 0 0 1 .206.498v21.177a.706.706 0 0 1-.704.704Zm7.535 0a.717.717 0 0 1-.704-.704v-21.177a.71.71 0 0 1 1.205-.498c.134.132.21.311.213.498v21.177a.715.715 0 0 1-.714.704Zm8.32 0a.719.719 0 0 1-.495-.209.719.719 0 0 1-.209-.495v-21.177a.719.719 0 0 1 .209-.495.719.719 0 0 1 .495-.209.704.704 0 0 1 .704.704v21.177a.706.706 0 0 1-.704.704Zm9.105 0a.715.715 0 0 1-.714-.704v-21.177a.714.714 0 0 1 .714-.704.714.714 0 0 1 .704.704v21.177a.714.714 0 0 1-.704.704Zm9.888 0a.719.719 0 0 1-.495-.209.719.719 0 0 1-.209-.495v-21.177a.719.719 0 0 1 .209-.495.719.719 0 0 1 .495-.209.704.704 0 0 1 .705.704v21.177a.707.707 0 0 1-.705.704Zm62.04-22.585a.719.719 0 0 1 .495.209.719.719 0 0 1 .209.495v21.177a.719.719 0 0 1-.209.495.719.719 0 0 1-.495.209.715.715 0 0 1-.715-.704v-21.177a.715.715 0 0 1 .715-.704Zm-5.212 0a.704.704 0 0 1 .705.704v21.177a.707.707 0 0 1-.705.704.719.719 0 0 1-.495-.209.719.719 0 0 1-.209-.495v-21.177a.719.719 0 0 1 .209-.495.719.719 0 0 1 .495-.209Zm-7.535 0a.704.704 0 0 1 .704.704v21.177a.706.706 0 0 1-1.202.498.706.706 0 0 1-.206-.498v-21.177a.706.706 0 0 1 .704-.704Zm-8.32 0a.704.704 0 0 1 .704.704v21.177a.706.706 0 0 1-1.202.498.706.706 0 0 1-.206-.498v-21.177a.706.706 0 0 1 .704-.704Zm-9.094 0a.717.717 0 0 1 .704.704v21.177a.71.71 0 0 1-.704.704.704.704 0 0 1-.704-.704v-21.177a.706.706 0 0 1 .704-.704Zm-9.877 0a.704.704 0 0 1 .704.704v21.177a.706.706 0 0 1-1.202.498.706.706 0 0 1-.206-.498v-21.177a.706.706 0 0 1 .704-.704Z" fill="#000" opacity=".2"/><path d="M252.173 395.358v21.026c0 .603-.239 1.181-.666 1.607a2.269 2.269 0 0 1-1.607.666H146.282a2.27 2.27 0 0 1-2.153-1.559h56.678v-22.575h9.547v22.575h2.776v-22.575h7.042v22.575h.926v-22.575h7.545v22.575h.724v-22.575h22.686c.098.267.14.552.12.835Z" fill="#000" opacity=".2"/><path d="M249.899 393.075H146.281c-.603 0-1.181.239-1.607.666a2.269 2.269 0 0 0-.666 1.607v21.036c0 .243.041.484.121.714h2.223v-22.585h1.308v22.585h3.239v-22.575h2.012v22.575h5.352v-22.575h2.917v22.575h4.477v-22.575h3.108v22.575h4.477v-22.575h4.849v22.575h2.233v-22.575h7.395v22.575h1.116v-22.575h63.117a2.268 2.268 0 0 0-2.053-1.448Z" fill="#fff" opacity=".2"/><path d="M251.73 367.784H149.48a2.937 2.937 0 0 0-2.937 2.937v19.698a2.937 2.937 0 0 0 2.937 2.937h102.25a2.937 2.937 0 0 0 2.938-2.937v-19.698a2.937 2.937 0 0 0-2.938-2.937Z" fill="#407BFF"/><path d="M200.607 391.807a.704.704 0 0 1-.705-.704v-21.126a.705.705 0 0 1 .705-.704.72.72 0 0 1 .495.209.719.719 0 0 1 .209.495v21.126a.703.703 0 0 1-.704.704Zm-51.045 0a.704.704 0 0 1-.705-.704v-21.126a.705.705 0 0 1 1.409 0v21.126a.704.704 0 0 1-.704.704Zm5.202 0a.704.704 0 0 1-.704-.704v-21.126a.704.704 0 1 1 1.408 0v21.126a.704.704 0 0 1-.704.704Zm7.533 0a.704.704 0 0 1-.704-.704v-21.126a.71.71 0 0 1 1.418 0v21.126a.706.706 0 0 1-.441.654.71.71 0 0 1-.273.05Zm8.319 0a.706.706 0 0 1-.704-.704v-21.126a.719.719 0 0 1 .209-.495.719.719 0 0 1 .495-.209.704.704 0 0 1 .705.704v21.126a.705.705 0 0 1-.705.704Zm9.106 0a.71.71 0 0 1-.504-.202.705.705 0 0 1-.21-.502v-21.126a.707.707 0 0 1 .213-.498.71.71 0 0 1 .501-.206.717.717 0 0 1 .704.704v21.126a.704.704 0 0 1-.704.704Zm9.867 0a.704.704 0 0 1-.704-.704v-21.126a.71.71 0 0 1 .704-.704.704.704 0 0 1 .704.704v21.126a.704.704 0 0 1-.704.704Zm62.063-22.606a.719.719 0 0 1 .495.209.719.719 0 0 1 .209.495v21.126a.704.704 0 0 1-.704.705.708.708 0 0 1-.66-.433.684.684 0 0 1-.054-.272v-21.126a.714.714 0 0 1 .714-.704Zm-5.182 0a.704.704 0 0 1 .704.704v21.126a.704.704 0 1 1-1.408 0v-21.126a.71.71 0 0 1 .704-.704Zm-7.565 0a.704.704 0 0 1 .705.704v21.126a.705.705 0 0 1-1.409 0v-21.126a.706.706 0 0 1 .704-.704Zm-8.322 0a.704.704 0 0 1 .704.704v21.126a.704.704 0 1 1-1.408 0v-21.126a.706.706 0 0 1 .704-.704Zm-9.094 0a.717.717 0 0 1 .705.704v21.126a.705.705 0 0 1-1.409 0v-21.126a.706.706 0 0 1 .704-.704Zm-9.877 0a.704.704 0 0 1 .705.704v21.126a.705.705 0 0 1-1.409 0v-21.126a.706.706 0 0 1 .704-.704Z" fill="#000" opacity=".2"/><path d="M254.667 370.056v21.036a2.272 2.272 0 0 1-2.273 2.273H148.776a2.27 2.27 0 0 1-2.153-1.559h56.678v-22.605h9.547v22.575h2.777v-22.575h7.042v22.575h.925v-22.575h7.545v22.575h.614v-22.575h22.766c.111.271.163.563.15.855Z" fill="#000" opacity=".2"/><path d="M252.394 367.784H148.776a2.271 2.271 0 0 0-2.274 2.273v21.036c0 .243.041.484.121.714h2.263v-22.605h1.308v22.585h3.239v-22.585h2.012v22.575h5.352v-22.575h2.918v22.575h4.476v-22.575h3.109v22.575h4.477v-22.575h4.848v22.575h2.234v-22.575h7.394v22.575h1.117v-22.575h63.146a2.263 2.263 0 0 0-2.122-1.418Z" fill="#fff" opacity=".2"/><path d="M242.577 342.492h-102.25a2.937 2.937 0 0 0-2.937 2.938v19.697a2.937 2.937 0 0 0 2.937 2.938h102.25a2.938 2.938 0 0 0 2.938-2.938V345.43a2.938 2.938 0 0 0-2.938-2.938Z" fill="#407BFF"/><path d="M191.452 366.516a.704.704 0 0 1-.704-.704v-21.177a.719.719 0 0 1 .209-.495.719.719 0 0 1 .495-.209.704.704 0 0 1 .704.704v21.177a.706.706 0 0 1-.704.704Zm-51.046 0a.706.706 0 0 1-.704-.704v-21.177a.719.719 0 0 1 .209-.495.719.719 0 0 1 .495-.209.715.715 0 0 1 .715.704v21.177a.702.702 0 0 1-.442.653.708.708 0 0 1-.273.051Zm5.212 0a.704.704 0 0 1-.704-.704v-21.177a.706.706 0 0 1 .704-.704.717.717 0 0 1 .704.704v21.177a.706.706 0 0 1-.704.704Zm7.536 0a.707.707 0 0 1-.704-.704v-21.177a.706.706 0 0 1 1.409 0v21.177a.707.707 0 0 1-.705.704Zm8.319 0a.704.704 0 0 1-.704-.704v-21.177a.706.706 0 0 1 1.202-.498.706.706 0 0 1 .206.498v21.177a.706.706 0 0 1-.704.704Zm9.094 0a.704.704 0 0 1-.705-.704v-21.177a.719.719 0 0 1 .209-.495.721.721 0 0 1 .496-.209.703.703 0 0 1 .704.704v21.177a.707.707 0 0 1-.704.704Zm9.879 0a.707.707 0 0 1-.704-.704v-21.177a.706.706 0 0 1 1.409 0v21.177a.707.707 0 0 1-.705.704Zm62.049-22.585a.704.704 0 0 1 .704.704v21.177a.706.706 0 0 1-1.202.498.706.706 0 0 1-.206-.498v-21.177a.706.706 0 0 1 .704-.704Zm-5.199 0a.704.704 0 0 1 .704.704v21.177a.706.706 0 0 1-1.202.498.706.706 0 0 1-.206-.498v-21.177a.706.706 0 0 1 .704-.704Zm-7.537 0a.717.717 0 0 1 .704.704v21.177a.706.706 0 0 1-.976.653.692.692 0 0 1-.388-.382.7.7 0 0 1-.054-.271v-21.177a.715.715 0 0 1 .714-.704Zm-8.318 0a.72.72 0 0 1 .495.209.719.719 0 0 1 .209.495v21.177a.702.702 0 0 1-.704.704.704.704 0 0 1-.705-.704v-21.177a.707.707 0 0 1 .705-.704Zm-9.104 0a.704.704 0 0 1 .704.704v21.177a.706.706 0 0 1-1.202.498.706.706 0 0 1-.206-.498v-21.177a.71.71 0 0 1 .704-.704Zm-9.869 0a.719.719 0 0 1 .495.209.719.719 0 0 1 .209.495v21.177a.706.706 0 0 1-1.202.498.706.706 0 0 1-.206-.498v-21.177a.706.706 0 0 1 .704-.704Z" fill="#000" opacity=".2"/><path d="M245.525 344.767v21.035a2.286 2.286 0 0 1-2.274 2.274H139.633a2.266 2.266 0 0 1-2.153-1.559h56.679v-22.575h9.546v22.575h2.767v-22.575h7.042v22.575h.925v-22.575h7.545v22.575h.614v-22.575h22.766c.105.262.16.542.161.825Z" fill="#000" opacity=".2"/><path d="M243.251 342.492H139.633a2.277 2.277 0 0 0-2.274 2.274v21.035c0 .243.041.485.121.714h2.223v-22.584h1.308v22.584h3.229v-22.574h2.012v22.574h5.352v-22.574h2.918v22.574h4.466v-22.574h3.119v22.574h4.467v-22.574h4.859v22.574h2.233v-22.574h7.414v22.574h1.127v-22.574h63.157a2.263 2.263 0 0 0-2.113-1.449Z" fill="#fff" opacity=".2"/><path d="M249.235 317.202h-102.25a2.937 2.937 0 0 0-2.937 2.938v19.697a2.938 2.938 0 0 0 2.937 2.938h102.25a2.938 2.938 0 0 0 2.938-2.938V320.14a2.938 2.938 0 0 0-2.938-2.938Z" fill="#407BFF"/><path d="M198.11 341.225a.703.703 0 0 1-.704-.704v-21.176a.703.703 0 0 1 .704-.704.712.712 0 0 1 .705.704v21.176a.705.705 0 0 1-.705.704Zm-51.044 0a.704.704 0 0 1-.705-.704v-21.176a.705.705 0 0 1 1.409 0v21.176a.703.703 0 0 1-.704.704Zm5.202 0a.704.704 0 0 1-.705-.704v-21.176a.705.705 0 0 1 1.409 0v21.176a.704.704 0 0 1-.704.704Zm7.535 0a.704.704 0 0 1-.704-.704v-21.176a.708.708 0 0 1 .209-.495.708.708 0 0 1 .495-.209.71.71 0 0 1 .714.704v21.176a.706.706 0 0 1-.442.654.702.702 0 0 1-.272.05Zm8.32 0a.704.704 0 0 1-.704-.704v-21.176a.717.717 0 0 1 .704-.704.704.704 0 0 1 .704.704v21.176a.704.704 0 0 1-.704.704Zm9.105 0a.71.71 0 0 1-.505-.202.718.718 0 0 1-.209-.502v-21.176a.714.714 0 0 1 .714-.704.71.71 0 0 1 .704.704v21.176a.704.704 0 0 1-.704.704Zm9.888 0a.706.706 0 0 1-.704-.704v-21.176a.717.717 0 0 1 .704-.704.704.704 0 0 1 .705.704v21.176a.705.705 0 0 1-.705.704Zm62.04-22.584a.71.71 0 0 1 .704.704v21.176a.704.704 0 0 1-.704.704.707.707 0 0 1-.505-.202.718.718 0 0 1-.21-.502v-21.176a.715.715 0 0 1 .715-.704Zm-5.212 0a.704.704 0 0 1 .705.704v21.176a.705.705 0 0 1-1.409 0v-21.176a.717.717 0 0 1 .704-.704Zm-7.535 0a.704.704 0 0 1 .704.704v21.176a.704.704 0 1 1-1.408 0v-21.176a.704.704 0 0 1 .704-.704Zm-8.32 0a.704.704 0 0 1 .704.704v21.176a.704.704 0 1 1-1.408 0v-21.176a.704.704 0 0 1 .704-.704Zm-9.094 0a.708.708 0 0 1 .495.209.708.708 0 0 1 .209.495v21.176a.704.704 0 1 1-1.408 0v-21.176a.704.704 0 0 1 .704-.704Zm-9.877 0a.704.704 0 0 1 .704.704v21.176a.704.704 0 1 1-1.408 0v-21.176a.704.704 0 0 1 .704-.704Z" fill="#000" opacity=".2"/><path d="M252.173 319.485v21.026c0 .603-.239 1.181-.666 1.607a2.269 2.269 0 0 1-1.607.666H146.282a2.27 2.27 0 0 1-2.153-1.559h56.678V318.65h9.547v22.575h2.776V318.65h7.042v22.575h.926V318.65h7.545v22.575h.724V318.65h22.686c.098.267.14.552.12.835Z" fill="#000" opacity=".2"/><path d="M249.899 317.202H146.281a2.285 2.285 0 0 0-2.273 2.284v21.025c0 .243.041.485.121.714h2.223v-22.584h1.308v22.584h3.239v-22.574h2.012v22.574h5.352v-22.574h2.917v22.574h4.477v-22.574h3.108v22.574h4.477v-22.574h4.849v22.574h2.233v-22.574h7.395v22.574h1.116v-22.574h63.117a2.263 2.263 0 0 0-2.053-1.449Z" fill="#fff" opacity=".2"/><path d="m192.207 305.603-49.223 7.927-51.89 8.39a2.867 2.867 0 0 1-2.13-.502 2.858 2.858 0 0 1-1.15-1.862l-1.89-11.72-1.258-7.877a2.848 2.848 0 0 1 2.364-3.269l101.093-16.328a2.819 2.819 0 0 1 2.128.493 2.824 2.824 0 0 1 1.141 1.861l3.159 19.617a2.85 2.85 0 0 1-2.344 3.27Z" fill="#407BFF"/><path d="M141.402 312.212a.702.702 0 0 1-.805-.584l-3.37-20.894a.702.702 0 0 1 .584-.805.689.689 0 0 1 .525.122.685.685 0 0 1 .28.462l3.37 20.894a.702.702 0 0 1-.584.805Zm-50.39 8.108a.698.698 0 0 1-.529-.121.707.707 0 0 1-.285-.462l-3.36-20.905a.704.704 0 0 1 1.106-.679c.15.109.252.274.282.458l3.37 20.904a.705.705 0 0 1-.583.805Zm5.13-.825a.706.706 0 0 1-.804-.583l-3.37-20.905a.704.704 0 0 1 .86-.797.695.695 0 0 1 .441.316.704.704 0 0 1 .097.26l3.36 20.904a.705.705 0 0 1-.584.805Zm7.476-1.197a.706.706 0 0 1-.805-.583l-3.4-20.945a.704.704 0 0 1 .86-.797.698.698 0 0 1 .442.316.693.693 0 0 1 .096.26l3.36 20.894a.71.71 0 0 1-.094.546.693.693 0 0 1-.459.309Zm8.179-1.328a.693.693 0 0 1-.805-.583l-3.35-20.895a.703.703 0 0 1 .004-.278.71.71 0 0 1 .318-.443.699.699 0 0 1 .261-.093.706.706 0 0 1 .805.583l3.37 20.905a.705.705 0 0 1-.603.804Zm8.983-1.439a.706.706 0 0 1-.805-.583l-3.37-20.905a.702.702 0 0 1 .584-.805.704.704 0 0 1 .532.118.707.707 0 0 1 .283.466l3.36 20.895a.712.712 0 0 1-.122.529.7.7 0 0 1-.462.285Zm9.749-1.569a.705.705 0 0 1-.805-.583l-3.36-20.905a.698.698 0 0 1 .324-.718.707.707 0 0 1 .535-.085.707.707 0 0 1 .529.582l3.37 20.894a.714.714 0 0 1-.593.815Zm57.674-32.161a.699.699 0 0 1 .53.122.7.7 0 0 1 .285.462l3.36 20.904a.706.706 0 0 1-.583.805.706.706 0 0 1-.805-.583l-3.37-20.905a.706.706 0 0 1 .583-.805Zm-5.111.825a.706.706 0 0 1 .805.583l3.37 20.905a.706.706 0 0 1-.584.805.704.704 0 0 1-.532-.118.707.707 0 0 1-.283-.466l-3.36-20.894a.699.699 0 0 1 .122-.53.7.7 0 0 1 .462-.285Zm-7.465 1.197a.706.706 0 0 1 .805.583l3.37 20.905a.706.706 0 0 1-1.113.683.714.714 0 0 1-.285-.462l-3.36-20.895a.717.717 0 0 1 .583-.814Zm-8.209 1.328a.706.706 0 0 1 .805.583l3.36 20.905a.707.707 0 0 1-.122.525.71.71 0 0 1-.462.28.706.706 0 0 1-.805-.584l-3.36-20.905a.708.708 0 0 1 .122-.525.706.706 0 0 1 .462-.279Zm-8.983 1.448a.707.707 0 0 1 .525.122.71.71 0 0 1 .28.462l3.37 20.895a.694.694 0 0 1-.122.529.7.7 0 0 1-.462.285.698.698 0 0 1-.718-.323.719.719 0 0 1-.097-.26l-3.36-20.905a.702.702 0 0 1 .584-.805Zm-9.749 1.57a.688.688 0 0 1 .526.122.69.69 0 0 1 .279.461l3.36 20.895a.702.702 0 0 1-1.106.689.704.704 0 0 1-.282-.458l-3.36-20.904a.688.688 0 0 1 .122-.526.69.69 0 0 1 .461-.279Z" fill="#000" opacity=".2"/><path d="m191.322 282.143 3.35 20.764a2.292 2.292 0 0 1-1.892 2.605L90.54 321.981a2.287 2.287 0 0 1-2.384-1.197l55.964-9.054-3.591-22.283 9.426-1.519 3.591 22.293 2.737-.443-3.592-22.293 7.042-1.127 3.582 22.293.915-.151-3.581-22.293 7.444-1.197 3.591 22.293.604-.1-3.581-22.283 22.393-3.612c.13.261.205.545.222.835Z" fill="#000" opacity=".2"/><path d="M188.715 280.261 86.455 296.77a2.268 2.268 0 0 0-1.858 1.718c-.07.29-.08.592-.033.887l3.35 20.754c.035.242.11.477.221.694l2.203-.352-3.591-22.293 1.287-.211 3.592 22.293 3.199-.513-3.591-22.293 2.012-.322 3.591 22.293 5.281-.855-3.53-22.323 2.877-.473 3.591 22.293 4.416-.714-3.591-22.283 3.078-.493 3.541 22.313 4.407-.714-3.582-22.283 4.789-.775 3.611 22.263 2.214-.352-3.622-22.283 7.294-1.177 3.591 22.303 1.107-.181-3.542-22.313 62.372-10.06a2.279 2.279 0 0 0-2.424-1.057Z" fill="#fff" opacity=".2"/><path d="m142.983 313.53-51.89 8.39a2.848 2.848 0 0 1-2.13-.502 2.867 2.867 0 0 1-1.149-1.862l-1.891-11.72c29.969-11.75 49.284-.603 57.06 5.694Z" fill="#000" opacity=".2"/><path d="m143.858 344.715-65.963 66.738-6.036 6.097a2.845 2.845 0 0 1-2.012.837 2.83 2.83 0 0 1-2.012-.837L53.75 403.586a2.845 2.845 0 0 1 0-4.024l17.675-17.917 54.324-54.897a2.856 2.856 0 0 1 4.024 0l14.084 13.963a2.857 2.857 0 0 1 0 4.004Z" fill="#407BFF"/><path d="M106.765 380.047a.702.702 0 0 1-1.006 0l-15.09-14.889a.69.69 0 0 1-.211-.503.701.701 0 0 1 .211-.503.717.717 0 0 1 1.006 0l15.09 14.879a.706.706 0 0 1 0 1.016Zm-35.882 36.306a.698.698 0 0 1-.503.211.691.691 0 0 1-.503-.211l-15.09-14.879a.7.7 0 0 1-.157-.776.71.71 0 0 1 .157-.23.696.696 0 0 1 .503-.211.71.71 0 0 1 .503.211l15.09 14.889a.714.714 0 0 1 0 .996Zm3.662-3.702a.717.717 0 0 1-.503.212.71.71 0 0 1-.503-.212l-15.09-14.878a.704.704 0 0 1 0-1.006.7.7 0 0 1 .776-.157c.086.036.164.09.23.157l15.09 14.888a.707.707 0 0 1 0 .996Zm5.302-5.363a.714.714 0 0 1-1.006 0l-15.09-14.878a.712.712 0 0 1-.211-.503.703.703 0 0 1 .211-.503.716.716 0 0 1 .503-.212.71.71 0 0 1 .503.212l15.09 14.889a.703.703 0 0 1 0 .995Zm5.844-5.894a.698.698 0 0 1-.503.211.691.691 0 0 1-.503-.211l-15.09-14.879a.7.7 0 0 1-.156-.776.71.71 0 0 1 .156-.23.696.696 0 0 1 .503-.211.71.71 0 0 1 .503.211l15.09 14.889a.703.703 0 0 1 0 .996Zm6.388-6.488a.717.717 0 0 1-1.006 0l-15.09-14.879a.712.712 0 0 1-.212-.503.706.706 0 0 1 .212-.503.698.698 0 0 1 .503-.211.691.691 0 0 1 .503.211l15.09 14.889a.703.703 0 0 1 0 .996Zm6.95-7.033a.714.714 0 0 1-1.006 0l-15.09-14.878a.706.706 0 0 1 0-1.006.717.717 0 0 1 .503-.212.71.71 0 0 1 .503.212l15.09 14.878a.704.704 0 0 1 0 1.006Zm27.555-59.998a.699.699 0 0 1 .503-.211.69.69 0 0 1 .503.211l15.09 14.879a.702.702 0 0 1 0 1.006.708.708 0 0 1-1.006 0l-15.09-14.879a.705.705 0 0 1 0-1.006Zm-3.651 3.693a.712.712 0 0 1 1.006 0l15.09 14.879a.695.695 0 0 1 .211.503.716.716 0 0 1-.987.659.695.695 0 0 1-.23-.156l-15.09-14.879a.714.714 0 0 1 0-1.006Zm-5.301 5.361a.716.716 0 0 1 1.006 0l15.09 14.879a.714.714 0 0 1-.776 1.162.695.695 0 0 1-.23-.156l-15.09-14.879a.725.725 0 0 1 0-1.006Zm-5.846 5.925a.7.7 0 0 1 .775-.156c.087.036.165.09.231.156l15.09 14.879a.705.705 0 0 1 0 1.006.717.717 0 0 1-.503.212.708.708 0 0 1-.503-.212l-15.09-14.879a.687.687 0 0 1-.212-.503.707.707 0 0 1 .212-.503Zm-6.398 6.469a.695.695 0 0 1 .503-.211.712.712 0 0 1 .503.211l15.09 14.879a.712.712 0 0 1-1.006 1.006l-15.09-14.879a.712.712 0 0 1 0-1.006Zm-6.941 7.022a.696.696 0 0 1 .503-.211.692.692 0 0 1 .503.211l15.09 14.889a.718.718 0 0 1 0 1.006.699.699 0 0 1-.503.211.69.69 0 0 1-.503-.211l-15.09-14.879a.703.703 0 0 1-.213-.508.713.713 0 0 1 .213-.508Z" fill="#000" opacity=".2"/><path d="m129.311 326.306 14.949 14.788a2.258 2.258 0 0 1 .493 2.473 2.252 2.252 0 0 1-.493.736l-72.834 73.669a2.268 2.268 0 0 1-2.626.443l39.847-40.311-16.096-15.874 6.72-6.791 16.097 15.875 1.941-2.012-16.096-15.875 5.03-5.03 16.096 15.875.644-.654-16.096-15.875 5.312-5.372 16.096 15.875.432-.443-16.096-15.864 15.945-16.096c.27.11.519.266.735.463Z" fill="#000" opacity=".2"/><path d="m126.092 326.326-72.774 73.67a2.258 2.258 0 0 0-.498 2.481c.116.277.285.527.498.738l14.929 14.778c.172.174.373.317.593.423l1.58-1.58-16.096-15.874.925-.936 16.096 15.875 2.274-2.294-16.096-15.875 1.438-1.458 16.096 15.874 3.763-3.802-16.096-15.875 2.012-2.072 16.096 15.864 3.138-3.179-16.096-15.864 2.194-2.224 16.096 15.875 3.138-3.179-16.096-15.875 3.41-3.45 16.097 15.874 1.579-1.589-16.096-15.875 5.302-5.251 16.096 15.865.784-.795-16.096-15.875 44.375-44.888a2.26 2.26 0 0 0-2.565.493Z" fill="#fff" opacity=".2"/><path d="m143.856 344.715-65.964 66.738a93.317 93.317 0 0 1-6.468-29.808l54.324-54.897a2.856 2.856 0 0 1 4.024 0l14.084 13.963a2.857 2.857 0 0 1 0 4.004Z" fill="#000" opacity=".2"/><path d="M194.157 393.427h-2.012s.141 16.327-3.944 24.989l-1.247.231h-40.079a2.85 2.85 0 0 1-2.646-1.754 2.85 2.85 0 0 1-.221-1.093v-19.858a2.867 2.867 0 0 1 2.867-2.867h1.267a2.863 2.863 0 0 1-1.629-2.576v-19.858a2.867 2.867 0 0 1 1.629-2.575h-7.927a2.837 2.837 0 0 1-2.847-2.847V345.35a2.842 2.842 0 0 1 2.847-2.847h5.433a2.889 2.889 0 0 1-1.64-2.575v-19.869a2.868 2.868 0 0 1 2.867-2.857h7.153s22.685 9.336 31.93 25.663h-4.839s9.265 12.193 8.853 24.919h4.185a56.12 56.12 0 0 1 0 25.643Z" fill="#000" opacity=".2"/><path d="M168.696 363.981v2.726a72.99 72.99 0 0 1-.915 9.084l-.091.574a63.249 63.249 0 0 1-.553 2.806 61.285 61.285 0 0 1-1.338 5.181c-.151.483-.292 1.006-.453 1.429l-.181.553a34.54 34.54 0 0 1-.322.936 60.534 60.534 0 0 1-2.616 6.287c-.221.453-.442.906-.674 1.348v.071c-.09.191-.181.362-.281.543a53.17 53.17 0 0 1-4.024 6.448 21.249 21.249 0 0 1-1.067 1.429 45.43 45.43 0 0 1-5.804 6.187c-.564.503-1.127 1.006-1.71 1.438a37.751 37.751 0 0 1-5.886 3.833 41.137 41.137 0 0 1-3.018 1.429 31.516 31.516 0 0 1-25.341-.674c-16.015-7.424-27.514-27.746-27.514-51.648 0-23.903 11.499-44.264 27.514-51.658a30.248 30.248 0 0 1 3.672-1.439 30.943 30.943 0 0 1 9.768-1.579c4.075.007 8.109.803 11.881 2.344h.071a29.16 29.16 0 0 1 2.857 1.317l.151.071c1.759.931 3.441 2 5.03 3.199l.835.644c.573.453 1.136.925 1.7 1.418a47.237 47.237 0 0 1 5.181 5.403l.623.794c.363.463.725.936 1.077 1.429.181.241.352.483.513.734a56.687 56.687 0 0 1 2.857 4.527c.312.564.624 1.137.915 1.72.292.584.483.946.715 1.429a71.402 71.402 0 0 1 2.012 4.517 70.529 70.529 0 0 1 1.157 3.249l.452 1.429.061.231c.221.745.432 1.499.633 2.264a71.416 71.416 0 0 1 1.288 6.036c.081.462.151.935.211 1.398.051.372.101.744.141 1.117.378 2.852.576 5.724.594 8.601-.121.342-.121.594-.121.825Z" fill="#407BFF"/><path d="M168.695 363.98v2.727a72.704 72.704 0 0 1-.915 9.084l-.091.573a63.293 63.293 0 0 1-.553 2.807 61.004 61.004 0 0 1-1.338 5.181c-.151.483-.292 1.006-.453 1.428l-.181.554c-.1.311-.211.623-.322.935a60.544 60.544 0 0 1-2.615 6.288c-.222.452-.443.905-.674 1.348v.07a9.257 9.257 0 0 1-.282.543 53.136 53.136 0 0 1-4.024 6.449 20.966 20.966 0 0 1-1.066 1.428 45.437 45.437 0 0 1-5.805 6.187c-.563.503-1.127 1.006-1.71 1.439a37.862 37.862 0 0 1-5.885 3.833 40.714 40.714 0 0 1-3.018 1.428 31.65 31.65 0 0 1-12.002 2.364h-10.965a2.472 2.472 0 0 1-2.425-2.012 2.538 2.538 0 0 1 0-.493V311.779a2.817 2.817 0 0 1 0-.503v-.05a2.486 2.486 0 0 1 2.415-1.922h10.975c4.075.008 8.109.804 11.881 2.344h.07c.976.388 1.93.828 2.857 1.318l.151.07a37.262 37.262 0 0 1 5.03 3.2l.835.643c.574.453 1.137.926 1.7 1.419a47.139 47.139 0 0 1 5.181 5.402l.624.795c.362.463.724.935 1.077 1.428.181.242.352.483.513.735a56.612 56.612 0 0 1 2.857 4.527c.311.563.623 1.136.915 1.72.292.583.483.946.714 1.428a71.087 71.087 0 0 1 2.012 4.517 68.281 68.281 0 0 1 1.157 3.25l.453 1.428.06.232c.222.744.433 1.499.634 2.263a71.5 71.5 0 0 1 1.288 6.036c.08.463.151.936.211 1.399.05.372.101.744.141 1.116.377 2.852.575 5.725.593 8.602-.02.321-.02.573-.02.804Z" fill="#407BFF"/><path d="M168.696 363.981v.715h-49.989a.716.716 0 0 1 0-1.429h50.009c-.02.231-.02.483-.02.714Zm-26.005-50.914h-23.983a.702.702 0 0 1-.715-.704.684.684 0 0 1 .544-.684.491.491 0 0 1 .171 0h21.005c.975.388 1.929.828 2.857 1.318l.121.07Zm7.585 5.262h-31.568a.708.708 0 0 1-.715-.704.722.722 0 0 1 .437-.679.715.715 0 0 1 .278-.056h29.898c.543.473 1.107.946 1.67 1.439Zm6.891 7.615h-38.46a.715.715 0 1 1 0-1.428h37.414c.332.483.694.955 1.046 1.428Zm5 8.43h-43.46a.715.715 0 1 1 0-1.428h42.776c.221.463.482.945.684 1.428Zm3.581 9.195h-47.041a.715.715 0 1 1 0-1.428h46.618l.423 1.428Zm2.254 9.979h-49.294a.491.491 0 0 1-.171 0 .7.7 0 0 1-.543-.684.71.71 0 0 1 .714-.764h49.053c.08.462.151.935.211 1.398l.03.05Zm-25.301 61.336a40.714 40.714 0 0 1-3.018 1.428h-20.976a.715.715 0 1 1 0-1.428h23.994Zm7.596-5.27c-.564.503-1.127 1.006-1.71 1.438h-29.879a.723.723 0 0 1 0-1.438h31.589Zm6.87-7.616a20.888 20.888 0 0 1-1.067 1.428h-37.393a.715.715 0 1 1 0-1.428h38.46Zm5.011-8.41c-.221.452-.442.905-.674 1.348v.07h-42.795a.72.72 0 0 1-.736-.416.721.721 0 0 1 0-.586.714.714 0 0 1 .736-.416h43.469Zm3.57-9.206c-.151.483-.292 1.006-.453 1.428h-46.588a.715.715 0 1 1 0-1.428h47.041Zm2.253-9.989c-.07.483-.14.956-.221 1.429h-49.073a.716.716 0 0 1 0-1.429h49.294Z" fill="#000" opacity=".2"/><path d="M117.964 311.678v-2.253a11.505 11.505 0 0 1 1.69-.121h8.048c4.074.008 8.109.804 11.881 2.344h.07l-21.689.03Zm29.777 4.588h-29.777v-3.269h24.576l.151.07a37.27 37.27 0 0 1 5.05 3.199Zm7.727 7.475h-37.504v-5.402h32.323a47.31 47.31 0 0 1 5.181 5.402Zm5.07 7.484h-42.574v-4.527h39.717a54.242 54.242 0 0 1 2.857 4.527Zm3.601 7.666h-46.175v-4.516h44.203a58.091 58.091 0 0 1 1.972 4.516Zm2.304 7.173h-48.479v-2.263h47.845c.222.744.433 1.499.634 2.263Zm1.65 8.601h-50.129v-1.137h49.978c.06.392.111.764.151 1.137Z" fill="#fff" opacity=".2"/><path d="m168.445 369.996.06-.805c.06-.774.101-1.549.131-2.334a.165.165 0 0 0 0-.07v-.05c0-.906.05-1.831.05-2.757 0-30.18-18.339-54.676-40.964-54.676h-.845c22.232.594 40.119 24.848 40.119 54.656v2.757h-48.992v-57.342c-1.861.261-3.28.945-3.612 1.8v.051a1.01 1.01 0 0 0-.06.332v104.795c0 .11.02.219.06.322.373 1.116 2.616 2.012 5.312 2.012h8.048c.634 0 1.258 0 1.891-.061h.554c.462 0 .935-.08 1.398-.141l.513-.07c.61-.081 1.214-.181 1.811-.302l.352-.08a21.617 21.617 0 0 0 1.469-.352l.563-.151c.463-.131.926-.272 1.378-.423l.413-.141c.523-.181 1.006-.372 1.559-.573l.151-.071.553-.241a24.21 24.21 0 0 0 1.207-.543l.594-.292.563-.282c.222-.11.433-.241.654-.362l.533-.292a39.81 39.81 0 0 0 1.258-.754c.141-.101.292-.191.443-.282a34.753 34.753 0 0 0 1.599-1.096c.181-.121.342-.262.513-.383l.885-.663.141-.121 1.167-1.006.403-.342.11-.101.845-.774.795-.755.634-.654.915-.956.544-.613c.311-.352.633-.714.935-1.077l.473-.573.553-.684.403-.543.422-.564.242-.322.533-.754.442-.634c.403-.593.805-1.207 1.188-1.831l.08-.131a23.71 23.71 0 0 0 1.006-1.81c.08-.131.151-.262.221-.393.171-.292.332-.593.493-.895l.322-.614a.335.335 0 0 1 .05-.1l.322-.654.302-.594c.071-.141.131-.292.191-.432.342-.715.664-1.439 1.006-2.173l.292-.654c.392-1.006.775-1.962 1.127-2.958v-.07c.11-.302.211-.624.322-.936l.181-.553c0-.081.05-.161.08-.242.081-.241.151-.493.232-.734.08-.241.09-.302.141-.453.05-.151.11-.392.16-.593.151-.503.292-1.006.433-1.509.141-.503.191-.755.282-1.137.141-.563.271-1.137.402-1.71l.06-.232c.202-.925.383-1.861.544-2.806l.09-.574.091-.563c0-.171.05-.342.08-.513.03-.171 0-.232 0-.352.101-.654.181-1.308.262-2.012v-.523c.211-.644.271-1.268.322-1.912Zm-8.964 25.553h-41.517v-.614h41.839l-.322.614Zm3.622-8.25h-45.139v-.935h45.451c-.111.312-.201.634-.312.945v-.01Zm2.284-8.098h-47.423v-2.807h47.966a62.991 62.991 0 0 1-.543 2.807Z" fill="#000" opacity=".2"/><path d="M157.7 363.98c0 30.18-18.339 54.676-40.964 54.676S75.771 394.18 75.771 363.98c0-30.2 18.34-54.676 40.925-54.676 22.584 0 41.004 24.486 41.004 54.676Z" fill="#407BFF"/><path d="M116.737 409.875c18.99 0 34.385-20.547 34.385-45.894 0-25.346-15.395-45.894-34.385-45.894s-34.385 20.548-34.385 45.894c0 25.347 15.394 45.894 34.385 45.894Z" fill="#000" opacity=".2"/><path d="M156.482 350.692c-4.446-23.772-20.552-41.377-39.737-41.377-22.635 0-40.974 24.486-40.974 54.677a68.791 68.791 0 0 0 5.452 27.252c7.042 16.388 20.332 27.414 35.522 27.414 22.615 0 40.964-24.476 40.964-54.666a71.495 71.495 0 0 0-1.227-13.3Zm-39.737 66.125c-13.531 0-25.462-9.054-32.604-22.847a65.389 65.389 0 0 1-7.042-29.989c0-29.174 17.715-52.835 39.596-52.835 19.657 0 35.974 19.114 39.053 44.214a69.21 69.21 0 0 1 .533 8.621c.05 29.185-17.675 52.836-39.536 52.836Z" fill="#000" opacity=".2"/><path d="M147.82 344.344c-5.734-14.688-17.243-24.697-30.502-24.697-18.993 0-34.385 20.552-34.385 45.893a58.804 58.804 0 0 0 3.31 19.678 58.19 58.19 0 0 1-3.894-21.237c0-25.341 15.392-45.894 34.386-45.894 13.721 0 25.572 10.734 31.085 26.257Zm9.891 19.637c0 30.18-18.35 54.666-40.965 54.666-15.19 0-28.45-11.066-35.521-27.413.885.885 1.86 1.8 2.917 2.736 7.143 13.802 19.114 22.846 32.604 22.846 21.861 0 39.587-23.651 39.587-52.835a69.403 69.403 0 0 0-.534-8.621c.272-1.65.493-3.219.684-4.668a71.472 71.472 0 0 1 1.228 13.289Z" fill="#000" opacity=".2"/><path d="M119.713 388.758v7.505h-4.124l-1.167-1.549 1.167-5.885c-4.93-.403-10.865-4.105-13.481-7.123l3.431-5.221a16.837 16.837 0 0 0 10.06 5.1v-13.389c-3.33-1.077-9.557-4.195-11.116-8.109a23.856 23.856 0 0 1-.443-5.432c0-6.841 3.722-12.807 11.559-13.813l2.947-9.134 1.167 1.559v7.445c3.441.241 9.054 2.525 9.054 2.525l1.167 1.559-2.012 6.77a17.521 17.521 0 0 0-8.138-3.621v13.551a56.584 56.584 0 0 1 7.857 3.501 15.812 15.812 0 0 1 3.802 9.969c-.08 6.821-3.853 12.716-11.73 13.792Zm-4.114-28.691v-11.941a5.835 5.835 0 0 0-5.08 6.106c-.011 3.22 2.152 4.688 5.07 5.835h.01Zm9.346 15.482c0-3.279-2.214-4.828-5.232-5.965v11.871c3.662-.745 5.222-3.018 5.222-5.906h.01Z" fill="#000" opacity=".2"/><path d="M118.536 387.2v7.514h-4.114v-7.404c-4.93-.402-9.698-2.545-12.314-5.563l2.264-6.77a16.884 16.884 0 0 0 10.06 5.09v-13.45c-5.573-1.811-11.559-4.225-11.559-13.541 0-6.841 3.722-12.806 11.559-13.812v-7.576h4.114v7.445a17.873 17.873 0 0 1 10.221 4.084l-2.012 6.771a17.491 17.491 0 0 0-8.138-3.612v13.541c5.583 1.811 11.659 4.155 11.659 13.47-.08 6.881-3.853 12.746-11.74 13.813Zm-4.114-28.692v-11.931a5.816 5.816 0 0 0-5.03 6.097c-.05 3.219 2.112 4.698 5.03 5.834Zm9.315 15.483c0-3.28-2.213-4.829-5.231-5.966v11.871c3.702-.744 5.231-3.018 5.231-5.905Z" fill="#407BFF"/><path d="M157.702 363.98c0 18.933-7.213 35.633-18.189 45.441l-59.917-68.498c6.508-18.672 20.693-31.619 37.141-31.619 22.625 0 40.965 24.486 40.965 54.676Z" fill="#fff" opacity=".1"/><path d="m315.594 214.684-99.038-25.429a2.939 2.939 0 0 0-3.576 2.115l-4.898 19.079a2.937 2.937 0 0 0 2.115 3.576l99.037 25.428a2.937 2.937 0 0 0 3.576-2.115l4.898-19.078a2.937 2.937 0 0 0-2.114-3.576Z" fill="#407BFF"/><path d="M260.1 225.243a.71.71 0 0 1-.576-.609.722.722 0 0 1 .023-.296l5.272-20.502a.695.695 0 0 1 .321-.434.69.69 0 0 1 .534-.079.71.71 0 0 1 .513.865l-5.272 20.502a.705.705 0 0 1-.815.553Zm-49.444-12.695a.716.716 0 0 1-.503-.865l5.261-20.543a.716.716 0 0 1 1.114-.385.7.7 0 0 1 .272.464.68.68 0 0 1-.017.273l-5.262 20.503a.716.716 0 0 1-.865.553Zm5.041 1.287a.69.69 0 0 1-.503-.855l5.261-20.502a.718.718 0 0 1 .866-.513.712.712 0 0 1 .503.865l-5.262 20.502a.711.711 0 0 1-.865.503Zm7.303 1.881a.714.714 0 0 1-.503-.865l5.261-20.502a.713.713 0 0 1 1.297-.181.694.694 0 0 1 .071.533l-5.261 20.502a.715.715 0 0 1-.865.513Zm8.058 2.063a.698.698 0 0 1-.521-.581.703.703 0 0 1 .018-.274l5.262-20.502a.713.713 0 0 1 1.107-.395.709.709 0 0 1 .261.747l-5.261 20.522a.713.713 0 0 1-.866.483Zm8.813 2.263a.703.703 0 0 1-.503-.855l5.261-20.502a.714.714 0 0 1 .835-.503.712.712 0 0 1 .513.855l-5.271 20.512a.697.697 0 0 1-.835.493Zm9.616 2.455a.717.717 0 0 1-.434-.321.71.71 0 0 1-.079-.534l5.272-20.503a.703.703 0 0 1 1.29-.186.714.714 0 0 1 .078.538l-5.271 20.503a.707.707 0 0 1-.856.503Zm65.671-6.439a.715.715 0 0 1 .503.865l-5.261 20.493a.683.683 0 0 1-.121.248.688.688 0 0 1-.468.273.714.714 0 0 1-.276-.018.71.71 0 0 1-.431-.322.689.689 0 0 1-.072-.533l5.261-20.503a.716.716 0 0 1 .865-.503Zm-5.039-1.287a.703.703 0 0 1 .503.855l-5.261 20.502a.713.713 0 0 1-.325.439.705.705 0 0 1-.54.074.7.7 0 0 1-.503-.855l5.261-20.502a.717.717 0 0 1 .865-.513Zm-7.312-1.881a.712.712 0 0 1 .503.865l-5.262 20.502a.69.69 0 0 1-.855.503.69.69 0 0 1-.503-.855l5.261-20.502a.718.718 0 0 1 .856-.513Zm-8.05-2.063a.704.704 0 0 1 .503.855l-5.261 20.503a.716.716 0 0 1-.855.513.713.713 0 0 1-.513-.855l5.271-20.513a.698.698 0 0 1 .581-.521.703.703 0 0 1 .274.018Zm-8.811-2.263a.695.695 0 0 1 .504.855l-5.262 20.502a.695.695 0 0 1-.321.434.7.7 0 0 1-.964-.244.714.714 0 0 1-.083-.532l5.271-20.512a.707.707 0 0 1 .855-.503Zm-9.568-2.455a.697.697 0 0 1 .434.321.695.695 0 0 1 .08.534l-5.272 20.503a.703.703 0 0 1-1.29.186.714.714 0 0 1-.078-.538l5.271-20.503a.707.707 0 0 1 .855-.503Z" fill="#000" opacity=".2"/><path d="m317.896 217.628-5.231 20.361a2.288 2.288 0 0 1-1.062 1.415 2.284 2.284 0 0 1-1.755.225L209.55 213.865a2.262 2.262 0 0 1-1.7-2.012l54.897 14.084 5.614-21.87 9.245 2.374-5.614 21.87 2.686.695 5.614-21.871 6.861 1.761-5.614 21.87.895.232 5.624-21.871 7.304 1.881-5.634 21.841.593.15 5.614-21.86 21.961 5.644c.049.279.049.565 0 .845Z" fill="#000" opacity=".2"/><path d="m316.236 214.862-100.329-25.734a2.256 2.256 0 0 0-1.722.239 2.277 2.277 0 0 0-1.044 1.391l-5.231 20.371c-.06.237-.081.481-.061.725l2.153.553 5.614-21.871 1.267.322-5.623 21.841 3.128.804 5.614-21.87 2.012.513-5.614 21.87 5.181 1.328 5.614-21.87 2.826.734-5.613 21.861 4.326 1.116 5.613-21.87 3.018.775-5.613 21.87 4.326 1.107 5.613-21.891 4.698 1.207-5.613 21.931 2.162.553 5.614-21.86 7.153 1.831-5.614 21.87 1.087.282 5.613-21.87 61.105 15.663a2.284 2.284 0 0 0-1.66-1.921Z" fill="#fff" opacity=".2"/><path d="M331.266 393.075h-102.25a2.937 2.937 0 0 0-2.938 2.937v19.698a2.937 2.937 0 0 0 2.938 2.937h102.25a2.937 2.937 0 0 0 2.937-2.937v-19.698a2.937 2.937 0 0 0-2.937-2.937Z" fill="#407BFF"/><path d="M280.14 417.098a.704.704 0 0 1-.704-.704v-21.177a.706.706 0 0 1 1.202-.498.706.706 0 0 1 .206.498v21.177a.706.706 0 0 1-.704.704Zm-51.045 0a.717.717 0 0 1-.704-.704v-21.177a.71.71 0 0 1 .704-.704.704.704 0 0 1 .704.704v21.177a.706.706 0 0 1-.704.704Zm5.213 0a.715.715 0 0 1-.714-.704v-21.177a.714.714 0 0 1 .714-.704.717.717 0 0 1 .704.704v21.177a.71.71 0 0 1-.704.704Zm7.533 0a.704.704 0 0 1-.704-.704v-21.177a.706.706 0 0 1 1.202-.498.706.706 0 0 1 .206.498v21.177a.706.706 0 0 1-.704.704Zm8.32 0a.704.704 0 0 1-.704-.704v-21.177a.706.706 0 0 1 1.202-.498.706.706 0 0 1 .206.498v21.177a.706.706 0 0 1-.704.704Zm9.094 0a.704.704 0 0 1-.704-.704v-21.177a.706.706 0 0 1 1.202-.498.706.706 0 0 1 .206.498v21.177a.706.706 0 0 1-.704.704Zm9.881 0a.704.704 0 0 1-.704-.704v-21.177a.706.706 0 0 1 .704-.704.719.719 0 0 1 .495.209.719.719 0 0 1 .209.495v21.177a.719.719 0 0 1-.209.495.719.719 0 0 1-.495.209Zm62.049-22.585a.706.706 0 0 1 .704.704v21.177a.706.706 0 0 1-1.409 0v-21.177a.707.707 0 0 1 .705-.704Zm-5.241 0a.721.721 0 0 1 .496.209.719.719 0 0 1 .209.495v21.177a.719.719 0 0 1-.209.495.721.721 0 0 1-.496.209.703.703 0 0 1-.704-.704v-21.177a.702.702 0 0 1 .704-.704Zm-7.503 0a.703.703 0 0 1 .704.704v21.177a.702.702 0 0 1-1.2.495.719.719 0 0 1-.209-.495v-21.177a.719.719 0 0 1 .209-.495.721.721 0 0 1 .496-.209Zm-8.323 0a.715.715 0 0 1 .715.704v21.177a.72.72 0 0 1-.715.704.719.719 0 0 1-.495-.209.719.719 0 0 1-.209-.495v-21.177a.719.719 0 0 1 .209-.495.719.719 0 0 1 .495-.209Zm-9.093 0a.703.703 0 0 1 .704.704v21.177a.702.702 0 0 1-1.2.495.719.719 0 0 1-.209-.495v-21.177a.719.719 0 0 1 .209-.495.721.721 0 0 1 .496-.209Zm-9.867 0a.719.719 0 0 1 .495.209.719.719 0 0 1 .209.495v21.177a.719.719 0 0 1-.209.495.719.719 0 0 1-.495.209.715.715 0 0 1-.715-.704v-21.177a.715.715 0 0 1 .715-.704Z" fill="#000" opacity=".2"/><path d="M334.203 395.358v21.026c0 .603-.239 1.181-.666 1.607a2.269 2.269 0 0 1-1.607.666H228.362a2.282 2.282 0 0 1-2.163-1.559h56.678v-22.575h9.557v22.575h2.767v-22.575h7.092v22.575h.926v-22.575h7.545v22.575h.613v-22.575h22.686c.1.267.147.551.14.835Z" fill="#000" opacity=".2"/><path d="M331.979 393.075H228.361c-.603 0-1.181.239-1.607.666a2.269 2.269 0 0 0-.666 1.607v21.036c.001.242.039.483.111.714h2.233v-22.585h1.308v22.585h3.229v-22.575h2.012v22.575h5.352v-22.575h2.917v22.575h4.467v-22.575h3.118v22.575h4.467v-22.575h4.849v22.575h2.243v-22.575h7.384v22.575h1.127v-22.575h63.117a2.274 2.274 0 0 0-2.043-1.448Z" fill="#fff" opacity=".2"/><path d="M322.121 367.462h-102.25a2.937 2.937 0 0 0-2.937 2.937v19.698a2.937 2.937 0 0 0 2.937 2.937h102.25a2.937 2.937 0 0 0 2.937-2.937v-19.698a2.937 2.937 0 0 0-2.937-2.937Z" fill="#407BFF"/><path d="M270.995 391.475a.704.704 0 0 1-.704-.704v-21.126a.704.704 0 1 1 1.408 0v21.126a.706.706 0 0 1-.704.704Zm-51.045 0a.706.706 0 0 1-.704-.704v-21.126a.704.704 0 1 1 1.408 0v21.126a.706.706 0 0 1-.704.704Zm5.203 0a.707.707 0 0 1-.704-.704v-21.126a.704.704 0 1 1 1.409 0v21.126a.707.707 0 0 1-.705.704Zm7.543 0a.706.706 0 0 1-.704-.704v-21.126a.704.704 0 1 1 1.409 0v21.126a.707.707 0 0 1-.705.704Zm8.313 0a.704.704 0 0 1-.704-.704v-21.126a.704.704 0 0 1 .704-.704.707.707 0 0 1 .714.704v21.126a.71.71 0 0 1-.21.501.692.692 0 0 1-.504.203Zm9.103 0a.707.707 0 0 1-.704-.704v-21.126a.704.704 0 1 1 1.409 0v21.126a.707.707 0 0 1-.705.704Zm9.868 0a.704.704 0 0 1-.705-.704v-21.126a.705.705 0 0 1 1.409 0v21.126a.706.706 0 0 1-.704.704Zm62.06-22.575a.704.704 0 0 1 .704.704v21.126a.704.704 0 1 1-1.408 0v-21.126a.704.704 0 0 1 .704-.704Zm-5.211 0a.708.708 0 0 1 .66.432.706.706 0 0 1 .054.272v21.126a.706.706 0 0 1-.441.654.707.707 0 0 1-.273.05.704.704 0 0 1-.704-.704v-21.126a.704.704 0 0 1 .704-.704Zm-7.535 0a.704.704 0 0 1 .704.704v21.126a.704.704 0 1 1-1.408 0v-21.126a.704.704 0 0 1 .704-.704Zm-8.318 0a.706.706 0 0 1 .704.704v21.126a.704.704 0 1 1-1.409 0v-21.126a.705.705 0 0 1 .705-.704Zm-9.094 0a.704.704 0 0 1 .704.704v21.126a.704.704 0 1 1-1.408 0v-21.126a.704.704 0 0 1 .704-.704Zm-9.881 0a.704.704 0 0 1 .704.704v21.126a.704.704 0 1 1-1.408 0v-21.126a.704.704 0 0 1 .704-.704Z" fill="#000" opacity=".2"/><path d="M325.058 369.735v21.025a2.271 2.271 0 0 1-2.273 2.274H219.167a2.29 2.29 0 0 1-2.163-1.559h56.678V368.9h9.547v22.575h2.776V368.9h7.042v22.575h.926V368.9h7.545v22.575h.624V368.9h22.796c.09.269.131.552.12.835Z" fill="#000" opacity=".2"/><path d="M322.785 367.462H219.167a2.275 2.275 0 0 0-2.274 2.274v21.025c-.005.243.032.484.111.714h2.303v-22.574h1.308v22.574h3.24v-22.574h2.012v22.574h5.351v-22.574h2.928v22.574h4.467v-22.574h3.108v22.574h4.477v-22.574h4.849v22.574h2.233v-22.574h7.394v22.574h1.117v-22.574h63.146a2.288 2.288 0 0 0-2.152-1.439Z" fill="#fff" opacity=".2"/><path d="M332.101 341.838H229.852a2.938 2.938 0 0 0-2.938 2.938v19.697a2.938 2.938 0 0 0 2.938 2.938h102.249a2.938 2.938 0 0 0 2.938-2.938v-19.697a2.938 2.938 0 0 0-2.938-2.938Z" fill="#407BFF"/><path d="M280.976 365.863a.705.705 0 0 1-.705-.705v-21.176a.705.705 0 0 1 1.409 0v21.196a.702.702 0 0 1-.704.685Zm-51.045 0a.705.705 0 0 1-.704-.705v-21.176a.704.704 0 1 1 1.408 0v21.196a.702.702 0 0 1-.704.685Zm5.905-21.881a.704.704 0 1 0-1.408 0v21.176a.705.705 0 1 0 1.408 0v-21.176Zm6.841 21.881a.705.705 0 0 1-.704-.705v-21.176a.704.704 0 0 1 .704-.704.71.71 0 0 1 .704.704v21.196a.702.702 0 0 1-.704.685Zm8.31 0a.708.708 0 0 1-.704-.705v-21.176a.717.717 0 0 1 .704-.704.715.715 0 0 1 .715.704v21.196a.707.707 0 0 1-.715.685Zm9.106 0a.705.705 0 0 1-.704-.705v-21.176a.704.704 0 0 1 .704-.704.71.71 0 0 1 .704.704v21.196a.702.702 0 0 1-.704.685Zm9.869 0a.705.705 0 0 1-.704-.705v-21.176a.708.708 0 0 1 .209-.495.708.708 0 0 1 .495-.209.714.714 0 0 1 .714.704v21.196a.703.703 0 0 1-.714.685Zm62.018-22.585a.71.71 0 0 1 .704.704v21.196a.704.704 0 1 1-1.409 0v-21.196a.705.705 0 0 1 .705-.704Zm-5.17 0a.716.716 0 0 1 .714.704v21.196a.703.703 0 0 1-.442.654.703.703 0 0 1-.272.051.705.705 0 0 1-.705-.705v-21.196a.714.714 0 0 1 .705-.704Zm-7.536 0a.704.704 0 0 1 .705.704v21.196a.705.705 0 0 1-1.409 0v-21.196a.703.703 0 0 1 .704-.704Zm-8.32 0a.704.704 0 0 1 .704.704v21.196a.704.704 0 1 1-1.408 0v-21.196a.704.704 0 0 1 .704-.704Zm-9.094 0a.704.704 0 0 1 .705.704v21.196a.705.705 0 0 1-1.409 0v-21.196a.703.703 0 0 1 .704-.704Zm-9.878 0a.703.703 0 0 1 .704.704v21.196a.704.704 0 1 1-1.409 0v-21.196a.705.705 0 0 1 .705-.704Z" fill="#000" opacity=".2"/><path d="M334.998 344.123v21.055a2.277 2.277 0 0 1-2.274 2.274H229.106a2.29 2.29 0 0 1-2.163-1.56h56.749v-22.604h9.547v22.574h2.776v-22.574h7.042v22.574h.926v-22.574h7.545v22.574h.624v-22.574h22.685c.106.265.161.549.161.835Z" fill="#000" opacity=".2"/><path d="M332.765 341.85H229.147a2.25 2.25 0 0 0-1.611.663 2.261 2.261 0 0 0-.663 1.61v21.056c-.003.242.034.484.111.714h2.223v-22.615h1.308v22.585h3.239v-22.575h2.012v22.575h5.352v-22.575h2.928v22.575h4.466v-22.575h3.119v22.575h4.467v-22.575h4.848v22.575h2.234v-22.575h7.434v22.575h1.117v-22.575h63.126a2.279 2.279 0 0 0-2.092-1.438Z" fill="#fff" opacity=".2"/><path d="M332.101 316.226H229.852a2.938 2.938 0 0 0-2.938 2.938v19.697a2.938 2.938 0 0 0 2.938 2.938h102.249a2.938 2.938 0 0 0 2.938-2.938v-19.697a2.938 2.938 0 0 0-2.938-2.938Z" fill="#407BFF"/><path d="M280.976 340.249a.704.704 0 0 1-.705-.704v-21.126a.705.705 0 0 1 1.409 0v21.126a.704.704 0 0 1-.704.704Zm-51.045 0a.704.704 0 0 1-.704-.704v-21.126a.704.704 0 1 1 1.408 0v21.126a.704.704 0 0 1-.704.704Zm5.905-21.88a.704.704 0 1 0-1.408 0v21.177a.704.704 0 0 0 1.408 0v-21.177Zm6.841 21.88a.704.704 0 0 1-.704-.704v-21.126a.704.704 0 1 1 1.408 0v21.126a.717.717 0 0 1-.704.704Zm8.31 0a.71.71 0 0 1-.704-.704v-21.126a.704.704 0 0 1 .704-.704.708.708 0 0 1 .715.704v21.126a.715.715 0 0 1-.715.704Zm9.106 0a.704.704 0 0 1-.704-.704v-21.126a.704.704 0 1 1 1.408 0v21.126a.717.717 0 0 1-.704.704Zm9.869 0a.708.708 0 0 1-.495-.209.708.708 0 0 1-.209-.495v-21.126a.704.704 0 0 1 .704-.704.711.711 0 0 1 .66.432.706.706 0 0 1 .054.272v21.126a.714.714 0 0 1-.714.704Zm62.018-22.584a.707.707 0 0 1 .704.704v21.126a.717.717 0 0 1-.704.704.704.704 0 0 1-.705-.704v-21.126a.705.705 0 0 1 .705-.704Zm-5.17 0a.703.703 0 0 1 .714.704v21.126a.715.715 0 0 1-.714.705.714.714 0 0 1-.705-.705v-21.126a.707.707 0 0 1 .705-.704Zm-7.536 0a.704.704 0 0 1 .705.704v21.126a.705.705 0 0 1-1.409 0v-21.126a.703.703 0 0 1 .704-.704Zm-8.32 0a.704.704 0 0 1 .704.704v21.126a.704.704 0 1 1-1.408 0v-21.126a.704.704 0 0 1 .704-.704Zm-9.094 0a.704.704 0 0 1 .705.704v21.126a.705.705 0 0 1-1.409 0v-21.126a.703.703 0 0 1 .704-.704Zm-9.878 0a.703.703 0 0 1 .704.704v21.126a.703.703 0 1 1-1.409 0v-21.126a.705.705 0 0 1 .705-.704Z" fill="#000" opacity=".2"/><path d="M334.998 318.5v21.025a2.275 2.275 0 0 1-2.274 2.274H229.106a2.283 2.283 0 0 1-2.163-1.549h56.749v-22.585h9.547v22.585h2.776v-22.585h7.042v22.585h.926v-22.585h7.545v22.585h.624v-22.585h22.685c.104.266.159.549.161.835Z" fill="#000" opacity=".2"/><path d="M332.765 316.226H229.147a2.277 2.277 0 0 0-2.274 2.274v21.025c-.004.246.034.491.111.724h2.223v-22.584h1.308v22.584h3.239v-22.584h2.012v22.584h5.352v-22.584h2.928v22.584h4.466v-22.584h3.119v22.584h4.467v-22.584h4.849v22.584h2.233v-22.584h7.434v22.584h1.117v-22.584h63.126a2.285 2.285 0 0 0-2.092-1.439Z" fill="#fff" opacity=".2"/><path d="M327.111 290.613h-102.25a2.937 2.937 0 0 0-2.937 2.938v19.697a2.937 2.937 0 0 0 2.937 2.938h102.25a2.938 2.938 0 0 0 2.938-2.938v-19.697a2.938 2.938 0 0 0-2.938-2.938Z" fill="#407BFF"/><path d="M275.985 314.627a.704.704 0 0 1-.704-.705v-21.176a.704.704 0 1 1 1.409 0v21.126a.706.706 0 0 1-.705.755Zm-51.044 0a.705.705 0 0 1-.705-.705v-21.176a.705.705 0 0 1 1.409 0v21.126a.697.697 0 0 1-.423.697.718.718 0 0 1-.281.058Zm5.201 0a.704.704 0 0 1-.704-.705v-21.176a.704.704 0 1 1 1.408 0v21.126a.697.697 0 0 1-.423.697.714.714 0 0 1-.281.058Zm7.545 0a.705.705 0 0 1-.705-.705v-21.176a.705.705 0 0 1 1.409 0v21.126a.697.697 0 0 1-.423.697.718.718 0 0 1-.281.058Zm8.31 0a.704.704 0 0 1-.704-.704v-21.177a.706.706 0 0 1 .977-.653.712.712 0 0 1 .387.381.71.71 0 0 1 .054.272v21.126a.704.704 0 0 1-.714.755Zm9.106 0a.705.705 0 0 1-.705-.705v-21.176a.705.705 0 0 1 1.409 0v21.126a.697.697 0 0 1-.423.697.714.714 0 0 1-.281.058Zm9.869 0a.704.704 0 0 1-.704-.705v-21.176a.704.704 0 1 1 1.408 0v21.126a.706.706 0 0 1-.704.755Zm62.058-22.575a.704.704 0 0 1 .705.704v21.126a.705.705 0 0 1-1.409 0v-21.136a.706.706 0 0 1 .704-.694Zm-5.211 0a.7.7 0 0 1 .715.704v21.126a.707.707 0 0 1-.715.704.707.707 0 0 1-.704-.704v-21.136a.702.702 0 0 1 .704-.694Zm-7.535 0a.704.704 0 0 1 .704.704v21.126a.704.704 0 1 1-1.408 0v-21.136a.706.706 0 0 1 .704-.694Zm-8.318 0a.704.704 0 0 1 .704.704v21.126a.704.704 0 1 1-1.408 0v-21.136a.705.705 0 0 1 .704-.694Zm-9.094 0a.704.704 0 0 1 .704.704v21.126a.704.704 0 1 1-1.408 0v-21.136a.706.706 0 0 1 .704-.694Zm-9.881 0a.704.704 0 0 1 .705.704v21.126a.705.705 0 0 1-1.409 0v-21.136a.706.706 0 0 1 .704-.694Z" fill="#000" opacity=".2"/><path d="M330.049 292.887v20.985a2.276 2.276 0 0 1-2.274 2.273H224.157a2.28 2.28 0 0 1-2.163-1.559h56.678v-22.534h9.547v22.574h2.777v-22.574h7.042v22.574h.925v-22.574h7.545v22.574h.624v-22.574h22.685c.13.261.208.544.232.835Z" fill="#000" opacity=".2"/><path d="M327.775 290.613H224.157a2.27 2.27 0 0 0-2.103 1.402 2.27 2.27 0 0 0-.171.872v20.985c-.005.243.033.484.111.714h2.223v-22.534h1.308v22.575h3.239v-22.575h2.012v22.575h5.352v-22.575h2.928v22.575h4.466v-22.575h3.119v22.575h4.467v-22.575h4.848v22.575h2.234v-22.575h7.394v22.575h1.117v-22.575h63.126a2.295 2.295 0 0 0-2.052-1.439Z" fill="#fff" opacity=".2"/><path d="M332.101 264.99H229.852a2.938 2.938 0 0 0-2.938 2.938v19.697a2.938 2.938 0 0 0 2.938 2.938h102.249a2.938 2.938 0 0 0 2.938-2.938v-19.697a2.938 2.938 0 0 0-2.938-2.938Z" fill="#407BFF"/><path d="M280.976 289.014a.704.704 0 0 1-.705-.704v-21.126a.705.705 0 0 1 1.409 0v21.126a.706.706 0 0 1-.704.704Zm-51.045 0a.704.704 0 0 1-.704-.704v-21.126a.704.704 0 1 1 1.408 0v21.126a.706.706 0 0 1-.704.704Zm5.905-21.881a.704.704 0 1 0-1.408 0v21.176a.704.704 0 1 0 1.408 0v-21.176Zm6.841 21.881a.704.704 0 0 1-.704-.704v-21.126a.704.704 0 0 1 .704-.705.715.715 0 0 1 .704.705v21.126a.706.706 0 0 1-.704.704Zm8.31 0a.707.707 0 0 1-.704-.704v-21.126a.717.717 0 0 1 .704-.705.715.715 0 0 1 .715.705v21.126a.702.702 0 0 1-.442.653.708.708 0 0 1-.273.051Zm9.106 0a.704.704 0 0 1-.704-.704v-21.126a.704.704 0 0 1 .704-.705.715.715 0 0 1 .704.705v21.126a.706.706 0 0 1-.704.704Zm9.869 0a.704.704 0 0 1-.704-.704v-21.126a.714.714 0 0 1 .704-.705.715.715 0 0 1 .714.705v21.126a.7.7 0 0 1-.714.704Zm62.018-22.585a.71.71 0 0 1 .704.704v21.126a.704.704 0 1 1-1.409 0v-21.126a.705.705 0 0 1 .705-.704Zm-5.17 0a.716.716 0 0 1 .714.704v21.126a.707.707 0 0 1-.714.704.704.704 0 0 1-.705-.704v-21.126a.714.714 0 0 1 .705-.704Zm-7.536 0a.704.704 0 0 1 .705.704v21.126a.705.705 0 0 1-1.409 0v-21.126a.703.703 0 0 1 .704-.704Zm-8.32 0a.704.704 0 0 1 .704.704v21.126a.704.704 0 1 1-1.408 0v-21.126a.704.704 0 0 1 .704-.704Zm-9.094 0a.704.704 0 0 1 .705.704v21.126a.705.705 0 0 1-1.409 0v-21.126a.703.703 0 0 1 .704-.704Zm-9.878 0a.703.703 0 0 1 .704.704v21.126a.703.703 0 1 1-1.409 0v-21.126a.705.705 0 0 1 .705-.704Z" fill="#000" opacity=".2"/><path d="M334.998 267.265V288.3a2.275 2.275 0 0 1-2.274 2.274H229.106a2.29 2.29 0 0 1-2.163-1.559h56.749V266.44h9.547v22.575h2.776V266.44h7.042v22.575h.926V266.44h7.545v22.575h.624V266.44h22.685c.105.262.16.542.161.825Z" fill="#000" opacity=".2"/><path d="M332.765 264.99H229.147a2.277 2.277 0 0 0-2.274 2.274v21.035c-.003.243.034.484.111.715h2.223v-22.585h1.308v22.585h3.239v-22.575h2.012v22.575h5.352v-22.575h2.928v22.575h4.466v-22.575h3.119v22.575h4.467v-22.575h4.848v22.575h2.234v-22.575h7.434v22.575h1.117v-22.575h63.126a2.292 2.292 0 0 0-2.092-1.449Z" fill="#fff" opacity=".2"/><path d="M327.111 239.378h-102.25a2.938 2.938 0 0 0-2.937 2.938v19.697a2.937 2.937 0 0 0 2.937 2.938h102.25a2.938 2.938 0 0 0 2.938-2.938v-19.697a2.938 2.938 0 0 0-2.938-2.938Z" fill="#407BFF"/><path d="M275.986 263.401a.703.703 0 0 1-.654-.442.703.703 0 0 1-.051-.272v-21.126a.705.705 0 0 1 1.409 0v21.126a.703.703 0 0 1-.704.714Zm-51.045 0a.703.703 0 0 1-.654-.442.703.703 0 0 1-.051-.272v-21.126a.705.705 0 0 1 1.409 0v21.126a.703.703 0 0 1-.704.714Zm5.201 0a.703.703 0 0 1-.704-.714v-21.126a.704.704 0 1 1 1.408 0v21.126a.703.703 0 0 1-.704.714Zm7.545 0a.703.703 0 0 1-.654-.442.703.703 0 0 1-.051-.272v-21.126a.705.705 0 0 1 1.409 0v21.126a.713.713 0 0 1-.704.714Zm8.31 0a.711.711 0 0 1-.704-.714v-21.126a.704.704 0 0 1 .704-.704.692.692 0 0 1 .505.202.718.718 0 0 1 .209.502v21.126a.715.715 0 0 1-.714.714Zm9.106 0a.703.703 0 0 1-.704-.714v-21.126a.704.704 0 1 1 1.408 0v21.126a.713.713 0 0 1-.704.714Zm9.869 0a.715.715 0 0 1-.704-.714v-21.126a.704.704 0 1 1 1.408 0v21.126a.703.703 0 0 1-.704.714Zm62.058-22.585a.705.705 0 0 1 .705.705v21.126a.714.714 0 0 1-.705.714.702.702 0 0 1-.653-.442.703.703 0 0 1-.051-.272v-21.126a.704.704 0 0 1 .704-.705Zm-5.211 0a.708.708 0 0 1 .715.705v21.126a.716.716 0 0 1-.715.714.715.715 0 0 1-.704-.714v-21.126a.704.704 0 0 1 .704-.705Zm-7.535 0a.705.705 0 0 1 .705.705v21.126a.703.703 0 0 1-.976.659.692.692 0 0 1-.433-.659v-21.126a.704.704 0 0 1 .704-.705Zm-8.318 0a.705.705 0 0 1 .704.705v21.126a.685.685 0 0 1-.051.272.69.69 0 0 1-.381.387.707.707 0 0 1-.774-.155.707.707 0 0 1-.202-.504v-21.126a.704.704 0 0 1 .704-.705Zm-9.096 0a.705.705 0 0 1 .704.705v21.126a.707.707 0 0 1-.704.714.71.71 0 0 1-.501-.21.692.692 0 0 1-.203-.504v-21.126a.704.704 0 0 1 .704-.705Zm-9.879 0a.705.705 0 0 1 .705.705v21.126a.703.703 0 0 1-.976.659.692.692 0 0 1-.433-.659v-21.126a.704.704 0 0 1 .704-.705Z" fill="#000" opacity=".2"/><path d="M330.049 241.651v21.026a2.273 2.273 0 0 1-2.274 2.273H224.157a2.28 2.28 0 0 1-2.163-1.559h56.678v-22.575h9.547v22.575h2.777v-22.575h7.042v22.575h.925v-22.575h7.545v22.575h.624v-22.575h22.685c.129.262.207.545.232.835Z" fill="#000" opacity=".2"/><path d="M327.775 239.428H224.157a2.273 2.273 0 0 0-2.274 2.273v21.026c-.005.242.033.484.111.714h2.223v-22.625h1.308v22.575h3.239v-22.575h2.012v22.575h5.352v-22.575h2.928v22.575h4.466v-22.575h3.119v22.575h4.467v-22.575h4.848v22.575h2.234v-22.575h7.394v22.575h1.117v-22.575h63.126a2.293 2.293 0 0 0-2.052-1.388Z" fill="#fff" opacity=".2"/><path d="M229.769 316.226h2.928l-4.326.362a2.84 2.84 0 0 1 1.398-.362Zm16.982-92.813-36.628-9.406a2.855 2.855 0 0 1-2.063-3.471l1.519-5.915a53.05 53.05 0 0 1 14.084 2.535c12.022 3.712 19.044 10.351 23.088 16.257Zm-21.98 67.191h27.454c-.403.875-6.982 14.919-18.823 25.562h-8.631a2.853 2.853 0 0 1-2.847-2.857v-19.848a2.857 2.857 0 0 1 2.847-2.857Zm5-25.603h35.522c-.271 1.116-4.366 17.645-10.895 25.562h-24.627a2.868 2.868 0 0 1-2.867-2.857v-19.859a2.864 2.864 0 0 1 1.773-2.633 2.85 2.85 0 0 1 1.094-.213Zm31.789-.06h-36.789a2.857 2.857 0 0 1-2.847-2.857v-19.859a2.837 2.837 0 0 1 1.757-2.63 2.853 2.853 0 0 1 1.09-.217h40.431c.282 6.006.201 17.374-3.642 25.563Zm60.641 128.083H228.02c15.512-5.915 38.479-15.442 55.118-25.562h39.063a2.841 2.841 0 0 1 2.017.837 2.858 2.858 0 0 1 .83 2.02v19.858c.002.375-.071.745-.214 1.091a2.815 2.815 0 0 1-.617.925 2.815 2.815 0 0 1-.925.617 2.818 2.818 0 0 1-1.091.214Zm12.002 2.918v16.146c-10.06-4.889-14.929-10.724-14.929-10.724s-21.81 17.253-55.421 17.253a82.029 82.029 0 0 1-37.775-9.054v-13.621a2.867 2.867 0 0 1 .833-2.027 2.862 2.862 0 0 1 2.024-.84h102.411a2.865 2.865 0 0 1 2.024.84 2.866 2.866 0 0 1 .833 2.027Zm.794-76.859v19.859a2.856 2.856 0 0 1-2.857 2.857h-27.273c4.024-18.621 14.406-24.999 14.406-24.999h13.511l1.489.352a2.78 2.78 0 0 1 .724 1.931Zm-.001 25.612v19.869a2.869 2.869 0 0 1-2.857 2.857h-48.942c11.479-7.042 19.939-14.275 20.835-20.854.231-1.65.503-3.23.824-4.729h27.323a2.866 2.866 0 0 1 2.817 2.857Z" fill="#000" opacity=".2"/><path d="M243.019 285.433c-.11.201-.221.412-.342.613a24.702 24.702 0 0 1-1.006 1.751 73.576 73.576 0 0 1-4.144 6.327c-.282.383-.564.765-.855 1.137l-.262.503a60.322 60.322 0 0 1-1.781 2.173 64.37 64.37 0 0 1-3.561 3.883c-.342.352-.684.695-1.006 1.006l-.412.393-.715.664a61.264 61.264 0 0 1-5.17 4.245c-.403.292-.805.583-1.218.855l-.06.05-.493.332a51.884 51.884 0 0 1-6.469 3.743c-.523.261-1.056.503-1.579.744a45.275 45.275 0 0 1-7.907 2.686 32.7 32.7 0 0 1-2.143.453c-2.27.417-4.573.623-6.881.614a32.889 32.889 0 0 1-3.32-.192 31.006 31.006 0 0 1-11.408-3.46 31.4 31.4 0 0 1-10.271-8.833c-10.473-13.853-11.066-36.799 0-57.533s30.421-33.067 47.755-32.102a30.824 30.824 0 0 1 22.283 11.117l.05.06c.665.789 1.29 1.612 1.871 2.465l.091.131a36.282 36.282 0 0 1 2.897 5.11c.151.302.292.624.433.946.291.654.563 1.328.824 2.012a45.192 45.192 0 0 1 2.012 7.042l.182 1.006c.1.573.181 1.147.271 1.73 0 .302.081.594.101.885.22 1.739.347 3.489.382 5.242v3.48c-.06 1.6-.181 3.209-.382 4.839a66.223 66.223 0 0 1-.493 3.36c-.091.483-.171.956-.272 1.449a1.815 1.815 0 0 1-.05.221 60.554 60.554 0 0 1-.493 2.254c-.473 1.951-1.006 3.913-1.69 5.865-.141.432-.302.875-.463 1.307-.131.342-.251.684-.392 1.006a70.09 70.09 0 0 1-3.461 7.737 3.058 3.058 0 0 0-.453.684Z" fill="#407BFF"/><path d="M243.019 285.432c-.11.201-.221.412-.342.613a25.27 25.27 0 0 1-1.006 1.751 73.83 73.83 0 0 1-4.144 6.328 48.16 48.16 0 0 1-.856 1.136l-.261.503c-.584.735-1.167 1.469-1.781 2.173a64.69 64.69 0 0 1-3.561 3.884c-.342.352-.684.694-1.006 1.006l-.412.392-.715.664a61.278 61.278 0 0 1-5.171 4.245c-.402.292-.804.584-1.217.855l-.06.051-.493.332a52.002 52.002 0 0 1-6.469 3.742c-.523.261-1.056.503-1.579.744a45.192 45.192 0 0 1-7.907 2.686c-.715.181-1.429.322-2.143.453-2.27.417-4.573.623-6.881.614a33.182 33.182 0 0 1-3.32-.191 31.002 31.002 0 0 1-11.408-3.461l-9.607-5.111a2.408 2.408 0 0 1-1.187-2.826 1.95 1.95 0 0 1 .181-.453l48.288-90.59a2.41 2.41 0 0 1 .271-.413 2.45 2.45 0 0 1 3.018-.553l9.517 5.03a30.877 30.877 0 0 1 9.225 7.525l.05.06a30.49 30.49 0 0 1 1.872 2.465l.09.131a36.085 36.085 0 0 1 2.897 5.11c.151.302.292.624.433.946.292.654.563 1.328.825 2.012a45.192 45.192 0 0 1 2.012 7.042l.181 1.006c.101.573.181 1.147.272 1.73 0 .302.08.594.1.885.22 1.739.348 3.489.383 5.242v3.48a57.271 57.271 0 0 1-.383 4.839 66.39 66.39 0 0 1-.493 3.36c-.09.483-.171.956-.271 1.449a1.648 1.648 0 0 1-.051.221 60.554 60.554 0 0 1-.493 2.254c-.472 1.951-1.006 3.913-1.69 5.865-.14.432-.301.875-.462 1.307-.131.342-.252.684-.393 1.006a70.083 70.083 0 0 1-3.46 7.737c-.171.301-.282.513-.393.724Z" fill="#407BFF"/><path d="M243.019 285.433c-.111.201-.222.412-.342.613l-43.399-23.138a.7.7 0 0 1-.241-.926.703.703 0 0 1 .905-.311l43.399 23.138c-.101.201-.212.412-.322.624Zm.966-56.206-20.834-11.066a.682.682 0 0 1-.242-.201.696.696 0 0 1-.05-.734.682.682 0 0 1 .785-.352.76.76 0 0 1 .161.06l18.168 9.678.05.06c.666.79 1.29 1.612 1.872 2.465l.09.09Zm4.153 8.079-27.423-14.617a.697.697 0 0 1-.372-.684.689.689 0 0 1 .495-.596.706.706 0 0 1 .531.053l25.944 13.822c.292.654.564 1.328.825 2.022Zm2.457 9.797-33.409-17.796a.708.708 0 0 1-.241-.926.705.705 0 0 1 .905-.312l32.474 17.303c.1.574.171 1.147.271 1.731Zm.44 9.608-37.765-20.1a.7.7 0 0 1-.292-.946.705.705 0 0 1 .412-.344.694.694 0 0 1 .534.053l37.121 19.778c.03.523.02 1.036-.01 1.559Zm-1.145 9.647-40.843-21.77a.683.683 0 0 1-.282-.946.69.69 0 0 1 .412-.344c.088-.027.18-.036.272-.027a.69.69 0 0 1 .261.08l40.452 21.558c-.091.483-.171.956-.272 1.449Zm-2.698 9.678-42.765-22.785a.318.318 0 0 1-.131-.101.69.69 0 0 1-.161-.845.705.705 0 0 1 .946-.282l42.574 22.675a33.45 33.45 0 0 1-.463 1.308c.01.02 0 .02 0 .03Zm-50.268 41.548a33.145 33.145 0 0 1-3.319-.191l-18.189-9.688a.705.705 0 0 1-.281-.945.692.692 0 0 1 .945-.282l20.844 11.106Zm9.025-1.066a32.7 32.7 0 0 1-2.143.453l-25.955-13.833a.69.69 0 0 1-.344-.411c-.027-.088-.036-.181-.027-.273a.71.71 0 0 1 1.035-.553l27.434 14.617Zm9.486-3.431c-.523.262-1.056.503-1.579.745l-32.484-17.303a.718.718 0 0 1-.282-.956.703.703 0 0 1 .946-.282l33.399 17.796Zm8.238-4.979c-.402.292-.805.583-1.217.855l-.061.05-37.131-19.788a.58.58 0 0 1-.231-.211.697.697 0 0 1-.061-.734.717.717 0 0 1 .946-.292l37.755 20.12Zm7.345-6.308c-.343.352-.685.694-1.006 1.006l-40.452-21.559a.694.694 0 0 1-.403-.41.703.703 0 0 1 .227-.8.707.707 0 0 1 .83-.027l40.804 21.79Zm6.539-7.676c-.282.382-.564.765-.855 1.137l-42.544-22.635a.708.708 0 0 1-.446-.702.704.704 0 0 1 1.1-.536l42.745 22.736Z" fill="#000" opacity=".2"/><path d="m223.17 216.582 1.006-1.952c.523.19 1.03.419 1.519.684l7.042 3.732a30.893 30.893 0 0 1 9.225 7.525l.05.06-18.842-10.049Zm23.711 17.756-25.834-13.762 1.519-2.847 21.327 11.368.091.131a36.282 36.282 0 0 1 2.897 5.11Zm3.261 10.059-32.544-17.333 2.495-4.698 28.047 14.949a45.304 45.304 0 0 1 2.002 7.082Zm.935 8.833-36.94-19.677 2.092-3.934 34.466 18.37c.22 1.739.347 3.488.382 5.241Zm-.422 8.33-40.059-21.347 2.082-3.923 38.359 20.431a57.505 57.505 0 0 1-.382 4.839Zm-1.309 7.273-42.112-22.363 1.006-1.962 41.518 22.132c-.07.694-.272 1.439-.412 2.193Zm-2.544 8.229-43.499-23.138.523-1.006 43.369 23.138c-.131.322-.252.664-.393 1.006Z" fill="#fff" opacity=".2"/><path d="M240.012 290.532c.151-.221.291-.442.432-.674.403-.643.805-1.297 1.187-1.951v-.071c.453-.774.896-1.559 1.328-2.364 13.953-26.156 9.366-55.923-10.271-66.396a10.319 10.319 0 0 0-.744-.372c19.023 10.794 23.329 40.109 9.547 65.974-.433.804-.876 1.589-1.318 2.374l-42.514-22.655 26.498-49.737c-1.74-.634-3.279-.684-3.974-.101a.886.886 0 0 0-.201.262l-48.419 90.882a.878.878 0 0 0-.1.312c-.201 1.147 1.348 2.917 3.692 4.165l7.042 3.742c.543.292 1.106.553 1.67.815l.493.221 1.287.523.473.181c.564.212 1.137.403 1.71.574l.343.09c.472.141.955.262 1.438.372l.563.131 1.389.272.422.07c.543.081 1.077.161 1.62.212h.754c.436.04.869.07 1.298.09h2.596l1.448-.08h.513l1.902-.212.613-.1 1.077-.171h.171a47.336 47.336 0 0 0 1.469-.302l.503-.111h.14c.373-.08.735-.181 1.097-.281.362-.101.694-.181 1.006-.292l.855-.262 1.237-.412.755-.272 1.318-.513.664-.282.805-.331.593-.282.634-.302.352-.161.805-.412.684-.342c.624-.332 1.257-.685 1.881-1.006l.131-.071c.583-.352 1.167-.704 1.75-1.076l.372-.242.846-.553.573-.392.101-.071.583-.412c.171-.131.352-.242.533-.372.181-.131.242-.202.372-.292a74.47 74.47 0 0 0 1.841-1.429l.554-.442c.794-.654 1.579-1.338 2.354-2.012l.704-.674.412-.393.181-.181.544-.533c.1-.111.221-.211.322-.322.1-.111.281-.292.422-.443.362-.362.714-.734 1.067-1.106l.774-.855c.382-.423.765-.855 1.147-1.298l.151-.181a98.752 98.752 0 0 0 1.77-2.183l.342-.453.343-.452.301-.403.212-.282c.382-.523.764-1.056 1.136-1.599l.292-.423c.423-.623.775-1.136 1.107-1.67Zm-19.587 18.028L184.4 289.365l.282-.533 36.306 19.346-.563.382Zm6.951-5.483-39.163-20.864.432-.815 39.436 21.005-.705.674Zm5.735-5.975-41.156-21.921 1.298-2.435 41.628 22.132a41.141 41.141 0 0 1-1.77 2.224Z" fill="#000" opacity=".2"/><path d="M233.471 280.352c-13.954 26.156-41.186 38.953-60.813 28.5-19.627-10.452-24.235-40.179-10.281-66.396 13.953-26.216 41.246-38.962 60.832-28.5 19.587 10.463 24.265 40.19 10.262 66.396Z" fill="#407BFF"/><path d="M227.766 277.322c11.718-21.992 7.857-46.938-8.623-55.719-16.48-8.781-39.339 1.928-51.057 23.919-11.718 21.992-7.857 46.938 8.623 55.719 16.48 8.782 39.339-1.928 51.057-23.919Z" fill="#000" opacity=".2"/><path d="M238.562 268.25c7.122-22.685 1.287-45.401-15.362-54.274-19.637-10.462-46.869 2.304-60.823 28.5a67.727 67.727 0 0 0-7.877 26.156c-1.438 17.485 4.97 33.198 18.108 40.24 19.627 10.463 46.86-2.293 60.823-28.5a70.587 70.587 0 0 0 5.131-12.122Zm-65.058 39.013c-11.74-6.258-17.907-19.627-17.726-34.908a64.475 64.475 0 0 1 7.797-29.255c13.48-25.311 39.807-37.655 58.75-27.544 17.102 9.054 22.373 33.198 13.45 56.426a68.73 68.73 0 0 1-3.491 7.686c-13.49 25.361-39.807 37.695-58.78 27.595Z" fill="#000" opacity=".2"/><path d="M233.986 258.733c1.811-15.382-3.541-29.395-15.09-35.532-16.488-8.772-39.345 1.942-51.055 23.933a57.698 57.698 0 0 0-6.227 18.601 57.332 57.332 0 0 1 6.439-20.231c11.71-21.981 34.576-32.705 51.054-23.923 11.951 6.348 17.303 21.136 14.879 37.152Zm-.504 21.609c-13.963 26.206-41.246 38.962-60.822 28.5-13.179-7.042-19.587-22.716-18.108-40.24a74.072 74.072 0 0 0 1.267 3.712c-.181 15.281 6.036 28.651 17.726 34.908 18.973 10.06 45.27-2.233 58.781-27.554a68.887 68.887 0 0 0 3.531-7.726 376.59 376.59 0 0 0 2.746-3.733 70.53 70.53 0 0 1-5.121 12.133Z" fill="#000" opacity=".2"/><path d="m192.74 285.925-1.851 7.253h-4.024l-.765-1.519 2.596-5.664a17.142 17.142 0 0 1-11.489-7.042l4.658-5.03a12.425 12.425 0 0 0 8.621 5.03l3.31-12.947c-3.018-1.076-8.36-4.145-8.933-7.937.102-1.777.409-3.536.915-5.241 1.68-6.61 6.811-12.334 14.768-13.229l5.151-8.793.765 1.519-1.841 7.183c3.329.272 8.259 2.525 8.259 2.525l.764 1.519-3.702 6.519a13.196 13.196 0 0 0-7.102-3.571l-3.34 13.078a41.935 41.935 0 0 1 6.851 3.45 12.728 12.728 0 0 1 1.277 9.668 17.197 17.197 0 0 1-14.888 13.229Zm3.018-27.736 2.937-11.528a7.734 7.734 0 0 0-6.489 5.845c-.774 3.108.946 4.547 3.572 5.683h-.02Zm5.362 15.03c.815-3.169-1.006-4.678-3.662-5.804l-2.928 11.458c3.803-.684 5.896-2.867 6.61-5.654h-.02Z" fill="#000" opacity=".2"/><path d="m191.985 284.416-1.861 7.244H186.1l1.831-7.183c-4.738-.433-8.903-2.545-10.724-5.483l3.893-6.519a12.38 12.38 0 0 0 8.622 5.03l3.309-12.947c-5.03-1.791-10.321-4.185-8.048-13.179 1.691-6.599 6.811-12.323 14.768-13.228l1.872-7.314h4.024l-1.831 7.183a13.89 13.89 0 0 1 9.054 4.024l-3.692 6.519a13.257 13.257 0 0 0-7.113-3.572l-3.34 13.078c5.03 1.801 10.433 4.125 8.129 13.078a17.226 17.226 0 0 1-14.869 13.269Zm3.018-27.745 2.938-11.519a7.711 7.711 0 0 0-6.489 5.845c-.785 3.099.976 4.527 3.561 5.674h-.01Zm5.362 15.04c.815-3.169-1.006-4.678-3.662-5.815l-2.927 11.458c3.792-.704 5.885-2.857 6.599-5.643h-.01Z" fill="#407BFF"/><path d="M233.471 280.352c-13.954 26.156-41.186 38.953-60.813 28.5-19.627-10.452-24.235-40.179-10.281-66.396 13.953-26.216 41.246-38.962 60.832-28.5 19.587 10.463 24.265 40.19 10.262 66.396Z" fill="#fff" opacity=".15"/><path d="m319.264 384.292.322.634c.301.614.623 1.227.945 1.821a74.367 74.367 0 0 0 4.024 6.569c.282.413.554.805.835 1.197l.332.463a65.144 65.144 0 0 0 1.731 2.284 58.393 58.393 0 0 0 3.49 4.024c.342.372.674.734 1.006 1.086.13.145.268.283.413.413.231.241.463.472.704.704a58.96 58.96 0 0 0 5.11 4.497c.403.321.795.623 1.208.915h.06c.161.131.332.252.493.362a53.99 53.99 0 0 0 6.448 4.024c.524.282 1.057.553 1.58.815a46.987 46.987 0 0 0 7.947 3.018c.725.201 1.449.372 2.173.533 2.292.502 4.626.788 6.972.855 1.137 0 2.263 0 3.38-.07a31.452 31.452 0 0 0 22.484-11.75c11.126-13.722 12.515-37.041 2.012-58.529-10.503-21.488-29.798-34.697-47.463-34.315-1.316.023-2.63.127-3.933.312a31.182 31.182 0 0 0-19.114 10.231l-.051.05a61.306 61.306 0 0 0-2.012 2.445l-.09.131a36.232 36.232 0 0 0-3.139 5.1c-.161.302-.312.624-.463.946-.322.67-.624 1.341-.905 2.012a45.144 45.144 0 0 0-2.284 7.142c-.08.322-.151.644-.221 1.006a45.928 45.928 0 0 0-.332 1.751c0 .302-.101.603-.141.895a53.502 53.502 0 0 0-.573 5.322c0 .644-.061 1.298-.071 1.951-.01.654 0 1.057 0 1.59 0 1.63.081 3.269.222 4.939.1 1.137.231 2.274.392 3.431.07.493.141 1.006.221 1.479v.231c.131.765.272 1.539.433 2.314a65.879 65.879 0 0 0 1.509 6.036c.131.442.281.895.422 1.348a70.91 70.91 0 0 0 3.612 9.054c.1.342.211.563.312.734Z" fill="#407BFF"/><path d="m319.264 384.292.322.633c.302.614.624 1.228.946 1.821a74.221 74.221 0 0 0 4.024 6.569c.281.413.553.805.835 1.198l.332.462a65.12 65.12 0 0 0 1.73 2.284 58.404 58.404 0 0 0 3.491 4.024c.342.372.674.734 1.006 1.086.13.145.267.283.412.413.232.241.463.473.705.704a58.811 58.811 0 0 0 5.11 4.497c.402.322.795.624 1.207.915h.061c.161.131.332.252.493.363a54.246 54.246 0 0 0 6.448 4.024c.523.281 1.056.553 1.579.814a47.03 47.03 0 0 0 7.948 3.018c.724.202 1.448.373 2.173.534 2.292.501 4.626.788 6.971.855 1.137 0 2.264 0 3.381-.071a31.654 31.654 0 0 0 11.709-2.957l9.859-4.829a2.479 2.479 0 0 0 1.137-3.31l-45.954-93.84a1.997 1.997 0 0 0-.262-.422v-.05a2.495 2.495 0 0 0-3.018-.664l-9.858 4.828a31.527 31.527 0 0 0-9.648 7.344l-.05.05a60.302 60.302 0 0 0-2.012 2.445l-.091.131a36.29 36.29 0 0 0-3.139 5.1c-.161.302-.311.624-.462.946a44.504 44.504 0 0 0-.906 2.012 45.12 45.12 0 0 0-2.283 7.143 18.79 18.79 0 0 0-.222 1.006 49.71 49.71 0 0 0-.332 1.75c0 .302-.1.604-.141.895a54.137 54.137 0 0 0-.573 5.322c0 .644-.06 1.298-.07 1.952-.01.654 0 1.056 0 1.589 0 1.63.08 3.27.221 4.94a69.43 69.43 0 0 0 .392 3.43c.071.493.141 1.006.222 1.479v.231a64.5 64.5 0 0 0 .432 2.314 66.537 66.537 0 0 0 1.509 6.036c.131.443.282.895.423 1.348a70.903 70.903 0 0 0 3.611 9.054c.121.191.232.413.332.584Z" fill="#407BFF"/><path d="m319.265 384.292.322.634 44.958-22.021a.708.708 0 0 0 .39-.41.697.697 0 0 0-.031-.564.703.703 0 0 0-.718-.393.718.718 0 0 0-.275.089l-44.948 22.012c.09.261.201.482.302.653Zm.973-57.172 21.579-10.573a.712.712 0 0 0 .251-.201.706.706 0 0 0 .047-.82.705.705 0 0 0-.761-.307l-.161.05-18.822 9.225-.05.051a59.575 59.575 0 0 0-2.012 2.444l-.071.131Zm-4.506 8.069 28.4-13.913a.693.693 0 0 0 .363-.403.71.71 0 0 0-.031-.542.734.734 0 0 0-.431-.385.726.726 0 0 0-.575.053l-26.87 13.168a84.931 84.931 0 0 0-.856 2.022Zm-2.867 9.868 34.597-16.941a.717.717 0 0 0-.624-1.288l-33.641 16.479c-.1.59-.211 1.173-.332 1.75Zm-.763 9.78 39.093-19.114a.704.704 0 0 0 .322-.946.707.707 0 0 0-.946-.332l-38.459 18.832c-.01.493-.02 1.026-.01 1.56Zm.834 9.847 42.313-20.723a.714.714 0 0 0-.634-1.278l-41.9 20.482c.07.534.151 1.006.221 1.519Zm2.416 9.941 44.264-21.689a.354.354 0 0 0 .141-.091.697.697 0 0 0 .191-.855.727.727 0 0 0-.956-.332l-44.113 21.569c.131.442.282.895.422 1.348.041.04.041.05.051.05Zm49.685 44.013c1.137 0 2.264 0 3.38-.071l18.893-9.225a.737.737 0 0 0 .25-.158.727.727 0 0 0 .214-.538.703.703 0 0 0-.254-.52.72.72 0 0 0-.834-.062l-21.649 10.574Zm-9.144-1.389c.724.201 1.448.372 2.173.533l26.88-13.169a.708.708 0 0 0 .362-.412.71.71 0 0 0-.035-.548.743.743 0 0 0-.17-.223.738.738 0 0 0-.52-.177.733.733 0 0 0-.271.073l-28.419 13.923Zm-9.528-3.783c.523.282 1.057.553 1.58.815l33.64-16.478a.714.714 0 0 0-.077-1.32.714.714 0 0 0-.546.032l-34.597 16.951Zm-8.209-5.402c.403.322.795.624 1.207.916h.061l38.459-18.833a.713.713 0 0 0 .252-.201.728.728 0 0 0 .08-.754.717.717 0 0 0-.956-.322l-39.103 19.194Zm-7.252-6.67c.342.372.674.734 1.006 1.086l41.91-20.512a.732.732 0 0 0 .379-.434.72.72 0 0 0-.057-.572.717.717 0 0 0-.956-.322l-42.282 20.754Zm-6.39-8.048c.281.413.553.805.835 1.197l44.093-21.599a.718.718 0 0 0-.634-1.287l-44.294 21.689Z" fill="#000" opacity=".2"/><path d="m341.848 314.978-1.006-2.012c-.539.173-1.064.388-1.569.644l-7.294 3.541a31.492 31.492 0 0 0-9.647 7.344l-.051.05 19.567-9.567ZM317.1 332.221l26.769-13.078-1.448-2.948-22.132 10.825-.091.131a36.173 36.173 0 0 0-3.098 5.07Zm-3.651 10.121 33.711-16.509-2.384-4.859-29.043 14.225a45.156 45.156 0 0 0-2.284 7.143Zm-1.267 8.953 38.228-18.742-2.012-4.024-35.703 17.485c-.222 1.7-.403 3.47-.513 5.281Zm.14 8.481 41.507-20.331-2.012-4.024-39.737 19.456c.03 1.589.101 3.259.242 4.899Zm1.087 7.414 43.57-21.338-1.006-2.012-43.006 21.056c.141.785.281 1.559.442 2.294Zm2.295 8.501 45.059-22.072-.493-1.006-44.928 22.001c.121.363.241.725.362 1.077Z" fill="#fff" opacity=".2"/><path d="M323.137 391.253c.101.151.191.302.282.453.362.553.724 1.106 1.097 1.649l.211.302.292.423.332.473.331.462c.564.785 1.137 1.54 1.731 2.284l.161.181c.362.463.734.916 1.106 1.368.252.292.503.594.765.886.262.291.694.784 1.006 1.177.141.15.272.311.412.452.141.141.212.232.322.342.111.111.352.383.533.564l.172.181c.129.145.267.282.412.412l.694.704h.05c.765.745 1.53 1.459 2.314 2.153l.554.473c.603.523 1.207 1.006 1.83 1.519.121.101.242.211.363.302l.533.402c.191.151.382.302.583.443l.091.07.563.413c.272.211.553.392.835.593l.372.252c.574.402 1.157.785 1.751 1.157l.131.09c.613.383 1.247.755 1.871 1.117l.684.372.805.453.352.181.633.322.594.312.805.362.674.312 1.318.563.764.302 1.238.463.855.301 1.006.322c.372.121.734.232 1.106.332l.141.051.513.12 1.479.363.181.05 1.087.211.623.121c.644.11 1.278.201 1.922.271l.523.061c.493.05 1.006.09 1.469.121h4.728c.553 0 1.107-.091 1.66-.161l.432-.061c.483-.07.956-.141 1.429-.231l.573-.101c.49-.1.983-.211 1.479-.332l.342-.09c.594-.151 1.177-.332 1.761-.513l.493-.171c.442-.151.885-.322 1.328-.493l.513-.202a33.738 33.738 0 0 0 1.72-.774l7.263-3.561c2.425-1.187 4.024-2.938 3.903-4.105a.809.809 0 0 0-.09-.322l-46.105-94.151a.915.915 0 0 0-.191-.262v-.05c-.684-.614-2.254-.614-4.024 0l25.26 51.537-44.032 21.569a94.445 94.445 0 0 1-1.268-2.455c-13.078-26.79-7.726-56.467 12.002-66.788l-.765.352c-20.341 9.959-26.045 40.049-12.756 67.181.413.825.835 1.649 1.268 2.454v.071c.375.67.758 1.341 1.147 2.012l.412.704 1.046 1.68Zm17.746 16.981 37.604-18.42.272.554-37.312 18.279-.564-.413Zm-7.042-6.116 40.844-20 .422.835-40.572 19.869-.694-.704Zm-6.66-7.857 43.118-21.126 1.237 2.515-42.574 20.894a47.993 47.993 0 0 1-1.75-2.283h-.031Z" fill="#000" opacity=".2"/><path d="M329.153 379.494c13.289 27.162 40.542 41.064 60.873 31.105 20.331-9.959 26.055-40.039 12.766-67.171-13.289-27.131-40.552-41.075-60.893-31.115-20.341 9.959-26.015 40.039-12.746 67.181Z" fill="#407BFF"/><path d="M386.168 402.719c17.07-8.359 21.864-33.605 10.707-56.388-11.156-22.784-34.039-34.478-51.109-26.119-17.07 8.359-21.864 33.605-10.708 56.389 11.157 22.784 34.04 34.477 51.11 26.118Z" fill="#000" opacity=".2"/><path d="M329.142 379.494c13.289 27.162 40.552 41.055 60.883 31.105 13.652-6.69 20.714-22.433 19.859-40.24a68.948 68.948 0 0 0-7.093-26.89c-13.289-27.162-40.552-41.075-60.893-31.116-17.243 8.451-23.973 31.367-17.514 54.687a72.903 72.903 0 0 0 4.758 12.454Zm1.237-.614a71.144 71.144 0 0 1-3.319-7.977c-8.27-23.903-2.012-48.288 15.643-56.94 19.657-9.627 46.004 3.843 58.851 30.069a65.461 65.461 0 0 1 6.881 30.029c-.342 15.553-7.042 28.933-19.245 34.889-19.617 9.627-45.964-3.843-58.811-30.07Z" fill="#000" opacity=".2"/><path d="M329.383 357.482c-1.308-15.714 4.628-29.778 16.549-35.623 17.102-8.36 39.948 3.34 51.105 26.156a58.788 58.788 0 0 1 5.683 19.114 58.34 58.34 0 0 0-5.844-20.804c-11.157-22.776-34.033-34.465-51.105-26.106-12.334 6.026-18.269 20.895-16.388 37.263Zm-.24 22.012c13.289 27.162 40.552 41.054 60.883 31.105 13.651-6.69 20.714-22.434 19.858-40.24a71.927 71.927 0 0 1-1.418 3.742c-.342 15.553-7.042 28.933-19.245 34.888-19.647 9.628-45.994-3.842-58.841-30.069a71.338 71.338 0 0 1-3.32-7.977c-1.006-1.369-1.851-2.676-2.665-3.894a72.856 72.856 0 0 0 4.748 12.445Z" fill="#000" opacity=".2"/><path d="m379.614 382.693 2.928 6.781-4.024.412-1.751-1.288-1.147-5.422c-5.03.131-12.293-2.605-16.035-5.03l1.338-5.03a23.885 23.885 0 0 0 11.87 3.571l-5.231-12.072c-3.692-.633-11.066-2.826-14.084-6.197a26.657 26.657 0 0 1-2.555-4.849c-2.666-6.176-1.338-11.931 6.036-13.641l-.664-8.541 1.761 1.288 2.897 6.72c3.491-.131 9.879 1.368 9.879 1.368l1.75 1.288.624 6.317a24.299 24.299 0 0 0-9.426-2.444l5.281 12.223a80.484 80.484 0 0 1 9.104 2.364 21.122 21.122 0 0 1 7.626 8.611c2.525 6.117 1.167 11.801-6.177 13.571Zm-15.251-25.472-4.658-10.764c-3.219 1.006-3.762 3.36-2.605 6.036 1.247 2.887 3.953 3.994 7.263 4.728Zm15.241 13.078c-1.288-3.018-4.024-4.134-7.475-4.849l4.628 10.704c3.32-1.086 3.964-3.31 2.847-5.945v.09Z" fill="#000" opacity=".2"/><path d="m377.854 381.405 2.938 6.78-4.024.413-2.907-6.71a26.262 26.262 0 0 1-14.275-3.773l-.423-6.338a23.856 23.856 0 0 0 11.871 3.572l-5.231-12.072c-6.187-1.067-13.018-2.636-16.65-11.066-2.666-6.177-1.338-11.932 5.976-13.632l-2.958-6.841 4.024-.422 2.948 6.7a24.427 24.427 0 0 1 11.629 2.656l.614 6.317a24.437 24.437 0 0 0-9.416-2.444l5.221 12.243c6.187 1.066 13.078 2.565 16.72 10.975 2.696 6.167 1.287 11.881-6.057 13.642Zm-15.25-25.472-4.648-10.764c-3.229 1.006-3.763 3.36-2.616 6.036 1.258 2.907 3.954 3.993 7.264 4.728Zm15.24 13.027c-1.277-2.967-4.024-4.134-7.464-4.848l4.627 10.703c3.32-1.036 3.964-3.249 2.837-5.855Z" fill="#407BFF"/><path d="m406.132 351.406-80.48-21.126c3.3-7.958 8.793-14.336 16.267-17.998 20.342-9.959 47.604 3.974 60.894 31.116a73.205 73.205 0 0 1 3.319 8.008Z" fill="#fff" opacity=".1"/><path d="M320.35 363.98a54.68 54.68 0 0 1-33.755 50.515 54.67 54.67 0 0 1-59.586-11.856 54.678 54.678 0 1 1 89.183-59.582 54.651 54.651 0 0 1 4.158 20.923Z" fill="#407BFF"/><path d="M265.675 409.875c25.346 0 45.894-20.547 45.894-45.894 0-25.346-20.548-45.894-45.894-45.894s-45.894 20.548-45.894 45.894c0 25.347 20.548 45.894 45.894 45.894Z" fill="#000" opacity=".2"/><path d="M318.731 350.692a54.748 54.748 0 0 0-97.249-19.192 54.747 54.747 0 1 0 97.249 19.182v.01Zm-53.046 66.124a52.858 52.858 0 0 1-48.849-32.619 52.854 52.854 0 0 1 38.522-72.077 52.857 52.857 0 0 1 63.162 51.861 52.795 52.795 0 0 1-15.461 37.375 52.77 52.77 0 0 1-37.374 15.46Z" fill="#000" opacity=".2"/><path d="M307.162 344.344a45.895 45.895 0 0 0-82.17 40.874 45.883 45.883 0 0 1-2.885-35.362 45.877 45.877 0 0 1 23.189-26.852 45.893 45.893 0 0 1 61.866 21.34Zm13.187 19.637a54.672 54.672 0 0 1-40.569 52.777 54.675 54.675 0 0 1-61.479-25.524c1.187.885 2.495 1.8 3.893 2.736a52.84 52.84 0 0 0 28.306 20.608 52.843 52.843 0 0 0 67.334-59.218c.363-1.65.654-3.219.916-4.668a54.553 54.553 0 0 1 1.599 13.289Z" fill="#000" opacity=".2"/><path d="M269.607 388.758v7.505h-5.493l-1.549-1.549 1.559-5.885c-6.569-.403-14.496-4.105-17.987-7.123l4.577-5.221a25.775 25.775 0 0 0 13.41 5.1v-13.389c-4.436-1.077-12.746-4.195-14.838-8.109a18.318 18.318 0 0 1-.584-5.432c0-6.841 4.96-12.807 15.422-13.813l3.944-9.134 1.549 1.559v7.445c4.597.241 12.072 2.525 12.072 2.525l1.549 1.559-2.746 6.77a27.806 27.806 0 0 0-10.865-3.621v13.551c3.566.951 7.07 2.12 10.492 3.501a13.805 13.805 0 0 1 5.03 9.969c.051 6.821-4.979 12.716-15.542 13.792Zm-5.493-28.691v-11.941c-4.758.744-6.77 3.159-6.77 6.106.03 3.22 2.907 4.688 6.8 5.835h-.03Zm12.535 15.482c0-3.279-2.958-4.828-6.982-5.965v11.871c4.869-.745 6.982-3.018 6.982-5.906Z" fill="#000" opacity=".2"/><path d="M268.09 387.2v7.514h-5.523v-7.404c-6.57-.402-12.938-2.545-16.428-5.563l3.018-6.77a25.87 25.87 0 0 0 13.41 5.05v-13.41c-7.445-1.811-15.422-4.225-15.422-13.541 0-6.841 4.969-12.806 15.422-13.812v-7.576h5.502v7.445a28.702 28.702 0 0 1 13.612 4.084l-2.757 6.771a27.78 27.78 0 0 0-10.855-3.612v13.541c7.435 1.811 15.553 4.155 15.553 13.47.071 6.881-4.959 12.746-15.532 13.813Zm-5.523-28.692v-11.931c-4.759.735-6.771 3.149-6.771 6.097.02 3.219 2.908 4.698 6.771 5.834Zm12.474 15.483c0-3.28-2.948-4.829-6.972-5.966v11.871c4.91-.744 6.992-3.018 6.992-5.905h-.02Z" fill="#407BFF"/><path d="m305.221 326.226-81.244 73.156a54.663 54.663 0 0 1 5.022-76.116 54.665 54.665 0 0 1 76.222 3.01v-.05Z" fill="#fff" opacity=".15"/><path d="m215.797 189.419 7.524-1.096-7.524-1.107 1.861-2.937-2.938 1.861-1.096-7.515-1.107 7.515-2.938-1.861 1.862 2.937-7.515 1.107 7.515 1.096-1.862 2.938 2.938-1.861 1.107 7.525 1.096-7.525 2.938 1.861-1.861-2.938Z" fill="#407BFF"/><path d="m215.797 189.419 7.524-1.096-7.524-1.107 1.861-2.937-2.938 1.861-1.096-7.515-1.107 7.515-2.938-1.861 1.862 2.937-7.515 1.107 7.515 1.096-1.862 2.938 2.938-1.861 1.107 7.525 1.096-7.525 2.938 1.861-1.861-2.938Z" fill="#fff" opacity=".7"/><path d="m243.32 242.859 10.392-1.519-10.392-1.529 2.566-4.055-4.055 2.566-1.529-10.392-1.519 10.392-4.064-2.566 2.575 4.055-10.392 1.529 10.392 1.519-2.575 4.054 4.064-2.565 1.519 10.392 1.529-10.392 4.055 2.565-2.566-4.054Z" fill="#407BFF"/><path d="m243.32 242.859 10.392-1.519-10.392-1.529 2.566-4.055-4.055 2.566-1.529-10.392-1.519 10.392-4.064-2.566 2.575 4.055-10.392 1.529 10.392 1.519-2.575 4.054 4.064-2.565 1.519 10.392 1.529-10.392 4.055 2.565-2.566-4.054Z" fill="#fff" opacity=".7"/><path d="m62.222 393.235 5.2-.765-5.2-.764 1.287-2.022-2.032 1.277-.764-5.19-.755 5.19-2.032-1.277 1.278 2.022-5.191.764 5.19.765-1.277 2.022 2.032-1.278.755 5.191.764-5.191 2.032 1.278-1.287-2.022Z" fill="#407BFF"/><path d="m62.222 393.235 5.2-.765-5.2-.764 1.287-2.022-2.032 1.277-.764-5.19-.755 5.19-2.032-1.277 1.278 2.022-5.191.764 5.19.765-1.277 2.022 2.032-1.278.755 5.191.764-5.191 2.032 1.278-1.287-2.022Z" fill="#fff" opacity=".7"/><path d="m155.305 342.815 8.833-1.288-8.833-1.298 2.183-3.45-3.45 2.183-1.288-8.823-1.298 8.823-3.45-2.183 2.183 3.45-8.823 1.298 8.823 1.288-2.183 3.45 3.45-2.183 1.298 8.833 1.288-8.833 3.45 2.183-2.183-3.45Z" fill="#407BFF"/><path d="m155.305 342.815 8.833-1.288-8.833-1.298 2.183-3.45-3.45 2.183-1.288-8.823-1.298 8.823-3.45-2.183 2.183 3.45-8.823 1.298 8.823 1.288-2.183 3.45 3.45-2.183 1.298 8.833 1.288-8.833 3.45 2.183-2.183-3.45Z" fill="#fff" opacity=".7"/><path d="m328.932 324.525 8.541-1.257-8.541-1.248 2.113-3.34-3.34 2.113-1.248-8.541-1.257 8.541-3.34-2.113 2.113 3.34-8.541 1.248 8.541 1.257-2.113 3.34 3.34-2.113 1.257 8.541 1.248-8.541 3.34 2.113-2.113-3.34Z" fill="#407BFF"/><path d="m328.932 324.525 8.541-1.257-8.541-1.248 2.113-3.34-3.34 2.113-1.248-8.541-1.257 8.541-3.34-2.113 2.113 3.34-8.541 1.248 8.541 1.257-2.113 3.34 3.34-2.113 1.257 8.541 1.248-8.541 3.34 2.113-2.113-3.34Z" fill="#fff" opacity=".7"/><path d="m411.464 260.273 7.042-1.026-7.042-1.036 1.74-2.747-2.746 1.741-1.036-7.042-1.026 7.042-2.757-1.741 1.741 2.747-7.032 1.036 7.032 1.026-1.741 2.756 2.757-1.74 1.026 7.032 1.036-7.032 2.746 1.74-1.74-2.756Z" fill="#407BFF"/><path d="m411.464 260.273 7.042-1.026-7.042-1.036 1.74-2.747-2.746 1.741-1.036-7.042-1.026 7.042-2.757-1.741 1.741 2.747-7.032 1.036 7.032 1.026-1.741 2.756 2.757-1.74 1.026 7.032 1.036-7.032 2.746 1.74-1.74-2.756Z" fill="#fff" opacity=".7"/><path d="m438.947 395.106 10.392-1.519-10.392-1.519 2.575-4.064-4.064 2.575-1.519-10.391-1.519 10.391-4.064-2.575 2.575 4.064-10.392 1.519 10.392 1.519-2.575 4.065 4.064-2.566 1.519 10.382 1.519-10.382 4.064 2.566-2.575-4.065Z" fill="#407BFF"/><path d="m438.947 395.106 10.392-1.519-10.392-1.519 2.575-4.064-4.064 2.575-1.519-10.391-1.519 10.391-4.064-2.575 2.575 4.064-10.392 1.519 10.392 1.519-2.575 4.065 4.064-2.566 1.519 10.382 1.519-10.382 4.064 2.566-2.575-4.065Z" fill="#fff" opacity=".7"/><path d="m224.139 396.072 10.392-1.519-10.392-1.529 2.575-4.054-4.064 2.565-1.519-10.392-1.529 10.392-4.055-2.565 2.566 4.054-10.392 1.529 10.392 1.519-2.566 4.054 4.055-2.565 1.529 10.392 1.519-10.392 4.064 2.565-2.575-4.054Z" fill="#407BFF"/><path d="m224.139 396.072 10.392-1.519-10.392-1.529 2.575-4.054-4.064 2.565-1.519-10.392-1.529 10.392-4.055-2.565 2.566 4.054-10.392 1.529 10.392 1.519-2.566 4.054 4.055-2.565 1.529 10.392 1.519-10.392 4.064 2.565-2.575-4.054Z" fill="#fff" opacity=".7"/></svg>