<svg xmlns="http://www.w3.org/2000/svg" width="562" height="562" fill="none" xmlns:v="https://vecta.io/nano"><style><![CDATA[.B{fill:#fff}.C{opacity:.2}.D{fill:#263238}.E{opacity:.7}.F{fill:#407bff}.G{fill:#e4897b}.H{opacity:.6}]]></style><use href="#B" class="F"/><use href="#B" opacity=".9" class="B"/><path d="M280.999 480.577c120.36 0 217.932-5.696 217.932-12.723s-97.572-12.724-217.932-12.724-217.933 5.696-217.933 12.724 97.572 12.723 217.933 12.723z" fill="#f5f5f5"/><path d="M158.351 217.415c-36.35 6.261-64.742 17.501-63.439 25.133l.618 3.529c1.304 7.587 31.843 8.655 68.181 2.361s64.754-17.535 63.439-25.122l-.607-3.529c-1.315-7.598-31.843-8.655-68.193-2.372z" class="F"/><path d="M163.713 248.436c36.347-6.285 64.748-17.533 63.435-25.124s-31.841-8.65-68.188-2.366-64.747 17.533-63.435 25.125 31.841 8.65 68.188 2.365z" class="B C"/><path d="M160.261 228.453c-32.596 5.62-57.976 15.736-56.796 22.48l1.012 5.878c1.124 6.8 28.516 7.745 61.056 2.113s57.976-15.736 56.795-22.48l-1.011-5.867c-1.18-6.8-28.516-7.756-61.056-2.124z" class="F"/><path d="M165.525 258.946c32.542-5.627 57.97-15.698 56.795-22.494s-28.508-7.743-61.05-2.116-57.97 15.697-56.795 22.493 28.508 7.744 61.05 2.117z" class="B C"/><use href="#C" class="F"/><use href="#C" opacity=".8" class="B"/><path d="M235.659 367.739c.517 5.271-92.977 23.469-99.193 15.387-.628-.899-1.02-1.94-1.142-3.03a6.56 6.56 0 0 1 .445-3.208 17.84 17.84 0 0 1 2.788-5.182c2.889-3.911 9.262-5.62 13.578-7.193 2.911-1.068 5.845-2.046 8.778-3.058 3.147-1.124 6.385-.337 9.116-2.731 1.641-1.427 2.866-3.552 4.968-4.069 1.562-.382 3.237.236 4.777-.18 2.001-.539 3.428-2.697 5.496-2.731 1.026.123 2.034.369 3.001.731 1.799.382 3.642-.214 5.485-.382a23.05 23.05 0 0 1 5.418.393 165.03 165.03 0 0 0 16.86 2.327c4.17.224 8.79.123 12.859 1.27a7.75 7.75 0 0 1 4.136 3.642c1.45 2.448 2.348 5.183 2.63 8.014z" class="D"/><path d="M233.063 359.68c-2.586-2.338-7.363-2.181-8.734-2.08s-1.855-1.068-2.889-1.45-7.148.405-7.148.405 2.248.438 2.72 1.18 3.035-.112 3.372-.214c-.349.203-3.473 1.844-4.946.855s-2.079.854-3.248 1.326-4.856 0-5.452-.191c-1.759-.1-3.523-.1-5.282 0a7.51 7.51 0 0 1 3.012-1.124c.989.112 4.934-1.967 4.125-1.821s-2.653-.933-4.091-1.382a19.18 19.18 0 0 0-5.216.337c1.747-.027 3.487.216 5.159.719a24.45 24.45 0 0 0-3.372 1.068 11.01 11.01 0 0 1-3.102.528c-.848.309-1.579.875-2.09 1.619a32.19 32.19 0 0 1-3.901.674c-1.295.115-2.599-.038-3.833-.449l3.552-1.124-1.214-.349a14.14 14.14 0 0 0-2.562-.596c-1.428-.236-2.035 1.124-2.383 1.45s-3.473 0-4.35-.213-7.362 2.416-7.362 2.416l4.057-.697c1.053.448 2.174.711 3.316.776 2.709.36 3.102-.539 4.238-.461s4.9 1.124 4.9 1.124l-1.461.394a14.15 14.15 0 0 1-3.889 0c-2.248-.304-3.462.876-4.136 1a34.6 34.6 0 0 1-5.272.764c-.73-.157-2.652.742-3.709 1.821a4.62 4.62 0 0 1-2.18 1.219c-.825.198-1.688.165-2.496-.095-2.046-.528-5.496 1.967-5.496 1.967s1.809-2.394 2.754-2.563c1.466-.573 2.877-1.281 4.215-2.113a8.01 8.01 0 0 0-1.507.124 3.82 3.82 0 0 1-1.49-.174c-.481-.156-.926-.407-1.308-.736-1.124-.776-2.248-.169-3.901.674s-3.428 1.843-5.17.618-7.081 3.305-7.081 3.305a20.13 20.13 0 0 0 3.54-1.214c.495-.405.843 0 2.417.326s2.091-.776 2.866-1.192 3.102.281 3.102.281c-.549.261-1.158.373-1.764.326-.855-.135-2.248 2.327-2.698 2.057s-3.72.158-5.125.888-3.474 3.17-5.553 2.417c-1.765-.641-5.744 4.765-9.239 4.833a17.85 17.85 0 0 1 2.787-5.182c2.889-3.911 9.262-5.62 13.578-7.193 2.911-1.068 5.845-2.046 8.779-3.058 3.147-1.124 6.384-.337 9.115-2.731 1.641-1.427 2.867-3.552 4.968-4.069 1.563-.382 3.238.236 4.777-.18 2.001-.539 3.429-2.697 5.497-2.731 1.026.123 2.033.369 3.001.731 1.798.382 3.642-.214 5.485-.383a23.11 23.11 0 0 1 5.418.394 164.99 164.99 0 0 0 16.86 2.327c4.17.224 8.789.123 12.858 1.27a7.76 7.76 0 0 1 4.182 3.552z" class="B C"/><g class="F"><path d="M184.111 366.423c-32.596 5.62-57.976 15.736-56.807 22.48l1.023 5.879c1.124 6.744 28.505 7.744 61.056 2.113s57.976-15.736 56.796-22.48l-1.012-5.867c-1.18-6.857-28.516-7.812-61.056-2.125z"/><path d="M185.922 376.877c-36.339 6.283-64.742 17.534-63.427 25.132l.607 3.518c1.315 7.599 31.843 8.655 68.193 2.372s64.742-17.534 63.427-25.133l-.607-3.518c-1.315-7.598-31.842-8.654-68.193-2.371z"/></g><g class="B"><path d="M130.049 410.26l1.124.281a6.81 6.81 0 0 0-1.124-.281zm55.873-33.383c-36.339 6.283-64.742 17.534-63.427 25.132l.607 3.519c-1.315-7.632 27.088-18.872 63.484-25.122s66.866-5.227 68.181 2.36l-.607-3.518c-1.36-7.598-31.887-8.654-68.238-2.371z" class="C"/></g><path d="M180.369 308.29c-.708 5.62-2.765 14.129-3.687 19.805s1.844 14.477 2.664 17.141 6.362 2.248 6.137 4.372 8.273 2.484 8.273 2.484-39.812 15.736-43.836 14.736 7.463-8.857 9.666-9.374 3.372-1.877 4.856-5.024 3.012-2.586 4.564-5.744a71.44 71.44 0 0 0 3.731-7.295c1.765-4.383 3.294-17.86 1.439-18.995s-.169 10.329-1.765 10.711 2.08-11.33-2.765-17.242 10.723-5.575 10.723-5.575z" class="D"/><path d="M193.745 352.093s-39.801 15.736-43.836 14.735c-3.675-.91 5.721-7.643 8.992-9.115.214 2.315 6.452-.056 8.925-1.428s2.664-.371 3.574-.775 7.812-5.553 7.093-5.339-5.856 4.001-7.093 2.765-3.282 1.124-4.811 1.843c-1.326.641-1.663-.135-2.765-1.124.214-.393.416-.82.63-1.27 1.45-3.147 3.001-2.585 4.496-5.744a68.35 68.35 0 0 0 3.81-7.193c1.776-4.384 3.305-17.861 1.461-18.996s-.179 10.33-1.764 10.701 2.057-11.319-2.777-17.231 10.69-5.62 10.69-5.62c-.708 5.62-2.765 14.128-3.687 19.805-.607 3.72.371 8.778 1.349 12.577-.259.922-.618 1.765-1.046 1.9-1.022.303-1.742 3.799-3.079 3.9s-.214 2.563 1.641 1.54c1.225-.675 3.158-1.124 4.496-1.709 1.731 1.54 5.62 1.518 5.417 3.305-.191 2.124 8.284 2.473 8.284 2.473z" class="B C"/><path d="M201.962 282.596l-.472.776-5.081 8.07c-1.775 2.768-3.819 5.355-6.103 7.722-2.158 2.079-4.361 3.057-5.62 5.541a8.66 8.66 0 0 0-.731 1.945c-.472 1.877-.618 4.136-2.248 5.192-.392.2-.767.429-1.124.686-.82.708-.775 1.945-.989 3.001s-1.236 2.248-2.248 1.731-1.056-1.81-1.967-1.765c-.227.049-.45.121-.663.214-.922.236-1.776-.483-2.484-1.124s-1.72-1.225-2.529-.731c-2.45-2.249-5.142-4.22-8.025-5.878l-7.318-4.058c-5.62-3.057-12.139-6.069-16.073-9.172-1.277-.929-2.345-2.116-3.136-3.484a4.48 4.48 0 0 1-.449-1.45c-.652-5.553 16.534-7.205 22.48-11.341s15.23-1.484 19.108-2.349 8.295.359 12.42.056 6.665-1.495 9.071.258 5.069 1.226 5.62 2.563c.269.877-.742 2.495-1.439 3.597z" class="D"/><path d="M196.702 280.842c-3.552-.686 3.698-.821 3.147-1.237s-2.327-1.764-6.283-1.63-7.261-.134-8.104 0 2.753 1.226 2.753 1.226h-9.273c-3.012 0 2.057-1.226 2.057-1.226h-15.612c.416 0 3.428 1.776 1.641 1.776s-3.698.956-6.159 1.911c-1.954.791-3.964 1.434-6.014 1.922-.405 0 5.62-4.496 5.991-4.788l-7.497 2.866-8.363 2.743c1.052.068 2.107.068 3.159 0 0 0-4.249 2.192-6.429 2.461-1.641.203-5.62 1.551-6.587 4.406a11.31 11.31 0 0 0 3.136 3.485c3.934 3.102 10.431 6.114 16.073 9.172 2.552 1.371 4.979 2.641 7.317 4.057a45.17 45.17 0 0 1 8.026 5.879c.809-.495 1.832.112 2.529.73s1.562 1.349 2.484 1.124c.213-.093.435-.164.663-.213.91 0 1.124 1.349 1.967 1.764s1.967-.674 2.248-1.73.168-2.248.989-3.002c.356-.257.732-.486 1.124-.685 1.641-1.057 1.787-3.316 2.248-5.193a8.68 8.68 0 0 1 .731-1.945c1.292-2.484 3.495-3.461 5.62-5.541a49.97 49.97 0 0 0 6.103-7.722 95.06 95.06 0 0 0 5.08-8.07c-1.236-2.147-1.18-1.855-4.765-2.54zm-50.839 14.51c-1.191-.134 2.664-1.337 2.664-1.337a2.9 2.9 0 0 1-1.136 1.033c-.465.235-.985.341-1.505.304h-.023zm.719-4.619s1.945-1.54 2.766-1.439a17.37 17.37 0 0 0 2.371 0s-3.057 2.057-5.114 1.439h-.023zm15.5 12.015c-1.405-.269 1.484-1.124 2.181-.933s-.517 1.237-2.158.933h-.023zm6.936-15.736s-5.958 1.754-4.755 1.754h2.248c-.416 0-6.575 1.337-6.879 1.281a29.06 29.06 0 0 1 3.664-2.068s-.438-.551-.416-.753 1.394-.618 1.394-.618c.484-.416 2.642-1.023 3.462-.517a7.87 7.87 0 0 0 2.979.517l-1.697.404zm2.506 12.218c-1.663-1.517 3.271 0 3.271 0s-2.124 1.046-3.248.023l-.023-.023zm2.698-16.298c2.248-1.54 2.81 0 2.81 0s-3.541.495-2.81 0zm7.789 5.957l-1.731-.887c.723-.437 1.525-.728 2.36-.855 1.123-.046 2.233.252 3.181.855.607.37-3.214 1.191-3.821.865l.011.022zm4.429 7.554s-2.766-.068-3.035 0a23.44 23.44 0 0 1 3.035-1.068v1.068zm4.293-11.117s1.967-.427 2.889.596c1.236 1.371-2.9-.596-2.9-.596h.011z" class="B C"/><path d="M359.164 443.845l9.059 2.731h49.535l1.124-19.85-9.61-4.102s1.787-15.343 4.653-31.787l6.575-.202 13.96-55.076-7.935-3.429 5.744-18.242h8.621l9.194-25.582s-33.079-13.162-52.727-14.905l-17.647 2.956-1.225 22.975-14.376 1.9-2.821 24.728 10.217 1.753-6.575 52.603-14.758 4.148-2.574 36.226 12.847 2.642-1.281 20.513z" class="F"/><g class="B"><path d="M432.28 313.9l-5.755 18.242 7.935 3.428-13.971 55.076-6.564.203c-2.878 16.444-4.653 31.786-4.653 31.786l9.587 4.103-1.124 19.861h-49.523l-9.06-2.731 1.304-20.491-12.858-2.63 2.506-35.339.068-.887 14.769-4.148 6.564-52.603-10.217-1.81 2.889-24.728 14.364-1.899 1.237-22.975 17.635-2.967c19.693 1.753 52.727 14.915 52.727 14.915l-9.194 25.594h-8.666z" class="H"/><path opacity=".4" d="M418.86 426.715l-49.006 1.372-9.397-4.732 10.768 2 38.047-2.742 9.588 4.102zm-4.936-35.889l-35.439.112-28.381-5.552.067-.888 14.769-4.148 15.601 9.352 33.383 1.124z"/></g><g fill="#000"><path d="M426.524 332.142L382.8 327.86l-11.296-.113-10.217-1.753 20.884-2.394 44.353 8.542zm14.365-18.242h-8.621l-34.496-15.759-19.288 1.192 20.345-2.63 42.06 17.197z" class="C"/></g><g class="B"><path d="M397.356 273.391l1.473 23.311-20.345 2.631 1.226-22.964 17.646-2.978zM382.171 323.6l5.62-24.267-23.671 1.899-2.833 24.762 20.884-2.394zm-10.665 4.147l21.412 1.102-12.375 60.853-15.602-9.352 6.565-52.603zm-21.402 57.639l28.381 5.552-5.732 34.305-25.155-4.519 2.506-35.338zm19.749 42.701l-1.641 18.49-9.06-2.732 1.304-20.479 9.397 4.721z" class="C"/></g><g class="F"><use href="#D"/><use href="#E"/><use href="#F"/><use href="#G"/><use href="#H"/><use href="#I"/><use href="#J"/><use href="#K"/><use href="#L"/><use href="#M"/><use href="#N"/><use href="#O"/><use href="#P"/><use href="#Q"/></g><g class="B"><use href="#D" class="E"/><use href="#E" class="E"/><use href="#F" class="E"/><use href="#G" class="E"/><use href="#H" class="E"/><use href="#I" class="E"/><use href="#J" class="E"/><use href="#K" class="E"/><use href="#L" class="E"/><use href="#M" class="E"/><use href="#N" class="E"/><use href="#O" class="E"/><use href="#P" class="E"/><use href="#Q" class="E"/></g><path opacity=".1" d="M377.451 340.224l12.207 3.08 34.304 3.282-34.304-1.675-12.207-4.687zm-4.002-9.037l19.468.955 36.474 6.238-37.609-3.9-18.333-3.293zm-5.226-10.881l15.275-2.405 38.71 8.981-39.036-7.599-14.949 1.023zm3.687-7.643l12.881-.371 39.172 10.094-39.543-8.487-12.51-1.236zm-8.262-7.362l19.558-2.237-19.558 3.698v-1.461zm-.607 5.339h6.811l-6.811 1.652v-1.652zm16.355-28.426l18.322-3.17 24.492 8.835-24.268-6.778-18.546 2.36v-1.247zm63.156 27.043l-27.943-8.722 27.156 10.925.787-2.203zm-48.646-24.873l4.092-.922 44.555 14.353-44.364-12.881-4.283-.55zm55.448 5.957l-15.983-5.688 15.118 7.126.865-1.438zm-79.5 62.606l17.096 5.227 38.755 3.125-39.115-1.316-16.736-7.036zm-3.688 16.152l17.208 6.643 38.835.888h-39.014l-17.029-7.531zm48.995 17.928l-33.147-3.687-13.791-5.62 13.195 7.666 33.743 1.641zm11.533-20.828c-.315-.112-26.729-.798-26.729-.798l26.313 2.439.416-1.641zm-77.085 21.795l28.336 6.182h19.828l-20.041 1.214-27.628-5.688-.495-1.708zm62.45 14.241c0 .056-27.549 3.08-27.549 3.08l27.313-1.54.236-1.54zm-56.571-1.934c-.371-.179 17.108 3.474 17.108 3.474s-10.881-.36-17.108-3.474zm-6.968 7.464l24.076 5.799-24.076-3.945v-1.854zm4.505 8.621l20.423 4.653 30.438-.618-30.438 2.192-20.423-6.227zm27.653-5.721h21.345l-17.524.865-3.821-.865zm-17.625 17.422l6.564 2.866h34.282c-.63.281-34.417 1.518-34.417 1.518l-6.429-4.384zm50.872 9.037l-31.91.82h26.976l4.934-.82zm4.935-6.845s-5.35-.54-4.935 0 4.665 1.248 4.665 1.248l.27-1.248zm-55.819 10.172l5.62 1.169 30.179 2.225-30.314-.719-5.485-2.675z" fill="#000"/><path d="M305.177 206.276c7.239 3.215 20.862 2.776 26.088-8.677s4.856-21.278-6.968-26.785-26.729 1.517-27.999 11.937-2.54 18.445 8.879 23.525z" class="D"/><path d="M165.744 425.557c.779-1.097 1.35-2.328 1.686-3.631 0 0 3.563-4.068 14.871-6.631l1-5.092a4.3 4.3 0 0 0-.321-2.576c-.37-.805-.981-1.475-1.747-1.92a2.46 2.46 0 0 0-.686-.27c-1.239-.185-2.49-.286-3.743-.303a103.91 103.91 0 0 0-12.555.719l.057.899 7.868-.134c2.686 0-.326 2.248-3.17 2.978s-5.834 2.248-5.62 8.082c.348 6.901.787 9.722 2.36 7.879z" fill="#2e353a"/><path d="M185.223 414.891s-14.522 3.855-17.793 7.036c0 0-2-5.474 5.485-9.363 9.689-5.024 7.632-7.081 7.632-7.081a23.97 23.97 0 0 1 4.148 1.607c2.54 1.506.528 7.801.528 7.801z" class="G"/><path d="M391.466 460.615c-1.348-.022-2.689.203-3.956.663 0 0-5.362-.629-13.882-8.52l-4.754 2.068c-.792.367-1.452.967-1.89 1.722s-.634 1.624-.561 2.493a2.27 2.27 0 0 0 .146.72c.554 1.127 1.181 2.215 1.878 3.259a103.6 103.6 0 0 0 7.688 9.948l.719-.551-4.586-6.452c-1.54-2.191 2.012-.978 4.249.933s5.114 3.563 9.835.056c5.44-4.113 7.519-6.114 5.114-6.339z" fill="#2e353a"/><path d="M371.65 450.589s11.386 9.801 15.86 10.689c0 0-3.372 4.743-10.813.764-9.622-5.147-10.172-2.248-10.172-2.248-.472-1.411-.811-2.864-1.012-4.338-.213-2.979 6.137-4.867 6.137-4.867z" class="G"/><use href="#R" class="D"/><use href="#R" class="B C"/><use href="#S" class="D"/><use href="#S" opacity=".1" class="B"/><path d="M347.922 251.607l8.486-4.62 4.001-9.509a45.77 45.77 0 0 1 4.89 1.99c.562.438-1.799 8.295-2.394 8.789s-3.968.888-3.968.888l-8.082 5.114-2.933-2.652z" class="G"/><use href="#T" class="F"/><use href="#T" class="B H"/><g class="D"><use href="#U"/><use href="#V"/></g><g class="B"><use href="#U" opacity=".3"/><use href="#V" opacity=".3"/></g><g class="D"><use href="#W"/><use href="#X"/></g><g class="B"><use href="#W" class="C"/><use href="#X" class="C"/></g><use href="#Y" class="D"/><use href="#Y" fill="#000" class="C"/><g class="D"><path d="M328.207 359.736c-3.799-8.318-36.53-60.168-36.53-60.168l-32.169 5.441c10.374 30.426 47.309 61.505 53.57 69.575s52.771 80.006 52.771 80.006l5.722-4.046-43.364-90.808z"/><path d="M268.309 263.454l42.33 2.754-.776 4.856s-4.496 21.771-22.356 33.315l-27.999.629s-3.271-17.748 7.756-38.317l1.045-3.237z"/></g><path d="M283.101 264.859l-13.96-.82-1.057 3.248 14.702 1.101.315-3.529zm1.755.101l-.315 3.564 24.47 1.843.224-3.968-24.379-1.439z" fill="#000"/><g class="B"><path d="M302.355 271.064h-.079l-4.496-.259a1.35 1.35 0 0 1-.91-.438 1.31 1.31 0 0 1-.259-.445c-.056-.164-.079-.338-.067-.511l.191-3.023a1.31 1.31 0 0 1 .44-.908c.13-.115.281-.203.444-.259a1.32 1.32 0 0 1 .51-.07l4.496.27c.174.006.344.049.501.124s.296.183.409.315a1.26 1.26 0 0 1 .261.444c.056.164.079.338.065.511l-.168 2.979c-.025.334-.174.647-.417.877s-.563.363-.898.37l-.023.023zm-4.294-4.766a.19.19 0 0 0-.131.052c-.035.033-.057.079-.06.128l-.179 2.99a.22.22 0 0 0 .06.134c.035.037.081.061.131.068l4.496.27c.049-.005.094-.027.129-.062s.057-.08.062-.129l.168-2.979c.011-.023.016-.048.016-.073s-.005-.05-.016-.073c-.036-.036-.084-.06-.135-.068l-4.496-.258h-.045z"/><path d="M303.074 268.849l-1.697-.101c-.074-.004-.146-.023-.213-.055s-.126-.078-.175-.133a.56.56 0 0 1-.111-.19c-.024-.07-.034-.144-.029-.218a.56.56 0 0 1 .055-.212c.032-.067.078-.126.133-.175s.12-.087.19-.111.144-.034.217-.03l1.686.101a.56.56 0 0 1 .213.056c.067.032.126.077.175.132a.57.57 0 0 1 .111.19c.024.07.034.144.03.218a.56.56 0 0 1-.052.212c-.031.066-.075.126-.129.175a.55.55 0 0 1-.188.111c-.069.025-.142.035-.216.03z"/></g><path d="M304.604 240.536l11.565-5.935a11.72 11.72 0 0 1 2.99-3.046c1.237-.573 12.14 1.124 12.14 1.124l-4.081 8.621s-8.07-.461-8.924-1.124l-10.577 5.62-3.113-5.26z" class="G"/><use href="#Z" class="D"/><g class="B"><use href="#Z" class="C"/><path d="M313.315 242.626c-.022.099-.08.185-.164.242a.4.4 0 0 1-.286.062.39.39 0 0 1-.138-.057c-.042-.028-.079-.063-.107-.105a.39.39 0 0 1-.058-.138.38.38 0 0 1 0-.15c.008-.05.026-.098.053-.141a.38.38 0 0 1 .106-.109.39.39 0 0 1 .14-.057c.05-.009.101-.008.151.003.098.022.185.081.241.165s.079.185.062.285zm-2.699 1.664c-.009.05-.029.097-.056.139a.37.37 0 0 1-.106.106.36.36 0 0 1-.138.058.4.4 0 0 1-.15.001c-.098-.022-.185-.081-.241-.165s-.079-.185-.062-.285.078-.188.162-.245a.38.38 0 0 1 .287-.058c.1.019.188.077.245.161s.078.188.059.288z" class="H"/></g><path d="M369.154 222.192l-14.286 37.025c-.184.42-.51.762-.921.968a1.97 1.97 0 0 1-1.327.156l-26.155-6.508c-.208-.048-.403-.14-.572-.271s-.306-.296-.405-.485a1.48 1.48 0 0 1-.164-.611 1.46 1.46 0 0 1 .107-.623l14.274-37.024a1.98 1.98 0 0 1 2.248-1.124l26.156 6.519a1.46 1.46 0 0 1 .574.264 1.45 1.45 0 0 1 .409.482c.1.188.157.396.168.609a1.46 1.46 0 0 1-.106.623z" class="D"/><g class="B"><path opacity=".3" d="M369.155 222.192l-14.286 37.024c-.185.421-.511.763-.921.968s-.88.261-1.327.156l-24.964-6.215a1.46 1.46 0 0 1-.578-.265 1.44 1.44 0 0 1-.41-.485c-.099-.191-.154-.401-.162-.615s.031-.428.116-.625l14.275-37.024a1.96 1.96 0 0 1 2.248-1.124l24.975 6.215c.209.046.405.138.575.268s.308.296.407.485.154.399.163.613a1.47 1.47 0 0 1-.111.624z"/><path opacity=".3" d="M349.092 234.669c-.649-.146-1.329-.058-1.919.248s-1.053.812-1.307 1.427a2.07 2.07 0 0 0-.161.886 2.09 2.09 0 0 0 .226.872c.138.27.334.508.573.695s.516.321.812.39c.649.148 1.329.061 1.92-.245s1.053-.814 1.306-1.43a2.07 2.07 0 0 1-.816-.386 2.08 2.08 0 0 1-.574-.696 2.07 2.07 0 0 1-.226-.874 2.08 2.08 0 0 1 .166-.887z"/></g><use href="#a" class="F"/><use href="#a" opacity=".5" class="B"/><g class="G"><path d="M297.725 211.368c8.081.619 12.274 6.205 11.24 10.78l-5.024.696-4.047 11.016-1.596-12.241-5.069-3.226s-3.237-7.632 4.496-7.025z"/><path d="M300.703 223.417c-7.711-6.081-6.811-10.846-6.811-10.846 3.787-2.091 6.305-6.61 7.216-10.116a20.31 20.31 0 0 0 .607-3.372l8.935 7.868a34.6 34.6 0 0 0-2.933 4.001c-.661 1.025-1.193 2.127-1.585 3.282-1.124 3.372.573 4.496.573 4.496-.225 4.44-6.002 4.687-6.002 4.687z"/></g><path d="M307.537 210.401a14.44 14.44 0 0 0-1.124 3.462c-4.024-2.439-5.766-7.261-6.497-11.116.153-1.118.213-2.245.18-3.372l9.857 6.744a34.18 34.18 0 0 0-2.416 4.282z" fill="#000" class="C"/><path d="M321.856 180.402c9.195 4.44 9.779 10.79 5.879 20.58-4.878 12.252-11.566 19.389-21.84 11.308-13.948-10.971.697-39.262 15.961-31.888z" class="G"/><path d="M322.038 197.599c.071 1.728.35 3.442.832 5.103-.451.251-.963.372-1.479.35s-1.015-.185-1.444-.474l2.091-4.979z" fill="#de5753"/><g class="D"><path d="M316.776 194.137c-.349.764-1.046 1.192-1.551.955s-.641-1.034-.293-1.798 1.034-1.191 1.551-.967.641 1.001.293 1.81z"/><use href="#b"/><path d="M326.34 198.285c-.348.764-1.045 1.202-1.551.966s-.641-1.034-.292-1.798 1.034-1.203 1.551-.967.641 1.034.292 1.799z"/><use href="#b" x="9.564" y="4.159"/><path d="M319.385 189.146c-.069-.001-.137-.02-.196-.056s-.108-.086-.141-.146c-.386-.638-.911-1.181-1.535-1.588a4.94 4.94 0 0 0-2.074-.761c-.052 0-.103-.011-.151-.031a.39.39 0 0 1-.127-.089c-.036-.038-.063-.083-.081-.132a.38.38 0 0 1-.023-.153.4.4 0 0 1 .119-.282c.038-.037.083-.066.132-.085s.101-.028.154-.026c2.653.067 4.204 2.641 4.271 2.742.053.093.068.202.04.306s-.094.191-.186.245c-.062.036-.131.055-.202.056zm11.07 3.227h-.168c-.574-.32-1.212-.506-1.868-.547s-1.311.065-1.92.31a.39.39 0 0 1-.148.048c-.052.006-.105.002-.155-.013a.39.39 0 0 1-.138-.072c-.041-.033-.074-.074-.099-.12a.43.43 0 0 1-.052-.148c-.007-.053-.002-.105.013-.156a.39.39 0 0 1 .073-.138.37.37 0 0 1 .124-.097c.716-.307 1.493-.447 2.272-.41a5.16 5.16 0 0 1 2.224.623c.094.046.166.127.202.226a.41.41 0 0 1-.011.302c-.036.06-.088.11-.149.143a.41.41 0 0 1-.2.049z"/><path d="M304.333 191.079s7.946-5.473 10.116-11.622c0 0 21.816 1.36 13.78 20.232 0 0 9.711-15.556-5.912-23.604s-26.707 15.208-21.907 26.032c0 0-1.023-7.666 3.923-11.038z"/></g><path d="M304.895 193.698c.419-1.106.385-2.333-.095-3.415a4.5 4.5 0 0 0-2.468-2.362c-3.001-1.068-7.182 4.125-.775 8.992.921.652 1.978-.056 3.338-3.215z" class="G"/><g class="D"><path d="M314.035 171.342s6.935-1.551 11.375.652 4.743 5.508 4.743 5.508a6.52 6.52 0 0 1 3.081.184c.998.307 1.907.849 2.652 1.581 2.765 2.551 4.394 9.891 1.461 17.748s-9.779 6.744-9.779 6.744 8.925-11.656-.584-19.232c0 0-3.114-3.732-6.744-1.473s-6.216 11.69-14.208 5.553 1.113-15.455 8.003-17.265zm3.764 35.328c-.096-.002-.189-.038-.261-.102s-.119-.151-.132-.247c-.18-1.427-2.574-3.046-3.485-3.54a.42.42 0 0 1-.157-.551c.026-.045.06-.085.101-.117a.4.4 0 0 1 .292-.079.4.4 0 0 1 .147.05c.146.079 3.619 2.023 3.889 4.136.013.104-.015.209-.078.293s-.156.14-.26.157h-.056z"/><path d="M314.718 172.815s-4.822-16.006-15.297-11.398-15.568 16.175-24.043 9.431-12.364 2-16.477 4.664-11.398-1.337-9.453-4.664c0 0-5.339 4.08 4.125 8.374s14.106-4.676 17.118-1.282 13.679 10.15 19.299 5.272c1.58-1.393 3.507-2.331 5.578-2.715s4.206-.199 6.179.534l12.971-8.216z"/><path d="M286.406 187.707a6 6 0 0 1-2.124-.393 59.97 59.97 0 0 1-5.924-2.731c-4.181-2.114-8.137-4.114-10.34-2.372-.053.051-.124.08-.197.08s-.144-.029-.197-.08a.27.27 0 0 1-.063-.09c-.014-.033-.022-.07-.022-.107a.28.28 0 0 1 .022-.107c.015-.034.036-.064.063-.089 2.484-1.956 6.598.123 10.937 2.315 1.909 1.012 3.871 1.92 5.878 2.72 3.664 1.36 7.149-1.574 10.229-4.17 2.248-1.866 4.293-3.619 6.249-3.675a.27.27 0 0 1 .109.017c.034.012.066.032.093.057s.049.055.065.089.024.069.025.106c0 .076-.029.149-.081.203s-.124.087-.2.09c-1.753.056-3.765 1.742-5.889 3.54-2.574 2.102-5.486 4.597-8.633 4.597zm-29.572-14.06c-.711-.001-1.401-.234-1.967-.664a.26.26 0 0 1-.08-.078c-.021-.031-.035-.066-.041-.103s-.005-.075.004-.112.026-.07.049-.1a.28.28 0 0 1 .178-.11c.071-.013.144.003.204.043 2.428 1.719 5.014-.866 7.531-3.372 1.776-1.776 3.451-3.451 5.092-3.653s3.687.876 6.115 2.248c3.732 2.439 7.951 4.034 12.364 4.675.074.008.143.045.19.103a.28.28 0 0 1-.247.459c-4.502-.65-8.809-2.273-12.622-4.754-2.327-1.36-4.17-2.428-5.755-2.248s-3.057 1.787-4.766 3.496c-1.933 2.023-4.091 4.17-6.249 4.17zm54.603 19.861c-1.208-.05-2.384-.393-3.429-1.001a.28.28 0 0 1-.082-.075c-.022-.031-.038-.066-.046-.102a.3.3 0 0 1-.003-.112c.006-.037.021-.073.041-.104s.045-.058.075-.078.064-.036.1-.043.072-.008.108 0a.26.26 0 0 1 .1.042c.168.101 4.046 2.473 6.204-.787 5.553-8.441 7.542-10.509 10.925-9.048.035.014.067.034.094.061s.048.058.061.092.02.073.019.11a.27.27 0 0 1-.028.108c-.031.067-.087.119-.156.146s-.146.027-.214 0c-2.855-1.236-4.575.248-10.24 8.846-.366.605-.885 1.103-1.505 1.445a4.04 4.04 0 0 1-2.024.5z"/></g><g class="F"><use href="#c"/><use href="#d"/><use href="#e"/><use href="#f"/><use href="#g"/><use href="#h"/><use href="#i"/></g><g class="B"><use href="#c" class="H"/><use href="#d" class="H"/><use href="#e" class="H"/><use href="#f" opacity=".4"/><use href="#g" opacity=".8"/><use href="#h" opacity=".4"/><use href="#i" opacity=".4"/></g><defs ><path id="B" d="M104.364 130.441c31.382-66.822 142.815-57.381 185.808-10.409s56.987 77.107 95.776 59.572 88.257-12.858 91.1 42.892-42.622 121.673-114.749 141.186-72.127 88.526-167.588 74.588c-52.053-7.587-53.244-63.91-45.893-110.489s-80.85-119.841-44.454-197.34z"/><path id="C" d="M194.24 317.687a10.41 10.41 0 0 1-3.581-3.088c-.941-1.291-1.572-2.781-1.845-4.354a10.43 10.43 0 0 1 .272-4.721c.452-1.531 1.25-2.939 2.332-4.113 13.185-14.353 29.146-37.204 25.099-60.696-.876-5.024-25.11-5.035-54.132 0s-51.85 13.174-50.984 18.198c4.057 23.458 26.762 39.621 44.004 48.714a10.41 10.41 0 0 1 3.581 3.088c.941 1.291 1.572 2.78 1.844 4.354a10.41 10.41 0 0 1-.271 4.72c-.452 1.532-1.25 2.94-2.332 4.114-13.196 14.342-29.157 37.193-25.099 60.696.876 5.035 25.11 5.046 54.132 0s51.85-13.174 51.029-18.176c-4.102-23.491-26.819-39.654-44.049-48.736z"/><path id="D" d="M352.262 393.052l24.919 5.676 29.359-1.293-28.055 6.295-26.223-10.678z"/><path id="E" d="M360.074 429.334l9.172 5.632h22.165l-26.908 2.158-9.015-6.16 4.586-1.63z"/><path id="F" d="M378.934 440.451h39.171l4.518 3.394-43.689-3.394z"/><path id="G" d="M370.887 407.765l-21.941-6.137-3.923 2.102 25.864 4.035z"/><path id="H" d="M377.451 416.386l32.978-2.822 3.496 1.405-36.474 1.417z"/><path id="I" d="M387.791 380.351l35.631-1.282 3.102 2.619-38.733-1.337z"/><path id="J" d="M413.926 372.865l-29.28-3.328-18.074-6.732h-6.115l21.558 9.037 31.911 1.023z"/><path id="K" d="M373.449 346.585l14.781 5.317 46.095 3.72-4.159-3.091-42.375-2.663-14.342-3.283z"/><path id="L" d="M378.485 315.799l-20.536 1.023 5.092 2.461 15.444-3.484z"/><path id="M" d="M369.854 307.381l15.612-2.08 40.239 13.983-40.453-10.465-15.398-1.438z"/><path id="N" d="M419.748 299.333l-24.02-12.971-23.818 7.463 7.025 1.888 19.895-2.866 20.918 6.486z"/><path id="O" d="M412.352 290.34l36.136 14.961h-4.507l-31.629-14.961z"/><path id="P" d="M400.865 279.044l18.063 2.057 28.1 15.601s-36.317-15.803-46.163-17.658z"/><path id="Q" d="M370.472 334.48l8.924 2.248-12.611-1.124 3.687-1.124z"/><path id="R" d="M321.541 223.8c3.709 2.529 9.813 25.975 11.656 27.482s15.478-5.811 15.478-5.811l2.978 6.631s-20.592 12.6-23.424 10.229-12.094-27.741-12.094-27.741l5.406-10.79z"/><path id="S" d="M245.885 246.301l14.016 14.174s42.824 14.612 53.502-.91c0 0-4.653-23.312-16.657-27.302s-50.861 14.038-50.861 14.038z"/><path id="T" d="M273.435 211.559s27.796-.641 48.107 12.24c-2.34 15.892-6.516 31.458-12.443 46.388l-40.756-6.744s4.361-11.611-.472-34.844l5.564-17.04z"/><path id="U" d="M285.495 210.289c5.62 23.873-19.108 45.241-37.98 45.499l-4.878-10.352 20.131-8.396 10.711-25.481 12.016-1.27z"/><path id="V" d="M313.021 218.584s-3.788 33.383.382 40.982c0 0 7.115-13.028 8.722-35.215-2.747-2.343-5.812-4.284-9.104-5.767z"/><path id="W" d="M291.678 210.615s-5.058-2.675-13.409 2.462l5.136 3.642-3.81 4.304a51.26 51.26 0 0 1-5.339 22.301s9.127-9.318 12.206-19.502 1.686-12.51 5.216-13.207z"/><path id="X" d="M308.154 215.133s6.025 1.304 11.24 8.25l-3.214.596 3.124 5.429-7.868 17.535s-.831-13.488-.438-21.626c.071-3.6-.918-7.141-2.844-10.184z"/><path id="Y" d="M308.907 325.049c-6.8 28.033-26.425 65.35-30.258 72.577-2.99 5.687-14.848 7.598-29.224 9.262l-65.079 8.306v-8.745s75.42-17.77 76.645-21.828c1.709-5.743 3.721-33.057 5.519-56.042l.607-7.486.854-10.869.944-12.061 40.24-28.403s8.25 20.232-.248 55.289z"/><path id="Z" d="M273.434 211.559c-10.644 2.765 5.351 41.79 12.364 44.004s29.505-12.937 29.505-12.937l-3.866-6.497s-19.659 7.868-21.457 7.003-9.06-20.48-10.352-23.986-6.194-7.587-6.194-7.587z"/><path id="a" d="M283.652 220.057s1.653-7.441 4.586-8.992 16.939.91 21.806 5.485a19.11 19.11 0 0 1 5.395 11.24l-6.261-2.653-9.497 10.701-7.441-14.972-8.588-.809z"/><path id="b" d="M316.248 192.271l1.956.101s-1.461 1.023-1.956-.101z"/><path id="c" d="M358.557 250.236l22.963-8.992s26.032 15.23 42.577 17.748l-28.617 5.62s-30.966-6.092-36.923-14.376z"/><path id="d" d="M219.461 324.016l17.444-15.736s29.82 4.496 53.087 15.736l-24.301 14.915s-22.907-11.633-46.23-14.915z"/><path id="e" d="M79.613 344.124l22.413-7.733s19.445 20.782 34.945 20.782l-25.695 12.342s-27.391-10.487-31.663-25.391z"/><path id="f" d="M165.601 266.253s29.224-3.372 49.984 12.724l-10.689 13.162s-25.684-10.858-48.164-4.496l8.869-21.39z"/><path id="g" d="M429.424 389.174l28.19 4.811s-24.47 16.275-45.106 19.22L390.264 406s26.818-2.799 39.16-16.826z"/><path id="h" d="M420.479 340.358s27.099-1.461 46.263 6.486l11.499-10.97s-30.09-13.185-49.456-6.598l-8.306 11.082z"/><path id="i" d="M235.242 443.98s13.544-14.263 47.366-17.984l20.501 9.239s-30.584 6.643-44.51 13.106l-23.357-4.361z"/></defs></svg>