<svg xmlns="http://www.w3.org/2000/svg" width="399" height="399" fill="none" xmlns:v="https://vecta.io/nano"><use href="#B" fill="#407bff"/><use href="#B" opacity=".9" fill="#fff"/><g fill="#263238"><path d="M85.674 262.263c-.104 0-.208-.04-.287-.12a.41.41 0 0 1 0-.567l10.486-10.134 10.47-10.119a.41.41 0 0 1 .566 0 .41.41 0 0 1 0 .567L96.44 252.008l-10.478 10.127c-.08.072-.175.112-.279.112l-.008.016zm-6.137 5.466c-.104 0-.207-.04-.287-.12a.41.41 0 0 1 0-.566l3.711-3.615a.41.41 0 0 1 .567 0 .41.41 0 0 1 0 .566l-3.711 3.615c-.08.072-.175.112-.279.112v.008zm-2.402 29.614a.43.43 0 0 1-.279-.112.4.4 0 0 1-.016-.566l40.339-42.167c.152-.159.407-.167.567-.016s.167.407.016.567l-40.339 42.166c-.08.08-.183.12-.287.12v.008zm31.68-10.151a.36.36 0 0 1-.271-.111c-.16-.152-.168-.407-.016-.567l8.068-8.722 8.075-8.73c.152-.16.407-.168.567-.016a.4.4 0 0 1 .016.566l-8.068 8.723-8.076 8.73a.41.41 0 0 1-.287.127h-.008zm18.354-19.902c-.096 0-.191-.032-.263-.104-.168-.143-.184-.399-.032-.566l3.176-3.575c.144-.168.399-.176.567-.032s.183.399.031.566l-3.176 3.575c-.079.088-.191.136-.295.136h-.008z"/><use href="#C"/></g><g opacity=".8"><use href="#C" fill="#fff"/></g><use href="#D" fill="#263238"/><g opacity=".8"><use href="#D" fill="#fff"/></g><use href="#E" fill="#407bff"/><use href="#E" opacity=".3" fill="#000"/><g fill="#407bff"><path d="M261.026 226.304c5.984-35.917-18.281-69.886-54.198-75.87s-69.886 18.28-75.871 54.197 18.281 69.886 54.198 75.871 69.886-18.281 75.871-54.198z"/><use href="#F"/></g><g fill="#fff"><use href="#F" opacity=".7"/><path opacity=".4" d="M218.077 159.071l-79.704 75.052s5.49 13.885 10.486 19.36l85.657-84.732s-7.318-6.536-16.439-9.672v-.008zm24.244 17.835l-89.209 81.317s1.397 2.226 7.829 6.384l88.067-78.571s-1.021-3.177-6.687-9.138v.008z"/></g><g fill="#263238"><path d="M194.497 161.498v7.229h-1.341v-6.104h-1.524v-1.125h2.873-.008zm6.671 6.096v1.134h-5.331v-.902l2.873-2.729c.327-.312.543-.583.654-.814s.168-.463.168-.687c0-.335-.112-.598-.343-.774s-.559-.271-1.006-.271c-.734 0-1.301.247-1.692.75l-.941-.726c.279-.375.662-.67 1.141-.886.479-.207 1.013-.311 1.604-.311.782 0 1.412.183 1.883.559s.702.877.702 1.516c0 .391-.079.758-.247 1.101s-.479.734-.95 1.173l-1.931 1.835h3.408l.008.032zm-4.604 97.117c.375.183.67.438.885.782.216.335.32.726.32 1.165 0 .47-.12.877-.352 1.237-.231.351-.55.63-.949.822s-.846.287-1.341.287c-.989 0-1.763-.311-2.306-.934-.551-.622-.822-1.508-.822-2.665 0-.814.152-1.508.447-2.083s.71-1.013 1.245-1.309c.534-.303 1.149-.447 1.851-.447a4.37 4.37 0 0 1 1.046.12c.327.08.614.192.853.343l-.494 1.014c-.359-.232-.814-.351-1.373-.351-.694 0-1.237.215-1.628.638-.391.431-.59 1.045-.59 1.851a2.09 2.09 0 0 1 .814-.55c.327-.128.702-.192 1.117-.192.479 0 .902.088 1.285.272h-.008zm-.487 2.904c.263-.223.391-.518.391-.893s-.128-.679-.391-.902-.615-.327-1.054-.327-.79.119-1.061.351a1.12 1.12 0 0 0-.407.885 1.11 1.11 0 0 0 .399.87c.263.232.631.343 1.101.343.423 0 .758-.111 1.022-.335v.008zm25.456-97.364v7.23h-1.341v-6.104h-1.532v-1.126h2.873zm.582 87.349c.487.399.735.934.735 1.62 0 .431-.104.83-.32 1.181s-.534.631-.957.838c-.431.208-.958.312-1.58.312a4.98 4.98 0 0 1-1.501-.224c-.478-.151-.885-.351-1.221-.614l.567-1.046c.271.224.591.391.966.519s.766.192 1.165.192c.479 0 .846-.096 1.117-.296s.407-.463.407-.814c0-.375-.144-.654-.439-.838-.295-.191-.79-.287-1.5-.287h-1.748l.375-3.934h4.246v1.125h-3.113l-.151 1.676h.694c1.021 0 1.772.199 2.258.59zm-51.942-87.349v7.23h-1.34v-6.104h-1.524v-1.126h2.872-.008zm3.934 0v7.23h-1.34v-6.104h-1.533v-1.126h2.873zm-3.934 83.958v7.23h-1.34v-6.105h-1.524v-1.125h2.872-.008zm3.934 0v7.23h-1.34v-6.105h-1.533v-1.125h2.873zm65.653-62.132v1.133h-5.331v-.902l2.873-2.729c.327-.311.542-.583.654-.814s.168-.463.168-.686c0-.335-.112-.599-.344-.774s-.558-.272-1.005-.272c-.734 0-1.301.248-1.692.751l-.941-.727c.279-.375.662-.67 1.141-.885.479-.208 1.013-.312 1.604-.312.782 0 1.412.184 1.883.559s.702.878.702 1.516a2.48 2.48 0 0 1-.247 1.101c-.168.344-.479.735-.95 1.173l-1.931 1.836h3.408l.008.032zm1.428 49.436h-1.277v1.644h-1.3v-1.644h-3.966v-.934l3.559-4.66h1.436l-3.36 4.453h2.362v-1.453h1.261v1.453h1.277v1.133l.008.008zm-87.277-55.533v7.23h-1.341v-6.105h-1.532v-1.125h2.873zm2.904 6.895c-.455-.296-.814-.718-1.077-1.277s-.391-1.229-.391-1.995.127-1.436.391-1.995.622-.99 1.077-1.285.974-.439 1.548-.439a2.83 2.83 0 0 1 1.556.439c.455.295.814.718 1.078 1.285.263.559.391 1.229.391 1.995s-.128 1.436-.391 1.995-.623.989-1.078 1.277c-.455.295-.973.439-1.556.439s-1.093-.144-1.548-.439zm2.769-1.365c.295-.423.447-1.061.447-1.907s-.152-1.484-.447-1.907a1.4 1.4 0 0 0-1.221-.639c-.511 0-.918.216-1.213.639-.303.431-.447 1.061-.447 1.907s.152 1.484.447 1.907a1.39 1.39 0 0 0 1.213.639 1.42 1.42 0 0 0 1.221-.639zm-2.609 48.431c.2.295.303.639.303 1.03 0 .438-.119.829-.367 1.157s-.59.582-1.037.758-.966.263-1.556.263-1.11-.088-1.556-.263-.79-.431-1.03-.758-.359-.719-.359-1.157c0-.391.096-.735.303-1.03.2-.295.487-.527.854-.694-.287-.16-.511-.367-.662-.623a1.74 1.74 0 0 1-.232-.893c0-.407.112-.758.336-1.062s.542-.534.941-.702c.407-.167.878-.247 1.405-.247s1.005.08 1.412.247.726.399.95.702a1.74 1.74 0 0 1 .343 1.062 1.63 1.63 0 0 1-.24.885c-.159.256-.383.463-.678.631.375.175.671.407.87.694zm-1.484 1.844a1 1 0 0 0 .431-.854c0-.359-.144-.639-.431-.846s-.679-.311-1.181-.311-.886.103-1.165.311a1 1 0 0 0-.423.846 1 1 0 0 0 .423.854c.279.207.67.311 1.165.311s.885-.104 1.181-.311zm-2.171-4.749c-.247.176-.367.431-.367.759a.83.83 0 0 0 .367.734c.248.183.575.271.998.271s.766-.088 1.013-.271.375-.431.375-.734a.92.92 0 0 0-.375-.759c-.255-.175-.59-.271-1.005-.271s-.75.088-.998.271h-.008zm92.752-22.256c.351.375.526.838.526 1.396 0 .423-.103.798-.319 1.149-.215.343-.535.615-.965.822-.431.2-.958.303-1.572.303a4.89 4.89 0 0 1-1.493-.223c-.479-.152-.886-.351-1.221-.614l.575-1.046c.263.224.582.391.957.519a3.6 3.6 0 0 0 1.166.191c.478 0 .845-.095 1.117-.295s.407-.463.407-.798a.92.92 0 0 0-.391-.79c-.256-.191-.655-.287-1.181-.287h-.663v-.918l1.644-1.955h-3.288v-1.125h4.924v.894l-1.755 2.082c.67.08 1.181.312 1.532.679v.016zm-97.093-2.841c.55.622.822 1.508.822 2.665 0 .814-.152 1.509-.447 2.083s-.71 1.014-1.245 1.309c-.535.303-1.149.447-1.851.447-.375 0-.719-.04-1.046-.12s-.614-.191-.854-.343l.495-1.014c.359.232.814.352 1.373.352.694 0 1.237-.216 1.628-.639s.59-1.045.59-1.851c-.215.239-.487.423-.814.55s-.702.192-1.117.192c-.479 0-.902-.088-1.277-.271s-.678-.439-.886-.782c-.215-.336-.319-.727-.319-1.166 0-.47.12-.877.351-1.236a2.32 2.32 0 0 1 .95-.822c.399-.192.846-.288 1.341-.288.989 0 1.763.312 2.306.926v.008zm-1.149 2.226a1.11 1.11 0 0 0 .407-.885c0-.359-.136-.639-.399-.87s-.631-.343-1.102-.343c-.422 0-.758.111-1.021.335s-.391.519-.391.894.128.678.391.901.614.328 1.053.328.79-.12 1.062-.352v-.008zm46.882 1.445l1.333-39.286h1.867l2.21 39.286h-5.41z"/><path d="M195.055 218.243l-18.346-18.282 1.245-1.388 20.724 15.649-3.623 4.021z"/></g><g fill="#407bff"><path d="M185.12 224.013l42.853-24.347-41.951 25.656-.902-1.309z"/><use href="#G"/></g><use href="#G" opacity=".3" fill="#000"/><g fill="#407bff"><path d="M150.958 273.05s-10.638 20.413-7.047 20.708 16.048-14.18 16.048-14.18-1.333-7.166-8.993-6.528h-.008zm89.671-1.979s10.638 20.413 7.047 20.708-16.048-14.18-16.048-14.18 1.333-7.166 8.993-6.528h.008zm-115.694-89.935c.391-.471 45.294-41.121 45.294-41.121s-17.196-14.89-37.346 5.139c-20.149 20.022-7.948 35.982-7.948 35.982z"/><use href="#H"/></g><use href="#H" opacity=".3" fill="#000"/><g fill="#407bff"><path d="M141.261 146.301l-6.69 6.13 15.667 17.097 6.69-6.13-15.667-17.097z"/><path d="M134.782 152.432a6.48 6.48 0 0 0 0-12.96 6.48 6.48 0 0 0 0 12.96z"/></g><path opacity=".4" d="M132.85 145.753l-3.662 3.447c-.519.639-9.528 13.423-2.019 25.464 2.849-3.87 6.216-7.668 9.911-11.419-3.894-3.144-8.363-8.945-4.23-17.492z" fill="#fff"/><g fill="#000"><path opacity=".2" d="M140.967 159.423l6.727-6.097 1.5 1.644-6.376 6.48-1.851-2.027z"/><path opacity=".3" d="M129.187 149.2l9.153-8.659-.734-.415-8.834 8.236.415.838z"/></g><g fill="#407bff"><path d="M219.435 139.489c.518.319 47.201 38.918 47.201 38.918s12.266-19.16-10.446-36.221-36.755-2.697-36.755-2.697z"/><use href="#I"/></g><use href="#I" opacity=".3" fill="#000"/><g fill="#407bff"><path d="M256.249 150.642l-7.027-5.739-14.67 17.96 7.028 5.74 14.669-17.961z"/><path d="M256.605 150.589a6.48 6.48 0 0 1-7.341-5.482 6.48 6.48 0 0 1 5.482-7.341 6.48 6.48 0 0 1 7.341 5.482 6.48 6.48 0 0 1-5.482 7.341z"/></g><path opacity=".4" d="M255.592 142.242l-3.942-3.128c-.71-.423-14.651-7.502-25.488 1.66 4.237 2.258 8.483 5.051 12.728 8.171 2.546-4.309 7.653-9.56 16.702-6.703z" fill="#fff"/><g fill="#000"><path opacity=".2" d="M243.232 152.233l6.998 5.777-1.404 1.724-7.326-5.378 1.732-2.123z"/><path opacity=".3" d="M251.658 139.106l9.887 7.812.304-.782-9.425-7.557-.766.527zm-102.153 29.622l6.903-5.898-.631-.686-6.839 5.977.559.615.008-.008zm85.57-6.449l6.911 5.897.575-.726-6.975-5.817-.519.646h.008zM50.777 182.07s39.086 5.299 47.306 11.06c8.219 5.77 24.961 28.377 24.961 28.377s-20.54-21.682-28.76-26.741-43.507-12.696-43.507-12.696zm15.985 10.781s-3.591 11.244 5.307 10.933c8.906-.312 12.497-4.214 12.497-4.214s-2.498 10.31 4.213 10.151c6.719-.16 11.403-4.373 11.403-4.373s-9.688 8.259-14.372 6.32c-4.684-1.947-2.697-8.658-2.697-8.658s-10.972 5.33-15.505 1.596-3.647-5.443-.854-11.747l.008-.008zm274.463-12.912s-39.086 5.299-47.306 11.061c-8.219 5.769-24.961 28.377-24.961 28.377s20.541-21.682 28.76-26.741 43.507-12.697 43.507-12.697zm-15.984 10.789s3.591 11.244-5.307 10.933c-8.906-.312-12.497-4.214-12.497-4.214s2.498 10.31-4.213 10.151c-6.719-.16-11.404-4.373-11.404-4.373s9.688 8.259 14.372 6.32c4.685-1.947 2.698-8.658 2.698-8.658s10.972 5.33 15.505 1.596 3.647-5.443.854-11.747l-.008-.008z"/></g><path d="M172.991 150.813a.29.29 0 0 1-.28-.2c-.056-.152.024-.327.176-.383 12.425-4.572 26.358-5.402 39.229-2.322a.3.3 0 0 1 .224.359c-.04.16-.2.255-.359.223-12.768-3.056-26.574-2.234-38.887 2.299-.032.016-.072.016-.103.016v.008zm42.773-1.293s-.056 0-.08-.008l-1.971-.559c-.16-.048-.255-.207-.207-.367s.207-.255.367-.207l1.971.558c.159.048.255.208.207.367-.04.136-.159.216-.287.216z" fill="#407bff"/><defs ><path id="B" d="M346.173 150.415c-3.919-12.369-12.258-24.299-25.337-34.872-15.417-12.465-39.437-25.209-70.846-21.443-57.999 6.951-59.052 40.276-98.051 33.62-44.169-7.533-95.983-2.481-110.395 31.338-27.364 64.239 132.763 141.884 220.751 120.075 54.775-13.574 104.673-63.026 83.878-128.71v-.008z"/><path id="C" d="M128.702 203.648c-3.025-6.887-6.52-13.774-12.026-18.889-8.236-7.637-19.775-10.286-30.683-12.976-23.709-5.849-47.034-13.23-69.793-22.088-4.413-1.716-8.69 2.753-6.807 7.102 2.091 4.836 4.493 9.504 7.581 13.765 5.53 7.629 13.638 13.894 22.99 15.059-3.416.343-7.03.758-9.464 3.511-1.237 1.396-1.756 3.344-1.133 5.099 1.037 2.913 4.381 3.519 7.254 3.838l17.029 1.868c-4.285 1.125-6.998 6.017-6.177 10.366s4.732 7.78 9.081 8.578c3.838.703 7.868-.47 11.044-2.761-2.21 2.338-2.322 6.504-.335 9.177 2.306 3.104 6.6 4.254 10.422 3.647s7.254-2.689 10.342-5.019c1.819 3.902 5.865 6.671 10.167 6.95s8.674-1.947 10.981-5.578c1.955 6.608 10.852 10.007 16.718 6.384l11.387 17.995 3.096-12.504a225.08 225.08 0 0 0-11.666-33.517l-.008-.007z"/><path id="D" d="M266.317 198.836c3.638-6.584 7.74-13.127 13.693-17.716 8.898-6.863 20.628-8.451 31.737-10.135 24.139-3.67 48.039-8.905 71.508-15.664 4.549-1.309 8.403 3.527 6.137 7.684-2.522 4.629-5.339 9.058-8.794 13.024-6.2 7.094-14.843 12.592-24.267 12.903 3.367.655 6.935 1.397 9.105 4.358 1.101 1.5 1.444 3.495.67 5.187-1.292 2.808-4.676 3.112-7.565 3.16l-17.133.311c4.166 1.508 6.424 6.631 5.211 10.885s-5.418 7.317-9.823 7.716c-3.886.351-7.789-1.181-10.741-3.758 1.987 2.529 1.723 6.687-.503 9.169-2.578 2.888-6.959 3.638-10.717 2.689-3.751-.95-6.975-3.336-9.839-5.937-2.163 3.726-6.448 6.112-10.757 6.001s-8.459-2.721-10.43-6.552c-2.554 6.408-11.715 8.978-17.229 4.844l-12.976 16.886-1.947-12.736c4.03-11.132 8.938-21.953 14.667-32.319h-.007z"/><path id="E" d="M257.63 240.747c5.985-35.917-18.28-69.885-54.198-75.87s-69.885 18.28-75.87 54.198 18.28 69.885 54.198 75.87 69.885-18.28 75.87-54.198z"/><path id="F" d="M238.812 258.293c23.647-23.647 23.647-61.987 0-85.634s-61.987-23.647-85.634 0-23.647 61.987 0 85.634 61.987 23.647 85.634 0z"/><path id="G" d="M203.099 215.61c0 3.136-2.546 5.682-5.682 5.682s-5.682-2.546-5.682-5.682 2.546-5.682 5.682-5.682 5.682 2.546 5.682 5.682z"/><path id="H" d="M170.23 140.015c1.811 1.971-7.35 12.409-19.775 23.788-12.417 11.38-23.948 19.009-25.759 17.03-1.812-1.971 6.791-12.8 19.216-24.18 12.417-11.379 24.506-18.617 26.318-16.646v.008z"/><path id="I" d="M266.636 178.407c-1.692 2.075-13.335-5.49-26.382-16.152-13.047-10.653-22.248-20.971-20.556-23.046s13.637 4.884 26.685 15.537 21.945 21.578 20.253 23.653v.008z"/></defs></svg>