<svg xmlns="http://www.w3.org/2000/svg" viewBox="0 0 500 500" xmlns:v="https://vecta.io/nano"><style><![CDATA[.S{fill:#263238}.T{fill:#fff}.U{fill:#dbdbdb}.V{fill:#ebebeb}.W{fill:#455a64}.X{fill:#f7a9a0}.Y{fill:#3560ff}.Z{fill:#a6a6a6}.a{stroke-miterlimit:10}]]></style><path d="M309.7 36.6h144.1V227H309.7z" class="V"/><path d="M384.6 44.2H447v84.7h-62.4zm-68.2 0h62.4v84.7h-62.4zm68.2 90.4H447v84.7h-62.4zm-68.2 0h62.4v84.7h-62.4z" class="T"/><path d="M357.8 36.6h-48.1v272.3h27.8l-19.4-138.6z" class="U"/><path d="M349.5 44l-7.6 31.6-7.8 31.6-15.5 63.3v-.2l7.2 66.1 3.5 33 3.5 33.1-4-33-3.7-33.1-7.5-66v-.1-.1l15.9-63.1 7.9-31.6zm-37 5.5l.3 27.3.1 27.4.1 54.6-.1 54.6-.1 27.3-.3 27.3-.2-27.3-.2-27.3-.1-54.6.1-54.6.2-27.4zm9 5.2l-1.5 29-1.5 29-3.3 58.1v-.1l1.6 64.7.7 32.3.6 32.4-1.1-32.4-1-32.3-1.8-64.7h0 0l3.5-58 1.9-29zm6.3 241.2l-3.2-31.3-3.1-31.3-5.9-62.7v-.1l8.9-48.8 4.5-24.4 4.6-24.4-4.2 24.5-4.3 24.4-8.7 48.8v-.1l5.8 62.7 2.8 31.4 2.8 31.3z" class="V"/><path d="M309.7 168h10.9v6.4h-10.9zm95.8-131.4h48.1v272.3h-27.8l19.4-138.6z" class="U"/><path d="M413.8 44l8.1 31.5 7.9 31.6 15.9 63.1v.1.1l-7.5 66-3.8 33.1-3.9 33 3.5-33.1 3.5-33 7.2-66.1v.2l-15.5-63.3-7.8-31.6zm37 5.5l.2 27.3.1 27.4.1 54.6-.1 54.6-.1 27.3-.2 27.3-.3-27.3-.1-27.3-.1-54.6.1-54.6.1-27.4zm-9 5.2l1.9 29 1.8 29 3.6 58h0 0l-1.8 64.7-1 32.3-1.1 32.4.6-32.4.7-32.3 1.6-64.7v.1l-3.3-58.1-1.6-29zm-6.3 241.2l2.6-31.4 2.8-31.4 5.8-62.7v.1l-8.7-48.8-4.3-24.4-4.2-24.5 4.6 24.4 4.5 24.4 8.9 48.8v.1l-5.9 62.7-3.1 31.3-3 31.4z" class="V"/><path d="M442.8 168.1h10.9v6.4h-10.9z" class="U"/><path d="M43.8 364.9h186.3l3.9-76.4H39.9z" class="V"/><path d="M221.3 323.5h-77.9l-1.5-26.5H223l-1.7 26.5zm-77-1h76.1l1.6-24.7h-79.1l1.4 24.7zm75.6 31.5h-73.4l-1.2-24h76.1l-1.5 24zm-72.6-.9H219l1.4-22.1h-74.1l1 22.1zm42.6-40h-13.1l-.8-6.4h14.7l-.8 6.4zm-12.3-1H189l.6-4.5H177l.6 4.5zm12.3 33.1h-13.1l-.8-6.4h14.7l-.8 6.4zm-12.3-.9H189l.6-4.5H177l.6 4.5zm-47.9-20.8h-78L50.2 297h81.1l-1.6 26.5zm-77-1h76.1l1.6-24.7H51.3l1.4 24.7zm75.5 31.5H54.8l-1.2-24h76.1l-1.5 24zm-72.5-.9h71.6l1.4-22.1H54.6l1.1 22.1zm42.5-40H85.1l-.8-6.4H99l-.8 6.4zm-12.3-1h11.4l.6-4.5H85.3l.6 4.5zm12.3 33.1H85.1l-.8-6.4H99l-.8 6.4zm-12.3-.9h11.4l.6-4.5H85.3l.6 4.5z" class="U"/><path d="M60.5 364.9l-1.2 8.4L57 390h-4.6v-25.1z" class="V"/><path d="M60.5 364.9l-1.2 8.4h-6.9v-8.4z" class="U"/><path d="M213.4 364.9l1.2 8.4 2.3 16.7h4.7v-25.1z" class="V"/><path d="M213.4 364.9l1.2 8.4h7v-8.4z" class="U"/><path d="M56.4 55h56.5v68.5H56.4z" class="V"/><path d="M62.9 61.2h43.6v56H62.9z" class="T"/><path d="M62.9 61.2h1.7v56h-1.7zm50-6.2h1.7v68.5h-1.7zM77.5 68.9h10.3v30.6H77.5z" class="U"/><path d="M73 89.8h27.4v15H73z" fill="none" stroke="#ebebeb" class="a"/><path d="M108.4 140.1h56.5v68.5h-56.5z" class="V"/><path d="M114.8 146.3h43.6v56h-43.6z" class="T"/><path d="M114.8 146.3h1.7v56h-1.7zm50.1-6.2h1.7v68.5h-1.7z" class="U"/><path d="M132.4 160.8h8.8V183h-8.8z" class="V"/><path d="M126.8 174.3h23.6v15.3h-23.6z" fill="none" stroke="#dbdbdb" class="a"/><g class="V"><ellipse cx="250" cy="411.6" rx="146" ry="15.1"/><ellipse cx="325" cy="437" rx="127.3" ry="22.8"/></g><path d="M34.8 389.6l53.8-.2 53.8-.1 107.6-.2 107.6.2 53.8.1 53.7.2-53.7.3-53.8.1-107.6.1-107.6-.1-53.8-.1z" class="S"/><path d="M84.5 313.8c6.3-13 17.5-19.8 30-16s14.5 21.2 5.1 25.6-18.7-8.5-23.6-11.1-11.5 1.5-11.5 1.5z" class="Y"/><path d="M78.3 348.5l.2-4.7.3-9.4c.2-5.7.8-11.4 3.2-16.7 2.1-4.8 5.6-8.9 10.1-11.6 1.7-1 3.4-1.8 5.3-2.3 1.7-1.7 3.8-2.9 6.2-3.4 2.9-.6 5.9-.7 8.8-.2.1 0 .1.2 0 .2-2.8-.4-5.6-.2-8.3.6-1.2.3-2.3.8-3.3 1.3-.7.4-1.3.8-1.9 1.2 2.5-.5 5.1-.5 7.7.1.9.2 1.8.5 2.7.9.7-.2 1.4-.2 2.1-.2.9 0 1.8.2 2.7.4 1.8.5 3.5 1.3 5.2 2.2v.1h-.1c-1.6-.9-3.3-1.5-5-1.9-.9-.2-1.7-.3-2.6-.4h-1.4c3.6 1.6 6.4 4.5 8.1 8.1 0 .1-.1.2-.1.1-2-4.2-5.8-7.2-10.3-8.3-.3-.1-.6-.1-.8-.2.1.4.1.9.1 1.3l.3 1.9c.3 1.3.6 2.6 1 3.8.4 1.3.9 2.5 1.5 3.7.6 1.3 1.3 2.5 2.1 3.6v.1h-.1c-.8-1.2-1.6-2.3-2.3-3.5-1.3-2.3-2.3-4.9-2.8-7.5l-.3-2.1c-.1-.4-.1-.9-.1-1.3-1.5-.2-3-.3-4.4-.1.6 3.1 1.2 6.4 2.9 9.1.1.1-.1.2-.2.1-.8-1.4-1.5-2.9-2.2-4.5-.6-1.5-.9-3.1-1.1-4.6-2.6.3-5.1 1.2-7.3 2.5a24.16 24.16 0 0 0-9.8 10.7c-2.2 4.8-3.4 10-3.6 15.4-.4 6.7-.5 13.4-1.2 20 0 .4-.7.6-.8.1-.6-1.6-.6-3.1-.5-4.6zM93 305c.4-.5.9-1 1.4-1.3l1.6-1.2c1.1-.8 2.3-1.3 3.6-1.7.1 0 .1.1 0 .2-1.3.3-2.5.9-3.6 1.8l-1.5 1.2c-.4.5-.9.9-1.4 1.2 0 0-.1-.1-.1-.2zm20.3 4.8c1.1 1.2 2 2.5 2.9 3.9s1.6 2.8 2.2 4.3c0 0 0 .1-.1 0-1.5-2.8-3.2-5.5-5.1-8.1-.1-.1 0-.2.1-.1zm-13.7-1.3c.1.8.4 1.6.7 2.4.3.7.7 1.4 1.2 2.1 0 0 0 .1-.1.1-1.1-1.3-1.8-2.8-2-4.5 0-.2.2-.2.2-.1z" class="S"/><path d="M79.2 314.1s-9-11.3-26.3-7.3c-16.5 3.8-24.1 34-7.4 37.7s13.7-24.4 19.8-29.1c4.4-3.5 10.8-2.8 13.9-1.3z" class="Y"/><g class="S"><path d="M39.5 323.3a24.16 24.16 0 0 1 3.6-2.7c1.2-.8 2.5-1.4 3.8-1.9.7-1 1.4-2 2.3-2.9 1.5-1.6 3.3-3.1 5.2-4.2h-.5-2.8c-1.8.1-3.7.6-5.3 1.3-.1 0-.2-.1-.1-.1 1.7-.7 3.5-1.3 5.3-1.6.9-.2 1.8-.2 2.7-.2.5 0 1 0 1.5.1h.3c1.6-.8 3.3-1.4 5-1.8l-.5-.3c-.8-.2-1.7-.3-2.6-.4-1.7-.2-3.5-.2-5.2.1-.1 0-.1-.1 0-.2 1.7-.2 3.5-.3 5.2-.2 1.5 0 2.9.2 4.4.6 1-.2 2.1-.3 3.2-.4 6-.3 12.7 2 16.4 7s4.5 11.6 5.1 17.6c1 8.4 1.2 16.8.7 25.2 0 .5-.7.4-.8-.1-.2-7.1-.5-14.3-1.2-21.4a167 167 0 0 0-1.2-9.9 29.03 29.03 0 0 0-2.4-8.1c-1.3-2.6-3.3-4.8-5.9-6.3-2.5-1.5-5.4-2.3-8.3-2.5-2.6-.2-5.3 0-7.8.7.1.5.1 1 0 1.5-.1.6-.2 1.3-.4 1.9s-.4 1.2-.7 1.7c-.3.6-.7 1.1-1.1 1.7-.1.1-.2 0-.1-.1.7-1 1.2-2.2 1.3-3.4.1-.6.2-1.2.2-1.8v-1.4c-2.8.8-5.3 2.2-7.6 4-.4.3-.8.7-1.2 1.1a6.55 6.55 0 0 1 1.5 1.8c.6.9 1.1 1.8 1.5 2.8.8 1.9 1.3 3.9 1.6 6 0 .1-.2.1-.2 0-.3-2-1-3.9-2-5.7-.5-.9-1-1.7-1.5-2.5l-.9-1.2c-.2-.2-.4-.4-.5-.7-2 2-3.7 4.3-4.9 6.9h0c.8.9 1.5 1.8 2 2.9.6 1.1 1.2 2.3 1.6 3.5.9 2.3 1.6 4.7 2.2 7.2 0 .1-.1.1-.2 0-.5-2.4-1.4-4.8-2.5-7-.5-1.1-1.1-2.2-1.6-3.2-.6-1-1.1-2-1.6-3-1.2 2.5-1.8 5.2-2 8l-.1.1-.1-.1c.3-4.4 1.7-8.6 3.9-12.3l-3.2 1.4c-1.3.7-2.5 1.6-3.6 2.5.1.2 0 .1.1 0z"/><path d="M52.2 324l1.7 5.1c.5 1.7.7 3.4.8 5.1m-.2 0c-.5-3.5-1.3-6.9-2.5-10.2 0 0 0-.1.1-.1s.1 0 .1.1l2.3 10.2zm-13.3-14.5c.7-.7 1.5-1.2 2.3-1.6.9-.4 1.7-.7 2.7-.9.1 0 .1.1 0 .2-.9.2-1.8.6-2.6 1.1-.8.3-1.6.8-2.4 1.2 0 .1 0 .1 0 0z"/></g><path d="M70.7 299s-1.7-20.3-16.8-26.9c-12.6-5.5-19.8 8.7-10.9 17.3 7.2 7.1 18.8 3.9 27.7 9.6z" class="Y"/><path d="M45.8 276.1c2.3.9 4.5 2 6.7 3.2 1.8 1 3.5 2.2 5.2 3.5-.2-.5-.5-1-.7-1.5-.4-.8-.8-1.5-1.3-2.3-.9-1.5-2-3-3.3-4.2-.1-.1 0-.2.1-.1 1.3 1.3 2.4 2.6 3.5 4.1a17.61 17.61 0 0 1 1.4 2.3c.4.7.8 1.5 1 2.3l.2.1c2.6 2.1 5 4.5 7.2 7 0-.2-.1-.4-.1-.6l-.9-3c-.6-2.1-1.5-4-2.7-5.9-.1-.1.1-.2.1-.1 1.2 1.8 2.2 3.8 3.2 5.8.4 1 .7 2 1 3 .2.7.4 1.3.5 2 .7.8 1.3 1.7 1.9 2.5 6.5 9.2 9.7 20.4 10.5 31.5.2 3.3.3 6.7.2 10 0 3.4-.3 6.7-.9 10 0 .2-.4.1-.4-.1.1-2.9.4-5.9.4-8.8a64.72 64.72 0 0 0-.3-8.8c-.5-5.9-1.6-11.6-3.3-17.3-1.8-5.8-4.3-11.2-7.7-16.2-.6-.1-1.3-.3-1.9-.5s-1.5-.4-2.2-.6a35.23 35.23 0 0 1-4.2-1.5c-.1 0 0-.2.1-.1 1.3.7 2.8 1.2 4.3 1.5 1.2.2 2.4.4 3.6.7-1.1-1.6-2.3-3.1-3.5-4.6-2.9.3-5.8 0-8.6-.6-1.5-.4-3-.8-4.4-1.4-1.5-.6-2.9-1.3-4.4-2-.1 0 0-.2.1-.1 2.7 1.5 5.7 2.4 8.7 2.8 2.7.4 5.4.7 8.1.7l-3.4-3.6c-4-3.8-8.7-7.2-13.9-9 0 0 0-.2.1-.1zm12.3 0l1.9 2.7c.5 1 1 2.1 1.3 3.2 0 0 0 .1-.1 0l-1.4-3c-.5-1-1.1-1.9-1.8-2.7-.1-.1 0-.3.1-.2zm-14 6.8c1 .5 2 1 3.1 1.3l3.2.9m-.1 0c-1.1-.1-2.2-.4-3.3-.7a27.51 27.51 0 0 1-3-1.4c-.1 0 0-.2.1-.1l6.2 2.2z" class="S"/><path d="M82.4 295.4c.1.9 2.3-7.4 15-14.7 11.6-6.6 25.4-24 14.1-34.9-9.2-8.8-33.3 10.4-29.1 49.6z" class="Y"/><path d="M73.6 342.6c.2-8.6.8-17.2 2-25.7 1-7.8 2.8-15.5 5.4-23 1-2.7 2-5.3 3.2-7.9-.1-1-.1-2 0-3l.3-3.9c.1-1.3.2-2.6.4-3.9s.4-2.6.5-3.9c0-.1.2-.1.2 0-.3 1.4-.4 2.7-.5 4.1-.1 1.3-.1 2.5-.1 3.8v3.8 1.4c1.2-2.5 2.5-5 3.9-7.5-.9-5.3.3-10.8 1.3-16 0-.1.2 0 .2 0-.5 2.7-.8 5.4-.8 8.2-.1 2.2 0 4.4.1 6.5.3-.5.6-1 .9-1.6 1.7-2.7 3.4-5.4 5.3-7.9-.1-1.3-.1-2.5.1-3.8a27.13 27.13 0 0 1 .9-4.1c.4-1.4.9-2.7 1.4-4s1.3-2.6 1.8-4c0-.1.2 0 .2.1-.7 1.3-1.2 2.6-1.6 4-.4 1.3-.7 2.6-1 4s-.5 2.7-.7 4c-.1.9-.2 1.8-.4 2.7 2.7-3.7 5.7-7.1 8.9-10.4.1-.1.2 0 .1.1-4.9 5.5-9.2 11.4-13 17.6-.1.2-.3.5-.4.7a22.56 22.56 0 0 1 2.2-1.1l3.7-2 3.6-2c.6-.4 1.2-.7 1.9-1 .8-.3 1.5-.7 2.2-1.2.1-.1.2.1.1.1-1.2.7-2.3 1.7-3.5 2.4s-2.4 1.5-3.6 2.2c-2.3 1.3-4.7 2.2-7 3.5-1.6 2.7-3 5.5-4.3 8.3 1.3-.9 2.7-1.7 4.1-2.5l2.7-1.5c.9-.4 1.8-.9 2.6-1.6h.1v.1h0c-1.5 1.3-3.1 2.5-4.9 3.4-1.6 1-3.3 1.9-5 2.7-1.4 3-2.6 6-3.7 9.1-5.4 15.2-7.3 31.4-8.3 47.4-.3 4.8-.4 9.6-.5 14.4s.2 9.5.2 14.3c0 .1-.2.2-.2 0-.6-4.2-.7-8.5-.9-12.8s-.2-8.2-.1-12.6zm23.2-68.8c2.3-1 4.6-2.2 6.8-3.5 2.2-1.2 4.4-2.6 6.4-4.1 0 0 .1 0 0 .1-2 1.6-4 3-6.2 4.3a64.44 64.44 0 0 1-7 3.4s-.1-.2 0-.2zm-3.7-17.2l.7-2.2v-.1c.2-.4.3-.8.5-1.2 0-.1 0-.1.1-.1l.1-.2h0l-.1.4c0 .1 0 .2-.1.2-.8 2.8-1.5 5.7-1.9 8.6 0 .1-.2.1-.2 0a25.39 25.39 0 0 1 .9-5.4z" class="S"/><path d="M60.2 345.7l.9 10.8 2.7 32.9h29.9l2.8-32.9.9-10.8z" class="W"/><path d="M60.2 345.7l.9 10.8h35.4l.9-10.8z" class="S"/><path d="M57.2 341.4h43.1v10.4H57.2z" class="W"/><path d="M325.8 62.6H174.2c-8.5.1-15.4 7.1-15.3 15.6v312.1c-.1 8.5 6.8 15.5 15.3 15.6h151.6c8.5-.1 15.4-7.1 15.4-15.6V78.2c0-8.5-6.9-15.5-15.4-15.6zm5.8 318.1c0 8.2-6.1 14.9-13.7 14.9H182.2c-7.6 0-13.8-6.6-13.8-14.9V90.1c0-16.7 6.1-17.5 13.8-17.5h27.2c1.6 0 2.9 1.8 2.9 4v1c0 5.2 2.9 5.2 6.4 5.2h62.8c3.5 0 6.4 0 6.4-5.2v-1c0-2.2 1.3-4 2.9-4H318c7.6 0 13.7 2.2 13.7 17.6l-.1 290.5z" class="S"/><path d="M258.6 76.2h-17.1c-.6 0-1.1-.5-1.1-1h0a1.11 1.11 0 0 1 1.1-1.1h17.1a1.11 1.11 0 0 1 1.1 1.1h0c-.1.5-.5 1-1.1 1zm72.9 13.9v290.6c0 8.2-6.1 14.9-13.7 14.9H182.2c-7.6 0-13.8-6.6-13.8-14.9V90.1c0-16.7 6.1-17.5 13.8-17.5h27.2c1.6 0 2.9 1.8 2.9 4v1c0 5.2 2.9 5.2 6.4 5.2h62.8c3.5 0 6.4 0 6.4-5.2v-1c0-2.2 1.3-4 2.9-4H318c7.4-.1 13.5 2.2 13.5 17.5z" class="T"/><g class="Z"><path d="M204.7 79.1l-.3.3-.1.2c-.7-.7-1.6-1-2.5-1s-1.9.3-2.5 1l-.1-.1-.2-.3h0l.3-.3c.2-.2.5-.4.8-.5a1.93 1.93 0 0 1 1-.3c.2 0 .3 0 .5-.1h.4.3c.3 0 .6.1.9.2l.6.3c.2.1.4.3.6.4l.3.2h0z"/><path d="M200 80.3l-.4-.4c.5-.5 1.1-.8 1.7-.9.9-.1 1.9.2 2.5.8l-.4.4c-.9-.9-2.4-.9-3.4.1 0-.1 0-.1 0 0h0z"/><path d="M203 80.7l-.4.4c-.5-.5-1.3-.5-1.7 0l-.4-.4c.6-.7 1.8-.7 2.5 0z"/><path d="M202.1 81.5c0 .2-.2.3-.4.3s-.3-.2-.3-.3c0-.2.1-.4.3-.4s.4.1.4.3v.1z"/><circle cx="180.1" cy="79.8" r="1.1"/><path d="M182.5,79.8c0-0.6,0.5-1.1,1.1-1.1c0.6,0,1.1,0.5,1.1,1.1s-0.5,1.1-1.1,1.1S182.5,80.4,182.5,79.8L182.5,79.8z    "/><circle cx="187" cy="79.8" r="1.1"/><path d="M189.3 79.8a1.11 1.11 0 0 1 1.1-1.1 1.11 1.11 0 0 1 1.1 1.1 1.11 1.11 0 0 1-1.1 1.1 1.11 1.11 0 0 1-1.1-1.1h0zm3.4 0a1.11 1.11 0 0 1 1.1-1.1 1.11 1.11 0 0 1 1.1 1.1 1.11 1.11 0 0 1-1.1 1.1 1.11 1.11 0 0 1-1.1-1.1zm118-1.5h8.4v3.6h-8.4z"/></g><path d="M319.3 82.2h-8.9v-4.1h8.9v4.1zm-8.3-.5h7.9v-3.1H311v3.1z" class="T"/><path d="M311.2 78.8h5.7v2.7h-5.7zm8.1.3h.8v2.2h-.8zm-35.2 307.4h-68.2c-.9.1-1.5.8-1.4 1.7.1.8.7 1.4 1.4 1.4h68.2c.9.1 1.6-.6 1.7-1.4.1-.9-.6-1.6-1.4-1.7h-.3z" class="Z"/><circle transform="matrix(.8112 -.5847 .5847 .8112 -79.1341 186.9558)" cx="250" cy="216" r="15.3" class="W"/><g class="T"><path d="M245.7 208.4a1.54 1.54 0 0 0-1.5 1.5 1.54 1.54 0 0 0 1.5 1.5 1.54 1.54 0 0 0 1.5-1.5c0-.9-.6-1.5-1.5-1.5zm4.3 0a1.54 1.54 0 0 0-1.5 1.5 1.54 1.54 0 0 0 1.5 1.5 1.54 1.54 0 0 0 1.5-1.5 1.54 1.54 0 0 0-1.5-1.5h0zm4.2 2.9a1.54 1.54 0 0 0 1.5-1.5 1.54 1.54 0 0 0-1.5-1.5 1.54 1.54 0 0 0-1.5 1.5c.1.9.7 1.5 1.5 1.5z"/><use href="#B"/><use href="#C"/><use href="#D"/><use href="#B" y="4.1"/><use href="#C" y="4.1"/><use href="#D" y="4.1"/><use href="#B" x="4.3" y="8.3"/></g><circle cx="293.4" cy="260.7" r="15.3" class="W"/><path d="M296.7 256.3a3.33 3.33 0 0 1-3.3 3.3 3.33 3.33 0 0 1-3.3-3.3 3.33 3.33 0 0 1 3.3-3.3 3.33 3.33 0 0 1 3.3 3.3h0zm2.4 9.1v1.4c-1 .6-2 1-3.1 1.3-2.8.7-5.8.2-8.3-1.3v-1.4c0-3.1 2.5-5.7 5.7-5.7a5.63 5.63 0 0 1 5.7 5.7z" class="T"/><circle cx="206.6" cy="216.1" r="15.3" class="W"/><g class="T"><path d="M206.6 224.6c-.2 0-.4-.2-.4-.3h0v-4.1c0-.2.2-.3.4-.3s.3.2.3.3v4.1c.1.2-.1.3-.3.3z"/><path d="M208.8 224.6h-4.5c-.2 0-.3-.2-.3-.4s.2-.3.3-.3h4.5c.2 0 .3.2.3.4.1.2-.1.3-.3.3zm.7-14.2v5.9c.1 1.6-1.1 3-2.7 3s-3-1.1-3-2.7v-.3-5.9c0-1.6 1.2-2.9 2.8-2.9s2.9 1.2 2.9 2.8v.1zm-2.9 10.1c-2.3 0-4.2-1.9-4.2-4.1v-2.5c0-.2.1-.4.3-.4s.4.1.4.3v.1 2.5c0 1.9 1.6 3.5 3.5 3.5h.1c1.9-.1 3.3-1.7 3.3-3.6v-2.4c0-.2.2-.4.3-.4s.4.2.4.3v2.4c0 2.3-1.7 4.2-4 4.3h-.1z"/></g><circle cx="250" cy="260.7" r="15.3" class="W"/><path d="M258.9 258.7v3.9c0 .6-.5 1.1-1.1 1h-.2l-1.7-.4-.9-.2v-4.6l2.3-.6.3-.1c.6-.1 1.2.3 1.3.8v.2zm-13.5-2.8h6.7c1.1 0 2 .9 2 2v5.6c0 1.1-.9 2-2 2h-6.7c-1.1 0-2-.9-2-2v-5.6c0-1.1.9-2 2-2z" class="T"/><circle cx="206.6" cy="260.7" r="15.3" class="W"/><path d="M212.4 259.8h-4.9v-4.9c0-.5-.4-.9-.9-.9s-.9.4-.9.9v4.9h-4.9c-.5-.1-1 .3-1 .8-.1.5.3 1 .8 1h.2 4.9v4.9c0 .5.4.9.9.9s.9-.4.9-.9v-4.9h4.9c.5-.1.9-.5.8-1 0-.5-.3-.8-.8-.8z" class="T"/><circle transform="matrix(.7071 -.7071 .7071 .7071 -66.8406 270.7372)" cx="293.4" cy="216.1" r="15.3" class="W"/><g class="T"><path d="M301 215.4c0-.4-.1-.7-.1-1.1-.1-.7-.4-1.5-.7-2.1s-.6-1.1-1-1.6l-.6-.7h0 0 0l-.5.5-.3.3c2.9 2.9 2.9 7.6 0 10.6l.3.3.5.6h0c.2-.2.4-.4.5-.6.3-.4.6-.8.9-1.3.2-.4.5-.9.6-1.3.2-.6.4-1.3.5-1.9 0-.2 0-.5.1-.7-.2-.1-.2-.9-.2-1zm-2.5-.3c-.2-1.3-.8-2.6-1.8-3.5l-.9.9c.9.9 1.5 2.2 1.5 3.6 0 1.3-.5 2.6-1.5 3.6l.9.9c1.4-1.6 2.1-3.5 1.8-5.5zm-3.5-1.8l-.9.9c.5.5.8 1.1.8 1.8s-.3 1.3-.8 1.8l.9.9c1.5-1.5 1.5-3.8 0-5.4 0 .1 0 0 0 0zm-9.2.3h2.5v4.9h-2.5z"/><path d="M288.3 213.6l4.7-2v8.8l-4.7-1.9z"/></g><circle cx="250" cy="334.6" r="18.1" class="Y"/><path d="M260.3 334.8l-.3-.9c-.1-.3-.3-.5-.5-.8l-.7-.7c-.3-.2-.5-.4-.8-.6-1.1-.7-2.3-1.2-3.6-1.4-3-.6-6-.6-8.9 0-1.3.2-2.5.7-3.6 1.4-.3.2-.5.4-.8.6l-.7.7-.3.5c-.2.4-.4.8-.4 1.2h5.8c.1 0 .2 0 .2-.1.3-.6 1-1 1.7-1.1 1.7-.1 3.4-.1 5.1 0 .7 0 1.4.4 1.7 1.1 0 .1.1.1.2.1h5.6.3zm-20.6 1.2v2.1c0 .4.2.7.5.7h.2 4.3c.4 0 .7-.2.7-.6v-.2-1.7-.4l-5.7.1zm20.5-.1h-5.7v2.2c0 .3.2.7.6.7h.1 4.4c.4 0 .7-.2.7-.6v-.1-2l-.1-.2z" class="T"/><path d="M235.4 113c0-1.4 1.2-2.6 2.7-2.6.6 0 1.2.2 1.7.6.2.1.2.4.1.6s-.4.2-.6.1c-.3-.3-.7-.4-1.2-.4s-1 .2-1.3.5a1.75 1.75 0 0 0 0 2.5c.4.3.8.5 1.3.5a1.92 1.92 0 0 0 1.2-.4.47.47 0 0 1 .6.1.47.47 0 0 1-.1.6c-.5.4-1.1.6-1.7.6-1.4-.1-2.6-1.3-2.7-2.7zm8.8.8v1.4c0 .2-.2.4-.4.4h0c-.2 0-.3-.1-.4-.3a1.69 1.69 0 0 1-1 .3c-.5 0-.9-.2-1.2-.5s-.5-.8-.5-1.3.2-.9.5-1.3.8-.6 1.2-.6a1.69 1.69 0 0 1 1 .3c0-.2.2-.3.4-.3s.4.2.4.4v1.5zm-.7 0c0-.3-.1-.5-.3-.8a.85.85 0 0 0-1.3 0 1.09 1.09 0 0 0 0 1.5c.4.3 1 .3 1.4 0 .1-.1.2-.4.2-.7h0zm2.7-3.2c.2 0 .4.2.4.4v4.3c0 .2-.2.4-.4.4s-.4-.2-.4-.4V111c0-.2.2-.4.4-.4zm1.8 0c.2 0 .4.2.4.4v4.3c0 .2-.2.4-.5.3-.2 0-.3-.2-.3-.3V111c0-.2.2-.4.4-.4zm2.1.5c0 .2-.2.4-.4.4s-.4-.2-.4-.4v-.1c0-.2.2-.4.4-.4s.4.2.4.4v.1zm0 1.3v2.8c0 .2-.2.4-.5.3-.2 0-.3-.2-.3-.3v-2.8a.55.55 0 0 1 .3-.5.55.55 0 0 1 .5.3c.1.1.1.2 0 .2zm4.3 1.1v1.7c0 .2-.2.4-.4.4h0c-.2 0-.4-.2-.4-.4v-1.7a.7.7 0 1 0-1.4 0v1.7.1c0 .2-.2.3-.4.3s-.4-.2-.4-.4h0v-2.8c0-.2.2-.4.4-.4s.3.1.4.2c.2-.1.5-.2.8-.2.7 0 1.4.7 1.4 1.5zm4.7.4v1.3c0 1-.8 1.7-1.7 1.7-.3 0-.5-.1-.8-.2-.2-.1-.3-.3-.2-.5s.3-.3.5-.2c.1.1.3.1.4.1.5 0 .8-.3 1-.8a1.69 1.69 0 0 1-1 .3c-.5 0-.9-.2-1.2-.6-.3-.3-.5-.8-.5-1.3s.2-.9.5-1.3c.3-.3.8-.5 1.2-.5a1.69 1.69 0 0 1 1 .3c0-.2.2-.3.4-.3s.4.2.4.4v1.6h0zm-.8 0c0-.3-.1-.5-.3-.7s-.4-.3-.7-.3-.5.1-.7.3a1.08 1.08 0 0 0-.3.7c0 .3.1.5.3.7s.4.3.7.3.5-.1.7-.3a1.08 1.08 0 0 0 .3-.7h0zm2.8.7a.47.47 0 0 1 .5.5c0 .3-.3.5-.5.5a.47.47 0 0 1-.5-.5c-.1-.2.2-.5.5-.5zm1.6 0a.47.47 0 0 1 .5.5h0a.5.5 0 1 1-1 0c0-.2.2-.5.5-.5zm1.7 0a.47.47 0 0 1 .5.5c0 .3-.3.5-.5.5a.47.47 0 0 1-.5-.5c0-.2.2-.5.5-.5z" fill="#c7c7c7"/><text transform="translate(185.294 177.21)" fill="#4c4c4c" font-family="Aller" font-size="12">Shabuj Global Education</text><use href="#E" class="Y"/><g opacity=".1"><use href="#E"/></g><path d="M340 380.5c46 11.3 88.2-14.5 92-73.8 2.8-43.4-28.1-63.9-51.7-51.6-15.8 19.8-26.5 43.2-45.3 53.2-5.8 2.9-12.1 4.8-18.6 5.5h-.1l-2 .2c-21 13.2-10 57.8 25.7 66.5z" opacity=".1" enable-background="new"/><path d="M298.2 458.6c2.3-.4 57.3-29.4 58.7-31.8.5-.9-3.2-9.2-8.1-19l-3.2-6.5c-7.2-14.4-15.3-29.5-15.3-29.5L293.5 391l16.3 29 3.6 6.4s-16.1 20.5-17.3 23.4-.1 9.2 2.1 8.8z" class="X"/><g class="S"><path d="M298.2 458.6c2.3-.4 57.3-29.4 58.7-31.8.5-.8-2.4-7.3-6.4-15.6h0c-2.2 3.1-34.6 28.5-45 30.6-4.3.9 2.7-8.8 3-9.2h0c-4.9 6.3-11.7 15.4-12.5 17.2-1.3 2.7-.1 9.2 2.2 8.8z"/><path d="M307.9 433.3s4.9-3.9 13.7.1"/></g><path d="M271.8 345.4c2.6 16.9 34.9 74.3 34.9 74.3l39.4-21.4-23.9-41.3s52.2 8.8 72.6 1.3c21.8-8 19.9-33.7 19.9-33.7L363 316c-1.2 3-4.3 4.7-7.4 4.1-20.1-2.5-47.6-3-58.2-2.4-13.7.9-27.9 12.3-25.6 27.7z" fill="#37474f"/><g class="S"><path d="M311 342.5c1.2 1.2 2.2 2.6 3.2 4l3.3 4.1h0l-.6-1.2-2.1-4.1c0-.1.1-.2.1-.1l2.6 3.9c.4.6.7 1.3 1 2l.5 1.1c.1.2.2.4.2.5l1.5 1.9 3.1 4.5c0 .1-.1.1-.1.1l-3.4-4-3.2-4.2-3-4.2c-1.2-1.3-2.2-2.7-3.1-4.3-.1.1 0 0 0 0zm-6.3 68.2a34.47 34.47 0 0 1 3.2-2l3.2-1.9 6.6-3.9c4.4-2.6 8.9-5.1 13.4-7.6l7.5-4.1s.1 0 .1.1c-4.3 2.7-8.6 5.3-13 7.9l-13.3 7.6c-1.2.7-2.5 1.4-3.8 2s-2.5 1.4-3.9 1.9c0 .1-.1 0 0 0z"/><path d="M407.5 326c.2 6.8-2.2 13.5-6.8 18.6-2.3 2.5-5 4.5-8.1 5.9s-6.3 2.3-9.7 2.6c-6.7.8-13.5 1.1-20.2.9-6.8-.2-13.5-.7-20.2-1.5s-13.4-2-20-3.6c-1.6-.4-3.3-.9-4.9-1.4-.8-.3-1.6-.5-2.4-.9s-1.6-.6-2.5-.9c-.5-.1-.9-.1-1.4 0s-.9.5-1.1 1c-.1.2-.1.5-.1.7s0 .5.1.7c.1.4.3.8.5 1.2.7 1.5 1.5 3 2.3 4.5 6.5 11.9 13.5 23.5 20.5 35.1l-10.2-17.6c-3.4-5.9-6.7-11.8-9.9-17.8-.8-1.5-1.6-3-2.2-4.5-.2-.4-.3-.8-.4-1.2-.1-.2-.1-.3-.1-.5s0-.4.1-.5c.2-.7 1-.8 1.8-.6s1.6.5 2.3.8l2.4.9c1.6.5 3.2 1 4.9 1.4 6.6 1.6 13.3 2.9 20 3.6a228.12 228.12 0 0 0 20.3 1.5c6.8.2 13.6-.1 20.3-1 3.4-.4 6.7-1.3 9.8-2.8s5.9-3.6 8.1-6.1 3.9-5.5 5-8.7c1.4-3 1.9-6.4 1.8-9.8z"/></g><path d="M347.7 464.7c2.1-.8 49.9-40.7 50.8-43.4.3-1-5.1-8.3-11.8-16.9l-4.5-5.7L361 373l-32 26.6 22 25 4.8 5.5s-11.5 23.4-12.1 26.5 1.8 8.9 4 8.1z" class="X"/><g class="S"><path d="M347.7 464.7c2.1-.8 49.9-40.7 50.8-43.4.3-.9-3.9-6.7-9.5-14h0c-1.5 3.5-27.9 35.1-37.6 39.3-4 1.7.8-9.2 1-9.7h0c-3.4 7.2-8.3 17.5-8.7 19.4-.7 3.2 1.8 9.2 4 8.4z"/><path d="M351.9 437.9s4-4.8 13.4-2.7"/></g><path d="M295 350.4c2.6 16.9 45.3 64.9 50.3 70.4l1.1 1.2 34-27.2-.4-.5-23.5-28.4s37.5 14.7 54.9-8.1c6.9-9.1 3.4-33.1 3.4-33.1l-41.5-6.7s-1 7.1-6.9 6.4c-20.1-2.5-35.8-4.7-46.4-4.1-13.9.8-27.4 14.7-25 30.1z" fill="#37474f"/><g class="S"><path d="M365.2 324.2c-12.9-1.8-25.8-3.5-38.9-4.1-1.6-.1-3.3-.1-4.9-.1s-3.3.1-4.9.4c-.8.2-1.6.4-2.4.7l-2.3.9c-1.5.7-3 1.4-4.4 2.3-2.8 1.7-5.3 3.9-7.4 6.5-3.2 3.9-5.1 8.6-5.5 13.5-.1.4-.1.8-.1 1.2v1.2c0 .8.1 1.7.2 2.5.7 3.2 1.8 6.3 3.2 9.3 2.9 5.9 6.3 11.5 10.1 16.8 3.7 5.4 7.7 10.5 11.8 15.6s8.3 10 12.6 14.9c-4.2-5-8.3-10-12.3-15.1s-7.9-10.3-11.6-15.7a127.72 127.72 0 0 1-9.9-16.8c-1.4-2.9-2.5-6-3.1-9.1-.1-.8-.2-1.6-.2-2.4s0-1.6.1-2.4c.2-1.6.5-3.2.9-4.7.9-3.1 2.4-6 4.5-8.5 2-2.5 4.5-4.7 7.2-6.4 1.4-.9 2.8-1.6 4.3-2.3.7-.3 1.5-.6 2.2-.9s1.5-.5 2.3-.7c1.6-.2 3.2-.4 4.8-.4h4.9c6.5.2 13 .8 19.5 1.4s12.8 1.6 19.3 2.4zm-21.4 25c1.2 1.2 2.2 2.6 3.2 4l3.3 4.1h0l-.6-1.2-2.1-4.1c0-.1.1-.2.1-.1l2.6 3.9c.3.7.7 1.3 1 2l.5 1.1c.1.2.1.4.2.5.5.6 1 1.3 1.5 2l3.1 4.5c.1.1-.1.2-.1.1l-3.4-4-3.2-4.2-3-4.2c-1.2-1.4-2.2-2.8-3.1-4.4-.1 0-.1 0 0 0zm-1.2 65.1c.9-.9 1.9-1.7 2.8-2.5l2.8-2.5 5.9-4.9c3.9-3.3 7.9-6.5 11.9-9.7l6.7-5.4s.1 0 .1.1l-11.4 10a295.72 295.72 0 0 1-11.9 9.8c-1.1.9-2.2 1.8-3.4 2.6s-2.3 1.8-3.5 2.6c0 0-.1-.1 0-.1z"/><path d="M408.9 326.7a41.3 41.3 0 0 1 .3 11.1c-.4 3.7-1.4 7.3-3.1 10.6s-4.3 6-7.5 7.9c-3.3 1.8-6.9 2.8-10.6 2.9-3.7.2-7.4.1-11.1-.4s-7.4-1.1-11-2a154.59 154.59 0 0 1-21.3-6.6l-.3-.1-.1.2c-.5.9-.8 1.8-.9 2.8-.2 1-.2 2 0 2.9.2 1 .5 1.9.9 2.8.5.9 1 1.7 1.5 2.5 2.2 3.1 4.6 6 7.1 9l7.4 8.7a306.94 306.94 0 0 0 7.6 8.5l-7.4-8.7c-2.5-2.9-4.9-5.8-7.3-8.8s-4.8-5.9-7-9l-1.5-2.4c-.4-.8-.7-1.7-.8-2.6a8.78 8.78 0 0 1 .8-5.3l-.4.1c7 2.7 14.1 5 21.4 6.7 3.6.9 7.3 1.5 11 2s7.5.6 11.2.4c3.8-.2 7.5-1.2 10.8-3.1 3.3-2 5.9-4.8 7.6-8.2s2.7-7 2.9-10.8c.6-3.6.4-7.4-.2-11.1zm-17.8-1.3c.3 2 .7 3.9 1.2 5.9.3 1.8 1 3.5 1.9 5 1 1.3 2.4 2.4 3.9 3.2a15.95 15.95 0 0 0 2.7 1.2c1 .3 1.9.7 2.8 1.1.1.1.1.2.1.3s-.1.1-.2.1a15.47 15.47 0 0 1-3.1-.6l-2.9-1c-1.7-.8-3.2-2-4.3-3.5-1-1.6-1.7-3.5-1.9-5.4-.4-2.1-.5-4.2-.5-6.3 0-.2.2-.2.3 0zM388 219.5s8.9-4 16.1 1.3 9.8 17.3 7.7 26.9 5.3 16.7 5.6 24.1-4.8 10.3-6.7 13.9c-2.2 4.2 3.9 20.3-15.1 22.3-23.7 2.6-31.4-12.5-28-24.1 1.6-5.7 5.2-9.6 5.6-14.3s-2.7-8.7-.5-14.5 4.5-4.8 6.2-14.1.7-20.6 9.1-21.5z"/><path d="M402.5 220.4c4.7 3.6 8.1 8.5 9.9 14.2.9 2.8 1.3 5.7 1.3 8.6-.1 3.8-1 7.4.2 11.2 1.8 6.1 5.9 11.4 5.2 18-.4 3.1-1.6 6-3.5 8.4-2.3 2.8-5.3 4.9-7.3 8-.1.1-.3 0-.2-.1 1.6-2.7 4.1-4.7 6.2-7.1 2.5-2.8 4-6.3 4.3-10.1.3-6.3-3.7-11.5-5.4-17.4-.6-2.6-.7-5.3-.3-7.9.4-3.2.2-6.4-.4-9.5-1.6-6.3-5.1-12-10-16.3 0 .1-.1 0 0 0zm3.9 72.1h0zm-38.6-10.3c.8-2.8 2.5-5.2 3.3-7.9 1-3.3.4-6.7 0-10.1-.5-4.8-.1-9.2 2.4-13.5 1.6-2.8 3.4-5.3 4.7-8.2 1.4-3.2 2.2-6.6 2.6-10 0-.1.1-.1.1 0a32.22 32.22 0 0 1-4.3 14.2c-1.5 2.5-3.3 4.9-4.2 7.7-1 3.3-1.3 6.8-.8 10.2a41.02 41.02 0 0 1 .3 7c-.3 2.4-1.1 4.6-2.2 6.7-2.7 5.5-3.2 11.9-1.4 17.8 0 .1-.1.2-.2 0-1.5-4.5-1.6-9.4-.3-13.9z"/><path d="M418.1 271c.2-5.2-3.1-9-4.9-13.6-1.4-3.5-2.2-7.2-1.3-10.9 0-.1.1 0 .1 0-.7 5.4 1.1 10.5 3.8 15.2 1.7 3.2 3.1 6.2 2.9 9.8s-1.9 6.4-4.2 9.2c-1.6 2-3.2 3.8-4 6.2-.7 2.4-1 5-1 7.5 0 .1-.2.1-.2 0 0-3.9.2-7.6 2.5-11 2.6-4.2 6.1-7.2 6.3-12.4zm-50.9 7.4c1-1.7 2.1-3.3 3.4-4.8 2.2-2.7 2.7-5.1 2.4-8.6 0 0 .1-.1.1 0 .7 2.9.7 5.3-1.2 7.8-2.6 3.5-5.2 6.6-6.1 10.9-1.5 7.7 2.3 15.2 9 19.7.1.1 0 .2-.1.1-5.6-3.2-9.3-8.9-9.8-15.4-.1-3.2.7-6.6 2.3-9.7z"/></g><g class="X"><path d="M384.3 270.1c-4.2 19.8-10.7 36.5-16.1 40.3-4.4 3.1-41.3 10.4-42.6 10.5-3.2.3-9.2-20.6-7-23.2.5-.6 36-3.9 37.1-5.1s11.7-15.2 20.1-26.1c6-7.5 10.9-7.4 8.5 3.6z"/><path d="M331.9 318.6c-3 1.5-6.2 2.8-9.4 3.9-2.6.7-10 2.7-11.1-.1-.8-1.9 3.5-3.5 6.4-4.8 1.6-.6 3.5-2.3 3-3.3-.8-1.8-4.8 0-7.5 1.5-5.1 3-11.9 8.3-15 5.7-1.2-1 .2-2.8 2.2-4.5-3.2 2-6.7 3.7-8.1 2.7-.7-.6-.9-1.6-.4-2.3-.8.4-1.8.2-2.5-.4-1.1-1.1-.5-2.7.6-4.4-.4 0-.8-.3-1-.6-2.2-3.4 9-13.2 12.9-14.1 7.7-1.6 15.7-2.2 23.5-1.7 4.7 3.5 6.4 22.4 6.4 22.4z"/></g><path d="M315.2 308c-2.7.4-5.3 1.4-7.6 2.9-2.7 1.8-4.8 4.3-7.2 6.4v.1h.1l3.6-3 3.5-3c2.2-1.7 4.8-2.8 7.6-3.4 0 .1 0 0 0 0zm-2.2-4.9c-3 .7-6 1.7-8.9 3.1-3 1.5-5.4 4.1-7.8 6.5l-4.1 4.5c0 .1 0 .2.1.1 2.4-2.5 4.8-5 7.4-7.3 2.3-2.2 5.1-3.9 8.1-5.1 1.7-.7 3.4-1.2 5.2-1.8h0zm-3.2-4.2c-2.9.6-5.5 1.1-8 2.7-2.9 1.9-5.5 4.2-7.9 6.8-1.3 1.4-2.5 2.8-3.7 4.2 0 .1 0 .1.1.1 2.8-3.1 5.7-6.1 8.9-8.8 1.5-1.3 3.2-2.4 5-3.2 1.9-.8 3.8-1.4 5.6-1.8h0z" class="S"/><path d="M325.1 295.4l7 26.5S361 316 369 310.3s14-31 16-42-5.4-7.5-9.9-1.9l-19.9 25.4c-.5.4-30.1 3.6-30.1 3.6z" class="U"/><path d="M338.8 319.5c-.4-2-1-4-1.6-5.9l-1.7-5.8c-1.2-3.9-2.2-7.8-3.6-11.6 0 0 0-.1-.1-.1s-.1 0-.1.1c.8 4 2 7.9 3.1 11.8l1.8 5.9c.6 1.9 1.2 3.8 2 5.6.1.1.2 0 .2 0z" class="S"/><path d="M385 268.3c-2.1 11-8.1 36.3-16 42-4 2.9-13.2 5.8-21.4 8l33.9-56.9c2.7-1 4.7.5 3.5 6.9z" fill="#c7c7c7"/><path d="M417.5 329.7l-30.2-4.4-21.9-3.2-6.6-1 5-17.9 2.1-7.4s-3.6-6.2-1.9-11.6c2-6.1 18.3-22.6 19.5-23.4 5-3.2 10.5-3.4 15.3 3.2 2.5 3.8 4.4 7.8 5.8 12.1 1 2.6 1.9 5.4 2.8 8.4 6.1 20 10.1 45.2 10.1 45.2z" class="U"/><g class="S"><path d="M382.6 298.1c-2.4-.5-4.8-.8-7.3-1h-3.6-1.8c-.6 0-1.3-.1-1.9-.2m0 .1c.6.2 1.1.4 1.7.5l1.7.2c1.2.1 2.5.1 3.7.1l7.5.5c.1 0 .1-.2 0-.2L368 297zm19.7 5l-5.7-2.1c-1-.3-2-.5-2.9-.7l-1.4-.3c-.4-.1-1.1-.1-1.6-.2 0 0-.1.1 0 .1.5.1 1 .3 1.4.4l1.5.4 2.9.8 5.8 1.7c.1.1.1-.1 0-.1zm-21.8-6.1c-1.5-2.2-2.5-4.9-2.6-7.6-.1-1.4.1-2.8.4-4.1.4-1.3 1-2.5 1.7-3.7a51.57 51.57 0 0 1 4.9-6.4c1.8-2 3.7-3.9 5.7-5.7l-5.3 6c-1.7 2-3.3 4.2-4.7 6.4-.7 1.1-1.3 2.3-1.7 3.5-.4 1.3-.5 2.6-.5 3.9a17.4 17.4 0 0 0 2.1 7.7z"/><path d="M374.5 268.9c-.5 1.1-1.1 2.1-1.9 3 .2-.5.5-1.1.9-1.6.3-.5.6-1 1-1.4z"/></g><path d="M394 261.9c-.4 1-6.1 7.1-10.8 6.4-1.5-.2-.5-8.7-.5-8.7l-.1-.6-.9-8.9 11-5.4 1.6-.7.2 5.5v.4.5 1.4 1.1 1.1c0 2.6-.1 5.3-.5 7.9z" class="X"/><path d="M394.5 249.5a17.63 17.63 0 0 1-11.8 9.5l-.9-8.9 11-5.4 1.6-.7c-.1 0 0 2.4.1 5.5z" class="S"/><path d="M382.7 259.6l1.3 7.4 10.3-6.8 1.8 3.3s-11.2 11.9-11.1 11.3l-1.5-6.5-4.9 3.2 2.5-10.2 1.6-1.7z" class="T"/><path d="M379.5 266.4l1.5-5c0-.1.1-.1.1 0 0 1.7-1.9 8.1-2.2 9.6h0c.2-.1 4.5-2.8 4.5-2.7.4 1.1 1.5 5.8 1.6 6.2 1.8-1.9 9.2-9.3 11.2-11 .1 0 .1 0 .1.1-1.6 2-11.3 11.8-11.3 11.8-.7-2.3-1.2-4.5-1.6-6.8-1.6 1.3-3.4 2.4-5.2 3.4.3-1.9.8-3.8 1.3-5.6z" class="S"/><path d="M373.3 232c-7 14.1.7 19.9 3.8 21.4 2.8 1.4 12.4 5.6 20.8-7.7s4-21.1-2.1-24.5-15.5-3.4-22.5 10.8z" class="X"/><g class="S"><path d="M376.5 230.5c.4.1.7.2 1.1.2.4.1.8.1 1.1 0 .2-.1.3-.4.3-.6a1.44 1.44 0 0 0-1.1-.9c-.5-.1-1-.1-1.5.1-.3.1-.5.5-.3.8.1.2.2.4.4.4zm9.9 4.5l-.9-.6c-.3-.3-.6-.4-.8-.8 0-.2.1-.5.3-.6.5-.2 1-.1 1.4.3a2.73 2.73 0 0 1 .9 1.2c.1.3-.2.6-.5.7-.2-.1-.3-.1-.4-.2zm-3.9 2.5v.1c-.5.9-.9 2.1-.2 2.9v.1c-1.1-.7-.5-2.3.2-3.1z"/><path d="M383.8 236.9c1.6.6.2 3.8-1.3 3.2s0-3.7 1.3-3.2z"/><path d="M384.4 237.4c.2.3.3.7.6.9s.8 0 1.2-.2v.1c-.3.6-.8 1.1-1.5.9s-.8-.9-.7-1.6c.1-.1.3-.3.4-.1zm-7.3-2.6s-.1 0-.1.1c-.4 1-1 2.1-2.1 2v.1c1.2.3 2-1.1 2.2-2.2z"/><path d="M376.7 233.4c-1.5-.8-3 2.3-1.6 3.1s2.9-2.4 1.6-3.1z"/><path d="M375.9 233.3c-.3.1-.7.2-1 .1s-.4-.6-.5-1h-.1c-.4.5-.3 1.2.1 1.7.5.4 1.1 0 1.5-.5.1-.1.1-.3 0-.3zm3.1 12.3c-.3.2-.7.3-1.1.3-.4-.2-.7-.4-1-.7m0 0c.1.5.5.9 1 1s.9-.2 1.1-.6l-2.1-.4zm-.4-5l-1.2 2c0 .1.1.2.4.3h0c1.1.8 2.5.9 3.7.2 0 0 .1-.1 0-.1h-.1c-1.2.2-2.3 0-3.4-.5 0-.2 1.6-2.3 1.5-2.3-.6-.2-1.1-.3-1.7-.4 1.7-2.9 3.9-5.5 5.6-8.4v-.1h-.1c-2.4 2.7-4.6 5.6-6.4 8.8-.3.3 1.4.5 1.7.5zm20.6 4.7c-2.9-.5-1.7-7.1-1.7-7.1s-11.3-5.5-9.5-15.5c-2.7 3.5-6.6 5.8-10.9 6.5 0 0 3.5-10.5 12.5-10.1 0 0 11.6-.7 15 9.3s-3.5 17.2-5.4 16.9z"/><path d="M386 221.6c-.6 1.5-.8 3-.8 4.6s.4 3.1 1.1 4.6l.6 1 .3.5c.1.2.2.3.4.5.2.3.5.6.7.9s.5.6.8.8.3.3.4.4l.5.4.9.7 2 1.1-1.8-1.4-.9-.8-.4-.4c-.1-.1-.2-.3-.4-.4s-.5-.6-.8-.9-.4-.6-.6-.9l-.3-.4-.3-.5a4.67 4.67 0 0 1-.5-1c-.6-1.4-1-2.8-1.2-4.3-.1-.8-.1-1.5 0-2.3 0-.7.1-1.4.3-2.2z"/></g><path d="M395 250.2c-.2 0-.5 0-.7-.1-.2 0-.5-.1-.7-.2-.3-.1-.5-.3-.7-.6-.2-.2-.3-.4-.4-.6-.1-.3-.2-.7-.2-1l2.3-3.6s5-3.3 6.6-1.4-3.4 7.5-6.2 7.5z" class="X"/><path d="M399.7 244.2c-2 0-3.5 1.3-4.8 2.7.6-.5 1.6-.4 2.1.2 0 .1.1.1.1.2 0 0 0 .1-.1.1-.5-.4-1.3-.5-1.9-.1-.5.3-.9.7-1.3 1.1-.1.1-.4-.1-.2-.2h0c.8-2.4 3.6-4.8 6.1-4h0z" class="S"/><path d="M395 249.5a.78.78 0 0 1-1 .2.78.78 0 0 1-.2-1 .78.78 0 0 1 1-.2c.3.2.4.6.2 1zm1.8-.5c-.2.2-.5.3-.7.2s-.3-.5-.2-.7c.2-.2.5-.3.7-.2.3.1.4.5.2.7z" class="T"/><path d="M376.3 290.3s8.5-15.5 13.4-23.5 9.5-6.5 9.9 2.8 3.1 21.2-5.6 36.5c-22.6 39.5-17.7-15.8-17.7-15.8z" class="U"/><path d="M394.8 237.8L373 253.1c-.5.2-.7.7-.6 1.2a1.38 1.38 0 0 0 .3.4l7.1 9.5c.7.5 1.6.6 2.3.2l21.8-15.4a.88.88 0 0 0 .5-1.2 1.38 1.38 0 0 0-.3-.4L397 238c-.6-.5-1.5-.6-2.2-.2z" class="Z"/><path d="M395.4 238.6l-21.8 15.3a.88.88 0 0 0-.5 1.2 1.38 1.38 0 0 0 .3.4l7.1 9.5c.7.5 1.6.6 2.3.2l21.8-15.3c.5-.2.7-.7.6-1.2a1.38 1.38 0 0 0-.3-.4l-7.1-9.5c-.8-.6-1.7-.6-2.4-.2z" class="U"/><path d="M397.4 241.9c-.4.5-1.1.5-1.6.1s-.5-1.1-.1-1.6 1.1-.5 1.6-.1.5 1.1.1 1.6z" class="S"/><g class="X"><path d="M370.6 313.8c.1 8.3 11.2 9.5 15 5.7 8.9-8.9 16.2-27.6 19.4-38.5 1-3.5-22.2-11.7-23.9-8.2-1.9 4.1-10.6 24.7-10.5 41z"/><path d="M399.7 286.9c4-3.4 7.1-7.6 9.3-12.4 2.3-5.2 6-17.2-4-31-2.4-3.3-8.1-6.3-6.1.5 1.4 4.8 3.7 7.4 4 10.4 0 0-7.7-2.9-10.9-.4-2.8 2.2-5.4 4.6-7.9 7.1.4.6.8 1.1 1.2 1.6-2.2 2.9-3.6 6.4-4 10l18.4 14.2z"/><path d="M410.3 269.1c-.9-2.9-2.9-8.9-6.3-13.2-3.7-4.8-12.2-13.1-15.8-10.3-2.6 2 .4 5.5.4 5.5s-4.2-2.7-6.2-.3c-1.8 2.1.7 4.7.7 4.7s-2.9-1.2-4.1 1.2c-1.6 2.9 4.7 4.9 5.6 9.2.3.9 25.7 3.2 25.7 3.2z"/></g><path d="M399.6 260.7a23.97 23.97 0 0 0-10.8-9.6c-.1-.1-.2 0-.1.1 4 2.7 7.6 5.9 10.9 9.5 0 .1 0 .1 0 0zm-5 3.7c-1.3-2.1-6.1-7.1-11.4-9-.1 0-.2 0-.1.1 4.2 2.5 8 5.5 11.5 8.9z" class="S"/><path d="M369.5 315.2c.5 8.3 12 9.7 16 5.9 9.3-8.9 16.8-27.6 20.1-38.5l-26.6-8.2c-2.1 4.1-10.4 25-9.5 40.8z" class="U"/><path d="M380.3 274.7l-1.3-.4h0c-1.5 4.1-2.9 8.4-4.2 12.6s-2.5 8.5-3.4 12.9-1.8 8.7-1.7 13.1c0 2.2.5 4.3 1.6 6.2.6.9 1.3 1.6 2.2 2.2.9.5 1.9.9 3 1.1 2.1.4 4.3.3 6.4-.5 2-.9 3.8-2.1 5.3-3.7 2.9-3.3 5.3-7 7.2-11 2-4 3.7-8.1 5.4-12.1s3.5-8.2 4.8-12.4h0l-.8-.3.9.3h0c-.6 2.2-1.3 4.2-2.1 6.3l-2.4 6.2-5.3 12.3c-1 2-2 4-3.2 5.9s-2.5 3.7-4 5.4-3.4 3-5.5 3.9c-2.2.8-4.5 1-6.8.6a9.58 9.58 0 0 1-3.2-1.2c-1-.6-1.9-1.4-2.5-2.4-1.1-2-1.7-4.3-1.7-6.6 0-2.2.1-4.5.5-6.7.3-2.2.8-4.4 1.3-6.6 2.1-8.7 4.8-17.2 8.2-25.4h0l1.3.3zm9.1 10.8c-2-.6-9.9-2.7-11.9-3-.1 0-.1.1 0 .1 1.9.8 9.8 3.2 11.8 3.8 3.9 1.2 8 2.2 12 3 .1 0 .1-.1.1-.2-4-1.4-8-2.6-12-3.7z" class="S"/><g fill="#22205f"><path d="M233.5 148.2c-.2-.5-.6-2-.6-2.4.1 0 .1-.1.2-.1 1.1-.5 1.8-1.4 2-2.6.3-1.8-.8-3.1-1.9-3.6-.1 0-.2-.1-.3-.1v-.2l.7-2.4c0-.1.1-.1.1-.2.7.5 1.5.6 2.3.4.7-.2 1.1-.6 1.5-1.2.4-.7.4-1.4.1-2.1s-.8-1.2-1.5-1.5c.3-.5 1.6-2 2-2.3 0 .1.1.2.1.2.4.6.9 1 1.6 1 1.1.1 2-.8 2.1-1.8.1-.6-.1-1.2-.6-1.7l-.1-.1c.5-.4 2.6-1.4 4-1.8 2.5-.7 4.9-.9 7.5-.5 2.7.4 5.1 1.4 7.4 2.9 6.7 4.6 9.3 12.9 6.6 20.3-2.7 7.7-9.8 11.6-15.9 11.7v-.2-5.2-.2c.2 0 .3-.1.5-.1 2.5-.2 4.8-1.1 6.8-2.6.2-.1.3-.3.5-.4.1-.1.2-.3.3-.4s.1-.2.1-.4c0-.4-.3-.5-.6-.4l-.3.3c-1 .9-2.1 1.6-3.3 2.1-.9.4-1.9.6-2.8.7-.5.1-1 .1-1.6.1-2 0-3.9-.5-5.6-1.6-2.9-1.8-4.8-4.4-5.8-7.6-.2-.5-.3-1.1-.4-1.6 0-.2-.1-.3-.1-.4-.2-.3-.5-.3-.7 0-.1.1-.1.3-.1.4 0 .3.1.6.1.9.3 1.9 1.1 3.5 2.2 5 1.7 2.2 3.8 3.9 6.3 5 1.1.4 2.2.7 3.4.8h.1c.1.1 0 .2.1.3v2 2.9.3c-.5.1-2.5-.2-3.7-.4-1.2-.3-2.4-.7-3.5-1.2s-2.2-1.2-3.1-1.9c-1-.8-1.9-1.6-2.7-2.5-.1 0-.1.1-.2.2-.2.5-.5.9-.9 1.3-.7.7-1.6 1.1-2.6 1.2-2.1.2-4.3-1.2-4.7-3.6-.3-2.3 1.1-4.2 3-4.7.5-.1 1.2-.1 2 0 .7 2.2 1.7 4.1 3.2 5.7.1 0 .1-.1.1-.2.8-2.4-.6-4.7-2.7-5.4-.3 0-.4-.1-.6-.1zm28-6.8v-1c0-.2 0-.3-.1-.5s-.2-.3-.5-.3c-.2 0-.4.1-.4.4v.4c.1 1.1.1 2.1-.2 3.1-.9 4.3-4.5 7.7-9.1 8.1-.5 0-1 0-1.3-.4-.4-.3-.8-.6-1.1-1-.2-.2-.4-.4-.5-.6-.2-.4-.3-.8-.2-1.2 0-.2.1-.4.1-.6.1-.2.2-.5.3-.7.1-.4.2-.7.3-1.1 0-.8-.2-1.4-.8-1.9a1.38 1.38 0 0 0-.4-.3c-.1-.1-.3-.2-.4-.3-.2-.2-.2-.5-.1-.8.1-.1.1-.2.2-.3s.1-.2.2-.2c.3-.4.5-.8.6-1.3.1-.4.1-.7 0-1.1-.1-.6-.5-1-1.1-1.3-.4-.2-.9-.1-1.3 0-.6.1-.9.5-.9 1.2v.6c0 .5-.1 1-.4 1.4-.1.2-.3.4-.4.5l-.6.6-.3.3c-.1.1-.3.1-.4 0-.2-.1-.3-.2-.3-.4v-.3c0-.4.1-.7.2-1.1.1-.2.1-.4.2-.6a.55.55 0 0 0-.3-.5c-.2-.1-.3-.2-.5-.2-.4-.1-.7-.1-1.1-.2h-.7c-.4 0-.8.2-.9.9v.4c0 .9.1 1.8.2 2.7.7 3.7 3.4 6.8 6.8 8.1.4.2.9.3 1.4.4.3.1.5-.1.6-.4 0-.2 0-.3-.2-.4-.1-.1-.2-.1-.3-.1-.2-.1-.5-.1-.7-.2-1.6-.5-2.9-1.4-4.1-2.6-1.8-1.9-2.7-4.2-2.8-6.8v-.5c0-.2.2-.4.4-.4.2-.1.5 0 .7 0s.2.2.2.3v.2c0 .1-.1.2-.1.4-.1.5-.1 1 .2 1.5.1.3.3.5.5.7s.4.3.7.3c.2 0 .4-.1.6-.2l.9-.6a6.57 6.57 0 0 0 1.2-1.7c.2-.5.3-1 .3-1.6v-.3c0-.3.1-.4.4-.5h.4c.4.1.7.3.7.7s0 .8-.2 1.1c-.1.2-.2.4-.4.5-.2.2-.3.4-.4.7-.2.5-.2 1 .1 1.4.1.2.3.4.5.5.1.1.3.2.4.4.3.4.5.8.5 1.3 0 .2-.1.4-.1.6-.1.4-.2.7-.3 1.1-.2.5-.2.9-.1 1.4a4.32 4.32 0 0 0 1.2 2.2c.4.4.8.7 1.3.9.3.1.7.2 1 .2.7 0 1.4-.1 2.1-.3 3.5-.9 6.2-3.3 7.5-6.4.9-1.2 1.1-2.7 1.1-4.3zm-8.9-2.2c-.1 0-.1-.1-.1-.1-.1-.1-.2-.3-.3-.5-.2-.3-.3-.7-.5-1-.1-.1-.1-.3-.2-.4 0-.1 0-.2-.1-.3 0-.3.1-.5.3-.7.1-.1.3-.2.5-.2.2-.1.4-.1.7-.2.5-.1.8-.4.9-.9 0-.1 0-.2.1-.2.1-.5.1-1 0-1.5s-.3-1.1-.4-1.6c0-.1-.1-.2-.1-.3-.1-.2-.3-.4-.5-.5-.1 0-.2-.1-.3-.1-.5-.1-.9-.2-1.4-.2-.8 0-1.6 0-2.4.1-1.2.2-2.3.6-3.3 1.1-1.8.9-3.3 2.2-4.4 4-.5.8-.9 1.7-1.2 2.7v.1c0 .2 0 .3.2.4a.45.45 0 0 0 .5 0l.1-.1c0-.1.1-.2.1-.3.3-.9.7-1.7 1.2-2.5 1.4-2.2 3.3-3.6 5.8-4.3.9-.3 1.9-.4 2.8-.4.3 0 .6 0 1 .1.9.1 1.4.7 1.5 1.6v.9c0 .5-.3.8-.7 1-.1 0-.3.1-.4.1-.6.2-1 .5-1.3 1s-.3.9-.1 1.4c.3.8.8 1.5 1.3 2.2l.3.3c.3.2.6.3 1 0a.78.78 0 0 0 .4-.4c.2-.2.3-.5.5-.8.1-.2.3-.5.4-.8.1-.1.1-.2.2-.3.2-.2.3-.2.5 0 .1.1.2.2.2.3.2.3.3.6.4.9.3.6.8 1 1.5 1 .5 0 1 0 1.5-.1.6-.1 1.1-.3 1.7-.4.2 0 .3-.1.5-.2.3-.1.4-.3.3-.6 0-.2-.1-.4-.2-.6-.2-.6-.5-1.1-.8-1.7-.3-.7-.8-1.3-1.3-1.9-1.1-1.3-2.5-2.3-4.1-3-.1 0-.2-.1-.3-.1-.2-.1-.4 0-.5.2a.47.47 0 0 0 .1.6c.1.1.2.1.3.2l.6.3c2.2 1.2 3.8 2.9 4.8 5.2 0 .1.1.2.1.3.1.3 0 .5-.4.6h-.1c-.4.1-.7.2-1.1.2-.4.1-.8.1-1.2 0-.3-.1-.6-.2-.7-.5-.1-.2-.2-.3-.2-.5-.1-.4-.4-.7-.7-.9-.1-.1-.2-.2-.4-.2-.4-.2-.7-.2-1.1.1-.1.1-.3.2-.4.4s-.2.3-.3.5-.2.4-.3.7c0 .3-.2.5-.5.8zm4 2.3c-.3 0-.7.1-1 .2-.5.2-1 .4-1.5.8-.4.3-.8.5-1.3.5-.3 0-.6.2-.8.5s-.1.6.2.9c.6.5 1.2.9 1.9 1.3.3.1.6.3.9.4.1 0 .2.1.2 0 .3-.1.6-.1.9-.2s.5-.3.7-.6.4-.6.7-.9c.2-.3.4-.6.7-.8.1-.1.1-.2.2-.3.2-.4.1-.8-.2-1.1-.2-.2-.3-.3-.5-.3-.4-.4-.7-.4-1.1-.4zm-5.9 8.9h.2c.5 0 1-.4 1.1-.9.1-.6-.2-1.4-.7-1.7-.2-.1-.5-.2-.7 0-.6.3-1 .7-1.1 1.3-.1.5.1.9.6 1.2a2.18 2.18 0 0 0 .6.1z"/><path d="M232.8 145.7c-1.3.5-2.9 0-3.8-1.2s-.8-3 .1-4.1c1-1.2 2.7-1.5 3.7-1 0 .4-.1.8-.2 1.2 0 .4-.1.9-.1 1.3v1.3c0 .4 0 .9.1 1.3 0 .4.1.8.2 1.2zm.8-9.3c-.7-.4-1.4-1.8-.7-3.1.6-1.2 2.1-1.6 3-1.2 0 0 0 .1-.1.1-.9 1.2-1.6 2.6-2.2 4 .1.1 0 .1 0 .2zm4.5-6.7c-.3-.7-.1-1.7.6-2.2s1.7-.5 2.3 0c-.2.2-.5.3-.8.5s-.5.4-.8.5c-.2.2-.5.4-.7.6-.1.2-.3.4-.6.6zm15.4 14.3c.1 0 .2-.1.3-.1.3-.1.5-.2.7-.5l.1-.1c.3-.4.7-.7 1.2-.8.4-.1.8-.1 1.2-.2h.2c.2 0 .3.2.2.4 0 .1-.1.1-.1.1-.4.3-.7.8-.9 1.2-.1.1-.2.3-.3.4a.55.55 0 0 1-.5.3c-.2 0-.3 0-.5-.1-.1 0-.2-.1-.3-.1-.4-.2-.7-.5-1.1-.7-.1.2-.1.2-.2.2zm-3 5.5s-.1 0-.2-.1c-.1 0-.2-.1-.1-.3s.2-.4.3-.5.3-.1.4.1c0 .1.1.1.1.2.1.3 0 .5-.3.5 0 .1-.1.1-.2.1z"/></g><defs ><path id="B" d="M245.7 212.5a1.54 1.54 0 0 0-1.5 1.5 1.54 1.54 0 0 0 1.5 1.5 1.54 1.54 0 0 0 1.5-1.5 1.47 1.47 0 0 0-1.5-1.5h0z"/><path id="C" d="M250 212.5a1.54 1.54 0 0 0-1.5 1.5 1.54 1.54 0 0 0 1.5 1.5 1.54 1.54 0 0 0 1.5-1.5 1.54 1.54 0 0 0-1.5-1.5z"/><path id="D" d="M254.2 212.5a1.54 1.54 0 0 0-1.5 1.5 1.54 1.54 0 0 0 1.5 1.5 1.54 1.54 0 0 0 1.5-1.5 1.47 1.47 0 0 0-1.5-1.5z"/><path id="E" d="M436.5 420.7S402 437 356.8 437c-48 0-71.4-15.6-71.4-15.6-35.1-27.5-38.7-68.4-13.7-93.1 15.1-15 26.2-12 44.5-14.3h0c6.5-.7 12.8-2.5 18.6-5.5 18.9-10 29.5-33.4 45.4-53.2 2-2.5 4.1-4.9 6.2-7.2 13-13.9 39-14.4 52.6 5.2 34.6 49.7 33.6 123.8-2.5 167.4z"/></defs></svg>