<svg xmlns="http://www.w3.org/2000/svg" viewBox="0 0 500 500" xmlns:v="https://vecta.io/nano"><style><![CDATA[.B{fill:#263238}.C{fill:#fff}.D{fill:#417cfe}.E{fill:#e0e0e0}.F{fill:#455a64}.G{opacity:.3}.H{fill:#ebebeb}.I{fill:#ffbe9d}]]></style><path d="M117.28,119.93c.75-5.44-6.93-9.92-12.7-10.39-2.75-.22-5.61.2-8.22-.71-5.65-2-7.9-9.26-13.41-11.59-4.12-1.73-8.87-.19-12.86,1.82s-8,4.54-12.41,4.83c-3.88.25-8.1-1.19-11.49.71-2.53,1.41-3.86,4.32-6.19,6.05s-5.26,2-8.09,2.19-5.76.18-8.34,1.36-4.71,3.91-4.18,6.69Z" class="H"/><path d="M362.94 39c5.65-6.58 20.33-2.44 30.38 2.94 0 0 6.92 3.27 9.5 5h.08L426.42 44a9.55 9.55 0 0 1 5.56 1l1.93 1a1.29 1.29 0 0 1-.08 2.33l-17.31 7.41v.21l17.09 11.23.26.17a15.29 15.29 0 0 0 10.88 2.16l9.15-1.64a2.53 2.53 0 0 1 1.39.12 2.3 2.3 0 0 1 .61 3.91l-10.6 8.87a5.61 5.61 0 0 1-5.94.79l-5-2.29-25.12-12 2.88 14.31a.93.93 0 0 1-1 1.1h-1.18a4.71 4.71 0 0 1-3.91-2.36L396 60.89l-29.67-14.11C362.38 45 361 41.57 362.94 39z" class="E"/><path d="M161.14,46.33c.52-3.72-4.73-6.78-8.68-7.1-1.88-.15-3.84.14-5.62-.48-3.86-1.35-5.41-6.34-9.17-7.93-2.82-1.19-6.07-.13-8.8,1.25s-5.43,3.1-8.48,3.3c-2.65.17-5.54-.82-7.86.48-1.73,1-2.64,3-4.23,4.14a10.15,10.15,0,0,1-5.53,1.5,15.42,15.42,0,0,0-5.71.93c-1.76.81-3.22,2.67-2.85,4.58Z" class="H"/><path d="M386.4 380.1c-.1.13-1-.39-1.93-1.16s-1.66-1.51-1.56-1.63 1 .39 1.94 1.16 1.66 1.53 1.55 1.63z" class="E"/><path d="M412.73 340.76c.16-3.68.26-7.45-.9-10.94s-3.85-6.7-7.46-7.45c-4.11-.85-8.32 1.75-10.63 5.26s-3.09 7.77-3.77 11.92a421 421 0 0 0-5.16 86.45l16.82 2.36c7.37-30.15 9.75-56.54 11.1-87.6z" class="H"/><path d="M402 322.24a1 1 0 0 1-.08.27l-.28.77-1.12 2.9-.8 2.1-.81 2.55-.94 2.93c-.33 1.03-.57 2.17-.87 3.34a144.44 144.44 0 0 0-3.25 16.65c-.91 6.33-1.51 13.33-2 20.7-.86 14.74-1 28.12-1.38 37.8l-.53 11.46-.21 3.11c0 .32-.05.59-.07.81a1.14 1.14 0 0 1 0 .27.84.84 0 0 1 0-.28v-.81c0-.76.06-1.8.1-3.11l.34-11.46c.27-9.68.34-23.06 1.2-37.83.47-7.37 1.08-14.4 2-20.74a138 138 0 0 1 3.43-16.67l.91-3.34 1-2.92.87-2.54c.26-.78.59-1.46.84-2.09l1.23-2.87.34-.74a.82.82 0 0 1 .08-.26zm1.6.01a12 12 0 0 1 2 3.48 25.92 25.92 0 0 1 1.54 10.89c-.45 9.3-1.28 22.11-2.39 36.25l-3.34 36.19-1.24 10.94-.38 3-.12.77a1 1 0 0 1-.06.26.92.92 0 0 1 0-.27c0-.21 0-.47.06-.78l.27-3 1.05-11 3.16-36.18 2.56-36.22a26.31 26.31 0 0 0-1.33-10.79 24.51 24.51 0 0 0-1.78-3.54zm11.66 43.55a9.14 9.14 0 0 1-3.19-.82 9.27 9.27 0 0 1-3-1.39 9.14 9.14 0 0 1 3.19.82 9.27 9.27 0 0 1 3 1.39zm2.03-17.15c.07.16-1.29.91-3 1.69a10.41 10.41 0 0 1-3.28 1.14 19.94 19.94 0 0 1 6.31-2.83zm-1.05-13.99a5.6 5.6 0 0 1-2.51.13 5.43 5.43 0 0 1-2.47-.48 5.52 5.52 0 0 1 2.51-.12 5.35 5.35 0 0 1 2.47.47zm-17.37-8.97c-.14.09-.87-.83-1.64-2.05s-1.28-2.28-1.14-2.37.88.83 1.65 2.05 1.26 2.28 1.13 2.37zm-5.73 8.46a4.94 4.94 0 0 1-2.39.25c-1.32 0-2.38-.18-2.38-.35s1.07-.28 2.39-.25a5.13 5.13 0 0 1 2.38.35zM389 351.09a6 6 0 0 1-2.52-.69c-1.32-.54-2.35-1.1-2.29-1.25a5.69 5.69 0 0 1 2.52.69c1.34.53 2.37 1.09 2.29 1.25zm-.42 14.24c0 .16-.93.5-2.14.75s-2.23.33-2.27.17.93-.5 2.14-.75 2.23-.34 2.27-.17zm-1.94 23.29c0 .17-1 .48-2.27.71a5 5 0 0 1-2.38.13c0-.17 1-.49 2.27-.72a5 5 0 0 1 2.38-.12zm-1.29 12.86c.08.15-.77.75-1.89 1.34s-2.1 1-2.18.81.77-.74 1.89-1.34 2.1-.96 2.18-.81zm10.5 14.6c-.14.08-.88-.94-1.65-2.28a6.89 6.89 0 0 1-1.13-2.58c.14-.09.88.94 1.65 2.28s1.28 2.5 1.13 2.58zm3.03-24.26c.12.12-.71 1.12-1.84 2.23s-2.14 1.91-2.26 1.79.71-1.11 1.84-2.22 2.14-1.92 2.26-1.8zm-.67-12.72c-.12.11-.89-.52-1.71-1.4s-1.38-1.7-1.26-1.81.88.51 1.7 1.4 1.39 1.71 1.27 1.81zm2.08-16.26c.13.11-.56 1.07-1.53 2.16s-1.86 1.87-2 1.76.56-1.08 1.53-2.16 1.88-1.88 2-1.76zm1.18-11.84c-.12.12-1.08-.63-2.14-1.68s-1.84-2-1.72-2.11 1.07.64 2.14 1.68 1.83 2.03 1.72 2.11zm2.3-15.92a5.94 5.94 0 0 1-1.07 2.39c-.74 1.23-1.45 2.17-1.6 2.08a6 6 0 0 1 1.08-2.39c.73-1.23 1.45-2.16 1.59-2.08zm4.33-14.78c.15.08-.28 1.15-1 2.39s-1.33 2.18-1.48 2.11a5.85 5.85 0 0 1 .95-2.4c.72-1.24 1.43-2.18 1.53-2.1zm4.9 6.7c.07.15-.6.63-1.5 1.06s-1.69.66-1.77.51.61-.62 1.51-1.06 1.76-.65 1.76-.51zm.14 53.1a6.74 6.74 0 0 1-3.29-.79 6.87 6.87 0 0 1-2.86-1.83 16.88 16.88 0 0 1 3.09 1.27 17.21 17.21 0 0 1 3.06 1.35zm-2.01 11.25c0 .16-1 .49-2.26.74s-2.35.32-2.38.15 1-.49 2.26-.74a4.9 4.9 0 0 1 2.38-.15zm-2.47 19.28a6.61 6.61 0 0 1-2.56-2.25 6.54 6.54 0 0 1-1.61-3 20.33 20.33 0 0 1 2.08 2.64 19.85 19.85 0 0 1 2.09 2.61zm-27.05 8.82c-.11-.13.58-.89 1.53-1.71s1.81-1.37 1.92-1.24-.58.89-1.53 1.7-1.81 1.37-1.92 1.25z" class="E"/><path d="M373.84 377.37c-1.1-3.42-3.15-7.41-6.74-7.46a6 6 0 0 0-5.05 3.38 12.51 12.51 0 0 0-1.37 6.19 161.25 161.25 0 0 0 7.72 44.82h13.14a156.2 156.2 0 0 0-7.7-46.93zm-23.76-21.53c-1.84-7.35-7.32-11.31-13.68-11.68-5.81 1-8.06 6.73-8.75 12.59s1.13 11.68 2.92 17.3q8.65 27 17.3 54.09l16.34-1.79c-5.21-24.15-8.14-46.54-14.13-70.51z" class="H"/><g class="E"><path d="M367.1 369.91a12.85 12.85 0 0 0-1.12 1.86 12.23 12.23 0 0 0-.61 5.81l1 8.79c.46 3.29 1 6.92 1.76 10.69 1.48 7.55 3.16 14.32 4.22 19.26l1.2 5.86.27 1.6a2 2 0 0 1 .06.57 2 2 0 0 1-.17-.54l-.39-1.58-1.39-5.81c-1.16-4.91-2.9-11.67-4.39-19.24-.74-3.78-1.32-7.42-1.72-10.74-.21-1.66-.35-3.24-.49-4.72l-.35-4.12a12 12 0 0 1 .83-5.93 5.15 5.15 0 0 1 1.29-1.76zm-30.46-26.22a21.37 21.37 0 0 0-2 2.66 18.69 18.69 0 0 0-2.49 8.55c-.25 3.8.6 8.32 2 13.16l4.66 15.8 8.37 28.76 2.46 8.73.65 2.38a4.32 4.32 0 0 1 .18.85 5.63 5.63 0 0 1-.3-.81l-.75-2.35-2.65-8.68-8.49-28.74-4.62-15.82c-1.4-4.87-2.22-9.46-1.91-13.34a18.34 18.34 0 0 1 2.71-8.65 10.27 10.27 0 0 1 2.18-2.5z"/><path d="M360.65 424.61a5 5 0 0 1-.37-.79l-.93-2.3c-.78-2-1.78-5-2.81-8.68s-2.06-8.18-3.05-13.18l-3.08-16.26c-1.08-5.77-2.4-11.19-3.87-16a89 89 0 0 0-4.76-12.59 66.67 66.67 0 0 0-4.41-7.94c-.56-.92-1.07-1.58-1.38-2.06a4 4 0 0 1-.45-.74 6.52 6.52 0 0 1 .55.67c.34.45.88 1.1 1.48 2a60.78 60.78 0 0 1 4.59 7.89 84.64 84.64 0 0 1 4.91 12.62 159.72 159.72 0 0 1 3.93 16.1l3 16.27c.9 5.01 2 9.38 3 13.11s1.91 6.69 2.62 8.71c.33 1 .64 1.8.82 2.34a4.32 4.32 0 0 1 .21.83zm-29.78-53.26c0 .16-.85.51-2 .79s-2.09.37-2.13.21.85-.52 2-.79 2.09-.37 2.13-.21zm-1.74-11.16a20.15 20.15 0 0 1-5.52.22 9.51 9.51 0 0 1 5.52-.22zM331 350c-.11.12-1-.45-2-1.29s-1.7-1.62-1.59-1.75 1 .45 2 1.29 1.67 1.63 1.59 1.75zm5-9.43c.17 0 .12.84.1 1.8s0 1.75-.2 1.78-.44-.77-.4-1.8.3-1.81.5-1.78zm10.15 4.43c.14.09-.26.9-.89 1.8s-1.25 1.55-1.39 1.45.27-.9.9-1.8 1.23-1.53 1.38-1.45zm6.61 11.5c.07.16-.78.65-1.89 1.1s-2.05.69-2.11.54.78-.65 1.89-1.1 2.05-.69 2.11-.54zm4.01 11.82a4.83 4.83 0 0 1-2.59 1.13 5 5 0 0 1-2.82.1 11 11 0 0 1 2.69-.68 10.79 10.79 0 0 1 2.72-.55zM338.36 365c-.16-.05-.05-.87.25-1.83s.68-1.69.83-1.64.05.86-.25 1.82-.67 1.65-.83 1.65zm2.57 14.8c-.16-.06.18-1.16.74-2.45s1.13-2.29 1.29-2.22a5.77 5.77 0 0 1-.74 2.46c-.56 1.29-1.14 2.28-1.29 2.21zm-6.35 4.06c-.06.16-1.1-.12-2.35-.51s-2.27-.75-2.23-.92a4.44 4.44 0 0 1 2.41.34c1.28.4 2.23.94 2.17 1.09zm3.66 12.14c.1.14-.6.8-1.56 1.49s-1.82 1.13-1.92 1 .61-.8 1.57-1.48 1.81-1.18 1.91-1.01zm2.93 12c0 .16-.82.51-1.93.78s-2 .36-2.08.2.83-.51 1.94-.78 2.03-.34 2.07-.2zm15.93-29.6c.08.14-.66.73-1.74 1.13s-2 .46-2.05.3.82-.47 1.84-.86 1.85-.72 1.95-.57zm2.27 18.76c-.07.15-.95-.11-2-.59s-1.78-1-1.71-1.14.95.11 2 .59 1.78.98 1.71 1.14zm4.02 13.43a6.3 6.3 0 0 1-2.6-.7 6.38 6.38 0 0 1-2.39-1.25 6.08 6.08 0 0 1 2.61.69c1.37.54 2.44 1.1 2.38 1.26zm-21.57 10.52c-.09-.15 1-.87 2.22-1.85s2.2-1.84 2.33-1.73-.66 1.19-1.95 2.2a5.41 5.41 0 0 1-2.6 1.38zm10.61-6.83c-.17 0-.4-.88-.81-1.93s-.83-1.87-.69-2 .82.62 1.25 1.75.41 2.17.25 2.18zm-2.81-16.15c-.1.14-.78-.19-1.53-.73s-1.28-1.08-1.18-1.22.78.2 1.53.73 1.28 1.09 1.18 1.22zm24.75-25.31c.1.14-.57.8-1.49 1.48s-1.75 1.12-1.85 1 .57-.79 1.49-1.47 1.75-1.14 1.85-1.01zM378.1 383c0 .16-1 .38-2.33.24s-2.27-.58-2.22-.73a6.73 6.73 0 0 1 2.29.13c1.23.16 2.24.21 2.26.36zm-16.04 2.31c0 .16-.93.5-2.18.59s-2.26-.13-2.24-.3 1-.22 2.2-.3 2.16-.16 2.22.01zm1.38-9.64c0 .16-1 .18-2.06-.31s-1.69-1.25-1.58-1.36.85.37 1.83.81 1.83.69 1.81.86zM379.47 394c-.09.14-1.09-.33-2.23-1.06s-2-1.42-1.92-1.56 1.09.33 2.24 1.06 2 1.39 1.91 1.56z"/><path d="M333.06 422.58h85.54v15.16h-85.54z"/><path d="M339.44 434.74l10.41 45.3h50.97l11.38-45.3h-72.76z"/></g><path d="M418.55 437.76c0 .17-19.3.3-43.09.3s-43.1-.13-43.1-.3 19.29-.3 43.1-.3l43.09.3z" class="H"/><path d="M371 385.64c-.14.09-.73-.59-1.31-1.52s-.94-1.75-.79-1.84.72.59 1.3 1.52.92 1.75.8 1.84zm0 12.2c-.16-.06 0-1.09.45-2.31s.86-2.16 1-2.11 0 1.09-.44 2.3-.84 2.17-1.01 2.12zm4.18 12.8c-.15.07-.79-.95-1.42-2.28a6.29 6.29 0 0 1-.89-2.55c.15-.07.79.95 1.43 2.29a6.12 6.12 0 0 1 .88 2.54zm-9.03 10.3c-.13-.1.38-.9 1.14-1.77s1.47-1.48 1.59-1.38-.38.91-1.14 1.78-1.47 1.48-1.59 1.37zm-1.9-18.7c0 .16-.85.15-1.84 0s-1.76-.45-1.73-.61.85-.16 1.84 0 1.76.45 1.73.61z" class="E"/><path d="M473.14 480.69c0 .14-100.8.26-225.13.26s-225.15-.12-225.15-.26 100.78-.26 225.15-.26l225.13.26z" class="B"/><path d="M356.304 100.681l119.068 31.915c2.179.584 4.037 2.01 5.165 3.964s1.433 4.276.849 6.455l-42.934 160.176c-.584 2.179-2.01 4.037-3.964 5.165s-4.276 1.433-6.455.849l-119.068-31.915h0l47.338-176.608h0z" class="D"/><g class="C"><path d="M398.81 239.61a26.85 26.85 0 0 1-6.92-.91A27.12 27.12 0 0 1 375 225.45a29.29 29.29 0 0 1-2.63-21.83c4.09-15.42 19.48-24.76 34.3-20.83a27.12 27.12 0 0 1 16.9 13.21 29.75 29.75 0 0 1-10.48 39.51 27.38 27.38 0 0 1-14.28 4.1zm1-55.72c-11.56 0-22.28 8.1-25.5 20.24a27.36 27.36 0 0 0 2.45 20.36 25.06 25.06 0 0 0 35.26 9.34 27.32 27.32 0 0 0 12.21-16.47h0a27.36 27.36 0 0 0-2.41-20.36 25.18 25.18 0 0 0-15.62-12.28 24.85 24.85 0 0 0-6.36-.83z"/><path d="M372.894 204.022l.512-1.933 52.199 13.831-.512 1.933z"/><path d="M390.462 237.271l14.298-53.927 1.933.513-14.298 53.927z"/><path d="M391.86 238.27l-1-1.75c7.46-4.06 12.65-8.12 16.33-12.77a31.56 31.56 0 0 0 6.45-20.75c-.6-6.95-4.62-13.25-8.16-18.81l1.68-1.08c3.67 5.76 7.84 12.28 8.47 19.72A33.16 33.16 0 0 1 408.8 225c-5.07 6.39-12.1 10.64-16.94 13.27z"/><path d="M390.61,238.1c-3.93-5.62-7.74-11.9-8.91-19.59a33.19,33.19,0,0,1,5.06-22.66c4.22-6.13,11.78-10.11,17.85-13.31l.93,1.77c-5.87,3.1-13.19,6.95-17.14,12.68a31.49,31.49,0,0,0-4.72,21.22c1.11,7.29,4.78,13.32,8.57,18.75Z"/><path d="M416.39 201.35A59.3 59.3 0 0 1 381.54 190l1.18-1.61a57.22 57.22 0 0 0 41.56 10.38l.28 2a57.35 57.35 0 0 1-8.17.58zm-.86 31.57c-13.23-9.68-28.43-14.14-41.72-12.25l-.29-2c13.8-2 29.55 2.62 43.2 12.61z"/></g><path d="M318.16 276.25c-.13 0 10.16-39.33 23-87.75l23.49-87.63c.14.04-10.15 39.32-23 87.76l-23.49 87.62z" class="B"/><g class="C"><path d="M417.29 280.63c0 .14-15.3-3.79-34.09-8.77l-33.95-9.27c.05-.14 15.29 3.79 34.09 8.77l33.95 9.27zm-10.11 4.23c0 .14-11.37-2.74-25.31-6.44l-25.18-6.94c.04-.14 11.37 2.74 25.31 6.44l25.18 6.94zm-3.89-148.76l-1.79 6.76-.87-.23.8-3-3.43-.93-.8 3-.87-.23 1.8-6.76.86.23-.77 2.9 3.47.93.77-2.91zm4.63 7.56l-.22.84-4.39-1.16 1.79-6.76 4.27 1.13-.22.84-3.41-.9-.55 2.07 3 .81-.22.82-3-.8-.58 2.18zm5.48.55l-3.21-.86-1.11 1.52-.9-.24 4.54-6 .85.22 1 7.49-.91-.24zm-.09-.86l-.43-3.66-2.18 3zm3.91-3.56l.86.23-1.57 5.92 3.28.87-.22.84-4.14-1.1zm5.55 2.37l-2.07-.55.22-.84 5 1.33-.22.84-2.07-.55-1.57 5.92-.86-.23zm9.3 1.56l-1.8 6.77-.86-.23.8-3-3.47-.92-.8 3-.87-.23 1.79-6.76.87.22-.77 2.91 3.47.92.77-2.9zm-44.91 4.02c-.56 2.13-2.35 3.08-4.63 2.47l-1.46-.39-.65 2.45-2.37-.63 2.48-9.36 3.83 1c2.28.62 3.37 2.32 2.8 4.46zm-2.39-.63a1.33 1.33 0 0 0-1.11-1.77l-1.31-.35-.73 2.75 1.32.34a1.32 1.32 0 0 0 1.83-.97zm7.65 6.4l-3.54-.94-1.14 1.64-2.41-.64 6.18-8.38 2.33.62 1.22 10.34-2.46-.65zm-.17-2.14l-.28-3.28-1.88 2.71zm3.13 3.96l1.29-1.74a5.05 5.05 0 0 0 2.52 1.65c1 .26 1.45.06 1.57-.4.39-1.48-4.66-1.66-3.74-5.14.45-1.67 2-2.71 4.52-2a5.79 5.79 0 0 1 2.82 1.62l-1.25 1.68a4.85 4.85 0 0 0-2.11-1.3c-1-.26-1.45 0-1.58.49-.38 1.43 4.66 1.62 3.74 5.07-.43 1.63-2 2.7-4.51 2a6.27 6.27 0 0 1-3.27-1.93zm7.74 2.06l1.3-1.75a5 5 0 0 0 2.52 1.65c1 .26 1.44.06 1.56-.4.39-1.48-4.65-1.66-3.73-5.14.44-1.67 2-2.71 4.51-2.05a6 6 0 0 1 2.82 1.62l-1.25 1.77a4.79 4.79 0 0 0-2.13-1.34c-1-.26-1.45 0-1.57.49-.38 1.43 4.65 1.62 3.74 5.07-.44 1.63-2 2.7-4.51 2a6.29 6.29 0 0 1-3.26-1.92zm17.22-.85c-.57 2.12-2.35 3.07-4.64 2.46l-1.45-.38-.65 2.45-2.37-.63 2.48-9.37 3.83 1c2.28.62 3.37 2.33 2.8 4.47zm-2.34-.64a1.32 1.32 0 0 0-1.11-1.76l-1.32-.35-.72 2.74 1.31.35a1.33 1.33 0 0 0 1.84-.98zm2.86 2.1a4.82 4.82 0 1 1 3.36 6.1 4.78 4.78 0 0 1-3.36-6.1zm6.91 1.83a2.37 2.37 0 1 0-3 2.08 2.47 2.47 0 0 0 3-2.1zm6.72 4.11l-1.29-.34-.66 2.49-2.37-.63 2.49-9.37 3.82 1c2.29.6 3.37 2.31 2.81 4.45a3.27 3.27 0 0 1-2.43 2.52l1 3.42-2.54-.67zm1.3-4.78l-1.32-.35-.72 2.74 1.31.35a1.42 1.42 0 1 0 .73-2.74zm6.83 1.84l-2.57-.68.55-2.1 7.5 2-.55 2.1-2.56-.68-1.93 7.27-2.37-.63zm-49.89-24.87a30.24 30.24 0 0 1-5.45-1.18 29.78 29.78 0 0 1-5.32-1.68 60.22 60.22 0 0 1 10.77 2.86zm-1 2.68a28.45 28.45 0 0 1-5.32-1.14 29.5 29.5 0 0 1-5.18-1.64 56.94 56.94 0 0 1 10.5 2.78zm56.79 12.1a29.48 29.48 0 0 1-5.45-1.17 30.43 30.43 0 0 1-5.33-1.68 58.91 58.91 0 0 1 10.78 2.85zm-1 2.69a28.28 28.28 0 0 1-5.32-1.14 28.68 28.68 0 0 1-5.19-1.65 56.3 56.3 0 0 1 10.51 2.79zm-1.71 73.61a8.2 8.2 0 0 1-11.34 3.06s4.3-6.83 11.34-3.06zM439 237.32a7.17 7.17 0 0 1-10.23-.9s5.56-4.32 10.23.9zm-8.13 6.83a7.66 7.66 0 0 1-10.25-3.89s6.99-2.81 10.25 3.89zm-.99-19.3a7.17 7.17 0 0 1 .57 10.25s-5.07-4.92-.57-10.25zm-3.39 7.58s1.91 4.81-3.44 7.09c0 0-1.64-5.08 3.44-7.09zm18.65-14.61a6.51 6.51 0 0 1-7.59 5.4s1.32-6.22 7.59-5.4zm-7.64-8.47s4.63 3.55.75 9.06c0 0-4.53-3.99-.75-9.06zm-5.45 7.87a7.52 7.52 0 0 1 4.09 10s-6.71-3.17-4.09-10z"/><path d="M415.29 240.82h.37 1.07a20.44 20.44 0 0 0 3.85-.54 21.65 21.65 0 0 0 5.38-2.11 23.46 23.46 0 0 0 2.86-1.85l.71-.56.35-.28.34-.3.69-.62.66-.67.32-.34.31-.35.61-.7.56-.72.27-.35.25-.37.5-.73.45-.73.22-.37c.08-.12.14-.24.21-.37l.38-.73a23.71 23.71 0 0 0 2-5.42 24.11 24.11 0 0 0 .57-3.85v-1.06-.28a.62.62 0 0 0 0-.09v.37 1.06a25 25 0 0 1-.55 3.87 24.1 24.1 0 0 1-2 5.44l-.39.73-.2.37-.22.37-.45.74-.5.73-.25.36c-.09.13-.19.24-.28.36l-.56.73-.61.7-.31.35-.33.34-.66.66-.68.63-.35.3-.35.28-.71.56a23.76 23.76 0 0 1-2.88 1.86 21.73 21.73 0 0 1-5.39 2.09 19.59 19.59 0 0 1-3.87.52h-1.07-.37zm-64.35-38.76a8.2 8.2 0 0 0 8.33 8.28s-.36-8.07-8.33-8.28zm.93 12.17a7.17 7.17 0 0 0 9.33 4.29s-2.72-6.52-9.33-4.29zm3.65 9.95a7.66 7.66 0 0 0 10.83 1.7s-4.68-5.88-10.83-1.7zm10.42-16.28a7.18 7.18 0 0 0-5.58 8.63s6.84-1.77 5.58-8.63zm-.81 8.27s-4 3.23-.52 7.86c0-.03 3.94-3.6.52-7.86zm-8.97-21.93a6.5 6.5 0 0 0 3.93 8.44s1.91-6.09-3.93-8.44zm10.84-3.58s-5.79.79-5.14 7.5c0 0 5.91-1.22 5.14-7.5zm.83 9.54a7.52 7.52 0 0 0-8.48 6.63s7.37.6 8.48-6.63z"/><path d="M370.7 229l-.08-.05-.24-.14-.91-.54a19.27 19.27 0 0 1-3.09-2.38 21.68 21.68 0 0 1-3.62-4.49 25.33 25.33 0 0 1-1.58-3l-.33-.83-.17-.42-.14-.43-.29-.88-.24-.91-.12-.45-.09-.46-.19-.91-.12-.9c0-.15-.05-.3-.07-.44v-.45c0-.29-.05-.59-.08-.88s0-.57 0-.86v-.42-.43-.82a23.92 23.92 0 0 1 1-5.7 23.44 23.44 0 0 1 1.41-3.63l.49-.94.13-.25v-.08.08l-.13.24-.51.94a24.24 24.24 0 0 0-1.44 3.63 23.89 23.89 0 0 0-1 5.7v.83a3.05 3.05 0 0 0 0 .43v.42.87c0 .29 0 .58.08.88v.45c0 .14.05.29.07.44l.12.91.19.91.09.46.12.45.24.91.29.88.15.44.17.42.33.83a24.12 24.12 0 0 0 1.59 3 21.4 21.4 0 0 0 3.64 4.49 19.09 19.09 0 0 0 3.11 2.37l.92.53.25.13z"/></g><path d="M309.11 377.21l-118.3-.07a25.76 25.76 0 0 1-25.76-25.77l.06-296.58A25.77 25.77 0 0 1 190.89 29l118.31.07a25.78 25.78 0 0 1 25.8 25.8l-.06 296.58a25.76 25.76 0 0 1-25.83 25.76z" class="B"/><path d="M309.07 39.58h-22.94a5.7 5.7 0 0 0-5.57 5.82v4.16a5.7 5.7 0 0 1-5.56 5.81h-44.71a5.71 5.71 0 0 1-5.57-5.83v-4.19a5.71 5.71 0 0 0-5.57-5.82H191a18 18 0 0 0-18 18.03L172.89 347a18.05 18.05 0 0 0 18 18.06l118.06.06a18 18 0 0 0 18.06-18l.06-289.49a18.06 18.06 0 0 0-18-18.05z" class="C"/><path d="M327.11 57.63a18.06 18.06 0 0 0-18-18.05h-22.98a5.7 5.7 0 0 0-5.57 5.82v4.16a5.7 5.7 0 0 1-5.56 5.81h-44.71a5.71 5.71 0 0 1-5.57-5.83v-4.19a5.71 5.71 0 0 0-5.57-5.82H191a18 18 0 0 0-18 18.03l-.06 27.68H327.1z" fill="#f5f5f5"/><path d="M314.56 67.8a59.89 59.89 0 0 1-6.17.21c-3.41 0-6.18 0-6.18-.1a59.89 59.89 0 0 1 6.17-.21l6.18.1zm.02 3.2a59.7 59.7 0 0 1-6.17.21c-3.41 0-6.17 0-6.17-.1a59.89 59.89 0 0 1 6.17-.21l6.17.1zm.03 3.12a59.89 59.89 0 0 1-6.17.21 58.61 58.61 0 0 1-6.18-.11c0-.08 2.77-.18 6.18-.2l6.17.1z" class="B"/><path d="M269.43 331.89a30 30 0 0 0-.68-4.49 17.84 17.84 0 0 0-2.06-4.88 18.31 18.31 0 0 0-22-7.77 17 17 0 0 0-4.62 2.49A20.08 20.08 0 0 0 238 319a21.34 21.34 0 0 0-1.78 2.11 18.16 18.16 0 0 0 0 21.57 21.34 21.34 0 0 0 1.78 2.11 20.08 20.08 0 0 0 2.07 1.76 17 17 0 0 0 4.62 2.49 18.37 18.37 0 0 0 22-7.77 17.84 17.84 0 0 0 2.06-4.88 30 30 0 0 0 .68-4.5 1.43 1.43 0 0 1 0 .3v.89a9 9 0 0 1-.12 1.43 14.28 14.28 0 0 1-.35 1.93 17.59 17.59 0 0 1-2 5 18.71 18.71 0 0 1-12.56 8.87 18.68 18.68 0 0 1-9.83-.79 17.32 17.32 0 0 1-4.77-2.52 17 17 0 0 1-4-4 18.62 18.62 0 0 1 0-22.17 21.29 21.29 0 0 1 1.84-2.17 20.09 20.09 0 0 1 2.13-1.8 17.32 17.32 0 0 1 4.75-2.54 18.68 18.68 0 0 1 9.83-.79 18.74 18.74 0 0 1 12.56 8.86 17.64 17.64 0 0 1 2 5 14.28 14.28 0 0 1 .35 1.93 9 9 0 0 1 .12 1.43v.88a1.36 1.36 0 0 1 .05.26zm-19.19 7.69l-8.92-7.67 2.68-3.11 5.98 5.14 9.4-9.73 2.95 2.85-12.09 12.52zM299.86 305H202a15.88 15.88 0 0 1-15.88-15.87h0A15.88 15.88 0 0 1 202 273.21h97.86a15.87 15.87 0 0 1 15.87 15.88h0A15.87 15.87 0 0 1 299.86 305z" class="D"/><g class="C"><path d="M225.71 284.74h1.54v7.46h-1.54zm9.2 7.46v-4.48l-2 3.69h-.7l-2-3.59v4.38h-1.44v-7.46h1.27l2.5 4.63 2.46-4.63h1.27v7.46zm9.09 0v-4.48l-2 3.69h-.7l-2-3.59v4.38h-1.45v-7.46h1.28l2.49 4.63 2.47-4.63h1.26v7.46zm3-3.28v-4.18h1.55v4.11c0 1.42.55 2 1.49 2s1.48-.58 1.48-2v-4.11H253v4.18c0 2.19-1.13 3.4-3 3.4s-3-1.21-3-3.4zm13.67-4.18v7.46h-1.26l-3.33-4.53v4.53h-1.53v-7.46h1.28l3.32 4.53v-4.53zm1.58 0h1.55v7.46h-1.55zm4.51 1.41h-2.13v-1.41h5.81v1.41h-2.13v6.05h-1.55z"/><path d="M274.35,289.56v2.64h-1.54v-2.67l-2.59-4.79h1.64l1.79,3.31,1.78-3.31h1.51Z"/></g><g class="B"><path d="M198.65 212.44v5.6h5.59v-5.6-5.6h-5.59v5.6z"/><use href="#B"/><use href="#B" x="34.59" y="61.62"/><path d="M204.24 190.05v5.6h-5.59v5.6h5.59v5.59h5.6 5.6v5.6h5.59v-5.6h5.6v-5.59-5.6h-5.6v5.6h-5.59-5.6v-5.6-5.6-5.6h-5.6v5.6z"/><path d="M215.44 178.86h-5.6v5.59h5.6 5.59v-5.59h-5.59zm25.18 44.99h3.01v-5.6h-3.01-3v5.6h3z"/><use href="#B" x="22.39" y="5.59"/><use href="#B" x="61.57" y="27.98"/><use href="#B" x="67.17" y="-33.59"/><path d="M237.82 190.05v-5.6h5.6v-5.59h-5.6v-5.6h-5.59v5.6h-5.6v5.59h5.6v5.6 5.6 5.6 5.59h5.59v-5.59-5.6h5.6v-5.6h-5.6zm27.99 55.97h5.6v-5.59h-5.6-5.6v5.59h5.6z"/><use href="#B" x="55.98" y="-33.59"/><path d="M258.81 190.05v-5.6h-5.59v-5.59h-5.6v5.59 5.6h-5.6v5.6h5.6 5.6v-5.6h5.59z"/><use href="#B" x="86.17"/><use href="#B" x="28.15" y="27.98"/><path d="M254.62 173.26v-5.6h5.59v-5.6h5.6 5.6v-5.59h-5.6v-5.6h-5.6v5.6h-5.59v5.59h-5.6v5.6h-5.6v5.6h5.6 5.6zm0 39.18v-5.6h5.59v-5.59h-5.59-5.6v5.59h-5.6v5.6h5.6 5.6zm16.79 22.39v-5.6h-5.6-5.6v-5.6h-5.59v5.6h-5.6v5.6h-5.6-5.6v5.59h5.6 5.6 5.6v-5.59h5.59v5.59h5.6v-5.59h5.6zm-22.39-83.96v-5.6h-5.6-5.6v5.6h-5.59v5.6h5.59 5.6v-5.6h5.6z"/><use href="#B" x="44.78" y="-22.39"/><path d="M263.01 178.86h-5.59v5.59 5.6 5.6h5.59 5.6v-5.6h-5.6v-5.6h5.6v-5.59h5.6v-5.6h-5.6v-5.6h-5.6v5.6 5.6z"/><use href="#B" x="39.19" y="-16.79"/><path d="M260.21 218.04v5.59h5.6 5.6v-5.59h5.6 5.59v-5.6h-5.59-5.6-5.6v5.6h-5.6z"/><use href="#B" x="86.17" y="16.79"/><use href="#B" x="67.17" y="22.39"/><path d="M285.4 184.45h-5.59-5.6v5.6h5.6v5.6h5.59v-5.6-5.6z"/><use href="#B" x="78.37" y="22.39"/><path d="M221 234.93h16.8v-22.5h-22.5V218h-5.49v5.59h5.49v5.6h-5.49v5.6h5.49v.1h.11v5.5h-5.6v11.19h5.6V246H221v-11.07zm12.49-18.19v14h-14v-14zm60.31-4.3h5.59v-5.6h-5.59-5.6-5.6v5.6h5.6 5.6zm0-22.39h5.59v-5.6-5.59h-5.59v5.59 5.6zm-44.57 28.2h-5.6v5.6 5.6h5.6v-5.6-5.6z"/><use href="#B" x="100.75" y="33.58"/><path d="M304.99 201.25v-5.6h-5.6v5.6 5.59h5.6v-5.59zm-100.75 39.18h-5.59v5.59 5.6h5.59v-5.6-5.59zM305 173.26v-28h-28v28zm-23.79-4.2v-19.59h19.59v19.59zm4.19-15.39h11.19v11.19H285.4zm19.6 69.96h-28v28h28zm-23.8 23.79v-19.59h19.59v19.59zm4.2-15.39h11.19v11.19H285.4zm-86.83-86.76v28h28v-28zm23.79 4.2v19.59h-19.59v-19.59zm-15.39 4.2h11.19v11.19h-11.19z"/></g><path d="M190.59 164.78v-19.87a7.31 7.31 0 0 1 1.58-5.07 6.89 6.89 0 0 1 5.45-2.26h20.9a.63.63 0 0 0 0-1.25h-20.67a8.74 8.74 0 0 0-5 1.26 7.93 7.93 0 0 0-3.52 6.53v9.82 10.84a.63.63 0 0 0 1.25 0zm26.1 96.29h-19.88a7.37 7.37 0 0 1-5.07-1.57 6.9 6.9 0 0 1-2.26-5.45v-20.9a.63.63 0 0 0-1.25 0v20.67a8.81 8.81 0 0 0 1.26 5 7.88 7.88 0 0 0 6.53 3.52h9.82 10.85a.63.63 0 0 0 0-1.25zM312.37 233v19.88a7.34 7.34 0 0 1-1.57 5.06 6.9 6.9 0 0 1-5.45 2.26h-20.9a.63.63 0 0 0 0 1.25h20.67a8.71 8.71 0 0 0 5-1.26 7.85 7.85 0 0 0 3.52-6.52v-9.82V233a.63.63 0 0 0-1.25 0zm-27.56-95.42h19.88a7.3 7.3 0 0 1 5.06 1.58 6.89 6.89 0 0 1 2.26 5.45v20.9a.63.63 0 0 0 1.25 0v-20.67a8.74 8.74 0 0 0-1.26-5 7.89 7.89 0 0 0-6.53-3.52c-3.27-.06-6.54 0-9.81 0h-10.85a.63.63 0 0 0 0 1.25z" class="D"/><path d="M210.63 100.07v6.69h-.7v-3.09h-4.18v3.09H205v-6.69h.71v3h4.18v-3zm6.91 6.08v.61h-4.73v-6.69h4.58v.61h-3.87v2.38H217v.6h-3.45v2.49zm5.85-1.15h-3.72l-.81 1.79h-.73l3.06-6.69h.69l3.06 6.69h-.75zm-.26-.57l-1.6-3.59-1.61 3.59zm2.92-4.36h.7v6.08h3.75v.61h-4.45zm6.3.61H230v-.61h5.41v.61h-2.35v6.08h-.71zm9.77-.61v6.69h-.69v-3.09h-4.19v3.09h-.71v-6.69h.71v3h4.19v-3zm9.88 2.29c0 1.43-1 2.29-2.73 2.29h-1.8v2.11h-.71v-6.69h2.51c1.73 0 2.73.86 2.73 2.29zm-.71 0c0-1.07-.71-1.68-2-1.68h-1.78V104h1.78c1.33 0 2.04-.59 2.04-1.64zm6.14 2.64h-3.73l-.8 1.79h-.74l3.06-6.69h.7l3.05 6.69h-.74zm-.26-.57l-1.61-3.59-1.56 3.56zm2.27 1.57l.28-.55a3.24 3.24 0 0 0 2.2.81c1.25 0 1.8-.52 1.8-1.18 0-1.84-4.12-.71-4.12-3.18 0-1 .77-1.84 2.47-1.84a3.73 3.73 0 0 1 2.07.6l-.24.56a3.44 3.44 0 0 0-1.83-.55c-1.23 0-1.77.54-1.77 1.21 0 1.83 4.12.72 4.12 3.16 0 1-.79 1.82-2.5 1.82a3.65 3.65 0 0 1-2.48-.86zm5.87 0l.28-.55a3.28 3.28 0 0 0 2.21.81c1.25 0 1.79-.52 1.79-1.18 0-1.84-4.11-.71-4.11-3.18 0-1 .76-1.84 2.46-1.84a3.71 3.71 0 0 1 2.07.6l-.23.56a3.5 3.5 0 0 0-1.84-.55c-1.22 0-1.77.54-1.77 1.21 0 1.83 4.12.72 4.12 3.16 0 1-.78 1.82-2.49 1.82a3.66 3.66 0 0 1-2.49-.86zm11.75-3.64c0 1.43-1 2.29-2.73 2.29h-1.79v2.11h-.71v-6.69h2.5c1.67 0 2.73.86 2.73 2.29zm-.7 0c0-1.07-.71-1.68-2.05-1.68h-1.77V104h1.77c1.34 0 2.05-.59 2.05-1.64zm1.73 1.05a3.51 3.51 0 1 1 3.52 3.4 3.37 3.37 0 0 1-3.52-3.4zm6.32 0a2.81 2.81 0 1 0-2.8 2.77 2.72 2.72 0 0 0 2.8-2.77zm6.86 3.35l-1.53-2.15a4.75 4.75 0 0 1-.54 0h-1.79v2.12h-.71v-6.69h2.5c1.7 0 2.73.86 2.73 2.29a2.07 2.07 0 0 1-1.52 2.1l1.63 2.3zm0-4.4c0-1.07-.71-1.68-2.05-1.68h-1.77V104h1.77c1.3 0 2.01-.59 2.01-1.64zm3.54-1.68h-2.35v-.61h5.41v.61h-2.35v6.08h-.71z" class="B"/><path d="M227.15 118.69a4 4 0 0 1 4-4.27 3.7 3.7 0 0 1 3.15 1.55l-1.3 1.34a2.35 2.35 0 1 0 0 2.76l1.32 1.34a3.72 3.72 0 0 1-3.15 1.54 4 4 0 0 1-4.02-4.26zm7.58 0a4.08 4.08 0 1 1 4.08 4.26 4.06 4.06 0 0 1-4.08-4.26zm6.06 0a2 2 0 1 0-2 2.34 2.11 2.11 0 0 0 2-2.34zm10.38-4.1l-3.14 8.2H246l-3.13-8.2h2.24l2 5.34 2-5.34zm.43 0h2.08v8.2h-2.08zm3.56 0h3.47a4.1 4.1 0 1 1 0 8.2h-3.47zm3.38 6.35a2.26 2.26 0 0 0 0-4.5h-1.31v4.5zm5.07-2.35h3.06v1.72h-3.06zm6.82-4v8.2h-2.07v-6.41H267v-1.79zm7.2 3.88c0 2.85-1.59 4.48-3.91 4.48a3.81 3.81 0 0 1-2.15-.59l.75-1.67a2.09 2.09 0 0 0 1.36.42c1 0 1.72-.65 1.84-1.89a2.32 2.32 0 0 1-1.65.59 2.48 2.48 0 0 1-2.52-2.59 2.73 2.73 0 0 1 2.87-2.8c2.07 0 3.41 1.39 3.41 4.05zm-2.25-1.36a1 1 0 1 0-1 1 1 1 0 0 0 1-1z" class="D"/><path d="M209.62 273.65h4v92.37h-4zm-33.22 3.34h4v92.37h-4z" class="B"/><path d="M214.62,281.92h-6V273a.51.51,0,0,0-.48-.53H181.89a.51.51,0,0,0-.49.53v7.44h-6V273a6.52,6.52,0,0,1,6.49-6.53h26.25a6.51,6.51,0,0,1,6.48,6.53Z" class="F"/><path d="M176.08 474.47a6.22 6.22 0 1 1-6.22-6.22 6.23 6.23 0 0 1 6.22 6.22zm53.64 0a6.22 6.22 0 1 1-6.21-6.22 6.22 6.22 0 0 1 6.21 6.22zm9.28-46.78h0v-45.75h0a4.79 4.79 0 0 1 4.79 4.79v36.17a4.8 4.8 0 0 1-4.79 4.79z" class="B"/><rect x="150.76" y="343.7" width="90.41" height="127.73" rx="13.97" class="F"/><g class="B"><use href="#C"/><use href="#C" y="13.49"/><use href="#C" y="26.98"/><use href="#C" y="40.47"/><use href="#C" y="53.96"/><path d="M241.09 427.15c0 .14-20.24.26-45.21.26s-45.23-.12-45.23-.26 20.25-.27 45.23-.27l45.21.27z"/><use href="#D"/><use href="#D" y="13.49"/></g><path d="M185.86 379.09h20.21v3.66h-20.21z" class="C"/><g class="B"><path d="M83.33 106.13a11.53 11.53 0 0 0-1.67 6.53c0 2.25 1.55 6.82 5.55 7-1.06 6.44 3.06 11.2 9.92 11.21s14.72-11.76 21.08-14.35l18.45-4.87c1.63-.38 2.29-2.35 2.26-4s-.46-3.39.13-5c.81-2.13 3.28-3.27 4.13-5.4 1-2.41-.53-5.08-2.24-7s-3.81-3.8-4.35-6.34c-.5-2.33.39-5-.77-7-1.43-2.56-5.19-2.89-6.93-5.25-.89-1.14-1.11-2.66-1.89-3.78-1.43-2-4.16-2.47-6.57-2.21s-4.73 1.13-7.14 1.31c-3.32.24-6.74-.83-9.92.13-3.51 1.06-5.65 4.17-7.93 7.19l-3 3.49a13.87 13.87 0 0 1-2 1.62 23.16 23.16 0 0 0-3.76 2.41 5.87 5.87 0 0 0 .41 8.45 6.28 6.28 0 0 0-4.21 6.17s-.33 3.06 1.61 4.42a4.22 4.22 0 0 0-1.16 5.27z"/><path d="M95.7,112.37A85.08,85.08,0,0,1,92,98.1a29.86,29.86,0,0,1,1.17-14.57c.26-.7,2.48-5.39,3.22-5.32.53.05-.84,4.43-.57,4.89,2.56,4.4,3.26,9.69,2.85,14.77a66.54,66.54,0,0,1-3,14.5"/></g><path d="M107.86,155.32C97,154,95.71,136.45,95.71,136.45l-.5-42.86c-.4-12.34,6.45-22.86,18.8-22.92l1.14.06A22.09,22.09,0,0,1,136,92.18c.28,10.7.46,22.52.09,28.23-.78,11.82-12.71,13-12.71,13a39.32,39.32,0,0,0-.11,6.22c.68,12.57-12.4,15.93-15.45,15.66Z" class="I"/><path d="M123.42,133.44a28.57,28.57,0,0,1-15.16-5.38s3.29,8.8,15.15,8.37Z" fill="#eb996e"/><g class="B"><use href="#E"/><path d="M133.24 97c-.22.21-1.45-.8-3.27-.9s-3.19.75-3.38.51.14-.49.75-.88a4.64 4.64 0 0 1 5.31.31c.53.41.7.82.59.96z"/><use href="#E" x="-17.09"/><path d="M115.4 96.73c-.23.21-1.46-.8-3.27-.9s-3.2.75-3.39.52.14-.49.75-.89a4.67 4.67 0 0 1 2.72-.68 4.49 4.49 0 0 1 2.59 1c.53.45.7.86.6.95zm5.77 14.32a12.13 12.13 0 0 1 3-.37c.47 0 .91-.09 1-.41a2.39 2.39 0 0 0-.24-1.39l-1.18-3.61-2.59-9.41c.21-.06 1.7 4 3.34 9.18l1.12 3.63a2.69 2.69 0 0 1 .15 1.83 1.18 1.18 0 0 1-.8.64 3 3 0 0 1-.8.07 11.33 11.33 0 0 1-3-.16zm-5.42.95c.3 0 .2 2 1.81 3.47s3.73 1.38 3.73 1.66c0 .12-.49.36-1.38.33a4.9 4.9 0 0 1-3.12-1.27 4.31 4.31 0 0 1-1.39-2.9c-.03-.81.22-1.29.35-1.29zm-.06-22.65c-.2.48-2 .15-4.15.3s-3.91.63-4.17.17c-.11-.22.21-.67.94-1.11a6.83 6.83 0 0 1 3.12-.91 6.91 6.91 0 0 1 3.21.55c.77.36 1.14.77 1.05 1zm17.13 1.52c-.35.39-1.58-.1-3.08-.2s-2.8.13-3.07-.32c-.11-.22.11-.62.69-1a4.47 4.47 0 0 1 5 .42c.46.47.64.9.46 1.1z"/></g><path d="M95.71 102.4c-.2-.09-8-2.84-8.18 5.26s8 6.61 8 6.38.18-11.64.18-11.64z" class="I"/><path d="M93.14 110.92s-.14.09-.38.2a1.47 1.47 0 0 1-1.06 0c-.85-.34-1.54-1.71-1.55-3.17a4.75 4.75 0 0 1 .44-2 1.64 1.64 0 0 1 1.09-1.07.71.71 0 0 1 .82.41c.1.23 0 .39.09.4s.18-.13.12-.46a.88.88 0 0 0-.31-.52 1 1 0 0 0-.77-.22 2 2 0 0 0-1.5 1.22 4.71 4.71 0 0 0-.54 2.25c0 1.63.82 3.18 2 3.54a1.55 1.55 0 0 0 1.3-.18c.23-.21.28-.39.25-.4z" fill="#eb996e"/><g class="B"><path d="M131,78.69c1.33-.71-2.56-5-5.76-6.51-4.84-2.27-12.26-3.73-16.77-2.51-5.43,1.46-10,4.09-12.73,9a31.93,31.93,0,0,0-3.79,16.23,9.68,9.68,0,0,0,1.08,5c1.11,1.81,3.27,3,3.14,5.43a3.39,3.39,0,0,0,.81,2.49c1.46,1.59,3.3.14,4.15-1.34,1.82-3.15,2.07-6.94,2.27-10.57a23.71,23.71,0,0,0-.41-7.71c-.38-1.36-1-2.64-1.31-4a4.88,4.88,0,0,1,.63-4,4.68,4.68,0,0,1,.67-.65,8.41,8.41,0,0,1,8.4-1.49c4.54,1.67,12.3,4.18,14.36,2.66,3-2.19,3.68-3.63,3.68-3.63Z"/><path d="M108.87 68.57a17.79 17.79 0 0 1 13.68.93 9.24 9.24 0 0 1 4.81 5.44c.65 2.41-.41 5.35-2.73 6.26l-.16.1c-3.48 1.12-5.72.62-9.15-.61-2.89-1-5.44-2.87-8.34-3.89a16.39 16.39 0 0 0-9.63-.41 26.91 26.91 0 0 1 11.52-7.82z"/></g><path d="M93.46 76.58c.07.07.72-.71 2-1.62A11.71 11.71 0 0 1 98 73.64a7.53 7.53 0 0 1 3.29-.55 11 11 0 0 1 5.65 2.33c1.25 1 1.83 1.83 1.91 1.77s-.09-.25-.35-.62a8.6 8.6 0 0 0-1.31-1.44 10.48 10.48 0 0 0-5.86-2.58 7.69 7.69 0 0 0-3.52.63 10.57 10.57 0 0 0-2.5 1.47 6 6 0 0 0-1.85 1.93zm24.69-8.75a21.28 21.28 0 0 0 2.14.81 17.68 17.68 0 0 1 8.32 6.85l1.2 2a6.27 6.27 0 0 0-.87-2.15 15.44 15.44 0 0 0-8.52-7 6.55 6.55 0 0 0-2.27-.51z" class="F"/><path d="M89.28,438.23,69.68,454s10.81,24,7.47,27.27l-33.3-35.69,29.53-25.82Z" class="D"/><g opacity=".6" class="C"><path d="M61.41,441.2a2,2,0,0,0-2.63.45,1.91,1.91,0,0,0,.42,2.6,2.11,2.11,0,0,0,2.78-.48,2,2,0,0,0-.74-2.66"/></g><g opacity=".6" class="C"><path d="M43.85,445.58l3-2.61,31,35.59a3.38,3.38,0,0,1-.72,3.13Z"/></g><path d="M70.39 454.44c-.19.15-1-.68-2.4-1.07s-2.51-.2-2.58-.43 1.2-.86 2.82-.36 2.36 1.75 2.16 1.86zm1.75 5.25c-.14.19-1.13-.32-2.42-.27s-2.25.57-2.4.38.78-1.18 2.38-1.21 2.6.95 2.44 1.1zm-2.74 6.21c-.18-.13.51-1.16 1.9-1.55s2.5.11 2.42.32-1.06.14-2.2.48-1.94.91-2.12.75zm5.05-15.55c-.22.06-.69-1-1.64-1.94s-2-1.47-1.89-1.7 1.38 0 2.48 1.12 1.27 2.48 1.05 2.52z" class="B"/><g class="G"><path d="M85.4 441.35l-3.49 2.82-16.74-17.22 4.24-3.73 15.99 18.13z"/></g><g class="B"><path d="M78.35 447.09c-.07.07-.8-.55-1.59-1.85a11.51 11.51 0 0 1-1.08-2.45 10.63 10.63 0 0 1-.35-1.55 2.75 2.75 0 0 1 0-.93 1 1 0 0 1 .89-.92 1.31 1.31 0 0 1 1.09.44 2.87 2.87 0 0 1 .5.77 8 8 0 0 1 .6 1.49 8.75 8.75 0 0 1 .36 2.67 4 4 0 0 1-.56 2.39c-.13 0 .07-.93 0-2.37a9.27 9.27 0 0 0-1.08-3.8c-.24-.48-.52-.81-.79-.76-.09 0-.12 0-.17.22a2.38 2.38 0 0 0 0 .68 12.57 12.57 0 0 0 .29 1.46 12.76 12.76 0 0 0 .86 2.38 16.62 16.62 0 0 1 1.03 2.13z"/><path d="M77.89 447.08c-.08 0 .25-.95 1.36-2a8.17 8.17 0 0 1 2.24-1.5 8.07 8.07 0 0 1 1.53-.5 2 2 0 0 1 2 .37 1.13 1.13 0 0 1 .15 1.22 3.4 3.4 0 0 1-.51.78 5.65 5.65 0 0 1-1.25 1.07 5.57 5.57 0 0 1-2.59.87c-1.58.1-2.45-.46-2.4-.53a20.68 20.68 0 0 0 2.33-.05 5.67 5.67 0 0 0 2.24-.92 5.2 5.2 0 0 0 1-1c.34-.4.53-.82.36-.93a1.37 1.37 0 0 0-1.16-.12 7.58 7.58 0 0 0-1.4.4 8.82 8.82 0 0 0-2.15 1.24c-1.13.9-1.64 1.68-1.75 1.6z"/></g><path d="M88.1,441.44,90,466.53s-24.9,8.53-25,13.2l48.81-.12-1.36-39.2Z" class="D"/><g opacity=".6" class="C"><path d="M105,463.81a2,2,0,0,1,1.47,2.22,1.93,1.93,0,0,1-2.19,1.48,2.1,2.1,0,0,1-1.54-2.36,2,2,0,0,1,2.44-1.28"/></g><g opacity=".6" class="C"><path d="M113.81,479.61l-.14-3.95-47.13,1.75a3.37,3.37,0,0,0-1.79,2.67Z"/></g><path d="M89.2 466.31c0 .24 1.21.3 2.42 1s1.86 1.69 2.08 1.59-.2-1.46-1.67-2.31-2.89-.5-2.83-.28zm-5.03 2.32c0 .23 1 .6 1.85 1.57s1.13 2 1.36 2 .34-1.37-.74-2.56-2.47-1.24-2.47-1.01zm-2.66 6.24c.22 0 .5-1.16-.16-2.44s-1.8-1.76-1.89-1.56.62.88 1.15 1.94.66 2.04.9 2.06zm7.89-14.32c.11.21 1.19-.16 2.54-.12s2.42.42 2.53.21-.93-1-2.52-1-2.67.72-2.55.91z" class="B"/><g class="G"><path d="M89.2 455.81l.33 4.47 23.6-.41-.17-4.78-23.76.72z"/></g><g class="B"><path d="M89.11 455.48a4.53 4.53 0 0 0 2.44-.11 10.86 10.86 0 0 0 2.53-.89 11.55 11.55 0 0 0 1.37-.8 3.09 3.09 0 0 0 .72-.6 1 1 0 0 0 0-1.27 1.31 1.31 0 0 0-1.06-.51 3.28 3.28 0 0 0-.91.17 8.35 8.35 0 0 0-1.5.58 8.64 8.64 0 0 0-2.19 1.57c-1.09 1.09-1.44 2-1.36 2s.63-.7 1.75-1.61a10 10 0 0 1 2.13-1.31 9.34 9.34 0 0 1 1.38-.49c.51-.16 1-.18 1.1.05v.27a2.17 2.17 0 0 1-.51.47 11.81 11.81 0 0 1-1.26.79 13.25 13.25 0 0 1-2.33 1 17.14 17.14 0 0 0-2.3.69z"/><path d="M89.44 455.81a4 4 0 0 0 .55-2.39 8.06 8.06 0 0 0-.44-2.66 9.07 9.07 0 0 0-.68-1.46 2 2 0 0 0-1.61-1.17 1.15 1.15 0 0 0-1 .72 3.52 3.52 0 0 0-.22.91 5.65 5.65 0 0 0 .06 1.65 5.72 5.72 0 0 0 1.15 2.48c1 1.22 2 1.47 2 1.39s-.77-.55-1.55-1.74a5.65 5.65 0 0 1-.86-2.26 4.82 4.82 0 0 1 0-1.42c0-.52.23-.94.43-.9s.67.36.88.77a7.58 7.58 0 0 1 .66 1.3 8.74 8.74 0 0 1 .57 2.42c.14 1.42-.08 2.33.06 2.36z"/><path d="M69.94 260.84l7.35 92.35c1.31 10.95 7.63 103 7.63 103l31.85-1-5.13-145.83v-44.69z"/><path d="M65.67,421.6,86.75,443s63.83-62.2,66.42-66.86,1.82-62.2,1.82-62.2l-1.86-51.56-45.58,2.32,4.5,51.29,6.07,47.19Z"/></g><path d="M123.58 406.74l-.65.68-2 2-7.43 7.4-26.6 26.31-.16.16-.15-.16-21.1-21.35-.17-.17.16-.18 17-19L118 363v.18l-4.61-39-1.26-10.93-.31-2.89c0-.31 0-.55-.07-.74a.69.69 0 0 1 0-.25 2.24 2.24 0 0 1 0 .25l.11.74.38 2.87 1.38 10.91 4.79 38.94v.1l-.07.08-35.46 39.55-17 19v-.34l21.05 21.39h-.31l26.78-26.22 7.52-7.31 2-1.92c.41-.47.66-.67.66-.67zm4.53-39.1a24.17 24.17 0 0 1-4.65-2 24.65 24.65 0 0 1-4.41-2.47 25 25 0 0 1 4.64 2 25.05 25.05 0 0 1 4.42 2.47zm-12.58-60.74a12 12 0 0 1-1.92.19l-5.13.27h-.22v-.23l-.09-9.39c-.08-4.54-.26-8.64-.39-11.62l-.15-3.52a5.76 5.76 0 0 1 0-1.3 7.12 7.12 0 0 1 .19 1.29c.09.82.21 2 .32 3.51.23 3 .46 7.09.55 11.63.07 3.51 0 6.75 0 9.41l-.22-.22 5.14-.09a10.91 10.91 0 0 1 1.92.07zm-2.22-23.9s.17-.09.5-.05a2.2 2.2 0 0 1 1.25.63 2.43 2.43 0 0 1 .75 1.95 2.45 2.45 0 0 1-4.16 1.3 2.46 2.46 0 0 1-.49-2 2.18 2.18 0 0 1 .66-1.23c.25-.22.44-.26.45-.24a2.87 2.87 0 0 0-.75 1.52 2.17 2.17 0 0 0 .49 1.66 2 2 0 0 0 3.33-1 2.16 2.16 0 0 0-.55-1.64 3 3 0 0 0-1.48-.9z" class="F"/><path d="M95,137.35s8.28,9.05,30,1.83l13.71,20,14.09,114.15-46.19,7.45-36-5.71L82.09,159.23Z" class="E"/><path d="M97 138.54l6 12.94-11.85 82.41c-1.24 12.39 6.43 56.27 6.43 56.27L60 284.28l10.58-116-5.13-22.39a119.58 119.58 0 0 1 18.26-5.69l7.89-1.12 2.18-3.61 1.45-2.18z" class="D"/><g class="G"><path d="M98.94 225.32c-4.6-.1-18 3.76-22.56 4.26-4.73.51-7.9 1.12-11.76 3.89l-.62 6.07c2.68 1.31 5.69 1.63 8.63 2.13a10.44 10.44 0 0 0 8.45-1.86c1.25-1.05 2.16-2.49 3.56-3.33s2.66-2 4.13-1.75c11.12 2.16 13.94-7.4 10.17-9.41z"/></g><path d="M92.46 139.82a4.52 4.52 0 0 1 .35 1l.76 2.88 2.32 9.56.91 3.91h-.48a15.27 15.27 0 0 1 1.44-3.75 7.93 7.93 0 0 1 1.92-2.55 1.86 1.86 0 0 1 1.19-.36 1.54 1.54 0 0 1 .86.33c.41.35.36.69.35.67s-.07-.28-.45-.53a1.48 1.48 0 0 0-1.77.15 8.13 8.13 0 0 0-1.72 2.49 15.85 15.85 0 0 0-1.34 3.66l-.24 1-.24-1-.93-3.91-2.18-9.58-.6-2.92a4.19 4.19 0 0 1-.15-1.05z" class="B"/><g class="F"><path d="M69.56 235.81l9.53 2.77a53.73 53.73 0 0 1 3.64 15.52c.56 8.3-3.08 68.47-3.08 68.47l-30.54-1.32-.93-2.79a11.11 11.11 0 0 1-.54-4.4c.76-9.88 2.12-44.2 9.54-64.17 3.54-9.52 12.38-14.08 12.38-14.08z"/><path d="M80.24 140.36s2.89 5.47 2.55 17.52-17.05 95.88-17.05 95.88l10.65.94 11.39-76.64c.56-7 4.48-32.55 0-38.13 0 0-4.44-1.93-7.54.43zM61.88 242.12S50.67 256.07 47 282.4l4.94 1.07z"/></g><g class="B"><path d="M68.37 248.14a1.85 1.85 0 0 1-.05.52l-.22 1.45-.8 5.33c-.66 4.5-1.26 10.78-2.55 17.63-.34 1.71-.67 3.37-1.07 5a11.79 11.79 0 0 1-1.94 4.39 4.89 4.89 0 0 1-3.85 2 21.57 21.57 0 0 1-3.73-.44c-2.26-.39-4-.92-5.28-1.14l-1.44-.28a1.65 1.65 0 0 1-.49-.13 1.78 1.78 0 0 1 .51 0l1.46.19c1.27.16 3.06.64 5.3 1a21.79 21.79 0 0 0 3.66.37 4.43 4.43 0 0 0 3.48-1.83 11.4 11.4 0 0 0 1.83-4.21 69.81 69.81 0 0 0 1-4.95c1.28-6.82 2-13.09 2.69-17.59.36-2.25.71-4.06 1-5.31l.32-1.43a1.89 1.89 0 0 1 .17-.57z"/><path d="M79.31 239.14a11.22 11.22 0 0 1-.09 1.65l-.43 4.47-.32 3.08a29.2 29.2 0 0 1-.5 3.56 5.79 5.79 0 0 1-2.16 3.39 5.05 5.05 0 0 1-4.2.9 4.82 4.82 0 0 1-3.32-2.75 8.24 8.24 0 0 1-.36-4c.25-2.51.6-4.74 1-6.61l1-4.39a10.61 10.61 0 0 1 .49-1.58 10.73 10.73 0 0 1-.29 1.63l-.81 4.4-.84 6.59a7.85 7.85 0 0 0 .35 3.75 4.33 4.33 0 0 0 3 2.44 4.53 4.53 0 0 0 3.78-.81 5.22 5.22 0 0 0 2-3.09 30.42 30.42 0 0 0 .39-3.47l.38-3.08.6-4.45a9.36 9.36 0 0 1 .33-1.63zm.42 83.5a11.46 11.46 0 0 1-1.13-1.1l-3-3-4.64-4.28-2.86-2.4a8.86 8.86 0 0 0-3.36-1.86 3.38 3.38 0 0 0-1.87.08 5.32 5.32 0 0 0-1.61 1l-2.82 2.43-4.81 4.12-3.28 2.73a11.15 11.15 0 0 1-1.24 1 8.12 8.12 0 0 1 1.11-1.11l3.16-2.86 4.74-4.2 2.82-2.47a6.07 6.07 0 0 1 1.76-1.06 3.83 3.83 0 0 1 2.15-.1 9.25 9.25 0 0 1 3.57 2l2.85 2.43 4.59 4.38 2.89 3.15a8.33 8.33 0 0 1 .98 1.12z"/><path d="M71.12 256.66c.14 0-1.39 11.84-3.42 26.41l-3.93 26.33c-.14-.02 1.38-11.84 3.41-26.41l3.94-26.33zm4.59-5.74a5.85 5.85 0 0 1-.18-.66 2.83 2.83 0 0 0-1-1.4 2.6 2.6 0 0 0-2.43-.32 2.54 2.54 0 0 0 0 4.76 2.61 2.61 0 0 0 2.43-.33 2.78 2.78 0 0 0 1-1.4 5.24 5.24 0 0 1 .18-.65s.09.25 0 .7a2.82 2.82 0 0 1-1 1.65 3 3 0 0 1-2.81.48 3 3 0 0 1 0-5.66 2.91 2.91 0 0 1 2.81.48 2.76 2.76 0 0 1 1 1.65c.09.45.03.7 0 .7z"/></g><g class="I"><path d="M207.27,253.69l15.51,11.92-1.46,12.19-.31,1.86-5.21,3.23h-9.06s-1.45-3.75,1.88-3.44c0,0-1.64-2.5,3-3.12s5.54-2.18,5.54-2.18l-.41-2.19-1.67-2.08-1.57-1.59-8.73-9.76Z"/><path d="M178.4,239.42c0,.11,18,18.61,18,18.61l10.89-4.34-13.08-26.91-10.91-3.88-4.88,8.69Z"/><path d="M195.86,257.23a46.66,46.66,0,0,0,5.37,7,33,33,0,0,0,6.45,4.37s3.64,9.58,6,9.16,3.23-1.67,1.87-4.27-4.47-12.18-4.47-12.18l-5.76-11.45Z"/></g><g class="D"><path d="M150.05,146.5s6.63,2,10.45,10.92,19.11,40.88,19.11,40.88l16.25,29.2s-7.33,0-12.74,4.14-4.78,9.56-4.78,9.56-4.72-1-5.39-3.82a12.67,12.67,0,0,1,0-5.42l-5.76-7.33-3.5-7-11-18.54-7.45-29.56Z"/><path d="M159.22 294.52l-5.63-61.79c.28-.73-.64-35.74 0-36.28s-3.54-49.95-3.54-49.95l-21.77-6.72h.29l-5-5.27-6 20.51c1.76 6.95 8.07 110.3 8.07 110.3 0 .74 2.48 29.16 2.48 29.16z"/></g><g class="B"><path d="M152.62 199.64a4 4 0 0 1-.74.57l-2.19 1.55h-.06-.06L138 196.17l-.12-.06V196l-.94-12.5-.84-11.82v-.21h.2a29.58 29.58 0 0 1 12.36.08 27.81 27.81 0 0 1 3.4 1 4.62 4.62 0 0 1 1.15.51l-1.2-.36a33.85 33.85 0 0 0-3.41-.84 30.36 30.36 0 0 0-12.19.1l.18-.25.89 11.82.89 12.5-.13-.19 11.46 5.79h-.13l2.26-1.44a4.74 4.74 0 0 1 .79-.55z"/><path d="M153 164a7.75 7.75 0 0 1 .16 1.48l.2 4c.12 3.42.15 8.15.12 13.37v13.37 4.05a7.9 7.9 0 0 1-.05 1.49 7.91 7.91 0 0 1-.16-1.48c-.07-1-.13-2.34-.19-4.05-.13-3.43-.16-8.16-.13-13.38v-13.36-4.05A8.66 8.66 0 0 1 153 164zm33.92 54.47c0 .1-1.1.38-2.77 1.15a21 21 0 0 0-5.85 4.09 20.72 20.72 0 0 0-4.09 5.84l-1.16 2.77a2.55 2.55 0 0 1 .13-.81 13.88 13.88 0 0 1 .69-2.11A18.7 18.7 0 0 1 184 219.29a13.83 13.83 0 0 1 2.1-.69 3 3 0 0 1 .82-.13zm-4.98-1.19a46.9 46.9 0 0 0-5.48 3.47 49.56 49.56 0 0 0-4.6 4.57 5.77 5.77 0 0 1 1-1.65 18.84 18.84 0 0 1 3.26-3.33 19.54 19.54 0 0 1 4-2.45 5.59 5.59 0 0 1 1.82-.61zm-53.37-77.46a6.34 6.34 0 0 1-.07 1.36l-.38 3.67c-.35 3.1-.89 7.38-1.63 12.08l-.81 4.84-.13.72-.34-.65a48.51 48.51 0 0 0-2.47-4.25c-.4-.62-.8-1.19-1.18-1.72a6.13 6.13 0 0 0-1.14-1.33 1.77 1.77 0 0 0-1.24-.47 1.53 1.53 0 0 0-.91.43 1.16 1.16 0 0 0-.31.79s-.23-.37.19-.91a1.67 1.67 0 0 1 1-.55 2 2 0 0 1 1.47.46 6.55 6.55 0 0 1 1.24 1.36c.4.52.82 1.09 1.24 1.71a42.2 42.2 0 0 1 2.55 4.25l-.46.07.79-4.83 1.78-12 .54-3.65a6.51 6.51 0 0 1 .27-1.38z"/></g><g class="G"><path d="M125.27 161.41l-1 4.4-3.13-8.76a6 6 0 0 0-.79-1.65 2 2 0 0 0-1.54-.87 1.34 1.34 0 0 1 2.24 0c1.21 1.36 4.22 6.88 4.22 6.88z"/></g><g class="G"><path d="M153.43,200c2.73-9.77,2.16-22-.46-31.82Z"/></g><path d="M153 177.36a13.81 13.81 0 0 1-2.38-.28l-5.72-.57-5.76-.07a13.2 13.2 0 0 1-2.39 0 9.09 9.09 0 0 1 2.37-.38 41.53 41.53 0 0 1 11.56.65 8.87 8.87 0 0 1 2.32.65zm1 71.43a4.18 4.18 0 0 1-1-.46l-2.57-1.44a94.29 94.29 0 0 1-15.63-11.58l-2.13-2.05-.72-.81a4.3 4.3 0 0 1 .86.66L135 235l7.58 6.05 8 5.5 2.48 1.58a4.48 4.48 0 0 1 .94.66z" class="B"/><g class="D"><path d="M66.27,145.56s-4.68.86-9.12,10.19-15.86,40.32-16.6,42.39l23.34,15.52L77.06,174.6Z"/><path d="M78.45 229.72l.2-13.24-15.07-5.11 2.84-9.37-23.22-11s-10.39 27.21-10.33 32.2c0 1.84 4.16 11.22 12.81 12.06 5.63.55 18.36 1.29 26.93 1.6a5.71 5.71 0 0 0 5.84-7.14z"/></g><g class="B"><path d="M74.19 181.11c.14 0-1.9 6.93-4.55 15.38l-5 15.23c-.09-.04 1.9-6.93 4.55-15.39l5-15.22z"/><path d="M70.91 213.85a3.66 3.66 0 0 1-1-.22l-2.62-.8-3.83-1.24a26.15 26.15 0 0 0-4.82-.89 21.78 21.78 0 0 0-8.79 1c-2.16.75-3.37 1.52-3.42 1.43a3.81 3.81 0 0 1 .82-.58 17.09 17.09 0 0 1 2.48-1.2 20.39 20.39 0 0 1 9-1.13 30.14 30.14 0 0 1 8.73 2.31l2.56.95a3.77 3.77 0 0 1 .89.37z"/><path d="M56 203.13a4.93 4.93 0 0 1 1.78.54 12.92 12.92 0 0 1 3.69 2.57 12.7 12.7 0 0 1 2.55 3.7 4.47 4.47 0 0 1 .54 1.78 21 21 0 0 0-3.46-5.11 21.26 21.26 0 0 0-5.1-3.48zm18-35.01c-.1 0 .08-1.25 0-3.26a23.8 23.8 0 0 0-5.41-14.4l-2.17-2.44c.07-.07.27.16.71.52a14.92 14.92 0 0 1 1.74 1.68 21 21 0 0 1 2.13 2.86 24.63 24.63 0 0 1 2 3.92 23.12 23.12 0 0 1 1.12 4.25 19.64 19.64 0 0 1 .26 3.57 16.5 16.5 0 0 1-.19 2.41 3.28 3.28 0 0 1-.19.89z"/></g><g class="G"><path d="M54.73 208.28a15.82 15.82 0 0 0-9.57 3.64 1.09 1.09 0 0 0-.48.73.79.79 0 0 0 .81.72 2.53 2.53 0 0 0 1.15-.38 22.86 22.86 0 0 1 17.54-1.38l.32-.29a15.79 15.79 0 0 0-9.77-3.04z"/></g><path d="M78.65 232.4s0 .12-.05.36a4.28 4.28 0 0 1-.29 1 5.43 5.43 0 0 1-5.17 3.33h-3l-6.84-.28a356.11 356.11 0 0 1-12.39-.91l-3.75-.38a6.65 6.65 0 0 1-1.36-.22 7.26 7.26 0 0 1 1.38 0l3.76.21 12.39.76 6.82.32 3 .08a4.92 4.92 0 0 0 2.44-.47 5.24 5.24 0 0 0 2.56-2.51 6 6 0 0 0 .37-.94c.06-.24.11-.36.13-.35zm3.14-.78l13 .48c1.3.05 2.51-1.14 3.07-3l10.18-35.71c.65-2.46-.72-4.45-2.94-4.59l-17.2-1.08c-2.77 0-4.25 1.19-4.74 3.27l-6.7 28.26c-1.46 6 1.26 12.22 5.33 12.37z" class="B"/><path d="M70.65,214.77l3.46-7.33,5.69-1.9-1.74,7c2.23,1.08,5.58,1.64,7.51.57s9.48-8.57,10.9-7.85,2.7,2.44,1.4,4.09-8.38,6.76-6.92,8.27,9.62-5.11,12-4.62,3.86,1.89,2.52,2.91-4.62,4.31-5.2,5.75c.14,1.8,1,4.35.21,4.8a28.69,28.69,0,0,1-6,2.08,62.69,62.69,0,0,0-6.27,2.34,14,14,0,0,1-9.85.22l-1.63-.57a6.3,6.3,0,0,1-4.21-6l.06-5.4Z" class="I"/><path d="M79.39 213.08a11.22 11.22 0 0 0 .55-1.73l1.28-4.76 1.84-7.07 1.06-4.18c.37-1.44.57-3.08 1.56-4.15s2.68-1.12 4.11-1.06l4.3.33 7.29.52 4.92.3a10.42 10.42 0 0 0 1.81 0 10.56 10.56 0 0 0-1.79-.26l-4.9-.49-7.29-.65-4.31-.36a9.77 9.77 0 0 0-2.34.1 4 4 0 0 0-2.23 1.13 5.23 5.23 0 0 0-1.13 2.25l-.56 2.22-1 4.2-1.71 7.1-1.11 4.81a10.89 10.89 0 0 0-.35 1.75z" class="F"/><path d="M95,195.81a1.28,1.28,0,1,0,1.27-1.28A1.28,1.28,0,0,0,95,195.81Z" class="C"/><defs ><path id="B" d="M198.64 178.86h5.6v5.6h-5.6z"/><path id="C" d="M241.09 359.7c0 .14-20.24.26-45.21.26s-45.23-.12-45.23-.26 20.25-.26 45.23-.26l45.21.26z"/><path id="D" d="M241.09 440.63c0 .15-20.24.26-45.21.26s-45.23-.11-45.23-.26 20.25-.26 45.23-.26l45.21.26z"/><path id="E" d="M132.92 101.88a1.7 1.7 0 0 1-1.72 1.62 1.62 1.62 0 0 1-1.66-1.62 1.7 1.7 0 0 1 1.72-1.62 1.62 1.62 0 0 1 1.66 1.62z"/></defs></svg>