<svg xmlns="http://www.w3.org/2000/svg" viewBox="0 0 500 500" xmlns:v="https://vecta.io/nano"><path d="m132.549 199.157c-11.222 0-20.32 9.096-20.32 20.318s9.098 20.32 20.32 20.32h82.158c11.222 0 20.32-9.098 20.32-20.32s-9.098-20.318-20.32-20.318h-.447c0-8.138-6.597-14.735-14.735-14.735s-14.735 6.597-14.735 14.735c0-14.166-11.484-25.65-25.65-25.65s-25.648 11.484-25.648 25.65z" fill="#71c9ff"/><path d="M235.027 219.475c0-11.222-9.098-20.318-20.32-20.318h-.447c0-3.627-1.316-6.943-3.489-9.51a661.85 661.85 0 0 1-6.115 50.148h10.051c11.222 0 20.32-9.098 20.32-20.32z" fill="#22a3dd"/><path d="M149.359 224.154H132.55a5 5 0 0 1-4.995-4.997 5 5 0 0 1 4.995-4.997h16.809l-.864-14.751c0-5.561 4.22-10.329 9.604-10.85 2.772-.193 5.191 1.757 5.456 4.504a5 5 0 0 1-4.504 5.455l-.564 16.5c.001 5.039-4.096 9.136-9.128 9.136z" fill="#bde4f6"/><path d="M4.994 429.72h489.995v65.277H4.994z" fill="#08af6c"/><path d="M4.993 429.72h122.324v65.277H4.993zm367.674 0H494.99v65.277H372.667zm-29.077 19.293a679.99 679.99 0 0 1-76.66-313.658V81.18h-33.878v54.174c0 109.193-26.295 216.781-76.658 313.658l-3.667 7.049h43.344c0-29.788 24.14-53.938 53.919-53.938s53.921 24.149 53.921 53.938h43.343zm-123.958-70.705a714.82 714.82 0 0 0 30.359-110.316c7.154 37.503 17.311 74.433 30.361 110.316z" fill="#c6c6c6"/><path d="M332.059 94.252c-8.866 0-16.055 7.187-16.055 16.055a16.06 16.06 0 0 0 16.055 16.055h64.917a16.06 16.06 0 0 0 16.055-16.055c0-8.868-7.189-16.055-16.055-16.055h-.354c0-6.431-5.212-11.643-11.642-11.643s-11.643 5.212-11.643 11.643c0-11.193-9.072-20.266-20.266-20.266s-20.266 9.072-20.266 20.266z" fill="#71c9ff"/><path d="M228.116 74.561V62.607c0-9.884 8.009-17.897 17.892-17.897h7.966a17.9 17.9 0 0 1 17.894 17.897v11.954a6.62 6.62 0 0 1-6.617 6.619h-30.517a6.62 6.62 0 0 1-6.618-6.619zm86.787 305.942H185.079c-5.397 0-9.772-4.375-9.772-9.774v-6.671c0-5.397 4.375-9.772 9.772-9.772h129.823c5.399 0 9.774 4.375 9.774 9.772v6.671c.001 5.399-4.375 9.774-9.773 9.774z" fill="#c6c6c6"/><path d="M11.66 480.061H4.987a5 5 0 0 1-4.997-4.997 5 5 0 0 1 4.997-4.997h6.673a5 5 0 0 1 4.997 4.997 5 5 0 0 1-4.997 4.997zm103.995 0H27.657a5 5 0 0 1-4.997-4.997 5 5 0 0 1 4.997-4.997h87.998a5 5 0 0 1 4.995 4.997 5 5 0 0 1-4.995 4.997zm379.338 0h-6.673a5 5 0 0 1-4.997-4.997 5 5 0 0 1 4.997-4.997h6.673a5 5 0 0 1 4.997 4.997 5 5 0 0 1-4.997 4.997zm-22.67 0h-87.998a5 5 0 0 1-4.997-4.997 5 5 0 0 1 4.997-4.997h87.998a5 5 0 0 1 4.997 4.997 5 5 0 0 1-4.997 4.997z" fill="#f6f6f6"/><g fill="#08af6c"><path d="M79.948 414.309c-.55-1.707-.85-3.526-.85-5.415 0-9.745 7.897-17.644 17.639-17.644s17.639 7.899 17.639 17.644c0 1.889-.3 3.708-.852 5.415 7.892 1.756 13.793 8.796 13.793 17.219 0 9.743-7.897 17.644-17.639 17.644a17.58 17.58 0 0 1-12.941-5.663c-3.222 3.48-7.827 5.663-12.943 5.663-9.741 0-17.639-7.901-17.639-17.644-.001-8.424 5.903-15.462 13.793-17.219z"/><path d="m18.786 414.309c-.55-1.707-.85-3.526-.85-5.415 0-9.745 7.897-17.644 17.639-17.644s17.639 7.899 17.639 17.644c0 1.889-.3 3.708-.85 5.415 7.89 1.756 13.791 8.796 13.791 17.219 0 9.743-7.895 17.644-17.637 17.644-5.117 0-9.721-2.182-12.943-5.663-3.222 3.48-7.827 5.663-12.941 5.663-9.741 0-17.639-7.901-17.639-17.644-.001-8.424 5.901-15.462 13.791-17.219z"/></g><path d="M280.349 480.061H143.657a5 5 0 0 1-4.997-4.997 5 5 0 0 1 4.997-4.997h136.692a5 5 0 0 1 4.997 4.997 5 5 0 0 1-4.997 4.997zm31.305 0h-11.989a5 5 0 0 1-4.997-4.997 5 5 0 0 1 4.997-4.997h11.989a5 5 0 0 1 4.995 4.997 5 5 0 0 1-4.995 4.997z" fill="#35ec9c"/><g fill="#08af6c"><path d="m447.621 414.309c-.55-1.707-.852-3.526-.852-5.415 0-9.745 7.897-17.644 17.639-17.644s17.639 7.899 17.639 17.644c0 1.889-.3 3.708-.85 5.415 7.892 1.756 13.793 8.796 13.793 17.219 0 9.743-7.897 17.644-17.639 17.644-5.117 0-9.721-2.182-12.943-5.663-3.222 3.48-7.827 5.663-12.941 5.663-9.741 0-17.639-7.901-17.639-17.644 0-8.424 5.901-15.462 13.793-17.219z"/><path d="m386.459 414.309c-.55-1.707-.85-3.526-.85-5.415 0-9.745 7.897-17.644 17.639-17.644s17.639 7.899 17.639 17.644c0 1.889-.302 3.708-.852 5.415 7.892 1.756 13.793 8.796 13.793 17.219 0 9.743-7.897 17.644-17.639 17.644-5.115 0-9.72-2.182-12.941-5.663-3.222 3.48-7.827 5.663-12.943 5.663-9.741 0-17.639-7.901-17.639-17.644 0-8.424 5.901-15.462 13.793-17.219z"/></g><path d="m285.116 294.211h-70.249c-5.399 0-9.774-4.377-9.774-9.774v-6.671c0-5.397 4.375-9.774 9.774-9.774h70.249c5.397 0 9.772 4.377 9.772 9.774v6.671c.001 5.397-4.375 9.774-9.772 9.774z" fill="#c6c6c6"/><path d="M74.569 239.797a5 5 0 0 1 4.997-4.997h2.347a5 5 0 0 1 4.997 4.997 5 5 0 0 1-4.997 4.997h-2.347a5 5 0 0 1-4.997-4.997zm225.414-113.432a5 5 0 0 1 4.995-4.997h9.618c-2.081-3.265-3.598-6.914-3.598-11.061 0-10.302 7.434-18.901 17.234-20.71 2.189-11.714 12.5-20.604 24.842-20.604 9.146 0 17.179 4.882 21.611 12.182a16.58 16.58 0 0 1 10.293-3.567c7.594 0 14.003 5.111 15.997 12.068 9.835 1.969 17.056 10.47 17.056 20.631 0 11.609-9.447 21.056-21.065 21.056h-62.731-2.171-27.085a5 5 0 0 1-4.996-4.998zm32.081-4.997h2.171 62.731c6.109 0 11.07-4.961 11.07-11.061s-4.961-11.061-11.07-11.061c-2.754 0-5.35-2.233-5.35-4.997a6.66 6.66 0 0 0-6.639-6.648c-3.654 0-6.637 2.985-6.637 6.648a5 5 0 0 1-4.997 4.997 5 5 0 0 1-4.997-4.997 15.29 15.29 0 0 0-15.272-15.263 15.29 15.29 0 0 0-15.272 15.263 5 5 0 0 1-4.997 4.997h-.741c-6.109 0-11.07 4.961-11.07 11.061s4.961 11.061 11.07 11.061zm-46.577 9.995h3.249a5 5 0 0 0 4.997-4.997 5 5 0 0 0-4.997-4.997h-3.249a5 5 0 0 0-4.997 4.997 5 5 0 0 0 4.997 4.997zm-35.489-26.194a5 5 0 0 0 4.997-4.995v-2.128a5 5 0 0 0-4.997-4.997 5 5 0 0 0-4.995 4.997v2.128a5 5 0 0 0 4.995 4.995zm249.993 326.355c0 12.491-10.154 22.645-22.636 22.645-2.763 0-5.41-.649-7.944-1.609v42.439a5 5 0 0 1-4.997 4.995 5 5 0 0 1-4.997-4.995v-42.444c-2.54.962-5.189 1.615-7.944 1.615-7.297 0-13.497-3.694-17.639-9.069-4.142 5.375-10.343 9.069-17.639 9.069-2.763 0-5.411-.649-7.944-1.609V495a5 5 0 0 1-4.997 4.995 5 5 0 0 1-4.997-4.995v-42.446c-2.538.964-5.189 1.616-7.944 1.616-11.352 0-20.374-8.535-21.989-19.448h-26.08l5.782 11.989 3.654 7.053a5 5 0 0 1-2.135 6.744c-.725.38-1.519.557-2.296.557-1.801 0-3.549-.98-4.431-2.692l-3.654-7.055c-3.081-5.927-5.805-12.023-8.698-18.04-.137-.136-.125-.36-.246-.51-7.442-15.514-14.411-31.24-20.674-47.263h-119.11c-6.23 15.939-13.16 31.584-20.557 47.022-.17.231-.159.559-.365.758-2.893 6.013-5.616 12.11-8.696 18.033l-3.654 7.055c-1.273 2.453-4.326 3.399-6.727 2.135a5 5 0 0 1-2.137-6.744l3.656-7.053c2.048-3.94 3.826-8.008 5.784-11.989h-26.066c-1.616 10.913-10.636 19.448-21.987 19.448-2.763 0-5.411-.649-7.946-1.611V495c0 2.763-2.242 4.995-4.995 4.995A5 5 0 0 1 91.749 495v-42.45c-2.547.965-5.205 1.62-7.962 1.62-7.295 0-13.498-3.692-17.639-9.069-4.14 5.377-10.336 9.069-17.621 9.069-2.761 0-5.419-.654-7.964-1.62V495c0 2.763-2.242 4.995-4.995 4.995A5 5 0 0 1 30.571 495v-42.44c-2.533.96-5.183 1.609-7.946 1.609-12.482 0-22.634-10.154-22.634-22.645 0-8.837 5.261-16.818 13.048-20.49a21.4 21.4 0 0 1-.107-2.137c0-12.491 10.152-22.643 22.636-22.643s22.634 10.152 22.634 22.643a27.3 27.3 0 0 1-.089 2.128c3.227 1.526 5.87 3.92 8.035 6.686 2.168-2.766 4.816-5.16 8.051-6.686a28.86 28.86 0 0 1-.089-2.128c0-12.491 10.152-22.643 22.636-22.643s22.634 10.152 22.634 22.643a21.4 21.4 0 0 1-.105 2.137c5.71 2.692 10.011 7.725 11.925 13.692h31.359c6.221-13.243 12.11-26.637 17.487-40.242-5.645-2.077-9.729-7.396-9.729-13.759v-6.664c0-8.149 6.621-14.769 14.76-14.769h7.696c5.719-17.17 10.66-34.585 15.008-52.151-4.502-2.531-7.678-7.172-7.678-12.699v-6.675c0-8.149 6.621-14.769 14.76-14.769h.55l3.397-18.837c-1.347.275-2.665.635-4.106.635H138.57h-6.021-35.646a5 5 0 0 1-4.996-4.997 5 5 0 0 1 4.996-4.997h15.628c-3.276-4.267-5.299-9.539-5.299-15.324 0-12.703 9.411-23.252 21.611-25.053 2.296-14.665 15.008-25.912 30.298-25.912 11.67 0 21.824 6.543 26.997 16.147 3.531-3.249 8.228-5.234 13.383-5.234 9.288 0 17.109 6.444 19.193 15.095 2.274.383 4.355 1.166 6.306 2.161 1.92-20.378 3.034-40.835 3.034-61.325V83.804c-2.907-2.114-4.927-5.375-4.927-9.241V62.609c0-12.276 9.745-22.141 21.876-22.697V4.997A5 5 0 0 1 249.998 0a5 5 0 0 1 4.997 4.997v34.918c12.122.57 21.875 10.425 21.875 22.694v11.954c0 3.871-2.025 7.136-4.943 9.25v51.54c0 42.865 4.433 85.619 12.641 127.644h.548c8.139 0 14.76 6.621 14.76 14.769v6.675c0 5.551-3.198 10.211-7.729 12.735 4.355 17.556 9.336 34.952 15.055 52.115h7.7c8.156 0 14.777 6.621 14.777 14.769v6.664c0 6.366-4.088 11.687-9.745 13.761 5.38 13.605 11.267 26.997 17.487 40.24h31.374c1.913-5.972 6.212-11.009 11.911-13.701a28.86 28.86 0 0 1-.089-2.128c0-12.491 10.154-22.643 22.636-22.643s22.634 10.152 22.634 22.643a21.4 21.4 0 0 1-.105 2.137c3.231 1.524 5.88 3.916 8.046 6.679 2.164-2.768 4.809-5.162 8.038-6.688a28.86 28.86 0 0 1-.089-2.128c0-12.491 10.154-22.643 22.636-22.643s22.634 10.152 22.634 22.643a28.32 28.32 0 0 1-.087 2.128c7.769 3.673 13.031 11.655 13.031 20.5zm-438.841 0c0-5.871-4.149-11.061-9.888-12.332a5.06 5.06 0 0 1-3.249-2.392c-.687-1.219-.846-2.685-.423-4.017a12.56 12.56 0 0 0 .618-3.885c0-6.973-5.668-12.65-12.641-12.65s-12.641 5.677-12.641 12.65a12.21 12.21 0 0 0 .617 3.84c.441 1.343.3 2.808-.405 4.035a4.95 4.95 0 0 1-3.249 2.419c-5.739 1.271-9.906 6.462-9.906 12.332 0 6.975 5.668 12.65 12.641 12.65a12.48 12.48 0 0 0 9.269-4.052c.025-.027.074-.016.099-.043.911-.951 2.157-1.564 3.574-1.564s2.663.613 3.573 1.564c.022.022.061.011.081.034 2.437 2.613 5.739 4.061 9.306 4.061 6.956.001 12.624-5.675 12.624-12.65zm61.178 0c0-5.871-4.167-11.061-9.906-12.332-1.376-.309-2.56-1.182-3.247-2.419-.707-1.228-.848-2.692-.407-4.035.407-1.226.618-2.515.618-3.84 0-6.973-5.668-12.65-12.641-12.65s-12.643 5.677-12.643 12.65a12.62 12.62 0 0 0 .618 3.885c.425 1.332.266 2.799-.423 4.017a5.06 5.06 0 0 1-3.249 2.392c-5.739 1.271-9.906 6.462-9.906 12.332 0 6.975 5.668 12.65 12.643 12.65 3.565 0 6.867-1.448 9.304-4.061.022-.023.061-.013.081-.034.911-.951 2.157-1.564 3.574-1.564s2.661.615 3.573 1.564c.027.027.074.016.099.043 2.419 2.613 5.702 4.052 9.269 4.052 6.975.001 12.643-5.675 12.643-12.65zm125.957-132.315c-4.03 16.872-8.751 33.563-13.95 50.083h31.314c-5.2-16.527-9.915-33.218-13.938-50.083zm48.374 50.083c-5.409-16.505-10.123-33.224-14.288-50.083h-20.135c4.01 16.849 8.463 33.591 13.674 50.083zm-63.54-274.729c0 .891.725 1.624 1.607 1.624h30.528c.9 0 1.624-.732 1.624-1.624V62.609c0-7.114-5.791-12.905-12.907-12.905h-7.962c-7.098 0-12.889 5.791-12.889 12.905v11.954zm-12.515 158.719c1.289-8.593 2.39-17.21 3.346-25.847-2.56-2.018-5.722-3.287-9.246-3.287-2.755 0-5.438-2.233-5.438-4.995 0-5.368-4.379-9.738-9.747-9.738s-9.729 4.37-9.729 9.738c0 2.763-2.242 4.995-4.995 4.995a5 5 0 0 1-4.997-4.995c0-11.388-9.27-20.649-20.658-20.649s-20.656 9.26-20.656 20.649a5 5 0 0 1-4.997 4.995h-.937c-8.456 0-15.324 6.878-15.324 15.326s6.869 15.324 15.324 15.324h6.021 76.134c2.157.001 4.08-.675 5.899-1.516zm4.996 29.715h19.403v-144.41a5 5 0 0 1 4.995-4.997 5 5 0 0 1 4.997 4.997v144.409h19.383c-8.085-42.039-12.444-84.787-12.444-127.644V86.179h-23.889v49.174c.001 42.856-4.36 85.604-12.445 127.644zm-15.504 21.444a4.78 4.78 0 0 0 4.768 4.775h70.252a4.78 4.78 0 0 0 4.768-4.775v-6.675a4.78 4.78 0 0 0-4.768-4.775h-70.252a4.78 4.78 0 0 0-4.768 4.775zm-6.776 64.851h20.75c5.214-16.485 9.669-33.229 13.683-50.083H217.61c-4.165 16.859-8.879 33.578-14.29 50.083zm-23.01 21.433c0 2.64 2.137 4.786 4.768 4.786h129.825c2.631 0 4.784-2.146 4.784-4.786v-6.664c0-2.631-2.153-4.777-4.784-4.777H185.078a4.78 4.78 0 0 0-4.768 4.777zm248.526 60.799c0-5.871-4.165-11.061-9.904-12.332a4.95 4.95 0 0 1-3.249-2.419c-.707-1.228-.848-2.692-.407-4.035.407-1.226.618-2.515.618-3.84 0-6.973-5.668-12.65-12.641-12.65s-12.641 5.677-12.641 12.65a12.62 12.62 0 0 0 .617 3.885c.425 1.332.266 2.799-.423 4.017a5.06 5.06 0 0 1-3.249 2.392c-5.739 1.271-9.888 6.462-9.888 12.332 0 6.975 5.668 12.65 12.643 12.65 3.549 0 6.85-1.448 9.286-4.061.02-.023.06-.013.083-.036.909-.951 2.155-1.562 3.573-1.562s2.663.615 3.573 1.564c.027.027.074.016.099.043 2.419 2.613 5.702 4.052 9.269 4.052 6.973.001 12.641-5.675 12.641-12.65zm61.16 0c0-5.871-4.149-11.061-9.886-12.332-1.36-.309-2.544-1.175-3.249-2.392-.689-1.219-.848-2.685-.425-4.017a12.56 12.56 0 0 0 .618-3.885c0-6.973-5.668-12.65-12.641-12.65s-12.641 5.677-12.641 12.65a12.56 12.56 0 0 0 .618 3.885c.423 1.332.264 2.799-.425 4.017-.705 1.217-1.889 2.083-3.249 2.392-5.739 1.271-9.886 6.462-9.886 12.332a12.66 12.66 0 0 0 12.641 12.65c3.549 0 6.85-1.448 9.286-4.061.02-.023.06-.013.083-.036.909-.951 2.157-1.562 3.573-1.562s2.663.615 3.573 1.564c.027.027.074.016.099.043a12.49 12.49 0 0 0 9.27 4.052 12.66 12.66 0 0 0 12.641-12.65zM223.991 451.07h-22.466c1.034-10.023 4.945-19.553 11.609-27.19 1.535-1.739 3.16-3.374 4.925-4.883 2.085-1.801 2.33-4.961.53-7.053-1.783-2.092-4.925-2.33-7.062-.539-2.119 1.828-4.097 3.797-5.916 5.898-8.266 9.465-13.017 21.325-14.081 33.768h-10.036a5 5 0 0 0-4.997 4.995 5 5 0 0 0 4.997 4.997h42.496a5 5 0 0 0 4.997-4.997c.001-2.763-2.241-4.996-4.996-4.996zm26.007 0h-8.51c-2.754 0-4.995 2.233-4.995 4.995a5 5 0 0 0 4.995 4.997h8.51a5 5 0 0 0 4.997-4.997c.001-2.762-2.241-4.995-4.997-4.995zm0-53.939c-2.754 0-4.995 2.233-4.995 4.995a5 5 0 0 0 4.995 4.997c26.979 0 48.926 21.956 48.926 48.942a5 5 0 0 0 4.995 4.997 5 5 0 0 0 4.997-4.997c.001-32.494-26.43-58.934-58.918-58.934zm-13.294 6.382c-.955-2.605-3.885-3.956-6.391-3.019a58.82 58.82 0 0 0-4.204 1.669c-2.524 1.121-3.654 4.079-2.542 6.603.83 1.862 2.667 2.976 4.572 2.976.689 0 1.378-.141 2.03-.434 1.148-.512 2.314-.971 3.497-1.403 2.614-.928 3.957-3.788 3.038-6.392z" fill="#231f20"/></svg>