<svg xmlns="http://www.w3.org/2000/svg" viewBox="0 0 500 500" xmlns:v="https://vecta.io/nano"><style><![CDATA[.B{fill:#263238}.C{fill:#407bff}.D{fill:#fff}.E{fill:#b55b52}.F{fill:#f5f5f5}.G{fill:#ffb573}.H{opacity:.2}.I{fill:#ffc3bd}.J{opacity:.3}.K{fill:#ebebeb}.L{fill:#e0e0e0}.M{fill:#f0f0f0}]]></style><path d="M0 382.4h500v.25H0zm394.36 11.45h50.9v.25h-50.9zm-341.9-2.96h47.21v.25H52.46zm326.35-1.68H398v.25h-19.19zm-61.67 6.63h14.08v.25h-14.08zm-44.35 0h35.44v.25h-35.44zm-77.57-4.22h56.99v.25h-56.99zM237 337.8H43.91a5.71 5.71 0 0 1-5.7-5.71V60.66a5.71 5.71 0 0 1 5.7-5.66H237a5.71 5.71 0 0 1 5.71 5.71v271.38a5.71 5.71 0 0 1-5.71 5.71zM43.91 55.2a5.46 5.46 0 0 0-5.45 5.46v271.43a5.46 5.46 0 0 0 5.45 5.46H237a5.47 5.47 0 0 0 5.46-5.46V60.66A5.47 5.47 0 0 0 237 55.2zm409.4 282.6h-193.1a5.72 5.72 0 0 1-5.71-5.71V60.66a5.72 5.72 0 0 1 5.71-5.66h193.1a5.71 5.71 0 0 1 5.69 5.66v271.43a5.71 5.71 0 0 1-5.69 5.71zM260.21 55.2a5.47 5.47 0 0 0-5.46 5.46v271.43a5.47 5.47 0 0 0 5.46 5.46h193.1a5.47 5.47 0 0 0 5.46-5.46V60.66a5.47 5.47 0 0 0-5.46-5.46z" class="K"/><path d="M58.51 88.02h165.98v211.22H58.51z" fill="#e6e6e6"/><path d="M56.44 88.02h165.98v211.22H56.44z" fill="#fafafa"/><path d="M217.78 92.67V294.6H61.09V92.67z" class="D"/><circle cx="139.43" cy="254.76" r="21.18" fill="#fafafa"/><path d="M161.88 193.63c0 3.86-3.4 6.84-5.2 10s-2.8 7.63-6 9.49-7.37.46-11.23.46-8.11 1.34-11.23-.46-4.15-6.28-6-9.49-5.21-6.1-5.21-10 3.4-6.84 5.21-9.95 2.8-7.63 6-9.49 7.36-.47 11.22-.47 8.12-1.33 11.23.47 4.16 6.27 6 9.49 5.21 6.1 5.21 9.95z" class="K"/><path d="M163.82 132.5l-7.29 5.56 2.63 8.78-9.16.21-3.03 8.66-7.54-5.23-7.53 5.23-3.03-8.66-9.17-.21 2.63-8.78-7.28-5.56 7.28-5.55-2.63-8.78 9.17-.21 3.03-8.65 7.53 5.22 7.54-5.22 3.03 8.65 9.16.21-2.63 8.78 7.29 5.55z" class="L"/><g class="M"><path d="M436.66 378.7h-19.75v-80.44h19.75z"/><path d="M431.45 382.4h-162.9v-3.7h162.9z"/></g><path d="M263.34 298.26h153.57v80.44H263.34z" class="F"/><g class="M"><use href="#B"/><use href="#B" y="25.05"/></g><g class="F"><rect x="299.98" y="326.02" width="80.28" height="2.62" rx="1.26" transform="matrix(-1 0 0 -1 680.25 654.66)"/><rect x="299.98" y="351.07" width="80.28" height="2.62" rx="1.26" transform="matrix(-1 0 0 -1 680.25 704.76)"/></g><use href="#B" y="-25.05" class="M"/><g class="F"><rect x="299.98" y="300.97" width="80.28" height="2.62" rx="1.26" transform="matrix(-1 0 0 -1 680.25 604.57)"/><circle cx="403.51" cy="78.44" r="17.71" transform="matrix(.707107 -.707107 .707107 .707107 62.72 308.3)"/></g><circle cx="400.59" cy="78.44" r="13.05" transform="matrix(.707107 -.707107 .707107 .707107 61.87 306.24)" class="K"/><path d="M400.29 78.44a2.37 2.37 0 1 1-2.37-2.37 2.37 2.37 0 0 1 2.37 2.37z" class="D"/><g class="K"><path d="M408.71 100.34a25.83 25.83 0 0 1-5.52-.58 1.34 1.34 0 0 1 .64-2.6c.09 0 9.26 2.17 15.5-2.74 4-3.13 6-8.51 6-16a1.34 1.34 0 1 1 2.68 0c0 8.34-2.37 14.43-7.05 18.09a19.72 19.72 0 0 1-12.25 3.83z"/><path d="M425.53 80.58a2.48 2.48 0 0 1-2.48-2.48v-4.69a2.48 2.48 0 0 1 5 0v4.69a2.49 2.49 0 0 1-2.52 2.48z"/></g><ellipse cx="250" cy="416.24" rx="193.89" ry="11.32" class="F"/><path d="M253.61 112.42h192.78v140.43H253.61z" class="B"/><g class="D"><path d="M304.84 177.16a7.21 7.21 0 0 1-2.83-.78 9.7 9.7 0 0 0-1.85-.64 10.3 10.3 0 0 0-2-.12 7.22 7.22 0 0 1-2.86-.35 7.41 7.41 0 0 1-2.3-1.8 11.16 11.16 0 0 0-1.47-1.32 11.52 11.52 0 0 0-1.8-.87 7.15 7.15 0 0 1-2.52-1.43 7.26 7.26 0 0 1-1.43-2.51 9.37 9.37 0 0 0-.87-1.8 9.48 9.48 0 0 0-1.32-1.48 7.12 7.12 0 0 1-1.79-2.3 7.34 7.34 0 0 1-.36-2.85 10.36 10.36 0 0 0-.11-2 9.44 9.44 0 0 0-.65-1.84 5.54 5.54 0 0 1 0-5.67 9.76 9.76 0 0 0 .65-1.85 10.21 10.21 0 0 0 .11-2 7.42 7.42 0 0 1 .36-2.86 7.19 7.19 0 0 1 1.79-2.29 9.48 9.48 0 0 0 1.32-1.48 9.66 9.66 0 0 0 .87-1.8 7.4 7.4 0 0 1 1.43-2.52 7.57 7.57 0 0 1 2.52-1.43 9.66 9.66 0 0 0 1.8-.87A9.9 9.9 0 0 0 293 131a7.65 7.65 0 0 1 2.3-1.79 7.22 7.22 0 0 1 2.86-.35 10.3 10.3 0 0 0 2-.12 9.7 9.7 0 0 0 1.85-.64 7.21 7.21 0 0 1 2.83-.78 7.3 7.3 0 0 1 2.84.78 9.38 9.38 0 0 0 1.84.64 10.3 10.3 0 0 0 2 .12 7.22 7.22 0 0 1 2.86.35 7.53 7.53 0 0 1 2.3 1.79 7.08 7.08 0 0 0 3.27 2.19 5.45 5.45 0 0 1 4 4 9.66 9.66 0 0 0 .87 1.8 9.48 9.48 0 0 0 1.32 1.48 7.19 7.19 0 0 1 1.79 2.29 7.42 7.42 0 0 1 .36 2.86 10.21 10.21 0 0 0 .11 2 9.76 9.76 0 0 0 .65 1.85 5.54 5.54 0 0 1 0 5.67 9.44 9.44 0 0 0-.65 1.84 10.36 10.36 0 0 0-.11 2 7.34 7.34 0 0 1-.36 2.85 7.12 7.12 0 0 1-1.79 2.3 9.48 9.48 0 0 0-1.32 1.48 9.37 9.37 0 0 0-.87 1.8 5.41 5.41 0 0 1-4 3.94 11.52 11.52 0 0 0-1.8.87 11.16 11.16 0 0 0-1.47 1.32 7.41 7.41 0 0 1-2.3 1.8 7.22 7.22 0 0 1-2.86.35 10.3 10.3 0 0 0-2 .12 9.38 9.38 0 0 0-1.84.64 7.3 7.3 0 0 1-2.84.71zm-6.29-2a8.89 8.89 0 0 1 1.71.12 9.94 9.94 0 0 1 1.94.68 5.08 5.08 0 0 0 5.28 0 9.94 9.94 0 0 1 1.94-.68 10.74 10.74 0 0 1 2.12-.12 6.74 6.74 0 0 0 2.66-.32 6.82 6.82 0 0 0 2.13-1.68 10.14 10.14 0 0 1 1.55-1.38 10.32 10.32 0 0 1 1.89-.92 7 7 0 0 0 2.35-1.32 6.72 6.72 0 0 0 1.32-2.35 11 11 0 0 1 .92-1.89 10.22 10.22 0 0 1 1.39-1.56 7 7 0 0 0 1.68-2.13 6.75 6.75 0 0 0 .31-2.66 10.59 10.59 0 0 1 .13-2.11 10.7 10.7 0 0 1 .67-2 5.06 5.06 0 0 0 0-5.27 11 11 0 0 1-.67-2 10.64 10.64 0 0 1-.13-2.11 6.75 6.75 0 0 0-.31-2.66 7 7 0 0 0-1.68-2.13 10.22 10.22 0 0 1-1.39-1.56 11 11 0 0 1-.92-1.89 4.95 4.95 0 0 0-3.67-3.67 10.32 10.32 0 0 1-1.89-.92 10.63 10.63 0 0 1-1.55-1.38 6.67 6.67 0 0 0-2.13-1.68 6.74 6.74 0 0 0-2.66-.32 7.47 7.47 0 0 1-4.06-.8 5.08 5.08 0 0 0-5.28 0 7.47 7.47 0 0 1-4.06.8 7 7 0 0 0-2.66.31 6.85 6.85 0 0 0-2.13 1.69 10.14 10.14 0 0 1-1.55 1.38 10.32 10.32 0 0 1-1.89.92 6.79 6.79 0 0 0-2.35 1.32 6.72 6.72 0 0 0-1.32 2.35 10.66 10.66 0 0 1-.92 1.89 10.22 10.22 0 0 1-1.39 1.56 6.85 6.85 0 0 0-1.68 2.13 6.75 6.75 0 0 0-.31 2.66 10.64 10.64 0 0 1-.13 2.11 11 11 0 0 1-.67 2 5.06 5.06 0 0 0 0 5.27 10.7 10.7 0 0 1 .67 2 10.59 10.59 0 0 1 .13 2.11 6.75 6.75 0 0 0 .31 2.66 7 7 0 0 0 1.68 2.13 10.22 10.22 0 0 1 1.39 1.56 11 11 0 0 1 .92 1.89 6.81 6.81 0 0 0 1.32 2.35 7 7 0 0 0 2.35 1.32 10.32 10.32 0 0 1 1.89.92 10.14 10.14 0 0 1 1.55 1.38 6.82 6.82 0 0 0 2.13 1.68 6.93 6.93 0 0 0 2.66.32z"/><circle cx="304.84" cy="152.21" r="14.03"/><path d="M314.86 138.43a.24.24 0 0 1-.18-.07.25.25 0 0 1 0-.36l11-11a.24.24 0 0 1 .18-.07h21.7a.25.25 0 0 1 0 .5h-21.6L315 138.36a.22.22 0 0 1-.14.07zm-27.3 53.32h-21.7a.25.25 0 0 1 0-.5h21.6l10.89-10.89a.25.25 0 0 1 .35.35l-11 11a.29.29 0 0 1-.14.04zm72.66-63.89a.2.2 0 0 1-.17-.09.22.22 0 0 1 0-.3 22.1 22.1 0 0 1 2.7-1.65 3.08 3.08 0 0 1 1.41-.43h0a3.13 3.13 0 0 1 1.37.4 5.32 5.32 0 0 0 .5.21c1.42.54 3 .13 4.65-.31a10.19 10.19 0 0 1 4.49-.5 10.72 10.72 0 0 1 1 .3l.62.19a15.41 15.41 0 0 0 6.37-.11l1.34-.19a13 13 0 0 1 6.85.5l.83.4a5.56 5.56 0 0 0 2.07.72 6.06 6.06 0 0 0 2.44-.48l.8-.26c2.42-.71 5.09-.45 7.67-.21h.47a124.37 124.37 0 0 0 21.14.15.21.21 0 0 1 .23.19.22.22 0 0 1-.19.24 125.3 125.3 0 0 1-21.22-.15h-.47c-2.54-.24-5.17-.49-7.51.2l-.78.25a6.61 6.61 0 0 1-2.62.5 6 6 0 0 1-2.22-.77l-.81-.39a12.69 12.69 0 0 0-6.63-.47l-1.32.2a16 16 0 0 1-6.56.1l-.63-.2a7.47 7.47 0 0 0-1-.28 9.71 9.71 0 0 0-4.3.49c-1.65.43-3.36.88-4.92.3l-.52-.23a3.26 3.26 0 0 0-1.2-.36 2.69 2.69 0 0 0-1.21.38 20.9 20.9 0 0 0-2.64 1.62.33.33 0 0 1-.03.04zm37.89 5.73a8.08 8.08 0 0 1-2.58-.6 7.87 7.87 0 0 0-2.65-.61 8 8 0 0 0-1.86.33 11.44 11.44 0 0 1-1.22.29 13.41 13.41 0 0 1-3.29 0h-.14c-4.88-.47-9.88-.65-14.72-.83-1.67-.06-3.54.21-3.77 1.14a.2.2 0 0 1-.18.16.22.22 0 0 1-.22-.11c-.5-.91-2.05-1.3-3.32-1.21a12.19 12.19 0 0 0-3.86 1.11.21.21 0 0 1-.28-.12.22.22 0 0 1 .12-.28 12.7 12.7 0 0 1 4-1.14 4.51 4.51 0 0 1 3.5 1.1c.7-1.07 3-1.12 4-1.08 4.85.18 9.86.36 14.76.83h.13a12.55 12.55 0 0 0 3.18 0 11.25 11.25 0 0 0 1.18-.27 8 8 0 0 1 2-.35 8.79 8.79 0 0 1 2.79.63 5.53 5.53 0 0 0 3.2.49 4.87 4.87 0 0 0 1-.41l.52-.25a11.75 11.75 0 0 1 5.31-.44 22.17 22.17 0 0 0 3.15.06.21.21 0 0 1 .23.19.22.22 0 0 1-.19.24 23.08 23.08 0 0 1-3.22-.06 11.29 11.29 0 0 0-5.11.41c-.17.07-.33.16-.49.24a5.59 5.59 0 0 1-1.06.43 3.24 3.24 0 0 1-.91.11zm-37.89 6.6a.22.22 0 0 1-.08-.42 38.35 38.35 0 0 1 5.12-1.68 9.05 9.05 0 0 1 2.86-.35 9.54 9.54 0 0 1 1.72.36 9.59 9.59 0 0 0 1.66.34 10.43 10.43 0 0 0 2-.12 6.5 6.5 0 0 1 3 .09 5.05 5.05 0 0 1 .81.39 4.31 4.31 0 0 0 .78.38c1.3.45 2.6-.14 4-.77a7.71 7.71 0 0 1 3.9-1 6.72 6.72 0 0 1 2.54 1 5.2 5.2 0 0 0 2.74.88 6 6 0 0 0 1.34-.29h.13a30.14 30.14 0 0 1 11.22-1.13h.2a7.59 7.59 0 0 0 1.58 0 8 8 0 0 0 .95-.2l.7-.17a11.44 11.44 0 0 1 4.35.31l.82.16a27.11 27.11 0 0 0 11.24-.36.22.22 0 0 1 .1.42 27.58 27.58 0 0 1-11.41.36l-.84-.16a11 11 0 0 0-4.18-.3c-.23 0-.45.1-.67.15a8.23 8.23 0 0 1-1 .22 8.46 8.46 0 0 1-1.67 0h-.2a29.93 29.93 0 0 0-11.06 1.11h-.13a6 6 0 0 1-1.43.31 5.67 5.67 0 0 1-3-.93 6.5 6.5 0 0 0-2.38-.91 7.31 7.31 0 0 0-3.67 1c-1.39.64-2.82 1.29-4.29.79a5.15 5.15 0 0 1-.85-.41 5.22 5.22 0 0 0-.75-.37 6.16 6.16 0 0 0-2.78-.06 11.12 11.12 0 0 1-2.08.12 9.58 9.58 0 0 1-1.74-.36 9.57 9.57 0 0 0-1.64-.34 8.63 8.63 0 0 0-2.73.34 37.92 37.92 0 0 0-5.06 1.66zm0 5.42a.22.22 0 0 1-.21-.17.21.21 0 0 1 .16-.26 32.51 32.51 0 0 1 6-.92 4.79 4.79 0 0 1 1.77.12 3 3 0 0 1 .38.15 2.67 2.67 0 0 0 .5.17 3.52 3.52 0 0 0 1.16 0 31.66 31.66 0 0 1 5.4-.39.23.23 0 0 1 .21.22.21.21 0 0 1-.22.21 30 30 0 0 0-5.28.38 3.92 3.92 0 0 1-1.36.05 3.3 3.3 0 0 1-.58-.2l-.34-.13a4.37 4.37 0 0 0-1.62-.1 32.62 32.62 0 0 0-6 .91zm23.56-.74a.22.22 0 1 1 0-.43h3.59.09l25.87-.12h0a.22.22 0 0 1 .21.22.21.21 0 0 1-.21.21l-25.88.12h-.09-3.58z"/></g><g opacity=".1" class="D"><path d="M412.05 198.63c0 2.4-1.66 4.61-2.11 6.88s.22 5-.67 7.15-3.29 3.59-4.59 5.54-1.7 4.69-3.37 6.35-4.39 2-6.35 3.36-3.34 3.68-5.53 4.59-4.82.21-7.16.67-4.47 2.11-6.87 2.11-4.6-1.66-6.87-2.11-5 .22-7.16-.67-3.59-3.29-5.53-4.59-4.69-1.7-6.35-3.36-2.06-4.39-3.37-6.35-3.68-3.35-4.58-5.54-.22-4.82-.68-7.15-2.1-4.48-2.1-6.88 1.65-4.6 2.1-6.87-.21-5 .68-7.15 3.28-3.59 4.58-5.54 1.71-4.69 3.37-6.35 4.39-2.05 6.35-3.37 3.35-3.67 5.53-4.58 4.82-.21 7.16-.67 4.47-2.1 6.87-2.1 4.61 1.66 6.87 2.11 5-.22 7.16.67 3.59 3.28 5.54 4.59 4.68 1.7 6.35 3.36 2.05 4.39 3.36 6.35 3.68 3.35 4.59 5.54.21 4.82.67 7.15 2.11 4.47 2.11 6.86z"/></g><rect x="265.25" y="242.1" width="22.48" height="7.27" rx="1.93" class="C"/><rect x="265.25" y="239.08" width="22.48" height="3.02" rx="1.13" class="D"/><g class="B"><path d="M348.49 252.01h3.02v158.76h-3.02z"/><rect x="344.13" y="361.36" width="11.74" height="5.58" rx="1.7"/><path d="M320.12 410.78h-3.02l31.39-46.63h3.02l-31.39 46.63z"/><path d="M379.88 410.78h3.02l-31.39-46.63h-3.02l31.39 46.63z"/></g><path d="M447 113.85H253a1.43 1.43 0 0 1-1.43-1.43h0A1.43 1.43 0 0 1 253 111h194a1.42 1.42 0 0 1 1.42 1.42h0a1.42 1.42 0 0 1-1.42 1.43zm7.7 135.52H245.3l4.88 5.29h199.64l4.88-5.29z" class="L"/><path d="M103.84 295.22h95.99v2.35h-95.99z" class="C"/><path d="M174.38 295.22h25.45v2.35h-25.45zm-13.74 119.11h-1.45l-6.06-62.05c-.5-5.15-3.86-9-7.79-9H133.4c-4 0-7.29 3.88-7.79 9l-6.06 62.05h-1.45l6.08-62.33c.59-6.09 4.55-10.69 9.22-10.69h11.94c4.66 0 8.63 4.6 9.22 10.69zm-45.17 0H114l-6-62.05c-.5-5.15-3.85-9-7.79-9H88.23c-3.94 0-7.29 3.88-7.79 9l-6.06 62.05h-1.45L79 352c.59-6.09 4.56-10.69 9.22-10.69h11.94c4.67 0 8.63 4.6 9.22 10.69zM109 214.53c.22.62.73 1 1.15.9s.57-.74.35-1.37-.73-1-1.14-.9-.61.74-.36 1.37z" class="B"/><path d="M109.57,215a21.1,21.1,0,0,0,4.36,3.52,3.21,3.21,0,0,1-2.33,1.41Z" fill="#ed893e"/><path d="M106.33 212.51a.44.44 0 0 1-.2 0 .38.38 0 0 1-.31-.45 3.73 3.73 0 0 1 2.1-2.81.39.39 0 0 1 .29.72 3 3 0 0 0-1.63 2.23.4.4 0 0 1-.25.31z" class="B"/><path d="M89.63 224.27l6.42 6.08 8.51 4.78c-.3.28-.19 2.18-.07 3.13a5 5 0 0 0 3.51 4.61c1 .43 2 1 2.19 1.94.2 1.16-.65 2.6-5.41 3.29a25.14 25.14 0 0 1-13.43-1.89c-2-.82-1.66-1.72-1.16-3.62 1.28-4.85.99-13.41-.56-18.32z" class="G"/><path d="M87.07,244.81A55.27,55.27,0,0,0,89.5,237s13-.95,17.33.75,7,9.07,7,9.07Z" class="B"/><path d="M88.21 220.84c3.07 7.33 4.49 11.77 9.59 14.23 7.67 3.7 15.67-3.11 14.84-11.24-.75-7.32-5.64-18.06-14-18.36a11 11 0 0 0-10.43 15.37z" class="G"/><path d="M103.65 220.46c2.89-3.3.88-9-1.68-11.23 2.48-.09 8.9-.65 7-6.18s-8.51-6.18-10.43-3.45c-5.46-3-12-.4-10.43 3.77-6.42-1-8.26 5.37-5.61 7.94-3.37 2.81-4.58 8.34-.17 10.43s4.5 7.3 9 10 14.81-1.9 12.32-11.28z" class="B"/><path d="M99.94 221.57a7.25 7.25 0 0 0 4.13 3.08c2.21.59 3.28-1.86 2.46-4-.74-1.88-3-4-5.1-3.69s-2.67 2.74-1.49 4.61zm-6.77 33.03l-6.5 13-3.18 6.5-2.95 6.42-1.31 3.14-.55 1.49-.07.19v.09.05h0v-.1a4.75 4.75 0 0 0 .13-1.28 2.08 2.08 0 0 0-.18-.92c-.08-.14 0 .13.06.45a8.49 8.49 0 0 0 .49 1.17l1.54 2.78c2.35 3.88 5.22 8 7.82 12.08l.07.1a3.89 3.89 0 0 1-5.4 5.35 64.49 64.49 0 0 1-6.31-4.6 63.52 63.52 0 0 1-5.86-5.36 34.23 34.23 0 0 1-2.81-3.26 24.51 24.51 0 0 1-1.4-2 13.68 13.68 0 0 1-1.38-3 10 10 0 0 1-.47-2.75 8.47 8.47 0 0 1 .24-2.21l.16-.64.53-2.07c.4-1.29.77-2.63 1.21-3.86.85-2.53 1.78-4.93 2.72-7.33s2-4.73 3-7c2.12-4.64 4.31-9.13 6.81-13.63a7.7 7.7 0 0 1 13.63 7.17z" class="G"/><use href="#C" class="C"/><g class="J"><use href="#C"/></g><path d="M92.48 301.4l-.85-.95c-2.62-2.43-3.74-2.13-6.74-2.13l-3.67 2.75c2.22 6.1 6.71 5.83 6.71 5.83l1.3 1.21a2.35 2.35 0 0 0 3.81-.94l.38-1.08a4.72 4.72 0 0 0-.94-4.69zm87.97 90.82l7.17-4.03-7.63-17.47-7.17 4.02 7.63 17.48z" class="G"/><path d="M176.52 383.21l7.28-3.76-3.81-8.73-7.17 4.02 3.7 8.47z" class="H"/><path d="M186.69 384.52l-9.2.65a.6.6 0 0 0-.57.61l.07 7.3a1.47 1.47 0 0 0 1.54 1.36c3.19-.28 4.49-1.08 8.5-1.65 2.47-.36 8.4-.7 11.73-1.62s2.78-4 .06-3.86c-3.53.16-8.25-.73-10.69-2.38a2.32 2.32 0 0 0-1.44-.41zM124 308.49s41.88-2.5 45.42 13.74c7.2 33 14.15 51.33 14.15 51.33l-11.08 5.72s-16.32-22.86-21.13-46.28c-17.06-2.56-46.88 6.47-54-6.34-6.3-11.3-.77-19.42-.77-19.42z" class="B"/><g class="C"><path d="M172.7 382.26l12.9-6.25-1.45-5.29-14.18 6.66 2.73 4.88zm16.99 3.49a10.81 10.81 0 0 1-2.2-.14.19.19 0 0 1-.09-.34c.25-.2 2.45-1.95 3.48-1.63a.73.73 0 0 1 .48.51 1.08 1.08 0 0 1-.16 1.06 2.3 2.3 0 0 1-1.51.54zm-1.7-.46c1.49.19 2.56.07 2.92-.34a.69.69 0 0 0 .09-.69.38.38 0 0 0-.23-.25c-.56-.17-1.87.61-2.77 1.28z"/><path d="M187.53 385.61a.15.15 0 0 1-.09 0 .18.18 0 0 1-.11-.14c0-.1-.37-2.44.4-3.3a1 1 0 0 1 .79-.32.75.75 0 0 1 .74.53c.25.88-.85 2.67-1.63 3.22a.17.17 0 0 1-.1.01zm.89-3.4a.57.57 0 0 0-.4.2c-.46.51-.43 1.86-.36 2.64a3.9 3.9 0 0 0 1.23-2.59c0-.11-.1-.23-.38-.25z"/></g><path d="M133.19 407.2l8.14-.39 1.33-19.22-8.14.39-1.33 19.22z" class="G"/><path d="M142.15 404.23l-9.21-.29a.6.6 0 0 0-.63.54l-.67 7.27a1.45 1.45 0 0 0 1.39 1.51c3.21 0 4.56-.36 8.61-.23 2.49.08 7 .48 11.2.48s2.51-3.4.27-3.72c-3.5-.5-7.3-3.12-9.56-5a2.28 2.28 0 0 0-1.4-.56z" class="B"/><g class="C"><path d="M145 405.75a11.14 11.14 0 0 1-2.18-.36.19.19 0 0 1-.14-.16.19.19 0 0 1 .09-.19c.26-.17 2.64-1.69 3.62-1.26a.72.72 0 0 1 .43.55 1 1 0 0 1-.27 1 2.18 2.18 0 0 1-1.55.42zm-1.65-.62c1.46.33 2.54.32 2.94-.05a.7.7 0 0 0 .16-.67.35.35 0 0 0-.21-.28c-.51-.23-1.89.42-2.87 1z"/><path d="M142.88 405.39h-.08a.18.18 0 0 1-.1-.16c0-.1-.12-2.46.74-3.24a1 1 0 0 1 .82-.24.74.74 0 0 1 .67.6c.16.9-1.12 2.58-2 3a.16.16 0 0 1-.05.04zm1.23-3.29a.6.6 0 0 0-.42.16 4.24 4.24 0 0 0-.62 2.59c.73-.58 1.59-1.86 1.48-2.45 0-.11-.07-.25-.35-.29z"/></g><path d="M134.52 387.99l8.14-.39-.77 10.99-8.11-.01.74-10.59z" class="H"/><path d="M104.84,307.62s50.84,9.47,49.85,23.75c-1.77,25.71-10.39,62.45-10.39,62.45l-12.21.17s-1.67-38.21-.16-56.81c-15.25,0-45.26-.53-51.13-8.38-6.49-8.66.18-22.27.18-22.27Z" class="B"/><g class="C"><path d="M131.06 396.2l15.41-.22.73-5.01-16.78.49.64 4.74z"/><use href="#D"/></g><use href="#D" class="J"/><path d="M122.14 249.81l7.24 12.82a198.7 198.7 0 0 0 3.72 6.26l3.86 5.9 1 1.35c.33.46.65.82 1 1.23l.24.31.12.15h0 0l-.08-.08-.18-.13h0s-.05 0 0 .06a8.83 8.83 0 0 0 .94.68c1.71 1.11 3.93 2.24 6.08 3.38l13.34 7h.06A3.88 3.88 0 0 1 157 296a105.5 105.5 0 0 1-15.39-3 62.44 62.44 0 0 1-7.88-2.65 20.6 20.6 0 0 1-2.37-1.21c-.2-.11-.49-.31-.75-.49l-.41-.3-.53-.45-.26-.23-.18-.18-.2-.2-.4-.4-1.55-1.61-1.43-1.6a121.29 121.29 0 0 1-9.43-13.07c-2.8-4.47-5.38-8.89-7.76-13.67a7.7 7.7 0 0 1 13.59-7.23z" class="G"/><use href="#E" class="C"/><g class="J"><use href="#E"/></g><path d="M163.16 288.14l-1.24-.23c-3.57-.33-4.26.6-6.64 2.43l-1.23 4.42c5.49 3.47 8.88.51 8.88.51l1.77.17a2.34 2.34 0 0 0 2.43-3.07l-.36-1.09a4.69 4.69 0 0 0-3.61-3.14z" class="G"/><path d="M53.18 302.21a36.55 36.55 0 0 1 .71-16l1 .27a35.51 35.51 0 0 0-.68 15.55zm.715 4.08l.986-.168.953 5.599-.986.168zM156.6 337l-22.36-.89-5.86-34.45c-3-17.75-18.38-32.13-34.31-32.13H80c-15.93 0-26.39 14.38-23.37 32.13l4 23.78c1.49 8.8 9.11 15.94 17 15.94h88.54a.9.9 0 0 0 .34-1.67 24.06 24.06 0 0 0-9.91-2.71z" class="C"/><path d="M161.87 340.59h-7.1v-1.83h7.1c17.85 0 32.38-16.23 32.38-36.18v-6.18h1.83v6.18c0 20.96-15.35 38.01-34.21 38.01z" class="B"/><path d="M211.65 295.22h95.99v2.35h-95.99z" class="C"/><path d="M243.57 294.05h32.14v1.18h-32.14z" class="L"/><path d="M282.19 295.22h25.45v2.35h-25.45zm-13.74 119.11H267l-6.05-62.05c-.51-5.15-3.86-9-7.79-9h-12c-3.94 0-7.28 3.88-7.79 9l-6 62.05h-1.47L232 352c.59-6.09 4.55-10.69 9.21-10.69h12c4.66 0 8.62 4.6 9.22 10.69zm-45.17 0h-1.45l-6.06-62.05c-.5-5.15-3.85-9-7.79-9H196c-3.94 0-7.29 3.88-7.79 9l-6.06 62.05h-1.45l6.12-62.33c.59-6.09 4.55-10.69 9.22-10.69H208c4.66 0 8.63 4.6 9.22 10.69z" class="B"/><g class="I"><path d="M202.87 270.69l-1.93 14.19-1.7 14.11-.15 1.73-.07.87a2.38 2.38 0 0 0 0-.43 2.6 2.6 0 0 0-.1-.4 2 2 0 0 0-.24-.49c-.15-.19-.17-.16-.13-.12a1.42 1.42 0 0 0 .29.24 7.76 7.76 0 0 0 1.12.65 44.3 44.3 0 0 0 6.21 2.31c4.44 1.38 9.1 2.5 13.7 3.65l-.52 4a104.11 104.11 0 0 1-14.67-1.52 42.17 42.17 0 0 1-7.54-2 15.42 15.42 0 0 1-2.09-1 8.8 8.8 0 0 1-1.18-.8 6.6 6.6 0 0 1-1.36-1.44 5.83 5.83 0 0 1-.64-1.3 6.88 6.88 0 0 1-.2-.84 7 7 0 0 1 0-.87v-.94-1.87c.2-4.94.65-9.77 1.17-14.59s1.13-9.61 1.89-14.41z"/><path d="M230.5 311.26l-3.11 2.84a2.39 2.39 0 0 1-2.66.39l-3.43-1.65s-5.08-.21-5.81-3.32l1.32-2.41 7.87-.88a3.74 3.74 0 0 1 2.33.52l3.24 2a1.59 1.59 0 0 1 .25 2.51zm-18.58-69.73c.8 4.87 1.48 13.77-2 16.89A45.51 45.51 0 0 1 224 270.64c6-4.72 1-11.77 1-11.77-5.36-1.45-5.1-5.45-4.05-9.18z"/></g><g class="B"><path d="M200.31 259.69c-6.13 2-7.45 10.21-6.9 16.6l12.37 7.61s3-9.33 3-14.32c-.05-5.31-4.31-11.24-8.47-9.89z"/><path d="M239.26 271.63c-.51 7-2.08 18.89-5.94 38.84l-33.12-1c.87-12.23-.44-21.34-3.44-42.74a7 7 0 0 1 6.19-7.88c2.12-.22 4.54-.4 7-.45a106.21 106.21 0 0 1 15 .45c1.62.2 3.28.45 4.87.72a11.37 11.37 0 0 1 9.44 12.06zm-12.04-39.93c.2.63.7 1 1.11.9s.58-.75.38-1.37-.7-1-1.11-.9-.6.75-.38 1.37z"/><path d="M227.43 230.42l1.36-.92s-.39 1.43-1.36.92z"/></g><path d="M227.64,232.65a17.41,17.41,0,0,0,3.52,3.28,2.83,2.83,0,0,1-2.1,1.14Z" fill="#ed847e"/><path d="M226.2 226.06a.38.38 0 0 0 0-.38.39.39 0 0 0-.54-.08 3.82 3.82 0 0 0-1.63 3.13.37.37 0 0 0 .4.36.38.38 0 0 0 .37-.4h0a3 3 0 0 1 1.32-2.46.33.33 0 0 0 .08-.17z" class="B"/><path d="M205.07 235.87c3 7.54 4 10.79 9.2 13.49 7.76 4.06 16.37-1.22 15.73-9.49-.57-7.44-5.3-18.52-13.82-19.16a11 11 0 0 0-11.11 15.16z" class="I"/><path d="M223.18 234.13c1.46-.42 4-3.33-.43-9.19 2.37-.43 4.3-4.78-2.2-7.27s-13.59-1.28-17.89 4.68c0 0-13.71 4.05-2.54 18.16s25.35 8.36 23.06-6.38z" class="B"/><path d="M197.58 222.34a2.36 2.36 0 0 0 1.09 2 3.91 3.91 0 0 0 4.66.28 21.8 21.8 0 0 0 4.13-3.53 4 4 0 0 0-.3-5.72 4.93 4.93 0 0 0-.58-.42s-7.85.23-9 7.39z" class="C"/><path d="M198.69 221.4c4.49-.72 6.88-4.31 7.14-5.38-1-2.64-14-19.42-25.08-7.15-11.7 13 11.2 26.07 3 41.72 14.25-4.79 25.87-14.65 14.94-29.19z" class="B"/><path d="M219.94 235.69a6.35 6.35 0 0 0 3.69 3.16c2.12.67 3.26-1.21 2.73-3.25-.47-1.84-2.14-4.41-4.3-4.19a2.85 2.85 0 0 0-2.12 4.28zm53.59 165.93l7.82-.74-5.27-19.26-7.82.74 5.27 19.26z" class="I"/><path d="M291.89 406.15c-4.78-1.41-4.63-3.51-9.4-7.39a3.11 3.11 0 0 0-1.71-.78l-7.78-.54a.63.63 0 0 0-.62.54l-1.1 5.39c-.38 1.87.77 3.66 2.39 3.72l8.6.39c4.13.29 4.18 2.38 9 2.15 2.97-.14 2.25-3 .62-3.48z" class="B"/><path d="M302.63 376.84l5.3-4.6-8.87-13.47-6.63 6.28 10.2 11.79z" class="I"/><path d="M306.51 369.39l-6.32 5.85a.71.71 0 0 0-.11.9l3 4.64a3.13 3.13 0 0 0 4.66.5c2.07-1.6 3.24-4.41 5.69-6.71 3.57-3.34 4.21-3.25 6.42-7.92 1.5-3.14-1.77-3.15-2.92-2.18-2.89 2.46-1.75 2.56-8.48 4a4 4 0 0 0-1.94.92z" class="B"/><use href="#F" class="C"/><use href="#F" opacity=".5" class="D"/><use href="#G" class="C"/><g class="D"><use href="#G" opacity=".5"/><path d="M199.77 307.53l-.94 2.94c-.12.23.14.47.53.48l34.08 1c.3 0 .55-.13.58-.31l.38-3c0-.2-.22-.39-.55-.4l-33.54-1a.57.57 0 0 0-.54.29z"/></g><path d="M204.16 311.41h-.9c-.18 0-.31-.1-.3-.22l.54-3.84c0-.11.17-.2.35-.19h.9c.18 0 .31.1.3.21l-.54 3.84c-.01.12-.17.21-.35.2zm26.75.8h-.9c-.18 0-.31-.1-.3-.21l.54-3.84c0-.11.17-.2.35-.2h.9c.18 0 .31.1.3.22l-.54 3.83c-.01.12-.17.2-.35.2zm-13.38-.4h-.89c-.18 0-.32-.1-.3-.21l.53-3.84c0-.11.18-.2.36-.19h.9c.18 0 .31.11.29.22l-.53 3.84c-.02.1-.18.19-.36.18z" class="B"/><path d="M240.52 275.43l.49 2.45.6 2.54 1.45 5a50.17 50.17 0 0 0 1.87 4.71 28.74 28.74 0 0 0 2.39 4.19l.16.25-.06-.08a.86.86 0 0 0-.14-.13 1.86 1.86 0 0 0-.27-.22 1.89 1.89 0 0 0-.83-.34c-.27 0-.12 0 .1 0a8.48 8.48 0 0 0 2-.46 45.6 45.6 0 0 0 4.76-1.95c3.23-1.51 6.52-3.21 9.75-4.9l2.35 3.32a76.84 76.84 0 0 1-9.07 7 41.4 41.4 0 0 1-5.23 2.95 15.75 15.75 0 0 1-3.35 1.15 7.25 7.25 0 0 1-2.67.08 5.28 5.28 0 0 1-2.11-.86 4.51 4.51 0 0 1-.54-.44l-.25-.26-.19-.2-.25-.32a37.09 37.09 0 0 1-6.07-10.74 55.68 55.68 0 0 1-1.81-5.67l-.68-2.89c-.21-.97-.37-1.9-.52-3z" class="I"/><path d="M236.54 263.39c5.8 4.47 5.8 17.61 5.8 17.61l-10 2.77s-7.19-8.71-5.37-12.84c1.91-4.3 6.44-9.93 9.57-7.54zm34.8 22.87a.51.51 0 0 1-.43-.26L263 270.85a.48.48 0 0 1 .21-.65.49.49 0 0 1 .65.2l7.92 15.15a.48.48 0 0 1-.21.65.46.46 0 0 1-.23.06z" class="B"/><path d="M268 277.64l-3 1.84a4 4 0 0 0-1.65 2l-2.8 7.3-1.29 4.64c3 1.08 8.44-6 8.44-6l3.42-2.57a1.71 1.71 0 0 0 .62-1.81l-1.17-4.36a1.71 1.71 0 0 0-2.57-1.04z" class="I"/><path d="M264.41 337l-22.41-.92-5.86-34.45c-3-17.75-18.37-32.13-34.3-32.13h-14.03c-15.93 0-26.39 14.38-23.37 32.13l4 23.78c1.5 8.8 9.12 15.94 17 15.94H274a.9.9 0 0 0 .33-1.67 24 24 0 0 0-9.92-2.68z" class="C"/><path d="M269.68 340.59h-7.1v-1.83h7.1c17.85 0 32.38-16.23 32.38-36.18v-6.18h1.82v6.18c0 20.96-15.34 38.01-34.2 38.01z" class="B"/><path d="M380.32 393.96l12.81-2.72 2.41 15.3-10.7 2.29-4.52-14.87z" class="E"/><path d="M380.32 393.96l12.82-2.72 1.35 8.57-11.64 2.48-2.53-8.33z" class="H"/><path d="M388 335.65c4.26-19.84 13.07-40.55 4.74-59.45l-36.56-.12 4.07 61.76c1.34 19 20.62 62.17 20.62 62.17l14.65-3.22s-4.17-39.89-7.52-61.14z" class="B"/><path d="M388.38 333.76c2.62-11.48 6.52-23.23 7.54-34.71-13.86-15.12-12.11 15.71-7.54 34.71z" class="H"/><path d="M398.46 410.79l-3.37.75-1-1-1.23 1.47-6.21 2.69a18.09 18.09 0 0 1-7.21 1.5h-5.1a7.79 7.79 0 0 1 .82-3.94s4.92-.86 7.46-4.95a1.69 1.69 0 0 1 1.45-.64c2.35-.06 8.53-.41 11.61-2.43a.54.54 0 0 1 .8.34 40.77 40.77 0 0 0 1.98 6.21z" class="B"/><path d="M410 395.85l13.11.13.57 15.46-10.95-.09-2.73-15.5z" class="E"/><path d="M410 395.86l13.12.12.32 8.66-11.91-.1-1.53-8.68z" class="H"/><path d="M424.26 335.65c1.06-19.84 2.5-49.53-4.15-58.65l-40.83-.92 15.59 61.76 15.2 64h14.17s5.35-43.54.02-66.19z" class="B"/><path d="M372.51 217.19l-.61.54-.46.39-.89.71-1.75 1.25a36.58 36.58 0 0 1-3.58 2.16 42.31 42.31 0 0 1-7.68 3.19c-1.33.41-2.7.74-4.07 1l-4.17.6a39.58 39.58 0 0 1-8.43-.11l-1.06-.13a6.39 6.39 0 0 1-2.74-1 27.22 27.22 0 0 1-6.09-5.52 39.43 39.43 0 0 1-4-5.92 48.39 48.39 0 0 1-2.82-6.1l-1.06-3.13c-.33-1.05-.56-2.08-.83-3.3a4.82 4.82 0 0 1 8.09-4.49l.5.5 1.89 2 1.92 2.06 3.84 3.84a35.56 35.56 0 0 0 3.79 3.27 14.15 14.15 0 0 0 3.29 1.86l-3.79-1.11a31.8 31.8 0 0 0 4.9-.72 34.71 34.71 0 0 0 4.74-1.49 41.17 41.17 0 0 0 4.54-2.19l2.14-1.29 1-.66.45-.31.18-.13h.07 0-.06a9.56 9.56 0 0 1 12.74 14.27z" fill="#b65b52"/><path d="M324.9,203.9l3.81-4c2.25-5.34-5.12-7.05-5.12-7.05L319,189.5a2.94,2.94,0,0,0-3.74.59l-2.68,2.78a3,3,0,0,0-.25,4.24l3.83,3.49a6,6,0,0,0,2.54,1.49Z" class="E"/><g class="C"><path d="M376.78 195.33c-8.86-.52-21.84 9.67-21.84 9.67-1.23 3.39 1.8 16 7.22 21.5 0 0 6.22 1.48 11.66-5.08 5.92-7.15 12.35-25.55 2.96-26.09z"/><path d="M378.54 195a165.38 165.38 0 0 1 36.43.58 12.28 12.28 0 0 1 10.23 14.64c-5.66 28.52-1.43 60.36-5.09 66.74 0 0-40.41.7-64-.92-6.45-31 6.24-49.91 12.61-74.09 1.13-4.09 5.57-6.46 9.82-6.95z"/></g><path d="M428.12 206.78l.9 1.13.8 1 1.48 2.07c1 1.38 1.88 2.81 2.76 4.25a72.38 72.38 0 0 1 4.7 9.16 52.6 52.6 0 0 1 3.3 10.39 34.24 34.24 0 0 1 .43 12.21l-.12.82a5.64 5.64 0 0 1-.67 1.91 52.58 52.58 0 0 1-4 6 61.69 61.69 0 0 1-4.51 5.22l-4.94 4.61a53.94 53.94 0 0 1-5.47 4.07 4.85 4.85 0 0 1-7-6.23l.22-.39 2.83-5.31 2.77-5.27 2.52-5.16c.81-1.68 1.43-3.38 2.05-5l-.79 2.72a21 21 0 0 0-1-5.91 34.52 34.52 0 0 0-1.23-3.36l-1.57-3.46-3.92-6.94-2.21-3.42-1.14-1.67-1.05-1.49-.35-.5a9.55 9.55 0 0 1 15.27-11.47z" fill="#b65b52"/><path d="M418.11 196.5c8.36 3 16.24 17.14 16.24 17.14-.35 5.15-8.55 16.81-14.35 19.36a28.63 28.63 0 0 1-8.66-13.08c-2.66-8.92 2.47-22.14 6.77-23.42z" class="C"/><path d="M384.28 197.14a7.73 7.73 0 0 1 3.67-3.47 7.16 7.16 0 0 0 .13-4.8l17.92-5.71c-1.45 5.93-2.59 10.62-.38 13.5-3.53 2.16-10 6-17 5.82s-5.49-2.85-4.34-5.34z" class="E"/><path d="M388.22 189.43l13.47-.79c-4.21 4.5-10.59 6.19-13.51 4.36a7 7 0 0 0 .04-3.57z" class="H"/><use href="#H" class="C"/><use href="#H" class="J"/><path d="M398.11 164.61c-.22-5.51-5.54-8-10.15-5.13s-5 11.74-1.61 16.37 11.76-11.24 11.76-11.24z" class="F"/><path d="M409.53 174.08c-2.14 7.72-3.78 12.92-9.35 15.41-11.09 4.93-16-.3-16.43-8.46-.35-7.34 3.21-18.73 12.11-20.39s15.81 5.71 13.67 13.44z" class="E"/><path d="M403.39 170.06c-2.39 2.27-3.34 12.31.27 12.14a52.29 52.29 0 0 0 7.32-.94s4.59-1.74 2.08-8.62-9.67-2.58-9.67-2.58z" class="L"/><path d="M397 173.14a4 4 0 0 1 3 .41 7.93 7.93 0 0 1-3-.41zm-.1.72a3.28 3.28 0 0 1 2.54 1 6.4 6.4 0 0 1-2.54-1zm-6.7-8.86a36.09 36.09 0 0 1 7.54.76l-7.54-.76zm-1.2.66s5.76.63 8.43 1.87a67.07 67.07 0 0 1-8.43-1.87z" class="H"/><path d="M411.12 183.12a8.14 8.14 0 0 1-5.67 2.59c-2.87.07-3.63-2.67-2.27-5 1.23-2.11 4.2-4.69 6.8-3.64a3.69 3.69 0 0 1 1.14 6.05z" class="E"/><g class="B"><ellipse cx="393.66" cy="172.89" rx="1.27" ry=".83" transform="matrix(.176741 -.984257 .984257 .176741 153.9 529.79)"/><path d="M387.32 171.91c-.12.68-.59 1.17-1 1.08s-.71-.71-.58-1.4.59-1.18 1-1.09.71.72.58 1.41z"/></g><path d="M389.59 172.89l-1 5.8a6.68 6.68 0 0 1-2.05-.29.77.77 0 0 1-.18-1.35 13.74 13.74 0 0 0 3.23-4.16z" fill="#a02724"/><path d="M398.5 171.77a.3.3 0 0 0 .2 0 .4.4 0 0 0 .18-.55 4.12 4.12 0 0 0-3-2.31.41.41 0 0 0-.46.36.43.43 0 0 0 .36.46h0a3.3 3.3 0 0 1 2.34 1.85.39.39 0 0 0 .38.19zm-13.57-2.25a.43.43 0 0 0 .37-.12 3.24 3.24 0 0 1 2.76-1.08.41.41 0 0 0 .47-.33.42.42 0 0 0-.33-.48 4.07 4.07 0 0 0-3.5 1.32.4.4 0 0 0 0 .58.36.36 0 0 0 .23.11z" class="B"/><path d="M404.42 192.66s-5.79 7-13.32 7.38c4.38 2.08 5.12 7 5.12 7s9.41-2.86 11.18-12.87a3.67 3.67 0 0 0-2.98-1.51z" class="D"/><use href="#I" class="C"/><use href="#I" class="J"/><path d="M388 193.67s-2.93 3.39-3.07 5.84c-3.52 1-5.22 6.16-5.22 6.16s-.64-7.39 4.89-11.37a5.9 5.9 0 0 1 3.4-.63z" class="D"/><g class="B"><path d="M425.54 416.23h-2.85l-.77-1.16-1.5 1.17h-17.2a7.75 7.75 0 0 1 .74-3.94s5.14-.47 7.12-3a.63.63 0 0 1 .63-.26c1.72.36 8.52 1.65 12.26.3a.62.62 0 0 1 .85.56 41.09 41.09 0 0 0 .72 6.33zm-37.2-211.16c.81-1.26 1.23-2.6.32-3.2-.65-.42-2.6-1-3 .31s-.35 2.43.2 3a1.68 1.68 0 0 0 2.48-.11z"/><path d="M388.75 202.15c1.7-2.36 6.7-3.2 6.7-1.26 0 3.73-.12 7.5-1.72 8.38s-4.12-4.89-5.35-5zM386 202c-1-2.49-4.17-3.37-4.69-1.52-1 3.55-1.14 6.49 0 7.51s3.64-3.86 4.65-3.82z"/></g><path d="M330.13 198.67c1.26-4.57-1.93-7.4-3.7-10.36-.31-.5-1.84-.23-1.92.83a4.86 4.86 0 0 0 .93 3.69c-.93 1.16-2.31 5.22.93 7.86a6 6 0 0 0 3.76-2.02z" class="E"/><g class="D"><path d="M416.72 195.76a3.89 3.89 0 0 0-3-.47c-3.12 3.59-16.67 29.72-11.1 78.15h3.17c-5.6-48.44 7.81-74.09 10.93-77.68z"/><path d="M406.09 277.4l-.28-3.57a.73.73 0 0 0-.79-.64l-1.53.08a.71.71 0 0 0-.68.73l.28 3.58a.74.74 0 0 0 .79.64l1.53-.09a.7.7 0 0 0 .68-.73z"/></g><path d="M406.16 275.11h-3.42a.81.81 0 0 1-.77-.65l-.22-1.38a.54.54 0 0 1 .55-.65h3.42a.8.8 0 0 1 .76.65l.23 1.38a.54.54 0 0 1-.55.65z" class="B"/><g class="D"><path d="M379.37,195c-.59-.47-2.45-.2-3.38.33-3.27,3.59-18,29.72-14.56,78.15h3.17C361.17,225,376.1,198.55,379.37,195Z"/><path d="M364.75 277.4l-.12-3.57a.69.69 0 0 0-.76-.64l-1.54.08a.75.75 0 0 0-.71.73l.12 3.58a.71.71 0 0 0 .76.64l1.54-.09a.74.74 0 0 0 .71-.73z"/></g><path d="M364.92 275.11h-3.42a.77.77 0 0 1-.74-.65l-.16-1.38a.57.57 0 0 1 .58-.65h3.42a.77.77 0 0 1 .74.65l.16 1.38a.57.57 0 0 1-.58.65z" class="B"/><g class="F"><path d="M396.82 154.31c-3.88-3.09-10.31 5.17-1.82 9.76 10.64 5.76 9.36 15.06 23.12 12.34-5.89-4.13-2.15-7.28-4.64-13.24-2.78-6.69-10.37-3.86-16.66-8.86z"/><path d="M390.9,159.26c1.26,4.62,2.79,5.7,4.21,6.91A16.4,16.4,0,0,1,393,161Z"/></g><path d="M385.22 180.82s3-.23 11.11 1c-1.31 2.3-3.38 4-7.54 3.37a3.82 3.82 0 0 1-3.57-4.37z" class="B"/><path d="M391 183.53a7.7 7.7 0 0 0-4.71.51 4.55 4.55 0 0 0 2.49 1.12 7.61 7.61 0 0 0 4.7-.51 4.38 4.38 0 0 0-2.48-1.12z" fill="#a02724"/><path d="M385.6 180.81a1.71 1.71 0 0 0 1.09 1.4 44.42 44.42 0 0 0 7.28.46 2.35 2.35 0 0 0 2-.93 67.55 67.55 0 0 0-10.37-.93z" class="D"/><path d="M385.05 186.77c.08 2.17 2.26 4 1.69 5.36a13.57 13.57 0 0 0 7.74-1.74 1.12 1.12 0 0 0-.46-2 10.26 10.26 0 0 1-4.78-1.74 1 1 0 0 0-1.29 0c-1.72 1.35-2.9.12-2.9.12z" class="F"/><path d="M422.26 276.96l-50.76-35.37.56-.81 51.25 34.65-1.05 1.53z" class="B"/><path d="M417.88,262.42l4.92,2.49c3.92,4.28-2.46,8.36-2.46,8.36l-2.27,3.2a2.92,2.92,0,0,1-3.72.7l-3.46-1.72a3,3,0,0,1-1.65-3.92l1.5-3.07a6,6,0,0,1,1.89-2.26Z" class="E"/><defs ><path id="B" d="M274.01 327.33h132.22v19.14H274.01z"/><path id="C" d="M88.12 241.57c8.38.3 12.19 6.57 5.24 17.73-6 9.59-6.79 9.79-6.79 9.79l-15.17-7.52c5.1-9.71 8.15-20.32 16.72-20z"/><path id="D" d="M115.76 242.14c-5-1-27.52-.69-27.52-.69a9 9 0 0 0-9.17 8c-.79 6.94 1.54 22.31 1.7 30.23.19 9.72.4 13.82.21 26.9l52.43 2.75c2-23.84-5.77-35.34-10.4-59.06-.69-3.63-2.26-7.16-7.25-8.13z"/><path id="E" d="M108.08 247.08c4.51-7.06 11.85-7.16 17.94 4.49 5.23 10 5 10.81 5 10.81l-14.17 9.27c-5.8-9.32-13.39-17.34-8.77-24.57z"/><path id="F" d="M221.77 309.9s53.62-7.94 59.17 5.81c9.66 23.91 23.64 50.85 23.64 50.85l-6.3 5.78s-24-21.51-32.32-45.54c-9.93 3.22-41.54 13.56-53.12 13.56-12.36 0-17.41-10.54-12.94-28a3.51 3.51 0 0 1 3.43-2.64l18.44.18z"/><path id="G" d="M226.91 316.88s44-1.33 44.38 14.26c.61 25.79 8.52 62.67 8.52 62.67l-8.67.81S258 365.23 254.55 340c-15.68 1-30.13.32-41.71.32-13 0-14-14.25-1.41-30.87 7.72.04 15.48 7.43 15.48 7.43z"/><path id="H" d="M388.18 202.46l2.92-2.46 3.91 2s-2.5 2.35-6.83.46z"/><path id="I" d="M388.18 202.46l-3.3-3-4.2 1.25s3.17 3.64 7.5 1.75z"/></defs></svg>