<svg xmlns="http://www.w3.org/2000/svg" viewBox="0 0 269.8 47.62" xmlns:v="https://vecta.io/nano"><path d="M47.4 13.28v-6.6h2.54v6.53c0 1.88.94 2.85 2.49 2.85s2.49-.94 2.49-2.77v-6.6h2.54v6.52c0 3.5-2 5.21-5.06 5.21s-5-1.73-5-5.14m12.65-6.59h2.34l5.41 7.11V6.69h2.51v11.59h-2.16l-5.59-7.34v7.34h-2.51zm13.15 0h2.54v11.59H73.2zm4.48 0h2.8l3 8.13 3-8.13h2.74l-4.67 11.59h-2.24Zm13.32 0h8.68v2.26h-6.19v2.33h5.44v2.26h-5.44v2.44h6.27v2.3h-8.79V6.69Zm11.05 0h5.28a4.6 4.6 0 0 1 3.35 1.18 3.62 3.62 0 0 1 1 2.64 3.59 3.59 0 0 1-2.47 3.58l2.82 4.19h-3l-2.47-3.69h-2v3.69h-2.54V6.69Zm5.12 5.59a1.68 1.68 0 0 0 1.95-1.63c0-1.09-.76-1.65-2-1.65h-2.52v3.28zm6.02 4.28 1.5-1.8a5.3 5.3 0 0 0 3.45 1.4c1 0 1.67-.41 1.67-1.09 0-.64-.4-1-2.33-1.47-2.33-.59-3.83-1.24-3.83-3.53 0-2.09 1.68-3.48 4-3.48a6.68 6.68 0 0 1 4.29 1.47l-1.26 1.85a5.4 5.4 0 0 0-3-1.14c-1 0-1.48.45-1.48 1 0 .76.49 1 2.49 1.52 2.34.61 3.66 1.45 3.66 3.46 0 2.29-1.75 3.58-4.24 3.58a7.35 7.35 0 0 1-4.92-1.77m11.49-9.87h2.54v11.59h-2.54zm8.09 2.35h-3.51V6.69h9.57v2.34h-3.51v9.25h-2.54v-9.2Zm11.25 4.65-4.44-7h3l2.73 4.59 2.8-4.64H151l-4.44 6.94v4.7h-2.54zm13-1.19a6.14 6.14 0 0 1 12.27 0 6.14 6.14 0 0 1-12.27 0m9.62 0a3.51 3.51 0 0 0-3.5-3.63 3.45 3.45 0 0 0-3.46 3.6 3.51 3.51 0 0 0 3.5 3.63 3.45 3.45 0 0 0 3.5-3.6Zm4.92-5.81h8.79V9h-6.25v2.46h5.51v2.31h-5.51v4.51h-2.54zm15.26 5.81a5.87 5.87 0 0 1 6-6 6 6 0 0 1 4.57 1.78l-1.62 1.86a4.26 4.26 0 0 0-3-1.3 3.42 3.42 0 0 0-3.35 3.6 3.43 3.43 0 0 0 3.35 3.63 4.17 4.17 0 0 0 3-1.35l1.62 1.63a5.9 5.9 0 0 1-4.73 2.06 5.83 5.83 0 0 1-5.84-5.91m16.65-5.89h2.34l4.95 11.67h-2.66l-1.06-2.59h-4.88l-1.05 2.59h-2.59Zm2.67 6.8-1.53-3.74-1.53 3.74h3.07Zm6.4-6.72h2.54v9.24h5.76v2.35h-8.3zm9.04 5.81a5.93 5.93 0 0 1 6.05-6 6.34 6.34 0 0 1 4.54 1.58l-1.6 1.93a4.25 4.25 0 0 0-3-1.17 3.47 3.47 0 0 0-3.32 3.6 3.46 3.46 0 0 0 3.5 3.66 4.05 4.05 0 0 0 2.39-.69v-1.62h-2.56v-2.2h5v5a7.5 7.5 0 0 1-4.9 1.85 5.78 5.78 0 0 1-6.1-5.94m17.4-5.89h2.34l4.95 11.67h-2.66l-1.06-2.59h-4.87l-1.06 2.59h-2.59Zm2.67 6.8-1.53-3.74-1.53 3.74h3.09Zm6.41-6.72h5.28a4.6 4.6 0 0 1 3.34 1.18 3.62 3.62 0 0 1 1 2.64 3.59 3.59 0 0 1-2.47 3.58l2.83 4.19h-3l-2.47-3.69h-2v3.69h-2.54V6.69Zm5.11 5.59a1.68 1.68 0 0 0 1.95-1.63c0-1.09-.76-1.65-2-1.65h-2.52v3.28zm9.66 1.41-4.44-7h3l2.72 4.59 2.8-4.64h2.89l-4.44 6.94v4.7h-2.54v-4.59ZM47.2 29.48a5.24 5.24 0 0 1 5.26-5.37 5.4 5.4 0 0 1 4.05 1.65l-.83.82a4.52 4.52 0 0 0-3.27-1.43 4.07 4.07 0 0 0-4 4.26 4.1 4.1 0 0 0 4 4.29 4.5 4.5 0 0 0 3.39-1.42l.77.76a5.41 5.41 0 0 1-4.16 1.83 5.18 5.18 0 0 1-5.21-5.39m10.66 0a5.3 5.3 0 1 1 10.6 0 5.3 5.3 0 1 1-10.6 0m9.38 0a4.13 4.13 0 0 0-4.1-4.29 4.08 4.08 0 0 0-4.07 4.26 4.13 4.13 0 0 0 4.1 4.29 4.08 4.08 0 0 0 4.08-4.26Zm3.7-5.2h1.1l6.55 8.33v-8.33h1.14v10.37h-.93l-6.71-8.52v8.52h-1.15zm14.48 1.06h-3.49v-1.06h8.17v1.08h-3.49v9.31h-1.19zm6.98-1.06h1.17v10.37H92.4zm4.22 0h1.06l6.55 8.33v-8.33h1.14v10.37h-.94l-6.71-8.52v8.52h-1.14V24.28Zm11.56 6v-6h1.17v6c0 2.24 1.19 3.5 3.18 3.5s3.15-1.21 3.15-3.5v-6h1.17v6c0 3-1.74 4.6-4.34 4.6s-4.33-1.6-4.33-4.6m11.5-6h1.17v10.37h-1.17zm4.26 0h1.1l6.55 8.33v-8.33h1.09v10.37h-.94l-6.71-8.52v8.52h-1.14V24.28Zm11.27 5.2a5.22 5.22 0 0 1 5.21-5.37 5.48 5.48 0 0 1 3.87 1.38l-.76.89a4.42 4.42 0 0 0-3.16-1.19 4.06 4.06 0 0 0-3.95 4.26 4 4 0 0 0 4.11 4.32 4.9 4.9 0 0 0 3-1v-2.62h-3.16v-1.06h4.31v4.19a6.3 6.3 0 0 1-4.17 1.59 5.1 5.1 0 0 1-5.3-5.39m16.55-5.2h7.51v1h-6.34v3.55h5.67v1.07h-5.67v3.68h6.41v1.07h-7.59V24.28Zm9.92 0h3.61a5.18 5.18 0 0 1 5.52 5.17 5.2 5.2 0 0 1-5.52 5.2h-3.61zm3.61 9.31a4 4 0 0 0 4.31-4.08 4 4 0 0 0-4.31-4.11h-2.41v8.23h2.44Zm7.87-3.31v-6h1.17v6c0 2.24 1.19 3.5 3.18 3.5s3.17-1.21 3.17-3.5v-6h1.17v6c0 3-1.74 4.6-4.34 4.6s-4.35-1.6-4.35-4.6m10.97-.8a5.24 5.24 0 0 1 5.26-5.37 5.4 5.4 0 0 1 4.05 1.65l-.8.86a4.52 4.52 0 0 0-3.27-1.43 4.07 4.07 0 0 0-4 4.26 4.1 4.1 0 0 0 4 4.29 4.5 4.5 0 0 0 3.31-1.46l.77.76a5.41 5.41 0 0 1-4.16 1.83 5.18 5.18 0 0 1-5.16-5.39m15.26-5.3h1.1l4.74 10.47h-1.26l-1.22-2.75h-5.66l-1.23 2.75h-1.18Zm2.9 6.67-2.36-5.3-2.38 5.3zm6.39-5.51h-3.49v-1.06h8.17v1.08h-3.49v9.31h-1.19zm7-1.06h1.17v10.37h-1.17zm3.74 5.2a5.3 5.3 0 1 1 10.6 0 5.3 5.3 0 1 1-10.6 0m9.38 0a4.13 4.13 0 0 0-4.1-4.29 4.08 4.08 0 0 0-4.02 4.23 4.13 4.13 0 0 0 4.1 4.29 4.08 4.08 0 0 0 4.03-4.23Zm3.7-5.2h1.1l6.55 8.33v-8.33h1.14v10.37h-.94l-6.67-8.53v8.52h-1.14V24.28Z" fill="#fff"/><path d="M18.59 0C5.45 0 0 4.41 0 4.41v19.77c0 10.95 14.48 22.31 18.59 23.44 4.09-1.13 18.59-12.49 18.59-23.44V4.41S31.74 0 18.59 0" fill="#231f20"/><g fill="#ffce02"><path d="M16.32 24.48a.62.62 0 0 1 .14.38.66.66 0 0 1-1.32 0 .63.63 0 0 1 .22-.47 4.8 4.8 0 0 1-1.06-.36c.12.37.39 1.81 1.34 1.91a1.34 1.34 0 0 0 1.47-.95 1.3 1.3 0 0 0-.79-.51m5.56-.09a.63.63 0 0 1 .22.47.66.66 0 0 1-1.32 0 .62.62 0 0 1 .14-.38 1.3 1.3 0 0 0-.79.51 1.34 1.34 0 0 0 1.47.95c.94-.1 1.21-1.54 1.33-1.91a4.8 4.8 0 0 1-1.05.36m1.1-3.33c-.38-.32-.88.08-.5.51a.82.82 0 0 1 .39.84c-.19.35-2 .27-4.24 1.12-2.27-.85-4-.77-4.23-1.12s.07-.49.39-.84-.12-.82-.5-.51a1.84 1.84 0 0 0-.7 1.62c.33.87 2.36.59 5 1.71 2.69-1.11 4.71-.84 5-1.71a1.84 1.84 0 0 0-.61-1.62m-2.39 11.29a1.9 1.9 0 0 1-1.15-1.13.78.78 0 0 1 .32-1 .31.31 0 0 1 .4.4.84.84 0 0 1-.41.4c-.15.09 0 .28.17.25a.85.85 0 0 0 .63-.84.7.7 0 0 0-.87-.58 1 1 0 0 0-.64 1.43 2.15 2.15 0 0 0 1.24 1.36 6.3 6.3 0 0 1-1.65.28 6.3 6.3 0 0 1-1.65-.28 2.15 2.15 0 0 0 1.23-1.36 1 1 0 0 0-.63-1.39.7.7 0 0 0-.88.55.86.86 0 0 0 .63.84c.19 0 .31-.16.17-.25a.83.83 0 0 1-.41-.4.31.31 0 0 1 .4-.4.78.78 0 0 1 .33 1 1.9 1.9 0 0 1-1.14 1.12c-.3.12-.34.42-.15.53a4.7 4.7 0 0 0 2.05.4h.1a4.7 4.7 0 0 0 2.07-.44c.18-.07.13-.37-.16-.49M18.68 6.28a1.2 1.2 0 0 0 .51-.18l.07-.06a4.5 4.5 0 0 0 .64-.87.15.15 0 0 0 0-.14.5.5 0 0 0-.2-.22 13 13 0 0 0-2.06 0 .36.36 0 0 0-.18.34 4.7 4.7 0 0 0 .66.88 1.16 1.16 0 0 0 .56.25m-1.37.81a1.3 1.3 0 0 0 0-.52.4.4 0 0 0 0-.09 4.6 4.6 0 0 0-.66-.84.18.18 0 0 0-.14 0 .57.57 0 0 0-.28.12 12 12 0 0 0-.64 1.88.34.34 0 0 0 .28.26 4.6 4.6 0 0 0 1.07-.34 1.1 1.1 0 0 0 .37-.47m.37 1.48a1.3 1.3 0 0 0-.52-.14h-.06a4.6 4.6 0 0 0-1 .36.17.17 0 0 0-.08.11.54.54 0 0 0 0 .29 13.5 13.5 0 0 0 1.66 1.18.37.37 0 0 0 .35-.18 4.5 4.5 0 0 0 0-1.1 1.1 1.1 0 0 0-.35-.52m1.62.08a1.1 1.1 0 0 0-.3.44.5.5 0 0 0 0 .09 4.5 4.5 0 0 0 0 1.08.22.22 0 0 0 .08.11.57.57 0 0 0 .3.06 12 12 0 0 0 1.67-1.15.33.33 0 0 0-.06-.37 5 5 0 0 0-1.08-.35 1.15 1.15 0 0 0-.61.09m.57-1.42a1.2 1.2 0 0 0 .34.41h.08a5 5 0 0 0 1.06.32.16.16 0 0 0 .13 0 .47.47 0 0 0 .2-.25 12 12 0 0 0-.63-1.89.37.37 0 0 0-.39-.06 4.4 4.4 0 0 0-.67.87 1 1 0 0 0-.12.6m-.27.12a.6.6 0 0 0-.19-.2.5.5 0 0 0 0-.18.56.56 0 0 0-.23-.36.6.6 0 0 0-.68 0 .61.61 0 0 0-.61 0 .52.52 0 0 0-.22.36.5.5 0 0 0 .01.31.6.6 0 0 0-.12.14.54.54 0 0 0 0 .42.57.57 0 0 0 .55.39.57.57 0 0 0 1.05-.09.56.56 0 0 0 .46-.37.52.52 0 0 0-.02-.42m-1.47.62a.2.2 0 0 1-.24-.12.19.19 0 0 1 .12-.23.19.19 0 0 1 .24.12.18.18 0 0 1-.12.24Zm.1-.69a.2.2 0 0 1-.27 0 .18.18 0 0 1 0-.26.2.2 0 0 1 .27 0 .18.18 0 0 1 0 .26m.45 1a.19.19 0 0 1-.19-.19.19.19 0 0 1 .19-.23.19.19 0 0 1 .19.19.19.19 0 0 1-.19.23m0-1.07a.18.18 0 0 1 0-.26.2.2 0 0 1 .27 0 .18.18 0 0 1 0 .26.19.19 0 0 1-.27-.05Zm.4.57a.18.18 0 0 1-.13-.23.19.19 0 0 1 .24-.12.18.18 0 0 1 .12.23.19.19 0 0 1-.25.08ZM8.34 5.37a1.77 1.77 0 0 0-1-.61.52.52 0 0 0-.38.23l-.14.15a1.47 1.47 0 0 1-1.12.66 1.55 1.55 0 0 1-.66-.17v4.23a1 1 0 0 0 .61.58.82.82 0 0 0 .54-.34 1.6 1.6 0 0 1 2.14-.34V5.37Zm3.34.43a1.47 1.47 0 0 1-1.12-.66l-.14-.15a.52.52 0 0 0-.38-.23 1.75 1.75 0 0 0-1 .61v4.38a1.73 1.73 0 0 1 .89-.27 1.7 1.7 0 0 1 1.25.61.8.8 0 0 0 .53.34.94.94 0 0 0 .61-.58V5.63a1.55 1.55 0 0 1-.65.17m17.2 3.95a1.6 1.6 0 0 1 2.14.34.82.82 0 0 0 .54.34 1 1 0 0 0 .61-.58V5.63a1.55 1.55 0 0 1-.66.17 1.48 1.48 0 0 1-1.12-.66l-.14-.15a.52.52 0 0 0-.38-.23 1.76 1.76 0 0 0-1 .61v4.38ZM25.51 5.8a1.54 1.54 0 0 1-.65-.17v4.23a.94.94 0 0 0 .61.58.8.8 0 0 0 .53-.34 1.7 1.7 0 0 1 1.25-.61 1.73 1.73 0 0 1 .89.27V5.37a1.75 1.75 0 0 0-1-.61.52.52 0 0 0-.38.23l-.08.15a1.48 1.48 0 0 1-1.12.66M14.27 18.66a8.62 8.62 0 0 1-5.32-5.12c-.3-.85-.75-.72-.66.18a7.94 7.94 0 0 0 4.84 6.56c1.35.52 2.1-1.28 1.14-1.62m8.71 0a8.62 8.62 0 0 0 5.32-5.12c.31-.85.75-.72.67.18a7.94 7.94 0 0 1-4.85 6.56c-1.34.52-2.1-1.28-1.14-1.62"/><path d="M22.13 18c.19 0 .45-.11.75-.21a8 8 0 0 0 3.48-2.59 41.3 41.3 0 0 0-7.68-.79 41 41 0 0 0-7.79.81 8 8 0 0 0 3.58 2.61l.64.17a1.26 1.26 0 0 0 1.23-.25c.47-.4.56-.63 2.3-.63s1.82.24 2.29.63a1.26 1.26 0 0 0 1.2.25m9.05 4.23l-3.88 6.4c1.47-.67 3.66-2.35 3.88-6.4M9.9 28.62l-3.88-6.4c.23 4.06 2.42 5.74 3.88 6.4M29.36 15.9a8.9 8.9 0 0 1-3 4.11 4.64 4.64 0 0 0 3.79-.3 10.4 10.4 0 0 1-2.27 2.87 2.3 2.3 0 0 1-.4-.34c-.32-.35-.62 0-.4.24a4 4 0 0 0 .39.48l-.47.42a2.4 2.4 0 0 1-.45-.37c-.32-.35-.62 0-.4.24a3.6 3.6 0 0 0 .4.48l-.61.46c-.4-.51-.84-1-1.49-.71s0 .82 0 1.52c0 2.77-1.75 3.8-2.18 5l-1.21 3.83c-.34.55-1.79 1.2-2.45.67-.67.52-2.13-.1-2.46-.67s-.79-2.67-1.22-3.85-2.14-2.2-2.14-5c0-.69.69-1.16 0-1.52s-1.09.2-1.49.71l-.61-.46a4 4 0 0 0 .39-.43c.22-.29-.07-.59-.39-.24a2.4 2.4 0 0 1-.45.37l-.47-.42a4 4 0 0 0 .39-.48c.22-.29-.07-.59-.39-.24a2.4 2.4 0 0 1-.4.34 10.4 10.4 0 0 1-2.27-2.87 4.24 4.24 0 0 0 3.73.26 8.9 8.9 0 0 1-3-4 28.5 28.5 0 0 0-6.36 2.51v5.91c0 9.54 13.63 20.56 17.14 21.55 3.5-1 17-12 17-21.55v-6a28.3 28.3 0 0 0-6.25-2.52m.81 17.64c-.75.6-1.33 1-1.8 1.34-1 .72-1.42 1-1.37 1.58l.18 2.3-1.34-.62A2.4 2.4 0 0 1 24.19 36c-.14-1.59.84-3.25 2.63-4.45a11 11 0 0 1 1.11-.63 1.9 1.9 0 0 0 .61-.4c.06-.18-.28-.47-1.27-.91l-.45-.19-8.21 13.56-8.23-13.56-.45.19c-1 .44-1.32.73-1.27.91a1.9 1.9 0 0 0 .61.4 10 10 0 0 1 1.11.63c1.79 1.19 2.78 2.85 2.64 4.45a2.4 2.4 0 0 1-1.65 2.14l-1.35.62.18-2.3c0-.53-.35-.86-1.37-1.58-.47-.33-1-.74-1.79-1.34-4.6-3.7-4.75-8.36-3.41-10.34.45-.65 1.71-2.07 1.72-2.08l-.21-.33a.91.91 0 1 1 1-.91.9.9 0 0 1 0 .28L18.61 41.1 31.1 20.19a.91.91 0 1 1 1 .63l-.21.33s1.27 1.42 1.72 2.08c1.32 1.95 1.16 6.61-3.44 10.31"/></g><path d="M18.59 1.42C5.97 1.42 1.5 5.28 1.5 5.28v11.36a30 30 0 0 1 6-2.18c0-.22-.07-.45-.09-.66a1.75 1.75 0 0 1 .27-1.38 1.05 1.05 0 0 1 .78-.35 1.42 1.42 0 0 1 1.31 1.21c.08.23.17.44.27.64a44.6 44.6 0 0 1 8.55-.9 45 45 0 0 1 8.58.89c.09-.2.19-.42.27-.64a1.42 1.42 0 0 1 1.24-1.2 1.05 1.05 0 0 1 .78.35 1.75 1.75 0 0 1 .34 1.38c0 .21-.06.44-.1.66a30 30 0 0 1 5.98 2.18V5.28S31.2 1.42 18.59 1.42m-5.2 10-1.71-.29h-.1l-2.26-.34v.38H8.1v-.4l-4.08.87V5.37l.31-.09v-1l.59.43a1.47 1.47 0 0 0 .79.38.85.85 0 0 0 .57-.41l.15-.17a1.24 1.24 0 0 1 .92-.45 2.18 2.18 0 0 1 1.35.69 2.2 2.2 0 0 1 1.36-.69 1.25 1.25 0 0 1 .92.45l.15.17a.85.85 0 0 0 .57.41 1.47 1.47 0 0 0 .8-.38l.58-.43v1l.3.09v6Zm9.12-2.65a.58.58 0 0 1-.59.28.8.8 0 0 1-.09.4 16 16 0 0 1-2.35 1.63h-.11a1 1 0 0 1-.29 0 .59.59 0 0 1-.47.5.58.58 0 0 1-.46-.48 1 1 0 0 1-.34.06h-.13a15.4 15.4 0 0 1-2.33-1.65.74.74 0 0 1-.1-.35.59.59 0 0 1-.6-.28.56.56 0 0 1 .34-.6.8.8 0 0 1-.2-.42 13.8 13.8 0 0 1 .9-2.65.86.86 0 0 1 .34-.2.54.54 0 0 1 .1-.62.57.57 0 0 1 .62.09.85.85 0 0 1 .35-.31 8.6 8.6 0 0 1 1.3-.06 12 12 0 0 1 1.6.07.83.83 0 0 1 .32.28.6.6 0 0 1 .64-.18.52.52 0 0 1 .1.59.8.8 0 0 1 .38.22 14 14 0 0 1 .89 2.66.77.77 0 0 1-.17.38.57.57 0 0 1 .35.6Zm10.68 2.91-4.08-.87v.38H27.9v-.42l-2.22.35h-.13l-1.73.26v-6l.3-.09V4.28l.56.44a1.5 1.5 0 0 0 .8.38.85.85 0 0 0 .57-.41l.15-.17a1.25 1.25 0 0 1 .92-.45 2.18 2.18 0 0 1 1.36.69 2.18 2.18 0 0 1 1.36-.69 1.23 1.23 0 0 1 .92.45l.15.17a.85.85 0 0 0 .57.41 1.47 1.47 0 0 0 .79-.38l.61-.44v1l.3.09v6.27Zm-4.81 17.46a1.81 1.81 0 0 1 1.15 1.38 1.51 1.51 0 0 1-1.13 1.23 10 10 0 0 0-1 .58c-.56.37-2.38 1.73-2.22 3.58a1.42 1.42 0 0 0 .94 1.3l-.08-.83c0-.83.7-1.51 1.77-2.27.46-.32 1-.72 1.75-1.3 4-3.19 4.41-7.33 3.21-9.1l-.63-.9a7.73 7.73 0 0 1-3.76 6.33m-23.3-6.33-.63.9c-1.2 1.77-.75 5.92 3.21 9.1.72.58 1.29 1 1.75 1.3 1.07.75 1.81 1.44 1.77 2.27l-.08.83a1.42 1.42 0 0 0 .94-1.3c.17-1.85-1.65-3.21-2.22-3.58a9 9 0 0 0-1-.58 1.51 1.51 0 0 1-1.14-1.23 1.81 1.81 0 0 1 1.15-1.38 7.73 7.73 0 0 1-3.75-6.33" fill="#e32726"/></svg>