<svg xmlns="http://www.w3.org/2000/svg" viewBox="0 0 404.1 195.6" xmlns:v="https://vecta.io/nano"><path d="M106.6 103.9V42.8c0-6.9-4-13.2-10.1-16.1L51.8 5.5c-1.1-.5-6.2-3-9.9-5.5v13.2c0 2.4.1 4.9 1.5 6.8L29 13.2c-1.8-.9-7.8-4.1-10.9-6.9v22.9c0 3.1.7 7.2 2.9 9.1l-7.2-3.4C9.8 33 3.3 27.9 0 21.5v126.4c0 11 6.1 21.2 16 26.7l37.4 21 25-14.1 1.8-1 2-1.1 8.5-4.8c9.8-5.5 15.9-15.8 15.9-26.8z" fill="#fff"/><g fill="#502c1e"><path d="M135 148.2h22.4v3H135zm13-12.8c0 4.5-3 7.4-7 7.4s-7-3-7-7.4c0-4.5 3-7.4 7-7.4 4-.1 7 2.9 7 7.4m-9.6 0c0 4.8.8 6.6 2.6 6.6s2.6-1.8 2.6-6.6-.8-6.7-2.6-6.7-2.6 1.9-2.6 6.7m22-10.9c0 .8-.5 1.3-1.4 1.6h-.5c-.7-2.5-1.2-3.1-2.2-3.1-.9 0-1.5.8-1.5 2.9v2.3h3v1h-3v10.5c0 1.9 0 1.9 2.5 2v.8h-8.4v-.8c1.7-.1 1.7-.1 1.7-2v-10.5h-1.7v-.8l1.7-.3v-.4c0-2.6 1.7-5.4 6.1-5.4 2.3-.1 3.7.8 3.7 2.2m46-47.3v16.5c0 3.9 0 3.9 3.4 4.2v1.7h-14.6v-1.7c2.5-.3 2.5-.3 2.5-4.2V76.9c0-2-.9-4.1-3.6-4.1-4.2 0-5.7 5.8-5.7 9.5v11.4c0 3.9 0 3.9 3.4 4.2v1.7h-15.5v-1.7c3.4-.3 3.4-.3 3.4-4.2V74.8c0-2.7-.2-2.7-3.4-3v-1.7c3.9-.6 7.3-1.1 9.1-1.1 2.2 0 2.9.4 2.9 2.9v4c1.7-5.5 5.6-7 9.6-7 5.1 0 8.5 2.6 8.5 8.3m17.4-5.3v21.8c0 3.9 0 3.9 3.4 4.2v1.7h-15.5v-1.7c3.4-.3 3.4-.3 3.4-4.2V74.8c0-2.7-.3-2.7-3.4-3v-1.7c3.8-.6 7.3-1.1 9.1-1.1 2.3-.1 3 .4 3 2.9m.5-10.5c0 2.5-1.9 4.7-5.1 4.7s-5.1-2.2-5.1-4.7 1.9-4.8 5.1-4.8 5.1 2.2 5.1 4.8m86 11.6c0 2.1-1.3 3.2-2.1 3.9l-1 .3c-1.1-1.1-2.5-1.8-4.1-1.8-2.5 0-5 2.8-5 7.5v10.8c0 3.9-.1 3.9 5.7 4.2v1.7H286v-1.7c3.4-.3 3.4-.3 3.4-4.2v-19c0-2.7-.2-2.7-3.4-3V70c4-.6 7.6-1.1 9.5-1.1 1.8 0 2.6.5 2.6 3.1v5.6c1.6-6.7 4.5-8.7 7.7-8.7 2.9 0 4.5 1.8 4.5 4.1m21.4-2.7c1.1.5 1.4 1.9 1.4 2.5l.7 5.8h-1.7c-1.9-6.1-4.2-8.1-7.2-8.1-2.5 0-4.4 1.5-4.4 4.2 0 6.6 14.6 5.2 14.6 15.7 0 5.4-4.5 9.8-12.8 9.8-2.8 0-5.6-.4-8.4-1.5-1.2-.5-1.6-1.3-1.8-2.6l-.8-5.1h1.6c2.4 5.9 5 7.5 8.9 7.5 2.8 0 4.9-1.7 4.9-4.8 0-7.2-14.5-5.6-14.5-15.8 0-4.7 3.4-9 11.4-9 2.6 0 5.2.2 8.1 1.4m17.8 1.6v21.8c0 3.9 0 3.9 3.4 4.2v1.7h-15.5v-1.7c3.4-.3 3.4-.3 3.4-4.2V74.8c0-2.7-.3-2.7-3.4-3v-1.7c3.8-.6 7.3-1.1 9.1-1.1 2.3-.1 3 .4 3 2.9m.5-10.5c0 2.5-1.9 4.7-5.1 4.7s-5.1-2.2-5.1-4.7 1.9-4.8 5.1-4.8c3.2-.1 5.1 2.2 5.1 4.8m-101.8 8.1v1.6c.7 0 1.3.1 1.8.2 2 .4 1.7 1.2 1.3 2.5l-5.2 16.5-6.2-16.4c-.7-1.8-.2-2.5 3.3-2.8v-1.6h-16.3v1.6c2.3.3 2.8.5 3.5 2.3l10.4 26.4h4.7l8.6-26.1c.7-2 1-2.4 4.5-2.7v-1.6h-10.4zm35.4 11.1c0-8.7-6.3-11.7-12-11.7-7.9 0-14.9 6.3-14.9 15.7 0 9.6 6.1 15.7 14.6 15.7 5.8 0 10.1-3.6 12-6.6l-.8-1.1c-1.7 1.8-4.4 3.1-7.6 3.1-3.6 0-8.6-1.8-9-11.6h17.5c.2-1.6.2-2.6.2-3.5m-8.4 1.3h-9.3q.15-11.4 5.4-11.4c2.9 0 4.4 2.6 4.4 7.6 0 1.4-.2 2.6-.5 3.8m118.2-12.4v1.6c3.9.3 3.6 1 3.1 2.7l-5.1 15.8-6.2-15.7c-.7-1.8-.2-2.5 3.3-2.8v-1.6h-22.2v-7.2h-2.2l-6.5 7.2-3.6.5v1.6h3.6v21.8c0 5.2 2.7 6.7 6.9 6.7 3.3 0 6.1-.3 8.4-.6v-1.7c-4.9 0-6.6-1-6.6-5.5V71.6h7.3c.7 0 1.4.4 1.6 1.1l12.3 29.3c-1.4 3.8-4.5 5-6.2 5-2.2 0-4.7-.8-6.3-2.2l-.5.5c0 2.5 1.3 6.4 5.7 6.4 3.9 0 7.2-2 10.5-11.7l8.6-26.1c.7-2 1-2.4 4.5-2.7v-1.6h-10.4zm-183.3 42.4v-1.6h-14.5l-9 31.9-9.5-31.9h-14v1.6c3.4.3 3.6.3 3.6 4.3v29.1c0 3.9-.1 3.9-3.6 4.2v1.7h10.7v-1.7c-4.6-.3-4-.3-4-4.2v-26.6l9.9 32.4h7.2l10-35.3v29.5c0 3.9-.1 3.9-3.6 4.2v1.7h16.8v-1.7c-3.6-.3-3.6-.3-3.6-4.2v-29.1c0-4 .1-4 3.6-4.3m26.4 18v15.8c0 2.6.1 3.6 3.4 3.9v1.7c-2.6.5-4.1.5-5.6.5-4.2 0-6.2-1.3-6.5-5.7-1.9 4.1-5 5.7-8.6 5.7-4.4 0-7.8-2.6-7.8-7.4 0-6.4 6.1-8.7 16.4-10.1V128c0-3.1-1.1-5.6-4.2-5.6-2.6 0-4 1.4-4 3.6 0 1 .2 2.3.5 3.4l-.6.6c-.9.4-1.9.7-2.7.7-2.2 0-3.9-1.5-3.9-3.8 0-3.7 4.8-6.4 11.6-6.4 8.5.1 12 3.6 12 9.4m-8.7 6.1c-4.2.8-7.2 2.4-7.2 6.7 0 3.1 1.6 4.4 3.3 4.4 2.8 0 4-3.3 4-7zm43.5-7.1v16.4c0 3.9 0 3.9 3.4 4.2v1.7h-14.6v-1.7c2.5-.3 2.5-.3 2.5-4.2v-16.8c0-2-.9-4.1-3.6-4.1-4.2 0-5.7 5.8-5.7 9.5v11.4c0 3.9 0 3.9 3.4 4.2v1.7h-15.5v-1.7c3.4-.3 3.4-.3 3.4-4.2v-18.9c0-2.7-.2-2.7-3.4-3v-1.7c3.9-.6 7.3-1.1 9.1-1.1 2.2 0 2.9.4 2.9 2.9v4c1.7-5.5 5.6-7 9.6-7 5.1.1 8.5 2.7 8.5 8.4m17.2-5.3v21.8c0 3.9 0 3.9 3.4 4.2v1.7h-15.5v-1.7c3.4-.3 3.4-.3 3.4-4.2v-18.9c0-2.7-.3-2.7-3.4-3v-1.7c3.8-.6 7.3-1.1 9.1-1.1 2.3-.1 3 .3 3 2.9m.5-10.6c0 2.5-1.9 4.7-5.1 4.7s-5.1-2.2-5.1-4.7 1.9-4.8 5.1-4.8 5.1 2.3 5.1 4.8m22.8 8.2v2.2h-6.7v20.7c0 4.6 1.7 5.5 6.6 5.5v1.7c-2.3.3-5.2.6-8.4.6-4.2 0-6.9-1.4-6.9-6.7v-21.8h-3.6v-1.7l3.6-.5 6.5-7.2h2.2v7.2z"/><path d="M341 136.2c0 9.5-6.2 15.7-14.7 15.7-8.4 0-14.6-6.2-14.6-15.7s6.2-15.7 14.6-15.7c8.5.1 14.7 6.3 14.7 15.7m-20.1 0c0 10.1 1.6 14 5.4 14s5.4-3.9 5.4-14c0-10.2-1.6-14-5.4-14-3.7 0-5.4 3.8-5.4 14m32.7-24.7v15.7c1.4-4.7 4.8-6.6 8.8-6.6 6.6 0 11.1 4.6 11.1 15.7 0 9-4.9 15.7-12.9 15.7-2.7 0-4.9-.4-6.9-1.8l-7 1.8H345v-37.6c0-2.6-.3-2.6-3.4-3v-1.7c3.8-.6 7.3-1.1 9.1-1.1 2.2-.1 2.9.3 2.9 2.9m0 22.4V148q2.1 1.8 4.5 1.8c4.2 0 6.1-3.4 6.1-13.7 0-10.1-2.9-11.7-5.3-11.7-2.7.1-5.3 2.5-5.3 9.5m47.1-4v15.8c0 2.6.1 3.6 3.4 3.9v1.7c-2.6.5-4.1.5-5.6.5-4.2 0-6.2-1.3-6.5-5.7-1.9 4.1-5 5.7-8.6 5.7-4.4 0-7.8-2.6-7.8-7.4 0-6.4 6.1-8.7 16.4-10.1V128c0-3.1-1.1-5.6-4.2-5.6-2.6 0-4 1.4-4 3.6 0 1 .2 2.3.5 3.4l-.6.6c-.9.4-1.9.7-2.7.7-2.2 0-3.9-1.5-3.9-3.8 0-3.7 4.8-6.4 11.6-6.4 8.5.1 12 3.6 12 9.4M392 136c-4.2.8-7.2 2.4-7.2 6.7 0 3.1 1.6 4.4 3.3 4.4 2.8 0 4-3.3 4-7zM171.6 64.5l-.1 19.3c0 10.6-5.3 16.3-14.7 16.3-10.9 0-18.2-6.1-18.2-16.4V64.4c0-4-.1-4-3.6-4.3v-1.6h16.8v1.6c-3.5.3-3.6.3-3.6 4.3V84c0 8 3.9 12.3 10.1 12.3 7.2 0 10.1-4.9 10.1-12.5V64.4c0-4-1.8-4-5.3-4.3v-1.6h13.8v1.6c-3.1.5-5.3.5-5.3 4.4"/></g><path d="M4.3 144.5v3.2c0 9.5 5.2 18.2 13.8 23l35.3 19.8L77.3 177c-5.5-21.1-57-24.8-73-32.5" fill="#f5a800"/><g fill="#502c1e"><path d="M102.3 105.8c-3.8 6.8-10.5 10.6-17.2 12.8-5.4 1.8-12.7 3.6-22.8 5.8-19.8 4.3-41 9.7-52.1 15.8 6 2.8 14.5 5.1 23.5 7.4 20.4 5.3 43.5 11.4 47.5 27.1l7.4-4.2c8.5-4.8 13.7-13.6 13.7-23z"/><path d="M43.9 120.1l1.8-3.5c.4-1 .2-1.3-1.1-1.4-3.1-.3-4.6-.6-6.6-1.1.5 1.2 2 5.9.2 8.6 1.3 2.4 5.8 6.1 8 7.8l6.1-1.2c-2.3-1.2-6.6-4.1-7.5-4.9-1.6-1.4-1.8-2.4-.9-4.3m43.6-36l2.9-1.7c-2.4.5-4.4-1.2-7.7-2.1-2.8-.8-5 .4-6.2 2.4-.3.4-.9.5-1.2.1-5.9-6.5-13.5-6.2-19.9-.6-8.4 7.3-14.3 10.9-18.9 13.3-5.2 2.7-6.7 5.1-7.7 7.4-1.8-1.1-3.3-.8-4.2-.2-1.5 1-2.1 2.8-2.7 4.4-1.1 2.9-4.2 7.9-7.7 8 4.7 1.6 6.9.5 8.4-2 1-1.8.8-4 1.2-6 .3-1.8 1.9-3.9 4.3-2.3-.8 2.4-1.3 6.2-1 8.9.4 3.3.6 9.2-.6 10.7.1 3.5-.2 5.4-1.4 7.8-.9 1.8-1.4 3.8-1 5 1.4.1 3.5-1.9 5.1-2.4-.4-2-.7-4.4 0-6.7 1.8-6.1 4.9-6.6 6.7-12.8.8-2.7 1.7-2.3 3.9-1.9 6.6 1.1 9.5.7 14.2-1.6-.5 3.8-.1 10.2 5.4 13.3 2.1 1.2 2.1 1.6 3 1.4.5-.1 4.4.3 2.8-1.5-2.3-2.5-2.8-5.4-2.7-7.3 0-2.8 1.7-5.1 3.1-5.7 1.5 2.1 3.3 3.3 4.5 3.6 1 .3 2.2.3 2.8.4.6 0 .8.3.6.8-.4 1-1.6 1.6-2.1 2.3-1.4 1.8-1 4.4 1.1 5.8.3-1.9 3-5.2 3.9-6.3 1.6-1.9 2.7-2.7 2-4.5-.7-1.6-1.8-3.6-4-5.9-1.3 0-3.5.7-3.7.8 4-3.4 8.4-3.5 10.4-3 2.2.5 3.6 2 3.4 4.1 1.5-1.6 2.4-4.6 2.6-7.5 1.1-.5 2-1 2.3-1.4.3-.3.5-.9.5-1.7 0-2.6 1.6-6.1 1.6-8.4-.1-3.4-1.9-5.7-4-7"/></g><path d="M86.9 93.3s0-1.2-.3-1.5-.8-.3-1.1 0-.3.8 0 1.2c.3.3 1.4.3 1.4.3m-5.2-10.2.9-.6s-.2.2-.4.6c-.6 1.1-1.8 3.5 0 5.7.9 1-.3 1.8-1.5 1.2-.7-.4-3.2-3.8 1-6.9" fill="#fff"/><path d="M91 141.6c-4.9-6.1-7.9-8-6.7-15.1-2.9 2.9-5 5.6-4.9 10.8 0 4.9 5.4 9.6 7.5 14.3 1.1 2.3 1.2 4.7.3 7 .2-2-1.4-3.9-2.9-5.3-2.1-1.8-2.9-2-5-4.8-1.1-1.5-1.9-3.6-1.6-6.5-1.2 2.5-2.3 5.9-2.2 7.8 0 8.9 10.1 8 8.3 13.4 8.8-3.2 11-9.2 10.9-12.8s-1.6-6.3-3.7-8.8" fill="#f5a800"/><path d="M102.3 51c-2.1-3.9-11-8.5-21.8-13.7L53.3 24.4c-4.4-2.1-7.1-6.5-7.1-11.3V7.2c.9.7 2.3 1.4 4.3 2.3s44.2 20.9 44.2 20.9c4.7 2.2 7.6 7.1 7.6 12.2z" fill="#00a0df"/><path d="M22.4 14.2v12c0 5 2.9 9.6 7.4 11.8l45.4 21.5c10.4 4.9 23.2 12.7 27.1 20.5V63.1c0-7.5-4.3-12.4-11.1-15.6l-64-30.4c-2-1-3.7-1.9-4.8-2.9m21 56.4L6.2 53c-.7-.3-1.4-.9-1.9-1.4v49.2c3.6-7.3 9.1-11.2 19.7-13.9l18.7-4.8c6.1-2.2 5.8-9 .7-11.5" fill="#345d9d"/><path d="M47.3 55.4L12 38.6c-4-1.9-6.4-3.9-7.6-6.5v9.6c0 3.2 1.9 6.2 4.8 7.6l35.1 16.6c2.2 1 5.9 3.6 5.9 8.5 0 2.5-1.2 4.6-2.4 6 9.8-4.9 11.5-19.3-.5-25" fill="#00a0df"/></svg>