<svg xmlns="http://www.w3.org/2000/svg" viewBox="32 32 309 78" xmlns:v="https://vecta.io/nano"><symbol id="A" viewBox="-3.641 -2.668 7.281 5.335"><path d="M-2.417-2.049c.008-.25.14-.619 2.417-.619s2.409.369 2.417.619c.307 1.364.866 3.044 1.158 3.476a.387.387 0 0 1-.37.6c-.379-.049-.767-.264-.935-.636a.73.73 0 0 1-.619-.656.39.39 0 0 1 .203-.376.9.9 0 0 0-.101-.296c-.076-.148-.362-.271-.65-.208-.28.061-.407.192-.439.453a.7.7 0 0 0 .007.235L.71.522a.387.387 0 0 1 .577.27c.062.373-.096.749-.393.936a.8.8 0 0 1-.258.102 1.3 1.3 0 0 1-.37.732.385.385 0 0 1-.532 0 1.3 1.3 0 0 1-.37-.732.7.7 0 0 1-.257-.102c-.297-.186-.455-.562-.393-.936A.387.387 0 0 1-.71.522l.039.021A.7.7 0 0 0-.663.308c-.032-.262-.159-.393-.439-.454-.289-.062-.574.06-.65.207a.9.9 0 0 0-.102.297c.136.072.218.22.203.377a.73.73 0 0 1-.619.656c-.168.373-.556.587-.934.637a.386.386 0 0 1-.37-.6c.292-.433.851-2.113 1.157-3.477"/><path d="M0-2.281c1.122 0 2.03.123 2.03.277.301 1.353.88 3.14 1.224 3.648-.28-.037-.716-.223-.682-.724-.192.197-.511.049-.536-.221.323-.109.205-.53.062-.812-.161-.315-.624-.508-1.076-.41-.515.111-.7.434-.743.785-.048.396.095.904.626.594.064.385-.272.809-.728.487.264.52-.177.938-.177.938s-.441-.418-.178-.938c-.456.322-.792-.102-.728-.487.531.31.674-.198.626-.594-.043-.351-.228-.674-.741-.785-.453-.098-.915.095-1.076.41-.144.282-.261.703.061.812-.025.27-.344.418-.536.221.034.501-.403.687-.682.724.344-.509.923-2.295 1.224-3.648 0-.153.908-.277 2.03-.277" fill-rule="evenodd" fill="#fabd0f"/></symbol><g fill="#fff"><path d="M194.279 77.752c0 1.916.07 3.334.353 4.125.284.633 1.059.919 2.263.985l2.91.219v2.117l-5.806-.207-5.953.207.286-6.516-4.746 4.399c-1.983 1.777-4.531 2.762-7.93 2.762-9.984 0-9.984-6.382-9.984-12.131V61.799c0-2.269-.14-3.827-.497-4.393-.423-.566-1.133-.779-2.619-.779h-1.734v-1.983c4.178-.426 7.538-1.776 10.16-2.914l.639.292v20.91c0 5.603 1.206 8.585 7.717 8.585 4.606 0 8.994-4.746 8.994-8.147V61.799c0-2.269-.142-3.827-.494-4.393-.429-.566-1.136-.779-2.625-.779h-2.615v-1.983c4.175-.426 8.423-1.776 11.045-2.914l.636.292zm22.261-23.696c5.1 0 7.5 5.391 7.5 11.991-5.097.28-11.047.42-16.846-.219-.358-7.732 3.893-11.772 9.346-11.772m.348-2.342c-2.408 0-4.458.785-6.936 1.922-1.557.706-3.045 1.771-4.39 2.829-3.259 2.556-5.1 6.668-5.1 13.543 0 9.576 5.667 16.384 16.357 16.384 4.82 0 10.831-3.121 11.33-3.967l1.411-2.415-.919-.706c-2.692 1.624-5.38 3.328-8.776 3.328-8.712 0-12.817-5.664-12.817-13.962h10.336c4.254 0 8.564-.286 12.819-.991.135-.998.135-1.99.135-2.981.002-8.014-5.728-12.984-13.45-12.984m33.086 2.328c5.092 0 7.501 5.39 7.501 11.991-5.098.28-11.051.42-16.858-.219-.354-7.733 3.893-11.772 9.357-11.772m.346-2.343c-2.409 0-4.456.785-6.945 1.922-1.554.706-3.042 1.771-4.386 2.829-3.264 2.556-5.101 6.668-5.101 13.543 0 9.576 5.664 16.384 16.353 16.384 4.824 0 10.835-3.121 11.334-3.967l1.423-2.415-.919-.705c-2.701 1.624-5.39 3.328-8.791 3.328-8.706 0-12.81-5.664-12.81-13.963h10.328c4.258 0 8.572-.286 12.819-.991.146-.998.146-1.99.146-2.981.001-8.013-5.736-12.984-13.451-12.984m27.754 26.014c0 1.916.067 3.334.347 4.125.286.633 1.059.919 2.269.985l3.179.219v2.117l-8.77-.207c-3.477 0-6.309.14-8.776.207v-2.117l3.179-.219c1.201-.067 1.98-.353 2.269-.985.28-.791.356-2.209.356-4.125V61.761c0-2.269-.146-3.827-.505-4.393-.419-.566-1.132-.779-2.616-.779h-2.629v-1.983c4.189-.426 8.426-1.776 11.048-2.914l.648.292v6.029h.137l5.238-4.544c1.564-1.345 2.896-1.776 5.731-1.776 8.293 0 11.687 4.611 11.687 12.338v13.683c0 1.916.067 3.334.353 4.125.286.633 1.065.919 2.269.985l2.902.219v2.117c-1.77-.067-3.833-.207-5.81-.207s-4.034.14-5.658.207V65.028c0-5.889-3.334-9.004-8.153-9.004-4.314 0-8.697 3.76-8.697 6.662v15.027zm33.519-21.853c-.742 2.16-1.953 4.514-2.89 6.26l-2.768 2.294-.803-.469c.937-2.555 1.411-4.107 1.947-6.741.542-2.348.748-4.91.81-6.394 1.015-.274 1.618-.602 2.561-1.016.937-.402 1.539-.87 2.427-1.411l.669.541c-.535 2.756-1.211 4.782-1.953 6.936m6.635 18.955v2.908c0 4.399 5.025 6.029 9.138 6.029 4.46 0 8.275-2.61 8.275-6.449 0-2.269-1.199-4.119-3.389-4.679-3.127-.791-7.015-1.564-10.422-2.835-3.389-1.278-6.011-3.407-6.011-7.733 0-7.66 6.656-10.361 13.306-10.361 3.34 0 6.382.785 9.138 1.776-.213 2.562-.28 5.177-.353 8.019h-1.978v-1.636c0-3.681-4.179-5.81-8.219-5.81-6.017 0-6.935 3.334-6.935 5.743 0 3.048 2.33 4.685 7.714 5.603 8.426 1.418 12.393 3.547 12.393 9.071 0 7.806-7.787 11.918-15.648 11.918-3.407 0-6.443-.493-9.911-1.703.706-3.121.773-6.528.773-9.862z"/><path d="M114.234 99.08l2.744-3.298c1.299-1.501 3.335-2.593 4.826-3.281 2.341-1.079 5.369-.724 7.017-.559 1.853.185 3.83.634 5.736 1.141 1.784.475 7.971 2.249 9.716 2.859 2.629.92 14.242 4.547 17.777 5.506l8.615 2.336q3.89.983 7.823 1.778c1.518.306 3.298.661 4.843.791 2.799.236 4.779.495 7.499.165 2.663-.323 4.417-.798 6.427-1.648 2.142-.907 4.862-3.148 4.779-3.148s5.191-7.911 5.262-7.988c.098-.108-1.673-1.017-1.673-1.017-1.196 1.755-2.338 3.139-4.413 4.473-1.382.888-2.427 1.353-4.697 2.143-2.241.779-3.519.961-6.578 1.059-3.217.104-6.428-.23-9.572-.888-4.243-.888-9.94-2.282-12.086-2.794-2.284-.545-9.663-2.699-12.227-3.46a529 529 0 0 1-6.392-1.95c-1.803-.576-3.455-1.011-5.261-1.574l-4.454-1.342a61 61 0 0 0-3.185-.815c-1.219-.278-2.449-.511-3.674-.762l-.517-.102-.006-.065c1.196-.064 2.287-.191 3.756-.378 14.116-1.847 22.421-14.071 21.501-29.062-.857-14.357-12.278-23.386-29.167-22.459-14.468.78-24.407 13.357-23.625 27.495.779 14.003 11.568 23.666 24.124 24.526l.532.033c0 .013-.176.087-.317.097-1.361.1-3.812.337-5.719 1.07-2.566.987-5.197 2.961-5.234 2.958s-5.803 6.955-5.803 6.955zm-1.757-37.406c-.706-10.376 3.263-23.02 16.247-23.947 14.336-1.067 21.144 9.102 21.781 19.472.852 13.138-3.548 24.507-15.183 26.501-13.692 2.275-21.996-9.662-22.845-22.026m107.394 43.23c-3.18 0-5.125-1.776-5.125-5.26v-6.766h2.605v6.698c0 1.928.964 2.926 2.554 2.926s2.554-.964 2.554-2.842v-6.783h2.605v6.681c0 3.587-2.013 5.346-5.193 5.346m18.183-.187l-5.734-7.526v7.526h-2.571v-11.84h2.402l5.548 7.29v-7.29h2.571v11.84zm7.206-11.84h2.605v11.84h-2.605zm13.666 11.925h-2.3l-4.787-11.924h2.876l3.095 8.338 3.095-8.338h2.808zm8.644-.085v-11.84h8.93v2.318h-6.343v2.402h5.582v2.317h-5.582v2.486h6.428v2.317zm20.55 0l-2.537-3.789h-2.047v3.789h-2.605v-11.84h5.412c2.791 0 4.466 1.472 4.466 3.907v.034c0 1.911-1.032 3.112-2.537 3.67l2.892 4.229zm.051-7.797c0-1.116-.778-1.691-2.047-1.691h-2.588v3.4h2.638c1.269 0 1.996-.677 1.996-1.675v-.034zm11.231 7.967a7.54 7.54 0 0 1-5.024-1.894l1.539-1.844c1.066.879 2.182 1.438 3.535 1.438 1.066 0 1.708-.423 1.708-1.116v-.034c0-.66-.406-.998-2.385-1.505-2.385-.609-3.924-1.269-3.924-3.62v-.034c0-2.148 1.725-3.569 4.144-3.569 1.725 0 3.197.541 4.398 1.505l-1.353 1.962c-1.049-.727-2.08-1.167-3.078-1.167s-1.522.457-1.522 1.032v.034c0 .778.508 1.032 2.554 1.556 2.402.626 3.755 1.488 3.755 3.552v.034c0 2.35-1.793 3.67-4.347 3.67m8.762-12.01h2.605v11.84h-2.605zm12.956 2.402v9.438h-2.605v-9.438h-3.602v-2.401h9.81v2.401zm13.565 4.719v4.72h-2.604v-4.669l-4.55-7.171h3.044l2.825 4.752 2.875-4.752h2.96zm-272.167 9.298a2.6 2.6 0 0 1-.764-.114l-.231-.07c-.39-.118-9.708-3.026-18.114-12.238-7.852-8.608-11.354-17.98-11.354-30.387V34.675a2.62 2.62 0 0 1 2.621-2.621h55.682a2.62 2.62 0 0 1 2.621 2.621v31.812c0 12.409-3.5 21.781-11.349 30.387-8.409 9.213-17.726 12.12-18.118 12.239l-.229.07c-.25.075-.508.113-.765.113"/></g><path d="m62.516 106.676-.231-.07c-.364-.111-9.016-2.812-16.942-11.498-7.378-8.089-10.669-16.916-10.669-28.62V34.675h55.682v31.812c0 11.707-3.289 20.534-10.665 28.62-7.928 8.686-16.579 11.387-16.944 11.498zm-.231-1.591"/><path d="M62.516 105.934s-8.717-2.648-16.586-11.273-10.461-17.556-10.461-28.084V35.47h54.092v31.107c0 10.528-2.588 19.457-10.457 28.084s-16.588 11.273-16.588 11.273" fill="#b90e31"/><path d="M44.124 44.137v23.957c0 6.701 2.172 13.06 5.939 17.901 7.108 9.139 12.452 10.226 12.452 10.226s5.343-1.087 12.451-10.226c3.766-4.841 5.939-11.2 5.939-17.901V44.137z"/><path d="M74.233 44.919H50.797l11.718 15.2zm-29.326 5.667v17.507c0 4.118.837 8.128 2.412 11.736l10.067-13.058zm7.061 36.519c5.501 6.526 9.692 8.05 10.547 8.306.847-.253 5.04-1.775 10.545-8.306l-10.546-13.68zm28.155-36.519L67.644 66.772 77.711 79.83c1.574-3.608 2.412-7.618 2.412-11.736z" fill="#fabd0f"/><path d="M80.123 49.304v-4.385h-4.902L62.515 61.401 49.808 44.919h-4.902v4.385l13.467 17.467-10.688 13.866a26.3 26.3 0 0 0 2.996 4.877q.392.503.776.973l11.059-14.344 11.059 14.344q.383-.47.776-.973a26.4 26.4 0 0 0 2.996-4.878L66.656 66.772z" fill="#002452"/><path d="M75.17 67.16c.034-.028.053-.037.054-.039.058.014.207.144.305.23.316.276.793.694 1.563.694.818 0 1.196-.523 1.445-.868a2 2 0 0 1 .231-.285c.071-.064.16-.117.246-.168.179-.106.425-.252.439-.552.014-.295-.22-.508-.449-.675-.111-.083-.314-.3-.436-.43l-.034-.036c-.404-.429-.915-.675-1.405-.675h-.003a1.28 1.28 0 0 0-.947.403c-.476.513-.743.538-.79.517-.019-.009-.036-.052-.035-.094.032-.065.155-.213.247-.324.397-.478.997-1.201.755-2.119-.218-.822-.599-1.414-1.133-1.758a.7.7 0 0 1-.194-.216c-.096-.143-.257-.381-.594-.381s-.495.239-.591.381a.7.7 0 0 1-.192.216c-.537.346-.919.937-1.136 1.758-.241.916.358 1.639.754 2.116l.247.324c.002.048-.018.088-.034.095-.046.022-.313-.003-.791-.517a1.28 1.28 0 0 0-.942-.403h-.006c-.489 0-1 .246-1.404.673l-.071.076-.4.391c-.23.169-.464.381-.45.676s.26.445.439.551a1.55 1.55 0 0 1 .245.167c.072.065.148.171.229.283.25.347.629.871 1.447.871.772 0 1.25-.418 1.566-.695.099-.087.25-.218.292-.23 0 0 .02.006.06.04.018.015.011.013.024.02.027.028.092.128-.009.363-.296.683-.356 1.611-.142 2.156.138.355.128 1.048.039 1.487l-.05.231c-.101.459-.205.933-.021 1.345.078.169.314.685.89.685h.015c.579 0 .812-.517.888-.686.186-.408.081-.881-.02-1.338l-.05-.235c-.088-.444-.097-1.139.041-1.489.213-.549.153-1.476-.142-2.156-.102-.236-.039-.336-.012-.365.013-.003.005 0 .022-.015M58.713 53.836a.39.39 0 0 0 .286.311 2.59 2.59 0 0 0 .547.076.39.39 0 0 0 .296.233c.267.043 1.097.165 2.056.197-.063 2.064-.296 2.659-.345 2.76-.134.135-.11.311.009.465l.66.855a.386.386 0 0 0 .612-.001l.658-.853c.12-.155.142-.334.005-.469-.049-.101-.29-.695-.359-2.758a17 17 0 0 0 2.053-.197.39.39 0 0 0 .296-.233 2.6 2.6 0 0 0 .547-.076.386.386 0 0 0 .233-.58.387.387 0 0 0-.056-.597c-.412-.276-.813-.762-1.086-1.136q.088-.016.171-.04a.388.388 0 0 0 .166-.649c-.293-.286-.703-.826-.991-1.224a.386.386 0 0 0 .103-.593c-.108-.123-.311-.428-.493-.711a.388.388 0 0 0 .044-.6 4.5 4.5 0 0 1-.721-.881.385.385 0 0 0-.031-.5 3.6 3.6 0 0 1-.523-.71.387.387 0 0 0-.668 0c-.17.29-.336.515-.524.71a.386.386 0 0 0-.031.5 4.4 4.4 0 0 1-.721.88.387.387 0 0 0 .043.6l-.493.711a.386.386 0 0 0 .103.593c-.289.398-.698.938-.992 1.224a.386.386 0 0 0 .166.649q.083.022.171.04c-.273.374-.674.86-1.086 1.136a.385.385 0 0 0-.056.597.4.4 0 0 0-.049.271m11.738 32.943c-.476-.02-1.062-.122-1.147-.49a.4.4 0 0 1-.01-.09c0-.183.126-.411.338-.609a.386.386 0 0 0-.053-.605c-.499-.327-1.087-.935-1.703-1.756a.388.388 0 0 0-.69.161c-.126.678-.517 1.916-1.726 2.587a.388.388 0 0 0-.034.655c.359.252.468.526.502.671a1 1 0 0 1 .026.221c0 .309-.144.614-.406.858a1.42 1.42 0 0 1-.888.377.386.386 0 0 0-.361.426q.009.09.009.179c0 .737-.496 1.33-.906 1.692l-.006.005c-.001 0-.058.022-.118-.018-.129-.088-.161-.174-.161-.441l-.001-.453-.001-.409.003-4.958a2.6 2.6 0 0 0 1.322-.525c.52-.414.795-1.014.795-1.736 0-.925-.544-1.584-1.272-1.949l.013-.03.85-2.666a.39.39 0 0 0-.187-.459c-.611-.325-1.344-.497-2.12-.497s-1.509.172-2.12.497a.39.39 0 0 0-.187.459l.85 2.666.013.03c-.729.366-1.272 1.025-1.272 1.949 0 .722.275 1.322.795 1.736.355.283.814.464 1.321.525l.003 5.089-.001.291-.001.442c0 .262-.033.352-.16.439-.06.04-.116.02-.116.02l-.005-.002c-.417-.368-.912-.961-.912-1.696a1.58 1.58 0 0 1 .011-.18.39.39 0 0 0-.361-.426 1.43 1.43 0 0 1-.889-.377c-.261-.245-.405-.55-.405-.858 0-.078.008-.15.026-.224.033-.141.142-.416.501-.667a.388.388 0 0 0-.034-.655c-1.208-.671-1.6-1.909-1.726-2.587a.387.387 0 0 0-.689-.161c-.616.822-1.205 1.429-1.703 1.756a.386.386 0 0 0-.053.605c.211.198.338.426.338.609q0 .043-.01.087c-.086.371-.67.473-1.146.494a.386.386 0 0 0-.279.635c.49.584.872 1.283.998 1.825a.387.387 0 0 0 .462.29 2.1 2.1 0 0 1 1.509.254 1.63 1.63 0 0 1 .783 1.201.387.387 0 0 0 .498.312c.732-.229 1.506.109 1.901.331.741.419 1.356 1.548 1.462 2.685.014.147.11.274.249.326l.217.082a.4.4 0 0 0 .279-.002l.221-.088a.39.39 0 0 0 .241-.311c.152-1.206.785-2.346 1.538-2.772a2.45 2.45 0 0 1 1.833-.241.388.388 0 0 0 .485-.318c.076-.525.339-.93.782-1.204a2.1 2.1 0 0 1 1.511-.254.387.387 0 0 0 .462-.29c.125-.541.508-1.241.998-1.825a.39.39 0 0 0 .058-.405.4.4 0 0 0-.344-.233M66.042 63.82l-.666-.388a.37.37 0 0 0-.21-.052l-.151.006c-.227-.002-.645-.052-.797-.13a2.15 2.15 0 0 0-.937-.252 1.8 1.8 0 0 0-.759.157 1.8 1.8 0 0 0-.737-.156h-.064l-.047.004q-.41.027-.848.247c-.153.077-.579.129-.8.13l-.155-.006a.4.4 0 0 0-.21.052l-.666.388a.39.39 0 0 0-.192.334v6.091a.385.385 0 0 0 .463.379l3.254-.655 3.254.655a.386.386 0 0 0 .463-.378v-6.091a.4.4 0 0 0-.195-.335m-11.905 3.981a.4.4 0 0 0-.291-.121c-.068.002-1.677.053-2.53.728-.499.394-.753.916-.883 1.358l-.005.013c-.026.098-.086.152-.251.258a1.6 1.6 0 0 1-.03-.306c-.007-.277.03-.475.151-.816a.39.39 0 0 0-.052-.357.76.76 0 0 1-.159-.395c-.005-.071.035-.18.095-.322a.38.38 0 0 0-.005-.313 1 1 0 0 1-.082-.423c.252-.063.467-.163.634-.301a1.11 1.11 0 0 0 .318.256.76.76 0 0 0 .358.095.57.57 0 0 0 .338-.107c.19-.138.274-.385.226-.657a1.1 1.1 0 0 0-.146-.383c.329-.208.595-.593.766-1.121s.182-.988.041-1.347a1.1 1.1 0 0 0 .339-.223c.2-.193.275-.441.203-.665s-.28-.38-.556-.419a1.1 1.1 0 0 0-.405.021c-.096-.377-.379-.75-.828-1.076s-.889-.48-1.276-.455a1.1 1.1 0 0 0-.105-.388c-.121-.25-.334-.4-.569-.401h-.001c-.235 0-.448.149-.57.4a1.1 1.1 0 0 0-.105.388c-.387-.023-.827.132-1.275.457s-.732.699-.828 1.075a1.1 1.1 0 0 0-.408-.021c-.275.039-.482.195-.555.419s.003.472.204.666a1.11 1.11 0 0 0 .34.223c-.14.36-.128.825.042 1.348s.436.909.763 1.116c-.07.114-.123.245-.149.385-.048.273.037.519.226.657a.57.57 0 0 0 .339.107.8.8 0 0 0 .359-.095 1.1 1.1 0 0 0 .318-.258c.229.188.546.309.929.356.011.191.007.463-.11.685a.39.39 0 0 0-.012.336.9.9 0 0 1 .097.391c-.006.164-.015.192-.125.371a.39.39 0 0 0-.016.376c.139.275.194.533.2.682l.002.137c-.173-.166-.333-.335-.384-.457l-.001-.001c-.157-.434-.404-.91-.795-1.27-.946-.87-1.995-.841-2.04-.841a.4.4 0 0 0-.241.081c-.08.057-.115.149-.128.254-.009.075-.235 1.853.751 2.77.522.485 1.302.579 1.827.579h.027c.465.049.831.267.967.484l.007.024c.053.171.024.295-.131.55a.39.39 0 0 0 .055.472c.251.255.394.627.611 1.189q.105.275.24.608a.387.387 0 0 0 .663.09l.357-.46a.39.39 0 0 0 .047-.396c-.191-.422-.259-.818-.259-1.028 0-.095.012-.186.037-.287a.39.39 0 0 0-.111-.377c-.21-.196-.302-.346-.346-.563-.007-.168.024-.441.854-.493l.023-.003a4.4 4.4 0 0 0 1.679-.425c1.255-.586 1.424-2.456 1.43-2.535a.37.37 0 0 0-.1-.299"/><path d="M46.717 62.978a1 1 0 0 1-.093-.333.7.7 0 0 0-.323-.03c-.266.038-.331.235-.137.423a.7.7 0 0 0 .278.165 1 1 0 0 1 .275-.225m.901 3.202q-.106-.001-.213-.025a.7.7 0 0 0-.132.302c-.047.266.122.388.36.262a.74.74 0 0 0 .244-.215 1 1 0 0 1-.125-.334q-.067.01-.134.01m3.491-.007a1 1 0 0 1-.125.333.7.7 0 0 0 .243.213c.238.127.407.005.359-.261a.7.7 0 0 0-.129-.3 1 1 0 0 1-.214.025 1 1 0 0 1-.134-.01m1.314-2.97a.7.7 0 0 0 .277-.164c.194-.187.128-.385-.137-.423a.7.7 0 0 0-.32.029 1 1 0 0 1-.093.337q.154.086.273.221m-2.698-2.389a.7.7 0 0 0-.071-.311c-.117-.243-.326-.243-.444 0a.7.7 0 0 0-.071.307q.167.072.298.195.125-.119.288-.191" fill="#779221"/><path d="M47.412 63.165c.161-.471.439-.763.788-.823a1 1 0 0 1 .128-.01 1 1 0 0 1 .045-.116c.165-.312.528-.486 1.027-.492-.161-.714-.86-.837-1.692-.233s-.927 1.303-.296 1.674m.189 1.508a.8.8 0 0 1 .038-.232 1 1 0 0 1-.096-.082c-.155-.16-.234-.378-.234-.637q0-.228.082-.49c-.729-.068-1.062.559-.745 1.536s.954 1.284 1.503.797c-.357-.267-.548-.579-.548-.892m2.892-2.456c.016.031.031.073.047.117a1 1 0 0 1 .128.01c.347.06.626.354.787.827.629-.374.531-1.078-.3-1.681s-1.524-.479-1.683.233c.494.01.856.183 1.021.494m.983 1.022q.08.26.079.483c0 .259-.078.478-.234.638a1 1 0 0 1-.097.083.7.7 0 0 1 .038.232c0 .313-.193.626-.55.894.55.487 1.191.177 1.508-.802s-.016-1.598-.744-1.528m-1.937 2.572a1 1 0 0 1-.108-.067 1 1 0 0 1-.108.067c-.316.155-.712.083-1.118-.203-.293.673.2 1.186 1.229 1.186s1.517-.511 1.222-1.183c-.406.283-.801.355-1.117.2m-.11-3.683c-.677 0-.959.378-.641.842l-.001.001c-.346-.447-.793-.293-1.003.352s.062 1.031.603.871l.001.001c-.532.19-.525.663.025 1.062s.997.259 1.013-.303h.002c.018.564.468.702 1.019.303s.554-.869.024-1.059l.001-.001c.541.158.812-.229.603-.875s-.655-.796-.999-.35l-.001-.001c.318-.466.033-.843-.646-.843m-.827 1.738a.831.831 0 0 1 1.66 0 .83.83 0 1 1-1.66 0" fill="#b90e31"/><path d="M62.517 77.305c-.71 0-1.389.16-1.938.452l.85 2.666a3.28 3.28 0 0 1 2.177 0l.85-2.666c-.55-.292-1.23-.452-1.939-.452" fill="#614f87"/><path d="M74.429 73.06c-.217 0-.383-.118-.539-.459-.156-.349 0-.852.098-1.338s.116-1.258-.058-1.704-.116-1.28.136-1.862-.121-.833-.121-.833c-.644-.542-.911.794-2.167.794-.858 0-1.049-.72-1.416-1.054s-.894-.336-.266-.797c.152-.112.376-.359.523-.512.588-.623 1.368-.727 1.789-.274 1.035 1.113 1.551.544 1.49.091-.053-.385-1.291-1.205-1.009-2.274.214-.808.579-1.279.972-1.532.327-.213.332-.535.574-.535s.249.322.579.535c.393.253.755.724.969 1.532.282 1.07-.954 1.889-1.009 2.274-.06.453.458 1.022 1.491-.091.423-.453 1.203-.349 1.79.274l.521.512c.63.461.106.463-.264.797s-.556 1.054-1.417 1.054c-1.254 0-1.52-1.337-2.17-.794 0 0-.368.252-.116.833s.31 1.415.136 1.862-.156 1.219-.06 1.704.257.989.098 1.338c-.154.341-.322.459-.536.459z" fill="#779221"/><g fill="#fabd0f" fill-rule="evenodd"><path d="M62.74 63.531c.278-.175.724-.222 1.303.07.257.13.792.171.983.171v5.317c-.261-.023-.772-.209-.993-.321-.556-.281-.983-.249-1.293-.092zm-2.724.241c.191 0 .725-.042.982-.171.58-.292 1.026-.245 1.303-.07v5.146c-.31-.158-.736-.189-1.292.092-.222.112-.734.298-.993.321zm5.421.14.418.242v5.712l-.418-.442zm-6.251.242.418-.242v5.512l-.418.442zm3.331 5.174v.246l-3.075.619.672-.716c.243-.015.672-.181.876-.284.503-.254 1.244-.378 1.527.135"/><path d="M62.517 69.328v.246l3.075.619-.672-.716c-.243-.015-.672-.181-.876-.284-.504-.254-1.244-.378-1.527.135"/></g><path d="M62.731 84.416c1.09 0 2.116-.603 2.116-1.897 0-1.282-1.251-1.897-2.33-1.898s-2.33.615-2.33 1.898c0 1.294 1.026 1.897 2.116 1.897v2.86l.003 2.593-.001.292-.001.441c0 .294-.035.558-.33.759a.52.52 0 0 1-.479.058l-.062-.025-.05-.043c-.476-.42-1.045-1.114-1.045-1.988q0-.11.013-.219a1.8 1.8 0 0 1-1.13-.481c-.341-.32-.527-.727-.527-1.14q-.001-.158.037-.312c.054-.231.218-.589.656-.896-1.196-.665-1.731-1.845-1.918-2.855-.47.627-1.133 1.41-1.8 1.848.271.254.459.574.459.891a.7.7 0 0 1-.02.173c-.113.491-.622.755-1.507.793.479.571.926 1.329 1.079 1.986a2.48 2.48 0 0 1 1.798.302c.541.335.868.846.962 1.473.739-.231 1.543-.009 2.207.364.872.493 1.54 1.732 1.657 2.985l.217.082.221-.088c.157-1.249.806-2.537 1.732-3.061a2.83 2.83 0 0 1 2.125-.277c.09-.63.419-1.143.962-1.478a2.5 2.5 0 0 1 1.799-.302c.152-.657.599-1.415 1.079-1.986-.885-.038-1.395-.302-1.508-.793a1 1 0 0 1-.019-.173c0-.317.189-.637.46-.891-.667-.438-1.331-1.221-1.8-1.848-.187 1.009-.723 2.19-1.918 2.855.438.307.602.665.656.896q.037.154.036.312c0 .413-.186.821-.528 1.14a1.8 1.8 0 0 1-1.129.481q.01.11.011.219c0 .874-.568 1.567-1.043 1.988l-.057.043-.062.025a.52.52 0 0 1-.479-.058c-.296-.202-.33-.465-.33-.759l-.001-.451-.001-.413.003-3.592v-1.732z" fill="#779221"/><path d="m62.512 54.66-.155.001-.073-.001c-.078 2.546-.416 2.981-.416 2.981l.66.855.658-.853s-.348-.436-.434-2.983z" fill="#876140"/><path d="M65.516 53.418s.227-.043.479-.127c-.815-.546-1.552-1.776-1.552-1.776s.443-.008.749-.093c-.533-.52-1.39-1.776-1.39-1.776l.481-.063c-.245-.28-.841-1.258-.841-1.258l.418-.025c-.699-.655-1.015-1.376-1.015-1.376s.151.017.25-.019a4 4 0 0 1-.579-.783 4 4 0 0 1-.579.783c.098.035.25.019.25.019s-.316.722-1.015 1.376l.418.025-.841 1.258.481.063s-.857 1.257-1.39 1.776c.306.085.749.093.749.093s-.737 1.23-1.552 1.776a4.14 4.14 0 0 0 .479.127s-.152.175-.423.354c.557.141 1.062.014 1.062.014l-.253.288c.512.082 1.553.213 2.613.2 1.06.013 2.101-.118 2.613-.2l-.253-.288s.506.127 1.062-.014c-.269-.179-.421-.354-.421-.354" fill="#779221"/><circle cx="49.432" cy="63.866" r=".443" fill="#b90e31"/><path d="M51.555 68.711c-.422.334-.639.781-.752 1.163l-.002.003c-.098.372-.424.457-.774.724-.217-.293-.258-.526-.266-.861-.008-.344.046-.596.173-.955a1.15 1.15 0 0 1-.233-.598c-.01-.154.044-.309.124-.498a1.3 1.3 0 0 1-.116-.521 4 4 0 0 1-.257.012c.009.229-.005.555-.157.842.078.178.136.352.129.559-.008.244-.045.337-.182.56.15.297.232.612.241.842.008.21 0 .686-.135.915-.35-.345-.848-.733-.99-1.071l-.002-.003c-.139-.39-.357-.818-.699-1.133-.84-.773-1.764-.739-1.764-.739s-.22 1.645.631 2.436c.447.416 1.157.482 1.617.475h.001c.565.056 1.098.338 1.3.721l.018.059c.107.345-.008.597-.17.865.401.408.548.981.933 1.921l.357-.46c-.193-.426-.293-.881-.293-1.188 0-.142.02-.267.049-.382-.27-.252-.408-.476-.467-.795-.047-.826.838-.906 1.215-.929l.01-.002a4 4 0 0 0 1.553-.39c1.066-.498 1.209-2.217 1.209-2.217s-1.539.043-2.301.645" fill="#779221"/><use href="#A" width="7.281" height="5.335" x="-3.641" y="-2.668" transform="matrix(1 0 0 -1 39.797 39.725)"/><use href="#A" width="7.281" height="5.335" x="-3.641" y="-2.668" transform="matrix(1 0 0 -1 62.515 39.725)"/><use href="#A" width="7.281" height="5.335" x="-3.641" y="-2.668" transform="matrix(1 0 0 -1 85.233 39.725)"/><use href="#A" width="7.281" height="5.335" x="-3.641" y="-2.668" transform="matrix(1 0 0 -1 85.233 64.42)"/><use href="#A" width="7.281" height="5.335" x="-3.641" y="-2.668" transform="matrix(1 0 0 -1 80.099 86.838)"/><use href="#A" width="7.281" height="5.335" x="-3.641" y="-2.668" transform="matrix(1 0 0 -1 62.515 100.105)"/><use href="#A" width="7.281" height="5.335" x="-3.641" y="-2.668" transform="matrix(1 0 0 -1 44.93 86.838)"/><use href="#A" width="7.281" height="5.335" x="-3.641" y="-2.668" transform="matrix(1 0 0 -1 39.797 64.42)"/></svg>