<svg xmlns="http://www.w3.org/2000/svg" viewBox="0 0 500 140" xmlns:v="https://vecta.io/nano"><path d="M145.7 28.5l-1-2.1h17.2c13.2 0 22.2 7.1 22.2 20.9 0 13.7-9 21-22.2 21h-16.2zm10.4 6.4v25h5.9c7.1 0 11.6-4.1 11.6-12.6s-4.5-12.4-11.6-12.4zm57.2 24.9h-15.8l-2.9 8.6H184L199.3 28l-.7-1.5h12.6L227 68.3h-10.7zm-2.7-8l-5.1-14.9-5.2 14.9zm20.6-23.3l-1-2.1h11.4v33.4h19.6v8.4h-30zm35.4 0l-1-2.1H277V43h17V28.5l-1-2.1h11.4v41.9H294V51.4h-17v16.9h-10.3V28.5zm65.6-2.7c11.9 0 21.7 8.3 21.7 21.5s-9.8 21.6-21.7 21.6c-11.8 0-21.7-8.4-21.7-21.6s9.8-21.5 21.7-21.5m0 34.3c6.8 0 11.1-5.5 11.1-12.7 0-7.3-4.3-12.7-11.1-12.7S321 40.1 321 47.3c0 7.3 4.4 12.8 11.2 12.8m55-31.6l-1.1-2.1h11.4V51c0 11.5-7.3 18-18.8 18S360 62.5 360 51V28.5l-1.1-2.1h11.4v24.8c0 5.5 3.1 8.9 8.4 8.9s8.5-3.4 8.5-8.9zm17.3 28.9c5.3 2.1 11.1 3.2 15.4 3.2 4.4 0 7.2-1.5 7.2-4.2 0-2.8-3.2-4-8.4-4.9-8.3-1.3-14.8-4.7-14.8-12.6 0-8.5 7.9-13 17.7-13 5.1 0 9.7.8 14.5 2.4v9c-5.2-1.9-10.2-3-14.4-3-4.3 0-7.3 1.5-7.3 4.2 0 2.8 3.2 3.9 8.5 4.7 8.3 1.3 14.7 4.8 14.7 12.7 0 8.5-7.4 13-17.4 13-5.5 0-10.9-1-15.7-2.6zm40.6-28.8l-1.1-2.1h11.4v41.9h-10.3zm19.3 0l-1.1-2.1h32.4v8.4h-21v8.4h17.9v8h-17.9v8.6h21v8.4h-31.3zM170.5 100c0 2.6-.4 4.8-1.3 6.6s-2.2 3.2-4 4.1-4.2 1.4-7.1 1.4-5.3-.5-7.1-1.4c-1.8-1-3.1-2.4-4-4.3q-1.2-2.85-1.2-6.9V77.9h4.5v22.3c0 2.7.7 4.8 2 6.1 1.4 1.4 3.3 2 5.8 2 1.7 0 3.1-.3 4.3-.9q1.8-.9 2.7-2.7c.6-1.2.9-2.7.9-4.6V77.9h4.3V100zm39.3-22.1h4.3v33.8h-3.9L192.1 85v26.6h-4.3V77.9h4.1l17.8 26.3V77.9zm23.4 0h4.3v33.8h-4.3zm48.1 0l-12 33.8h-5.2l-11.8-33.8h4.3l10.1 28.9L277 77.9zm12.9 33.8V77.9h21.3v3.8h-16.9v11h15.3v3.8h-15.3v11.3H316v3.9zm62.4 0H352l-6.2-14.6h-9.1v14.6h-4.3V77.9h13.1c2.4 0 4.5.4 6.1 1.1s2.9 1.8 3.7 3.2 1.2 3 1.2 4.9c0 1.8-.3 3.4-1 4.6a7.88 7.88 0 0 1-2.5 2.9c-1 .7-2 1.3-3.1 1.7zm-12.5-18.2c2.5 0 4.5-.5 5.9-1.6 1.4-1 2.1-2.6 2.1-4.6s-.6-3.5-1.9-4.5q-1.8-1.5-5.1-1.5h-8.4v12.1h7.4zm40.6 18.6a17.59 17.59 0 0 1-4.6-.6c-1.5-.4-2.9-1-4.1-1.8q-1.8-1.2-3-3c-.8-1.2-1.3-2.5-1.5-4.1h4.5c.3 1.3.8 2.4 1.7 3.2.8.9 1.9 1.5 3.1 2 1.2.4 2.5.7 3.9.7 1.6 0 3-.2 4.3-.7 1.3-.4 2.2-1.1 3-1.9.7-.8 1.1-1.8 1.1-3 0-1-.2-1.9-.7-2.6s-1.1-1.4-2-1.9-1.9-.9-3.2-1.2l-6.6-1.5c-2.5-.5-4.4-1.5-5.9-2.9-1.4-1.4-2.1-3.3-2.2-5.6 0-1.9.5-3.7 1.6-5.1 1-1.5 2.5-2.6 4.3-3.5 1.8-.8 3.9-1.2 6.2-1.2 2.7 0 5 .5 6.8 1.4q2.7 1.35 4.2 3.6c.9 1.5 1.4 3.1 1.4 4.8h-4.5c-.1-1.5-.6-2.7-1.3-3.6-.8-.9-1.7-1.5-2.8-1.9s-2.4-.6-3.7-.6c-1 0-1.9.1-2.8.4-.9.2-1.7.6-2.4 1.1s-1.3 1.1-1.7 1.8-.6 1.5-.6 2.5q0 1.8 1.2 3c.8.8 2.3 1.4 4.5 2l6.4 1.5c1.7.4 3.1.9 4.1 1.6 1.1.7 1.9 1.5 2.5 2.4s1 1.8 1.2 2.8.3 1.9.3 2.9c0 1.7-.5 3.2-1.5 4.6s-2.5 2.5-4.4 3.3c-1.8.7-4.1 1.1-6.8 1.1M414 77.9h4.3v33.8H414zm19.1 4v-4h25.6v4h-10.3v29.8H444V81.9zm63.7-4l-11.4 19.4v14.4h-4.3V97.3l-11.5-19.4h4.7l9 15.5 8.8-15.5zM104.9 34c-.1 0-6.1 1.9-13.7-.1-.7-.2-1.2-.8-1.1-1.5v-.1c.1-.9.9-1.5 1.8-1.4 1.6.3 3.1.5 4.6.6 1.8.1 3.4.1 4.9-.1 3.9-.3 6.3-4.3 4.9-8-.1 0-8.3 3.2-17.9-.7-2.2-.9-8.6-3.7-8.6-3.7-1.4-.6-3 .2-3.2 1.7v12.5c0 2.1-.5 3.9-1.3 5.5-.3.6-.7 1.2-1.1 1.8-.2.3-.4.5-.7.8-1.9 2.1-4.6 3.5-7.7 4.2l-1.7 2.9c-.2.3-.4.5-.7.6s-.6.2-.9.2c-.4 0-.9-.1-1.2-.5-.1-.1-.2-.2-.3-.4l-1.7-2.9c-4.2-1-7.7-3.3-9.5-6.8-.8-1.6-1.3-3.4-1.3-5.5V20.8c-.2-1.5-1.9-2.3-3.2-1.7l-8.6 3.7c-9.6 3.9-17.8.7-17.9.7-1.4 3.6 1 7.6 4.9 8 1.5.1 3.1.2 4.9.1 1.4-.1 3-.3 4.6-.6.9-.2 1.7.5 1.8 1.4v.1c0 .7-.4 1.4-1.1 1.5-7.6 2-13.6.1-13.7.1-1.2 3.7 1.4 7.6 5.3 7.7 1.5.1 3.1 0 4.9-.2 1.4-.1 2.8-.4 4.3-.7.8-.2 1.6.3 1.8 1.1s-.3 1.5-1 1.8c-7 2.2-12.6 1-12.7 1-.9 3.8 2.1 7.4 5.9 7.2q2.25-.15 4.8-.6c1.2-.2 2.5-.6 3.9-1 .8-.2 1.6.2 1.8.9 0 .1 0 .1.1.2.3.7-.1 1.5-.8 1.9-5.8 2.8-10.7 2.8-10.7 2.8 0 3.8 3.7 6.8 7.4 5.8 1.4-.4 3-.9 4.6-1.6.6-.3 1.2-.5 1.9-.9.7-.3 1.5-.1 1.9.5l.1.1c.5.7.3 1.6-.4 2.1-4.2 2.8-7.9 3.6-7.9 3.6a5.83 5.83 0 0 0 8.4 4.1c1.3-.7 2.7-1.5 4.2-2.5 0 0 .1 0 .1-.1.6-.4 1.4-.4 1.9.2l.2.2c.5.5.6 1.4.1 2-2.8 3.4-5.4 5-5.5 5 2 3.4 6.6 3.9 9.3 1.1.4-.5.9-1 1.4-1.5 1.2 2.1 2.1 4.7 2.7 8.2l.3 2.1c-6.1 6.6-13.4 8-13.5 8 .7 3.8 4.8 6 8.3 4.3 1.3-.6 2.7-1.5 4.2-2.4.6-.4 1.1-.8 1.7-1.2l.2 3.9c-3.8 3-7.2 4.1-7.3 4.1l.4 1.4c.9 2.9 4.2 4.3 6.9 2.8.1-.1.2-.1.4-.2v5.6c0 1 .5 1.9 1.3 2.7l1.5 1.4 1.5-1.4c.8-.8 1.3-1.7 1.3-2.7v-5.6c.1.1.2.2.4.2 2.6 1.5 6 .1 6.9-2.8l.4-1.4c-.1 0-3.4-1.1-7.3-4.1l.2-3.9c.6.4 1.1.9 1.7 1.2q2.25 1.5 4.2 2.4c3.5 1.7 7.6-.5 8.3-4.3-.1 0-7.3-1.4-13.5-8l.3-2.1c.5-3.4 1.5-6 2.7-8.2.5.5.9 1.1 1.4 1.5 2.7 2.8 7.3 2.3 9.3-1.1 0 0-2.7-1.6-5.5-5-.5-.6-.5-1.5.1-2l.2-.2c.5-.5 1.3-.6 1.9-.2 0 0 .1 0 .1.1 1.4 1 2.9 1.9 4.2 2.5a5.83 5.83 0 0 0 8.4-4.1c-.1 0-3.7-.8-7.9-3.6-.7-.5-.9-1.4-.4-2.1l.1-.1c.4-.6 1.2-.8 1.9-.5.6.3 1.3.6 1.9.9 1.6.7 3.2 1.2 4.6 1.6 3.8 1 7.4-2 7.3-5.8-.1 0-5 0-10.7-2.8-.7-.3-1-1.1-.8-1.9 0-.1 0-.1.1-.2.3-.7 1.1-1.1 1.8-.9 1.3.4 2.6.7 3.9 1 1.7.3 3.4.5 4.8.6 3.9.2 6.8-3.4 5.9-7.2-.1 0-5.7 1.2-12.7-1-.7-.2-1.2-1-1-1.8s1-1.3 1.8-1.1c1.5.3 3 .6 4.3.7 1.8.2 3.4.2 4.9.2 3.9-.2 6.6-4.1 5.3-7.8M71.5 20H61c-1.4 0-2.6.9-3.1 2.2h-2a4.23 4.23 0 0 0-4.2 4.2v4.9c.5-1.1 1.6-1.9 2.9-1.9h3.7L56 38.8c-.2.6.2 1.1.7 1.1 1.8 0 2.5-.3 3.9-1.6l1.5 4.2c.1.2.2.3.4.3s.3-.1.4-.3l1.5-4.2c1.3 1.3 2.1 1.6 3.9 1.6.6 0 .9-.6.7-1.1l-1.2-9.4h.2a4.23 4.23 0 0 0 4.2-4.2v-.1c.9-.6 1.5-1.6 1.5-2.7v-3.8c-.3.8-1.2 1.4-2.2 1.4m-9 4.7c-.3.2-.7.1-1-.1l-.6-.6c-.3-.3-.3-.8 0-1.2l.6-.6c.3-.3.7-.3 1-.1l2.3 1.3z" fill="#242424"/><path d="M117.1 49.3c0 38-44.7 74.4-54.7 82-10-7.6-54.7-43.9-54.7-82V7.1H117v42.2zM1 .3v48.9c0 19.5 10.1 40.4 29.9 62.2 14.6 16 29 26.3 29.6 26.8l2 1.4 2-1.4c.6-.4 15-10.7 29.6-26.8C113.9 89.6 124 68.7 124 49.2V.3z" fill="#ffd400"/></svg>