<svg xmlns="http://www.w3.org/2000/svg" viewBox="0 0 123.4 152" xmlns:v="https://vecta.io/nano"><path d="M60.8 140.8c-70-27.3-48.2-120.3-48.2-120.3 12.6-6.6 41.3-9 48.2-9s35.5 2.4 48.2 9c-.1 0 21.7 93.1-48.2 120.3" fill="#fff"/><path d="M111.9 19.9l-.3-1.3-1.2-.6C97 11 67.6 8.6 60.8 8.6c-6.7 0-36.2 2.3-49.6 9.4l-1.2.5-.3 1.3c-.2 1-5.5 24.1-2.2 51 2 15.9 6.6 29.8 13.7 41.3 9 14.5 21.9 25.1 38.5 31.5l1.1.4 1.1-.4c16.6-6.5 29.5-17.1 38.5-31.5 7.1-11.5 11.7-25.4 13.7-41.3 3.3-26.9-2-50-2.2-50.9M60.8 140.8c-70-27.3-48.2-120.3-48.2-120.3 12.6-6.6 41.3-9 48.2-9s35.5 2.4 48.2 9c-.1 0 21.7 93.1-48.2 120.3M16.9 89.1c3.1 10.2 7.9 20.1 15.4 28.7L26.6 86c-4.3 1.2-7.6 2.3-9.7 3.1m29.6-25.3l9.4-48.6c-7.1.6-18.9 1.8-28.8 4.2l7.8 46.2c3.9-.8 7.8-1.4 11.6-1.8M44 37.6c0 1.2.3 2.2.5 2.4 0 0-1.3.9-1.7 1.3s-2.1 2.4-2.1 2.4-1.7-2-2.1-2.4-1.7-1.3-1.7-1.3c.3-.1.5-1.1.5-2.4 0-1.5-.9-2.8-2.1-2.8-1.8 0-2.1 1.2-2.1 1.2s-1.7-1.6-1.7-3.1c0-3.4 1.9-3.2 2.7-3.2 1.9 0 4.4 2.9 4.4 2.9a26.16 26.16 0 0 1-.9-2.1c-.1-.1-.1-.3-.2-.5-.3-.7-.6-1.8-.1-3.2.4-1.3 1.3-1.9 2.1-2.8.8-1 1.1-1.3 1.1-1.3s.3.3 1.1 1.3c.8.9 1.7 1.5 2.1 2.8.5 1.4.2 2.5-.1 3.2-.1.2-.1.4-.2.5-.1.4-.6 1.5-.9 2.1 0 0 2.5-2.9 4.4-2.9.8 0 2.7-.2 2.7 3.2 0 1.5-1.7 3.1-1.7 3.1s-.2-1.2-2.1-1.2c-1 0-1.9 1.3-1.9 2.8M24.5 73.7c1.7-.5 3.5-.9 5.2-1.3l.4-.1c.7-.2 1.5-.3 2.2-.5h.1c.2 0 .4-.1.6-.1 1.1-.2 1.9-.4 2.8-.6h.1c3.2-.6 6.4-1.1 9.4-1.5l.1-.4.8-3.9c-3.6.4-7.4 1-11.1 1.7-3.8.7-7.7 1.6-11.5 2.6-3.5.9-7 2-10.2 3.1.1.8.3 2.3.6 4.1 3.2-1.1 6.8-2.1 10.3-3.1zm13.4 9.6l2.3 13.6 2.7-14.4c-1.6.2-3.2.5-5 .8M28 78.7h.1c.9-.2 1.8-.5 2.6-.7h.2l2.8-.6h.2l2.9-.6c2.6-.5 5.1-1 7.5-1.3h.1l.8-4.2c-2.9.4-6 .9-9 1.5l-3 .6H33l-2.7.6h-.2c-1.8.4-3.6.9-5.4 1.3-3.4.9-6.7 1.9-10.3 3.1.1.7.3 1.5.5 2.3 0 .2.1.4.1.6.1.5.2 1 .4 1.5 3.2-1.1 6.7-2.3 10.2-3.2.7-.5 1.5-.7 2.4-.9m6.2 0l-.3.1c-2.7.6-5.5 1.3-8.2 2.1-3.5 1-6.9 2.1-10.1 3.2.3 1.2.6 2.4 1 3.6 0 0 .1 0 .1-.1 5.8-2.1 15.1-5 26.6-6.7l.8-4.1c-2.3.3-4.8.8-7.2 1.3q-1.5.3-2.7.6M23.4 68.2l-8.1-44.8h-.1s-5.2 22.3-2 47.8c3.2-1 6.6-2.1 10.2-3M63.5 63l-2.7-13.6L58.1 63zm1.2 5.7c-.1-.6-.8-3.6-.9-4.2h-6c-.1.6-.8 3.6-.9 4.2 1.4 0 2.7-.1 3.9-.1s2.5 0 3.9.1m-3.9 5.4c1.5 0 3.1 0 5 .1l-.8-4.1h-.1c-1.6-.1-2.9-.1-4.1-.1s-2.6 0-4.1.1h-.1l-.8 4.1c1.9-.1 3.5-.1 5-.1m6.1 5.7l-.8-4.1H66c-2-.1-3.7-.1-5.2-.1-1.6 0-3.3 0-5.3.2l-.8 4.1c2.2-.1 4.2-.2 6.1-.2 1.9-.1 3.9 0 6.1.1m.3 1.5l-6.4-.2c-2 0-4.1.1-6.4.2L44.8 129c4.7 3.3 10 6.1 16 8.5 6-2.4 11.3-5.2 16-8.5zm-9.8 43c-1.7 0-6-1.7-6.3-8.3-.2-4.9 1.2-6.2 1.2-6.2l2.6 4.8c0 6.9 4.9 7 4.9 7 0 2.8-2.4 2.7-2.4 2.7m3.9 1.9h-1.2v-7.1c-.7-.3-2.1-1-2.1-3.7 0-3.2-.4-5.3-.8-6.8s-3-3.1-3-3.1c2.6-2.9 4.8 1 4.7.5-.2-.9.3-2.5.6-3.2.3-.8 1.1-1.8 1.1-1.8s.8 1 1.1 1.8.8 2.4.6 3.2c-.1.5 2.2-3.4 4.7-.5 0 0-2.5 1.6-3 3.1-.4 1.5-.8 3.6-.8 6.8 0 2.9-1.6 3.5-2.2 3.7v7.1zm9.2-10.2c-.3 6.7-4.6 8.3-6.3 8.3 0 0-2.4.1-2.4-2.7 0 0 4.9-.1 4.9-7l2.6-4.8s1.4 1.3 1.2 6.2M97 75.2c-1.8-.5-3.6-.9-5.3-1.3l-.2-.1c-.8-.2-1.6-.4-2.5-.5l-.5-.1-2.8-.6a156.6 156.6 0 0 0-9.1-1.5h-.1l.8 4.3h.1c2.4.3 4.8.8 7.3 1.3h.1c3.8.8 7.6 1.7 11.4 2.8 3.4 1 6.7 2 9.9 3.2l.2.1c.3-1.5.7-2.9.9-4.4l-.2-.1c-3.1-1.2-6.5-2.2-10-3.1m-1 5.6c-.8-.2-1.7-.5-2.6-.7h-.1c-.9-.2-1.8-.5-2.7-.7-2-.5-3.9-.9-5.9-1.3a95.75 95.75 0 0 0-7.1-1.2h-.1l.9 4.1c1.7.2 3.4.5 5.4.9h.1c.3.1.6.1.9.2l.8.1c.2 0 .3.1.5.1.9.2 1.9.4 2.9.7.3.1.5.1.8.2 1.1.2 2 .5 2.8.7.1 0 .2.1.3.1.7.2 1.4.4 2 .5l.5.1c3.3.9 6.5 2 9.4 3.1.1 0 .2.1.2.1.4-1.2.7-2.5 1-3.7l-.2-.1c-3.1-1.2-6.4-2.2-9.8-3.2m-17.3 1.7l2.7 14.4 2.3-13.6c-1.7-.3-3.3-.6-5-.8M95.1 86l-5.8 31.8c7.4-8.6 12.3-18.5 15.4-28.6-3.1-1.2-6.3-2.2-9.6-3.2m13.3-14.7c3.3-25.5-2-47.9-2-47.9l-8.1 44.8c3.5 1 6.9 2 10.1 3.1m-21.6-5.7l7.8-46.2c-9.9-2.4-21.7-3.6-28.8-4.1l9.4 48.6c3.7.4 7.6 1 11.6 1.7M74.2 35.1l1.7-1-4.2-2.4.7-.2-1.6-3 3.4-.1-.1-.7 4.2 2.5v-4.9l.6.5 1.7-2.9 1.7 2.9.6-.5v4.9l4.2-2.5-.1.7 3.4.1-1.7 3 .7.2-4.2 2.4 1.7 1-.7.2 1.6 3-3.4.1.1.7-3.2-1.9v6.3h-1.5v-6.3l-3.2 1.9.1-.7-3.4-.1 1.7-3zM98 69.7l-2.5-.6-.3-.1c-2.9-.7-5.8-1.4-8.7-1.9-3.8-.7-7.5-1.3-11.1-1.7l.7 4.3a169.47 169.47 0 0 1 9.5 1.5h.1l2.8.6.5.1c1 .2 1.8.4 2.6.6h.1c.8.2 1.6.4 2.6.6l.7.2c.6.2 1.3.3 1.9.5h.4c3.5.9 6.9 1.9 10.1 3h.1l.6-4h-.1c-3.1-1.2-6.5-2.2-10-3.1" fill="#005596"/><g fill="#ffcf01"><path d="M63.5 63H58l-.3 1.4h6c.1.1-.2-1.4-.2-1.4m-17 .8c-3.7.4-7.6 1-11.6 1.8-3.9.7-7.7 1.6-11.5 2.6-3.5.9-6.9 2-10.2 3.1v.1c.1.4.1.8.2 1.2v.1c3.2-1.1 6.7-2.1 10.2-3.1 3.8-1 7.6-1.9 11.5-2.6 3.8-.7 7.5-1.3 11.1-1.7z"/><path d="M13.2 71.4l.1 1.2c0-.4 0-.8-.1-1.2m85.1-3.1c-3.8-1-7.7-1.9-11.5-2.7-3.9-.8-7.8-1.4-11.6-1.8v.1l.2 1.2v.1c3.6.4 7.3 1 11.1 1.7l8.7 1.9.3.1c.9.2 1.7.4 2.5.6 3.5.9 6.9 2 10.1 3.1h.1c0-.2.1-.4.1-.6s.1-.5.1-.7v-.1a205.69 205.69 0 0 0-10.1-2.9M43.2 80.9c-11.4 1.7-20.8 4.6-26.6 6.7-.1 0-.1 0-.1.1l.4 1.4c2-.8 5.4-1.9 9.6-3.1 3.7-1 7.5-1.9 11.3-2.7l5-.9zm61.7 6.8c-3-1.1-6.1-2.1-9.4-3.1l-.5-.1c-.7-.2-1.3-.4-2-.5-.1 0-.2-.1-.3-.1-.8-.2-1.8-.4-2.8-.7-.4-.1-.6-.2-.9-.2l-2.9-.6c-.2 0-.3-.1-.5-.1l-.8-.1c-.2-.2-.5-.2-.8-.3h-.1c-2-.4-3.7-.7-5.4-.9v.1l.2 1.2v.1c1.6.2 3.3.5 5 .9 3.8.7 7.6 1.6 11.3 2.7 3.3.9 6.5 2 9.6 3.1V89c.1-.4.2-.8.3-1.1zq.15 0 0 0m-.2 1.3l.3-1.1c-.1.4-.2.7-.3 1.1m-37.8-9.2c-2.2-.1-4.2-.2-6.2-.2-1.9 0-3.8.1-6.1.2l-.3 1.5c2.3-.1 4.3-.2 6.4-.2 2 0 4.1.1 6.4.2zm0 .1l.2 1.2zm-2.2-11.2c-1.4 0-2.7-.1-3.9-.1s-2.5 0-3.9.1c0 .1-.3 1.4-.3 1.4h.1c1.6-.1 2.9-.1 4.1-.1s2.5 0 4.1.1h.1zm-19.3.9c-3 .4-6.2.9-9.4 1.5h-.1c-.8.2-1.7.3-2.8.6-.2 0-.4.1-.6.1h-.1c-.8.2-1.5.3-2.2.5l-.4.1c-1.7.4-3.5.8-5.2 1.3h-.1a138.76 138.76 0 0 0-10.3 3.1v.1c.1.4.1.8.2 1.2v.2c3.6-1.2 7-2.2 10.3-3.1 1.8-.5 3.6-.9 5.4-1.3h.2l2.7-.6h.2l3-.6q4.65-.9 9-1.5v-.1l.2-1.2zm0 .1l-.3 1.3zM14 76.9c.1.4.1.8.2 1.2 0-.4-.1-.8-.2-1.2m93.5-.1c-3.2-1.1-6.6-2.1-10.1-3H97c-.6-.2-1.3-.3-1.9-.5l-.6-.3c-1-.2-1.8-.4-2.6-.6h-.1c-.8-.2-1.6-.4-2.6-.6l-.5-.1-2.8-.6h-.1a169.47 169.47 0 0 0-9.5-1.5v.1l.2 1.2v.1h.1a156.6 156.6 0 0 1 9.1 1.5l2.8.6.5.1c.8.2 1.7.4 2.5.5l.2.1c1.8.4 3.6.9 5.3 1.3q5.25 1.35 10.2 3l.2.1v-.1c.1-.4.1-.8.1-1.3"/><path d="M107.4 78.1l.2-1.2c-.1.4-.2.8-.2 1.2m-41.6-3.9l-5-.1-5 .1v.1l-.2 1.2v.1l5.3-.2 5.2.1h.1zm-21.6 1.1l-7.5 1.3-2.9.6h-.2l-2.8.6h-.2l-2.6.7h-.1l-2.6.7c-3.5 1-7 2.1-10.2 3.2l.3 1.2v.2c3.2-1.2 6.6-2.2 10.1-3.2 2.7-.8 5.5-1.5 8.2-2.1l.3-.1c.8-.2 1.7-.4 2.6-.6 2.4-.5 4.9-.9 7.2-1.3.2.3.5-1.2.4-1.2m-28.7 8.5q0 .15 0 0 0 .15 0 0m90.7-1.2c-3.2-1.1-6.5-2.2-9.9-3.2-3.8-1.1-7.6-2-11.4-2.8h-.1c-2.5-.5-4.9-.9-7.3-1.3h-.1v.1l.2 1.2v.1h.1c2.3.3 4.7.8 7.1 1.2 2 .4 4 .8 5.9 1.3.9.2 1.8.5 2.7.7h.1c.9.2 1.8.5 2.6.7 3.3.9 6.7 2 9.8 3.1l.2.1v-.1l.3-1.2v-.1zM48.2 36s1.7-1.6 1.7-3.1c0-3.4-1.9-3.2-2.7-3.2-1.9 0-4.4 2.9-4.4 2.9a26.16 26.16 0 0 0 .9-2.1c.1-.1.1-.3.2-.5.3-.7.6-1.8.1-3.2-.4-1.3-1.3-1.9-2.1-2.8-.8-1-1.1-1.3-1.1-1.3s-.3.3-1.1 1.3c-.8.9-1.7 1.5-2.1 2.8-.5 1.4-.2 2.5.1 3.2.1.2.2.4.2.5.1.4.6 1.5.9 2.1 0 0-2.5-2.9-4.4-2.9-.8 0-2.7-.2-2.7 3.2 0 1.5 1.7 3.1 1.7 3.1s.2-1.2 2.1-1.2c1.2 0 2.1 1.3 2.1 2.8 0 1.2-.2 2.2-.5 2.4 0 0 1.3.9 1.7 1.3s2.1 2.4 2.1 2.4l2.1-2.4c.4-.4 1.7-1.3 1.7-1.3-.3-.1-.5-1.1-.5-2.4 0-1.5.9-2.8 2.1-2.8 1.6 0 1.9 1.2 1.9 1.2m13.6 85.6c0 2.8 2.4 2.7 2.4 2.7 1.7 0 6-1.7 6.3-8.3.2-4.9-1.2-6.2-1.2-6.2l-2.6 4.8c0 6.9-4.9 7-4.9 7m-7-7l-2.6-4.8s-1.4 1.3-1.2 6.2c.3 6.7 4.6 8.3 6.3 8.3 0 0 2.4.1 2.4-2.7.1 0-4.9-.1-4.9-7"/><path d="M63.5 115.5c0-3.2.4-5.3.8-6.8s3-3.1 3-3.1c-2.6-2.9-4.8 1-4.7.5.2-.9-.3-2.5-.6-3.2-.3-.8-1.1-1.8-1.1-1.8s-.8 1-1.1 1.8-.8 2.4-.6 3.2c.1.5-2.2-3.4-4.7-.5 0 0 2.5 1.6 3 3.1.4 1.5.8 3.6.8 6.8 0 2.7 1.4 3.4 2.1 3.7v7.1h1.2v-7c.3-.3 1.9-1 1.9-3.8m13.2-77.2-.1.8 3.2-1.9v6.3h1.5v-6.3l3.3 1.9-.2-.8h3.4l-1.6-3 .7-.2-1.7-1 4.1-2.4-.6-.3 1.6-2.9-3.4-.1.1-.7-4.2 2.4v-4.9l-.6.5-1.6-2.9-1.7 2.9-.6-.5v4.9l-4.2-2.4.1.7-3.4.1 1.7 2.9-.7.3 4.1 2.4-1.7 1 .7.2-1.6 3z"/></g></svg>