<?xml version="1.0" encoding="utf-8"?>
<!-- Generator: Adobe Illustrator 28.3.0, SVG Export Plug-In . SVG Version: 6.00 Build 0)  -->
<svg version="1.1" id="Layer_1" xmlns="http://www.w3.org/2000/svg" xmlns:xlink="http://www.w3.org/1999/xlink" x="0px" y="0px"
	 viewBox="0 0 1080 1080" style="enable-background:new 0 0 1080 1080;" xml:space="preserve">
<style type="text/css">
	.st0{fill:#7367F0;}
</style>
<g>
	<g>
		<g>
			<path class="st0" d="M158.92,686.94c-5.56-12.96-15.74-51.86-16.67-62.97c1.85-0.93,3.7-1.85,5.56-2.78
				c29.63-13.89,47.23-37.04,52.78-68.53c7.41-46.3-20.37-80.56-50.93-94.45c-1.85-0.93-4.63-1.85-7.41-2.78c0-1.85,0-4.63,0-6.48
				c4.63-21.3,10.19-42.6,17.59-62.97c0.93-1.85,0.93-2.78,1.85-4.63c18.52,12.04,37.97,16.67,59.27,9.26
				c17.59-5.56,29.63-15.74,38.89-32.41c9.26-17.59,11.11-36.12,3.7-55.56c-6.48-18.52-20.37-30.56-37.97-38.89
				c7.41-12.96,42.6-51.86,53.71-59.27c0.93,1.85,2.78,3.7,3.7,6.48c9.26,15.74,24.08,25,42.6,25.93
				c28.71,1.85,51.86-19.45,54.64-46.3c1.85-16.67-2.78-31.48-14.82-43.52c-0.93-0.93-1.85-1.85-3.7-3.7c0,0,0,0,0-0.93
				c12.96-11.11,69.45-36.12,105.57-46.3c64.82-18.52,129.64-23.15,196.32-12.96c70.38,10.19,134.27,36.12,193.54,75.93
				c175.02,120.38,243.55,338,175.02,533.39c-71.3,201.87-257.44,304.66-418.56,307.44c0-1.85-0.93-3.7-0.93-5.56
				c0-45.38,0-90.75,0-136.13c0-1.85,0-2.78,0-5.56c4.63-0.93,8.33-1.85,12.96-1.85c65.75-6.48,125.01-29.63,177.8-67.6
				c4.63-2.78,8.33-6.48,12.96-10.19c3.7-2.78,5.56-7.41,8.33-11.11c1.85-2.78,2.78-5.56,2.78-9.26c0-9.26-8.33-13.89-16.67-9.26
				c-2.78,1.85-5.56,4.63-8.33,6.48c-25.93,23.15-55.56,41.67-87.97,55.56c-24.08,10.19-49.08,16.67-75.01,19.45
				c-13.89,1.85-27.78,2.78-41.67,2.78c-52.78-0.93-100.94-13.89-146.31-41.67c-76.86-47.23-127.79-113.9-153.72-200.02
				c-3.7-13.89-7.41-27.78-10.19-41.67c-0.93-3.7-1.85-8.33-3.7-11.11c-3.7-7.41-12.96-7.41-17.59,0c-1.85,3.7-2.78,7.41-1.85,12.04
				c0.93,8.33,1.85,16.67,2.78,24.08c8.33,49.08,28.71,92.6,58.34,132.42c43.52,58.34,99.08,102.79,166.68,130.57
				c28.71,12.04,57.41,19.45,87.97,22.22c0.93,0,1.85,0.93,2.78,0.93c1.85,2.78,0.93,5.56,0.93,8.33c0,17.59,0,35.19,0,51.86
				c0,25.93,0,51.86,0,77.79c0,2.78,0.93,5.56-0.93,8.33c-13.89,1.85-66.67-4.63-96.31-11.11c-31.48-7.41-62.97-18.52-91.68-32.41
				c-29.63-13.89-56.49-30.56-82.42-50.01c-25.93-19.45-49.08-41.67-70.38-66.67c-3.7,0.93-3.7,3.7-4.63,5.56
				c-5.56,12.04-12.96,24.08-23.15,33.34c-19.45,18.52-41.67,29.63-68.53,32.41c-55.56,6.48-113.9-31.48-123.16-95.38
				c-8.33-61.12,29.63-109.27,77.79-124.09c17.59-5.56,35.19-7.41,53.71-2.78c19.45,54.64,47.23,104.64,84.27,149.09
				c2.78-0.93,2.78-2.78,3.7-4.63c19.45-62.97-15.74-123.16-72.23-141.68C169.11,689.72,163.55,688.8,158.92,686.94z M896.04,511
				c0-7.41,0-17.59,0-26.85c0-3.7,0-8.33-0.93-12.04c-0.93-5.56-6.48-9.26-12.04-8.33c-6.48,0-10.19,3.7-10.19,10.19
				c0,3.7,0,7.41,0,10.19c2.78,27.78,1.85,55.56-3.7,82.42c-24.08,112.05-118.53,200.95-237.99,212.06
				c-12.96,0.93-25-0.93-35.19-9.26c-10.19-8.33-20.37-16.67-29.63-25.93c-4.63-5.56-9.26-10.19-12.96-16.67
				c-5.56-9.26-7.41-19.45-5.56-30.56c0.93-5.56,1.85-11.11,3.7-15.74c1.85-6.48,4.63-12.04,6.48-18.52
				c3.7-9.26,6.48-19.45,7.41-29.63c0.93-20.37-5.56-37.04-19.45-50.01c-2.78-2.78-6.48-4.63-9.26-7.41
				c-3.7-2.78-6.48-5.56-9.26-8.33c-5.56-6.48-5.56-12.96-1.85-20.37c0.93-2.78,2.78-4.63,4.63-7.41c1.85-1.85,3.7-3.7,5.56-6.48
				c8.33-9.26,13.89-20.37,16.67-33.34c1.85-9.26,1.85-19.45,0-29.63c-2.78-16.67-12.96-27.78-28.71-33.34
				c-12.04-3.7-23.15-3.7-35.19-0.93c-16.67,3.7-24.08,12.96-25,30.56c0,5.56,0,10.19,0,15.74c0.93,12.96-2.78,25-10.19,36.12
				c-3.7,4.63-6.48,10.19-10.19,14.82c-4.63,5.56-9.26,11.11-14.82,16.67c-2.78,2.78-5.56,5.56-8.33,7.41
				c-3.7,2.78-7.41,1.85-11.11,0c-4.63-2.78-7.41-6.48-8.33-11.11c-0.93-2.78-0.93-4.63-0.93-7.41c0-10.19,1.85-19.45,5.56-28.71
				c1.85-5.56,3.7-11.11,4.63-16.67c0-6.48-1.85-11.11-7.41-13.89c-4.63-1.85-9.26-3.7-13.89-4.63c-9.26-1.85-18.52-3.7-27.78-4.63
				c-5.56-0.93-11.11-0.93-17.59,0c-12.04,0.93-22.22,6.48-24.08,23.15c-0.93,2.78-0.93,6.48-0.93,9.26
				c0,24.08,1.85,47.23,6.48,71.3c19.45,97.23,89.82,177.8,178.72,212.06c12.04,4.63,23.15,8.33,36.12,11.11
				c8.33,1.85,12.96-1.85,14.82-10.19c0.93-4.63,0-8.33-3.7-10.19c-1.85-1.85-4.63-2.78-7.41-3.7c-6.48-1.85-12.96-3.7-18.52-5.56
				c-41.67-13.89-77.79-37.04-107.42-68.53c-47.23-50.01-72.23-109.27-73.16-178.72c0-4.63,0-8.33,0.93-12.96
				c0.93-5.56,4.63-9.26,10.19-11.11c6.48-1.85,12.96-0.93,19.45,0.93c4.63,0.93,6.48,3.7,6.48,9.26c0,1.85-0.93,4.63-0.93,6.48
				c-0.93,2.78-1.85,6.48-1.85,9.26c-1.85,13.89-1.85,26.85,3.7,39.82c2.78,6.48,6.48,12.96,12.04,17.59
				c5.56,4.63,11.11,6.48,17.59,6.48c5.56,0,10.19-1.85,15.74-3.7c8.33-3.7,15.74-9.26,22.22-15.74
				c13.89-12.96,24.08-27.78,31.48-45.38c5.56-12.96,9.26-26.85,8.33-41.67c0-2.78,0-4.63,0-7.41c0-7.41,3.7-11.11,11.11-12.04
				c3.7,0,6.48,0,10.19,0c11.11,1.85,18.52,8.33,19.45,19.45c0.93,10.19-0.93,20.37-5.56,29.63c-2.78,4.63-6.48,9.26-9.26,13.89
				c-4.63,5.56-8.33,11.11-11.11,17.59c-5.56,12.96-4.63,25,3.7,37.04c3.7,5.56,8.33,10.19,13.89,13.89
				c3.7,2.78,7.41,6.48,10.19,10.19c8.33,9.26,12.96,20.37,12.04,33.34c0,5.56-0.93,11.11-2.78,15.74
				c-2.78,9.26-5.56,18.52-9.26,27.78c-3.7,12.04-4.63,25-1.85,37.04c4.63,23.15,16.67,42.6,32.41,59.27
				c10.19,10.19,22.22,18.52,35.19,24.08c8.33,3.7,17.59,5.56,26.85,4.63c18.52-0.93,37.04-3.7,54.64-7.41
				c92.6-22.22,163.91-86.12,198.17-167.61C888.63,591.56,896.04,552.67,896.04,511z M662.68,450.81c-1.85-0.93-2.78-1.85-3.7-2.78
				c-2.78-3.7-6.48-7.41-8.33-12.04c-4.63-8.33-9.26-17.59-12.96-25.93c-1.85-3.7-2.78-7.41-4.63-11.11
				c-0.93-2.78-0.93-5.56-0.93-9.26c-0.93-7.41,2.78-12.96,8.33-17.59c3.7-2.78,8.33-4.63,12.04-6.48
				c5.56-1.85,11.11-3.7,16.67-5.56c12.04-3.7,20.37-11.11,24.08-23.15c0.93-1.85,0.93-4.63,1.85-6.48
				c3.7-12.96,3.7-25.93,0.93-39.82c-2.78-13.89-7.41-27.78-10.19-41.67c-0.93-2.78-1.85-5.56-3.7-8.33
				c-2.78-5.56-7.41-9.26-12.96-12.04c-2.78-0.93-5.56-1.85-8.33-2.78c-12.04-2.78-24.08-4.63-36.11-4.63
				c-21.3-0.93-42.6,0-62.97,3.7c-30.56,5.56-59.27,14.82-87.05,28.71c-48.15,25-87.05,59.27-116.68,104.64
				c-13.89,22.22-24.08,45.38-31.48,70.38c-0.93,0.93-0.93,2.78-0.93,3.7c-0.93,4.63,0.93,8.33,5.56,11.11
				c4.63,2.78,9.26,3.7,13.89,0.93c0.93-0.93,2.78-1.85,2.78-3.7c0.93-1.85,1.85-4.63,2.78-6.48c7.41-23.15,17.59-44.45,30.56-64.82
				c36.12-56.49,87.05-94.45,152.79-112.05c24.08-6.48,50.01-9.26,75.01-10.19c8.33,0,16.67,0,25,1.85
				c23.15,3.7,37.04,18.52,39.82,41.67c0.93,8.33,0.93,16.67,0,24.08c-0.93,12.04-7.41,20.37-19.45,25
				c-3.7,0.93-6.48,1.85-10.19,2.78c-14.82,4.63-26.85,12.96-35.19,25.93c-7.41,12.04-8.33,24.08-2.78,37.04
				c9.26,20.37,20.37,39.82,33.34,57.41c1.85,2.78,5.56,6.48,8.33,9.26c8.33,6.48,16.67,6.48,25.93,0.93
				c4.63-2.78,8.33-6.48,11.11-10.19c4.63-6.48,9.26-12.96,12.96-19.45c3.7-6.48,7.41-13.89,10.19-20.37
				c1.85-2.78,3.7-6.48,5.56-9.26c3.7-4.63,9.26-4.63,12.96,0c1.85,1.85,3.7,4.63,5.56,7.41c4.63,7.41,8.33,14.82,11.11,22.22
				c7.41,16.67,20.37,25,37.97,25.93c12.96,0,25.93-0.93,37.97-2.78c14.82-2.78,30.56-6.48,45.38-10.19
				c4.63-0.93,8.33-2.78,12.04-4.63c7.41-3.7,9.26-9.26,8.33-16.67c-0.93-5.56-2.78-11.11-4.63-16.67
				c-6.48-14.82-12.96-29.63-20.37-44.45c-9.26-17.59-20.37-34.26-33.34-49.08c-29.63-34.26-65.75-60.19-106.49-78.71
				c-1.85-0.93-4.63-1.85-6.48-2.78c-5.56-1.85-10.19,0.93-12.96,5.56c-2.78,5.56-2.78,11.11,1.85,14.82
				c1.85,1.85,4.63,2.78,7.41,3.7c5.56,2.78,11.11,4.63,16.67,7.41c58.34,30.56,100.01,75.93,125.94,136.13
				c0.93,2.78,2.78,6.48,3.7,9.26c1.85,9.26-0.93,12.96-9.26,15.74c-0.93,0-2.78,0.93-3.7,0.93c-10.19,1.85-19.45,4.63-29.63,6.48
				c-10.19,1.85-20.37,2.78-30.56,0.93c-8.33-1.85-14.82-5.56-17.59-13.89c-1.85-4.63-3.7-9.26-5.56-13.89
				c-3.7-9.26-10.19-17.59-17.59-24.08c-2.78-2.78-6.48-4.63-9.26-6.48c-9.26-4.63-19.45-4.63-27.78,1.85
				c-3.7,2.78-7.41,6.48-10.19,9.26c-3.7,4.63-5.56,9.26-8.33,13.89c-2.78,5.56-5.56,12.04-8.33,17.59
				C674.72,438.77,670.09,445.25,662.68,450.81z M767.32,511.93c-8.33,0-17.59,1.85-26.85,4.63c-13.89,4.63-27.78,12.04-39.82,20.37
				c-10.19,7.41-21.3,12.04-35.19,12.04c-8.33,0-15.74,4.63-19.45,12.04c-4.63,8.33-2.78,16.67,4.63,22.22
				c16.67,12.04,32.41,24.08,50.93,33.34c7.41,3.7,14.82,7.41,23.15,10.19c1.85,0.93,4.63,1.85,6.48,0.93
				c8.33-1.85,15.74-2.78,24.08-5.56c8.33-1.85,13.89-7.41,18.52-14.82c5.56-8.33,11.11-16.67,17.59-25
				c5.56-7.41,12.04-14.82,17.59-22.22c1.85-1.85,3.7-4.63,4.63-7.41c5.56-10.19,3.7-20.37-4.63-29.63
				c-3.7-3.7-9.26-7.41-14.82-8.33C785.84,512.85,777.51,511.93,767.32,511.93z M610.82,745.28c1.85,0,3.7,0,4.63,0
				c12.96-0.93,25-11.11,27.78-24.08c3.7-15.74-5.56-36.12-19.45-44.45c-6.48-3.7-12.04-3.7-18.52-0.93
				c-14.82,7.41-25,18.52-29.63,35.19c-2.78,12.04,3.7,25,14.82,30.56C596.93,744.36,603.41,745.28,610.82,745.28z"/>
		</g>
	</g>
	<g>
		<g>
			<path class="st0" d="M140.4,623.05c-34.26,12.04-76.86,0.93-100.94-31.48c-23.15-32.41-22.22-77.79,3.7-109.27
				c26.85-31.48,69.45-37.97,96.31-26.85c-0.93,11.11-3.7,21.3-4.63,32.41s-1.85,23.15-2.78,34.26c-0.93,11.11-0.93,22.22,0,33.34
				c0,11.11,0.93,23.15,2.78,34.26C136.7,600.82,138.55,611.94,140.4,623.05z"/>
		</g>
	</g>
	<g>
		<g>
			<path class="st0" d="M162.62,377.65c-19.45-11.11-35.19-47.23-18.52-80.56c16.67-32.41,54.64-42.6,79.64-31.48
				c-0.93,0.93-0.93,1.85-1.85,3.7c-24.08,32.41-42.6,67.6-57.41,105.57C163.55,374.87,163.55,375.8,162.62,377.65z"/>
		</g>
	</g>
	<g>
		<g>
			<path class="st0" d="M281.16,201.71c-8.33-17.59-1.85-44.45,16.67-58.34c18.52-13.89,45.38-12.96,61.12,0
				c-6.48,4.63-13.89,8.33-20.37,12.96s-12.96,9.26-19.45,13.89s-12.96,10.19-19.45,14.82
				C293.19,190.59,287.64,196.15,281.16,201.71z"/>
		</g>
	</g>
	<g>
		<g>
			<path class="st0" d="M685.83,576.75c3.7-0.93,5.56-1.85,8.33-2.78c7.41-1.85,12.96-6.48,17.59-12.04
				c0.93-0.93,0.93-0.93,1.85-1.85c8.33-11.11,19.45-17.59,32.41-20.37c10.19-1.85,20.37-2.78,30.56-3.7c1.85,0,3.7,0,5.56,0
				c4.63,0.93,7.41,6.48,4.63,11.11c-0.93,1.85-1.85,2.78-2.78,3.7c-10.19,9.26-17.59,20.37-24.08,32.41
				c-1.85,3.7-4.63,7.41-7.41,11.11c-3.7,4.63-8.33,7.41-13.89,8.33c-4.63,0.93-8.33,0-12.96-1.85c-2.78-0.93-5.56-1.85-8.33-3.7
				c-10.19-5.56-19.45-12.04-28.71-18.52C687.68,578.6,687.68,578.6,685.83,576.75z"/>
		</g>
	</g>
	<g>
		<g>
			<path class="st0" d="M607.12,722.13c-0.93,0-3.7-0.93-5.56-1.85c-2.78-0.93-3.7-3.7-2.78-6.48c1.85-5.56,4.63-10.19,9.26-12.96
				c3.7-2.78,8.33-1.85,10.19,1.85c0.93,1.85,1.85,2.78,2.78,4.63c2.78,7.41-0.93,13.89-9.26,14.82
				C610.82,722.13,609.9,722.13,607.12,722.13z"/>
		</g>
	</g>
</g>
</svg>
