<?xml version="1.0" encoding="utf-8"?>
<!-- Generator: Adobe Illustrator 28.3.0, SVG Export Plug-In . SVG Version: 6.00 Build 0)  -->
<svg version="1.1" id="Layer_1" xmlns="http://www.w3.org/2000/svg" xmlns:xlink="http://www.w3.org/1999/xlink" x="0px" y="0px"
	 viewBox="0 0 614 118" style="enable-background:new 0 0 614 118;" xml:space="preserve">
<style type="text/css">
	.st0{fill:#7367F0;}
</style>
<g>
	<g>
		<g>
			<g>
				<path class="st0" d="M127.8,55.5v-6.9h3.4c0,1.3,0.4,2.2,1,2.8s1.3,0.9,2.1,0.9c0.6,0,1.1-0.2,1.6-0.7c0.4-0.4,0.6-0.9,0.6-1.5
					c0-0.6-0.2-1.1-0.6-1.6s-1.2-0.9-2.3-1.4c-2.3-1.1-3.9-2.1-4.8-3c-0.8-0.9-1.2-2-1.2-3.5c0-1.8,0.6-3.1,1.7-4.1s2.4-1.5,3.8-1.5
					c1.6,0,2.9,0.6,3.7,1.9v-1.7h3.4v6.2h-3.4c-0.1-1-0.4-1.7-1-2.2s-1.2-0.8-1.9-0.8c-0.6,0-1,0.2-1.4,0.5
					c-0.4,0.3-0.6,0.7-0.6,1.2c0,0.4,0.2,0.8,0.5,1.2s1.3,0.9,2.8,1.6c1.5,0.7,2.6,1.3,3.4,1.8s1.4,1.2,1.9,2.1
					c0.5,0.9,0.7,1.8,0.7,3c0,2-0.6,3.5-1.8,4.5c-1.2,1-2.5,1.5-4.1,1.5c-1.8,0-3.1-0.7-4.1-2v1.7H127.8z"/>
			</g>
			<g>
				<polygon class="st0" points="143.9,55.5 143.9,52.1 146.4,52.1 146.4,38.7 143.9,38.7 143.9,35.3 153.7,35.3 153.7,38.7 
					151.5,38.7 151.5,43.1 157,43.1 157,38.7 155,38.7 155,35.3 164.7,35.3 164.7,38.7 162.2,38.7 162.2,52.1 164.7,52.1 
					164.7,55.5 155,55.5 155,52.1 157,52.1 157,46.5 151.5,46.5 151.5,52.1 153.7,52.1 153.7,55.5 				"/>
			</g>
			<g>
				<path class="st0" d="M187.2,52.1v3.4h-9.9v-3.4h2.6l-1-3.5h-5.2l-1.1,3.5h2.7v3.4h-9v-3.4h2.5l3.9-13.4H170v-3.4h13.2v3.4h-2.7
					l4.2,13.4H187.2z M178,45.6l-1.7-6.1l-1.8,6.1H178z"/>
			</g>
			<g>
				<path class="st0" d="M188.9,55.5v-3.4h2.5V38.7h-2.5v-3.4h9.2c2.1,0,3.6,0.1,4.6,0.4s1.9,0.8,2.6,1.7s1.1,2,1.1,3.2
					c0,2-0.9,3.4-2.9,4.2c2.4,0.9,3.6,2.5,3.6,4.8c0,1.3-0.4,2.5-1.1,3.4s-1.7,1.6-2.9,2c-1.2,0.3-2.9,0.5-5,0.5
					C198.1,55.5,188.9,55.5,188.9,55.5z M196.6,43.2h1.5c1,0,1.8-0.2,2.3-0.5s0.7-1,0.7-1.8c0-0.8-0.2-1.4-0.7-1.7s-1.3-0.5-2.5-0.5
					h-1.3L196.6,43.2L196.6,43.2z M196.6,52.1h1.5c1.4,0,2.3-0.2,2.8-0.6c0.5-0.4,0.8-1.1,0.8-2c0-1-0.3-1.8-0.9-2.2
					s-1.5-0.6-2.8-0.6h-1.5L196.6,52.1L196.6,52.1z"/>
			</g>
			<g>
				<path class="st0" d="M209.5,38.7v-3.4h9.7v3.4h-2v9.2c0,1.2,0.1,2.1,0.1,2.6c0.1,0.5,0.4,1,0.8,1.3c0.4,0.3,1,0.5,1.7,0.5
					c0.7,0,1.3-0.2,1.7-0.5s0.8-0.7,0.9-1.2c0.1-0.5,0.2-1.5,0.2-3v-8.9h-2v-3.4h8.1v3.4h-2.5v10.1c0,1.4-0.1,2.4-0.2,3
					s-0.5,1.2-1,1.9s-1.3,1.1-2.3,1.5c-1,0.4-2.1,0.6-3.4,0.6c-1.5,0-2.8-0.2-3.8-0.6c-1.1-0.4-1.8-1-2.4-1.7
					c-0.5-0.7-0.8-1.4-1-2.1s-0.2-1.9-0.2-3.5v-9.1L209.5,38.7L209.5,38.7z"/>
			</g>
			<g>
				<path class="st0" d="M229.7,61.3v-3.7c0.6,0.2,1.1,0.2,1.5,0.2c0.8,0,1.4-0.2,1.7-0.7c0.4-0.5,0.5-1.2,0.5-2.4V38.7h-3v-3.4h11
					v3.4h-2.8v16.4c0,2.2-0.6,3.9-1.6,5c-1.1,1.1-2.5,1.6-4.4,1.6C231.8,61.7,230.8,61.6,229.7,61.3z"/>
			</g>
			<g>
				<path class="st0" d="M265.2,48.7v-3.4h9.5c0,2.5-0.4,4.4-1.3,5.8c-0.9,1.4-2.2,2.6-3.9,3.4s-3.6,1.2-5.7,1.2
					c-3.7,0-6.5-1-8.4-2.9c-1.9-2-2.9-4.5-2.9-7.5c0-2.1,0.5-3.9,1.4-5.5c1-1.6,2.3-2.8,3.9-3.6c1.6-0.8,3.4-1.2,5.3-1.2
					c2.7,0,4.8,0.7,6.3,2v-1.7h3.4v7.2h-3.4c-0.4-1.2-1.1-2.2-2.1-2.9s-2.2-1-3.4-1c-1.6,0-3,0.6-4.1,1.7s-1.7,2.7-1.7,4.7
					c0,2.3,0.6,4.1,1.7,5.3c1.1,1.2,2.6,1.8,4.2,1.8c1.2,0,2.2-0.3,3-0.9c0.8-0.6,1.4-1.4,1.7-2.5L265.2,48.7L265.2,48.7z"/>
			</g>
			<g>
				<polygon class="st0" points="277.6,55.5 277.6,52.1 280.5,52.1 280.5,38.7 277.6,38.7 277.6,35.3 288.7,35.3 288.7,38.7 
					285.8,38.7 285.8,52.1 291.7,52.1 291.7,45.8 295.7,45.8 295.7,55.5 				"/>
			</g>
			<g>
				<path class="st0" d="M309.5,34.9c3.5,0,6.2,1,8.2,3c2,2,3,4.5,3,7.4c0,2.9-1,5.4-3,7.4c-2,2-4.8,3-8.2,3c-3.6,0-6.4-1-8.3-3.1
					c-1.9-2.1-2.9-4.5-2.9-7.3c0-2.9,1-5.3,3-7.4C303.2,36,306,34.9,309.5,34.9z M309.5,38.6c-1.5,0-2.9,0.6-4,1.8
					c-1.1,1.2-1.6,2.9-1.6,5.1c0,2,0.5,3.6,1.6,4.8s2.4,1.8,4,1.8c1.5,0,2.9-0.6,4-1.8s1.6-2.8,1.6-5c0-2-0.5-3.6-1.6-4.8
					S311.1,38.6,309.5,38.6z"/>
			</g>
			<g>
				<path class="st0" d="M323.9,55.5v-3.4h2.5V38.7h-2.5v-3.4h9.2c2,0,3.6,0.1,4.6,0.4s1.9,0.8,2.6,1.7s1.1,2,1.1,3.2
					c0,2-1,3.4-2.9,4.2c2.4,0.9,3.6,2.5,3.6,4.8c0,1.3-0.4,2.5-1.1,3.4s-1.7,1.6-2.9,2s-2.9,0.5-5,0.5
					C333.2,55.5,323.9,55.5,323.9,55.5z M331.7,43.2h1.5c1,0,1.8-0.2,2.3-0.5c0.5-0.3,0.7-1,0.7-1.8c0-0.8-0.2-1.4-0.7-1.7
					s-1.3-0.5-2.5-0.5h-1.3L331.7,43.2L331.7,43.2z M331.7,52.1h1.5c1.4,0,2.3-0.2,2.8-0.6c0.5-0.4,0.8-1.1,0.8-2
					c0-1-0.3-1.8-0.9-2.2s-1.5-0.6-2.8-0.6h-1.5L331.7,52.1L331.7,52.1z"/>
			</g>
			<g>
				<path class="st0" d="M365.3,52.1v3.4h-10v-3.4h2.6l-1-3.5h-5.2l-1.1,3.5h2.7v3.4h-9v-3.4h2.5l3.9-13.4h-2.7v-3.4h13.2v3.4h-2.7
					l4.2,13.4H365.3z M356.2,45.6l-1.7-6.1l-1.8,6.1H356.2z"/>
			</g>
			<g>
				<polygon class="st0" points="366.9,55.5 366.9,52.1 369.7,52.1 369.7,38.7 366.9,38.7 366.9,35.3 378,35.3 378,38.7 375,38.7 
					375,52.1 381,52.1 381,45.8 384.9,45.8 384.9,55.5 				"/>
			</g>
			<g>
				<polygon class="st0" points="395.2,55.5 395.2,52.1 397.6,52.1 397.6,38.7 395.2,38.7 395.2,35.3 413,35.3 413,41.7 409.1,41.7 
					409.1,38.7 402.9,38.7 402.9,43.3 407.9,43.3 407.9,46.8 402.9,46.8 402.9,52.1 409.1,52.1 409.1,49.1 413,49.1 413,55.5 				
					"/>
			</g>
			<g>
				<path class="st0" d="M415.5,55.5v-3.4h3.1V38.7h-3.1v-3.4h9.6c2,0,3.6,0.1,4.9,0.4s2.4,0.8,3.5,1.6s2,2,2.7,3.4s1,3,1,4.7
					c0,1.4-0.2,2.8-0.7,4c-0.5,1.3-1.1,2.3-1.8,3.1c-0.7,0.8-1.5,1.4-2.5,1.9c-1,0.5-1.9,0.8-2.7,0.9s-2.1,0.2-3.8,0.2L415.5,55.5
					L415.5,55.5z M423.8,52.1h1.3c1.5,0,2.8-0.2,3.6-0.6c0.9-0.4,1.6-1.1,2.2-2.1s0.8-2.3,0.8-3.9c0-1.5-0.3-2.8-0.8-3.9
					s-1.3-1.8-2.2-2.2s-2.1-0.6-3.6-0.6h-1.3L423.8,52.1L423.8,52.1z"/>
			</g>
			<g>
				<path class="st0" d="M440,38.7v-3.4h9.7v3.4h-2v9.2c0,1.2,0,2.1,0.1,2.6s0.4,1,0.8,1.3c0.4,0.3,1,0.5,1.7,0.5
					c0.7,0,1.3-0.2,1.7-0.5s0.8-0.7,0.9-1.2c0.1-0.5,0.2-1.5,0.2-3v-8.9h-2v-3.4h8.1v3.4h-2.5v10.1c0,1.4-0.1,2.4-0.2,3
					s-0.5,1.2-1,1.9s-1.3,1.1-2.3,1.5s-2.1,0.6-3.4,0.6c-1.5,0-2.8-0.2-3.8-0.6c-1-0.4-1.8-1-2.4-1.7c-0.5-0.7-0.8-1.4-1-2.1
					s-0.2-1.9-0.2-3.5v-9.1L440,38.7L440,38.7z"/>
			</g>
			<g>
				<path class="st0" d="M478.5,35.3h3.4v7.1h-3.4c-1-2.6-2.6-3.8-5-3.8c-2,0-3.5,0.7-4.5,2c-1,1.3-1.5,3-1.5,4.8
					c0,2,0.5,3.6,1.6,4.8s2.4,1.8,4.1,1.8c1.4,0,2.5-0.5,3.6-1.4c1-0.9,1.7-2.2,2.1-3.8l4,1.9c-1.5,4.7-4.8,7-10,7
					c-3.6,0-6.4-1-8.2-2.9c-1.9-2-2.8-4.4-2.8-7.4c0-2.1,0.5-4,1.4-5.6s2.2-2.8,3.9-3.6c1.6-0.8,3.4-1.2,5.3-1.2
					c2.4,0,4.4,0.6,6.1,1.9L478.5,35.3L478.5,35.3z"/>
			</g>
			<g>
				<path class="st0" d="M504.6,52.1v3.4h-10v-3.4h2.6l-1-3.5H491l-1.1,3.5h2.7v3.4h-9v-3.4h2.5l3.9-13.4h-2.7v-3.4h13.2v3.4h-2.7
					l4.2,13.4H504.6z M495.4,45.6l-1.7-6.1l-1.8,6.1H495.4z"/>
			</g>
			<g>
				<polygon class="st0" points="508.8,55.5 508.8,52.1 511.8,52.1 511.8,38.7 508.8,38.7 508.8,43.4 505.3,43.4 505.3,35.3 
					523.6,35.3 523.6,43.4 520.2,43.4 520.2,38.7 517.1,38.7 517.1,52.1 520.1,52.1 520.1,55.5 				"/>
			</g>
			<g>
				<polygon class="st0" points="526,55.5 526,52.1 529,52.1 529,38.7 526,38.7 526,35.3 537.4,35.3 537.4,38.7 534.3,38.7 
					534.3,52.1 537.4,52.1 537.4,55.5 				"/>
			</g>
			<g>
				<path class="st0" d="M551.5,34.9c3.5,0,6.2,1,8.2,3c2,2,3,4.5,3,7.4c0,2.9-1,5.4-3,7.4c-2,2-4.8,3-8.2,3c-3.6,0-6.4-1-8.3-3.1
					s-2.9-4.5-2.9-7.3c0-2.9,1-5.3,3-7.4S548,34.9,551.5,34.9z M551.5,38.6c-1.5,0-2.9,0.6-4,1.8c-1.1,1.2-1.6,2.9-1.6,5.1
					c0,2,0.5,3.6,1.6,4.8c1.1,1.2,2.4,1.8,4,1.8c1.5,0,2.9-0.6,4-1.8s1.6-2.8,1.6-5c0-2-0.5-3.6-1.6-4.8
					C554.5,39.2,553.1,38.6,551.5,38.6z"/>
			</g>
			<g>
				<polygon class="st0" points="565.7,55.5 565.7,52.1 568.4,52.1 568.4,38.7 565.7,38.7 565.7,35.3 574.2,35.3 581.7,47.9 
					581.7,38.7 579,38.7 579,35.2 588.1,35.2 588.1,38.7 585.3,38.7 585.3,55.6 580.8,55.6 572,40.6 572,52.1 574.6,52.1 
					574.6,55.5 				"/>
			</g>
		</g>
	</g>
	<g>
		<g>
			<path class="st0" d="M191.4,81.8l-3.9-15.4h2.1l1.8,7.8c0.5,1.9,0.9,3.8,1.1,5.3h0.1c0.2-1.5,0.7-3.4,1.3-5.3l2.1-7.8h2.1
				l1.9,7.8c0.4,1.8,0.9,3.7,1.1,5.3h0.1c0.3-1.7,0.8-3.4,1.2-5.3l2-7.8h2l-4.4,15.4h-2.1l-1.9-8c-0.5-2-0.8-3.5-1-5h-0.1
				c-0.3,1.5-0.6,3-1.2,5l-2.2,8H191.4z"/>
		</g>
		<g>
			<path class="st0" d="M218.5,76.2c0,4.1-2.8,5.9-5.5,5.9c-3,0-5.3-2.2-5.3-5.7c0-3.7,2.4-5.9,5.5-5.9
				C216.4,70.5,218.5,72.8,218.5,76.2z M209.7,76.3c0,2.4,1.4,4.2,3.4,4.2c1.9,0,3.4-1.8,3.4-4.3c0-1.9-0.9-4.2-3.3-4.2
				C210.8,72,209.7,74.2,209.7,76.3z"/>
		</g>
		<g>
			<path class="st0" d="M222.2,74.2c0-1.3,0-2.4-0.1-3.4h1.8l0.1,2.2h0.1c0.5-1.5,1.7-2.4,3.1-2.4c0.2,0,0.4,0,0.6,0.1v1.9
				c-0.2,0-0.4-0.1-0.7-0.1c-1.4,0-2.4,1.1-2.7,2.6c-0.1,0.3-0.1,0.6-0.1,0.9v5.9h-2L222.2,74.2L222.2,74.2z"/>
		</g>
		<g>
			<rect x="230.9" y="65.6" class="st0" width="2" height="16.2"/>
		</g>
		<g>
			<path class="st0" d="M247,65.6V79c0,1,0,2.1,0.1,2.9h-1.8l-0.1-1.9h-0.1c-0.6,1.2-2,2.2-3.8,2.2c-2.7,0-4.7-2.3-4.7-5.6
				c0-3.7,2.3-5.9,5-5.9c1.7,0,2.8,0.8,3.3,1.7h0.1v-6.6H247z M245,75.2c0-0.2,0-0.6-0.1-0.8c-0.3-1.3-1.4-2.3-2.9-2.3
				c-2.1,0-3.3,1.8-3.3,4.3c0,2.2,1.1,4.1,3.3,4.1c1.4,0,2.6-0.9,2.9-2.4c0.1-0.3,0.1-0.6,0.1-0.9L245,75.2L245,75.2z"/>
		</g>
		<g>
			<path class="st0" d="M252.3,70.8l1.5,5.6c0.3,1.2,0.6,2.4,0.8,3.5h0.1c0.2-1.1,0.6-2.3,1-3.5l1.8-5.7h1.7l1.7,5.5
				c0.4,1.3,0.7,2.5,1,3.6h0.1c0.2-1.1,0.5-2.3,0.9-3.6l1.6-5.6h2l-3.6,11.1h-1.8l-1.7-5.3c-0.4-1.2-0.7-2.3-1-3.6h0
				c-0.3,1.3-0.6,2.5-1,3.7l-1.8,5.3h-1.8l-3.3-11.1C250.2,70.8,252.3,70.8,252.3,70.8z"/>
		</g>
		<g>
			<path class="st0" d="M271.7,67.6c0,0.7-0.5,1.2-1.3,1.2c-0.7,0-1.2-0.6-1.2-1.2c0-0.7,0.5-1.3,1.3-1.3
				C271.2,66.4,271.7,66.9,271.7,67.6z M269.4,81.8V70.8h2v11.1H269.4z"/>
		</g>
		<g>
			<path class="st0" d="M285.5,65.6V79c0,1,0,2.1,0.1,2.9h-1.8l-0.1-1.9h0c-0.6,1.2-2,2.2-3.8,2.2c-2.7,0-4.7-2.3-4.7-5.6
				c0-3.7,2.3-5.9,5-5.9c1.7,0,2.8,0.8,3.3,1.7h0v-6.6H285.5z M283.5,75.2c0-0.2,0-0.6-0.1-0.8c-0.3-1.3-1.4-2.3-2.9-2.3
				c-2.1,0-3.3,1.8-3.3,4.3c0,2.2,1.1,4.1,3.3,4.1c1.4,0,2.6-0.9,3-2.4c0.1-0.3,0.1-0.6,0.1-0.9L283.5,75.2L283.5,75.2z"/>
		</g>
		<g>
			<path class="st0" d="M291.1,76.7c0,2.7,1.8,3.8,3.8,3.8c1.4,0,2.3-0.2,3.1-0.6l0.3,1.4c-0.7,0.3-1.9,0.7-3.7,0.7
				c-3.4,0-5.4-2.2-5.4-5.6c0-3.3,2-6,5.2-6c3.6,0,4.6,3.2,4.6,5.2c0,0.4,0,0.7-0.1,0.9L291.1,76.7L291.1,76.7z M297,75.2
				c0-1.3-0.5-3.3-2.8-3.3c-2,0-2.9,1.9-3.1,3.3H297z"/>
		</g>
		<g>
			<path class="st0" d="M310.6,66.4v9.1c0,3.4,1.5,4.9,3.6,4.9c2.3,0,3.8-1.5,3.8-4.9v-9.1h2v9c0,4.7-2.5,6.7-5.8,6.7
				c-3.1,0-5.5-1.8-5.5-6.6v-9.1C308.6,66.4,310.6,66.4,310.6,66.4z"/>
		</g>
		<g>
			<path class="st0" d="M324.5,73.8c0-1.1,0-2.1-0.1-3h1.8l0.1,1.8h0c0.5-1.1,1.8-2.1,3.7-2.1c1.5,0,3.9,0.9,3.9,4.7v6.6h-2v-6.4
				c0-1.8-0.7-3.3-2.6-3.3c-1.3,0-2.4,0.9-2.7,2.1c-0.1,0.2-0.1,0.6-0.1,0.9v6.7h-2L324.5,73.8L324.5,73.8z"/>
		</g>
		<g>
			<path class="st0" d="M340.5,67.6c0,0.7-0.5,1.2-1.3,1.2c-0.7,0-1.2-0.6-1.2-1.2c0-0.7,0.5-1.3,1.3-1.3
				C340,66.4,340.5,66.9,340.5,67.6z M338.3,81.8V70.8h2v11.1H338.3z"/>
		</g>
		<g>
			<path class="st0" d="M345.5,70.8l2.2,6.2c0.4,1,0.7,1.9,0.9,2.8h0.1c0.2-0.9,0.6-1.8,0.9-2.8l2.1-6.2h2.1l-4.3,11.1h-1.9
				l-4.2-11.1H345.5z"/>
		</g>
		<g>
			<path class="st0" d="M357.8,76.7c0,2.7,1.8,3.8,3.8,3.8c1.4,0,2.3-0.2,3.1-0.6l0.3,1.4c-0.7,0.3-1.9,0.7-3.7,0.7
				c-3.4,0-5.4-2.2-5.4-5.6c0-3.3,2-6,5.2-6c3.6,0,4.6,3.2,4.6,5.2c0,0.4,0,0.7-0.1,0.9L357.8,76.7L357.8,76.7z M363.7,75.2
				c0-1.3-0.5-3.3-2.8-3.3c-2,0-2.9,1.9-3.1,3.3H363.7z"/>
		</g>
		<g>
			<path class="st0" d="M369.3,74.2c0-1.3,0-2.4-0.1-3.4h1.8l0.1,2.2h0.1c0.5-1.5,1.7-2.4,3.1-2.4c0.2,0,0.4,0,0.6,0.1v1.9
				c-0.2,0-0.4-0.1-0.7-0.1c-1.4,0-2.4,1.1-2.7,2.6c0,0.3-0.1,0.6-0.1,0.9v5.9h-2L369.3,74.2L369.3,74.2z"/>
		</g>
		<g>
			<path class="st0" d="M377.6,79.8c0.6,0.4,1.6,0.8,2.6,0.8c1.5,0,2.1-0.7,2.1-1.7c0-1-0.6-1.5-2.1-2c-2-0.7-2.9-1.8-2.9-3.1
				c0-1.8,1.4-3.2,3.8-3.2c1.1,0,2.1,0.3,2.7,0.7l-0.5,1.5c-0.4-0.3-1.2-0.6-2.3-0.6c-1.2,0-1.9,0.7-1.9,1.5c0,0.9,0.7,1.3,2.1,1.9
				c1.9,0.7,2.9,1.7,2.9,3.3c0,1.9-1.5,3.3-4.1,3.3c-1.2,0-2.3-0.3-3.1-0.8L377.6,79.8z"/>
		</g>
		<g>
			<path class="st0" d="M390.3,67.6c0,0.7-0.5,1.2-1.3,1.2c-0.7,0-1.2-0.6-1.2-1.2c0-0.7,0.5-1.3,1.3-1.3
				C389.8,66.4,390.3,66.9,390.3,67.6z M388.1,81.8V70.8h2v11.1H388.1z"/>
		</g>
		<g>
			<path class="st0" d="M397,67.6v3.2h2.9v1.5H397v6c0,1.4,0.4,2.2,1.5,2.2c0.5,0,0.9-0.1,1.2-0.1l0.1,1.5c-0.4,0.2-1,0.3-1.8,0.3
				c-0.9,0-1.7-0.3-2.2-0.8c-0.6-0.6-0.8-1.6-0.8-2.9v-6h-1.7v-1.5h1.7v-2.7L397,67.6z"/>
		</g>
		<g>
			<path class="st0" d="M404.2,70.8l2.4,6.5c0.2,0.7,0.5,1.6,0.7,2.3h0c0.2-0.7,0.4-1.5,0.7-2.3l2.2-6.5h2.1l-3,7.9
				c-1.4,3.8-2.4,5.7-3.8,6.9c-1,0.9-2,1.2-2.5,1.3l-0.5-1.7c0.5-0.2,1.2-0.5,1.8-1c0.5-0.4,1.2-1.2,1.7-2.2
				c0.1-0.2,0.2-0.4,0.2-0.5s0-0.3-0.1-0.5L402,70.8H404.2z"/>
		</g>
		<g>
			<path class="st0" d="M423.9,77l-1.6,4.8h-2.1l5.2-15.4h2.4l5.3,15.4H431l-1.6-4.8C429.4,77,423.9,77,423.9,77z M429,75.4
				l-1.5-4.4c-0.3-1-0.6-1.9-0.8-2.8h0c-0.2,0.9-0.5,1.8-0.8,2.8l-1.5,4.5L429,75.4L429,75.4z"/>
		</g>
		<g>
			<path class="st0" d="M445.8,65.6V79c0,1,0,2.1,0.1,2.9H444l-0.1-1.9h0c-0.6,1.2-2,2.2-3.8,2.2c-2.7,0-4.7-2.3-4.7-5.6
				c0-3.7,2.3-5.9,5-5.9c1.7,0,2.8,0.8,3.3,1.7h0v-6.6H445.8z M443.8,75.2c0-0.2,0-0.6-0.1-0.8c-0.3-1.3-1.4-2.3-2.9-2.3
				c-2.1,0-3.3,1.8-3.3,4.3c0,2.2,1.1,4.1,3.3,4.1c1.4,0,2.6-0.9,3-2.4c0.1-0.3,0.1-0.6,0.1-0.9L443.8,75.2L443.8,75.2z"/>
		</g>
		<g>
			<path class="st0" d="M450.2,73.8c0-1.1,0-2.1-0.1-3h1.8l0.1,1.8h0.1c0.6-1.1,1.6-2,3.5-2c1.5,0,2.6,0.9,3.1,2.2h0
				c0.3-0.6,0.8-1.1,1.2-1.4c0.7-0.5,1.4-0.8,2.5-0.8c1.5,0,3.6,1,3.6,4.8v6.5h-2v-6.3c0-2.1-0.8-3.4-2.4-3.4c-1.1,0-2,0.8-2.4,1.8
				c-0.1,0.3-0.2,0.6-0.2,1v6.8h-2v-6.6c0-1.8-0.8-3-2.3-3c-1.3,0-2.2,1-2.5,2c-0.1,0.3-0.2,0.6-0.2,1v6.7h-2L450.2,73.8L450.2,73.8
				z"/>
		</g>
		<g>
			<path class="st0" d="M472.7,67.6c0,0.7-0.5,1.2-1.3,1.2c-0.7,0-1.2-0.6-1.2-1.2c0-0.7,0.5-1.3,1.3-1.3
				C472.2,66.4,472.7,66.9,472.7,67.6z M470.4,81.8V70.8h2v11.1H470.4z"/>
		</g>
		<g>
			<path class="st0" d="M476.7,79.8c0.6,0.4,1.6,0.8,2.6,0.8c1.5,0,2.1-0.7,2.1-1.7c0-1-0.6-1.5-2.1-2c-2-0.7-2.9-1.8-2.9-3.1
				c0-1.8,1.4-3.2,3.8-3.2c1.1,0,2.1,0.3,2.7,0.7l-0.5,1.5c-0.4-0.3-1.2-0.6-2.3-0.6c-1.2,0-1.9,0.7-1.9,1.5c0,0.9,0.7,1.3,2.1,1.9
				c1.9,0.7,2.9,1.7,2.9,3.3c0,1.9-1.5,3.3-4.1,3.3c-1.2,0-2.3-0.3-3.1-0.8L476.7,79.8z"/>
		</g>
		<g>
			<path class="st0" d="M486.9,79.8c0.6,0.4,1.6,0.8,2.6,0.8c1.5,0,2.1-0.7,2.1-1.7c0-1-0.6-1.5-2.1-2c-2-0.7-2.9-1.8-2.9-3.1
				c0-1.8,1.4-3.2,3.8-3.2c1.1,0,2.1,0.3,2.7,0.7l-0.5,1.5c-0.4-0.3-1.2-0.6-2.3-0.6c-1.2,0-1.9,0.7-1.9,1.5c0,0.9,0.7,1.3,2.1,1.9
				c1.9,0.7,2.9,1.7,2.9,3.3c0,1.9-1.5,3.3-4.1,3.3c-1.2,0-2.3-0.3-3.1-0.8L486.9,79.8z"/>
		</g>
		<g>
			<path class="st0" d="M499.6,67.6c0,0.7-0.5,1.2-1.3,1.2c-0.7,0-1.2-0.6-1.2-1.2c0-0.7,0.5-1.3,1.3-1.3
				C499.1,66.4,499.6,66.9,499.6,67.6z M497.3,81.8V70.8h2v11.1H497.3z"/>
		</g>
		<g>
			<path class="st0" d="M513.8,76.2c0,4.1-2.8,5.9-5.5,5.9c-3,0-5.3-2.2-5.3-5.7c0-3.7,2.4-5.9,5.5-5.9
				C511.7,70.5,513.8,72.8,513.8,76.2z M505,76.3c0,2.4,1.4,4.2,3.4,4.2c1.9,0,3.4-1.8,3.4-4.3c0-1.9-0.9-4.2-3.3-4.2
				C506.1,72,505,74.2,505,76.3z"/>
		</g>
		<g>
			<path class="st0" d="M517.5,73.8c0-1.1,0-2.1-0.1-3h1.8l0.1,1.8h0c0.5-1.1,1.8-2.1,3.7-2.1c1.5,0,3.9,0.9,3.9,4.7v6.6h-2v-6.4
				c0-1.8-0.7-3.3-2.6-3.3c-1.3,0-2.3,0.9-2.7,2.1c-0.1,0.2-0.1,0.6-0.1,0.9v6.7h-2L517.5,73.8L517.5,73.8z"/>
		</g>
	</g>
</g>
<g>
	<g>
		<g>
			<path class="st0" d="M36.5,71.8c-0.5-1.1-1.4-4.5-1.4-5.5c0.2-0.1,0.3-0.2,0.5-0.2c2.5-1.2,4.1-3.2,4.5-6c0.6-4-1.7-7-4.4-8.2
				c-0.2-0.1-0.4-0.2-0.6-0.3c0-0.2,0-0.4,0-0.5c0.4-1.9,0.9-3.7,1.5-5.5c0-0.1,0.1-0.2,0.2-0.4c1.6,1.1,3.3,1.4,5.1,0.8
				c1.5-0.5,2.6-1.4,3.3-2.8c0.8-1.5,0.9-3.1,0.3-4.8c-0.6-1.6-1.8-2.7-3.3-3.4C42.9,34,46,30.7,47,30c0.1,0.2,0.2,0.4,0.3,0.5
				c0.8,1.4,2.1,2.2,3.7,2.3c2.5,0.1,4.5-1.7,4.7-4c0.2-1.5-0.3-2.7-1.3-3.8c-0.1-0.1-0.2-0.2-0.3-0.3c0,0,0,0,0-0.1
				c1.2-1,6-3.1,9.2-4c5.6-1.6,11.2-2,17-1.1c6.1,0.9,11.7,3.1,16.7,6.6c15.1,10.4,21,29.3,15.1,46.1c-6.1,17.5-22.2,26.4-36.2,26.6
				c0-0.2-0.1-0.3-0.1-0.5c0-3.9,0-7.8,0-11.8c0-0.1,0-0.3,0-0.4c0.4-0.1,0.8-0.1,1.1-0.2c5.7-0.6,10.8-2.6,15.4-5.9
				c0.4-0.3,0.8-0.6,1.1-0.9c0.3-0.3,0.5-0.6,0.7-0.9c0.2-0.2,0.2-0.5,0.2-0.8c0-0.8-0.7-1.2-1.4-0.8c-0.3,0.2-0.5,0.4-0.7,0.6
				c-2.3,2-4.8,3.6-7.6,4.8c-2.1,0.8-4.2,1.4-6.4,1.7C77,83.9,75.8,84,74.6,84c-4.5-0.1-8.8-1.2-12.6-3.6c-6.6-4.1-11-9.9-13.3-17.3
				c-0.4-1.2-0.7-2.4-0.9-3.6c-0.1-0.3-0.2-0.7-0.3-1c-0.4-0.7-1.1-0.7-1.5,0c-0.2,0.3-0.2,0.7-0.2,1c0.1,0.7,0.1,1.4,0.3,2.1
				c0.8,4.2,2.5,8,5.1,11.4c3.8,5.1,8.5,8.9,14.4,11.3c2.4,1,5,1.7,7.6,1.9c0.1,0,0.2,0,0.2,0.1c0.2,0.2,0.1,0.5,0.1,0.7
				c0,1.5,0,3,0,4.5c0,2.2,0,4.5,0,6.7c0,0.2,0,0.5-0.1,0.7c-1.2,0.2-5.7-0.4-8.3-1c-2.8-0.7-5.4-1.6-8-2.8
				c-2.5-1.2-4.9-2.7-7.1-4.4C47.8,89,45.8,87.1,44,85c-0.3,0.1-0.3,0.3-0.4,0.5c-0.5,1.1-1.1,2.1-2,2.9C40,90,38,90.9,35.7,91.2
				c-4.8,0.6-9.9-2.7-10.7-8.3c-0.8-5.3,2.6-9.4,6.8-10.7c1.5-0.5,3-0.6,4.6-0.2c1.6,4.7,4.1,9,7.3,12.9c0.2-0.1,0.2-0.2,0.3-0.4
				c1.7-5.5-1.4-10.7-6.2-12.3C37.4,72,36.9,71.9,36.5,71.8z M100.2,56.5c0-0.7,0-1.5,0-2.3c0-0.3,0-0.7-0.1-1
				c-0.1-0.5-0.5-0.8-1.1-0.7c-0.6,0-0.9,0.3-0.9,0.9c0,0.3,0,0.6,0,0.9c0.3,2.4,0.2,4.8-0.3,7.1c-2.1,9.7-10.3,17.4-20.6,18.3
				c-1.1,0.1-2.2-0.1-3.1-0.8c-0.9-0.7-1.8-1.4-2.5-2.2c-0.4-0.4-0.8-0.9-1.1-1.4c-0.5-0.8-0.7-1.7-0.5-2.7c0.1-0.5,0.2-0.9,0.3-1.4
				c0.2-0.5,0.4-1.1,0.6-1.6c0.3-0.8,0.6-1.6,0.6-2.5c0.1-1.7-0.4-3.2-1.7-4.4c-0.3-0.2-0.6-0.4-0.8-0.7c-0.3-0.2-0.6-0.5-0.8-0.8
				c-0.5-0.5-0.5-1.2-0.2-1.8c0.1-0.2,0.3-0.4,0.4-0.6c0.1-0.2,0.3-0.4,0.5-0.5c0.7-0.8,1.2-1.8,1.4-2.9c0.2-0.8,0.2-1.7,0-2.5
				c-0.3-1.5-1.1-2.4-2.5-2.8c-1-0.3-2-0.3-3.1-0.1c-1.5,0.3-2.1,1.1-2.1,2.6c0,0.5,0,0.9,0,1.3c0,1.1-0.2,2.2-0.8,3.1
				c-0.3,0.4-0.6,0.8-0.9,1.2c-0.4,0.5-0.8,1-1.3,1.4c-0.2,0.2-0.5,0.5-0.7,0.6c-0.3,0.2-0.7,0.2-1,0c-0.4-0.2-0.6-0.6-0.7-1
				c0-0.2-0.1-0.4-0.1-0.6c0-0.8,0.1-1.7,0.5-2.5c0.2-0.5,0.3-0.9,0.4-1.4c0-0.5-0.2-1-0.7-1.2c-0.4-0.2-0.8-0.3-1.2-0.4
				c-0.8-0.2-1.6-0.3-2.4-0.4c-0.5-0.1-1-0.1-1.5,0c-1,0.1-1.9,0.6-2.1,2c0,0.3-0.1,0.6-0.1,0.8c0,2.1,0.2,4.1,0.6,6.2
				c1.7,8.4,7.8,15.4,15.5,18.3c1,0.4,2,0.7,3.1,1c0.7,0.2,1.1-0.2,1.3-0.8c0.1-0.4,0-0.7-0.4-0.9c-0.2-0.1-0.4-0.2-0.6-0.3
				c-0.5-0.2-1.1-0.3-1.6-0.5c-3.6-1.2-6.7-3.2-9.3-5.9c-4.1-4.3-6.2-9.5-6.3-15.5c0-0.4,0-0.8,0.1-1.1c0.1-0.5,0.4-0.8,0.9-1
				c0.6-0.1,1.1-0.1,1.7,0.1c0.4,0.1,0.6,0.3,0.5,0.8c0,0.2,0,0.4-0.1,0.6c0,0.3-0.1,0.5-0.2,0.8c-0.2,1.2-0.1,2.3,0.3,3.5
				c0.2,0.6,0.6,1.1,1.1,1.6c0.4,0.4,1,0.6,1.5,0.6c0.5,0,0.9-0.2,1.3-0.4c0.7-0.3,1.4-0.8,2-1.4c1.2-1.1,2.1-2.4,2.7-3.9
				c0.5-1.2,0.8-2.3,0.7-3.6c0-0.2,0-0.4,0-0.6c0-0.7,0.3-1,1-1c0.3,0,0.6,0,0.8,0c1,0.1,1.6,0.7,1.7,1.7c0.1,0.9-0.1,1.8-0.5,2.6
				c-0.2,0.4-0.5,0.8-0.8,1.2c-0.4,0.5-0.7,1-1,1.5c-0.5,1.1-0.4,2.2,0.3,3.2c0.3,0.5,0.7,0.8,1.2,1.2c0.3,0.3,0.6,0.6,0.9,0.9
				c0.7,0.8,1.1,1.8,1,2.9c0,0.5-0.1,0.9-0.3,1.4c-0.3,0.8-0.5,1.6-0.8,2.4c-0.3,1.1-0.4,2.1-0.2,3.2c0.4,2,1.4,3.7,2.8,5.1
				c0.9,0.9,1.9,1.6,3.1,2.1c0.8,0.3,1.5,0.4,2.3,0.4c1.6-0.1,3.2-0.3,4.7-0.7c8-2,14.1-7.5,17.1-14.5
				C99.6,63.5,100.3,60.2,100.2,56.5z M80.1,51.4c-0.1-0.1-0.2-0.2-0.3-0.2c-0.3-0.3-0.5-0.7-0.7-1c-0.4-0.7-0.8-1.5-1.2-2.3
				c-0.2-0.3-0.3-0.7-0.4-1c-0.1-0.2-0.1-0.5-0.1-0.8c-0.1-0.6,0.2-1.2,0.7-1.5c0.3-0.2,0.7-0.4,1.1-0.6c0.5-0.2,1-0.3,1.5-0.5
				c1.1-0.3,1.8-1,2.1-2c0.1-0.2,0.1-0.4,0.2-0.5c0.3-1.1,0.3-2.3,0.1-3.4c-0.3-1.2-0.6-2.4-0.9-3.6c-0.1-0.2-0.2-0.5-0.3-0.7
				c-0.2-0.5-0.6-0.8-1.1-1c-0.2-0.1-0.5-0.2-0.7-0.2c-1-0.2-2.1-0.4-3.1-0.4c-1.8-0.1-3.7,0-5.5,0.3c-2.6,0.5-5.1,1.3-7.5,2.5
				c-4.1,2.1-7.5,5.1-10,9c-1.2,1.9-2,4-2.7,6.1c0,0.1-0.1,0.2-0.1,0.3c-0.1,0.4,0.1,0.7,0.5,0.9s0.8,0.3,1.2,0.1
				c0.1-0.1,0.2-0.2,0.3-0.3c0.1-0.2,0.2-0.4,0.2-0.6c0.6-2,1.5-3.8,2.7-5.6c3.2-4.9,7.5-8.2,13.2-9.7c2.1-0.6,4.3-0.8,6.5-0.9
				c0.7,0,1.5,0,2.2,0.1c2,0.3,3.2,1.6,3.5,3.6c0.1,0.7,0.1,1.4,0,2.1c-0.1,1.1-0.7,1.8-1.7,2.2c-0.3,0.1-0.6,0.2-0.9,0.3
				c-1.3,0.4-2.3,1.1-3,2.3c-0.6,1-0.8,2.1-0.2,3.2c0.8,1.8,1.8,3.4,2.9,5c0.2,0.3,0.4,0.5,0.7,0.8c0.7,0.6,1.5,0.6,2.2,0.1
				c0.4-0.2,0.7-0.5,1-0.9c0.4-0.6,0.8-1.1,1.1-1.7c0.3-0.6,0.6-1.2,0.9-1.8c0.1-0.3,0.3-0.5,0.5-0.8c0.3-0.4,0.8-0.4,1.2,0
				c0.2,0.2,0.4,0.4,0.5,0.7c0.4,0.6,0.7,1.3,1,2c0.6,1.4,1.7,2.2,3.3,2.2c1.1,0,2.2,0,3.3-0.3c1.3-0.3,2.6-0.6,3.9-0.9
				c0.4-0.1,0.7-0.2,1-0.4c0.6-0.3,0.8-0.8,0.7-1.5c-0.1-0.5-0.2-1-0.4-1.4c-0.6-1.3-1.1-2.6-1.8-3.8c-0.8-1.5-1.7-3-2.8-4.3
				c-2.5-3-5.7-5.2-9.2-6.8c-0.2-0.1-0.4-0.2-0.6-0.2c-0.5-0.1-0.9,0-1.1,0.5c-0.3,0.5-0.2,1,0.2,1.3c0.2,0.2,0.4,0.2,0.6,0.3
				c0.5,0.2,0.9,0.4,1.4,0.7c5,2.6,8.6,6.6,10.9,11.8c0.1,0.3,0.2,0.5,0.3,0.8c0.2,0.8-0.1,1.1-0.8,1.4c-0.1,0-0.2,0.1-0.3,0.1
				c-0.8,0.2-1.7,0.4-2.6,0.5c-0.9,0.2-1.8,0.3-2.7,0.1c-0.7-0.2-1.2-0.5-1.6-1.2c-0.2-0.4-0.3-0.8-0.5-1.2
				c-0.3-0.8-0.8-1.5-1.5-2.1c-0.2-0.2-0.5-0.4-0.8-0.5c-0.8-0.4-1.7-0.4-2.4,0.2c-0.3,0.2-0.6,0.5-0.8,0.8
				c-0.3,0.4-0.5,0.8-0.7,1.2c-0.3,0.5-0.5,1-0.8,1.5C81.1,50.3,80.7,50.9,80.1,51.4z M89.1,56.6c-0.7,0-1.5,0.1-2.3,0.4
				c-1.2,0.4-2.4,1-3.4,1.8c-0.9,0.6-1.9,1-3,1c-0.8,0-1.3,0.4-1.7,1.1c-0.4,0.7-0.3,1.4,0.4,1.9c1.4,1.1,2.8,2.1,4.4,2.9
				c0.7,0.3,1.3,0.6,2,0.9c0.2,0.1,0.4,0.1,0.5,0.1c0.7-0.1,1.4-0.2,2.1-0.4c0.7-0.2,1.2-0.7,1.6-1.3c0.5-0.7,1-1.4,1.5-2.1
				c0.5-0.7,1-1.3,1.5-1.9c0.2-0.2,0.3-0.4,0.4-0.6c0.5-0.9,0.3-1.8-0.4-2.5c-0.3-0.4-0.8-0.6-1.2-0.8C90.7,56.7,90,56.6,89.1,56.6z
				 M75.6,76.8c0.1,0,0.3,0,0.4,0c1.1-0.1,2.2-1,2.4-2.1c0.3-1.3-0.5-3.1-1.7-3.8c-0.5-0.3-1.1-0.4-1.6-0.1c-1.3,0.6-2.2,1.6-2.5,3
				c-0.3,1.1,0.3,2.2,1.3,2.6C74.4,76.7,75,76.8,75.6,76.8z"/>
		</g>
	</g>
	<g>
		<g>
			<path class="st0" d="M34.9,66.3c-2.9,1.1-6.6,0.1-8.7-2.8c-2-2.8-1.9-6.7,0.3-9.4c2.3-2.8,6-3.3,8.4-2.3
				c-0.1,0.9-0.3,1.9-0.4,2.8c-0.1,1-0.2,2-0.2,2.9c0,1,0,1.9,0,2.9c0,1,0.1,2,0.2,2.9C34.6,64.3,34.8,65.3,34.9,66.3z"/>
		</g>
	</g>
	<g>
		<g>
			<path class="st0" d="M36.8,45c-1.7-1-3.1-4.1-1.6-7c1.4-2.8,4.7-3.7,6.9-2.8c0,0.1-0.1,0.2-0.2,0.3c-2.1,2.8-3.7,5.9-5,9.1
				C36.9,44.8,36.9,44.9,36.8,45z"/>
		</g>
	</g>
	<g>
		<g>
			<path class="st0" d="M47.1,29.8c-0.7-1.5-0.2-3.8,1.5-5.1c1.6-1.2,4-1.1,5.2,0c-0.5,0.4-1.2,0.8-1.7,1.1
				c-0.6,0.4-1.2,0.8-1.7,1.2s-1.1,0.9-1.7,1.3C48.1,28.9,47.6,29.4,47.1,29.8z"/>
		</g>
	</g>
	<g>
		<g>
			<path class="st0" d="M82.1,62.3c0.3-0.1,0.5-0.2,0.7-0.2c0.6-0.2,1.1-0.5,1.6-1c0.1,0,0.1-0.1,0.1-0.2c0.7-1,1.7-1.5,2.8-1.7
				c0.9-0.2,1.8-0.2,2.7-0.3c0.2,0,0.3,0,0.5,0c0.4,0.1,0.6,0.6,0.4,0.9c-0.1,0.1-0.2,0.2-0.3,0.3c-0.9,0.8-1.6,1.8-2.1,2.8
				c-0.2,0.3-0.4,0.7-0.6,0.9c-0.3,0.4-0.7,0.6-1.2,0.7c-0.4,0.1-0.8,0-1.1-0.1c-0.2-0.1-0.5-0.2-0.7-0.3c-0.8-0.5-1.7-1-2.5-1.6
				C82.3,62.4,82.2,62.4,82.1,62.3z"/>
		</g>
	</g>
	<g>
		<g>
			<path class="st0" d="M75.3,74.8c-0.1,0-0.3-0.1-0.5-0.2c-0.2-0.1-0.3-0.3-0.3-0.6c0.1-0.5,0.4-0.8,0.8-1.1
				c0.3-0.2,0.7-0.2,0.9,0.2c0.1,0.1,0.2,0.3,0.2,0.4c0.2,0.7-0.1,1.2-0.8,1.2C75.6,74.8,75.5,74.8,75.3,74.8z"/>
		</g>
	</g>
</g>
</svg>
