<?xml version="1.0" encoding="utf-8"?>
<!-- Generator: Adobe Illustrator 28.3.0, SVG Export Plug-In . SVG Version: 6.00 Build 0)  -->
<svg version="1.1" id="Layer_1" xmlns="http://www.w3.org/2000/svg" xmlns:xlink="http://www.w3.org/1999/xlink" x="0px" y="0px"
	 viewBox="0 0 462.4 204.8" style="enable-background:new 0 0 462.4 204.8;" xml:space="preserve">
<style type="text/css">
	.st0{fill:#7367F0;}
</style>
<g>
	<g>
		<g>
			<g>
				<g>
					<path class="st0" d="M17.9,159.2v-6.4h3.2c0,1.2,0.3,2,0.9,2.6s1.2,0.8,2,0.8c0.6,0,1.1-0.2,1.5-0.6c0.4-0.4,0.6-0.9,0.6-1.4
						c0-0.6-0.2-1.1-0.6-1.5c-0.4-0.4-1.1-0.8-2.1-1.3c-2.2-1.1-3.7-2-4.4-2.8s-1.2-1.9-1.2-3.2c0-1.6,0.5-2.9,1.5-3.8
						c1-0.9,2.2-1.4,3.5-1.4c1.5,0,2.7,0.6,3.5,1.8v-1.6h3.2v5.7h-3.2c-0.1-0.9-0.4-1.6-0.9-2.1s-1.1-0.7-1.8-0.7
						c-0.5,0-1,0.1-1.3,0.4s-0.5,0.6-0.5,1.1c0,0.4,0.1,0.8,0.5,1.1c0.3,0.4,1.2,0.8,2.6,1.5c1.4,0.6,2.5,1.2,3.2,1.7
						c0.7,0.5,1.3,1.1,1.8,1.9s0.6,1.7,0.6,2.8c0,1.9-0.5,3.3-1.6,4.2s-2.4,1.4-3.8,1.4c-1.6,0-2.9-0.6-3.8-1.8v1.6L17.9,159.2
						L17.9,159.2z"/>
				</g>
				<g>
					<polygon class="st0" points="32.9,159.2 32.9,156 35.2,156 35.2,143.6 32.9,143.6 32.9,140.4 42,140.4 42,143.6 40,143.6 
						40,147.7 45.1,147.7 45.1,143.6 43.2,143.6 43.2,140.4 52.3,140.4 52.3,143.6 49.9,143.6 49.9,156 52.3,156 52.3,159.2 
						43.2,159.2 43.2,156 45.1,156 45.1,150.9 40,150.9 40,156 42,156 42,159.2 					"/>
				</g>
				<g>
					<path class="st0" d="M73.2,156v3.2h-9.3V156h2.4l-0.9-3.2h-4.9l-1,3.2h2.5v3.2h-8.3V156h2.3l3.7-12.5h-2.5v-3.2h12.3v3.2H67
						l3.9,12.5H73.2z M64.7,150l-1.6-5.7l-1.7,5.7H64.7z"/>
				</g>
				<g>
					<path class="st0" d="M74.8,159.2V156h2.3v-12.5h-2.3v-3.2h8.6c1.9,0,3.3,0.1,4.2,0.3s1.7,0.8,2.4,1.6s1,1.9,1,3
						c0,1.8-0.9,3.1-2.7,3.9c2.3,0.8,3.4,2.3,3.4,4.5c0,1.2-0.3,2.3-1.1,3.2c-0.7,0.9-1.6,1.5-2.7,1.8s-2.7,0.5-4.7,0.5L74.8,159.2
						L74.8,159.2z M82,147.8h1.4c1,0,1.7-0.2,2.1-0.5c0.4-0.3,0.7-0.9,0.7-1.7c0-0.8-0.2-1.3-0.7-1.6c-0.4-0.3-1.2-0.5-2.3-0.5H82
						C82,143.6,82,147.8,82,147.8z M82,156h1.4c1.2,0,2.1-0.2,2.6-0.5s0.7-1,0.7-1.9c0-1-0.3-1.6-0.8-2c-0.5-0.4-1.4-0.6-2.6-0.6H82
						L82,156L82,156z"/>
				</g>
				<g>
					<path class="st0" d="M94,143.6v-3.2h9v3.2h-1.8v8.5c0,1.1,0.1,2,0.1,2.5c0.1,0.5,0.3,0.9,0.8,1.2s0.9,0.5,1.5,0.5
						c0.6,0,1.2-0.1,1.6-0.5c0.4-0.3,0.7-0.7,0.8-1.1c0.1-0.5,0.2-1.4,0.2-2.8v-8.3h-1.8v-3.2h7.5v3.2h-2.3v9.4
						c0,1.3-0.1,2.2-0.2,2.8c-0.1,0.6-0.4,1.2-0.9,1.7s-1.2,1-2.1,1.4c-0.9,0.4-2,0.5-3.2,0.5c-1.4,0-2.6-0.2-3.6-0.6
						s-1.7-0.9-2.2-1.6s-0.8-1.3-0.9-1.9c-0.1-0.6-0.2-1.7-0.2-3.3v-8.5H94z"/>
				</g>
				<g>
					<path class="st0" d="M112.7,164.7v-3.4c0.5,0.1,1,0.2,1.4,0.2c0.8,0,1.3-0.2,1.6-0.6c0.3-0.4,0.5-1.1,0.5-2.2v-15.1h-2.8v-3.2
						h10.3v3.2h-2.6v15.3c0,2.1-0.5,3.6-1.5,4.6c-1,1-2.4,1.5-4.1,1.5C114.7,165,113.8,164.9,112.7,164.7z"/>
				</g>
				<g>
					<path class="st0" d="M145.8,152.9v-3.2h8.8c0,2.3-0.4,4.1-1.2,5.4s-2,2.4-3.6,3.1c-1.6,0.8-3.3,1.1-5.3,1.1
						c-3.4,0-6-0.9-7.8-2.7c-1.8-1.8-2.7-4.1-2.7-6.9c0-1.9,0.4-3.7,1.4-5.2c0.9-1.5,2.1-2.6,3.6-3.4c1.5-0.8,3.2-1.1,5-1.1
						c2.5,0,4.5,0.6,5.9,1.8v-1.5h3.2v6.7h-3.2c-0.3-1.1-1-2-2-2.7s-2.1-1-3.2-1c-1.5,0-2.8,0.5-3.8,1.6s-1.6,2.5-1.6,4.4
						c0,2.1,0.5,3.8,1.6,4.9c1.1,1.1,2.4,1.7,3.9,1.7c1.1,0,2.1-0.3,2.8-0.8s1.3-1.3,1.6-2.3L145.8,152.9L145.8,152.9z"/>
				</g>
				<g>
					<polygon class="st0" points="157.4,159.2 157.4,156 160.1,156 160.1,143.6 157.4,143.6 157.4,140.4 167.7,140.4 167.7,143.6 
						165,143.6 165,156 170.5,156 170.5,150.2 174.2,150.2 174.2,159.2 					"/>
				</g>
				<g>
					<path class="st0" d="M187,140.1c3.2,0,5.8,0.9,7.7,2.8s2.8,4.2,2.8,6.9c0,2.7-0.9,5-2.8,6.9c-1.9,1.9-4.4,2.8-7.7,2.8
						c-3.4,0-5.9-1-7.8-2.9c-1.8-1.9-2.7-4.2-2.7-6.8c0-2.7,0.9-5,2.8-6.9S183.8,140.1,187,140.1z M187,143.5
						c-1.4,0-2.7,0.5-3.7,1.6s-1.5,2.7-1.5,4.8c0,1.9,0.5,3.3,1.5,4.4s2.2,1.7,3.7,1.7c1.4,0,2.7-0.5,3.7-1.6c1-1.1,1.5-2.7,1.5-4.7
						c0-1.8-0.5-3.3-1.4-4.4C189.8,144.1,188.6,143.5,187,143.5z"/>
				</g>
				<g>
					<path class="st0" d="M200.5,159.2V156h2.3v-12.5h-2.3v-3.2h8.6c1.9,0,3.3,0.1,4.2,0.3s1.7,0.8,2.4,1.6c0.7,0.9,1,1.9,1,3
						c0,1.8-0.9,3.1-2.6,3.9c2.3,0.8,3.4,2.3,3.4,4.5c0,1.2-0.4,2.3-1.1,3.2s-1.6,1.5-2.7,1.8s-2.7,0.5-4.6,0.5L200.5,159.2
						L200.5,159.2z M207.7,147.8h1.4c1,0,1.7-0.2,2.1-0.5c0.4-0.3,0.7-0.9,0.7-1.7c0-0.8-0.2-1.3-0.7-1.6s-1.2-0.5-2.3-0.5h-1.2
						V147.8z M207.7,156h1.4c1.2,0,2.1-0.2,2.6-0.5s0.8-1,0.8-1.9c0-1-0.3-1.6-0.8-2c-0.5-0.4-1.4-0.6-2.6-0.6h-1.4V156z"/>
				</g>
				<g>
					<path class="st0" d="M239,156v3.2h-9.3V156h2.4l-0.9-3.2h-4.9l-1,3.2h2.5v3.2h-8.3V156h2.3l3.7-12.5h-2.5v-3.2h12.3v3.2h-2.5
						l3.9,12.5H239z M230.5,150l-1.6-5.7l-1.7,5.7H230.5z"/>
				</g>
				<g>
					<polygon class="st0" points="240.4,159.2 240.4,156 243.1,156 243.1,143.6 240.4,143.6 240.4,140.4 250.8,140.4 250.8,143.6 
						248,143.6 248,156 253.6,156 253.6,150.2 257.3,150.2 257.3,159.2 					"/>
				</g>
				<g>
					<polygon class="st0" points="266.8,159.2 266.8,156 269.1,156 269.1,143.6 266.8,143.6 266.8,140.4 283.4,140.4 283.4,146.4 
						279.8,146.4 279.8,143.6 274,143.6 274,147.9 278.7,147.9 278.7,151.1 274,151.1 274,156 279.8,156 279.8,153.2 283.4,153.2 
						283.4,159.2 266.8,159.2 					"/>
				</g>
				<g>
					<path class="st0" d="M285.8,159.2V156h2.9v-12.5h-2.9v-3.2h8.9c1.9,0,3.4,0.1,4.5,0.3c1.1,0.2,2.2,0.7,3.3,1.5s1.9,1.9,2.5,3.2
						c0.6,1.3,1,2.8,1,4.4c0,1.3-0.2,2.6-0.7,3.7c-0.4,1.2-1,2.1-1.6,2.9s-1.4,1.3-2.4,1.7s-1.8,0.7-2.5,0.8
						c-0.8,0.1-1.9,0.2-3.5,0.2L285.8,159.2L285.8,159.2z M293.5,156h1.2c1.4,0,2.6-0.2,3.4-0.6s1.5-1,2-2c0.5-0.9,0.8-2.2,0.8-3.7
						c0-1.4-0.2-2.6-0.8-3.7c-0.5-1-1.2-1.7-2.1-2.1s-2-0.6-3.3-0.6h-1.2L293.5,156L293.5,156z"/>
				</g>
				<g>
					<path class="st0" d="M308.5,143.6v-3.2h9v3.2h-1.9v8.5c0,1.1,0,2,0.1,2.5s0.3,0.9,0.8,1.2s0.9,0.5,1.5,0.5
						c0.6,0,1.2-0.1,1.6-0.5c0.4-0.3,0.7-0.7,0.8-1.1c0.1-0.5,0.2-1.4,0.2-2.8v-8.3h-1.8v-3.2h7.5v3.2h-2.3v9.4
						c0,1.3-0.1,2.2-0.2,2.8c-0.1,0.6-0.5,1.2-0.9,1.7s-1.2,1-2.1,1.4s-2,0.5-3.2,0.5c-1.4,0-2.6-0.2-3.5-0.6
						c-1-0.4-1.7-0.9-2.2-1.6s-0.8-1.3-0.9-1.9s-0.2-1.7-0.2-3.3v-8.5H308.5z"/>
				</g>
				<g>
					<path class="st0" d="M344.4,140.4h3.2v6.6h-3.2c-0.9-2.4-2.5-3.6-4.7-3.6c-1.8,0-3.2,0.6-4.2,1.9c-0.9,1.2-1.4,2.8-1.4,4.5
						c0,1.8,0.5,3.3,1.5,4.4c1,1.1,2.3,1.7,3.8,1.7c1.3,0,2.4-0.4,3.3-1.3s1.6-2.1,1.9-3.6l3.7,1.8c-1.4,4.4-4.5,6.6-9.3,6.6
						c-3.4,0-5.9-0.9-7.7-2.7c-1.7-1.8-2.6-4.1-2.6-6.9c0-2,0.5-3.7,1.3-5.2s2.1-2.6,3.6-3.4c1.5-0.8,3.2-1.1,5-1.1
						c2.2,0,4.1,0.6,5.6,1.8V140.4z"/>
				</g>
				<g>
					<path class="st0" d="M368.6,156v3.2h-9.3V156h2.4l-0.9-3.2H356l-1,3.2h2.5v3.2h-8.3V156h2.3l3.7-12.5h-2.5v-3.2H365v3.2h-2.5
						l4,12.5H368.6z M360.1,150l-1.6-5.7l-1.7,5.7H360.1z"/>
				</g>
				<g>
					<polygon class="st0" points="372.6,159.2 372.6,156 375.4,156 375.4,143.6 372.6,143.6 372.6,148 369.3,148 369.3,140.4 
						386.4,140.4 386.4,148 383.2,148 383.2,143.6 380.3,143.6 380.3,156 383.1,156 383.1,159.2 					"/>
				</g>
				<g>
					<polygon class="st0" points="388.5,159.2 388.5,156 391.4,156 391.4,143.6 388.5,143.6 388.5,140.4 399.2,140.4 399.2,143.6 
						396.3,143.6 396.3,156 399.2,156 399.2,159.2 					"/>
				</g>
				<g>
					<path class="st0" d="M412.3,140.1c3.2,0,5.8,0.9,7.7,2.8c1.9,1.9,2.8,4.2,2.8,6.9c0,2.7-0.9,5-2.8,6.9s-4.4,2.8-7.7,2.8
						c-3.4,0-6-1-7.8-2.9s-2.7-4.2-2.7-6.8c0-2.7,0.9-5,2.8-6.9S409,140.1,412.3,140.1z M412.3,143.5c-1.4,0-2.7,0.5-3.7,1.6
						c-1,1.1-1.5,2.7-1.5,4.8c0,1.9,0.5,3.3,1.5,4.4s2.2,1.7,3.7,1.7c1.4,0,2.7-0.5,3.7-1.6s1.5-2.7,1.5-4.7c0-1.8-0.5-3.3-1.5-4.4
						C415.1,144.1,413.8,143.5,412.3,143.5z"/>
				</g>
				<g>
					<polygon class="st0" points="425.6,159.2 425.6,156 428.1,156 428.1,143.6 425.6,143.6 425.6,140.4 433.5,140.4 440.4,152.1 
						440.4,143.6 438,143.6 438,140.4 446.4,140.4 446.4,143.6 443.8,143.6 443.8,159.4 439.6,159.4 431.5,145.4 431.5,156 
						433.8,156 433.8,159.2 					"/>
				</g>
			</g>
		</g>
		<g>
			<g>
				<path class="st0" d="M76.1,182.7l-3.6-14.3h2l1.7,7.2c0.4,1.8,0.8,3.6,1.1,5h0c0.2-1.4,0.7-3.1,1.2-5l1.9-7.2h1.9l1.7,7.3
					c0.4,1.7,0.8,3.4,1,4.9h0c0.3-1.6,0.7-3.2,1.2-5l1.9-7.2h1.9l-4.1,14.3h-1.9l-1.8-7.5c-0.4-1.8-0.7-3.2-0.9-4.7h0
					c-0.2,1.4-0.6,2.8-1.1,4.7l-2,7.5L76.1,182.7L76.1,182.7z"/>
			</g>
			<g>
				<path class="st0" d="M101.3,177.5c0,3.8-2.6,5.5-5.1,5.5c-2.8,0-4.9-2-4.9-5.3c0-3.4,2.2-5.5,5.1-5.5
					C99.3,172.2,101.3,174.3,101.3,177.5z M93.2,177.6c0,2.2,1.3,4,3.1,4c1.8,0,3.1-1.7,3.1-4c0-1.7-0.9-4-3.1-4
					C94.1,173.6,93.2,175.6,93.2,177.6z"/>
			</g>
			<g>
				<path class="st0" d="M104.8,175.6c0-1.2,0-2.2-0.1-3.2h1.6l0.1,2h0.1c0.5-1.4,1.6-2.2,2.8-2.2c0.2,0,0.4,0,0.5,0.1v1.8
					c-0.2,0-0.4-0.1-0.6-0.1c-1.3,0-2.2,1-2.5,2.4c0,0.3-0.1,0.6-0.1,0.9v5.5h-1.8C104.8,182.7,104.8,175.6,104.8,175.6z"/>
			</g>
			<g>
				<rect x="112.9" y="167.6" class="st0" width="1.9" height="15.1"/>
			</g>
			<g>
				<path class="st0" d="M127.8,167.6v12.4c0,0.9,0,2,0.1,2.7h-1.7l-0.1-1.8h0c-0.6,1.1-1.8,2-3.5,2c-2.5,0-4.4-2.1-4.4-5.2
					c0-3.4,2.1-5.5,4.6-5.5c1.6,0,2.6,0.8,3.1,1.6h0v-6.1L127.8,167.6L127.8,167.6z M126,176.6c0-0.2,0-0.6-0.1-0.8
					c-0.3-1.2-1.3-2.2-2.7-2.2c-1.9,0-3.1,1.7-3.1,4c0,2.1,1,3.8,3,3.8c1.2,0,2.4-0.8,2.7-2.2c0.1-0.2,0.1-0.5,0.1-0.8V176.6z"/>
			</g>
			<g>
				<path class="st0" d="M132.8,172.4l1.4,5.2c0.3,1.1,0.6,2.2,0.8,3.3h0.1c0.2-1,0.6-2.1,0.9-3.2l1.7-5.2h1.6l1.6,5.1
					c0.4,1.2,0.7,2.3,0.9,3.4h0.1c0.2-1,0.4-2.1,0.8-3.3l1.5-5.2h1.9l-3.3,10.3h-1.7l-1.6-4.9c-0.4-1.1-0.7-2.2-0.9-3.4h0
					c-0.2,1.2-0.6,2.3-0.9,3.4l-1.7,4.9H134l-3.1-10.3L132.8,172.4L132.8,172.4z"/>
			</g>
			<g>
				<path class="st0" d="M150.8,169.5c0,0.6-0.4,1.1-1.2,1.1c-0.7,0-1.1-0.5-1.1-1.1c0-0.7,0.5-1.2,1.2-1.2
					C150.4,168.4,150.8,168.9,150.8,169.5z M148.7,182.7v-10.3h1.9v10.3H148.7z"/>
			</g>
			<g>
				<path class="st0" d="M163.7,167.6v12.4c0,0.9,0,2,0.1,2.7h-1.7l-0.1-1.8h0c-0.6,1.1-1.8,2-3.5,2c-2.5,0-4.4-2.1-4.4-5.2
					c0-3.4,2.1-5.5,4.6-5.5c1.6,0,2.6,0.8,3.1,1.6h0v-6.1L163.7,167.6L163.7,167.6z M161.8,176.6c0-0.2,0-0.6-0.1-0.8
					c-0.3-1.2-1.3-2.2-2.7-2.2c-1.9,0-3.1,1.7-3.1,4c0,2.1,1,3.8,3,3.8c1.2,0,2.4-0.8,2.7-2.2c0.1-0.2,0.1-0.5,0.1-0.8V176.6z"/>
			</g>
			<g>
				<path class="st0" d="M168.9,177.9c0,2.5,1.7,3.6,3.5,3.6c1.3,0,2.1-0.2,2.9-0.5l0.3,1.3c-0.7,0.3-1.8,0.6-3.4,0.6
					c-3.2,0-5.1-2.1-5.1-5.2s1.8-5.6,4.8-5.6c3.4,0,4.2,3,4.2,4.9c0,0.4,0,0.7-0.1,0.9H168.9z M174.4,176.6c0-1.2-0.5-3-2.6-3
					c-1.9,0-2.7,1.7-2.9,3H174.4z"/>
			</g>
			<g>
				<path class="st0" d="M187.1,168.4v8.5c0,3.2,1.4,4.6,3.3,4.6c2.1,0,3.5-1.4,3.5-4.6v-8.5h1.9v8.4c0,4.4-2.3,6.2-5.4,6.2
					c-2.9,0-5.1-1.7-5.1-6.1v-8.4L187.1,168.4L187.1,168.4z"/>
			</g>
			<g>
				<path class="st0" d="M200,175.2c0-1.1,0-1.9-0.1-2.8h1.7l0.1,1.7h0c0.5-1,1.7-1.9,3.4-1.9c1.4,0,3.6,0.9,3.6,4.4v6.1h-1.9v-5.9
					c0-1.7-0.6-3-2.4-3c-1.2,0-2.2,0.9-2.5,1.9c-0.1,0.2-0.1,0.6-0.1,0.9v6.2H200L200,175.2L200,175.2z"/>
			</g>
			<g>
				<path class="st0" d="M214.9,169.5c0,0.6-0.4,1.1-1.2,1.1c-0.7,0-1.1-0.5-1.1-1.1c0-0.7,0.5-1.2,1.2-1.2
					C214.5,168.4,214.9,168.9,214.9,169.5z M212.8,182.7v-10.3h1.9v10.3H212.8z"/>
			</g>
			<g>
				<path class="st0" d="M219.6,172.4l2,5.8c0.3,0.9,0.6,1.8,0.8,2.6h0.1c0.2-0.9,0.5-1.7,0.9-2.6l2-5.8h2l-4,10.3h-1.8l-3.9-10.3
					H219.6z"/>
			</g>
			<g>
				<path class="st0" d="M231,177.9c0,2.5,1.7,3.6,3.5,3.6c1.3,0,2.1-0.2,2.9-0.5l0.3,1.3c-0.7,0.3-1.8,0.6-3.4,0.6
					c-3.2,0-5.1-2.1-5.1-5.2s1.8-5.6,4.8-5.6c3.4,0,4.2,3,4.2,4.9c0,0.4,0,0.7-0.1,0.9H231z M236.5,176.6c0-1.2-0.5-3-2.6-3
					c-1.9,0-2.7,1.7-2.9,3H236.5z"/>
			</g>
			<g>
				<path class="st0" d="M241.7,175.6c0-1.2,0-2.2-0.1-3.2h1.6l0.1,2h0.1c0.5-1.4,1.6-2.2,2.9-2.2c0.2,0,0.4,0,0.5,0.1v1.8
					c-0.2,0-0.4-0.1-0.6-0.1c-1.3,0-2.2,1-2.5,2.4c0,0.3-0.1,0.6-0.1,0.9v5.5h-1.9V175.6z"/>
			</g>
			<g>
				<path class="st0" d="M249.4,180.8c0.6,0.4,1.5,0.7,2.5,0.7c1.4,0,2-0.7,2-1.5c0-0.9-0.5-1.4-1.9-1.9c-1.9-0.7-2.7-1.7-2.7-2.9
					c0-1.7,1.3-3,3.6-3c1,0,2,0.3,2.5,0.6l-0.5,1.4c-0.4-0.3-1.1-0.6-2.1-0.6c-1.1,0-1.7,0.6-1.7,1.4c0,0.9,0.6,1.2,2,1.7
					c1.8,0.7,2.7,1.6,2.7,3.1c0,1.8-1.4,3.1-3.9,3.1c-1.1,0-2.2-0.3-2.9-0.7L249.4,180.8z"/>
			</g>
			<g>
				<path class="st0" d="M261.3,169.5c0,0.6-0.5,1.1-1.2,1.1c-0.7,0-1.1-0.5-1.1-1.1c0-0.7,0.5-1.2,1.2-1.2
					C260.8,168.4,261.3,168.9,261.3,169.5z M259.2,182.7v-10.3h1.9v10.3H259.2z"/>
			</g>
			<g>
				<path class="st0" d="M267.5,169.5v3h2.7v1.4h-2.7v5.6c0,1.3,0.4,2,1.4,2c0.5,0,0.9-0.1,1.1-0.1l0.1,1.4
					c-0.4,0.1-0.9,0.3-1.7,0.3c-0.9,0-1.6-0.3-2-0.8c-0.5-0.6-0.7-1.5-0.7-2.7v-5.6H264v-1.4h1.6v-2.5L267.5,169.5z"/>
			</g>
			<g>
				<path class="st0" d="M274.2,172.4l2.2,6.1c0.2,0.7,0.5,1.5,0.7,2.1h0c0.2-0.6,0.4-1.4,0.7-2.1l2-6h2l-2.8,7.3
					c-1.3,3.5-2.2,5.3-3.5,6.4c-0.9,0.8-1.8,1.1-2.3,1.2l-0.5-1.6c0.5-0.1,1.1-0.4,1.6-0.9c0.5-0.4,1.1-1.1,1.6-2.1
					c0.1-0.2,0.1-0.3,0.1-0.4s0-0.2-0.1-0.5l-3.8-9.5H274.2z"/>
			</g>
			<g>
				<path class="st0" d="M292.6,178.2l-1.5,4.5h-1.9l4.9-14.3h2.2l4.9,14.3h-2l-1.5-4.5H292.6z M297.3,176.8l-1.4-4.1
					c-0.3-0.9-0.5-1.8-0.7-2.6h0c-0.2,0.9-0.5,1.7-0.7,2.6l-1.4,4.1L297.3,176.8L297.3,176.8z"/>
			</g>
			<g>
				<path class="st0" d="M312.9,167.6v12.4c0,0.9,0,2,0.1,2.7h-1.7l-0.1-1.8h0c-0.6,1.1-1.8,2-3.5,2c-2.5,0-4.4-2.1-4.4-5.2
					c0-3.4,2.1-5.5,4.6-5.5c1.6,0,2.6,0.8,3.1,1.6h0v-6.1L312.9,167.6L312.9,167.6z M311,176.6c0-0.2,0-0.6-0.1-0.8
					c-0.3-1.2-1.3-2.2-2.7-2.2c-1.9,0-3.1,1.7-3.1,4c0,2.1,1,3.8,3,3.8c1.2,0,2.4-0.8,2.7-2.2c0.1-0.2,0.1-0.5,0.1-0.8V176.6z"/>
			</g>
			<g>
				<path class="st0" d="M317.1,175.2c0-1.1,0-1.9-0.1-2.8h1.6l0.1,1.7h0.1c0.6-1,1.5-1.9,3.2-1.9c1.4,0,2.5,0.9,2.9,2.1h0
					c0.3-0.6,0.7-1,1.1-1.3c0.6-0.5,1.3-0.7,2.3-0.7c1.4,0,3.4,0.9,3.4,4.5v6.1h-1.8v-5.8c0-2-0.7-3.2-2.2-3.2
					c-1.1,0-1.9,0.8-2.2,1.7c-0.1,0.2-0.1,0.6-0.1,0.9v6.4h-1.8v-6.2c0-1.6-0.7-2.8-2.1-2.8c-1.2,0-2,0.9-2.3,1.9
					c-0.1,0.3-0.1,0.6-0.1,0.9v6.2h-1.8L317.1,175.2L317.1,175.2z"/>
			</g>
			<g>
				<path class="st0" d="M338,169.5c0,0.6-0.5,1.1-1.2,1.1c-0.7,0-1.1-0.5-1.1-1.1c0-0.7,0.5-1.2,1.2-1.2
					C337.5,168.4,338,168.9,338,169.5z M335.9,182.7v-10.3h1.9v10.3H335.9z"/>
			</g>
			<g>
				<path class="st0" d="M341.7,180.8c0.5,0.4,1.5,0.7,2.5,0.7c1.4,0,2-0.7,2-1.5c0-0.9-0.5-1.4-1.9-1.9c-1.9-0.7-2.7-1.7-2.7-2.9
					c0-1.7,1.3-3,3.5-3c1,0,2,0.3,2.5,0.6l-0.5,1.4c-0.4-0.3-1.1-0.6-2.1-0.6c-1.1,0-1.7,0.6-1.7,1.4c0,0.9,0.6,1.2,2,1.7
					c1.8,0.7,2.7,1.6,2.7,3.1c0,1.8-1.4,3.1-3.9,3.1c-1.1,0-2.2-0.3-2.9-0.7L341.7,180.8z"/>
			</g>
			<g>
				<path class="st0" d="M351.1,180.8c0.5,0.4,1.5,0.7,2.5,0.7c1.4,0,2-0.7,2-1.5c0-0.9-0.5-1.4-1.9-1.9c-1.9-0.7-2.7-1.7-2.7-2.9
					c0-1.7,1.3-3,3.5-3c1,0,2,0.3,2.5,0.6l-0.5,1.4c-0.4-0.3-1.1-0.6-2.1-0.6c-1.1,0-1.7,0.6-1.7,1.4c0,0.9,0.6,1.2,2,1.7
					c1.8,0.7,2.7,1.6,2.7,3.1c0,1.8-1.4,3.1-3.9,3.1c-1.1,0-2.2-0.3-2.9-0.7L351.1,180.8z"/>
			</g>
			<g>
				<path class="st0" d="M363,169.5c0,0.6-0.5,1.1-1.2,1.1c-0.7,0-1.1-0.5-1.1-1.1c0-0.7,0.5-1.2,1.2-1.2
					C362.5,168.4,363,168.9,363,169.5z M360.9,182.7v-10.3h1.9v10.3H360.9z"/>
			</g>
			<g>
				<path class="st0" d="M376.2,177.5c0,3.8-2.6,5.5-5.1,5.5c-2.8,0-4.9-2-4.9-5.3c0-3.4,2.2-5.5,5.1-5.5
					C374.2,172.2,376.2,174.3,376.2,177.5z M368.1,177.6c0,2.2,1.3,4,3.1,4c1.8,0,3.1-1.7,3.1-4c0-1.7-0.9-4-3.1-4
					C369,173.6,368.1,175.6,368.1,177.6z"/>
			</g>
			<g>
				<path class="st0" d="M379.7,175.2c0-1.1,0-1.9-0.1-2.8h1.7l0.1,1.7h0c0.5-1,1.7-1.9,3.4-1.9c1.4,0,3.6,0.9,3.6,4.4v6.1h-1.9
					v-5.9c0-1.7-0.6-3-2.4-3c-1.2,0-2.2,0.9-2.5,1.9c-0.1,0.2-0.1,0.6-0.1,0.9v6.2h-1.9L379.7,175.2L379.7,175.2z"/>
			</g>
		</g>
	</g>
	<g>
		<g>
			<g>
				<path class="st0" d="M190.3,82.5c-0.6-1.4-1.7-5.6-1.8-6.8c0.2-0.1,0.4-0.2,0.6-0.3c3.2-1.5,5.1-4,5.7-7.4
					c0.8-5-2.2-8.7-5.5-10.2c-0.2-0.1-0.5-0.2-0.8-0.3c0-0.2,0-0.5,0-0.7c0.5-2.3,1.1-4.6,1.9-6.8c0.1-0.2,0.1-0.3,0.2-0.5
					c2,1.3,4.1,1.8,6.4,1c1.9-0.6,3.2-1.7,4.2-3.5c1-1.9,1.2-3.9,0.4-6c-0.7-2-2.2-3.3-4.1-4.2c0.8-1.4,4.6-5.6,5.8-6.4
					c0.1,0.2,0.3,0.4,0.4,0.7c1,1.7,2.6,2.7,4.6,2.8c3.1,0.2,5.6-2.1,5.9-5c0.2-1.8-0.3-3.4-1.6-4.7c-0.1-0.1-0.2-0.2-0.4-0.4
					c0,0,0,0,0-0.1c1.4-1.2,7.5-3.9,11.4-5c7-2,14-2.5,21.2-1.4c7.6,1.1,14.5,3.9,20.9,8.2c18.9,13,26.3,36.5,18.9,57.6
					c-7.7,21.8-27.8,32.9-45.2,33.2c0-0.2-0.1-0.4-0.1-0.6c0-4.9,0-9.8,0-14.7c0-0.2,0-0.3,0-0.6c0.5-0.1,0.9-0.2,1.4-0.2
					c7.1-0.7,13.5-3.2,19.2-7.3c0.5-0.3,0.9-0.7,1.4-1.1c0.4-0.3,0.6-0.8,0.9-1.2c0.2-0.3,0.3-0.6,0.3-1c0-1-0.9-1.5-1.8-1
					c-0.3,0.2-0.6,0.5-0.9,0.7c-2.8,2.5-6,4.5-9.5,6c-2.6,1.1-5.3,1.8-8.1,2.1c-1.5,0.2-3,0.3-4.5,0.3c-5.7-0.1-10.9-1.5-15.8-4.5
					c-8.3-5.1-13.8-12.3-16.6-21.6c-0.4-1.5-0.8-3-1.1-4.5c-0.1-0.4-0.2-0.9-0.4-1.2c-0.4-0.8-1.4-0.8-1.9,0
					c-0.2,0.4-0.3,0.8-0.2,1.3c0.1,0.9,0.2,1.8,0.3,2.6c0.9,5.3,3.1,10,6.3,14.3c4.7,6.3,10.7,11.1,18,14.1c3.1,1.3,6.2,2.1,9.5,2.4
					c0.1,0,0.2,0.1,0.3,0.1c0.2,0.3,0.1,0.6,0.1,0.9c0,1.9,0,3.8,0,5.6c0,2.8,0,5.6,0,8.4c0,0.3,0.1,0.6-0.1,0.9
					c-1.5,0.2-7.2-0.5-10.4-1.2c-3.4-0.8-6.8-2-9.9-3.5c-3.2-1.5-6.1-3.3-8.9-5.4s-5.3-4.5-7.6-7.2c-0.4,0.1-0.4,0.4-0.5,0.6
					c-0.6,1.3-1.4,2.6-2.5,3.6c-2.1,2-4.5,3.2-7.4,3.5c-6,0.7-12.3-3.4-13.3-10.3c-0.9-6.6,3.2-11.8,8.4-13.4
					c1.9-0.6,3.8-0.8,5.8-0.3c2.1,5.9,5.1,11.3,9.1,16.1c0.3-0.1,0.3-0.3,0.4-0.5c2.1-6.8-1.7-13.3-7.8-15.3
					C191.4,82.8,190.8,82.7,190.3,82.5z M269.9,63.5c0-0.8,0-1.9,0-2.9c0-0.4,0-0.9-0.1-1.3c-0.1-0.6-0.7-1-1.3-0.9
					c-0.7,0-1.1,0.4-1.1,1.1c0,0.4,0,0.8,0,1.1c0.3,3,0.2,6-0.4,8.9c-2.6,12.1-12.8,21.7-25.7,22.9c-1.4,0.1-2.7-0.1-3.8-1
					c-1.1-0.9-2.2-1.8-3.2-2.8c-0.5-0.6-1-1.1-1.4-1.8c-0.6-1-0.8-2.1-0.6-3.3c0.1-0.6,0.2-1.2,0.4-1.7c0.2-0.7,0.5-1.3,0.7-2
					c0.4-1,0.7-2.1,0.8-3.2c0.1-2.2-0.6-4-2.1-5.4c-0.3-0.3-0.7-0.5-1-0.8c-0.4-0.3-0.7-0.6-1-0.9c-0.6-0.7-0.6-1.4-0.2-2.2
					c0.1-0.3,0.3-0.5,0.5-0.8c0.2-0.2,0.4-0.4,0.6-0.7c0.9-1,1.5-2.2,1.8-3.6c0.2-1,0.2-2.1,0-3.2c-0.3-1.8-1.4-3-3.1-3.6
					c-1.3-0.4-2.5-0.4-3.8-0.1c-1.8,0.4-2.6,1.4-2.7,3.3c0,0.6,0,1.1,0,1.7c0.1,1.4-0.3,2.7-1.1,3.9c-0.4,0.5-0.7,1.1-1.1,1.6
					c-0.5,0.6-1,1.2-1.6,1.8c-0.3,0.3-0.6,0.6-0.9,0.8c-0.4,0.3-0.8,0.2-1.2,0c-0.5-0.3-0.8-0.7-0.9-1.2c-0.1-0.3-0.1-0.5-0.1-0.8
					c0-1.1,0.2-2.1,0.6-3.1c0.2-0.6,0.4-1.2,0.5-1.8c0-0.7-0.2-1.2-0.8-1.5c-0.5-0.2-1-0.4-1.5-0.5c-1-0.2-2-0.4-3-0.5
					c-0.6-0.1-1.2-0.1-1.9,0c-1.3,0.1-2.4,0.7-2.6,2.5c-0.1,0.3-0.1,0.7-0.1,1c0,2.6,0.2,5.1,0.7,7.7c2.1,10.5,9.7,19.2,19.3,22.9
					c1.3,0.5,2.5,0.9,3.9,1.2c0.9,0.2,1.4-0.2,1.6-1.1c0.1-0.5,0-0.9-0.4-1.1c-0.2-0.2-0.5-0.3-0.8-0.4c-0.7-0.2-1.4-0.4-2-0.6
					c-4.5-1.5-8.4-4-11.6-7.4c-5.1-5.4-7.8-11.8-7.9-19.3c0-0.5,0-0.9,0.1-1.4c0.1-0.6,0.5-1,1.1-1.2c0.7-0.2,1.4-0.1,2.1,0.1
					c0.5,0.1,0.7,0.4,0.7,1c0,0.2-0.1,0.5-0.1,0.7c-0.1,0.3-0.2,0.7-0.2,1c-0.2,1.5-0.2,2.9,0.4,4.3c0.3,0.7,0.7,1.4,1.3,1.9
					c0.6,0.5,1.2,0.7,1.9,0.7c0.6,0,1.1-0.2,1.7-0.4c0.9-0.4,1.7-1,2.4-1.7c1.5-1.4,2.6-3,3.4-4.9c0.6-1.4,1-2.9,0.9-4.5
					c0-0.3,0-0.5,0-0.8c0-0.8,0.4-1.2,1.2-1.3c0.4,0,0.7,0,1.1,0c1.2,0.2,2,0.9,2.1,2.1c0.1,1.1-0.1,2.2-0.6,3.2
					c-0.3,0.5-0.7,1-1,1.5c-0.5,0.6-0.9,1.2-1.2,1.9c-0.6,1.4-0.5,2.7,0.4,4c0.4,0.6,0.9,1.1,1.5,1.5c0.4,0.3,0.8,0.7,1.1,1.1
					c0.9,1,1.4,2.2,1.3,3.6c0,0.6-0.1,1.2-0.3,1.7c-0.3,1-0.6,2-1,3c-0.4,1.3-0.5,2.7-0.2,4c0.5,2.5,1.8,4.6,3.5,6.4
					c1.1,1.1,2.4,2,3.8,2.6c0.9,0.4,1.9,0.6,2.9,0.5c2-0.1,4-0.4,5.9-0.8c10-2.4,17.7-9.3,21.4-18.1C269.1,72.2,269.9,68,269.9,63.5
					z M244.7,57c-0.2-0.1-0.3-0.2-0.4-0.3c-0.3-0.4-0.7-0.8-0.9-1.3c-0.5-0.9-1-1.9-1.4-2.8c-0.2-0.4-0.3-0.8-0.5-1.2
					c-0.1-0.3-0.1-0.6-0.1-1c-0.1-0.8,0.3-1.4,0.9-1.9c0.4-0.3,0.9-0.5,1.3-0.7c0.6-0.2,1.2-0.4,1.8-0.6c1.3-0.4,2.2-1.2,2.6-2.5
					c0.1-0.2,0.1-0.5,0.2-0.7c0.4-1.4,0.4-2.8,0.1-4.3c-0.3-1.5-0.8-3-1.1-4.5c-0.1-0.3-0.2-0.6-0.4-0.9c-0.3-0.6-0.8-1-1.4-1.3
					c-0.3-0.1-0.6-0.2-0.9-0.3c-1.3-0.3-2.6-0.5-3.9-0.5c-2.3-0.1-4.6,0-6.8,0.4c-3.3,0.6-6.4,1.6-9.4,3.1
					c-5.2,2.7-9.4,6.4-12.6,11.3c-1.5,2.4-2.6,4.9-3.4,7.6c-0.1,0.1-0.1,0.3-0.1,0.4c-0.1,0.5,0.1,0.9,0.6,1.2
					c0.5,0.3,1,0.4,1.5,0.1c0.1-0.1,0.3-0.2,0.3-0.4c0.1-0.2,0.2-0.5,0.3-0.7c0.8-2.5,1.9-4.8,3.3-7c3.9-6.1,9.4-10.2,16.5-12.1
					c2.6-0.7,5.4-1,8.1-1.1c0.9,0,1.8,0,2.7,0.2c2.5,0.4,4,2,4.3,4.5c0.1,0.9,0.1,1.8,0,2.6c-0.1,1.3-0.8,2.2-2.1,2.7
					c-0.4,0.1-0.7,0.2-1.1,0.3c-1.6,0.5-2.9,1.4-3.8,2.8c-0.8,1.3-0.9,2.6-0.3,4c1,2.2,2.2,4.3,3.6,6.2c0.2,0.3,0.6,0.7,0.9,1
					c0.9,0.7,1.8,0.7,2.8,0.1c0.5-0.3,0.9-0.7,1.2-1.1c0.5-0.7,1-1.4,1.4-2.1c0.4-0.7,0.8-1.5,1.1-2.2c0.2-0.3,0.4-0.7,0.6-1
					c0.4-0.5,1-0.5,1.4,0c0.2,0.2,0.4,0.5,0.6,0.8c0.5,0.8,0.9,1.6,1.2,2.4c0.8,1.8,2.2,2.7,4.1,2.8c1.4,0,2.8-0.1,4.1-0.3
					c1.6-0.3,3.3-0.7,4.9-1.1c0.5-0.1,0.9-0.3,1.3-0.5c0.8-0.4,1-1,0.9-1.8c-0.1-0.6-0.3-1.2-0.5-1.8c-0.7-1.6-1.4-3.2-2.2-4.8
					c-1-1.9-2.2-3.7-3.6-5.3c-3.2-3.7-7.1-6.5-11.5-8.5c-0.2-0.1-0.5-0.2-0.7-0.3c-0.6-0.2-1.1,0.1-1.4,0.6
					c-0.3,0.6-0.3,1.2,0.2,1.6c0.2,0.2,0.5,0.3,0.8,0.4c0.6,0.3,1.2,0.5,1.8,0.8c6.3,3.3,10.8,8.2,13.6,14.7c0.1,0.3,0.3,0.7,0.4,1
					c0.2,1-0.1,1.4-1,1.7c-0.1,0-0.3,0.1-0.4,0.1c-1.1,0.2-2.1,0.5-3.2,0.7c-1.1,0.2-2.2,0.3-3.3,0.1c-0.9-0.2-1.6-0.6-1.9-1.5
					c-0.2-0.5-0.4-1-0.6-1.5c-0.4-1-1.1-1.9-1.9-2.6c-0.3-0.3-0.7-0.5-1-0.7c-1-0.5-2.1-0.5-3,0.2c-0.4,0.3-0.8,0.7-1.1,1
					c-0.4,0.5-0.6,1-0.9,1.5c-0.3,0.6-0.6,1.3-0.9,1.9C246,55.7,245.5,56.4,244.7,57z M256,63.6c-0.9,0-1.9,0.2-2.9,0.5
					c-1.5,0.5-3,1.3-4.3,2.2c-1.1,0.8-2.3,1.3-3.8,1.3c-0.9,0-1.7,0.5-2.1,1.3c-0.5,0.9-0.3,1.8,0.5,2.4c1.8,1.3,3.5,2.6,5.5,3.6
					c0.8,0.4,1.6,0.8,2.5,1.1c0.2,0.1,0.5,0.2,0.7,0.1c0.9-0.2,1.7-0.3,2.6-0.6c0.9-0.2,1.5-0.8,2-1.6c0.6-0.9,1.2-1.8,1.9-2.7
					c0.6-0.8,1.3-1.6,1.9-2.4c0.2-0.2,0.4-0.5,0.5-0.8c0.6-1.1,0.4-2.2-0.5-3.2c-0.4-0.4-1-0.8-1.6-0.9
					C258,63.7,257.1,63.6,256,63.6z M239.1,88.8c0.2,0,0.4,0,0.5,0c1.4-0.1,2.7-1.2,3-2.6c0.4-1.7-0.6-3.9-2.1-4.8
					c-0.7-0.4-1.3-0.4-2-0.1c-1.6,0.8-2.7,2-3.2,3.8c-0.3,1.3,0.4,2.7,1.6,3.3C237.6,88.7,238.3,88.8,239.1,88.8z"/>
			</g>
		</g>
		<g>
			<g>
				<path class="st0" d="M188.3,75.6c-3.7,1.3-8.3,0.1-10.9-3.4c-2.5-3.5-2.4-8.4,0.4-11.8c2.9-3.4,7.5-4.1,10.4-2.9
					c-0.1,1.2-0.4,2.3-0.5,3.5c-0.1,1.2-0.2,2.5-0.3,3.7c-0.1,1.2-0.1,2.4,0,3.6c0,1.2,0.1,2.5,0.3,3.7
					C187.9,73.2,188.1,74.4,188.3,75.6z"/>
			</g>
		</g>
		<g>
			<g>
				<path class="st0" d="M190.7,49.1c-2.1-1.2-3.8-5.1-2-8.7c1.8-3.5,5.9-4.6,8.6-3.4c-0.1,0.1-0.1,0.2-0.2,0.4
					c-2.6,3.5-4.6,7.3-6.2,11.4C190.8,48.8,190.8,48.9,190.7,49.1z"/>
			</g>
		</g>
		<g>
			<g>
				<path class="st0" d="M203.5,30.1c-0.9-1.9-0.2-4.8,1.8-6.3c2-1.5,4.9-1.4,6.6,0c-0.7,0.5-1.5,0.9-2.2,1.4
					c-0.7,0.5-1.4,1-2.1,1.5s-1.4,1.1-2.1,1.6C204.8,28.9,204.2,29.5,203.5,30.1z"/>
			</g>
		</g>
		<g>
			<g>
				<path class="st0" d="M247.2,70.6c0.4-0.1,0.6-0.2,0.9-0.3c0.8-0.2,1.4-0.7,1.9-1.3c0.1-0.1,0.1-0.1,0.2-0.2
					c0.9-1.2,2.1-1.9,3.5-2.2c1.1-0.2,2.2-0.3,3.3-0.4c0.2,0,0.4,0,0.6,0c0.5,0.1,0.8,0.7,0.5,1.2c-0.1,0.2-0.2,0.3-0.3,0.4
					c-1.1,1-1.9,2.2-2.6,3.5c-0.2,0.4-0.5,0.8-0.8,1.2c-0.4,0.5-0.9,0.8-1.5,0.9c-0.5,0.1-0.9,0-1.4-0.2c-0.3-0.1-0.6-0.2-0.9-0.4
					c-1.1-0.6-2.1-1.3-3.1-2C247.4,70.8,247.4,70.8,247.2,70.6z"/>
			</g>
		</g>
		<g>
			<g>
				<path class="st0" d="M238.7,86.3c-0.1,0-0.4-0.1-0.6-0.2c-0.3-0.1-0.4-0.4-0.3-0.7c0.2-0.6,0.5-1.1,1-1.4
					c0.4-0.3,0.9-0.2,1.1,0.2c0.1,0.2,0.2,0.3,0.3,0.5c0.3,0.8-0.1,1.5-1,1.6C239.1,86.3,239,86.3,238.7,86.3z"/>
			</g>
		</g>
	</g>
</g>
</svg>
