<?xml version="1.0" encoding="utf-8"?>
<!-- Generator: Adobe Illustrator 28.3.0, SVG Export Plug-In . SVG Version: 6.00 Build 0)  -->
<svg version="1.1" xmlns="http://www.w3.org/2000/svg" xmlns:xlink="http://www.w3.org/1999/xlink" x="0px" y="0px"
	 viewBox="0 0 466.667 213.373" enable-background="new 0 0 466.667 213.373" xml:space="preserve">
<g id="BACKGROUND">
</g>
<g id="OBJECTS">
	<g>
		<path fill="#FFFFFF" d="M422.113,126.066h-1c-0.69,0-1.25-0.56-1.25-1.25s0.56-1.25,1.25-1.25h1c0.69,0,1.25,0.56,1.25,1.25
			S422.804,126.066,422.113,126.066z M416.113,126.066h-1c-0.69,0-1.25-0.56-1.25-1.25s0.56-1.25,1.25-1.25h1
			c0.69,0,1.25,0.56,1.25,1.25S416.804,126.066,416.113,126.066z M410.113,126.066h-1c-0.69,0-1.25-0.56-1.25-1.25
			s0.56-1.25,1.25-1.25h1c0.69,0,1.25,0.56,1.25,1.25S410.804,126.066,410.113,126.066z M404.113,126.066h-1
			c-0.69,0-1.25-0.56-1.25-1.25s0.56-1.25,1.25-1.25h1c0.69,0,1.25,0.56,1.25,1.25S404.804,126.066,404.113,126.066z
			 M398.113,126.066h-1c-0.69,0-1.25-0.56-1.25-1.25s0.56-1.25,1.25-1.25h1c0.69,0,1.25,0.56,1.25,1.25
			S398.804,126.066,398.113,126.066z M392.113,126.066h-1c-0.69,0-1.25-0.56-1.25-1.25s0.56-1.25,1.25-1.25h1
			c0.69,0,1.25,0.56,1.25,1.25S392.804,126.066,392.113,126.066z M386.113,126.066h-1c-0.69,0-1.25-0.56-1.25-1.25
			s0.56-1.25,1.25-1.25h1c0.69,0,1.25,0.56,1.25,1.25S386.804,126.066,386.113,126.066z M380.113,126.066h-1
			c-0.69,0-1.25-0.56-1.25-1.25s0.56-1.25,1.25-1.25h1c0.69,0,1.25,0.56,1.25,1.25S380.804,126.066,380.113,126.066z
			 M374.113,126.066h-1c-0.69,0-1.25-0.56-1.25-1.25s0.56-1.25,1.25-1.25h1c0.69,0,1.25,0.56,1.25,1.25
			S374.804,126.066,374.113,126.066z M368.113,126.066h-1c-0.69,0-1.25-0.56-1.25-1.25s0.56-1.25,1.25-1.25h1
			c0.69,0,1.25,0.56,1.25,1.25S368.804,126.066,368.113,126.066z"/>
	</g>
	<g>
		<path fill="#FFFFFF" d="M446.518,117.733h-1c-0.69,0-1.25-0.56-1.25-1.25s0.56-1.25,1.25-1.25h1c0.69,0,1.25,0.56,1.25,1.25
			S447.208,117.733,446.518,117.733z M440.518,117.733h-1c-0.69,0-1.25-0.56-1.25-1.25s0.56-1.25,1.25-1.25h1
			c0.69,0,1.25,0.56,1.25,1.25S441.208,117.733,440.518,117.733z M434.518,117.733h-1c-0.69,0-1.25-0.56-1.25-1.25
			s0.56-1.25,1.25-1.25h1c0.69,0,1.25,0.56,1.25,1.25S435.208,117.733,434.518,117.733z M428.518,117.733h-1
			c-0.69,0-1.25-0.56-1.25-1.25s0.56-1.25,1.25-1.25h1c0.69,0,1.25,0.56,1.25,1.25S429.208,117.733,428.518,117.733z
			 M422.518,117.733h-1c-0.69,0-1.25-0.56-1.25-1.25s0.56-1.25,1.25-1.25h1c0.69,0,1.25,0.56,1.25,1.25
			S423.208,117.733,422.518,117.733z M416.518,117.733h-1c-0.69,0-1.25-0.56-1.25-1.25s0.56-1.25,1.25-1.25h1
			c0.69,0,1.25,0.56,1.25,1.25S417.208,117.733,416.518,117.733z M410.518,117.733h-1c-0.69,0-1.25-0.56-1.25-1.25
			s0.56-1.25,1.25-1.25h1c0.69,0,1.25,0.56,1.25,1.25S411.208,117.733,410.518,117.733z M404.518,117.733h-1
			c-0.69,0-1.25-0.56-1.25-1.25s0.56-1.25,1.25-1.25h1c0.69,0,1.25,0.56,1.25,1.25S405.208,117.733,404.518,117.733z
			 M398.518,117.733h-1c-0.69,0-1.25-0.56-1.25-1.25s0.56-1.25,1.25-1.25h1c0.69,0,1.25,0.56,1.25,1.25
			S399.208,117.733,398.518,117.733z M392.518,117.733h-1c-0.69,0-1.25-0.56-1.25-1.25s0.56-1.25,1.25-1.25h1
			c0.69,0,1.25,0.56,1.25,1.25S393.208,117.733,392.518,117.733z"/>
	</g>
	<g>
		<path fill="#FFFFFF" d="M87.293,106.683h-1c-0.69,0-1.25-0.56-1.25-1.25s0.56-1.25,1.25-1.25h1c0.69,0,1.25,0.56,1.25,1.25
			S87.984,106.683,87.293,106.683z M81.293,106.683h-1c-0.69,0-1.25-0.56-1.25-1.25s0.56-1.25,1.25-1.25h1
			c0.69,0,1.25,0.56,1.25,1.25S81.984,106.683,81.293,106.683z M75.293,106.683h-1c-0.69,0-1.25-0.56-1.25-1.25s0.56-1.25,1.25-1.25
			h1c0.69,0,1.25,0.56,1.25,1.25S75.984,106.683,75.293,106.683z M69.293,106.683h-1c-0.69,0-1.25-0.56-1.25-1.25
			s0.56-1.25,1.25-1.25h1c0.69,0,1.25,0.56,1.25,1.25S69.984,106.683,69.293,106.683z M63.293,106.683h-1
			c-0.69,0-1.25-0.56-1.25-1.25s0.56-1.25,1.25-1.25h1c0.69,0,1.25,0.56,1.25,1.25S63.984,106.683,63.293,106.683z M57.293,106.683
			h-1c-0.69,0-1.25-0.56-1.25-1.25s0.56-1.25,1.25-1.25h1c0.69,0,1.25,0.56,1.25,1.25S57.984,106.683,57.293,106.683z
			 M51.293,106.683h-1c-0.69,0-1.25-0.56-1.25-1.25s0.56-1.25,1.25-1.25h1c0.69,0,1.25,0.56,1.25,1.25
			S51.984,106.683,51.293,106.683z M45.293,106.683h-1c-0.69,0-1.25-0.56-1.25-1.25s0.56-1.25,1.25-1.25h1
			c0.69,0,1.25,0.56,1.25,1.25S45.984,106.683,45.293,106.683z M39.293,106.683h-1c-0.69,0-1.25-0.56-1.25-1.25s0.56-1.25,1.25-1.25
			h1c0.69,0,1.25,0.56,1.25,1.25S39.984,106.683,39.293,106.683z M33.293,106.683h-1c-0.69,0-1.25-0.56-1.25-1.25
			s0.56-1.25,1.25-1.25h1c0.69,0,1.25,0.56,1.25,1.25S33.984,106.683,33.293,106.683z"/>
	</g>
	<g>
		<path fill="#FFFFFF" d="M218.814,88.167h-1c-0.69,0-1.25-0.56-1.25-1.25s0.56-1.25,1.25-1.25h1c0.69,0,1.25,0.56,1.25,1.25
			S219.504,88.167,218.814,88.167z M212.814,88.167h-1c-0.69,0-1.25-0.56-1.25-1.25s0.56-1.25,1.25-1.25h1
			c0.69,0,1.25,0.56,1.25,1.25S213.504,88.167,212.814,88.167z M206.814,88.167h-1c-0.69,0-1.25-0.56-1.25-1.25s0.56-1.25,1.25-1.25
			h1c0.69,0,1.25,0.56,1.25,1.25S207.504,88.167,206.814,88.167z M200.814,88.167h-1c-0.69,0-1.25-0.56-1.25-1.25
			s0.56-1.25,1.25-1.25h1c0.69,0,1.25,0.56,1.25,1.25S201.504,88.167,200.814,88.167z M194.814,88.167h-1
			c-0.69,0-1.25-0.56-1.25-1.25s0.56-1.25,1.25-1.25h1c0.69,0,1.25,0.56,1.25,1.25S195.504,88.167,194.814,88.167z M188.814,88.167
			h-1c-0.69,0-1.25-0.56-1.25-1.25s0.56-1.25,1.25-1.25h1c0.69,0,1.25,0.56,1.25,1.25S189.504,88.167,188.814,88.167z
			 M182.814,88.167h-1c-0.69,0-1.25-0.56-1.25-1.25s0.56-1.25,1.25-1.25h1c0.69,0,1.25,0.56,1.25,1.25
			S183.504,88.167,182.814,88.167z M176.814,88.167h-1c-0.69,0-1.25-0.56-1.25-1.25s0.56-1.25,1.25-1.25h1
			c0.69,0,1.25,0.56,1.25,1.25S177.504,88.167,176.814,88.167z M170.814,88.167h-1c-0.69,0-1.25-0.56-1.25-1.25s0.56-1.25,1.25-1.25
			h1c0.69,0,1.25,0.56,1.25,1.25S171.504,88.167,170.814,88.167z M164.814,88.167h-1c-0.69,0-1.25-0.56-1.25-1.25
			s0.56-1.25,1.25-1.25h1c0.69,0,1.25,0.56,1.25,1.25S165.504,88.167,164.814,88.167z"/>
	</g>
	<g>
		<path fill="#FFFFFF" d="M183.218,79.833h-1c-0.69,0-1.25-0.56-1.25-1.25s0.56-1.25,1.25-1.25h1c0.69,0,1.25,0.56,1.25,1.25
			S183.908,79.833,183.218,79.833z M177.218,79.833h-1c-0.69,0-1.25-0.56-1.25-1.25s0.56-1.25,1.25-1.25h1
			c0.69,0,1.25,0.56,1.25,1.25S177.908,79.833,177.218,79.833z M171.218,79.833h-1c-0.69,0-1.25-0.56-1.25-1.25s0.56-1.25,1.25-1.25
			h1c0.69,0,1.25,0.56,1.25,1.25S171.908,79.833,171.218,79.833z M165.218,79.833h-1c-0.69,0-1.25-0.56-1.25-1.25
			s0.56-1.25,1.25-1.25h1c0.69,0,1.25,0.56,1.25,1.25S165.908,79.833,165.218,79.833z M159.218,79.833h-1
			c-0.69,0-1.25-0.56-1.25-1.25s0.56-1.25,1.25-1.25h1c0.69,0,1.25,0.56,1.25,1.25S159.908,79.833,159.218,79.833z M153.218,79.833
			h-1c-0.69,0-1.25-0.56-1.25-1.25s0.56-1.25,1.25-1.25h1c0.69,0,1.25,0.56,1.25,1.25S153.908,79.833,153.218,79.833z
			 M147.218,79.833h-1c-0.69,0-1.25-0.56-1.25-1.25s0.56-1.25,1.25-1.25h1c0.69,0,1.25,0.56,1.25,1.25
			S147.908,79.833,147.218,79.833z M141.218,79.833h-1c-0.69,0-1.25-0.56-1.25-1.25s0.56-1.25,1.25-1.25h1
			c0.69,0,1.25,0.56,1.25,1.25S141.908,79.833,141.218,79.833z M135.218,79.833h-1c-0.69,0-1.25-0.56-1.25-1.25s0.56-1.25,1.25-1.25
			h1c0.69,0,1.25,0.56,1.25,1.25S135.908,79.833,135.218,79.833z M129.218,79.833h-1c-0.69,0-1.25-0.56-1.25-1.25
			s0.56-1.25,1.25-1.25h1c0.69,0,1.25,0.56,1.25,1.25S129.908,79.833,129.218,79.833z"/>
	</g>
	<path fill="#FFFFFF" d="M91.55,51.329l-1.741-0.745c-0.34-0.145-0.721-0.549-0.846-0.896l-0.644-1.781
		c-0.126-0.348-0.347-0.354-0.493-0.014l-0.745,1.741c-0.145,0.34-0.549,0.721-0.896,0.846l-1.781,0.644
		c-0.347,0.126-0.354,0.347-0.014,0.493l1.741,0.745c0.34,0.145,0.721,0.549,0.846,0.896l0.644,1.781
		c0.126,0.347,0.348,0.354,0.493,0.014l0.745-1.741c0.145-0.34,0.549-0.721,0.896-0.846l1.781-0.644
		C91.883,51.696,91.889,51.475,91.55,51.329z"/>
	<path fill="#FFFFFF" d="M323.548,123.421l-1.741-0.745c-0.34-0.145-0.721-0.549-0.846-0.896l-0.644-1.781
		c-0.126-0.348-0.347-0.354-0.493-0.014l-0.745,1.741c-0.145,0.34-0.549,0.721-0.896,0.846l-1.781,0.644
		c-0.347,0.126-0.354,0.348-0.014,0.493l1.741,0.745c0.34,0.145,0.721,0.549,0.846,0.896l0.644,1.781
		c0.126,0.347,0.347,0.354,0.493,0.014l0.745-1.741c0.145-0.34,0.549-0.721,0.896-0.846l1.781-0.644
		C323.881,123.788,323.888,123.566,323.548,123.421z"/>
	<path fill="#FFFFFF" d="M155.882,29.958l-1.741-0.745c-0.34-0.145-0.721-0.549-0.846-0.896l-0.644-1.781
		c-0.126-0.348-0.347-0.354-0.493-0.014l-0.745,1.741c-0.145,0.34-0.548,0.721-0.896,0.846l-1.781,0.644
		c-0.347,0.126-0.354,0.347-0.014,0.493l1.741,0.745c0.34,0.145,0.721,0.549,0.846,0.896l0.644,1.781
		c0.126,0.348,0.347,0.354,0.493,0.014l0.745-1.741c0.145-0.34,0.549-0.721,0.896-0.846l1.781-0.644
		C156.216,30.325,156.222,30.103,155.882,29.958z"/>
	<path fill="#FFFFFF" d="M369.444,57.856l-1.741-0.745c-0.34-0.145-0.721-0.549-0.846-0.896l-0.644-1.781
		c-0.126-0.348-0.347-0.354-0.493-0.014l-0.745,1.741c-0.145,0.34-0.549,0.721-0.896,0.846l-1.781,0.644
		c-0.347,0.126-0.354,0.347-0.014,0.493l1.741,0.745c0.34,0.145,0.721,0.549,0.846,0.896l0.644,1.781
		c0.126,0.347,0.348,0.354,0.493,0.014l0.745-1.741c0.145-0.34,0.549-0.721,0.896-0.846l1.781-0.644
		C369.777,58.223,369.783,58.001,369.444,57.856z"/>
	<g>
		<path fill="#FFFFFF" d="M452.667,210.373h-10.153v-39.346c0-0.828-0.672-1.5-1.5-1.5h-10.482c-0.828,0-1.5,0.672-1.5,1.5v5.215
			h-1.755v-0.101c0-0.828-0.672-1.5-1.5-1.5h-6.099v-30.826c0-0.828-0.672-1.5-1.5-1.5h-14.038c-0.828,0-1.5,0.672-1.5,1.5v53.315
			h-3.981v-14.329c0-0.828-0.672-1.5-1.5-1.5h-0.738v-25.357c0-0.828-0.672-1.5-1.5-1.5h-0.365v-3.722c0-0.828-0.672-1.5-1.5-1.5
			h-13.615c-0.828,0-1.5,0.672-1.5,1.5v3.722h-0.365c-0.828,0-1.5,0.672-1.5,1.5v25.357h-0.737c-0.828,0-1.5,0.672-1.5,1.5v27.571
			h-2.224v-9.877c0-0.828-0.672-1.5-1.5-1.5h-13.048v-31.837c0-0.828-0.672-1.5-1.5-1.5h-0.458v-6.671c0-0.828-0.672-1.5-1.5-1.5
			h-5.69V148c0-0.828-0.672-1.5-1.5-1.5s-1.5,0.672-1.5,1.5v9.488h-6.23c-0.828,0-1.5,0.672-1.5,1.5v6.671h-0.271
			c-0.828,0-1.5,0.672-1.5,1.5v17.476h-4.461v-10.296c0-0.828-0.672-1.5-1.5-1.5h-6.527c-0.828,0-1.5,0.672-1.5,1.5v33.609h-7.26
			h-0.006h-12.874l-6.8-123.198h10.953c0.553,0,1-0.448,1-1s-0.447-1-1-1h-11.063L294.114,78h8.401c3.584,0,6.5-2.916,6.5-6.5
			c0-3.394-2.614-6.188-5.936-6.476c0.658-1.016,1.041-2.226,1.041-3.524c0-3.584-2.916-6.5-6.5-6.5h-3.091
			c-0.622-2.892-3.004-5.13-5.966-5.549V21.976c1.981-0.498,3.457-2.28,3.457-4.413c0-2.133-1.476-3.914-3.457-4.412V1
			c0-0.552-0.447-1-1-1s-1,0.448-1,1v12.09c-2.09,0.417-3.67,2.263-3.67,4.473c0,2.211,1.58,4.057,3.67,4.474v27.414
			c-2.961,0.419-5.343,2.657-5.965,5.549h-3.092c-3.584,0-6.5,2.916-6.5,6.5c0,1.298,0.383,2.508,1.041,3.524
			c-3.321,0.287-5.936,3.082-5.936,6.476c0,3.584,2.916,6.5,6.5,6.5h8.401l-0.262,4.75h-11.063c-0.553,0-1,0.448-1,1s0.447,1,1,1
			h10.953l-6.8,123.198h-6.04v-16.115c0-0.828-0.672-1.5-1.5-1.5h-8.552V182.5c0-0.828-0.672-1.5-1.5-1.5h-24.412
			c-0.828,0-1.5,0.672-1.5,1.5v25.448h-6.616c-0.97-23.157-24.293-41.752-52.823-41.752s-51.853,18.595-52.823,41.752h-4.409V175.5
			c0-0.828-0.671-1.5-1.5-1.5H100.5c-0.829,0-1.5,0.672-1.5,1.5v32.448h-5.333v-62.115c0-0.828-0.671-1.5-1.5-1.5h-12.5v-8.166
			c0-0.828-0.671-1.5-1.5-1.5h-3.75v-10.336c0-0.828-0.671-1.5-1.5-1.5s-1.5,0.672-1.5,1.5v10.336h-3.583
			c-0.829,0-1.5,0.672-1.5,1.5v66.166H58v-24.427c0-0.828-0.671-1.5-1.5-1.5H31.167c-0.829,0-1.5,0.672-1.5,1.5v6.761H14.833
			c-0.829,0-1.5,0.672-1.5,1.5s0.671,1.5,1.5,1.5h16.333c0.829,0,1.5-0.672,1.5-1.5v-6.761H55v24.427c0,0.828,0.671,1.5,1.5,1.5
			h11.333c0.829,0,1.5-0.672,1.5-1.5v-66.166h7.333v8.166c0,0.828,0.671,1.5,1.5,1.5h12.5v62.115c0,0.828,0.671,1.5,1.5,1.5h8.333
			c0.829,0,1.5-0.672,1.5-1.5V177h8.667v32.448c0,0.828,0.671,1.5,1.5,1.5h7.378c0.829,0,1.5-0.672,1.5-1.5
			c0-22.195,22.364-40.252,49.854-40.252s49.854,18.057,49.854,40.252c0,0.828,0.671,1.5,1.5,1.5h9.584c0.828,0,1.5-0.672,1.5-1.5
			V184h21.412v7.833c0,0.828,0.672,1.5,1.5,1.5h8.552v16.115c0,0.828,0.672,1.5,1.5,1.5h8.586c0.063,0,0.124-0.011,0.185-0.019
			c0.036,0.005,0.07,0.015,0.106,0.017c0.028,0.001,0.057,0.002,0.084,0.002c0.791,0,1.453-0.618,1.497-1.417l6.887-124.781h7.835
			l6.855,124.208h-9.773v-83.19c0-0.553-0.447-1-1-1s-1,0.447-1,1v84.19c0,0.553,0.447,1,1,1h12.303c0.017,0,0.031-0.009,0.048-0.01
			h14.246h0.006h8.76c0.828,0,1.5-0.672,1.5-1.5v-33.609h3.527v10.296c0,0.828,0.672,1.5,1.5,1.5h7.461c0.828,0,1.5-0.672,1.5-1.5
			v-17.476h0.271c0.828,0,1.5-0.672,1.5-1.5v-6.671h11.921v6.671c0,0.828,0.672,1.5,1.5,1.5h0.458v31.837c0,0.828,0.672,1.5,1.5,1.5
			h13.048v9.877c0,0.828,0.672,1.5,1.5,1.5h5.224c0.828,0,1.5-0.672,1.5-1.5v-27.571h0.737c0.828,0,1.5-0.672,1.5-1.5v-25.357h0.365
			c0.828,0,1.5-0.672,1.5-1.5v-3.722h10.615v3.722c0,0.828,0.672,1.5,1.5,1.5h0.365v25.357c0,0.828,0.672,1.5,1.5,1.5h0.738v14.329
			c0,0.828,0.672,1.5,1.5,1.5h6.981c0.828,0,1.5-0.672,1.5-1.5v-53.315h11.038v30.826c0,0.828,0.672,1.5,1.5,1.5h6.099v0.101
			c0,0.828,0.672,1.5,1.5,1.5h4.755c0.828,0,1.5-0.672,1.5-1.5v-5.215h7.482v39.346c0,0.828,0.672,1.5,1.5,1.5h11.653
			c0.828,0,1.5-0.672,1.5-1.5S453.495,210.373,452.667,210.373z M292.442,58c-0.646,2.093-2.576,3.627-4.878,3.627
			s-4.231-1.535-4.877-3.627H292.442z M292.442,55l0.205-3.271l-4.083-0.256C290.417,51.842,291.892,53.219,292.442,55z
			 M286.564,51.474l-3.491,0.3L282.687,55C283.237,53.219,284.711,51.842,286.564,51.474z M277.507,58h3.092
			c0.691,3.212,3.55,5.627,6.965,5.627c3.416,0,6.275-2.416,6.966-5.627h3.091c1.93,0,3.5,1.57,3.5,3.5s-1.57,3.5-3.5,3.5h-20.113
			c-1.93,0-3.5-1.57-3.5-3.5S275.578,58,277.507,58z M283.757,82.75l0.34-6.167c0.022-0.412-0.125-0.814-0.408-1.114
			c-0.283-0.299-0.678-0.469-1.09-0.469h-9.986c-1.93,0-3.5-1.57-3.5-3.5s1.57-3.5,3.5-3.5h4.895h20.113h4.895
			c1.93,0,3.5,1.57,3.5,3.5s-1.57,3.5-3.5,3.5h-9.986c-0.412,0-0.807,0.169-1.09,0.469c-0.283,0.3-0.431,0.702-0.408,1.114
			l0.34,6.167H283.757z"/>
		<path fill="#FFFFFF" d="M8.5,184.333h-7c-0.829,0-1.5,0.672-1.5,1.5s0.671,1.5,1.5,1.5h7c0.829,0,1.5-0.672,1.5-1.5
			S9.329,184.333,8.5,184.333z"/>
		<path fill="#FFFFFF" d="M216.167,209.19h-2.214v-5.443c0-0.553-0.448-1-1-1h-10.612c-0.552,0-1,0.447-1,1v5.443h-2.301v-5.443
			c0-0.553-0.448-1-1-1h-10.612c-0.552,0-1,0.447-1,1v5.443h-2.301v-5.443c0-0.553-0.448-1-1-1h-10.612c-0.552,0-1,0.447-1,1v5.443
			h-2.301v-5.443c0-0.553-0.448-1-1-1h-10.612c-0.552,0-1,0.447-1,1v5.443h-2.301v-5.443c0-0.553-0.448-1-1-1H142.69
			c-0.552,0-1,0.447-1,1v5.443h-2.301v-5.443c0-0.553-0.448-1-1-1h-10.612c-0.552,0-1,0.447-1,1v5.443h-1.861c-0.552,0-1,0.447-1,1
			s0.448,1,1,1h2.861h10.612h4.301h10.612h4.301h10.612h4.301h10.612h4.301h10.612h4.301h10.612h3.214c0.552,0,1-0.447,1-1
			S216.719,209.19,216.167,209.19z M203.341,204.747h8.612v4.443h-8.612V204.747z M188.428,204.747h8.612v4.443h-8.612V204.747z
			 M173.516,204.747h8.612v4.443h-8.612V204.747z M158.603,204.747h8.612v4.443h-8.612V204.747z M143.69,204.747h8.612v4.443h-8.612
			V204.747z M128.777,204.747h8.612v4.443h-8.612V204.747z"/>
		<path fill="#FFFFFF" d="M211.271,199.07c0.175,0.352,0.529,0.555,0.896,0.555c0.149,0,0.301-0.033,0.444-0.104
			c0.495-0.246,0.696-0.846,0.451-1.341c-10.508-21.144-31.45-22.83-31.66-22.845c-0.551-0.021-1.028,0.378-1.066,0.928
			c-0.039,0.551,0.376,1.028,0.927,1.067C181.462,177.345,201.287,178.981,211.271,199.07z"/>
		<path fill="#FFFFFF" d="M465.167,210.373h-8.333c-0.828,0-1.5,0.672-1.5,1.5s0.672,1.5,1.5,1.5h8.333c0.828,0,1.5-0.672,1.5-1.5
			S465.995,210.373,465.167,210.373z"/>
		<path fill="#FFFFFF" d="M85.333,154.833c-0.829,0-1.5,0.672-1.5,1.5v22.334c0,0.828,0.671,1.5,1.5,1.5s1.5-0.672,1.5-1.5v-22.334
			C86.833,155.505,86.162,154.833,85.333,154.833z"/>
		<path fill="#FFFFFF" d="M77.5,154.833c-0.829,0-1.5,0.672-1.5,1.5v9.334c0,0.828,0.671,1.5,1.5,1.5s1.5-0.672,1.5-1.5v-9.334
			C79,155.505,78.329,154.833,77.5,154.833z"/>
		<path fill="#FFFFFF" d="M433.833,188.04c-0.828,0-1.5,0.672-1.5,1.5v22.333c0,0.828,0.672,1.5,1.5,1.5s1.5-0.672,1.5-1.5V189.54
			C435.333,188.712,434.662,188.04,433.833,188.04z"/>
		<path fill="#FFFFFF" d="M426,188.04c-0.828,0-1.5,0.672-1.5,1.5v9.333c0,0.828,0.672,1.5,1.5,1.5s1.5-0.672,1.5-1.5v-9.333
			C427.5,188.712,426.828,188.04,426,188.04z"/>
	</g>
</g>
<g id="DESIGNED_BY_FREEPIK">
</g>
</svg>
