<svg xmlns="http://www.w3.org/2000/svg" width="612" height="200.608" xmlns:v="https://vecta.io/nano"><use href="#B"/><use href="#B"/><use href="#C"/><use href="#C"/><use href="#D"/><use href="#D"/><use href="#E"/><use href="#E"/><use href="#F"/><use href="#F"/><use href="#G"/><use href="#G"/><use href="#H"/><use href="#H"/><use href="#I"/><use href="#I"/><use href="#J"/><use href="#J"/><use href="#K"/><use href="#K"/><use href="#L"/><use href="#L"/><use href="#M"/><use href="#M"/><use href="#N"/><use href="#N"/><use href="#O"/><use href="#O"/><use href="#P"/><use href="#P"/><use href="#Q"/><use href="#Q"/><use href="#R"/><use href="#R"/><use href="#S"/><use href="#S"/><use href="#T"/><use href="#T"/><use href="#U"/><use href="#U"/><defs ><path id="B" d="M478.443 14.719s-6.179-.545-6.179 11.448l.036 45.063c0 7.995 2.469 10.256 7.632 10.903 1.744.218-.34 2.519-.727 2.907-.363.363-10.903-1.09-22.532 0-1.448.135-.363-1.09-.363-2.544s6.541-.363 6.541-7.632l-.034-47.063c0-13.447-10.176-12.356-10.176-12.356s-1.454-3.271 4.36-3.271c2.544 0 15.082.363 21.442 0 1.632-.095 1.635.363 1.09 1.09s0 1.273-1.09 1.455z"/><path id="C" d="M234.77 94.489l-23.896-64.688c-5.451-14.537-11.266-14.9-11.266-14.9s-1.09-2.544 4.725-2.544h23.259l-1.18 3.271c-3.634 0-7.632 2.908-4.361 12.72l14.9 42.157s10.176-24.712 13.81-35.979 2.18-15.627-2.908-18.171-1.09-3.998-1.09-3.998h21.078V14.9c-5.451.727-8.997 14.206-11.266 20.352-7.45 20.17-18.898 55.967-19.625 57.784-.676 1.686-.727 2.18-2.18 1.453z"/><path id="D" d="M314.768 124.562c-.954 3.271-4.225 3.362-9.131 3.362-5.453 0-12.72 1.09-12.72 1.09v-21.805h19.988s8.358.363 10.176 7.632 5.814 2.18 3.997-2.544-1.816-12.72-1.816-12.72l-5.27.545h-43.611c-5.815 0-3.634 3.634-3.634 3.634s9.449-.363 9.449 11.993l.035 45.973c0 7.269-5.855 7.076-6.542 8.358-1.817 3.392-.606 2.907 1.817 2.907 0 0 27.403-.727 43.394 0 2.178.1 5.088 1.817 6.541-.727 1.701-2.977 2.544-15.99 2.544-15.99s-.581-5.865-3.997 0c-3.299 5.66-3.271 10.539-15.99 10.539s-16.718-.727-17.081-5.088 0-26.166 0-26.166 1.454-2.181 6.178-2.181h7.268s6.569.504 7.995 7.632c.363 1.817 2.907-.727 2.907-.727v-14.537c.001.002-.453-1.908-2.497-1.18"/><path id="E" d="M365.981 17.353l-14.173.727v22.532s6.207 1.661 11.629 1.09c3.453-.363 8.178-1.18 10.222-3.724 0 0 2.481-4.906 2.481-8.904s-3.617-10.268-10.159-11.721zm6.361-5.633c8.358 0 15.064 7.905 15.064 16.264 0 11.266-12.356 18.171-19.625 18.171 0 0 8.169 5.075 19.625 22.532 11.447 17.444 22.169 21.442 33.253 21.987 3.99.196 12.901-.363 22.896-6.178 6.359-3.701 2.544 1.454 1.817 2.18s-12.175 10.357-29.256 10.357c-20.715 0-34.161-17.081-40.703-27.256s-15.246-19.353-15.246-19.353c-3.541-4.586-8.358-2.907-8.358-2.907V75.5c0-.727-.522 4.165 5.07 5.543 5.689 1.401 1.817 3.634 1.817 3.634l-23.389-.092c-1.453 0 0-.727 0-2.181s6.905-.363 6.905-7.632l-.035-47.79c1.09-11.993-9.449-12.72-9.449-12.72 0-2.907 1.609-3.265 5.253-2.998 9.452.693 29.636.819 34.361.456z"/><path id="F" d="M448.461 10.903s-1.817 1.09-5.088.727-10.542-1.589-15.264-1.454c-12.72.363-24.35 10.176-24.35 20.352s7.996 16.717 19.625 19.261 18.171 5.451 18.171 15.627c0 8.722-9.448 12.356-16.354 12.356s-15.712-5.396-19.625-11.266c-2.907-4.361-2.181-8.358-2.181-8.358l-3.815 1.454s1.271 9.085.182 13.446c-.812 3.25 8.722 11.993 23.259 11.993 17.808 0 29.438-8.359 29.438-25.803 0-14.537-17.809-17.808-22.896-18.898S414.3 35.615 414.3 27.257s8.722-10.176 14.899-10.176 10.903 2.544 13.447 6.178 2.544 6.905 2.544 6.905l3.271-1.09s-1.09-7.632-1.09-10.176c0-2.907 1.09-7.632 1.09-7.995z"/><path id="G" d="M488.801 13.083h42.156c2.18 0 5.815-2.18 7.269-.727 0 0 .727.727.727 3.634v13.446c0 1.454-2.879 3.198-3.271.727-1.506-9.504-3.271-10.539-10.176-10.539-3.997 0-8.722-1.454-8.722 3.271v53.06c0 5.088 5.574 5.512 7.632 6.542.727.363-.728 2.544-.728 2.544h-25.803s-1.09-2.907 1.091-3.271 6.904-4.361 6.904-7.632V23.259c0 2.908.728-3.634-3.634-3.634-8.722 0-14.124-1.758-15.99 9.449-.363 2.181-3.635 4.725-3.635 0 0-1.817.255-11.253 0-13.81-.362-3.635 1.455-3.998 6.18-2.181z"/><path id="H" d="M121.382 100.304l3.271-.363v13.083c-4.361 0-4.725-3.634-4.361-6.179s-9.824 1.888-17.444 9.086c-6.542 6.178-8.722 13.083-8.722 13.083 0 .363 9.449.728 10.539-2.907.104-.351 1.817.727 1.817.727v12.72s-2.075 2.606-2.908 2.181c-.847-.435 2.544-8.358-6.542-7.995-4.358.173-4.725-.363-4.725 0s-4.019 16.721-14.537 28.347c-10.357 11.448-25.439 14.9-34.162 7.632v-3.634s5.805 2.712 10.903 2.544c6.201-.207 15.47-3.067 21.805-14.537 6.723-12.175 8.358-19.261 8.358-20.352 0-.727-2.362-.363-2.362-.363l-1.272-3.998h5.633s2.181-9.085 11.811-17.08c6.553-5.442 13.45-10.177 22.898-11.995z"/><path id="I" d="M191.886 99.577l-.727 26.167-3.271 1.09s-2.907-16.354-13.446-17.443-23.259-1.454-29.801 6.178-11.266 19.988-11.266 33.435c0 19.625 3.632 39.249 30.527 39.249 15.99 0 15.627-12.355 15.627-10.176v-19.261c0-2.544-6.178-5.451-10.903-5.451l1.09-3.998h32.708l-.363 3.271s-7.996 1.817-7.996 6.542v26.529s-16.047 5.914-20.352 8.723c-8.358 5.451-7.995 5.451-17.081 5.451-7.269 0-29.074-5.088-34.888-23.985s-4.991-41.706 8.722-60.691c9.449-13.083 22.169-16.354 35.252-16.354 7.269 0 14.173 1.817 16.354 1.817s6.178-1.817 7.269-2.181 2.545 1.088 2.545 1.088z"/><path id="J" d="M202.062 100.304h23.985l-.363 3.634s-6.542 1.454-6.542 6.179v42.52c0 8.359 9.449 14.174 15.99 14.174s20.352-4.725 20.352-17.808v-39.249c0-2.544-2.907-6.179-9.812-6.179-1.817 0 2.907-3.634 2.907-3.634h19.625l-.727 3.634s-5.088 1.817-5.088 6.542l-.363 35.979c0 15.627-13.083 28.347-26.894 28.347-17.081 0-27.256-7.632-27.256-21.078v-45.428c0-2.544-6.905-4.361-6.905-4.361-2.907.362 1.091-3.272 1.091-3.272z"/><path id="K" d="M333.983 100.667h25.439l-1.09 2.907s-7.269-1.09-7.269 9.086v49.062c0 2.181-1.817 2.907 4.36 4.725 2.788.819 16.242.485 19.988-1.091 6.905-2.907 8.723-11.266 8.723-11.266l2.181-.363s-.728 15.627-1.817 17.808-3.339 1.521-8.723 1.09c-9.085-.727-41.793.363-41.793.363l-.727-2.18s6.904-.364 6.904-15.264v-45.428c0-7.632-5.259-5.081-7.995-6.905-1.088-.726 1.819-2.544 1.819-2.544z"/><path id="L" d="M407.031 131.195s-.36 4.076 12.72 3.635c8.361-.284 12.356-9.449 12.356-15.264s-5.088-10.903-9.449-11.993-15.627 0-15.627 0v23.622zm-17.081-29.438s16.013.165 21.806-.727c9.448-1.454 17.651-.85 24.349 3.271 4.725 2.907 6.905 9.448 7.269 13.446.756 8.323-4.838 14.012-9.086 17.081-6.541 4.724-12.355 5.451-26.166 3.997-1.809-.19-1.453 2.907-1.453 4.725v19.625c0 2.544 3.634 6.541 9.448 6.541.363 0-1.453 2.907-1.453 2.907h-25.076s-1.091-1.816.727-2.544 5.088-1.453 5.451-5.814 0-49.425 0-53.423c0-2.181-1.816-5.814-6.904-5.814l1.088-3.271z"/><path id="M" d="M511.311 173.083l.023-2.542c-1.499-.014-6.498-.413-6.478-8.408l.056-53.789c.031-4.076 7.311-5.391 7.311-5.391l.387-2.195-24.709-.17-.396 2.907s6.747.625 6.747 4.986v21.261h-31.617c-1.817 0-1.091-1.091-1.091-2.908v-17.808c0-4.36 5.088-4.724 5.088-4.724l1.09-3.635h-22.896l-.727 2.907s6.905-.727 7.269 4.725c.265 3.987 0 50.879 0 53.786 0 2.544-2.137 7.995-6.542 8.358l-.363 2.544h22.532c.363 0 3.271-2.544-.727-3.634-2.996-.817-5.088-2.907-5.088-7.632v-25.439c0-1.453.363-1.09 2.181-1.09h30.527v26.893c0 7.269-3.547 7.031-5.088 7.995-2.181 1.362-1.983 2.595 0 2.907 1.726.273 22.511.096 22.511.096z"/><path id="N" d="M76.712 28.982c0-9.994-4.704-13.673-15.082-14.537-2.606-.217 1.454-3.089 1.454-3.089 13.961-.211 31.072 0 31.072 0 1.454.363 1.272.727.182 2.726-.871 1.595-8.904-1.636-8.904 14.355l-.031.273v50.152c0 10.903-7.632 18.535-7.632 18.535-4.725 6.178-13.81 12.356-29.074 12.356-36.342 0-35.251-27.62-35.251-27.62V30.527c0-9.994-.343-14.945-10.721-15.809-2.606-.218 1.454-3.089 1.454-3.089 13.447 1.09 31.799 0 31.799 0 1.454.364 1.272.727.182 2.726-.871 1.595-8.904-1.272-8.904 14.719v45.428c0 15.99 10.176 25.439 24.713 25.439s24.712-7.996 24.712-21.079V29.074l.031-.092z"/><path id="O" d="M159.446 29.636c-.195-15.989 6.242-12.84 7.092-14.445 1.067-2.012 1.245-2.378-.214-2.724 0 0-7.256 1.095-20.716.168 0 0-4.023 2.921-1.416 3.107 10.389.737 9.686 4.484 9.808 14.479l-.091 36.285c-1.636.909-35.434-49.607-35.434-49.607l-3.24-4.724s-1.817.727-15.264-.364c0 0-4.06 2.871-1.454 3.089 10.378.863 9.449 4.542 9.449 14.537l-.03 10.357.06 28.316c-.175 15.991-7.446 12.672-8.334 14.258-1.112 1.986-1.298 2.348.152 2.727 0 0 8.551-.897 21.986.342 0 0 4.09-2.829 1.487-3.073-10.369-.979-9.58-4.708-9.471-14.703l-.065-36.407s34.797 43.972 38.522 56.693c0 0 .909 3.179 2.908.909 1.481-1.685 1.924-1.31 2.998-1.999 1.272-.818 1.272-1.363 1.363-2.907l-.096-54.314z"/><path id="P" d="M294.734 46.518c1.817-1.09 9.085-1.817 13.447-2.181s7.269 5.088 7.632 7.995 3.188.74 2.907-1.09c-.727-4.724 0-11.266 0-14.9 0-2.544-2.181-1.817-2.907-.727-1.454 2.181-3.271 3.634-7.269 4.361s-13.81 1.454-13.81 1.454l-.363-1.09V18.535h19.988s8.667.479 10.903 7.632c1.816 5.814 3.997 1.454 3.271-2.544-.905-4.98-1.817-12.72-1.817-12.72l-5.27.545h-43.61c-3.271 0-3.634 3.271-3.634 3.271s9.449-.364 9.449 11.993l.035 46.336c0 7.269-7.632 6.542-7.632 7.996s1.454 3.271 2.907 3.271h43.394c2.181 0 6.179 2.181 6.542-.727.425-3.403 2.544-15.991 2.544-15.991s.062-3.736-3.271 0c-1.46 1.634-2.181 10.176-16.718 10.539-12.717.317-16.717-.727-17.081-5.088s0-26.166 0-26.166l.363-.364z"/><path id="Q" d="M586.561 85.404c3.452 0 2.362-.363 3.452-1.635s0-1.817-1.998-1.635-5.27-.909-5.452-6.36 0-20.897 0-20.897c1.091-1.817 10.903-18.898 14.9-26.53l2.172-3.748c2.124-3.667 2.776-7.095 6.724-7.632 1.096-.149 1.051-.471 2.907-1.09 1.09-.364 2.181-2.908.727-2.908h-21.986c-.728 0-3.981 1.007-1.272 2.362.728.363 3.374-.221 5.451 1.454.949.765 2.916 4.475 1.281 7.563L578.93 47.971l-13.81-24.349c-2.181-3.634-1.768-6.369 2.181-6.905 1.094-.149 1.049-.472 2.907-1.09 1.09-.363 2.18-2.907.727-2.907h-25.258c-.727 0-3.983 1.006-1.271 2.362.727.363 4.36 1.454 5.27 2.907s19.261 34.162 21.623 39.431c.997 2.224.852 14.539.727 18.171-.182 5.27-1.757 5.815-4.179 6.542-1.742.521-2.544 1.272-2.726 2.362s.367.898 4.542.908l16.898.001z"/><path id="R" d="M608.729 3.634H.363L3.271.727h608.366l-2.908 2.907z"/><path id="S" d="M189.342 26.348c0-11.993 5.996-10.721 5.996-10.721 1.09-.182.727-1.272 1.272-1.999s.542-1.173-1.09-1.09c-3.634.182-17.625 0-20.169 0l-1.8-.092c-5.815 0-3.816 3.271-3.816 3.271s10.176-1.09 10.176 12.356l.035 47.063c0 7.268-6.542 6.178-6.542 7.632s-1.084 2.679.363 2.544c11.63-1.09 22.169.363 22.532 0 .387-.388 2.473-2.689.727-2.908-5.164-.646-7.632-2.907-7.632-10.902l-.052-45.154z"/><path id="T" d="M510.242 183.891h-308.18l2.907-2.907h308.18l-2.907 2.907z"/><path id="U" d="M67.778 148.094c-3.634 4.725-5.814 7.995-11.629 7.269s-4.131-9.999 1.454-17.444c4.361-5.815 10.539-7.632 12.356-3.998 2.543 5.087 1.453 9.449-2.181 14.173zm-14.537-13.81c-2.908 3.635-5.815 8.359-6.542 12.72-2.496 14.975 6.823 15.644 12.356 14.537 7.269-1.454 16.717-11.266 18.535-22.532 2.873-17.814-14.696-16.792-24.349-4.725z"/></defs></svg>