<svg xmlns="http://www.w3.org/2000/svg" viewBox="0 0 1440 720" xmlns:v="https://vecta.io/nano"><style><![CDATA[.G{fill:#0049ff}.H{fill:#5aa5ff}.I{fill:#0068ff}.J{fill:#277aff}.K{fill:#0031cc}]]></style><linearGradient id="A" gradientUnits="userSpaceOnUse" x1="720" y1="705.235" x2="720" y2="63.365"><stop offset="0" stop-color="#9cd0dd"/><stop offset="1" stop-color="#7ad2ff"/></linearGradient><path d="M0 0h1440v720H0z" fill="url(#A)"/><path d="M1168.9 651.6h3V496.3h7.5v-2.1h7.1v2.1h35.3v12h7.7v143.3h5.6v18.1h-5.6v.8h-7.7-42.1-7.8v-.8h-3z" class="H"/><path d="M1185.4 513.9v-2.8h-58.5v2.8h-6.9v9.9 2.6 1.9 1.4 4 1.5 4 1.5 4 1.5 4 1.5 4 .8.6 1.3 2.8 1.4 4.1 1.4 4 1.5 4 1.5 4 1.5 2.1 1.9 1.5 4 1.4 4.1 1.4 4.1 1.4 4 1.5 4 .9.6 1.3 2.7 1.5 4 1.5 4 1.4 4.1 1.4 4.1 1.4 2.1 1.9 1.5 4 1.5 4 1.5 3.6h75.1v-3.6-1.5-4-1.5-4-1.5-1.9-2.1-1.4-4.1-1.4-4.1-1.4-4-1.5-4-1.5-2.7-1.3-.6-.9-4-1.5-4-1.4-4.1-1.4-4.1-1.4-4-1.5-1.9-2.1-1.5-4-1.5-4-1.5-4-1.4-4.1-1.4-2.8-1.3-.6-.8-4-1.5-4-1.5-4-1.5-4-1.5-4-1.4-1.9-2.6-9.9z" class="I"/><path d="M872.1 415.7h73.5v247h-73.5z" class="J"/><g class="H"><path d="M533.5 481.5v6.3h-8.4v176.9h8.4 47 8.4V481.5zm-410.2 18h0-.3 0-.8 0-.6 0-.8 0-.3 0-2.7-.4-2.7 0-.3 0-.9 0v-2h-2.6v-.1h.5v-.3h-1.1v.3h.4v.1H91.8h-.3v-1h-2.1v1h-.6v-.4h-2.4v.4H85v-.4h-2.4v.4h-4.4v2h0-1.3 0-.3 0-.5-.6-1.1 0-.3 0 0H73h-.6-.6 0-.3 0-.2-1.2 0-.6 0-.3v1.9.3.7.2.9.3.9.1 1.3.3.5.2 1.1.4.6.1 1.5.3.8.1 1 .3.8.2 1.2.4.5.1 1.2.3.6.2 1 .4.6.2 1 .3.8.2 1.3.3.4.2 1.2.3.6.2 1.5.3.7.1 1 .3.8.2 1.3.3.5.1 1.3.3.5.2 1.1.3.7.1 1 .4.7.2 1.3.3.5.1 1.3.3.5.2 1.5.4.6.2 1 .3.7.2 1.4.3.8.2.8.3.5.2.7.4.5.2 1.1.3.7.1 1.5.3.8.1.9.3.5.1 1.7.3.6.1 1.1.4.6.2 1.4.3.4.1 1.4.3.4.2 1.6.4.5.2 1.1.3.6.2 1.5.3.3.2 1.3.3.9.1 1.3.3.5.2 1.1.4.6.1 1.5.3.8.1 1 .3.4.1 1.3.3.5.2 1.1.4.6.1 1.5.3.8.1 1 .3.8.2 1.2.4.5.1 1.2.3.6.2 1.5.3.7.2.9.3.8.2.9.3.4.2 1.2.3.6.1 1.6.3.7.1 1 .4.7.2 1.3.3.5.1 1.3.3.5.2 1.5.4.6.2 1 .3.8.1.9.4.8.2.8.3 1 .1 1.2.3.6.2 1 .3.8.1 1.4.3.4.2 1.2.3.5.2 1.6.3.6.2 1.1.3.7.1 1 .3.8.2.8.4.4.2 1.6.3.6.2 1.1.3.7.1 1.5.3.8.1.9.3.9.2 2.6h6.3.6 6.2.1H96h.2 27.6V661v-.3-1.8-.3-2.3-.3-1.9-.3-126.5-27.8zm107.9-25.7v26.9h-11.9v163h11.9v2.3H276V473.8zm247.4 135.4V477.6h-5.9v-8.2h-10.3v-20.9h-9.5v-.5-1.2-1.2-1.2-.4-.8-1.9l-3.9-3.9v-.1h0 0v-.1-.8-.8h0v-.1h-.4l-2.2-1.6v-4.5h-2.7v-3.7h-3.2v-2.4h-2.9V421h-2.3v-2.4h-3v-2.9h-2.2v-10.5h-.7v10.5h-2v2.9h-3v2.4H422v2.3h-2.8v2.4H416v3.7h-2.7v4.5l-2.2 1.6h-.5v.1.8.8.3l-3.9 4v1.7 1.2 1.2 1.2 1.2.5h-10.3v20.9h-10.3v8.2h-5.9v131.6h-17v54.9h132.4v-54.9zm553.8-146v-2.4h-4.3v-5.4h-.6v-.3h-7.2v-.6h-1.4v-.8h-3.6v.8h-9.5v.6h-11.1v.3h-.3v5.4H993v4.5h-7v198.8h15.5 24 15.4V463.2z"/><path d="M779.9 558.9h.1v-2.6h-.1v-1.6-2.1-.5-.1-2-1.6-2.1-.5-2.1-1.6-2.1-.5-2.1-1.6-2.1-.5-2.1-1.6-2.1-.5-2.1-.9-2.8-2.6-3.7-2.6-3.7-2.6-3.7-2.6-4.6-7.9-2.2-2.5h-5.1v2.5h-61.5v-2.4h-5v2.4 2.3 7.8 4.6 2.6 3.7 2.6 3.7 2.6 3.7 2.6 3.7 2.6 3.7 2.6 3.7 2.6 3.7 2.6 3.7 2.6 3.7 2.6 3.7 2.6 3.7 2.6 3.7 2.6 3.7 2.7 3.6 2.7 3.6 2.7 3.6 2.7 3.6 2.7 3.6 2.7 3.6 2.7 3.6 2.7 3.6 2.7 3.6 2.7 3.6 2.7 3.6 2.7 3.6 2.7 3.6 2.7-57.6 2.6 3.7 2.6 3.7 2.6 3.7 2.6 3.7 2.6 3.7-17.1 3.6 2.7 3.6 2.7 3.6 2.7 3.6 2.7 3.6 2.7 3.6 2.7 5.4 2.1h34.2 37.4l.1-5.5v-2-2.7-3.6-2.7-3.6-2.7-3.6-2.7-3.6-2.7-3.6-2.7-3.6V640v-3.7-2.6-3.7-1.1-1.5h-.1v-1.6-2.1h.1v-2.6h-.1v-1.6-2.1h.1v-2.6h-.1v-1.6-2.1h.1v-2.6h-.1v59.7-2.1h.1v-2.7h-.1v-1.5-2.1h.1v-2.7h-.1v-1.5-2.1h.1v-2.7h-.1v-1.5-2.1h.1v-2.7h-.1V643v-2.1h.1v-2.7h-.1v-1.5-2.1h.1v-2.7h-.1v-1.5-2.1h.1v-2.7h-.1v-1.5-2.1h.1v-2.7h-.1v-1.5-2.1h.1V613h-.1v-1.5-2.1h.1v-2.7h-.1v-1.5-2.1h.1v-2.7h-.1v-1.5-2.1h.1v-2.7h-.1v-1.5-2.1h.1v-2.7h-.1v-1.5-2.1h.1v-2.7h-.1v-1.6-2.1h.1v-2.6h-.1v-1.5-2.2h.1v-2.6h-.1v-1.6-2.1h.1v-2.6h-.1V561z"/><path d="M1358.1 524.7h-.5-1-.5-1-.5-1.1-.4-1.1v-1.5-.4-2.4-.4-1-.4-1.2h-.4-1.1-.4-1.1-.4-1.1-.4-1.1-.4-1.1-.5-1-.5-1-.5-1.1-.4-1.1-.4-1.1-.4-1.1-.4-1.1-.4-1.1-.4-1.1-.4-1.1-.5-1-.5-1-.5-1.1-.4-1.1-.4-.6v7.3h-.5-.4-1.1-.4-.4-1.4v.9.4 1.3.7.4h0v.4 1.3 1.1.4 1.3.7.4h0v.4 1.3 1.1.4 1.3.7.4h0v.4 1.3 1.1.4 1.3.7.4h0v.4 1.3 1.1.4 1.3.7.4h0v.4 1.3 1.1.4 1.3.7.4h0v.4 1.3 1.1.4 1.3.7.4h0v.4 1.3 1.1.4 1.3.7.4h0v.4 1.3 1.1.4 1.3.7.4h0v.4 1.3 1.1.4 1.3.7.4h0v.4 1.3 1.1.4 1.3.7.4h0v.4 1.3 1.1.4 1.3.7.4h0v.4 1.3 1.1.4 1.3.7.4h0v.4 1.3 1.1.4 1.3.7.4h0v.4 1.3 1.1.4 1.3.7.4h0v.4 1.3 1.1.4 1.3.7.4h0v.4 1.3 1.1.4 1.3.7.4h0v.4 1.3 1.1.4.6.4.2 1.2.4 1.3h-1.9-.6-1.7-.6-1.7-.5-1.8-.5-1.8-.5-2v-.1-1.2-1.2-.4-1.2-1.2-.4-1.1-1.2-.4-1.2-1.2-.4h0v-1.2-1.2-.3-.1-.3-.8-1.2-.4-1.2-1.2-.4h0v-.3-.9-1.2-.4-1.1-1.2-.4h0v-.3-.9-1.2-.4-1.2-1.2-.3-.1-.3-.8-1.2-.4-1.2-1.2-.3-.1-.3-.9-1.2-.4-1.1-1.2-.4h0v-.3-.9-1.2-.4-1.2-1.2-.3-.1-.3-.8-1.2-.3-.1-1.2-1.2-.3-.1-.3-.9-1.2-.3-1.2-1.2-.4h0v-.3-.9-1.2-.4-1.2-1.1-.4h0v-.4-.8-1.2-.4-1.2-1.2-.3-.1-.3-.8-1.2-.4-1.2-1.2-.4h0v-.3-.9-1.2-.4-1.1-1.2-.4h0v-.4-.8-1.2-.4-1.2-1.2-.3-.1-.3-.8-1.2-.4-1-.2-1.2-.4h0v-.3-.9-1.2-.4-1.1-1.2-.4h0v-.4-.8-1.2-.4h0v-.9-.3-1.2-.3-.1-.3-.8-1.2-.4-1.2-1.2-.3-.1-.3-.9-1.2-.4-1.1-1.2-.4h0v-.4-.8-1.2-.4-1.2-1.2-.3-.1-.3-.8-1.2-.4-1.2-1.2-.3-.1-.3-.9h-2.1-.4-2.1v-1.2h0v-.4-1.1h0v-1.2h0v-.4h0v-.3-.9h0v-1.2h0v-.4-1.2h0V490h0v-.3-.1-.3-.8h0v-1.2h0v-.4-1.2-1.2-.3-.1-.3-.9-.2h0-.5-.4-2.6-.4-2.6-.4-2.5-.5-2.5-.5-2.5-.4-2.6-.4-.7-1.9-.4-2.6-.4-2.5-.5-1.9-.6-.5-2.5-.4-2.6-.4-2.3v.2.9.3.1.3 1.2 1.2.4 1.2.8.3.1.3 1.2 1.2.4 1.2.9.3h0v.4 1.2 1.1.4 1.2.9.3.1.3 1.2 1.2.4 1.2.8.3.1.3 1.2 1.2.4 1.2.8.4h0v.4 1.2 1.1.4 1.2.9.3.1h0-.3 0-.4 0-2.5 0-.5 0-1.9v1.5 1.2.4 1.2.8.3.1.3 1.2 1.2.4 1.2 1.2.4 1.2 1.1.4 1.2 1.2.4 1.2.2 1 .4 1.2 1.1.4 1.2 1.2.4 1.2 1.2.4 1.2 1.1.4 1.2 1.2.4 1.2 1.2.4 1.2 1.1.4 1.2 1.2.4 1.2 1.2.4 1.1 1.2.4 1.2 1.2.4 1.2 1.2.3 1.2 1.2.4 1.2 1.2.1.3 1.2 1.1.4 1.2 1.2.4 1.2 1.2.4 1.2 1.1.4 1.2 1.2.4 1.2 1.2.4 1.2 1.1.4 1.2 1.2.4 1.2 1.2.4 1.2 1.1.4 1.2 1.2.4 1.2 1.2.4 1.2 1.1.4 1.2 1.2h0v.4 1.2 1.2.4 1.2 1.1.4 1.2 1.2.4 1.2 1.2.4 1.2 1.1.4 1.2 1.2.4 1.2 1.2.4 33.2 1.2.4 1.2h0 31.5 17.7 0 13.6 33.7 7.6v-1.6-.1-.4-33.1-1.3-.1-.4-1-1.4-.4-1.2-2.1-.4-1.1-1.3-.4-1.2-1.2-.4-1.1-1.3-.4-1.1-1.3-.4-1.1-1.3-.4-1.1-1.3-.4-1.1-1.3-.4-1.1-1.3-.4-1.1-1.3-.4-1.1-1.3-.4-1.1-1.3-.4-1.1-1.3-.4-1.1-1.3-.4-1.1-1.3-.4-1.1-1.3-.4-1.1-1.3-.4-1.1-1.3-.4-1.1-1.3-.4-1.1-1.3-.4-1.1-1.3-.4-1.1-1.3-.4-1.1-1.3-.4-1.1-1.3-.4-1.1-1.3-.4-1.1-1.3-.4-.1-1-1.3-.4-1.1-1.3-.4-1.1-1.3-.4-1.1-1.3-.4-1-.1-1.3-.4-1.1-1.3-.4-1.1-1.3-.4-1.1-.2-1.1-.4-1.1-1.3-.4-1.1-1.3-.4-1.1-1.3-.4-.9zM127.2 630.5v-40.6h8.8v-39.4h9.2v-87.2h7.1v-7.7h11.5v-5.1h29v5.1h3.8v7.7 7.7 79.5 9.4 35.2 3.7 44.8 3.5 23H81.4v-39.6z"/><path d="M690.9 620.8v-50.2-1.1-1.3-1.1-1.3-1.1-1.3-1.1-1.3-1.1-.9-1.2-.8-1.2-1.2-1.2-1.3-1.1-1.3-1.1-1.3-1.1-1.3-1.1-1.3-1.1-1.3-1.1-1.3-1.1-1.3-1.2-1.2-1.2-1.2-1.2-1.2-1.2-1.2-1.2-1.2-1.2-1.2-1.2-1.2-1.2-1.2-1.2-1.2-1.2-1.2-1.2-1.2-1.2-1.2-1.2-1.3-1.1-1.3-1.1-1.3-1.1-1.3-1.1-1.3-1.1-1.3-1.1-1.3-1.2-1.2-1.2-1.2-1.2-1.2-1.2-1.2-1.2-1.2-1.2-1.2-1.2-1.2-1.2-1.2-1.2-1.2-1.2-1.2-1.2-1.2-1.2-1.2-1.2-1.3-1.1-1.3-.9-.2-1.3-1.1-1.3-1.1-1.3-1.1-1.3-.4-.7-2l-4.2-3.9v-.1.1l-.1-.1v-.1-.7-.9h0 0-.3l-14.1-9.4h-.4-.1-.6v-1.7h-1.9v-2h-1.1v-2.2h-1.8v-15.1h-.8v15.1h-1.8v2.2h-1.1v2h-2v1.7h-.7-.5l-13.7 9.4h-.6 0v.9.7.4l-4.2 3.9v1.8 1.1 1.3 1.1 1.3 1.1 1.3 1.1 1.3.2.9 1.3 1.1 1.3 1.2 1.2 1.2 1.2 1.2 1.2 1.2 1.2 1.2 1.2 1.2 1.2 1.2 1.2 1.2 1.2 1.2 1.2 1.2 1.2 1.2 1.2 1.2 1.2 1.2 1.3 1.1 1.3 1.1 1.3 1.1 1.3 1.1 1.3 1.1 1.3 1.1 1.3 1.2 1.2 1.2 1.2 1.2 1.2 1.2 1.2 1.2 1.2 1.2 1.2 1.2 1.2 1.2 1.2 1.2 1.2 1.2 1.2 1.2 1.2 1.2 1.2 1.2 1.3 1.1 1.3 1.1 1.3 1.1 1.3 1.1 1.3 1.1 1.3 1.1 1.3 1.1 1.3 1.2 1.2 1.2.8 1.2.9 1.1 1.3 1.1 1.3 1.1 1.3 1.1 1.3 1.1 50.2h-19.7v43.6h88.6v-43.6zm191-75.6v-6.1h-50.5v6.1h-2.3v116.9h55.2V545.2z"/></g><path d="M825 640.6V443.2v-4.9-1.2-.8-6.3h-1-.7 0v-1.8h0v-1.8h1.7v-2h-6.4v-2h-1.8v-1.5h-33.3v1.5h-1.8v2h-6.4v2h1.7v1.8 1.8h-.8-.9v6.3.8 1.2 4.9 197.4h-2.2v5.4 9.8 6.5h2.2 5.2 12.6 23.3 3.8 23.3 4.2 5.2 2v-6.5-9.8-5.4z" class="I"/><path d="M1131.7 657.3v-11.9-1.6-178.6h-2.2-2.2-2.2-2.7v-1.7h-4.7v-2h-.5v2h-.6v1.7h-.6v-1.7h-.9V461h-.9v2.5h-4v1.7h-5.2v-10h-65.4v10h-20.1-2.2-2.2-2.1v178.6 1.6 11.9h-1.8v1.2h1.8v1.7 1.4 3.1h3.3 5.7 3 5.7 5.9 5.7 5.8 5.8 2.9 5.7 5.9 5.7 5.9 5.7 2.9 5.8 5.8 5.8 5.8 5.7 3 5.7 5.5v-3.1-1.4-1.7h1.7v-1.2z" class="G"/><path d="M998.3 627.8v-2.4-4.3-2.9-4.4-2.9-4.3-2.9-4.3-2.9-4.4-2.4-4.3-2-4.3-2.9-4.4-2.9-4.3-2.9-4.3-3-4.3-2.9-4.3-2.9-4.4-2.9-4.3-2.9-4.3-2.9-4.4-2.9-4.3-2.9-4.3-3-4.3-2.9-4.3-2.9-4.4-2.9-4.3-2.9-4.3-2.9-4.4-2.9-4.3-3.1h-8.4v-3h.5v-7h-1.5v-4.6h.5v-.7H966v-1h-3.5v-4.2h-.1l-1-1.6v-15.4l-.8-2.4v-8.5h-.6v8.5l-.8 2.4v15.4l-1 1.6h-.1v4.2h-3.5v1h-23.4v.7h.5v4.6h-1.5v7h0 .5v3h-8.4v3.1 4.3 2.9 4.4 2.9 4.3 2.9 4.3 2.9 4.4 2.9 4.3 2.9 4.3 3 4.3 2.9 4.3 2.9 4.4 2.9 4.3 2.9 4.3 2.9 4.4 2.9 4.3 2.9 4.3 3 4.3 2.9 4.3 2.9 4.4 2.9 4.3 2 4.3 2.4 4.4 2.9 4.3 2.9 4.3 2.9 4.4 2.9 4.3 2.4h-27.4 0v6.5V665h5.1v-30.7h0V665h3.3v-30.7h10.9v30.3h2.6 2.5 3.3 7.6 7.9 5 .1 3.2 2.3 7 1.1 7 1.1 7 5.7 5.1 3.3 4.4 10.9 2.5 2.6v-30.3h0v30.3h3.3v-30.3h10.9v30.3h5.1v-30.3-6.5h0z" class="I"/><path d="M1170.7 613.9v-.8h0v-1.2h.9v-1.4h-5.1l-12.9-4.2v-.7h.7v-1h-40.1v-11.1h0v-1.1-.3h.3v-.6h-.3v-4-.8h.3v-.8h-.3-2.2v-14h2.2v-1.3h1.3v-1.5h-1v-1h-.3-.9l-5.9-17.3h.6v-2.4h-.6v-.7h-1.3v-.9h-1.1v-17.5a.76.76 0 0 0 .2-.4.65.65 0 0 0-.6-.6.65.65 0 0 0-.6.6c0 .2.1.3.2.4v17.5h-1.1v.9h-1.3v.7h-.7v2.4h.7l-5.9 17.3h-.9-.3v1h-.4v1.5h.6v.8h0v.5h2.2v14h-2.2-.3v.8h.3v.8 4h-.3v.6h.3v.3 1.1 11.1h-46.6v1h.6v.7h0l-12.9 4.2h-5.1v1.4h.9v2h-3v.2.8.4 1.4 1.2 9.2 1 3.1V648v1.4 1.4 2.4 5.3 2.1 4h15.8 1.7.8 1.5 2.1.9 2.3.9 2 .9 2.4 1.1 1.7.8 1 2 .9 1.4.9 1.4.9 1.7 2.6 1.7.8 2.2 2 .9 1.4.9 1.4.9 1.7 2.3 1.7.8 2.7 2 .9 1.4.9 1.4.9 1.8 2.3 1.7.8 2.7 2 .9 1.4.9 1.2.9 1.9 2.3 1.7.8 2.2 1.8.9 1.4.9 1.4.9 1.9.9 1.7.8.8 2.2.9 2.3.9 2 .9 2.3.9 1.7.8 13.9v-4-2.1-5.3-2.4-1.4-1.4-16.8-3.1-1-9.2-1.2-1.4-.4-.8-.2h-2.4z" class="K"/><path d="M745.3 627V462.2h-10.6V453h-11.1v-10H712v177.2h-11.1v10.2 1 3.9 1.1 4 1.1 4.1 1 4.1 1.1 1.5h0H712v3.6 4h22.2 11.1 1.6 7.9 1.6V627z" class="G"/><g class="J"><path d="M549.5 640.1v-52.5-1.7-8.8h-5.9v-16.4h-4.9v-20.2-1.6h.5v-2.2h-.5v-1.2h-5l-13.4-8.2-13.4 8.2H502v1.2h-.5v2.2h.5v1.6 20.2h-5v16h-5.9v9.2 1.7 52.5h-22.4v23.7h35.8.8 2 0 1.1 4.9 0 .5 1.6.4 0 .6 8.4.2 1.9 1 4.9.1.4 1.6 1 .4H572v-4.6-4.3-3.7-4.3-6.8z"/><path d="M421.4 478.6v6.4H413v176.8h8.4 47 8.4V478.6zm-68.8 14.5h-6.4V481h-7.9v-17.7h-2.6v-.9h-8.4v-6.9h-.2v-5.7h-.4v5.7h-.2v6.9h-.5v.9h-5.9v-1.8h-9.7v1.8H309v203.3h29.3 0 14.3zM1196 650.2h3V539h7.5v-1.5h7.1v1.5h35.2v8.6h7.8v102.6h5.5v13h-5.5v.5h-7.8-42.1-7.7v-.5h-3zm-544.2-181v6.8h8.4v188.2h-8.4-47-8.5v-195zm554.8-97.4v-1.4h-.1 0-15.6v-3.2l-7-3.1h4.3 0v-1.8l-1.2-19.9h0V341h.8 0 2.8v-1.5h-.1 0-2.7v-2.2h0-1.6 0v2.2h-4l-.7-15h0v-.8h1.4 0 .1 1.6 0 0v-1.4-2.3h0 0-1.7v2.3h-2.1V320h0 0-1.6v2.3h-2v-49.4h0 0-1.7v-1.4h1.9 1.8V270v-2.8h0 0-1.8v2.8h-1.9v-22.9h1.9 0 1.8 0v-1.5-2.8h0-1.8 0v2.8h-1.9v-.2-26.1h1.9 1.8v-1.5-2.8h0-1.8 0v2.8h-1.9-.7v-23.9-1.5h0 0-1.8v1.5 23.9h-.7-1.8V215h-1.7v2.8 1.5h1.7 1.8v26.1.2h-1.8v-2.8h-1.7v2.8 1.5h1.7 1.8V270h-1.8v-2.8h-1.7v2.8 1.5h1.7 1.8v1.4h-1.7v49.4h-2V320h-1.6v2.3h-2.2V320h-1.6v2.3 1.4h0 1.6 0 1.5v.8h0l-.7 15h-5.1v-2.2h-1.6v2.2h-1.7v1.5h1.7 0 1.6 0 .4 0-.1v1.4h0l-1.2 19.9v1.8h2.6l-7 3.1v3.2h-13.9v1.4h10.1l-3.4 2.8h0 0v.9.6h-6.7v1.5h6.6v1.2h.1v.2h0l3.4 2.8h-5.4v1.5h5.7v1.5 1h1.5v1.8 1.8h2v5.3 1.1 1.1 1.7 1.1 1.8 1.1 1.1l1.8 24 3.9 41.8h1.3v114.2h-.6-1.7l-.4 13.4h-2.3v11.6h1.9l-.1 4.1-.2 10.2-.4 14.3h-3.6v7.5h3.3l-.5 18.6h1.8.2 1.2 1.8 3.8 1.8 1.5 1.8 1.6.8 2.6 0 1.7 0 1.6 0 1.7 0 3.8 0 1.2.1 1.9 0l-.5-18.6h3.3v-7.5h0-3.6l-.4-14.3h.2 0l-.5-12.2-.1-2.1h2 .1v-11.6h-.1-2.3l-.4-13.4h0-2.3V469.5h1.3.1l3.8-41.8 1.8-24v-1.1-1.1-1.7-1.2-1.7-1.1-1.1-5.3h2.4 0v-1.8-1.8h1.4v-1-1.5h7.1 0v-1.5h0-7l2.5-2h.1 0l.9-.8v-1.4h8.2.1v-1.5h-.1-8.2v-.6-.9h0-.1 0l-3.4-2.8h11.7zM143.4 643.4h-3.3v-79.7l-37.5-11.5v91.2H91.8v-59.6l-37.5 11.5v48.1h-2.7v2.4h-3.4v16.8h57.3 39.8v-16.8h-1.9zm61.9-129.8V506h-50.5v7.6h-2.4v147.8h55.2V513.6zm1189.2 29.3v.3 1 .1 1.1.1 1.2.1 1.1.1 1.1.2h3.2v.1h0v.7.2 1 .1 1.1.1 1.1.1h.2.2.6.2.6.2.6.2.6.2.2v.1h0v101h0v.1.2.4 1 .3.2.1 2.6h0v.3h0v.3 1.7.3.4 1h0-.6-1.8-.6-3.3-.4-.3-2-1.3-.6-3.7-.6-3.3-.6-3.2-.6-3.3-.6-3.3-.6-3.3-.6-3.3-.6-3.1-.6-3.3-.7-3.3-.6-.2 0-.2 0-.4 0-.2 0-.4 0-.2 0-.4 0-.2 0-.4 0-.2 0-.4 0-.2 0-.4 0-.2 0-.5 0-.1 0-.5 0-.2 0-.4 0-.2 0-.4 0-.2 0-.4 0-.2 0-.4 0-.2 0-.4 0-.2 0V543.2v-.3z"/></g><path d="M333.8 494.4v-.1h-1.4l-9.7-.3h0-.7l-6.7-.3-1.2-19.3h-1.4v.1h0v-.1l-6.8-1.5h0l-.2-.1-3.2-.7-3.5-.9-7-1.6V456h-.7v-17.6h-1.2V456h-.8v13.6l-.3.1h0l-20.1 5v1.6-.1l-.2 4.1h-1.8 0-1.4 0-4.2-.3-5.1l-.7 4.3h0-.1v.6l-.6 4.7h-.1v.4l-.5 3.3h-3.7-1.4-4.2-1.4-2.3v2.9 1.1h0v4.4 1 .2 4.4 1.2 4.4.9.2 4.5 1.1 4.4 1 .2 4.4 1.2 4.4.9.2 4.5 1.1 4.4 1 .2 4.4 1.2 4.4.9.2 4.5 1.1 4.4 1 .2 4.4 1.2 4.4.9.2 4.5 1.1 4.4 1 .2 4.4 1.2 4.4.9.2 4.5 1.1 4.4 1 .2 4.4 1.2 4.4.9.2 4.5 1.1 4.4 1 .2 4.4 1.2 4.4.9.2 4.5 1.1 4.4 1 .2 2.8h2.3 1.4 4.2 1.4 4.1 1.5.8 0 .8H289h35.4H337h0v-2.8-.2-1-4.4-1.1-4.5-.2-.9-4.4-1.2-4.4-.2-1-4.4-1.1-4.5-.2-.9-4.4-1.2-4.4-.2-1-4.4-1.1-4.5-.2-.9-4.4-1.2-4.4-.2-1-4.4-1.1-4.5-.2-.9-4.4-1.2-4.4-.2-1-4.4-1.1-4.5-.2-.9-4.4-1.2-4.4-.2-1-4.4-1.1-4.5-.2-.9-4.4-1.2-4.4-.2-1-4.4-1.1-4.5-.2-.9-4.4-1.2-4.4-.2-1-4.4h0v-1.1-2z" class="I"/><path d="M262.2 658.7c-5.7-1.8-11.7-2.7-17.9-4s-12.7-2.3-16.5-2.6-8.9-.9-14.8-2.4-9.8-1.2-10.6-1.1c-.2 0-1.1-.1-2.3-.3V647h.2v-1h-.2 0-2.1l-.2-1.5h.2v-.7h-.2v-8.4-.6h.1l.1-.8h.3v-.4h.2v-1.1h-.9v-1h-.3v-.5h-1.1l-.2-5.2h-.2l-.5-1.6h0l-.7-36.9h0v-1h0l-2-5-2.1 5h0v1h0l-.7 36.9h-.1l-.4 1.6h-.2l-.2 5.2h-.7v.5h-.3v1h-1v1.1h.2v.4h.1l.1.8h.1v.4.2 8.4h-.2v.7h.2l-.2 1.5H185h0-.2c-.2 0-4 1.7-7.8 2.7l-4.5 1.1c-1.2.3-9 3-14.1 5s-5.1 1.9-11.1 4.1-9.9 3.8-9.9 3.8l152.8-.1c0-.1-22.4-2.1-28-3.9z" class="G"/><path d="M416.3 538.5h0-9l-.4-.5v-.4h-7.1v-1.9h-4.3v-2.2h-10.4v4.1h-8.3v.9h0-9.3 0-.7v123.7h.7 9.4 30 9.4.8V550.5v-12z" class="I"/><path d="M268.4 635.5v-1.3-.6-1.5h-5.1v-.4-2.4-.5-2.4-.5-2.4-.5-2.4-.5-2.4-.7-2.4-.5-2.4-.5-2.4-.5-2.4-.5-2.4-.5-2.4-.5-2h1.8v-1.5h-1.8v-4.7h0V589h0v-3.5-.1-16.7-.7h.5v-.1h.4v-.5h.3v-.4h-.7v-.1-.6h.8V565h-.9c-.1-3.8-1.8-7.2-4.5-8.9h0l-.3-.2-.4-.3h.4v-.8h-1.5v-.8h-.6v-.7h-1.2v-1.2h.3v-.5h-.3v-4h.3v-.5h-.3v-.3h-.1v-5.6c.3-.1.5-.3.5-.6a.68.68 0 1 0-1.4 0c0 .3.2.5.5.6v5.6h-.1v.3h-.3v.5h.3v4h-.3v.5h.3v1.2h-1.2v.7h-.6v.8h-1.5v.8h.5l-.4.2-.1.1-.2.1h0c-2.7 1.7-4.4 5.1-4.5 8.9h-.9v1.3h.9v.6h.1v.1h-1.3v.4h.3v.5h.9v.1h.1v.7 16.7.1 2.1h0v3.6 4.7h-1.8v1.5h1.8v2.6h0v2.4.5 2.4.5 2.4.5 2.4.5 2.4.5 2.4.5 2.4.5 2.4.5 2.4.5 2.4.5 2.4.4h-4.5v1.5.6 1.3h-3-3 0v3.5h0v.5 17.4 3.6 5h0 3 3 1.3 4.3 3.4 7 4.4 4.3.9 0 3 3 0v-5-3.6-17.4-.1h0v-3.4h0-5.8z" class="K"/><path d="M370.6 515.6v1.1h-9v-4h-27.4v4h-9.6v-1.1h-2.5v1.1 146.1h1.4 1.1 1 .8 1.4 1.1 1 2 .2 1 .2 0 .9 1 1.2 1 1.1 2 .2 1 .2 0 .9.9 1.3 1 1.1 2.2 1 1.1 2 .1 1.1.1.1.9.9 1.2 1.1 1.1 1.4.6.1 1.1.1.1.9.9 1.2 1.1 1.1 2 .1 1.1 1.2V516.7v-1.1z" class="G"/><path d="M522.6 593.9v3.4h-.8 0-1.6 0-.8 0-1.6 0-.8 0-1.6 0-.8 0-1.5 0-.2V462h-2.8v2.5h-1.6-.8-2.5-.8-2.5-.7-2.5-.7-2.5-.8-1v-21.8h.1v-2.8H440v1.9.9 147.8h2.3.5 3.6 0v1.7 4.3h-18.5v.6.4 1.8 49.6.6 2.2h0 2.8 0 15.7v.3h-18.5v2.3h18.5v3.1 7.7h4.1 36.1 5.1 4.5 14.3 7.6 4.5v-7.7h.1v7.7h2.8V594h-2.9zm-31.5-151.3v5.5h-.5 0-1.1 0-3.6 0-1.1 0-3.6 0-1.1 0-3.6 0-1.1 0-3.6 0-.8 0-3.6 0-1.1 0-3.6 0-1.1 0-3.6 0-1.1 0-3.6 0-1.1 0-3.2 0-1.1 0-3.6 0-1.1 0-.6v-5.5h48.5zm31.5 211.6h0l-.1-2.3h.1v2.3z" class="K"/><path d="M633.5 627.8v-7.2h0v-6.2h0V610h0v-6.2h0v-4.4h0v-6.2h0v-4.4h0v-6.2h0v-4.4h0V572h0v-4.4h0v-6.2h0V557h0v-6.2h0v-4.4h0V540h0v-4.4h0v-6.2h0V525h0v-6.2h0v-4.4h0v-6.2h0v-4.4h0v-6.2h0v-4.4h0V487h0v-4.4h0v-6.2h0V472h0v-6.2h0v-4.4h0V455h0v-4.4h0v-6.2h0V440h0v-6.2h0v-4.4h0v-6.2h0V417h0v-1.7h.8V413H622h-.8v-22.8h-1.9v-1.4-2.6h-.6v-8.4h-.5v8.4h-.6v2.6H616h-5.2-3.2-6.5-3.2-4.5-3.2-4.5-3.2-5.2-3.2v1.6l-5.6-1.6v5l5.6 1.6v8h-5.6v9.5h-15.3v2.3h1.1v1.7 210.8h-19.6v2.7h2.3v2.7V665h7.1H556h12 12.2 12.4 12.2 14.1 12.2 14.7H658h10.2v-.1-31.6-2.7h2.3v-2.7h-37zm-32.4-224.3h0 .2-.2zm-3.2 0h-4.5v-2.3l4.5 1.3v1zm-7.8 0h-2.5-2v-4.6l4.5 1.3v3.3zm25.9-11.2v10.4l-5.2-1.5v-8.9h5.2zm-8.4 0v7.9l-6.5-1.9v-6h6.5zm-9.7 0v5.1l-4.5-1.3v-3.8h4.5zm-7.8 0v2.8l-4.5-1.3v-1.5h4.5zm-7.8.6l-1.9-.5h1.9v.5zm-5.2 3.5l5.2 1.5v5.5h-5.2v-7z" class="G"/><path d="M716.7 567.9l-.1-.2.1-.1-.3-.2-.8-1.3v-30.4-.4-.2-1.6-.4h-19.5v-1.7h-.8v-8.6h-.6v8.6h-.8v1.7h-22.5v-1.7h-.8v-8.6h-.6v8.6h-.8v1.7h-19.4v.4 1.6.2.4 31.9h0v.1 2.7h0 0v88.4 1.2 2.3h21.7l.3.3.2-.3h20.9l.6 1 1.1-1h21V660v-1.2-86.9l.7-.9.4-.4-.1-.1.1-.1-.3-.3-.7-1.1.6-.8z" class="K"/><path d="M925.4 409.6h-20v-5.9h-5c-.2-9.3-7.5-16.8-16.3-16.8-3.8 0-7.2 1.4-10 3.6h-.1v.1c-2.3 1.9-4 4.4-5.1 7.2h-.1v.2c-.6 1.8-1 3.7-1.1 5.7h-6v5.9h-19.9v2h.5v251.1h41.2 41.2V411.6h.5v-2z" class="G"/><path d="M1280 580.4v.6h-8v-2.3h-25v2.3h-8v-.6h-2.2v84.4h1.3.9.9.7 1.2.9 1 1.8.2.9.1 0 .8.8 1.1.9.9 1.8.2.9.1 0 .8.8 1.1.9.9 1.9 1 .9 1.8.2.9.1 0 .8.8 1.1 1 .9 1.8.2.9.1 0 .8.8 1.1 1 .9 1.8.2.9 1.1v-84.4h-1.7zm0 1.1h0-1.8-.9-1-1.1-.8-.8 0 6.4zm-15.3 0h0-1.8-.9-1-1.9-.9-.9-1.1-.8-.8 0 10.1zm7.7.1h-1.8-.9-1-1.1-.8-.8 0 6.4 0zm-19.1-.1h0-1.8-.9-.9-1.1-.8-.8 0 6.3zm-14.2 0h6.5 0-1.8-1-.9-1.2-.7-.9 0z" class="K"/><g class="J"><use href="#C"/><use href="#C" x="-154.7" y="-0.3"/></g><use href="#C" x="-259" y="0.2" class="G"/><g class="I"><use href="#D"/><use href="#D" x="-85.2"/></g><path d="M62.5 656.4c-1.7 0-3.3.7-4.5 1.8-1.2-1.1-2.7-1.8-4.5-1.8-1.7 0-3.3.7-4.4 1.8-1.2-1.1-2.7-1.8-4.4-1.8-3.5 0-6.3 2.7-6.4 6.2h8.8 4.1 4.9H60h9c-.2-3.5-3-6.2-6.5-6.2z" class="H"/><path d="M112.6 618c1 .3-3.7-9.4-13.1-3.5-1.7 1 3.4-6.1 3.4-6.1s-6.7.9-7 6.7c-.1 1-3.7-9-12.7-.7-.2.1 9.4 2.3 9.2 2.6s-11.4-2-11.8 7.8c0 .2 9.1-3.7 12-3.6.2 0-8.6 4.6-3.9 14.8.3.5 5.7-4 6.6-10.2l-.7 38.3 4.6-.2c-1.1-14.7-2-33.1-2.4-41.8 1.8 2.5 5.8 6.8 13 8 0 0-1.1-9.9-9.6-11.2-.4 0 8.8-2.3 12.4-.9z" class="G"/><g class="H"><path d="M185.6 634.2c1.1.5-4.1-11.4-15.5-4.7-2 1.2 4.3-7.1 4.3-7.1s-8 .8-8.7 7.7c-.1 1.1-4-10.9-15.1-1.3-.2.1 11.1 3 10.9 3.5-.2.4-13.6-2.7-14.3 9 0 .1 11-4 14.4-3.9.3 0-10.5 5.2-5.2 17.4.3.6 7.2-4.8 8.4-12.4 0-.2.1-.5.1-.7l.3 22.8 4.3-.9c-.5-9.2-1.6-18.5-2.3-24.3 2.2 3.1 6.8 7.7 14.6 9.2 0 0-1-11.8-11-13.6-.6-.2 10.5-2.5 14.8-.7z"/><use href="#E"/><path d="M246.1 654.5c-2.2 0-4.1.8-5.5 2.2-1.4-1.4-3.4-2.2-5.5-2.2s-4 .8-5.5 2.2c-1.4-1.4-3.4-2.2-5.5-2.2a8.02 8.02 0 0 0-8 7.6H227h5 6.1 4.9 11.1c-.2-4.3-3.7-7.6-8-7.6z"/></g><use href="#D" x="150.1" class="I"/><g class="H"><use href="#E" x="225.9" y="-0.1"/><use href="#E" x="299.4" y="-0.1"/><path d="M359.5 646c-1.1.2 3.1-2.4 3.1-2.4s-3.6-.9-5 1.9c-.2.5 0-5.4-6.4-3-.1 0 4.4 3.1 4.2 3.2s-5.5-3.4-7.7 1.6c0 .1 5.4 0 6.9.6.1.1-5.4.6-5.1 6.8 0 .3 3.9-.9 5.7-4.1l1-2v13h2.3c-.6-3.6-1.1-7.9-1.4-10.8.7 1.6 2 3.7 4.5 5.3 0 0 1.4-5.3-2.6-7.7-.3-.1 4.9.6 6.5 2.1.4.4.1-5.6-6-4.5z"/></g><path d="M460 660.8c-.5-9.5-8.2-17-17.8-17s-17.4 7.5-17.8 17H460z" class="J"/><g class="H"><use href="#E" x="355.1" y="-1.7"/><path d="M611.7 653.3c-2.2 0-4.1.8-5.6 2.2-1.4-1.4-3.4-2.2-5.5-2.2s-4 .8-5.5 2.2c-1.4-1.4-3.4-2.2-5.5-2.2a8.02 8.02 0 0 0-8 7.6h10.9 5 6.1 4.9 11.1c-.1-4.2-3.6-7.6-7.9-7.6z"/><use href="#D" x="394.6" y="-1.9"/></g><path d="M492.3 639c1.7 0 7.2 2.3 7.2 2.2-.2-5.9-7-4.5-7.1-4.7s5.6-1.5 5.6-1.6c-5.4-5-7.6 1-7.7.4-.2-3.5-4.2-4-4.2-4s3.1 4.3 2.1 3.7c-5.7-3.6-8.5 2.3-7.9 2.1 2.2-.8 7.7.5 7.4.6-5.1.8-5.8 6.7-5.8 6.7 4.3-.7 6.7-3.3 7.8-4.8-.2 5.3-.8 16.3-1.5 25.1l2.8.1-.4-23c.6 3.7 3.8 6.4 4 6.1 2.9-6.2-2.4-8.9-2.3-8.9zm29.8.2c.5.2-2-5.1-7.1-1.9-.9.6 1.8-3.3 1.8-3.3s-3.6.5-3.8 3.6c0 .6-2-4.9-6.9-.3-.1.1 5.1 1.3 5 1.4-.1.2-6.2-1.1-6.4 4.3 0 .1 4.9-2 6.5-2 .1 0-4.7 2.5-2.1 8 .2.3 2.8-1.9 3.5-5l-.4 20.3 2.5-.1c-.6-8.1-1.1-18.2-1.3-22.9.9 1.3 3.1 3.8 7.2 4.5 0 0-.6-5.4-5.2-6.1-.3 0 4.7-1.2 6.7-.5z" class="J"/><path d="M507.3 648.2c-1.1.2 3.1-2.4 3.1-2.4s-3.6-.9-5 1.9c-.2.5 0-5.4-6.4-3-.1 0 4.4 3.1 4.2 3.2s-5.5-3.4-7.7 1.6c0 .1 5.4 0 6.9.6.1.1-5.4.6-5.1 6.8 0 .3 3.9-.9 5.7-4.1l1-2v13h2.3c-.6-3.6-1.1-7.9-1.4-10.8.7 1.6 2 3.7 4.5 5.3 0 0 1.4-5.3-2.6-7.7-.3-.1 4.9.6 6.5 2.1.4.3 0-5.7-6-4.5z" class="H"/><g class="G"><use href="#F"/><use href="#F" x="42"/></g><use href="#F" x="-91.5" class="I"/><use href="#D" x="1175.1" y="-1.5" class="G"/><path d="M1370.7 653.6c-2.2 0-4.1.8-5.5 2.2-1.4-1.4-3.4-2.2-5.5-2.2s-4 .8-5.5 2.2c-1.4-1.4-3.4-2.2-5.5-2.2a8.02 8.02 0 0 0-8 7.6h11 5 6.1 4.9 11.1c-.3-4.3-3.8-7.6-8.1-7.6z" class="I"/><path d="M1157.2 653.6c-2.2 0-4.1.8-5.5 2.2-1.4-1.4-3.4-2.2-5.5-2.2s-4 .8-5.5 2.2c-1.4-1.4-3.4-2.2-5.5-2.2a8.02 8.02 0 0 0-8 7.6h11 5 6.1 4.9 11.1c-.4-4.3-3.8-7.6-8.1-7.6z" class="H"/><path d="M1343.3 636c1.8-.5 8.2.7 8.2.6-1.6-6.2-8.4-3.2-8.6-3.4s5.6-2.9 5.5-3c-6.9-4.1-7.8 2.8-8 2.2-1-3.6-5.4-3.2-5.4-3.2s4.2 3.9 3 3.4c-6.8-2.5-8.4 4.4-7.9 4 2.2-1.4 8.4-1.3 8-1.1-5.2 2-4.5 8.5-4.5 8.5 4.4-1.7 6.3-5 7.1-6.8l4 25.7 3-.5-5.4-23.1c1.5 3.8 5.5 5.9 5.6 5.5 1.6-7-4.7-8.7-4.6-8.8z" class="G"/><g class="H"><path d="M1352.8 642.4s-1.4 10-2 19.7l2.8.6.3-19.8-1.1-.5z"/><path d="M1342.8 652.3s.6-7.7 7.2-8.9c.4-.1-6.8-1.6-9.6-.4-.7.3 2.6-7.4 10.1-3 1.3.8-2.8-4.7-2.8-4.7s5.2.5 5.6 5c0 .8 2.6-7.1 9.8-.8.1.1-7.2 2-7.1 2.3s8.8-1.8 9.3 5.8c0 .1-7.2-2.6-9.4-2.5-.2 0 6.8 3.3 3.4 11.3-.2.4-4.7-3.1-5.5-8.1-.4-2.3-.4-3.9-.4-3.9s-2.7 6.3-10.6 7.9z"/></g><g class="G"><path d="M1376.3 630.5s-1.1 17.5-2.4 30.6l3 .2.1-30.8h-.7z"/><path d="M1367.7 637.7s.8-6.4 6.3-7.3c.4 0-5.6-1.5-8-.6-.6.2 2.4-6.2 8.6-2.3 1 .7-2.3-4-2.3-4s4.4.6 4.6 4.3c0 .6 2.4-5.9 8.2-.5.1.1-6.1 1.5-6 1.7s7.4-1.3 7.7 5.1c0 .1-6-2.4-7.8-2.3-.2 0 5.6 3 2.5 9.6-.1.3-3.8-2.7-4.4-7-.3-2-.2-3.3-.2-3.3s-2.5 5.5-9.2 6.6z"/></g><use href="#D" x="850" y="-1.9" class="J"/><g class="G"><use href="#D" x="638.2" y="-1.1"/><use href="#D" x="541.1" y="-1.1"/><path d="M673.3 660.9c-.3-6.1-5.3-10.9-11.4-10.9s-11.2 4.8-11.4 10.9h22.8z"/></g><path d="M821.7 633.6c1.1.5-4-11.2-15.3-4.6-2 1.2 4.2-7.1 4.2-7.1s-7.8.8-8.5 7.6c-.2 1.2-4-10.7-14.9-1.2-.2.1 11 3 10.7 3.4-.2.5-13.4-2.7-14.2 8.9 0 .1 10.9-4 14.3-3.8.3 0-10.3 5.1-5.1 17.2.2.6 7.1-4.7 8.3-12.2 0-.3.1-.5.1-.7l.3 22.6 4.2-.9c-.6-9.1-1.6-18.3-2.3-24 2.2 3 6.7 7.6 14.4 9.1 0 0-.9-11.6-10.8-13.5-.7-.2 10.2-2.5 14.6-.8z" class="H"/><path d="M772 654c-2.2 0-4.1.8-5.5 2.2-1.4-1.4-3.4-2.2-5.5-2.2s-4 .8-5.5 2.2c-1.4-1.4-3.4-2.2-5.5-2.2a8.02 8.02 0 0 0-8 7.6h11 5 6.1 4.9 11c-.2-4.3-3.7-7.6-8-7.6zm-48.9 0c-2.2 0-4.1.8-5.5 2.2-1.4-1.4-3.4-2.2-5.5-2.2s-4 .8-5.5 2.2c-1.4-1.4-3.4-2.2-5.5-2.2a8.02 8.02 0 0 0-8 7.6H704h5 6.1 4.9 11.1c-.2-4.3-3.7-7.6-8-7.6z" class="J"/><path d="M701.1 646.2c2.2-.4 9.9 1.6 9.9 1.5-1.4-7.7-10-4.7-10.2-4.9-.2-.3 7.2-3 7-3.1-8-5.6-9.8 2.7-9.9 1.9-.9-4.5-6.3-4.5-6.3-4.5s4.8 5.1 3.4 4.4c-8.1-3.7-10.7 4.6-9.9 4.2 2.7-1.5 10.2-.8 9.8-.6-6.5 2-6.3 9.9-6.3 9.9 5.3-1.7 8-5.3 9.2-7.5-.4 4-.9 9.5-1.6 14.2h2.8l-.1-14.1c.1.6.3 1.2.5 2 1.4 5 6.3 8 6.5 7.6 2.5-8.4-5-11-4.8-11z" class="H"/><g class="J"><path d="M1309 653.6c-2.2 0-4.1.8-5.6 2.2-1.4-1.4-3.4-2.2-5.5-2.2s-4 .8-5.5 2.2c-1.4-1.4-3.4-2.2-5.5-2.2a8.02 8.02 0 0 0-8 7.6h10.9 5 6.1 4.9 11.1c-.1-4.3-3.6-7.6-7.9-7.6z"/><use href="#G"/><use href="#G" x="81.5"/></g><g class="H"><use href="#E" x="840.4" y="-1.9"/><path d="M870.2 653.1c-2.2 0-4.1.8-5.5 2.2-1.4-1.4-3.4-2.2-5.5-2.2s-4 .8-5.5 2.2c-1.4-1.4-3.4-2.2-5.5-2.2a8.02 8.02 0 0 0-8 7.6h10.9 5 6.1 4.9 11.1c-.3-4.2-3.8-7.6-8-7.6z"/></g><path d="M0 660.9h1440v11.4H0z" class="K"/><defs ><path id="C" d="M401.6 662.6c-.6-12.9-11.3-23.2-24.3-23.2-13.1 0-23.7 10.3-24.3 23.2h48.6z"/><path id="D" d="M163.6 662.6c-.4-7.8-6.8-14.1-14.7-14.1s-14.4 6.2-14.7 14.1h29.4z"/><path id="E" d="M113.8 655c-2.2 0-4.1.8-5.5 2.2-1.4-1.4-3.4-2.2-5.5-2.2s-4 .8-5.5 2.2c-1.4-1.4-3.4-2.2-5.5-2.2a8.02 8.02 0 0 0-8 7.6h10.9 5 6.1 4.9 11.1a8.02 8.02 0 0 0-8-7.6z"/><path id="F" d="M1242.6 661.2c-.4-9-7.9-16.3-17-16.3-9.2 0-16.6 7.2-17 16.3h34z"/><path id="G" d="M848.6 660.9c-.3-6.9-6-12.4-13-12.4s-12.7 5.5-13 12.4h26z"/></defs></svg>