<?xml version="1.0" encoding="utf-8"?>
<!-- Generator: Adobe Illustrator 18.0.0, SVG Export Plug-In . SVG Version: 6.00 Build 0)  -->
<!DOCTYPE svg PUBLIC "-//W3C//DTD SVG 1.1//EN" "http://www.w3.org/Graphics/SVG/1.1/DTD/svg11.dtd">
<svg version="1.1" id="Layer_1" xmlns="http://www.w3.org/2000/svg" xmlns:xlink="http://www.w3.org/1999/xlink" x="0px" y="0px"
	 viewBox="0 0 361.1 139.8" enable-background="new 0 0 361.1 139.8" xml:space="preserve">
<path d="M117.9,132.3c-3.9-3-8.8-9.5-14.1-18.3c-1-1.6-0.9-2.5,0.1-3c4.7-2,9.6-5.6,9.6-12.6c0-6.1-3.4-10.3-8.6-12.8
	c-4.7-2.1-10.7-2.7-18.8-2.7c-9.1,0-17.8,0.4-22.5,0.7c-1.4,0.4-1.2,3.2-0.2,3.6l1.5,0.2c4.2,0.8,4.7,1.2,4.7,11.3v24.4
	c0,8.2-0.4,10-5,10.6l-2.5,0.2c-1,0.8-0.7,3.1,0.1,3.6c4.5-0.2,9.2-0.4,14.2-0.4c4.7,0,9.5,0.1,13.9,0.4c0.9-0.5,1.1-2.9,0.1-3.6
	l-2.5-0.2c-4.6-0.6-5-2.4-5-10.6v-7.5c0-1.9,0.2-2.1,2.4-2.1c2.4,0,4,0.5,5.4,2.7c1.9,3.4,5.1,9,8,12.8c5,6.7,9.8,9,17.7,9
	c4.2,0,6.2-0.2,7.6-0.9c0.6-0.4,0.6-2-0.1-2.4C122.2,134.8,120.1,134.1,117.9,132.3 M89.2,109.8c-3,0-5-0.1-5.5-0.5
	c-0.5-0.4-0.7-1.2-0.7-2.7V90.6c0-2.9,0.5-3,4.7-3c6.8,0,11.5,4.6,11.5,11.7C99.2,104.8,96.2,109.8,89.2,109.8"/>
<path d="M289,85.9c-4.9-2.6-11.2-3.3-19.7-3.4c-2.3,0-6.8,0.1-11.1,0.3c-2.1,0.1-5.1,0.2-8.2,0.3c0,0,0,0,0,0l0,0
	c-5.6,0.1-11.7,0.1-14.7,0.1c-0.4,0-0.9,0-1.3,0c-3.6,0-6.4-0.1-10.6-0.4c-1.2,0.6-1.2,2.8-0.2,3.6l3.3,0.4c3.3,0.4,4.2,2,4.6,6.8
	c0.1,1.5,0.5,5.6,0.5,10.9v10.2c0,11.3-3.2,18.9-13.8,18.9c-10,0-13.9-7.9-13.9-19V97.2c0-8.1,0.4-9.9,4.9-10.5l2.5-0.2
	c1-0.7,0.7-3.1-0.1-3.6c-4.4,0.2-9.1,0.4-13.8,0.4c-4.9,0-9.6-0.1-14.1-0.4c-0.9,0.5-1.1,2.8-0.1,3.6l2.5,0.2
	c4.6,0.6,4.9,2.3,4.9,10.5v18.7c0,9.3,2.5,14.9,6.9,18.5c3.8,3.2,9.7,4.3,16.7,4.3c6.5,0,12.9-1.9,16.9-5.5c3.9-3.7,6-10,6-17.9
	v-10.9c0-5.3,0.2-9.4,0.4-11c0-0.7,0.1-1.4,0.2-2c0.1-0.3,0.2-0.6,0.3-1c0,0,0,0,0,0c0-0.1,0.1-0.2,0.1-0.3c0.4-1,1.1-1.8,2-2.4
	c0,0,0,0,0,0c0.1-0.1,0.2-0.2,0.4-0.2c0.1-0.1,0.2-0.1,0.4-0.2c0.1,0,0.1-0.1,0.2-0.1c0.2-0.1,0.4-0.2,0.6-0.2c0.1,0,0.1,0,0.2-0.1
	c0.1,0,0.2-0.1,0.3-0.1l0.1,0c0.9-0.2,1.9-0.4,3.1-0.4c4.4,0,6.7,1.8,7.4,4.4c0,0,0.2,0.2,0.3,1.4c0,0.1,0,0.2,0,0.3
	c0.1,0.7,0.1,1.7,0.1,3.1c0,0.9,0,13.7,0,14.8v12.5c0,8.2-0.4,10-5,10.6l-1.9,0.2c-1,0.8-0.7,3.1,0.1,3.6c3.9-0.3,8.6-0.4,13.6-0.4
	c4.7,0,9.5,0.1,14.6,0.4c0.9-0.5,1.1-2.9,0.1-3.6l-3.1-0.4c-4.6-0.5-5-2.2-5-10.5v-8.3c1.1,0.5,2.4,0.6,3.9,0.8c0,0,3.4,0.3,7.5,0
	c9.9-0.4,19.6-4.7,19.6-15.5C297.5,93.1,293.8,88.4,289,85.9 M272.9,112.7c-2.7,0.5-4.8,0.1-6.5-0.6V90.8c0-3.4,0.8-3.5,5.6-3.5
	c5.7,0,10.8,4.5,10.8,11.7C282.9,106.9,279,111.6,272.9,112.7"/>
<path d="M59.6,113.3c0,0,0.8-0.9,0.8-2.1c0-1.1-0.7-1.8-0.8-2c-3.1,0.2-6,0.3-9.3,0.3c-5.6,0-10.3-0.2-15-0.5
	c-1.3,0.5-1.4,3-0.4,3.6l3.1,0.5c5.5,1,5.8,1.9,5.8,6.6V130c0,3.6-3.3,4.3-8.3,4.3c-11.3,0-20.3-9.3-20.3-24.9
	c0-13.1,6.8-23.4,19-23.4c8.9,0,14.5,3.6,17.4,12.6c0.9,0.9,3.1,0.6,3.5-0.4c-0.9-6.4-1.3-11.8-1.3-14.3c-2.4-0.6-10.8-2.8-18.7-2.8
	c-11.5,0-21.4,4-27.2,9.8c-5.9,5.9-8,13.3-8,20c0,6.9,2.8,14.3,7.9,19.2c6.4,6,15.7,8.9,26.4,8.9c4.8,0,12.1-0.8,18.1-1.8l2.1-0.3
	c0,0,2.4-0.6,2.4-2.4s0.1-7.1,0.1-7.1v-7.8C56.9,115.3,57,114.1,59.6,113.3L59.6,113.3z"/>
<path d="M151.2,82.2c-18.9,0-31.8,12.9-31.8,29.8c0,15.3,11.5,27.8,31.8,27.8c18.2,0,30.9-12.1,30.9-29.3
	C182,95.7,171.7,82.2,151.2,82.2 M151.5,135c-12.1,0-17.1-12.9-17.1-25.6c0-16.4,8.3-22.4,15.4-22.4c11.7,0,17.1,12.1,17.1,26.5
	C167,128.7,160.1,135,151.5,135"/>
<path d="M58.8,49.4C55,46.4,50,40,44.7,31.1c-1-1.6-0.9-2.5,0.1-3c4.7-2,9.6-5.6,9.6-12.6c0-6.1-3.4-10.3-8.6-12.8
	C41.1,0.6,35.2,0,27.1,0C18,0,9.3,0.4,4.5,0.8C3.2,1.1,3.3,4,4.3,4.4l1.5,0.2c4.2,0.8,4.7,1.2,4.7,11.3v24.4c0,8.2-0.4,10-5,10.6
	L3,51.2c-1,0.7-0.7,3.1,0.1,3.6c4.5-0.2,9.2-0.4,14.2-0.4c4.7,0,9.5,0.1,14,0.4c0.9-0.5,1.1-2.9,0.1-3.6l-2.5-0.2
	c-4.6-0.6-5-2.4-5-10.6v-7.5c0-1.9,0.2-2.1,2.4-2.1c2.4,0,4,0.5,5.4,2.7c1.9,3.4,5.1,9,8,12.8c5,6.7,9.8,9,17.7,9
	c4.2,0,6.2-0.2,7.6-0.9c0.6-0.4,0.6-2-0.1-2.4C63.2,51.9,61.1,51.2,58.8,49.4 M30.2,26.9c-3,0-5-0.1-5.5-0.5
	C24.2,26,24,25.2,24,23.7V7.7c0-2.9,0.5-3,4.7-3c6.8,0,11.4,4.6,11.4,11.7C40.1,21.9,37.2,26.9,30.2,26.9"/>
<path d="M121.1,0.5c-4.7,0.2-7,0.4-10.6,0.4c-3.6,0-6.4-0.1-10.6-0.4c-1.2,0.6-1.2,2.8-0.2,3.6l3.3,0.4c3.3,0.4,4.2,2,4.6,6.8
	c0.1,1.5,0.5,5.5,0.5,10.9v10.2c0,11.3-3.2,18.9-13.8,18.9c-10,0-13.9-7.9-13.9-19V14.8c0-8.1,0.4-9.9,4.9-10.5l2.5-0.2
	c1-0.7,0.7-3.1-0.1-3.6c-4.4,0.2-9.1,0.4-13.8,0.4c-4.9,0-9.6-0.1-14.1-0.4c-0.9,0.5-1.1,2.8-0.1,3.6l2.5,0.2C66.6,5,67,6.7,67,14.8
	v18.7c0,9.3,2.5,14.9,6.9,18.5c3.8,3.2,10.5,4.3,17.5,4.3c6.5,0,12.2-1.9,16.1-5.6c3.9-3.7,6-10,6-17.9V22.1c0-5.3,0.2-9.4,0.4-11
	c0.2-4.4,1.1-6,4.6-6.7l2.8-0.4C122.5,3.4,122.2,1,121.1,0.5"/>
<path d="M258.1,40.5c-2.9,6.6-5,9.2-15.1,9.2c-7.7,0-10.6-0.6-11.7-1.9c-1.1-1.4-1.4-4.7-1.4-8.5v-7.7c0-2.4,0.1-2.5,2.9-2.5h4.6
	c6.9,0,8,0.1,9,3.9l0.7,3c0.8,0.7,2.9,0.6,3.5-0.2c-0.1-2.9-0.4-6-0.4-9.3c0-3.1,0.3-6.2,0.4-9.1c-0.6-0.9-2.7-1-3.5-0.2l-0.7,3
	c-1,3.7-2.1,3.9-9,3.9h-4.6c-2.7-0.1-2.9-0.1-2.9-2.2V11.5c0-6,0.1-6.3,3.2-6.3h6.6c6.1,0,9.3,0.5,10.8,3c0.7,1.3,1.5,3.1,2.2,5.2
	c0.9,0.7,3,0.6,3.5-0.4C256,7.3,255.3,1.5,255,0c-1.1,0.2-6.1,0.4-11.6,0.4h-20c-5,0-9.7-0.1-13.2-0.4c-0.9,0.5-1.1,2.9-0.1,3.6
	l1.5,0.2c4.6,0.6,5,2.4,5,10.6v25.9c0,8.2-0.4,10-5,10.5l-3.9,0.4c-1,0.8-0.8,3.1,0.1,3.6c5.8-0.2,10.6-0.4,15.6-0.4h13.3
	c6.7,0.1,13.3,0.1,21.2,0.4c1.1-2.4,2.6-8.6,3.7-13.8C260.7,40.1,259,40.1,258.1,40.5"/>
<path d="M357.6,40.1c-3.7,9-5.7,9.6-15.2,9.6c-6.9,0-8.8-0.9-9.8-1.9c-1.2-1.5-1.5-5.2-1.5-9.1V14.4c0-8.2,0.4-10,5-10.6l2.5-0.2
	c1-0.7,0.8-3.1-0.1-3.6c-4.5,0.2-9.2,0.4-14,0.4c-5,0-9.7-0.1-14.6-0.4c-0.9,0.5-1.1,2.9-0.1,3.6l2.9,0.4c4.6,0.5,5,2.3,5,10.5v25.6
	c-0.1,1.6-0.5,6.7-2,10.5c0,0-0.2,0.4-0.2,0.4c-1.4,3.3,0.3,3.5,1.3,3.5c0.2,0,0.6,0,1.2,0c2.1,0,4.3-0.1,6.5-0.1h12.5
	c6.1,0,13.7,0.1,20.5,0.4c1.5-3.1,3.1-9.6,3.6-14.2C360.4,39.6,358.6,39.5,357.6,40.1"/>
<path d="M311,40.1c-3.7,9-5.7,9.6-15.2,9.6c-6.9,0-8.8-0.9-9.9-1.9c-1.2-1.5-1.5-5.2-1.5-9.1V14.4c0-8.2,0.4-10,5-10.6l2.5-0.2
	c1-0.7,0.8-3.1-0.1-3.6c-4.5,0.2-9.2,0.4-13.9,0.4c-5,0-9.7-0.1-14.6-0.4c-0.9,0.5-1.1,2.9-0.1,3.6L266,4c4.6,0.5,5,2.3,5,10.5v25.9
	c0,8.2-0.4,10-5,10.6l-2.5,0.2c-1,0.8-0.8,3.1,0.1,3.6c4.5-0.2,9.2-0.4,14.2-0.4h12.5c6.1,0,13.7,0.1,20.5,0.4
	c1.5-3.1,3.1-9.6,3.6-14.2C313.7,39.6,312,39.5,311,40.1"/>
<path d="M156.7,2.3c1,2.6,1.8,7.4,2.1,12.4c-0.7,1.1-2.6,1.3-3.4,0.5c-2.3-7.1-6.6-10.5-12.4-10.5c-5.1,0-8.4,3-8.4,7.3
	c0,4.9,4.5,7.4,9.8,9.6c8.3,3.4,16.2,8.2,16.2,18.5c0.1,11.1-10.1,16.2-21.9,16.2c-7.1,0-12.8-1.7-16.1-4.4
	c-1.8-3.4-2.4-8.7-2.2-13.8c0.6-1,2.6-1.3,3.4-0.2c2.2,7.4,7.7,13.8,15.9,13.8c4.9,0,8.5-2.8,8.5-7.3c0-5.7-4.3-9.1-10.1-11.6
	c-7.8-3.2-15.2-8.2-15.2-16.9c0-10.1,8.7-15.9,21-15.9C149.5,0.1,153.5,1.4,156.7,2.3"/>
<path d="M201.2,2.3c1,2.6,1.8,7.4,2.1,12.4c-0.7,1.1-2.6,1.3-3.4,0.5c-2.3-7.1-6.6-10.5-12.4-10.5c-5.1,0-8.4,3-8.4,7.3
	c0,4.9,4.5,7.4,9.8,9.6c8.3,3.4,16.2,8.2,16.2,18.5c0.1,11.1-10.1,16.2-22,16.2c-7.1,0-12.8-1.7-16.1-4.4c-1.8-3.4-2.4-8.7-2.2-13.8
	c0.6-1,2.6-1.3,3.4-0.2c2.2,7.4,7.7,13.8,15.9,13.8c4.9,0,8.5-2.8,8.5-7.3c0-5.7-4.3-9.1-10.1-11.6c-7.8-3.2-15.2-8.2-15.2-16.9
	c0-10.1,8.7-15.9,21-15.9C194,0.1,198,1.4,201.2,2.3"/>
</svg>
