<svg xmlns="http://www.w3.org/2000/svg" width="40" height="40" viewBox="0 0 40 40" fill="none"><g clip-path="url(#clip0_1014_3893)"><path d="M21.5485 30.9035C20.9033 30.6455 19.097 30.7101 18.4518 30.9035C16.7743 31.2907 13.9357 32.7102 13.9357 35.7422L13.8711 39.4198C13.8711 39.5486 13.9357 39.6778 14.0003 39.807C14.0645 39.9358 14.2583 39.9358 14.3871 39.9358H25.0968L25.484 40.0004H25.5486C25.6774 40.0004 25.8066 39.9358 25.8712 39.8712C26 39.7424 26.0646 39.6132 26.0646 39.4844V35.7422C26.0646 32.6456 23.2905 31.2261 21.5485 30.9035Z" fill="#7E57C2"></path><path d="M23.2917 26.0648C23.2917 24.2478 21.8187 22.7744 20.0013 22.7744C18.184 22.7744 16.7109 24.2478 16.7109 26.0648C16.7109 27.8822 18.184 29.3552 20.0013 29.3552C21.8187 29.3552 23.2917 27.8822 23.2917 26.0648Z" fill="#7E57C2"></path><path d="M35.482 30.9035C34.8369 30.6455 33.0306 30.7101 32.3854 30.9035C30.7079 31.2907 27.8693 32.7102 27.8693 35.7422L27.8047 39.4198C27.8047 39.5486 27.8693 39.6778 27.9335 39.807C27.9981 39.9358 28.1918 39.9358 28.3207 39.9358H39.0304L39.4176 40.0004H39.4822C39.611 40.0004 39.7402 39.9358 39.8048 39.8712C39.9336 39.7424 39.9982 39.6132 39.9982 39.4844V35.7422C39.9982 32.6456 37.1595 31.2261 35.482 30.9035Z" fill="#7E57C2"></path><path d="M37.2253 26.0648C37.2253 24.2478 35.752 22.7744 33.9349 22.7744C32.1176 22.7744 30.6445 24.2478 30.6445 26.0648C30.6445 27.8822 32.1176 29.3552 33.9349 29.3552C35.752 29.3552 37.2253 27.8822 37.2253 26.0648Z" fill="#7E57C2"></path><path d="M7.67736 30.9031C7.0322 30.6451 5.22587 30.7096 4.58071 30.9031C2.90323 31.2902 0.0645791 32.7097 0.0645791 35.7418L0 39.4193C0 39.5482 0.0645791 39.6773 0.129158 39.8065C0.193422 39.9353 0.38716 39.9353 0.516003 39.9353H11.2257L11.6129 39.9999H11.6775C11.8063 39.9999 11.9355 39.9353 12.0001 39.8707C12.1289 39.7419 12.1935 39.6127 12.1935 39.4839V35.7418C12.1935 32.6451 9.35484 31.2256 7.67736 30.9031Z" fill="#7E57C2"></path><path d="M9.35421 26.0646C9.35421 24.2475 7.88117 22.7742 6.06382 22.7742C4.24679 22.7742 2.77344 24.2475 2.77344 26.0646C2.77344 27.8819 4.24679 29.3549 6.06382 29.3549C7.88117 29.3549 9.35421 27.8819 9.35421 26.0646Z" fill="#7E57C2"></path><path d="M2.77193 18.9033C3.03024 18.9679 3.35282 18.9033 3.54625 18.7099C3.73967 18.5807 3.86883 18.3227 3.86883 18.0647V13.6132C3.86883 13.4194 3.99798 13.2906 4.19141 13.2906C4.38483 13.2906 4.51399 13.4194 4.51399 13.6132V20.5162H11.0302V14.0646C11.0302 13.8712 11.159 13.742 11.3528 13.742C11.5462 13.742 11.6753 13.8712 11.6753 14.0646V14.9035L15.8043 17.1616C16.1269 17.2904 16.4495 17.2261 16.7721 17.097C17.0946 16.9678 17.3526 16.6452 17.4818 16.3227C17.4818 16.2584 17.5464 16.1938 17.5464 16.1292V16.0647C17.5464 15.9358 17.5464 15.8067 17.5464 15.6775C17.5464 15.5487 17.4818 15.4841 17.4172 15.3549V15.2907C17.3526 15.1615 17.2881 15.0969 17.2238 15.0323L17.1592 14.9681C17.0301 14.9035 16.9655 14.7743 16.8366 14.7743L13.6754 13.0969C13.6108 13.0969 13.6108 13.0326 13.5462 13.0326L13.6108 12.9034L12.0625 10.4519C11.6108 9.7422 10.8364 9.22589 10.0624 9.16162C9.99786 9.16162 9.93328 9.16162 9.8687 9.16162H5.80431C5.35257 9.16162 4.83657 9.22589 4.44941 9.41962C4.06225 9.54847 3.73967 9.87105 3.48167 10.1936C2.5785 11.5485 2.0625 13.0969 2.0625 14.7743V18.0001C2.0625 18.4519 2.38508 18.839 2.77193 18.9033Z" fill="#7E57C2"></path><path d="M10.6424 5.03213C10.6424 3.42899 9.34262 2.12891 7.73916 2.12891C6.13571 2.12891 4.83594 3.42899 4.83594 5.03213C4.83594 6.63558 6.13571 7.93536 7.73916 7.93536C9.34262 7.93536 10.6424 6.63558 10.6424 5.03213Z" fill="#7E57C2"></path><path d="M16.9033 13.8064L20.9677 7.80652L21.8063 8.3871L17.7419 14.387C17.871 14.5161 17.9353 14.5807 17.9999 14.7096C18.1936 14.9679 18.3225 15.2905 18.387 15.613H36.9033V0H14.1289V12.0646L14.3226 12.3872L16.9033 13.8064ZM33.5483 2.32264H34.5806V13.8064H33.5483V2.32264ZM29.9354 7.48394H30.9677V13.871H29.9354V7.48394ZM27.2901 9.484H28.3225V13.8064H27.2901V9.484ZM24.5806 7.0322H25.613V13.8064H24.5806V7.0322Z" fill="#7E57C2"></path></g><defs><clipPath id="clip0_1014_3893"><rect width="40" height="40" fill="white"></rect></clipPath></defs></svg>