<svg xmlns="http://www.w3.org/2000/svg" width="40" height="40" viewBox="0 0 40 40" fill="none"><g clip-path="url(#clip0_1014_4011)"><path fill-rule="evenodd" clip-rule="evenodd" d="M2.44656 8.02075C2.44706 7.62308 2.60525 7.24184 2.88645 6.96064C3.16765 6.67944 3.54889 6.52125 3.94656 6.52075H36.0547C36.4523 6.52137 36.8335 6.67961 37.1147 6.96078C37.3958 7.24195 37.5541 7.62312 37.5547 8.02075V29.4817H2.44656V8.02075ZM16.3392 30.8147H23.6608V31.6367H16.3392V30.8147ZM40 31.9792V30.8147H24.9944V31.7881C24.9941 32.1013 24.8696 32.4016 24.6482 32.6232C24.4268 32.8447 24.1266 32.9694 23.8134 32.9699H16.187C15.8738 32.9695 15.5735 32.8448 15.3521 32.6233C15.1307 32.4017 15.0063 32.1013 15.0061 31.7881V30.8147H0V31.9792C0.000599247 32.3768 0.158827 32.758 0.440002 33.0392C0.721177 33.3204 1.10236 33.4786 1.5 33.4792H38.5C38.8977 33.4787 39.2789 33.3205 39.5601 33.0393C39.8413 32.7581 39.9995 32.3769 40 31.9792ZM19.3334 7.99919C19.3334 8.1311 19.3724 8.26006 19.4456 8.36977C19.5189 8.47948 19.623 8.56501 19.7448 8.61553C19.8667 8.66605 20.0008 8.6793 20.1302 8.6536C20.2595 8.62789 20.3784 8.56439 20.4717 8.47113C20.565 8.37787 20.6285 8.25904 20.6542 8.12967C20.68 8.00029 20.6667 7.8662 20.6162 7.74434C20.5658 7.62248 20.4803 7.51833 20.3706 7.44507C20.2609 7.37181 20.1319 7.33274 20 7.33278C19.8233 7.33287 19.6538 7.40311 19.5289 7.52807C19.404 7.65302 19.3337 7.82248 19.3337 7.99919H19.3334ZM6.53453 14.2961L7.09945 15.4836C7.14113 15.5711 7.20137 15.6484 7.276 15.7103C7.35063 15.7721 7.43784 15.817 7.53156 15.8417C7.58696 15.8565 7.64406 15.8641 7.70141 15.8641C7.83836 15.8641 7.972 15.822 8.08422 15.7435L10.0197 14.3867C10.1644 14.2852 10.2629 14.1303 10.2934 13.9562C10.324 13.782 10.2841 13.6029 10.1826 13.4582C10.081 13.3134 9.92619 13.215 9.75206 13.1844C9.57793 13.1539 9.39879 13.1938 9.25406 13.2953L7.965 14.1984L7.73898 13.7234C7.70191 13.6435 7.64938 13.5717 7.58441 13.5123C7.51945 13.4528 7.44334 13.4068 7.36049 13.3769C7.27764 13.347 7.18968 13.3338 7.10171 13.3381C7.01373 13.3424 6.92748 13.3641 6.84793 13.4019C6.76838 13.4397 6.69711 13.4929 6.63824 13.5584C6.57938 13.6239 6.53407 13.7005 6.50496 13.7836C6.47584 13.8667 6.46348 13.9548 6.4686 14.0427C6.47371 14.1307 6.4962 14.2167 6.53477 14.2959L6.53453 14.2961ZM11.0534 11.1862H5.72031C5.63276 11.1862 5.54606 11.2034 5.46516 11.2368C5.38426 11.2703 5.31074 11.3194 5.24882 11.3812C5.18689 11.4431 5.13777 11.5166 5.10426 11.5975C5.07075 11.6784 5.0535 11.7651 5.05352 11.8526V17.1861C5.05349 17.2736 5.07073 17.3604 5.10423 17.4413C5.13773 17.5222 5.18685 17.5957 5.24877 17.6576C5.31069 17.7195 5.38421 17.7686 5.46512 17.8021C5.54602 17.8356 5.63274 17.8529 5.72031 17.8529H11.0534C11.1409 17.8529 11.2276 17.8356 11.3086 17.8021C11.3895 17.7686 11.463 17.7195 11.5249 17.6576C11.5868 17.5957 11.6359 17.5222 11.6694 17.4413C11.7029 17.3604 11.7202 17.2736 11.7202 17.1861V11.8524C11.7202 11.7648 11.7029 11.6782 11.6694 11.5973C11.6359 11.5164 11.5868 11.4429 11.5249 11.381C11.4629 11.3191 11.3894 11.27 11.3085 11.2366C11.2276 11.2031 11.1409 11.1859 11.0534 11.186V11.1862ZM10.387 16.5193V12.5193H6.38672V16.5193H10.387ZM11.0534 19.25H5.72031C5.63274 19.25 5.54602 19.2673 5.46512 19.3008C5.38421 19.3343 5.31069 19.3834 5.24877 19.4453C5.18685 19.5072 5.13773 19.5807 5.10423 19.6616C5.07073 19.7426 5.05349 19.8293 5.05352 19.9168V25.25C5.05354 25.3375 5.0708 25.4242 5.10432 25.5051C5.13784 25.5859 5.18697 25.6594 5.24889 25.7213C5.3108 25.7832 5.38431 25.8322 5.46519 25.8657C5.54608 25.8992 5.63277 25.9164 5.72031 25.9164H11.0534C11.1409 25.9164 11.2276 25.8992 11.3085 25.8657C11.3894 25.8322 11.4629 25.7832 11.5248 25.7213C11.5867 25.6594 11.6358 25.5859 11.6693 25.5051C11.7029 25.4242 11.7201 25.3375 11.7202 25.25V19.9166C11.7202 19.829 11.7029 19.7423 11.6694 19.6614C11.6359 19.5805 11.5868 19.507 11.5249 19.4451C11.463 19.3831 11.3895 19.334 11.3086 19.3005C11.2276 19.267 11.1409 19.2498 11.0534 19.2498V19.25ZM10.387 24.5835V20.5835H6.38672V24.5835H10.387ZM6.79047 23.2368C6.66794 23.3623 6.59983 23.5311 6.60088 23.7065C6.60194 23.8819 6.67208 24.0498 6.79611 24.1739C6.92014 24.2979 7.08805 24.3681 7.26347 24.3692C7.43888 24.3703 7.60765 24.3022 7.7332 24.1797L8.38664 23.5255L9.04047 24.1797C9.16553 24.3047 9.33514 24.3749 9.51197 24.3748C9.68881 24.3748 9.85838 24.3045 9.9834 24.1795C10.1084 24.0544 10.1786 23.8848 10.1786 23.708C10.1786 23.5311 10.1083 23.3615 9.9832 23.2365L9.32938 22.5831L9.9832 21.9297C10.0451 21.8678 10.0943 21.7943 10.1278 21.7134C10.1613 21.6325 10.1786 21.5458 10.1786 21.4582C10.1786 21.3707 10.1614 21.284 10.1279 21.2031C10.0944 21.1222 10.0453 21.0487 9.9834 20.9867C9.9215 20.9248 9.84801 20.8757 9.76712 20.8422C9.68623 20.8086 9.59953 20.7914 9.51197 20.7913C9.42441 20.7913 9.33771 20.8086 9.25681 20.842C9.17591 20.8755 9.1024 20.9246 9.04047 20.9865L8.38664 21.6408L7.7332 20.9865C7.67128 20.9246 7.59776 20.8755 7.51686 20.842C7.43596 20.8086 7.34926 20.7913 7.2617 20.7913C7.17414 20.7914 7.08744 20.8086 7.00655 20.8422C6.92567 20.8757 6.85217 20.9248 6.79027 20.9867C6.72837 21.0487 6.67928 21.1222 6.64578 21.2031C6.61229 21.284 6.59507 21.3707 6.59508 21.4582C6.5951 21.5458 6.61237 21.6325 6.64589 21.7134C6.67941 21.7943 6.72854 21.8678 6.79047 21.9297L7.44391 22.5831L6.79047 23.2365V23.2368ZM34.9467 20.701C34.9468 20.6134 34.9296 20.5267 34.8961 20.4458C34.8627 20.3649 34.8136 20.2914 34.7517 20.2295C34.6898 20.1675 34.6163 20.1184 34.5354 20.0849C34.4546 20.0514 34.3679 20.0342 34.2803 20.0342H15.1303C14.9535 20.0342 14.784 20.1044 14.659 20.2294C14.534 20.3544 14.4637 20.524 14.4637 20.7008C14.4637 20.8775 14.534 21.0471 14.659 21.1721C14.784 21.2971 14.9535 21.3673 15.1303 21.3673H34.2801C34.4568 21.3672 34.6262 21.297 34.7512 21.1721C34.8761 21.0471 34.9464 20.8777 34.9465 20.701H34.9467ZM34.9467 24.4658C34.9468 24.3782 34.9296 24.2915 34.8961 24.2107C34.8626 24.1298 34.8136 24.0563 34.7517 23.9944C34.6898 23.9325 34.6163 23.8834 34.5354 23.8499C34.4545 23.8165 34.3678 23.7993 34.2803 23.7993H15.1303C14.9535 23.7993 14.784 23.8696 14.659 23.9946C14.534 24.1196 14.4637 24.2891 14.4637 24.4659C14.4637 24.6427 14.534 24.8122 14.659 24.9372C14.784 25.0622 14.9535 25.1325 15.1303 25.1325H34.2801C34.3676 25.1325 34.4543 25.1153 34.5352 25.0818C34.6161 25.0483 34.6896 24.9991 34.7515 24.9372C34.8133 24.8753 34.8624 24.8018 34.8959 24.7209C34.9294 24.64 34.9465 24.5533 34.9465 24.4658H34.9467ZM34.9467 12.6359C34.9467 12.4591 34.8765 12.2896 34.7515 12.1646C34.6266 12.0396 34.4571 11.9693 34.2803 11.9692H15.1303C14.9535 11.9692 14.784 12.0394 14.659 12.1644C14.534 12.2894 14.4637 12.459 14.4637 12.6358C14.4637 12.8125 14.534 12.9821 14.659 13.1071C14.784 13.2321 14.9535 13.3023 15.1303 13.3023H34.2801C34.3676 13.3024 34.4543 13.2852 34.5352 13.2517C34.6161 13.2182 34.6895 13.1692 34.7514 13.1073C34.8133 13.0454 34.8624 12.9719 34.8959 12.891C34.9294 12.8101 34.9465 12.7234 34.9465 12.6359H34.9467ZM34.9467 16.4015C34.9466 16.2248 34.8764 16.0554 34.7514 15.9305C34.6265 15.8055 34.457 15.7353 34.2803 15.7352H15.1303C14.9535 15.7352 14.784 15.8054 14.659 15.9304C14.534 16.0554 14.4637 16.225 14.4637 16.4018C14.4637 16.5786 14.534 16.7481 14.659 16.8731C14.784 16.9981 14.9535 17.0683 15.1303 17.0683H34.2801C34.3676 17.0684 34.4543 17.0511 34.5352 17.0176C34.6161 16.9841 34.6896 16.935 34.7515 16.873C34.8134 16.8111 34.8625 16.7376 34.8959 16.6566C34.9294 16.5757 34.9466 16.489 34.9465 16.4015L34.9467 16.4015Z" fill="#7E57C2"></path></g><defs><clipPath id="clip0_1014_4011"><rect width="40" height="40" fill="white"></rect></clipPath></defs></svg>