<svg xmlns="http://www.w3.org/2000/svg" width="40" height="40" viewBox="0 0 40 40" fill="none"><g clip-path="url(#clip0_1014_3880)"><path fill-rule="evenodd" clip-rule="evenodd" d="M39.0627 39.7423H33.1342V33.2748H40V38.805C40 39.3205 39.5782 39.7423 39.0627 39.7423ZM14.9268 21.4646H0.937317C0.421793 21.4646 0 21.0428 0 20.5273V2.83543C0 2.3199 0.421793 1.89811 0.937317 1.89811H3.74927V4.78036C3.74927 5.85827 4.63972 6.72529 5.71763 6.72529H10.1699C11.2478 6.72529 12.1148 5.85827 12.1148 4.78036V1.89811H14.9268C15.4423 1.89811 15.8641 2.3199 15.8641 2.83543V20.5273C15.8641 21.0428 15.4423 21.4646 14.9268 21.4646ZM11.6696 17.6216C11.9274 17.6216 12.1383 17.4107 12.1383 17.1529C12.1383 16.8952 11.9274 16.6843 11.6696 16.6843H4.21793C3.96016 16.6843 3.74927 16.8952 3.74927 17.1529C3.74927 17.4107 3.96016 17.6216 4.21793 17.6216H11.6696ZM11.6696 13.8489C11.9274 13.8489 12.1383 13.638 12.1383 13.3802C12.1383 13.1225 11.9274 12.9116 11.6696 12.9116H4.21793C3.96016 12.9116 3.74927 13.1225 3.74927 13.3802C3.74927 13.638 3.96016 13.8489 4.21793 13.8489H11.6696ZM11.6696 10.0996C11.9274 10.0996 12.1383 9.88874 12.1383 9.63097C12.1383 9.37321 11.9274 9.16232 11.6696 9.16232H4.21793C3.96016 9.16232 3.74927 9.37321 3.74927 9.63097C3.74927 9.88874 3.96016 10.0996 4.21793 10.0996H11.6696ZM4.68658 1.89811H11.1775V4.78036C11.1775 5.31932 10.7088 5.78797 10.1699 5.78797H5.71763C5.15524 5.78797 4.68658 5.31932 4.68658 4.78036V1.89811ZM26.1746 19.918C25.4013 19.918 24.6514 19.7774 23.9484 19.5197V20.3633C23.9484 20.6913 24.0187 20.9725 24.1125 21.2537C24.1359 21.2771 24.1593 21.3006 24.1593 21.324C24.5343 22.0739 25.2841 22.5894 26.1746 22.5894C27.0416 22.5894 27.8149 22.0739 28.1664 21.3474C28.1898 21.3006 28.2132 21.2771 28.2132 21.2303C28.3304 20.9725 28.4007 20.6913 28.4007 20.3633V19.5197C27.6977 19.7774 26.9479 19.918 26.1746 19.918ZM22.0738 18.5121C20.5038 17.2701 19.4962 15.372 19.4962 13.2396V12.9584C17.5044 10.4043 17.809 5.74111 19.4962 3.06976C20.5272 1.47632 21.9566 0.726463 23.4798 1.00766C25.5419 -0.445183 28.5179 0.210939 31.0721 2.69483C33.8606 5.43648 35.3134 9.81844 32.853 13.0053V13.2396C32.853 15.372 31.8453 17.2701 30.2753 18.5121V20.3633C30.2753 20.5039 30.2753 20.621 30.2519 20.7382H32.0562C36.4382 20.7382 40 24.3 40 28.6819V32.3375H33.1342V29.0334C33.1342 28.7757 32.9233 28.5648 32.6655 28.5648C32.4077 28.5648 32.1968 28.7757 32.1968 29.0334V32.8061V39.7423H20.1523V32.8061V29.0334C20.1523 28.7757 19.9414 28.5648 19.6837 28.5648C19.4259 28.5648 19.215 28.7757 19.215 29.0334V32.3375H12.3492V28.6819C12.3492 24.3 15.911 20.7382 20.2929 20.7382H22.0972C22.0738 20.621 22.0738 20.5039 22.0738 20.3633V18.5121ZM21.3708 13.2396C21.3708 14.8799 22.191 16.3328 23.4564 17.1998C23.5032 17.2232 23.5501 17.2467 23.597 17.2935C24.3468 17.7622 25.2138 18.0434 26.1746 18.0434C27.1119 18.0434 28.0023 17.7622 28.7522 17.2935C28.7991 17.2467 28.8459 17.2232 28.8928 17.1998C30.1347 16.3328 30.9783 14.8799 30.9783 13.2396V12.7241C30.4628 8.99829 29.338 8.06097 28.4241 7.66261C27.4165 7.21738 26.3152 6.98305 25.3076 6.98305C23.5735 6.98305 21.488 7.63918 21.3708 10.8261V13.2396ZM19.215 33.2748V39.7423H13.2865C12.7709 39.7423 12.3492 39.3205 12.3492 38.805V33.2748H19.215Z" fill="#7E57C2"></path></g><defs><clipPath id="clip0_1014_3880"><rect width="40" height="40" fill="white"></rect></clipPath></defs></svg>