<svg xmlns="http://www.w3.org/2000/svg" width="40" height="40" viewBox="0 0 40 40" fill="none"><g clip-path="url(#clip0_1014_3982)"><path d="M39.4375 37.3125C39.4375 37.875 39.25 38.4375 38.875 38.875C38.5 39.3125 37.9375 39.5625 37.375 39.625H37.25C36.125 39.625 35.125 38.75 35 37.625L34.125 29.0625C34.8125 29.25 35.625 29.3125 36.25 29.1875C36.75 29.0625 37.9375 29.1875 39.1875 28.25L39.4375 37.3125Z" fill="#7E57C2"></path><path d="M5.875 29.0625L5 37.625C4.875 38.75 3.875 39.625 2.75 39.625H2.625C1.4375 39.5625 0.5 38.5 0.5 37.3125L0.75 28.1875C1.3125 28.625 2 28.875 2.75 29C3.5 29.125 4.4375 29.4375 5.875 29.0625Z" fill="#7E57C2"></path><path d="M6.12891 11.313C8.44141 11.313 10.3164 9.43799 10.3164 7.12549C10.3164 4.81299 8.44141 2.93799 6.12891 2.93799C3.81641 2.93799 1.94141 4.81299 1.94141 7.12549C1.94141 9.43799 3.81641 11.313 6.12891 11.313Z" fill="#7E57C2"></path><path d="M14.8139 18.5626C14.0639 18.0001 7.56394 13.2501 6.00144 12.6251C5.93894 12.6251 5.93894 12.6251 5.87644 12.6251C3.81394 12.3126 1.81394 13.7501 1.50144 15.6251L0.0639443 23.6876C-0.311056 25.6251 1.00144 27.5001 3.00144 27.8126C3.50144 27.8751 4.37644 28.1251 5.18894 27.9376C6.62644 27.6251 7.75144 26.5001 8.00144 25.0626L8.93894 19.5626L12.2514 22.0001C13.3139 22.8126 14.8139 22.4376 15.4389 21.3126C16.0014 20.4376 15.6889 19.1876 14.8139 18.5626Z" fill="#7E57C2"></path><path d="M25.875 11.75L26.3125 10.125H27.625C27.9375 10.125 28.25 9.8125 28.25 9.5V0.625C28.25 0.3125 27.9375 0 27.625 0H12.3125C12 0 11.6875 0.3125 11.6875 0.625V9.5C11.6875 9.8125 12 10.125 12.3125 10.125H13.625L14.0625 11.75C14.1875 12.1875 14.75 12.375 15.125 12L17 10.125H22.875L24.75 12C25.1875 12.375 25.75 12.25 25.875 11.75ZM15.125 2.9375H24.875C25.25 2.9375 25.5 3.1875 25.5 3.5625C25.5 3.9375 25.25 4.1875 24.875 4.1875H15.125C14.75 4.1875 14.5 3.9375 14.5 3.5625C14.5 3.1875 14.8125 2.9375 15.125 2.9375ZM15.125 7.25C14.75 7.25 14.5 7 14.5 6.625C14.5 6.25 14.75 6 15.125 6H24.875C25.25 6 25.5 6.25 25.5 6.625C25.5 7 25.25 7.25 24.875 7.25H15.125Z" fill="#7E57C2"></path><path d="M39.9418 23.6879L38.5042 15.6254C38.1917 13.8129 36.2542 12.3129 34.1292 12.6254H34.0667C32.4417 13.1879 25.9417 18.0004 25.1917 18.5629C24.3167 19.2504 24.0042 20.4379 24.5042 21.3754C25.1292 22.5629 26.6292 22.8754 27.6917 22.0629L31.0042 19.6254L31.9417 25.1254C32.2542 27.0629 34.1292 28.3754 36.0667 28.0004C36.5667 27.8754 37.5042 28.0004 38.5042 27.2504C39.6292 26.3754 40.1918 25.0004 39.9418 23.6879Z" fill="#7E57C2"></path><path d="M33.875 11.3127C36.1875 11.3127 38.0625 9.43774 38.0625 7.12524C38.0625 4.81274 36.1875 2.93774 33.875 2.93774C31.5625 2.93774 29.6875 4.81274 29.6875 7.12524C29.75 9.43774 31.5625 11.3127 33.875 11.3127Z" fill="#7E57C2"></path><path d="M30.625 24.6875V27.8125C30.625 28.1875 30.3125 28.4375 30 28.4375H10C9.625 28.4375 9.375 28.1875 9.375 27.8125V24.6875C9.375 24.375 9.625 24.0625 10 24.0625H30C30.3125 24.0625 30.625 24.3125 30.625 24.6875Z" fill="#7E57C2"></path><path d="M11.25 29.6875H12.5V39.375C12.5 39.75 12.25 40 11.875 40C11.5625 40 11.25 39.75 11.25 39.375V29.6875Z" fill="#7E57C2"></path><path d="M28.75 29.6875V39.375C28.75 39.75 28.4375 40 28.125 40C27.8125 40 27.5 39.75 27.5 39.375V29.6875H28.75Z" fill="#7E57C2"></path></g><defs><clipPath id="clip0_1014_3982"><rect width="40" height="40" fill="white"></rect></clipPath></defs></svg>