<svg xmlns="http://www.w3.org/2000/svg" width="40" height="40" viewBox="0 0 40 40" fill="none"><path d="M32.6641 5.84375H7.33594V33.7187H32.6641V5.84375ZM12.6406 19.3437C12.6406 17.6562 14.9375 16.7031 17.7109 16.375C16.5703 15.6484 15.8203 14.3984 15.8203 12.9844C15.8203 10.7422 17.7109 8.91406 20.0391 8.91406C22.3672 8.91406 24.2656 10.7422 24.2656 12.9844C24.2656 14.3984 23.5156 15.6406 22.375 16.375C25.1484 16.7031 27.4453 17.6562 27.4453 19.3437V21.8672C27.4453 22.0937 27.2656 22.2734 27.0391 22.2734H13.0469C12.8203 22.2734 12.6406 22.0937 12.6406 21.8672V19.3437ZM13.0469 25.6406H26.9531C27.1797 25.6406 27.3594 25.8203 27.3594 26.0469C27.3594 26.2734 27.1797 26.4531 26.9531 26.4531H13.0469C12.8203 26.4531 12.6406 26.2734 12.6406 26.0469C12.6406 25.8203 12.8203 25.6406 13.0469 25.6406ZM29.7891 30.6328H10.2109C9.98438 30.6328 9.80469 30.4531 9.80469 30.2266C9.80469 30 9.98438 29.8203 10.2109 29.8203H29.7891C30.0156 29.8203 30.1953 30 30.1953 30.2266C30.1953 30.4531 30.0156 30.6328 29.7891 30.6328Z" fill="#7E57C2"></path><path d="M26.625 19.3433C26.625 18.4917 25.4297 17.9526 24.7109 17.7104C23.4844 17.2886 21.8203 17.062 20.0312 17.062C16.2734 17.062 13.4453 18.0464 13.4453 19.3511V21.4683H26.6172V19.3433H26.625Z" fill="#7E57C2"></path><path d="M23.4531 12.9927C23.4531 11.1958 21.9219 9.73486 20.0469 9.73486C18.1719 9.73486 16.6406 11.1958 16.6406 12.9927C16.6406 14.7896 18.1719 16.2505 20.0469 16.2505C21.9219 16.2427 23.4531 14.7896 23.4531 12.9927Z" fill="#7E57C2"></path><path d="M20.0001 38.3828C20.6173 38.3828 21.1095 37.8828 21.1095 37.2656C21.1095 36.6484 20.6095 36.1562 20.0001 36.1562C19.3829 36.1562 18.8907 36.6563 18.8907 37.2656C18.8829 37.8828 19.3829 38.3828 20.0001 38.3828Z" fill="#7E57C2"></path><path d="M23.5547 2.03125H16.4453C16.1719 2.03125 15.9609 2.25 15.9609 2.51563C15.9609 2.78125 16.1797 3 16.4453 3H23.5547C23.8203 3 24.0391 2.78906 24.0391 2.51563C24.0391 2.25 23.8203 2.03125 23.5547 2.03125Z" fill="#7E57C2"></path><path d="M32.6641 2.79688C32.6641 1.25781 31.4141 0 29.8672 0H10.125C8.58594 0 7.32812 1.25 7.32812 2.79688V5.03906H32.6562V2.79688H32.6641ZM23.5547 3.8125H16.4453C15.7266 3.8125 15.1406 3.23438 15.1406 2.51562C15.1406 1.79688 15.7187 1.21094 16.4453 1.21094H23.5547C24.2734 1.21094 24.8516 1.79688 24.8516 2.51562C24.8516 3.24219 24.2656 3.8125 23.5547 3.8125Z" fill="#7E57C2"></path><path d="M7.33594 37.2031C7.33594 38.7422 8.58594 40 10.1328 40H29.875C31.4141 40 32.6719 38.75 32.6719 37.2031V34.5312H7.33594V37.2031ZM20 35.3359C21.0625 35.3359 21.9297 36.2031 21.9297 37.2656C21.9297 38.3281 21.0625 39.1953 20 39.1953C18.9375 39.1953 18.0703 38.3281 18.0703 37.2656C18.0703 36.2031 18.9375 35.3359 20 35.3359Z" fill="#7E57C2"></path></svg>