<svg xmlns="http://www.w3.org/2000/svg" width="40" height="40" viewBox="0 0 40 40" fill="none"><g clip-path="url(#clip0_1014_4044)"><path d="M20 25.3125C21.8122 25.3125 23.2812 23.8434 23.2812 22.0312C23.2812 20.2191 21.8122 18.75 20 18.75C18.1878 18.75 16.7188 20.2191 16.7188 22.0312C16.7188 23.8434 18.1878 25.3125 20 25.3125Z" fill="#7E57C2"></path><path d="M8.90625 26.875C10.7184 26.875 12.1875 25.4059 12.1875 23.5938C12.1875 21.7816 10.7184 20.3125 8.90625 20.3125C7.09407 20.3125 5.625 21.7816 5.625 23.5938C5.625 25.4059 7.09407 26.875 8.90625 26.875Z" fill="#7E57C2"></path><path d="M31.0938 26.875C32.9059 26.875 34.375 25.4059 34.375 23.5938C34.375 21.7816 32.9059 20.3125 31.0938 20.3125C29.2816 20.3125 27.8125 21.7816 27.8125 23.5938C27.8125 25.4059 29.2816 26.875 31.0938 26.875Z" fill="#7E57C2"></path><path d="M24.8692 17.2003C24.7772 17.2519 24.7052 17.333 24.6648 17.4305C24.6244 17.528 24.6179 17.6363 24.6464 17.7379C24.6748 17.8395 24.7366 17.9286 24.8218 17.9909C24.907 18.0532 25.0106 18.0851 25.1161 18.0815C25.5769 18.0573 26.0359 18.0072 26.4911 17.9315L30.6036 19.0534C31.6908 19.3971 32.7855 18.1556 32.2598 17.1221C31.998 16.5789 31.8279 15.996 31.7567 15.3971C32.3784 14.8284 32.8781 14.1393 33.2257 13.3717C33.5732 12.6041 33.7613 11.7739 33.7786 10.9315C33.7786 8.83463 32.5973 6.85026 30.5348 5.48776C30.4512 5.43503 30.3531 5.4099 30.2544 5.41591C30.1557 5.42192 30.0613 5.45877 29.9847 5.52126C29.908 5.58375 29.853 5.66872 29.8272 5.76419C29.8014 5.85967 29.8063 5.96082 29.8411 6.05338C30.224 6.99417 30.4214 8.00014 30.4223 9.01588C30.4223 12.294 28.3473 15.3534 24.8692 17.2003Z" fill="#7E57C2"></path><path d="M17.85 0.078125C11.4375 0.078125 6.21875 4.0875 6.21875 9.01562C6.21875 11.0531 7.125 13.0312 8.77813 14.6125C8.6922 15.4036 8.4713 16.1742 8.125 16.8906C7.51938 18.12 8.78125 19.5556 10.075 19.1594L15.3 17.7344C16.1423 17.8789 16.9954 17.9521 17.85 17.9531C24.2656 17.9531 29.4813 13.9438 29.4813 9.01562C29.4813 4.0875 24.2656 0.078125 17.85 0.078125ZM12.1844 10.4688C11.9062 10.4688 11.6344 10.3863 11.4031 10.2318C11.1718 10.0772 10.9916 9.85761 10.8852 9.60065C10.7787 9.34369 10.7509 9.06094 10.8051 8.78815C10.8594 8.51537 10.9933 8.2648 11.19 8.06813C11.3867 7.87146 11.6372 7.73753 11.91 7.68327C12.1828 7.62901 12.4656 7.65686 12.7225 7.76329C12.9795 7.86973 13.1991 8.04997 13.3536 8.28123C13.5081 8.51249 13.5906 8.78437 13.5906 9.0625C13.5906 9.43546 13.4425 9.79315 13.1787 10.0569C12.915 10.3206 12.5573 10.4688 12.1844 10.4688ZM17.8094 10.4688C17.5312 10.4688 17.2594 10.3863 17.0281 10.2318C16.7968 10.0772 16.6166 9.85761 16.5102 9.60065C16.4037 9.34369 16.3759 9.06094 16.4301 8.78815C16.4844 8.51537 16.6183 8.2648 16.815 8.06813C17.0117 7.87146 17.2622 7.73753 17.535 7.68327C17.8078 7.62901 18.0906 7.65686 18.3475 7.76329C18.6045 7.86973 18.8241 8.04997 18.9786 8.28123C19.1331 8.51249 19.2156 8.78437 19.2156 9.0625C19.2156 9.43546 19.0675 9.79315 18.8037 10.0569C18.54 10.3206 18.1823 10.4688 17.8094 10.4688ZM23.4344 10.4688C23.1562 10.4688 22.8844 10.3863 22.6531 10.2318C22.4218 10.0772 22.2416 9.85761 22.1352 9.60065C22.0287 9.34369 22.0009 9.06094 22.0551 8.78815C22.1094 8.51537 22.2433 8.2648 22.44 8.06813C22.6367 7.87146 22.8872 7.73753 23.16 7.68327C23.4328 7.62901 23.7156 7.65686 23.9725 7.76329C24.2295 7.86973 24.4491 8.04997 24.6036 8.28123C24.7582 8.51249 24.8406 8.78437 24.8406 9.0625C24.8406 9.43546 24.6925 9.79315 24.4287 10.0569C24.165 10.3206 23.8073 10.4688 23.4344 10.4688Z" fill="#7E57C2"></path><path d="M39.0625 25.625H37.8125C37.5639 25.625 37.3254 25.7238 37.1496 25.8996C36.9738 26.0754 36.875 26.3139 36.875 26.5625V39.5312C36.875 39.6556 36.9244 39.7748 37.0123 39.8627C37.1002 39.9506 37.2194 40 37.3438 40H39.5312C39.6556 40 39.7748 39.9506 39.8627 39.8627C39.9506 39.7748 40 39.6556 40 39.5312V26.5625C40 26.3139 39.9012 26.0754 39.7254 25.8996C39.5496 25.7238 39.3111 25.625 39.0625 25.625Z" fill="#7E57C2"></path><path d="M0.9375 40H2.65625C2.78057 40 2.8998 39.9506 2.98771 39.8627C3.07561 39.7748 3.125 39.6556 3.125 39.5312V26.5625C3.125 26.3139 3.02623 26.0754 2.85041 25.8996C2.6746 25.7238 2.43614 25.625 2.1875 25.625H0.9375C0.68886 25.625 0.450403 25.7238 0.274587 25.8996C0.098772 26.0754 0 26.3139 0 26.5625L0 39.0625C0 39.3111 0.098772 39.5496 0.274587 39.7254C0.450403 39.9012 0.68886 40 0.9375 40Z" fill="#7E57C2"></path><path d="M13.75 32.2602V32.4971C13.7498 32.617 13.7956 32.7325 13.878 32.8197C13.9604 32.9069 14.073 32.9592 14.1928 32.9658L16.2241 33.079C16.822 33.1123 17.3845 33.3732 17.7961 33.8082C18.2077 34.2431 18.4372 34.8192 18.4375 35.418C18.4313 35.4835 18.4387 35.5496 18.4594 35.6121C18.4801 35.6745 18.5135 35.732 18.5576 35.7809C18.6017 35.8297 18.6554 35.8689 18.7155 35.8958C18.7755 35.9228 18.8405 35.9369 18.9062 35.9374H21.0938C21.1595 35.9369 21.2245 35.9228 21.2845 35.8958C21.3446 35.8689 21.3983 35.8297 21.4424 35.7809C21.4865 35.732 21.5199 35.6745 21.5406 35.6121C21.5613 35.5496 21.5687 35.4835 21.5625 35.418C21.5625 34.8189 21.7921 34.2424 22.2039 33.8072C22.6157 33.372 23.1786 33.1111 23.7769 33.078L25.8081 32.9649C25.9279 32.9583 26.0406 32.906 26.1229 32.8188C26.2053 32.7316 26.2511 32.6161 26.2509 32.4962V32.2593C26.2509 30.6017 25.5925 29.012 24.4204 27.8399C23.2483 26.6678 21.6585 26.0093 20.0009 26.0093C18.3433 26.0093 16.7536 26.6678 15.5815 27.8399C14.4094 29.012 13.7509 30.6017 13.7509 32.2593L13.75 32.2602Z" fill="#7E57C2"></path><path d="M35.9391 29.0628C35.9392 28.9934 35.9238 28.9248 35.8941 28.8621C35.8643 28.7994 35.821 28.7441 35.7672 28.7003C34.8019 27.9126 33.5911 27.4881 32.3453 27.5003C28.5728 27.5003 28.1488 31.9709 28.1088 33.3409C28.1068 33.4594 28.06 33.5727 27.9779 33.6581C27.8957 33.7435 27.7843 33.7947 27.6659 33.8012L23.83 34.0143C23.4731 34.0397 23.1386 34.198 22.8926 34.4579C22.6467 34.7179 22.5072 35.0606 22.5016 35.4184C22.4963 35.4837 22.5044 35.5494 22.5254 35.6115C22.5464 35.6735 22.5799 35.7306 22.6238 35.7793C22.6677 35.8279 22.7211 35.8671 22.7807 35.8943C22.8403 35.9216 22.9048 35.9364 22.9703 35.9378H29.3766C29.8737 35.9383 30.3503 36.136 30.7018 36.4875C31.0534 36.839 31.2511 37.3156 31.2516 37.8128V39.5315C31.2516 39.6558 31.301 39.7751 31.3889 39.863C31.4768 39.9509 31.596 40.0003 31.7203 40.0003H35.4703C35.5946 40.0003 35.7139 39.9509 35.8018 39.863C35.8897 39.7751 35.9391 39.6558 35.9391 39.5315V29.0628Z" fill="#7E57C2"></path><path d="M4.0625 29.0627V39.5315C4.0625 39.6558 4.11189 39.775 4.19979 39.863C4.2877 39.9509 4.40693 40.0002 4.53125 40.0002H8.28125C8.40557 40.0002 8.5248 39.9509 8.61271 39.863C8.70061 39.775 8.75 39.6558 8.75 39.5315V37.8127C8.7505 37.3156 8.9482 36.839 9.29972 36.4875C9.65125 36.1359 10.1279 35.9382 10.625 35.9377H17.0312C17.0968 35.9363 17.1613 35.9216 17.2209 35.8943C17.2805 35.867 17.3338 35.8279 17.3777 35.7792C17.4216 35.7306 17.4551 35.6735 17.4762 35.6114C17.4972 35.5494 17.5053 35.4837 17.5 35.4184C17.4943 35.0606 17.3548 34.718 17.109 34.4581C16.8631 34.1982 16.5287 34.0398 16.1719 34.0143L12.3356 33.8012C12.2173 33.7946 12.1058 33.7435 12.0237 33.6581C11.9415 33.5727 11.8948 33.4594 11.8928 33.3409C11.8528 31.9709 11.4291 27.5002 7.65625 27.5002C6.41027 27.4883 5.19946 27.9131 4.23406 28.7009C4.18051 28.7448 4.13735 28.8 4.10769 28.8626C4.07803 28.9251 4.06259 28.9935 4.0625 29.0627Z" fill="#7E57C2"></path><path d="M30.3125 39.5312V37.8125C30.3125 37.5639 30.2137 37.3254 30.0379 37.1496C29.8621 36.9738 29.6236 36.875 29.375 36.875H10.625C10.3764 36.875 10.1379 36.9738 9.96209 37.1496C9.78627 37.3254 9.6875 37.5639 9.6875 37.8125V39.5312C9.6875 39.6556 9.73689 39.7748 9.82479 39.8627C9.9127 39.9506 10.0319 40 10.1562 40H29.8438C29.9681 40 30.0873 39.9506 30.1752 39.8627C30.2631 39.7748 30.3125 39.6556 30.3125 39.5312Z" fill="#7E57C2"></path></g><defs><clipPath id="clip0_1014_4044"><rect width="40" height="40" fill="white"></rect></clipPath></defs></svg>