<svg xmlns="http://www.w3.org/2000/svg" width="40" height="40" viewBox="0 0 40 40" fill="none"><g clip-path="url(#clip0_1014_3932)"><path d="M22.3516 22.3525H25.881V31.7643H22.3516V22.3525Z" fill="#7E57C2"></path><path d="M16.4727 22.3525H20.0021V31.7643H16.4727V22.3525Z" fill="#7E57C2"></path><path d="M4.70703 2.35254H7.05997V4.70548H4.70703V2.35254Z" fill="#7E57C2"></path><path d="M7.05859 4.70605H9.41154V7.059H7.05859V4.70605Z" fill="#7E57C2"></path><path d="M4.70703 7.05908H7.05997V9.41202H4.70703V7.05908Z" fill="#7E57C2"></path><path d="M2.35156 4.70605H4.7045V7.059H2.35156V4.70605Z" fill="#7E57C2"></path><path d="M31.7656 16.4707H34.1186V18.8236H31.7656V16.4707Z" fill="#7E57C2"></path><path d="M34.1172 18.8235H36.4701V21.1764H34.1172V18.8235Z" fill="#7E57C2"></path><path d="M31.7656 21.1768H34.1186V23.5297H31.7656V21.1768Z" fill="#7E57C2"></path><path d="M29.4102 18.8232H31.7631V21.1762H29.4102V18.8232Z" fill="#7E57C2"></path><path d="M5.88327 34.1176C8.15739 34.1176 10.0009 32.2741 10.0009 30C10.0009 27.7259 8.15739 25.8823 5.88327 25.8823C3.60916 25.8823 1.76562 27.7259 1.76562 30C1.76562 32.2741 3.60916 34.1176 5.88327 34.1176Z" fill="#7E57C2"></path><path d="M38.4241 34.8232C35.9657 37.021 32.2657 37.0192 29.8094 34.8232C28.833 35.8738 28.2344 37.2797 28.2344 38.8236V40H39.9991V38.8236C39.9991 37.2797 39.4004 35.8738 38.4241 34.8232Z" fill="#7E57C2"></path><path d="M34.1176 34.1176C36.3918 34.1176 38.2353 32.2741 38.2353 30C38.2353 27.7259 36.3918 25.8823 34.1176 25.8823C31.8435 25.8823 30 27.7259 30 30C30 32.2741 31.8435 34.1176 34.1176 34.1176Z" fill="#7E57C2"></path><path d="M1.57498 34.8232C0.598667 35.8738 0 37.2797 0 38.8236V40H11.7647V38.8236C11.7647 37.2797 11.166 35.8738 10.1897 34.8232C7.73137 37.021 4.03129 37.0192 1.57498 34.8232Z" fill="#7E57C2"></path><path d="M14.1171 38.824V40.0005H25.8818V38.824C25.8818 37.1273 26.4013 35.4927 27.3622 34.1182H12.6367C13.5976 35.4927 14.1171 37.1273 14.1171 38.824Z" fill="#7E57C2"></path><path d="M14.116 18.1742V15.2939H16.4689V19.9998H25.8807V10.5881H32.9395V5.31095C32.9395 4.3526 32.1927 3.53731 31.2349 3.50586C30.231 3.47299 29.4101 4.27652 29.4101 5.26962V7.05864H26.3471C25.2741 9.15158 23.0957 10.5881 20.5866 10.5881C18.0904 10.5881 15.9215 9.16641 14.8427 7.09111C13.5349 7.27833 12.4603 8.26946 12.1931 9.5959L10.4648 18.1742C10.4648 19.1825 11.2822 19.9998 12.2904 19.9998C13.2986 19.9998 14.116 19.1825 14.116 18.1742Z" fill="#7E57C2"></path><path d="M20.5903 8.2353C22.8644 8.2353 24.708 6.39176 24.708 4.11765C24.708 1.84353 22.8644 0 20.5903 0C18.3162 0 16.4727 1.84353 16.4727 4.11765C16.4727 6.39176 18.3162 8.2353 20.5903 8.2353Z" fill="#7E57C2"></path></g><defs><clipPath id="clip0_1014_3932"><rect width="40" height="40" fill="white"></rect></clipPath></defs></svg>