<svg xmlns="http://www.w3.org/2000/svg" width="40" height="40" viewBox="0 0 40 40" fill="none"><path d="M19.9984 15.4149C21.6903 15.413 23.3123 14.7401 24.5086 13.5438C25.7049 12.3475 26.3778 10.7255 26.3797 9.03362C26.0293 0.56796 13.9662 0.570423 13.6172 9.03365C13.6191 10.7255 14.292 12.3475 15.4883 13.5438C16.6846 14.7401 18.3066 15.413 19.9984 15.4149ZM19.9984 4.73362C20.4464 4.74113 20.8805 4.89062 21.2381 5.16058C21.5956 5.43053 21.8583 5.80701 21.9883 6.2358C22.1182 6.66459 22.1087 7.12356 21.9611 7.5466C21.8136 7.96965 21.5355 8.33494 21.1671 8.58987C20.9956 8.70963 20.8563 8.8698 20.7615 9.0562C20.6667 9.24261 20.6193 9.44951 20.6234 9.6586V10.4149C20.6234 10.5806 20.5576 10.7396 20.4404 10.8568C20.3232 10.974 20.1642 11.0399 19.9984 11.0399C19.8327 11.0399 19.6737 10.974 19.5565 10.8568C19.4393 10.7396 19.3734 10.5806 19.3734 10.4149V9.6586C19.3692 9.24322 19.4673 8.83318 19.6591 8.46473C19.851 8.09628 20.1307 7.78077 20.4734 7.5461C20.5958 7.46369 20.6947 7.351 20.7606 7.219C20.8264 7.08701 20.8569 6.9402 20.8492 6.79289C20.8415 6.64558 20.7957 6.50279 20.7164 6.37842C20.6371 6.25405 20.5269 6.15235 20.3966 6.08322C20.2662 6.01409 20.1203 5.97988 19.9728 5.98394C19.8253 5.988 19.6814 6.03017 19.5551 6.10637C19.4288 6.18256 19.3244 6.29017 19.252 6.41871C19.1797 6.54725 19.1418 6.69234 19.1422 6.83985C19.1422 7.00561 19.0763 7.16458 18.9591 7.2818C18.8419 7.39901 18.6829 7.46485 18.5172 7.46485C18.3514 7.46485 18.1925 7.39901 18.0752 7.2818C17.958 7.16458 17.8922 7.00561 17.8922 6.83985C17.8924 6.28132 18.1144 5.74574 18.5094 5.35079C18.9043 4.95585 19.4399 4.73388 19.9984 4.73362ZM19.9859 13.2149C19.8217 13.2125 19.665 13.1457 19.5497 13.0287C19.4344 12.9118 19.3697 12.7541 19.3697 12.5899C19.3697 12.4256 19.4344 12.268 19.5497 12.151C19.665 12.0341 19.8217 11.9672 19.9859 11.9649C20.1501 11.9673 20.3067 12.0342 20.4219 12.1512C20.5371 12.2681 20.6017 12.4257 20.6017 12.5899C20.6017 12.754 20.5371 12.9116 20.4219 13.0286C20.3067 13.1455 20.1501 13.2124 19.9859 13.2149Z" fill="#7E57C2"></path><path d="M24.1141 27.4962C23.1807 28.3167 22.0206 28.8353 20.7867 28.9837C19.5528 29.1321 18.3029 28.9033 17.2016 28.3274C16.7698 28.0999 16.3687 27.8185 16.0078 27.49C15.3244 27.838 14.6915 28.2775 14.1266 28.7962C13.3456 29.4872 12.7197 30.3356 12.2899 31.2857C11.8601 32.2357 11.6361 33.266 11.6328 34.3087V36.69C11.6325 36.7721 11.6485 36.8535 11.6798 36.9295C11.7111 37.0055 11.7571 37.0745 11.8152 37.1326C11.8733 37.1907 11.9423 37.2367 12.0183 37.268C12.0943 37.2993 12.1757 37.3153 12.2578 37.315H27.8703C27.9525 37.3153 28.0339 37.2993 28.1098 37.268C28.1858 37.2367 28.2548 37.1907 28.3129 37.1326C28.371 37.0745 28.417 37.0055 28.4483 36.9295C28.4796 36.8535 28.4956 36.7721 28.4953 36.69V34.3087C28.4696 32.8784 28.0461 31.4835 27.2723 30.2802C26.4984 29.077 25.4049 28.113 24.1141 27.4962Z" fill="#7E57C2"></path><path d="M20.0641 19.7024C17.5828 19.7024 15.5703 21.5149 15.5703 23.7461C15.7721 29.0899 24.3611 29.0826 24.5641 23.7461C24.5641 21.5149 22.5453 19.7024 20.0641 19.7024Z" fill="#7E57C2"></path><path d="M33.118 23.4587C32.1831 24.2839 31.0192 24.8048 29.781 24.9521C28.5428 25.0995 27.2891 24.8664 26.1867 24.2837C26.043 24.3399 25.893 24.4087 25.7555 24.4775C25.6423 25.2122 25.3669 25.9125 24.9492 26.5275C26.219 27.1953 27.3109 28.1569 28.1339 29.3321C28.9569 30.5073 29.4871 31.8621 29.6805 33.2837H36.8742C37.0398 33.2833 37.1985 33.2172 37.3156 33.1001C37.4327 32.983 37.4987 32.8244 37.4992 32.6587V30.2712C37.4694 28.8418 37.0442 27.4486 36.2709 26.2461C35.4975 25.0436 34.4062 24.0788 33.118 23.4587Z" fill="#7E57C2"></path><path d="M24.5703 19.7085C24.5703 21.9398 26.5891 23.7523 29.0641 23.7523C35.0219 23.557 35.0213 15.8635 29.064 15.6648C26.5891 15.6648 24.5703 17.4835 24.5703 19.7085Z" fill="#7E57C2"></path><path d="M10.9375 23.5024C13.4125 23.5024 15.4313 21.6899 15.4313 19.4649C15.2275 14.1126 6.63851 14.1204 6.4375 19.465C6.4375 21.6899 8.45625 23.5024 10.9375 23.5024Z" fill="#7E57C2"></path><path d="M13.2812 27.871C16.0905 25.5738 14.9025 27.4995 14.3499 24.2834C14.1687 24.196 13.9875 24.1147 13.8 24.046C12.9185 24.5133 11.9352 24.7559 10.9375 24.7522C9.43957 24.7651 7.9916 24.214 6.88126 23.2085C5.5904 23.8269 4.49698 24.7921 3.72326 25.9963C2.94953 27.2005 2.52599 28.5962 2.5 30.0273V32.4085C2.50049 32.5741 2.5665 32.7328 2.6836 32.8499C2.80071 32.967 2.95939 33.033 3.125 33.0335H10.475C10.785 31.0398 11.7768 29.2154 13.2812 27.871Z" fill="#7E57C2"></path></svg>