<svg width="90" height="32" viewBox="0 0 90 32" fill="none" xmlns="http://www.w3.org/2000/svg">
<g clip-path="url(#clip0_3674_12563)">
<path d="M0.00488281 6.29626V18.0503H3.25598V6.29626H0.00488281Z" fill="#240F6E"/>
<path d="M8.09705 12.2185H7.09778L10.4329 6.29626H7.95619C7.95556 6.29883 4.57812 12.2185 4.57812 12.2185L8.24485 18.0503H11.825L8.09705 12.2185Z" fill="#240F6E"/>
<path d="M75.2838 6.29111C75.2838 6.29111 75.2838 12.1967 75.2838 13.8131C74.3616 12.3982 70.4043 6.30137 70.4043 6.30137H67.7097V18.0509H70.6096C70.6096 18.0509 70.6096 12.0998 70.6096 10.4949C71.5325 11.8925 75.5908 18.0509 75.5908 18.0509H78.1831V6.29111H75.2838Z" fill="#240F6E"/>
<path d="M45.4421 6.29111H42.5952V18.0503H49.4954V16.07H45.4421V6.29111V6.29111Z" fill="#240F6E"/>
<path d="M19.2134 6.30139L14.0427 18.0509H16.3388L17.6046 15.0516L21.5935 15.0471L22.7791 18.0509H26.0883L21.0155 6.30139H19.2134V6.30139ZM20.8923 13.3492H18.3095L19.6461 10.2215L20.8923 13.3492Z" fill="#240F6E"/>
<path d="M57.3323 6.30139L52.1616 18.0509H54.4577L55.7222 15.0516L59.7105 15.0471L60.8973 18.0509H64.211L59.1357 6.30139H57.3323V6.30139ZM59.0093 13.3492H56.4297L57.7675 10.2215L59.0093 13.3492Z" fill="#240F6E"/>
<path d="M30.0342 6.2417V18.0503H32.8823C32.8823 18.0503 32.8823 14.4394 32.8823 13.8933C33.1185 13.8933 34.246 13.8933 34.2492 13.8933C34.3698 13.9017 35.2889 13.9376 36.218 13.6258C37.1611 13.3062 38.6543 12.0613 38.6543 10.0733C38.6543 9.06454 38.4073 8.24188 37.9153 7.62713C37.1611 6.68319 35.9066 6.24106 33.9713 6.24106H30.0342V6.2417ZM33.6864 8.17836C35.1272 8.17836 35.7708 8.74369 35.7708 10.0034C35.7708 10.706 35.5649 11.2643 35.1783 11.6179C34.8897 11.8829 34.5031 11.9618 33.5203 11.9618C33.5177 11.9618 33.1091 11.9618 32.8823 11.9618C32.8823 11.453 32.8823 8.68915 32.8823 8.17836C33.1116 8.17836 33.6864 8.17836 33.6864 8.17836Z" fill="#240F6E"/>
<path fill-rule="evenodd" clip-rule="evenodd" d="M82.8301 0.304688H80.7981C85.593 3.16668 88.5554 6.55678 88.5554 10.1869C88.5554 20.8905 66.1799 28.7783 38.8825 28.7783C23.1127 28.7783 9.05912 26.0029 0 21.6766V23.9315C9.37432 28.3137 23.3186 31.0948 38.8812 31.0948C68.3597 31.0948 90 21.964 90 10.7131C90 6.91036 87.3837 3.35084 82.8301 0.304688Z" fill="#240F6E"/>
</g>
<defs>
<clipPath id="clip0_3674_12563">
<rect width="90" height="30.7895" fill="white" transform="translate(0 0.304688)"/>
</clipPath>
</defs>
</svg>
