<svg id="into-logo-red" data-name="INTO Logo Red" xmlns="http://www.w3.org/2000/svg" viewBox="0 0 787.47 200.13"><path d="M46,193.23H5a5.05,5.05,0,0,1-5-5V12.13A4.81,4.81,0,0,1,1.5,8.69,4.78,4.78,0,0,1,5,7.36H46a4.82,4.82,0,0,1,3.5,1.33,4.8,4.8,0,0,1,1.1,1.57,5,5,0,0,1,.4,1.87v176.1a5,5,0,0,1-5,5Z" style="fill:#e2161e"></path><path d="M233.41,193.23H199.9a11.49,11.49,0,0,1-10.52-6.78l-49.25-83.74c-1-1.78-1.79-2-2.53-2s-1.27.46-1.27,2.24v85.29a5,5,0,0,1-5,5H93.86a5.23,5.23,0,0,1-5.29-5V16.61a9.43,9.43,0,0,1,9.25-9.25h33.05c4.72,0,7.47,2.76,10,7.3l50.75,86.21c1,1.78,1.5,2.24,2.24,2.24s1.27,0,1.27-2.24V12.36a5.05,5.05,0,0,1,5-5h37.53a5.05,5.05,0,0,1,5,5V184a9.43,9.43,0,0,1-9.25,9.25Z" style="fill:#e2161e"></path><path d="M390,48.91H352.73V188.23a5,5,0,0,1-5,5H307a5,5,0,0,1-5-5V48.91H263.93A4.85,4.85,0,0,1,262,48.6a5,5,0,0,1-1.62-1A4.92,4.92,0,0,1,259.33,46a4.83,4.83,0,0,1-.4-1.87v-32a4.79,4.79,0,0,1,.4-1.87,4.92,4.92,0,0,1,1.09-1.57,4.83,4.83,0,0,1,1.62-1,4.67,4.67,0,0,1,1.89-.31H390a5,5,0,0,1,3.63,1.29,5.11,5.11,0,0,1,1.66,3.48v32A5.06,5.06,0,0,1,390,48.91Z" style="fill:#e2161e"></path><path d="M478.54,195.47c-41.5,0-76.79-21.26-76.79-82.3V87.42c0-61,35.29-82.53,76.79-82.53s77.07,21.49,77.07,82.53v25.75C555.61,174.21,520.09,195.47,478.54,195.47Zm25.29-108c0-26.78-7.76-37.76-25.29-37.76s-25.23,11-25.23,37.76v25.75c0,26.78,7.76,37.53,25.23,37.53s25.29-10.75,25.29-37.53Z" style="fill:#e2161e"></path><path d="M687.41,200.13a100,100,0,1,1,38.3-7.6A100.14,100.14,0,0,1,687.41,200.13Zm0-185.13A85,85,0,1,0,720,21.45,85,85,0,0,0,687.41,15Zm5.74,92-37.3,44.49a10.22,10.22,0,0,1-14.25,1.26,10,10,0,0,1-1.27-14l32.53-38.51L640.33,61.44a10.14,10.14,0,0,1,15.52-13l37.71,44.66a10,10,0,0,1,2.75,7,10.91,10.91,0,0,1-2.75,7Zm52.54,0-37.31,44.49a10.22,10.22,0,0,1-14.25,1.26,10.05,10.05,0,0,1-2.44-3,9.91,9.91,0,0,1,1.18-11l32.53-38.51L692.87,61.44a10.13,10.13,0,0,1,15.51-13l37.31,44.55a10.15,10.15,0,0,1,2.75,7,11.39,11.39,0,0,1-2.47,7.13Z" style="fill:#e2161e"></path></svg>