<svg xmlns="http://www.w3.org/2000/svg" xmlns:xlink="http://www.w3.org/1999/xlink" id="Layer_1" data-name="Layer 1" viewBox="0 0 300 200"><defs><style>      .cls-1 {        clip-path: url(#clippath);      }      .cls-2 {        fill: none;      }      .cls-2, .cls-3, .cls-4 {        stroke-width: 0px;      }      .cls-5 {        clip-path: url(#clippath-1);      }      .cls-3 {        fill: #292522;      }      .cls-4 {        fill: #bb2126;      }    </style><clipPath id="clippath"><rect class="cls-2" x="40.16" y="57.43" width="219.68" height="85.14"></rect></clipPath><clipPath id="clippath-1"><rect class="cls-2" x="40.16" y="57.43" width="219.68" height="85.14"></rect></clipPath></defs><g id="Artwork_40" data-name="Artwork 40"><g class="cls-1"><polygon class="cls-4" points="87.52 58.15 87.52 106.37 45.78 58.27 45.67 58.15 41.52 58.15 41.52 114.67 46.52 114.67 46.52 66.44 88.47 114.67 92.52 114.67 92.52 58.15 87.52 58.15"></polygon><g class="cls-5"><path class="cls-4" d="M130.66,115.39c6.61,0,13.32-1.78,19.94-5.28l.18-.1v-5.25l-.5.27c-7.08,3.77-13.71,5.68-19.7,5.68-7.15,0-13.1-2.29-17.7-6.82-4.6-4.52-6.93-10.37-6.93-17.38s2.32-12.8,6.89-17.42c4.58-4.63,10.34-6.97,17.14-6.97,6.41,0,13.05,1.8,19.74,5.36l.5.27v-5.5l-.2-.09c-6.81-3.12-13.46-4.71-19.77-4.71-8.05,0-15.08,2.8-20.9,8.33-5.82,5.53-8.78,12.51-8.78,20.75s2.89,15.12,8.6,20.61c5.7,5.49,12.93,8.27,21.48,8.27"></path><path class="cls-4" d="M184.17,115.39c6.97,0,12.72-2.32,17.11-6.9,4.39-4.58,6.61-11.15,6.61-19.54v-30.8h-5v31.04c0,6.86-1.75,12.22-5.2,15.93-3.45,3.71-8,5.59-13.52,5.59s-9.99-1.86-13.44-5.53c-3.45-3.67-5.2-8.85-5.2-15.39v-31.63h-5.04v31.8c0,7.83,2.22,14.1,6.61,18.62,4.39,4.52,10.14,6.82,17.07,6.82"></path><polygon class="cls-4" points="224.6 87.23 253.25 114.57 253.35 114.67 259.84 114.67 230.18 86.37 257.23 58.15 250.89 58.15 224.6 85.42 224.6 58.15 219.6 58.15 219.6 114.67 224.6 114.67 224.6 87.23"></polygon><polygon class="cls-3" points="43.84 142.44 44.95 142.44 44.95 133.26 48.63 133.26 48.63 132.28 40.16 132.28 40.16 133.26 43.84 133.26 43.84 142.44"></polygon><polygon class="cls-3" points="50.5 132.28 50.5 142.44 51.6 142.44 51.6 137.79 57.81 137.79 57.81 142.44 58.91 142.44 58.91 132.28 57.81 132.28 57.81 136.82 51.6 136.82 51.6 132.28 50.5 132.28"></polygon><polygon class="cls-3" points="66.41 133.26 66.41 132.28 60.72 132.28 60.72 142.44 66.53 142.44 66.53 141.47 61.82 141.47 61.82 137.83 66.3 137.83 66.3 136.85 61.82 136.85 61.82 133.26 66.41 133.26"></polygon><path class="cls-3" d="M73.53,132.28v5.7c0,1.41.4,2.54,1.19,3.35.79.82,1.83,1.23,3.08,1.23s2.29-.42,3.09-1.25c.79-.83,1.19-2.01,1.19-3.51v-5.52h-1.1v5.57c0,1.18-.3,2.1-.89,2.73-.58.63-1.36.95-2.29.95s-1.7-.31-2.28-.94c-.59-.62-.88-1.51-.88-2.63v-5.67h-1.11Z"></path><polygon class="cls-3" points="92.01 140.58 84.86 132.34 84.81 132.28 83.92 132.28 83.92 142.44 85.02 142.44 85.02 134.15 92.18 142.38 92.23 142.44 93.11 142.44 93.11 132.28 92.01 132.28 92.01 140.58"></polygon><rect class="cls-3" x="95.45" y="132.28" width="1.1" height="10.16"></rect><polygon class="cls-3" points="102.55 142.54 103 142.54 107.26 132.28 106.12 132.28 102.78 140.32 99.42 132.28 98.28 132.28 102.51 142.44 102.55 142.54"></polygon><polygon class="cls-3" points="114.73 133.26 114.73 132.28 109.03 132.28 109.03 142.44 114.84 142.44 114.84 141.47 110.13 141.47 110.13 137.83 114.61 137.83 114.61 136.85 110.13 136.85 110.13 133.26 114.73 133.26"></polygon><path class="cls-3" d="M122.9,134.99c0-.83-.3-1.5-.9-1.98-.59-.48-1.44-.72-2.53-.72h-2.69v10.16h1.1v-4.71h1.16c.58,0,1.01.1,1.3.3.3.21.73.76,1.29,1.64l1.76,2.77h1.31l-2.39-3.66c-.43-.66-.79-1.11-1.09-1.36,1.12-.5,1.68-1.32,1.68-2.43M117.89,133.26h1.43c.79,0,1.4.16,1.82.47.4.31.6.72.6,1.28s-.19.98-.59,1.29c-.41.31-1.01.47-1.8.47h-1.46v-3.5Z"></path><path class="cls-3" d="M130.75,133.93l.26.15v-1.24l-.09-.05c-.77-.43-1.56-.64-2.35-.64s-1.53.27-2.11.81c-.59.54-.88,1.2-.88,1.97,0,.55.12,1.01.37,1.37.24.35.54.62.89.82.34.18.89.42,1.65.71.73.28,1.21.57,1.43.88.23.31.34.64.34,1.03,0,.5-.18.91-.55,1.26-.37.35-.81.52-1.35.52-.66,0-1.45-.34-2.37-1.01l-.27-.2v1.32l.08.05c.89.59,1.76.89,2.61.89s1.56-.28,2.14-.83c.59-.55.88-1.23.88-2.04,0-.6-.13-1.1-.39-1.48-.25-.38-.57-.67-.93-.87-.35-.19-.9-.43-1.65-.71-.71-.27-1.18-.54-1.39-.82-.21-.27-.32-.58-.32-.92,0-.48.18-.88.54-1.2.75-.68,1.88-.7,3.48.24"></path><rect class="cls-3" x="133.5" y="132.28" width="1.1" height="10.16"></rect><polygon class="cls-3" points="141.51 142.44 141.51 133.26 145.19 133.26 145.19 132.28 136.72 132.28 136.72 133.26 140.4 133.26 140.4 142.44 141.51 142.44"></polygon><polygon class="cls-3" points="148.24 132.28 146.88 132.28 150.89 137.06 150.89 142.44 151.99 142.44 151.99 137.06 156 132.28 154.63 132.28 151.45 136.08 148.29 132.34 148.24 132.28"></polygon><path class="cls-3" d="M167.97,133.2c1.11,0,2.26.31,3.42.93l.25.13v-1.22l-.1-.05c-1.21-.56-2.4-.84-3.52-.84-1.44,0-2.71.5-3.75,1.49-1.05.99-1.58,2.25-1.58,3.73s.52,2.72,1.54,3.7c1.02.99,2.32,1.49,3.85,1.49,1.18,0,2.38-.32,3.56-.94l.09-.05v-1.17l-.25.13c-1.23.66-2.38.99-3.41.99-1.23,0-2.25-.39-3.03-1.17-.79-.77-1.19-1.77-1.19-2.97s.4-2.19,1.18-2.99c.78-.79,1.77-1.19,2.93-1.19"></path><path class="cls-3" d="M182.34,141.06c1.04-1.01,1.57-2.25,1.57-3.69s-.53-2.69-1.57-3.69c-1.03-1.01-2.32-1.52-3.81-1.52s-2.76.51-3.79,1.52c-1.03,1-1.56,2.25-1.56,3.69s.52,2.68,1.56,3.69c1.03,1,2.31,1.51,3.79,1.51s2.77-.51,3.81-1.51M175.57,140.32c-.81-.8-1.22-1.79-1.22-2.95s.41-2.16,1.22-2.96c.81-.8,1.82-1.2,2.99-1.2s2.17.41,2.97,1.2c.8.8,1.21,1.79,1.21,2.96s-.41,2.15-1.21,2.95c-.8.8-1.8,1.21-2.97,1.21s-2.18-.41-2.99-1.21"></path><polygon class="cls-3" points="193.83 142.38 193.88 142.44 194.75 142.44 194.75 132.28 193.65 132.28 193.65 140.58 186.51 132.34 186.46 132.28 185.56 132.28 185.56 142.44 186.67 142.44 186.67 134.15 193.83 142.38"></polygon><path class="cls-3" d="M199.98,133.2c.58,0,1.29.25,2.11.73l.26.15v-1.24l-.09-.05c-.78-.42-1.57-.64-2.35-.64s-1.53.27-2.11.81c-.59.54-.88,1.2-.88,1.97,0,.55.13,1.01.37,1.37.24.35.54.62.89.81.34.18.89.42,1.65.71.73.28,1.21.58,1.43.88.23.31.34.64.34,1.03,0,.5-.18.91-.55,1.26-.37.35-.81.52-1.36.52-.66,0-1.45-.34-2.37-1.01l-.27-.2v1.32l.08.05c.89.59,1.77.89,2.61.89s1.56-.28,2.14-.83c.58-.55.88-1.23.88-2.04,0-.6-.13-1.1-.39-1.48-.25-.38-.56-.67-.93-.87-.35-.19-.9-.43-1.65-.71-.71-.27-1.18-.54-1.39-.82-.21-.27-.32-.58-.32-.92,0-.48.18-.87.54-1.2.37-.33.81-.49,1.36-.49"></path><path class="cls-3" d="M204.74,137.37c0,1.44.52,2.68,1.56,3.69,1.03,1,2.31,1.51,3.79,1.51s2.77-.51,3.81-1.51c1.04-1,1.56-2.25,1.56-3.69s-.53-2.69-1.56-3.69c-1.04-1.01-2.32-1.52-3.81-1.52s-2.76.51-3.79,1.52c-1.03,1-1.56,2.25-1.56,3.69M205.91,137.37c0-1.16.41-2.16,1.22-2.96.81-.8,1.82-1.2,2.99-1.2s2.17.41,2.97,1.2c.8.8,1.21,1.8,1.21,2.96s-.41,2.15-1.21,2.95c-.8.8-1.8,1.21-2.97,1.21s-2.18-.41-2.99-1.21c-.81-.8-1.22-1.79-1.22-2.95"></path><path class="cls-3" d="M218.53,137.74h1.16c.58,0,1.01.1,1.3.3.3.21.73.76,1.29,1.64l1.76,2.77h1.31l-2.39-3.66c-.43-.66-.79-1.11-1.09-1.36,1.11-.5,1.68-1.32,1.68-2.43,0-.83-.3-1.49-.9-1.98-.58-.48-1.43-.72-2.53-.72h-2.69v10.16h1.1v-4.71ZM218.53,133.26h1.43c.79,0,1.4.16,1.81.47.4.3.6.72.6,1.28s-.19.98-.59,1.29c-.41.31-1.01.47-1.8.47h-1.46v-3.5Z"></path><polygon class="cls-3" points="229.96 142.44 229.96 133.26 233.64 133.26 233.64 132.28 225.17 132.28 225.17 133.26 228.85 133.26 228.85 142.44 229.96 142.44"></polygon><rect class="cls-3" x="235.78" y="132.28" width="1.1" height="10.16"></rect><path class="cls-3" d="M239.29,132.28v5.7c0,1.41.4,2.54,1.19,3.35.79.82,1.83,1.23,3.08,1.23s2.29-.42,3.09-1.25c.79-.83,1.19-2.01,1.19-3.51v-5.52h-1.1v5.57c0,1.18-.3,2.1-.88,2.73-.58.63-1.36.95-2.29.95s-1.7-.31-2.28-.94c-.59-.63-.88-1.51-.88-2.63v-5.67h-1.11Z"></path><polygon class="cls-3" points="259.31 142.44 259.31 132.28 258.29 132.28 254.64 136.74 251.02 132.35 250.97 132.28 249.96 132.28 249.96 142.44 251.06 142.44 251.06 134.04 254.64 138.43 258.2 134.05 258.2 142.44 259.31 142.44"></polygon></g></g></g></svg>