<svg xmlns="http://www.w3.org/2000/svg" viewBox="0 0 614 118" xmlns:v="https://vecta.io/nano"><g fill="#969696"><path d="M128.91 56.57v-6.89h3.43c.04 1.26.37 2.19.99 2.79s1.33.89 2.12.89c.62 0 1.14-.22 1.57-.65s.64-.94.64-1.52c0-.62-.21-1.14-.63-1.56s-1.18-.9-2.29-1.44c-2.34-1.13-3.93-2.12-4.76-2.99-.84-.86-1.25-2.03-1.25-3.5 0-1.77.55-3.14 1.66-4.11s2.36-1.46 3.77-1.46c1.61 0 2.85.63 3.74 1.88v-1.68h3.42v6.15h-3.42c-.11-.95-.43-1.68-.98-2.2s-1.19-.78-1.91-.78c-.56 0-1.04.15-1.42.45a1.41 1.41 0 0 0-.58 1.18c0 .42.16.81.48 1.19s1.26.9 2.81 1.59c1.49.67 2.64 1.27 3.44 1.81s1.43 1.24 1.9 2.1c.46.86.7 1.85.7 2.98 0 2-.58 3.5-1.75 4.51-1.16 1.01-2.54 1.51-4.13 1.51-1.77 0-3.14-.66-4.1-1.97v1.72h-3.45zm16.06 0v-3.42h2.53V39.76h-2.53v-3.42h9.77v3.42h-2.12v4.44h5.51v-4.44h-2.05v-3.42h9.7v3.42h-2.53v13.39h2.53v3.42h-9.7v-3.42h2.05v-5.53h-5.51v5.53h2.12v3.42h-9.77z"/><use href="#B"/><path d="M189.95 56.57v-3.42h2.49V39.76h-2.49v-3.42h9.23c2.05 0 3.57.12 4.57.36s1.86.81 2.59 1.73 1.09 1.99 1.09 3.22c0 1.97-.95 3.36-2.85 4.17 2.42.9 3.64 2.52 3.64 4.84 0 1.34-.38 2.48-1.13 3.44s-1.72 1.6-2.91 1.95c-1.19.34-2.85.52-5 .52h-9.23zm7.76-12.24h1.48c1.03 0 1.78-.17 2.27-.52s.73-.96.73-1.85c0-.8-.24-1.37-.71-1.7s-1.29-.49-2.46-.49h-1.31v4.56zm0 8.83h1.48c1.35 0 2.29-.19 2.82-.58s.8-1.07.8-2.05c0-1.03-.29-1.75-.87-2.16s-1.5-.62-2.76-.62h-1.48v5.41zm12.88-13.4v-3.42h9.66v3.42h-1.99v9.15c0 1.22.05 2.1.15 2.64a2.15 2.15 0 0 0 .81 1.33c.44.35.99.52 1.66.52.69 0 1.26-.16 1.72-.49s.75-.74.88-1.24c.13-.49.2-1.5.2-3.02v-8.89h-1.96v-3.42h8.06v3.42h-2.47v10.12c0 1.38-.07 2.38-.22 3s-.48 1.25-1 1.86-1.28 1.12-2.28 1.5c-.99.38-2.14.57-3.42.57-1.49 0-2.77-.21-3.82-.63s-1.83-.98-2.35-1.68c-.51-.7-.84-1.39-.99-2.08s-.22-1.86-.22-3.52v-9.15h-2.42zm20.16 22.67v-3.67c.57.17 1.08.25 1.51.25.8 0 1.38-.22 1.73-.67s.52-1.23.52-2.36V39.76h-3.01v-3.42h11.02v3.42h-2.75v16.42c0 2.25-.55 3.91-1.64 5s-2.54 1.62-4.36 1.62c-.89 0-1.9-.12-3.02-.37z"/><use href="#C"/><path d="M278.7 56.57v-3.42h2.89V39.76h-2.89v-3.42h11.11v3.42h-2.95v13.39h5.98V46.9h3.94v9.67H278.7zm31.86-20.55c3.49 0 6.24 1.01 8.24 3.02 2 2.02 3 4.47 3 7.37 0 2.91-1 5.37-3.01 7.38s-4.75 3.02-8.23 3.02c-3.62 0-6.39-1.03-8.33-3.1s-2.91-4.5-2.91-7.29c0-2.89 1-5.34 2.99-7.37 1.99-2.01 4.74-3.03 8.25-3.03zm0 3.7c-1.55 0-2.87.58-3.95 1.75-1.08 1.16-1.62 2.87-1.62 5.12 0 1.99.53 3.58 1.6 4.77s2.39 1.79 3.97 1.79c1.55 0 2.87-.58 3.96-1.75s1.63-2.85 1.63-5.05c0-1.97-.52-3.56-1.56-4.78-1.04-1.24-2.38-1.85-4.03-1.85zm14.46 16.85v-3.42h2.49V39.76h-2.49v-3.42h9.24c2.04 0 3.57.12 4.57.36s1.86.81 2.59 1.73 1.09 1.99 1.09 3.22c0 1.97-.95 3.36-2.85 4.17 2.42.9 3.64 2.52 3.64 4.84 0 1.34-.38 2.48-1.13 3.44s-1.72 1.6-2.91 1.95-2.85.52-5 .52h-9.24zm7.75-12.24h1.48c1.03 0 1.78-.17 2.27-.52.48-.35.73-.96.73-1.85 0-.8-.24-1.37-.71-1.7s-1.29-.49-2.46-.49h-1.31v4.56zm0 8.83h1.48c1.35 0 2.29-.19 2.82-.58s.8-1.07.8-2.05c0-1.03-.29-1.75-.87-2.16s-1.5-.62-2.76-.62h-1.48v5.41z"/><use href="#B" x="178.15"/><path d="M367.94 56.57v-3.42h2.89V39.76h-2.89v-3.42h11.11v3.42h-2.95v13.39h5.98V46.9h3.94v9.67h-18.08zm28.34 0v-3.42h2.43V39.76h-2.43v-3.42h17.83v6.41h-3.87v-3h-6.27v4.67h5.06v3.42h-5.06v5.31h6.27v-3.02h3.87v6.44h-17.83zm20.32 0v-3.42h3.07V39.76h-3.07v-3.42h9.58c2.02 0 3.64.12 4.87.37s2.41.79 3.53 1.64 2.03 1.98 2.71 3.41 1.02 3.01 1.02 4.74c0 1.41-.24 2.75-.71 4.02-.48 1.27-1.06 2.3-1.77 3.08-.7.78-1.54 1.4-2.52 1.86s-1.88.76-2.7.89-2.09.2-3.8.2H416.6zm8.32-3.41h1.26c1.53 0 2.75-.2 3.64-.6.9-.4 1.62-1.1 2.16-2.1s.81-2.31.81-3.93c0-1.54-.27-2.85-.82-3.93s-1.29-1.82-2.23-2.23-2.12-.61-3.57-.61h-1.26v13.4zm16.14-13.4v-3.42h9.66v3.42h-1.99v9.15c0 1.22.05 2.1.15 2.64a2.15 2.15 0 0 0 .81 1.33c.44.35.99.52 1.66.52.69 0 1.26-.16 1.72-.49s.75-.74.88-1.24c.13-.49.2-1.5.2-3.02v-8.89h-1.96v-3.42h8.06v3.42h-2.47v10.12c0 1.38-.07 2.38-.22 3s-.48 1.25-1 1.86-1.28 1.12-2.28 1.5-2.14.57-3.42.57c-1.49 0-2.77-.21-3.82-.63s-1.83-.98-2.35-1.68c-.51-.7-.84-1.39-.99-2.08s-.22-1.86-.22-3.52v-9.15h-2.42z"/><use href="#D"/><path d="M505.65 53.16v3.42h-9.95v-3.42h2.59l-.96-3.48h-5.25L491 53.16h2.71v3.42h-8.96v-3.42h2.5l3.94-13.39h-2.69v-3.42h13.21v3.42h-2.72l4.25 13.39h2.41zm-9.15-6.45l-1.69-6.09-1.81 6.09h3.5zm13.37 9.86v-3.42h3.04V39.76h-3.04v4.71h-3.48v-8.13h18.34v8.13h-3.43v-4.71h-3.13v13.39h3.04v3.42h-11.34zm17.17 0v-3.42h3.07V39.76h-3.07v-3.42h11.43v3.42h-3.1v13.39h3.1v3.42h-11.43zm25.51-20.55c3.49 0 6.24 1.01 8.24 3.02 2 2.02 3 4.47 3 7.37 0 2.91-1 5.37-3.01 7.38s-4.75 3.02-8.23 3.02c-3.62 0-6.39-1.03-8.33-3.1s-2.91-4.5-2.91-7.29c0-2.89 1-5.34 2.99-7.37s4.74-3.03 8.25-3.03zm0 3.7c-1.55 0-2.87.58-3.95 1.75-1.08 1.16-1.62 2.87-1.62 5.12 0 1.99.53 3.58 1.6 4.77s2.39 1.79 3.97 1.79c1.55 0 2.87-.58 3.96-1.75s1.63-2.85 1.63-5.05c0-1.97-.52-3.56-1.56-4.78-1.04-1.24-2.39-1.85-4.03-1.85zm14.27 16.85v-3.42h2.71V39.76h-2.71v-3.42h8.5l7.44 12.61v-9.2h-2.63v-3.42h9.08v3.42h-2.84v16.96h-4.51l-8.73-14.99v11.43h2.54v3.42h-8.85z"/></g><g fill="#15156b"><path d="M127.82 55.49V48.6h3.43c.04 1.26.37 2.19.99 2.79s1.33.89 2.12.89c.62 0 1.14-.22 1.57-.65s.64-.94.64-1.52c0-.62-.21-1.14-.63-1.56s-1.18-.9-2.29-1.44c-2.34-1.13-3.93-2.12-4.76-2.99-.84-.86-1.25-2.03-1.25-3.5 0-1.77.55-3.14 1.66-4.11s2.36-1.46 3.77-1.46c1.61 0 2.85.63 3.74 1.88v-1.68h3.42v6.15h-3.42c-.11-.95-.43-1.68-.98-2.2s-1.19-.78-1.91-.78c-.56 0-1.04.15-1.42.45a1.41 1.41 0 0 0-.58 1.18c0 .42.16.81.48 1.19s1.26.9 2.81 1.59c1.49.67 2.64 1.27 3.44 1.81s1.43 1.24 1.9 2.1c.46.86.7 1.85.7 2.98 0 2-.58 3.5-1.75 4.51-1.16 1.01-2.54 1.51-4.13 1.51-1.77 0-3.14-.66-4.1-1.97v1.72h-3.45zm16.06 0v-3.42h2.53V38.68h-2.53v-3.42h9.77v3.42h-2.12v4.44h5.51v-4.44h-2.05v-3.42h9.7v3.42h-2.53v13.39h2.53v3.42h-9.7v-3.42h2.05v-5.53h-5.51v5.53h2.12v3.42h-9.77z"/><use href="#E"/><path d="M188.87 55.49v-3.42h2.49V38.68h-2.49v-3.42h9.23c2.05 0 3.57.12 4.57.36s1.86.81 2.59 1.73 1.09 1.99 1.09 3.22c0 1.97-.95 3.36-2.85 4.17 2.42.9 3.64 2.52 3.64 4.84 0 1.34-.38 2.48-1.13 3.44s-1.72 1.6-2.91 1.95c-1.19.34-2.85.52-5 .52h-9.23zm7.75-12.25h1.48c1.03 0 1.78-.17 2.27-.52s.73-.96.73-1.85c0-.8-.24-1.37-.71-1.7s-1.29-.49-2.46-.49h-1.31v4.56zm0 8.83h1.48c1.35 0 2.29-.19 2.82-.58s.8-1.07.8-2.05c0-1.03-.29-1.75-.87-2.16s-1.5-.62-2.76-.62h-1.48v5.41zm12.89-13.39v-3.42h9.66v3.42h-1.99v9.15c0 1.22.05 2.1.15 2.64a2.15 2.15 0 0 0 .81 1.33c.44.35.99.52 1.66.52.69 0 1.26-.16 1.72-.49s.75-.74.88-1.24c.13-.49.2-1.5.2-3.02v-8.89h-1.96v-3.42h8.06v3.42h-2.47V48.8c0 1.38-.07 2.38-.22 3s-.48 1.25-1 1.86-1.28 1.12-2.28 1.5c-.99.38-2.14.57-3.42.57-1.49 0-2.77-.21-3.82-.63s-1.83-.98-2.35-1.68c-.51-.7-.84-1.39-.99-2.08s-.22-1.86-.22-3.52v-9.15h-2.42zm20.16 22.67v-3.67c.57.17 1.08.25 1.51.25.8 0 1.38-.22 1.73-.67s.52-1.23.52-2.36V38.68h-3.01v-3.42h11.02v3.42h-2.75V55.1c0 2.25-.55 3.91-1.64 5-1.09 1.08-2.54 1.62-4.36 1.62-.9-.01-1.91-.13-3.02-.37z"/><use href="#C" x="-1.09" y="-1.08"/><path d="M277.61 55.49v-3.42h2.89V38.68h-2.89v-3.42h11.11v3.42h-2.95v13.39h5.98v-6.25h3.94v9.67h-18.08zm31.86-20.55c3.49 0 6.24 1.01 8.24 3.02 2 2.02 3 4.47 3 7.37 0 2.91-1 5.37-3.01 7.38s-4.75 3.02-8.23 3.02c-3.62 0-6.39-1.03-8.33-3.1s-2.91-4.5-2.91-7.29c0-2.89 1-5.34 2.99-7.37 1.99-2.02 4.74-3.03 8.25-3.03zm0 3.69c-1.55 0-2.87.58-3.95 1.75-1.08 1.16-1.62 2.87-1.62 5.12 0 1.99.53 3.58 1.6 4.77s2.39 1.79 3.97 1.79c1.55 0 2.87-.58 3.96-1.75s1.63-2.85 1.63-5.05c0-1.97-.52-3.56-1.56-4.78a5.06 5.06 0 0 0-4.03-1.85zm14.46 16.86v-3.42h2.49V38.68h-2.49v-3.42h9.24c2.04 0 3.57.12 4.57.36s1.86.81 2.59 1.73 1.09 1.99 1.09 3.22c0 1.97-.95 3.36-2.85 4.17 2.42.9 3.64 2.52 3.64 4.84 0 1.34-.38 2.48-1.13 3.44s-1.72 1.6-2.91 1.95-2.85.52-5 .52h-9.24zm7.75-12.25h1.48c1.03 0 1.78-.17 2.27-.52.48-.35.73-.96.73-1.85 0-.8-.24-1.37-.71-1.7s-1.29-.49-2.46-.49h-1.31v4.56zm0 8.83h1.48c1.35 0 2.29-.19 2.82-.58s.8-1.07.8-2.05c0-1.03-.29-1.75-.87-2.16s-1.5-.62-2.76-.62h-1.48v5.41z"/><use href="#E" x="178.15"/><path d="M366.85 55.49v-3.42h2.89V38.68h-2.89v-3.42h11.11v3.42h-2.95v13.39h5.98v-6.25h3.94v9.67h-18.08zm28.34 0v-3.42h2.43V38.68h-2.43v-3.42h17.83v6.41h-3.87v-3h-6.27v4.67h5.06v3.42h-5.06v5.31h6.27v-3.02h3.87v6.44h-17.83zm20.32 0v-3.42h3.07V38.68h-3.07v-3.42h9.58c2.02 0 3.64.12 4.87.37s2.41.79 3.53 1.64 2.03 1.98 2.71 3.41 1.02 3.01 1.02 4.74c0 1.41-.24 2.75-.71 4.02-.48 1.27-1.06 2.3-1.77 3.08-.7.78-1.54 1.4-2.52 1.86s-1.88.76-2.7.89-2.09.2-3.8.2h-10.21zm8.32-3.42h1.26c1.53 0 2.75-.2 3.64-.6.9-.4 1.62-1.1 2.16-2.1s.81-2.31.81-3.93c0-1.54-.27-2.85-.82-3.93s-1.29-1.82-2.23-2.23-2.12-.61-3.57-.61h-1.26v13.4zm16.14-13.39v-3.42h9.66v3.42h-1.99v9.15c0 1.22.05 2.1.15 2.64a2.15 2.15 0 0 0 .81 1.33c.44.35.99.52 1.66.52.69 0 1.26-.16 1.72-.49s.75-.74.88-1.24c.13-.49.2-1.5.2-3.02v-8.89h-1.96v-3.42h8.06v3.42h-2.47V48.8c0 1.38-.07 2.38-.22 3s-.48 1.25-1 1.86-1.28 1.12-2.28 1.5-2.14.57-3.42.57c-1.49 0-2.77-.21-3.82-.63s-1.83-.98-2.35-1.68c-.51-.7-.84-1.39-.99-2.08s-.22-1.86-.22-3.52v-9.15h-2.42z"/><use href="#D" x="-1.09" y="-1.08"/><path d="M504.56 52.07v3.42h-9.95v-3.42h2.59l-.96-3.48H491l-1.08 3.48h2.71v3.42h-8.96v-3.42h2.5l3.94-13.39h-2.69v-3.42h13.21v3.42h-2.72l4.25 13.39h2.4zm-9.14-6.44l-1.69-6.09-1.82 6.09h3.51zm13.36 9.86v-3.42h3.04V38.68h-3.04v4.71h-3.48v-8.13h18.34v8.13h-3.43v-4.71h-3.13v13.39h3.04v3.42h-11.34zm17.17 0v-3.42h3.07V38.68h-3.07v-3.42h11.43v3.42h-3.1v13.39h3.1v3.42h-11.43zm25.51-20.55c3.49 0 6.24 1.01 8.24 3.02 2 2.02 3 4.47 3 7.37 0 2.91-1 5.37-3.01 7.38s-4.75 3.02-8.23 3.02c-3.62 0-6.39-1.03-8.33-3.1s-2.91-4.5-2.91-7.29c0-2.89 1-5.34 2.99-7.37s4.74-3.03 8.25-3.03zm0 3.69c-1.55 0-2.87.58-3.95 1.75-1.08 1.16-1.62 2.87-1.62 5.12 0 1.99.53 3.58 1.6 4.77s2.39 1.79 3.97 1.79c1.55 0 2.87-.58 3.96-1.75s1.63-2.85 1.63-5.05c0-1.97-.52-3.56-1.56-4.78-1.04-1.24-2.38-1.85-4.03-1.85zm14.27 16.86v-3.42h2.71V38.68h-2.71v-3.42h8.5l7.44 12.61v-9.2h-2.63v-3.42h9.08v3.42h-2.84v16.96h-4.51l-8.73-14.99v11.43h2.54v3.42h-8.85z"/></g><g fill="#333"><path d="M191.36 81.81l-3.91-15.41h2.1l1.83 7.79 1.14 5.33h.05c.25-1.53.73-3.36 1.26-5.35l2.06-7.77h2.08l1.87 7.82 1.07 5.28h.05l1.23-5.33 2.03-7.77h2.03l-4.37 15.41h-2.08l-1.94-8.02-1.01-5.03h-.05c-.27 1.53-.62 3.04-1.19 5.03l-2.19 8.02h-2.06z"/><use href="#F"/><use href="#G"/><path d="M230.89,65.58h2.01v16.23h-2.01V65.58z"/><use href="#H"/><path d="M252.26 70.75l1.46 5.62.82 3.52h.07c.25-1.12.62-2.31.98-3.5l1.81-5.65h1.69l1.71 5.53.98 3.61h.07c.18-1.12.48-2.29.85-3.59l1.58-5.55h1.99L262.7 81.8h-1.83l-1.69-5.28-.98-3.63h-.05c-.27 1.33-.62 2.47-1.01 3.66l-1.78 5.26h-1.83l-3.34-11.06h2.07z"/><use href="#I"/><path d="M285.47 65.58v13.37l.09 2.86h-1.81l-.09-1.92h-.05c-.62 1.23-1.97 2.17-3.77 2.17-2.67 0-4.73-2.26-4.73-5.62-.02-3.68 2.26-5.94 4.96-5.94 1.69 0 2.83.8 3.34 1.69h.05v-6.61h2.01zm-2.02 9.67c0-.25-.02-.59-.09-.85-.3-1.28-1.39-2.33-2.9-2.33-2.08 0-3.31 1.83-3.31 4.28 0 2.24 1.1 4.09 3.27 4.09 1.35 0 2.58-.89 2.95-2.4.07-.28.09-.55.09-.87v-1.92zm7.61 1.4c.05 2.72 1.78 3.84 3.79 3.84 1.44 0 2.31-.25 3.06-.57l.34 1.44c-.71.32-1.92.69-3.68.69-3.41 0-5.44-2.24-5.44-5.58s1.97-5.96 5.19-5.96c3.61 0 4.57 3.18 4.57 5.21 0 .41-.05.73-.07.94h-7.76zm5.9-1.44c.02-1.28-.53-3.27-2.79-3.27-2.03 0-2.93 1.88-3.09 3.27h5.88zm13.62-8.8v9.12c0 3.45 1.53 4.91 3.59 4.91 2.29 0 3.75-1.51 3.75-4.91v-9.12h2.01v8.98c0 4.73-2.49 6.67-5.83 6.67-3.15 0-5.53-1.81-5.53-6.58v-9.07h2.01z"/><use href="#J"/><use href="#I" x="68.85"/><path d="M345.54 70.75l2.17 6.22c.37 1 .66 1.92.89 2.83h.07c.25-.91.57-1.83.94-2.83l2.15-6.22h2.1l-4.34 11.06h-1.92l-4.21-11.06h2.15zm12.25 5.9c.05 2.72 1.78 3.84 3.79 3.84 1.44 0 2.31-.25 3.06-.57l.34 1.44c-.71.32-1.92.69-3.68.69-3.41 0-5.44-2.24-5.44-5.58s1.97-5.96 5.19-5.96c3.61 0 4.57 3.18 4.57 5.21 0 .41-.05.73-.07.94h-7.76zm5.89-1.44c.02-1.28-.53-3.27-2.79-3.27-2.03 0-2.93 1.88-3.09 3.27h5.88z"/><use href="#G" x="147.07"/><use href="#K"/><use href="#I" x="118.64"/><path d="M396.98 67.57v3.18h2.88v1.53h-2.88v5.97c0 1.37.39 2.15 1.51 2.15.53 0 .92-.07 1.17-.14l.09 1.51c-.39.16-1.01.28-1.78.28-.94 0-1.69-.3-2.17-.85-.57-.59-.78-1.58-.78-2.88v-6.03h-1.71v-1.53h1.71V68.1l1.96-.53zm7.22 3.18l2.42 6.54.71 2.26h.04l.71-2.31 2.19-6.49h2.13l-3.02 7.89c-1.44 3.79-2.42 5.74-3.79 6.93-.98.87-1.97 1.21-2.47 1.3l-.5-1.69c.5-.16 1.17-.48 1.76-.98.55-.43 1.23-1.21 1.69-2.24.09-.21.16-.37.16-.48s-.05-.27-.14-.53L402 70.75h2.2zm19.72 6.22l-1.6 4.85h-2.06l5.23-15.41h2.4l5.26 15.41h-2.13l-1.65-4.85h-5.45zm5.05-1.56l-1.51-4.43-.8-2.81h-.05l-.78 2.79-1.51 4.46h4.65z"/><use href="#H" x="198.79"/><path d="M450.24 73.75l-.09-2.99h1.76l.09 1.78h.07c.62-1.05 1.65-2.03 3.47-2.03 1.51 0 2.65.91 3.13 2.22h.05a4.54 4.54 0 0 1 1.23-1.44c.66-.5 1.39-.78 2.45-.78 1.46 0 3.63.96 3.63 4.8v6.52h-1.97v-6.26c0-2.12-.78-3.41-2.4-3.41-1.14 0-2.04.85-2.38 1.83a3.34 3.34 0 0 0-.16 1.01v6.83h-1.97V75.2c0-1.76-.78-3.04-2.31-3.04-1.26 0-2.17 1.01-2.49 2.01-.11.3-.16.64-.16.98v6.67h-1.97v-8.07z"/><use href="#I" x="201.02"/><use href="#K" x="99.06"/><use href="#K" x="109.25"/><use href="#I" x="227.9"/><use href="#F" x="295.31"/><use href="#J" x="193.04"/></g><path d="M36.52 71.81c-.52-1.11-1.39-4.49-1.4-5.48l.48-.22c2.55-1.2 4.12-3.18 4.54-5.95.61-4.02-1.73-6.97-4.4-8.21l-.6-.26c0-.19-.03-.37 0-.55.38-1.86.87-3.7 1.52-5.49.05-.13.12-.24.2-.41 1.59 1.08 3.3 1.4 5.12.84 1.48-.45 2.6-1.39 3.33-2.76.81-1.53.93-3.14.33-4.77-.59-1.6-1.75-2.69-3.31-3.36.62-1.14 3.65-4.52 4.63-5.15l.31.53c.83 1.39 2.06 2.19 3.67 2.28 2.51.14 4.47-1.71 4.74-4 .17-1.47-.27-2.73-1.31-3.79l-.29-.3c-.01-.01-.01-.04-.01-.07 1.16-1 6-3.13 9.16-4.03 5.57-1.58 11.23-1.97 16.96-1.12 6.07.9 11.65 3.09 16.7 6.56 15.11 10.4 21.03 29.26 15.1 46.12-6.14 17.45-22.24 26.38-36.22 26.62-.02-.15-.06-.31-.06-.47l.01-11.76c0-.14.02-.27.03-.44.39-.06.76-.13 1.13-.17 5.67-.56 10.8-2.55 15.41-5.88a8.45 8.45 0 0 0 1.08-.9c.28-.28.51-.61.74-.94.16-.23.24-.51.23-.8-.03-.81-.74-1.22-1.43-.8-.26.15-.49.37-.71.57-2.26 2.03-4.78 3.63-7.59 4.78-2.07.85-4.22 1.44-6.45 1.7-1.19.14-2.38.24-3.58.23-4.54-.05-8.77-1.23-12.64-3.61-6.64-4.07-11.01-9.89-13.27-17.31-.36-1.19-.65-2.4-.89-3.62-.07-.34-.16-.69-.32-1-.36-.68-1.1-.68-1.51-.02-.2.32-.22.67-.19 1.02.07.7.14 1.4.26 2.09.76 4.21 2.52 7.99 5.06 11.42 3.76 5.08 8.55 8.87 14.39 11.31 2.44 1.02 4.99 1.66 7.63 1.9.09.01.18.04.25.06.18.23.11.47.11.7l.01 4.51.03 6.69c0 .25.04.51-.07.74-1.21.18-5.73-.37-8.31-.98-2.75-.65-5.4-1.58-7.96-2.79-2.53-1.2-4.91-2.66-7.14-4.37-2.23-1.7-4.25-3.62-6.07-5.73-.3.09-.3.34-.38.51-.49 1.08-1.14 2.05-1.98 2.89-1.64 1.63-3.6 2.57-5.91 2.83-4.81.55-9.87-2.71-10.67-8.28-.76-5.3 2.6-9.44 6.76-10.72 1.5-.46 3.03-.6 4.63-.25 1.64 4.74 4.06 9.04 7.31 12.88.24-.06.25-.24.29-.39 1.7-5.46-1.39-10.67-6.23-12.28-.4-.13-.84-.23-1.25-.35zm63.71-15.26l-.01-2.32a5.28 5.28 0 0 0-.12-1.05c-.12-.51-.52-.76-1.06-.73-.55.04-.88.34-.92.88a5.54 5.54 0 0 0 .03.91c.26 2.4.15 4.78-.35 7.14-2.07 9.7-10.26 17.4-20.59 18.32-1.11.1-2.16-.1-3.06-.8-.89-.69-1.75-1.42-2.54-2.23-.42-.44-.81-.91-1.11-1.45-.46-.83-.65-1.71-.47-2.65a13 13 0 0 1 .33-1.37c.17-.54.38-1.06.59-1.58.33-.81.55-1.64.6-2.52.1-1.72-.44-3.19-1.72-4.36-.26-.24-.56-.43-.83-.65-.29-.24-.58-.48-.83-.76-.47-.54-.5-1.15-.18-1.77.12-.23.28-.44.43-.64.14-.19.31-.36.46-.53.74-.82 1.22-1.78 1.41-2.87a7.11 7.11 0 0 0 0-2.52c-.26-1.45-1.13-2.38-2.52-2.85-1.01-.34-2.04-.31-3.06-.09-1.47.31-2.11 1.11-2.14 2.62-.01.45.01.89.03 1.34.05 1.14-.23 2.19-.84 3.14-.28.43-.6.84-.92 1.24-.4.49-.83.96-1.26 1.42a4.1 4.1 0 0 1-.74.64c-.32.21-.67.19-1-.01a1.43 1.43 0 0 1-.72-.99c-.05-.2-.07-.42-.07-.63.03-.85.13-1.68.45-2.48.18-.46.34-.93.36-1.43.03-.54-.17-.98-.66-1.22-.38-.18-.78-.34-1.18-.43a28.61 28.61 0 0 0-2.43-.4 6.66 6.66 0 0 0-1.48-.02c-1.01.09-1.93.56-2.12 1.97a5.95 5.95 0 0 0-.07.84c-.02 2.07.15 4.13.56 6.16 1.69 8.4 7.78 15.39 15.48 18.3 1.01.38 2.03.74 3.09.96.71.15 1.14-.15 1.28-.85.08-.38-.03-.71-.36-.92a3.07 3.07 0 0 0-.64-.29c-.54-.17-1.08-.3-1.62-.48-3.58-1.23-6.69-3.2-9.28-5.95-4.08-4.34-6.24-9.47-6.34-15.45-.01-.37.02-.75.08-1.12.08-.51.37-.84.9-.95a3.49 3.49 0 0 1 1.67.06c.41.11.56.34.54.79-.01.19-.05.37-.09.56-.05.28-.13.55-.18.83-.18 1.18-.13 2.34.34 3.46.25.59.58 1.13 1.06 1.56a2.19 2.19 0 0 0 1.55.57c.48-.01.92-.16 1.35-.36.73-.34 1.37-.81 1.96-1.36 1.18-1.11 2.09-2.41 2.74-3.89.51-1.16.79-2.35.7-3.63-.02-.21-.02-.42-.01-.63.03-.68.3-.97 1-1.02.28-.02.56-.01.84.02.98.12 1.57.72 1.67 1.7.09.91-.05 1.78-.51 2.58a14.54 14.54 0 0 1-.83 1.22c-.37.49-.72.98-.98 1.54-.52 1.13-.39 2.19.34 3.18.34.46.74.84 1.17 1.21.32.28.64.56.92.87.74.82 1.1 1.79 1.04 2.9-.03.47-.12.93-.27 1.38l-.79 2.41c-.35 1.05-.37 2.12-.15 3.2.41 1.99 1.42 3.66 2.82 5.1.88.9 1.89 1.62 3.06 2.09a5.68 5.68 0 0 0 2.34.42 23.75 23.75 0 0 0 4.74-.67c8-1.96 14.14-7.48 17.12-14.46 1.4-3.19 2.03-6.53 2-10.15zm-20.14-5.18c-.13-.1-.24-.15-.3-.23-.26-.33-.54-.66-.74-1.02-.41-.74-.78-1.5-1.15-2.26-.15-.32-.27-.65-.37-.99-.07-.24-.1-.5-.12-.76-.05-.64.21-1.16.73-1.51.33-.22.68-.42 1.05-.56.48-.19.98-.32 1.48-.46a2.91 2.91 0 0 0 2.11-1.98c.06-.18.11-.36.16-.54a6.95 6.95 0 0 0 .07-3.42c-.27-1.21-.6-2.41-.92-3.61-.07-.25-.17-.49-.28-.72-.23-.48-.6-.83-1.11-1.02a4.87 4.87 0 0 0-.74-.23c-1.04-.21-2.08-.37-3.14-.43-1.83-.1-3.67-.03-5.48.29-2.63.46-5.14 1.28-7.52 2.5-4.14 2.13-7.53 5.09-10.05 9.02-1.22 1.89-2.05 3.95-2.74 6.08-.04.11-.07.23-.09.34-.06.4.1.73.48.94s.79.33 1.2.06c.11-.07.2-.2.27-.32.1-.19.18-.38.24-.58.64-1.98 1.55-3.82 2.68-5.57 3.16-4.91 7.54-8.17 13.17-9.72 2.12-.58 4.28-.84 6.47-.89.73-.02 1.46 0 2.18.12 2 .31 3.24 1.59 3.46 3.6a9.92 9.92 0 0 1 .01 2.11c-.1 1.07-.65 1.79-1.65 2.16-.29.11-.58.18-.87.28-1.26.42-2.32 1.13-3.03 2.28-.64 1.02-.76 2.09-.25 3.22.79 1.77 1.76 3.42 2.88 4.99.2.28.45.55.73.76.71.56 1.46.58 2.23.11.39-.24.71-.54.97-.91.39-.56.77-1.12 1.11-1.71.33-.57.6-1.17.91-1.75.14-.27.29-.54.49-.77.35-.42.77-.43 1.15-.03.19.2.36.44.5.68.38.62.69 1.28.98 1.95.62 1.44 1.74 2.17 3.3 2.21 1.11.03 2.21-.04 3.3-.26 1.31-.26 2.61-.59 3.91-.91.36-.09.71-.24 1.04-.41.62-.32.84-.77.7-1.46a6.93 6.93 0 0 0-.42-1.41c-.56-1.29-1.13-2.58-1.75-3.84-.77-1.54-1.74-2.95-2.85-4.26-2.53-3-5.66-5.19-9.23-6.79-.19-.09-.39-.16-.6-.21-.5-.13-.88.04-1.11.49-.26.5-.21.95.18 1.28.18.15.4.25.61.35.46.23.94.42 1.4.66 5.01 2.64 8.62 6.57 10.87 11.76.11.26.22.52.28.79.17.77-.05 1.14-.8 1.39-.11.04-.22.07-.34.1l-2.55.52c-.88.15-1.76.26-2.66.08-.73-.15-1.25-.5-1.56-1.18-.17-.38-.34-.77-.48-1.17-.3-.84-.84-1.52-1.5-2.1-.24-.21-.53-.4-.82-.54-.83-.41-1.65-.36-2.39.19a3.98 3.98 0 0 0-.85.84c-.28.37-.5.79-.72 1.2-.27.5-.49 1.01-.76 1.51-.35.59-.74 1.18-1.36 1.67zm9 5.25c-.7 0-1.52.13-2.33.4-1.24.4-2.37 1.02-3.43 1.75-.9.63-1.86 1.05-3 1.02-.76-.02-1.33.4-1.7 1.07-.4.7-.27 1.44.38 1.93 1.4 1.07 2.84 2.08 4.41 2.89.65.33 1.32.6 1.99.89.17.07.37.13.54.1.69-.12 1.39-.25 2.06-.44.7-.2 1.22-.65 1.62-1.28.46-.73.97-1.43 1.49-2.13.49-.66 1.02-1.29 1.53-1.93.16-.2.32-.41.44-.63.48-.87.34-1.81-.36-2.52-.35-.36-.78-.6-1.25-.76-.74-.25-1.48-.36-2.39-.36zM75.57 76.85c.14 0 .28.01.42 0 1.14-.1 2.16-.98 2.41-2.06.3-1.35-.49-3.14-1.69-3.83-.52-.3-1.07-.36-1.62-.1-1.31.61-2.19 1.61-2.53 3.02-.26 1.08.29 2.15 1.3 2.62.54.24 1.11.35 1.71.35zM34.92 66.28c-2.93 1.07-6.63.1-8.68-2.76-2.01-2.79-1.91-6.71.33-9.4 2.29-2.75 6.02-3.31 8.37-2.3l-.39 2.82-.21 2.94-.01 2.88.21 2.94.38 2.88zm1.9-21.26c-1.66-.97-3.07-4.08-1.62-6.95 1.43-2.83 4.72-3.67 6.89-2.75-.05.1-.09.2-.15.29-2.06 2.82-3.71 5.86-4.98 9.11-.03.08-.07.17-.14.3zm10.25-15.19c-.74-1.5-.19-3.82 1.45-5.06 1.61-1.21 3.95-1.15 5.25-.01-.55.44-1.18.75-1.74 1.15l-1.72 1.22-1.65 1.31-1.59 1.39zm34.99 32.44l.72-.21c.62-.19 1.14-.54 1.56-1.03.05-.05.09-.11.13-.16.69-.97 1.66-1.51 2.8-1.73.87-.17 1.76-.24 2.65-.34.16-.02.33-.01.49.02a.61.61 0 0 1 .39.93c-.07.12-.17.22-.28.31-.88.79-1.55 1.75-2.11 2.78a6.58 6.58 0 0 1-.61.94c-.3.38-.7.6-1.18.7-.39.08-.75-.01-1.1-.13a3.19 3.19 0 0 1-.7-.33l-2.5-1.57c-.06-.03-.11-.07-.26-.18zm-6.8 12.58c-.07-.02-.3-.06-.51-.15-.25-.11-.35-.32-.27-.57.13-.46.37-.85.78-1.12.33-.22.68-.15.91.18.09.13.17.28.23.43.25.65-.08 1.17-.77 1.24-.06-.01-.13-.01-.37-.01z" fill="#22205f"/><defs ><path id="B" d="M188.25 53.16v3.42h-9.95v-3.42h2.59l-.96-3.48h-5.25l-1.08 3.48h2.71v3.42h-8.96v-3.42h2.5l3.94-13.39h-2.69v-3.42h13.21v3.42h-2.72l4.25 13.39h2.41zm-9.15-6.45l-1.69-6.09-1.82 6.09h3.51z"/><path id="C" d="M266.26 49.78v-3.42h9.48c0 2.45-.44 4.4-1.33 5.83-.89 1.44-2.18 2.56-3.87 3.39s-3.59 1.24-5.69 1.24c-3.66 0-6.46-.98-8.41-2.94s-2.93-4.45-2.93-7.46c0-2.09.48-3.94 1.45-5.55.97-1.6 2.27-2.81 3.91-3.63 1.64-.81 3.42-1.22 5.34-1.22 2.71 0 4.83.66 6.34 1.98v-1.66h3.43v7.18h-3.43a5.05 5.05 0 0 0-2.14-2.87c-1.07-.7-2.21-1.05-3.43-1.05-1.61 0-2.98.57-4.12 1.71s-1.7 2.72-1.7 4.73c0 2.31.58 4.06 1.73 5.27s2.56 1.81 4.22 1.81c1.22 0 2.23-.3 3.04-.89.8-.59 1.36-1.42 1.67-2.47h-3.56z"/><path id="D" d="M479.62 36.34h3.42v7.13h-3.42c-.97-2.56-2.65-3.84-5.05-3.84-1.98 0-3.47.67-4.49 2.02-1.01 1.35-1.52 2.96-1.52 4.84 0 1.97.54 3.56 1.61 4.78s2.44 1.83 4.09 1.83c1.36 0 2.54-.46 3.56-1.38s1.71-2.2 2.06-3.84l3.99 1.9c-1.51 4.7-4.84 7.05-9.99 7.05-3.64 0-6.38-.98-8.22-2.94-1.85-1.96-2.77-4.44-2.77-7.43 0-2.13.48-4 1.44-5.6a9.24 9.24 0 0 1 3.88-3.61c1.62-.81 3.41-1.21 5.34-1.21 2.41 0 4.44.63 6.06 1.89v-1.59z"/><path id="E" d="M187.16 52.07v3.42h-9.95v-3.42h2.59l-.96-3.48h-5.25l-1.08 3.48h2.71v3.42h-8.96v-3.42h2.5l3.94-13.39h-2.69v-3.42h13.21v3.42h-2.72l4.25 13.39h2.41zm-9.15-6.44l-1.69-6.09-1.82 6.09h3.51z"/><path id="F" d="M218.51 76.19c0 4.09-2.83 5.87-5.51 5.87-2.99 0-5.3-2.19-5.3-5.69 0-3.7 2.42-5.87 5.49-5.87 3.17 0 5.32 2.31 5.32 5.69zm-8.78.11c0 2.42 1.39 4.25 3.36 4.25 1.92 0 3.36-1.81 3.36-4.3 0-1.88-.94-4.25-3.31-4.25-2.38.01-3.41 2.2-3.41 4.3z"/><path id="G" d="M222.19 74.2l-.09-3.45h1.76l.07 2.17h.09c.5-1.49 1.71-2.42 3.06-2.42.23 0 .39.02.57.07v1.9c-.21-.04-.41-.07-.69-.07-1.42 0-2.42 1.07-2.7 2.58a5.17 5.17 0 0 0-.09.94v5.9h-1.99V74.2z"/><path id="H" d="M246.98 65.58v13.37l.09 2.86h-1.81l-.09-1.92h-.05c-.62 1.23-1.97 2.17-3.77 2.17-2.67 0-4.73-2.26-4.73-5.62-.02-3.68 2.26-5.94 4.96-5.94 1.69 0 2.83.8 3.34 1.69h.05v-6.61h2.01zm-2.01 9.67c0-.25-.02-.59-.09-.85-.3-1.28-1.39-2.33-2.9-2.33-2.08 0-3.31 1.83-3.31 4.28 0 2.24 1.1 4.09 3.27 4.09 1.35 0 2.58-.89 2.95-2.4.07-.28.09-.55.09-.87v-1.92z"/><path id="I" d="M271.66 67.64c.02.69-.48 1.23-1.28 1.23-.71 0-1.21-.55-1.21-1.23a1.23 1.23 0 0 1 1.26-1.26c.75 0 1.23.55 1.23 1.26zm-2.24 14.17V70.75h2.01v11.06h-2.01z"/><path id="J" d="M324.45 73.75l-.09-2.99h1.78l.11 1.83h.05c.55-1.05 1.83-2.08 3.66-2.08 1.53 0 3.91.91 3.91 4.71v6.61h-2.01v-6.38c0-1.78-.66-3.27-2.56-3.27-1.33 0-2.35.94-2.7 2.06-.09.25-.14.59-.14.94v6.65h-2.01v-8.08z"/><path id="K" d="M377.6 79.76a5.26 5.26 0 0 0 2.65.8c1.46 0 2.15-.73 2.15-1.65 0-.96-.57-1.49-2.06-2.03-1.99-.71-2.93-1.81-2.93-3.13 0-1.78 1.44-3.25 3.82-3.25 1.12 0 2.1.32 2.72.69l-.5 1.46c-.43-.28-1.23-.64-2.26-.64-1.19 0-1.85.69-1.85 1.51 0 .92.66 1.33 2.1 1.87 1.92.73 2.9 1.69 2.9 3.34 0 1.94-1.51 3.31-4.14 3.31-1.21 0-2.33-.3-3.11-.75l.51-1.53z"/></defs></svg>