<svg xmlns="http://www.w3.org/2000/svg" viewBox="0 0 1440 720" xmlns:v="https://vecta.io/nano"><defs><linearGradient id="A" x1="17.62" y1="360" x2="1480" y2="360" href="#I"><stop offset="0" stop-color="#69d8ff"/><stop offset=".32" stop-color="#42c1f8"/><stop offset=".78" stop-color="#12a5f0"/><stop offset="1" stop-color="#009aed"/></linearGradient><linearGradient id="B" x1="1140.18" y1="568.19" x2="1140.18" y2="366.76" href="#I"><stop offset=".19" stop-color="#fff" stop-opacity="0"/><stop offset=".82" stop-color="#fff"/></linearGradient><linearGradient id="C" x1="684.76" y1="463.42" x2="684.76" y2="261.99" href="#B"/><linearGradient id="D" x1="215.25" y1="408.89" x2="215.25" y2="207.46" href="#B"/><linearGradient id="E" x1="135.64" y1="53.67" x2="135.64" y2="96.58" href="#I"><stop offset="0" stop-color="#fff"/><stop offset=".18" stop-color="#fff" stop-opacity=".99"/><stop offset=".32" stop-color="#fff" stop-opacity=".95"/><stop offset=".43" stop-color="#fff" stop-opacity=".89"/><stop offset=".54" stop-color="#fff" stop-opacity=".8"/><stop offset=".64" stop-color="#fff" stop-opacity=".69"/><stop offset=".74" stop-color="#fff" stop-opacity=".55"/><stop offset=".83" stop-color="#fff" stop-opacity=".38"/><stop offset=".92" stop-color="#fff" stop-opacity=".2"/><stop offset="1" stop-color="#fff" stop-opacity="0"/></linearGradient><linearGradient id="F" x1="1207.68" y1="39.73" x2="1207.68" y2="69.62" href="#I"><stop offset="0" stop-color="#fff"/><stop offset=".09" stop-color="#fff" stop-opacity=".97"/><stop offset=".22" stop-color="#fff" stop-opacity=".89"/><stop offset=".38" stop-color="#fff" stop-opacity=".75"/><stop offset=".56" stop-color="#fff" stop-opacity=".57"/><stop offset=".76" stop-color="#fff" stop-opacity=".33"/><stop offset=".97" stop-color="#fff" stop-opacity=".04"/><stop offset="1" stop-color="#fff" stop-opacity="0"/></linearGradient><linearGradient id="G" x1="250.19" y1="226.07" x2="250.19" y2="304.59" gradientTransform="translate(1442) rotate(-180) scale(1 -1)" href="#E"/><path id="H" d="M1166.83 574.23h10.56v52.79h-10.56z"/><linearGradient id="I" gradientUnits="userSpaceOnUse"/></defs><path d="M0 0h1440v720H0z" fill="url(#A)"/><path d="M1344.09,461.47c.51-1.95.78-4,.78-6.11,0-13.41-10.87-24.28-24.28-24.28-1.22,0-2.41.09-3.58.26-2.75-21.01-20.23-37.39-41.73-38.43-6.94-15.41-22.42-26.14-40.42-26.14-24.47,0-44.3,19.83-44.3,44.3,0,.59.01,1.18.04,1.77-2.12-.39-4.31-.6-6.55-.6-18.87,0-34.32,14.59-35.7,33.11l-.17.02v1.95c-4.65-3.34-10.35-5.33-16.53-5.33-1.78,0-3.52.17-5.21.47.02-.47.03-.94.03-1.41,0-19.47-15.78-35.26-35.26-35.26-14.32,0-26.65,8.54-32.17,20.81-17.11.84-31.02,13.87-33.21,30.59-.93-.14-1.88-.21-2.85-.21-7.95,0-14.78,4.8-17.74,11.67-1.38-9.89-9.62-17.57-19.76-18.07-3.29-7.31-10.63-12.4-19.17-12.4-11.6,0-21.01,9.41-21.01,21.01,0,.28,0,.56.02.84-1.01-.19-2.04-.28-3.11-.28-8.95,0-16.28,6.92-16.93,15.7h-.08s.33,58.26.33,58.26h69.92v32.39h153.41v2.08h206.31v-94.63c0-6.35-4.87-11.55-11.08-12.09Z" opacity=".7" fill="url(#B)"/><path d="M888.66,356.69c.51-1.95.78-4,.78-6.11,0-13.41-10.87-24.28-24.28-24.28-1.22,0-2.41.09-3.58.26-2.75-21.01-20.23-37.39-41.73-38.43-6.94-15.41-22.42-26.14-40.42-26.14-24.47,0-44.3,19.83-44.3,44.3,0,.59.01,1.18.04,1.77-2.12-.39-4.31-.6-6.55-.6-18.87,0-34.32,14.59-35.7,33.11l-.17.02v1.95c-4.65-3.34-10.35-5.33-16.53-5.33-1.78,0-3.52.17-5.21.47.02-.47.03-.94.03-1.41,0-19.47-15.78-35.26-35.26-35.26-14.32,0-26.65,8.54-32.17,20.81-17.11.84-31.02,13.87-33.21,30.59-.93-.14-1.88-.21-2.85-.21-7.95,0-14.78,4.8-17.74,11.67-1.38-9.89-9.62-17.57-19.76-18.07-3.29-7.31-10.63-12.4-19.17-12.4-11.6,0-21.01,9.41-21.01,21.01,0,.28,0,.56.02.84-1.01-.19-2.04-.28-3.11-.28-8.95,0-16.28,6.92-16.93,15.7h-.08s.33,58.26.33,58.26h69.92v32.39h153.41v2.08h206.31v-94.63c0-6.35-4.87-11.55-11.08-12.09Z" opacity=".7" fill="url(#C)"/><path d="M11.34,302.17c-.51-1.95-.78-4-.78-6.11,0-13.41,10.87-24.28,24.28-24.28,1.22,0,2.41.09,3.58.26,2.75-21.01,20.23-37.39,41.73-38.43,6.94-15.41,22.42-26.14,40.42-26.14,24.47,0,44.3,19.83,44.3,44.3,0,.59-.01,1.18-.04,1.77,2.12-.39,4.31-.6,6.55-.6,18.87,0,34.32,14.59,35.7,33.11l.17.02v1.95c4.65-3.34,10.35-5.33,16.53-5.33,1.78,0,3.52.17,5.21.47-.02-.47-.03-.94-.03-1.41,0-19.47,15.78-35.26,35.26-35.26,14.32,0,26.65,8.54,32.17,20.81,17.11.84,31.02,13.87,33.21,30.59.93-.14,1.88-.21,2.85-.21,7.95,0,14.78,4.8,17.74,11.67,1.38-9.89,9.62-17.57,19.76-18.07,3.29-7.31,10.63-12.4,19.17-12.4,11.6,0,21.01,9.41,21.01,21.01,0,.28,0,.56-.02.84,1.01-.19,2.04-.28,3.11-.28,8.95,0,16.28,6.92,16.93,15.7h.08s-.33,58.26-.33,58.26h-69.92v32.39h-153.41v2.08H.26v-94.63c0-6.35,4.87-11.55,11.08-12.09Z" fill="url(#D)" opacity=".7"/><path d="M0 49.03l.49-1.35c4.73-15.42 34.68-4.88 42.77 2.05 5.93 5.08 12.33 12.56 19.78 10.22 2.61-.82 4.68-2.77 6.95-4.32 8.62-5.9 21.04-5.53 29.3.86 5.16 4 9.44 10.33 15.97 10.64 3.62.17 7.06-1.66 10.67-1.8 8.58-.34 14.39 8.26 21.61 12.92 8.01 5.18 15.1 3.53 23.74 2.14 7.67-1.23 15.75-.13 23.51.66 10.85 1.11 22.49 5.21 33.33 5.23 2.04 0 43.17 6.8 43.17 6.8S239 98.52 222 96.82s-8.59-1.83-24.07 0-32.88 6.46-39.76 5.78 3.58.14-21.37.07-26.69 3.72-51.32 3.5c-24.63-.21-27.06-6.97-42.16-9.35s-43.31.91-43.31.91V49.02z" opacity=".7" fill="url(#E)"/><path d="M1276.94 63.27s.11-23.54-17.38-23.54-16.8 19.38-16.8 19.38-2.62-11.06-13.78-9.79c-12.79 1.45-11.85 13.95-11.85 13.95s-2.67-9.82-15.47-6.98c-7.85 1.74-9.3 10.46-9.3 10.46s-4.37-12.66-13.95-13.08c-13.37-.58-19.18 13.95-19.18 13.95l-44.46 5.23 185.83-3.49-23.66-6.1z" opacity=".7" fill="url(#F)"/><path d="M1440 217.59l-.9-2.47c-8.65-28.21-63.46-8.93-78.25 3.75-10.84 9.29-22.57 22.98-36.2 18.71-4.78-1.5-8.57-5.07-12.71-7.9-15.78-10.79-38.49-10.12-53.6 1.58-9.45 7.31-17.28 18.9-29.21 19.46-6.62.31-12.91-3.04-19.53-3.3-15.7-.62-26.33 15.12-39.53 23.64-14.66 9.47-27.63 6.46-43.44 3.92-14.03-2.25-28.82-.24-43.01 1.21-19.85 2.03-41.15 9.54-60.98 9.56-3.73 0-79 12.44-79 12.44s59.09 9.95 90.19 6.84 15.72-3.35 44.04 0 60.16 11.82 72.75 10.58-6.55.25 39.1.12c45.65-.12 48.84 6.8 93.91 6.41 45.06-.39 49.51-12.76 77.13-17.11s79.25 1.67 79.25 1.67v-89.12z" opacity=".7" fill="url(#G)"/><path d="M460.19 683.6h21.7l12.96-27.4 8.36 3.55c-2.61 4.87-2.47 10.79.5 15.52h10.34c2.21-3.52 2.84-7.71 1.95-11.64 7.92 1.88 16.17 2.9 24.65 2.9a105.71 105.71 0 0 0 10.58-.53c-.99 4.01-.38 8.32 1.89 11.93h10.34c2.69-4.29 3.07-9.57 1.17-14.15 7.61-1.75 14.92-4.3 21.82-7.58l12.96 27.4h21.7l-14.16-21.85c2.78-4.89 2.71-10.9-.24-15.72v-1.95h-.65a107.4 107.4 0 0 0 17.49-17.07 15.38 15.38 0 0 0 1.68 3.73h10.34c3.13-4.98 3.15-11.3.08-16.31v-1.95h-2.14c4.51-7.89 8.05-16.39 10.44-25.36h6.76c3.13-4.98 3.15-11.3.08-16.31v-1.95h-3.66c.26-3.05.42-6.12.42-9.23 0-5.95-.51-11.78-1.45-17.47h.16c3.13-4.98 3.15-11.3.08-16.31v-1.95h-4.94c-4.04-11.37-9.96-21.85-17.38-31.09-.38-1.36-.96-2.67-1.72-3.91v-1.95h-3.35c-8.5-9.15-18.57-16.8-29.79-22.54-.16-.3-.3-.6-.47-.89v-1.95h-5.5c-10.55-4.59-21.97-7.52-33.95-8.47-.19-.39-.38-.78-.61-1.15V450h-10.49v1.95c-.17.28-.3.57-.45.85-10.26.28-20.17 2-29.53 4.99h-9.64v1.95c-.42.69-.78 1.41-1.08 2.14-9.89 4.39-18.99 10.24-27.04 17.27h-5.49v1.95c-1.01 1.64-1.66 3.43-2 5.26-7.63 8.09-14.02 17.36-18.85 27.51h-2.97v1.95c-1.99 3.24-2.66 7.03-2.05 10.65-3.14 9.6-4.94 19.79-5.21 30.35h-4.08v1.95c-3.07 5.01-3.05 11.33.08 16.31h5.07a105.44 105.44 0 0 0 6.73 24.7h-4.08v1.95c-3.07 5.01-3.05 11.33.08 16.31h10.34c.58-.93 1.02-1.91 1.39-2.92 4.24 6.95 9.26 13.36 14.92 19.15h-4.02v1.95c-3.07 5.01-3.05 11.33.08 16.31h10.34c1.97-3.14 2.71-6.8 2.22-10.34 3.06 2.51 6.27 4.84 9.6 7.01l-22.27 34.37zm66.78-95.29l11.21-19.93a7.77 7.77 0 0 0 .98.23l-1.59 27.95-12.77-3.67 2.16-4.58zm14.54-19.64c.34-.03.68-.04 1-.11l10.15 25.72-12.74 2.38 1.59-27.99zm3.84.65l10.83 22.9-1.38 1.06-9.45-23.97zm.34-2.09c.33-.22.62-.48.92-.74l18.86 18.58-5.48 4.22-14.3-22.06zm2.51-2.48c.2-.3.36-.63.53-.96l24.99 9.27-6.66 10.26-18.85-18.57zm1.35-3.16a8.85 8.85 0 0 0 .21-1.79l25.94-1.65-1.22 12.68-24.93-9.24zm-.06-4.13c-.11-.43-.23-.86-.39-1.26l23.02-12.09 3.35 11.7-25.98 1.65zm-1.57-3.3c-.26-.35-.52-.69-.83-1l16.26-20.79 7.7 9.65-23.13 12.14zm-2.73-2.41a9.38 9.38 0 0 0-1.23-.61l6.58-26.63 11.02 6.3-16.38 20.94zm-3.52-1.15c-.34-.04-.67-.1-1.02-.1-.16 0-.3.04-.46.05l-5.04-27.7 13.15.95-6.63 26.81zm-3.79.38c-.29.09-.58.16-.85.28l-16.18-24.39 11.95-3.78 5.08 27.89zm-2.85 1.51c-.35.27-.68.55-.98.87l-24.8-16.04 9.57-9.28 16.21 24.44zm-2.36 2.79a9.38 9.38 0 0 0-.69 1.63l-29.22-5.12 5.15-12.53 24.76 16.01zm-1.1 3.95c0 .13-.04.26-.04.4 0 .28.06.54.08.82l-28.44 7.61-.79-13.93 29.19 5.11zm.54 3.51c.12.32.25.63.41.93L510.13 582l-6.31-11.7 28.29-7.57zm1.72 2.9c.53.6 1.11 1.15 1.78 1.59l-15.04 23.21-8.9-6.66 22.16-18.14zm-10.04 29.4l13.65 3.92-1.8 31.66-25.34-7.07 13.49-28.51zm16 4.04l13.75-2.57L565.17 626l-27.18 4.74 1.8-31.65zm15.91-3.52l1.51-1.16 13.46 28.46-3.32 2.25-11.65-29.54zm5.57-4.29l5.89-4.54 23.15 22.81-11.95 8.1-17.09-26.37zm7.5-6.26l7.21-11.11 30 11.12-14.05 22.81-23.16-22.82zm7.99-13.33l1.32-13.68 32.61-2.07-3.91 26.88-30.02-11.13zm1.12-16.02l-3.63-12.67 29.19-15.33 7.11 25.92-32.67 2.07zm-4.72-14.76l-8.33-10.44 20.52-26.23 17.02 21.33-29.21 15.34zm-10.13-11.96l-11.9-6.8 7.93-32.07 24.48 12.66-20.51 26.22zm-14.16-7.46l-14.16-1.02-5.85-32.13 27.92 1.14-7.92 32.02zm-16.49-.72l-12.88 4.07-17.88-26.95 24.92-9.2 5.84 32.08zm-14.89 5.29l-10.27 9.96-27.14-17.55 19.55-19.34 17.86 26.92zm-11.59 11.92l-5.51 13.41-31.85-5.58 10.22-25.37 27.13 17.55zM500 553.7l.85 14.97-31.34 8.38-1.35-28.93L500 553.7zm1.48 17.23l6.79 12.59-25.14 20.58-13.01-24.79 31.36-8.39zm8.32 14.38l9.49 7.1-17.3 26.69-17.33-13.21 25.15-20.59zm4.32 73.64V657h-10.49v.39a102.58 102.58 0 0 1-7.78-3.31l13.42-28.38 26.23 7.32-1.75 30.91c-6.36-.42-12.57-1.39-18.57-2.9-.3-.71-.65-1.4-1.06-2.07zm49.41 2.67v-1.95h-10.49v1.95c-.38.62-.72 1.26-1 1.92-3.74.41-7.54.63-11.39.63a97.96 97.96 0 0 1-4.55-.12l1.75-30.92 28.2-4.91 11.52 29.2c-4.54 1.72-9.23 3.12-14.04 4.2zm16.23-5.06l-11.52-29.21 3.45-2.34 13.75 29.07c-1.86.89-3.76 1.71-5.68 2.48zm22.41-12.47h-5.94v1.12l-16.59-25.59 12.38-8.39 22.58 22.24c-3.85 3.86-8.02 7.4-12.43 10.62zm22.99-31.61v1.95c-1.78 2.91-2.5 6.25-2.19 9.53a106.57 106.57 0 0 1-6.75 7.8l-22.57-22.24 14.58-23.67 30.04 11.14c-2.07 5.39-4.57 10.57-7.47 15.49h-5.64zm15.14-43.62v1.95c-3.07 5.01-3.05 11.33.08 16.31h1.13c-.71 2.6-1.51 5.16-2.41 7.67l-30.06-11.15 4.05-27.87 31.94-2.03c.11 1.94.17 3.9.17 5.87 0 3.11-.16 6.19-.43 9.23h-4.47zm-4.45-44.96v1.95c-3.07 5.01-3.05 11.33.08 16.31h7.79c.51 3.04.89 6.13 1.13 9.25l-31.91 2.02-7.38-26.89 28.02-14.71c2.01 3.89 3.8 7.91 5.32 12.07h-3.06zm-20.15-36.95h-3.89v1.95c-3.07 5.01-3.05 11.33.08 16.31h10.34c1.51-2.41 2.28-5.14 2.34-7.87a104.08 104.08 0 0 1 7.95 12.4l-28.02 14.71-17.65-22.12L605.88 478c3.46 2.77 6.75 5.76 9.83 8.95zm-11.68-10.4l-19 24.29-25.37-13.12 7.25-29.31c3.86 1 7.63 2.24 11.31 3.66v1.45c-3.07 5.01-3.05 11.33.08 16.31h10.34c2.3-3.67 2.91-8.05 1.85-12.11 4.76 2.59 9.28 5.55 13.56 8.82zm-65.81-8.29h10.34c2.42-3.85 2.97-8.5 1.68-12.73 4.9.45 9.69 1.24 14.37 2.34l-7.23 29.25-28.93-1.18-5.35-29.37c4.44-.75 8.96-1.23 13.57-1.4-1.43 4.32-.94 9.12 1.55 13.08zm-39.62 7.79h10.34a15.44 15.44 0 0 0 .19-16.1c3.8-1.2 7.69-2.19 11.66-2.95l5.34 29.33-25.83 9.54-16.05-24.19a104.26 104.26 0 0 1 12.3-6.8c-.74 3.79-.08 7.8 2.05 11.18zm-16.33-3.11l16.05 24.19-20.25 20.03-24.25-15.68c2.69-4.01 5.66-7.81 8.87-11.4.15 2.56.89 5.08 2.31 7.34h10.34c3.13-4.98 3.15-11.3.08-16.31v-1.95H474c2.65-2.2 5.41-4.28 8.28-6.22zm-41.09 59.2h10.34c3.13-4.98 3.15-11.3.08-16.31v-1.95h-4.91c1.76-3.6 3.73-7.07 5.87-10.42l24.22 15.66-10.58 26.26-28.28-4.95c.63-3.38 1.42-6.7 2.37-9.96.27.57.55 1.14.89 1.68zm-1.02 42.96c3.13-4.98 3.15-11.3.08-16.31v-1.95h-4.05c.13-4.78.56-9.49 1.31-14.09l28.3 4.96 1.4 29.97-27.92 7.46c-.83-3.29-1.5-6.63-2.01-10.03h2.89zm7.87 26.65v-1.95h-3.88a104.59 104.59 0 0 1-4.26-12.39l27.91-7.46 13.48 25.69-22.73 18.61a105.68 105.68 0 0 1-8.38-12.33c.47-3.47-.25-7.06-2.15-10.15zm23.69 36.37c-.28-.64-.61-1.27-.99-1.87v-1.95h-3.15c-2.66-2.61-5.2-5.34-7.57-8.21l22.78-18.65 17.92 13.66-16.96 26.17c-4.23-2.76-8.26-5.81-12.04-9.14zm966.8-243.65v-9.57h-28.72v-26.81h-53.29v-59.26h-4.55v-9.93h-4.97v-12.42h-2.48v-1.66c0-4.57-3.71-8.28-8.28-8.28h-.83v-3.31c0-1.22-.67-2.28-1.66-2.85v-2.12h2.48v-3.31h-2.48v-2.48h-3.31v2.48h-2.48v3.31h2.48v2.12c-.99.57-1.66 1.63-1.66 2.85v3.31h-.83c-4.57 0-8.28 3.71-8.28 8.28v1.66h-2.48v12.42h-4.97v9.93h-4.55v95.65h-12.76V358.1h-28.72v-24.89h-21.06v-21.06h-10.73c.12-.94.2-1.9.2-2.87 0-12.69-10.29-22.98-22.98-22.98s-22.98 10.29-22.98 22.98c0 .98.08 1.93.2 2.87h-10.73v83.68h-63.08v-47.01h-1.99v-3.19h-1.59v-14.34h-2.39v-3.19h-2.79v-15.14l-1.39-33.68-1.39-33.68-1.39 33.68-1.39 33.68v15.14h-2.79v3.19h-2.39v14.34h-1.59v3.19h-1.99v1.62h-34.46v28.72h-13.4v-61.28h-67.02v22.98h-44.04v44.04h-16.4l-6.74-103.4h-14.63l-6.74 103.4h-11.03v-24.89a19.15 19.15 0 0 0-19.15-19.15h-19.93c-9.19 0-16.86 6.48-18.72 15.12h-8.88c-1.85-8.64-9.52-15.12-18.72-15.12h-19.93a19.15 19.15 0 0 0-19.15 19.15v65.11h-28.72v36.38h-74.68v101.49h74.68v120.64H477.25v36.38h962.77l.42-241.28v-84.26h-1.91z" fill="#1f8aea"/><path d="M.61 502.32V452.3v-6.21H.39l.22-.07v-3.93-11.1a53.52 53.52 0 0 1 8.09-15.42l1.01-1.33 1.01 1.33c3.52 4.67 6.26 9.88 8.09 15.42v9.6l21.75-6.49h5.35l2.08-2.87 7.88-10.86 7.88 10.86 2.08 2.87h5.8l21.31 6.43v-9.54a53.52 53.52 0 0 1 8.09-15.42l1.01-1.33 1.01 1.33c3.52 4.67 6.26 9.88 8.09 15.42v11.1 3.93l.22.07h-.22v6.21 19.38h19.08v-15.32h17.23v-15.32h55.47v-29.41h3.64c0-8.06 4.51-14.71 10.35-15.74v-6.46h-3.54v-3.15h3.54v-3.94h3.15v3.94h3.54v3.15h-3.54v6.46c5.84 1.03 10.35 7.68 10.35 15.74h3.64v19.55h16.33v-3.8h5.79v-56.57c0-14.34 9.51-26.38 22.36-29.73l2.51-5.02v-4.77l3.41-2.84v-4.57c-1.58-.56-2.73-2.06-2.73-3.84a4.07 4.07 0 0 1 2.73-3.84v-3.32h-2.73v-2.73h2.73v-3.41h2.73v3.41h2.73v2.73h-2.73v3.32c1.58.56 2.73 2.06 2.73 3.84a4.07 4.07 0 0 1-2.73 3.84v4.57l3.41 2.84v4.77l2.51 5.02c12.85 3.36 22.36 15.4 22.36 29.73v56.57h5.79v3.8h16.33v-19.55h3.64c0-8.06 4.51-14.71 10.35-15.74v-6.46h-3.54v-3.15h3.54v-3.94h3.15v3.94h3.54v3.15h-3.54v6.46c5.84 1.03 10.35 7.68 10.35 15.74h3.64v42.38h-.21v2.34h16.39v-24.89h22.98v-32.55h32.55v20.26h19.89l8.95-5.07 13.28-7.53 13.28 7.53 8.95 5.07h44.76l5.78 5.73v23.8h11.49v-34.47h38.3v21.06h24.89v30.64h11.87l7.28 11.99v24.4h13.4v-.64-1.74-16.54l1.52-7.18 1.52-7.18 1.52 7.18 1.52 7.18v12.73l20.25-12.73 11.52-7.24v-63.27h4.79l5-17.28 5-17.28 5 17.28 5 17.28h4.79v63.27l11.52 7.24 20.25 12.73V483.4l1.52-7.18 1.52-7.18 1.52 7.18 1.52 7.18v16.54 1.74 17.92h10.24v-5.69h7.24v8.79h8.53l14.06-9.05 14.06-9.05 14.06 9.05 14.06 9.05h.12l-5.17 5.17h-4.39v56.83l16.68 7.37 16.77 7.4v11.33l29.62 14.81v94.4H0V502.33h.61z" fill="#0e7bdd"/><g fill="#0460d9"><path d="M1413.67 654.04V521.5h-175.21v132.54h-47.39V530.09l-3.84-3.84h-7.68-61.42 0-2.62v74.38h7.66v-74.38h1.91v127.79h-1.91V608.3h-7.66v45.74h-1.91V608.3h-7.66v45.74h-1.91V608.3h-53.79v45.74h-1.91V608.3h-3.85v45.74h-1.91V608.3H929.8v45.74h-1.92V608.3h-3.84v45.74h-1.92V608.3h-53.31v45.74h-1.91V608.3h-7.66v45.74h-1.91V608.3h-7.66v45.74h-1.91V526.25h1.91v74.38h7.66v-74.38h-3.1-61.42 0-7.68l-3.84 3.84v123.95h-59.15l-5.1-8.92h-23.81v-7.79l-3.46-4.33 3.46-4.33v-33.26l10.69 12.47 1.13 1.32 3.95 4.62 1.13 1.32 3.95 4.62 1.13 1.32 3.95 4.62 1.13 1.32 1.13 1.32 8.26-8.26 1.22-1.22 8.27-8.27-1.29-1.16-1.29-1.16-4.5-4.07-1.29-1.16-4.51-4.06-1.29-1.16-4.51-4.06-1.29-1.16-27.36-24.69 26.88-23.03 1.32-1.13 4.62-3.95 1.32-1.13 4.62-3.95 1.32-1.13 4.62-3.95 1.32-1.13 1.32-1.13-8.26-8.26-1.22-1.22-8.27-8.27-1.16 1.29-1.16 1.29-4.07 4.5-1.16 1.29-4.06 4.51-1.16 1.29-4.06 4.51-1.16 1.29-23.62 26.18-23.62-26.18-1.16-1.29-4.06-4.51-1.16-1.29-4.06-4.51-1.16-1.29-4.07-4.5-1.16-1.29-1.16-1.29-8.27 8.27-1.22 1.22-8.26 8.26 1.32 1.13 1.32 1.13 4.62 3.95 1.32 1.13 4.62 3.95 1.32 1.13 4.62 3.95 1.32 1.13 26.88 23.03-27.36 24.69-1.29 1.16-4.51 4.06-1.29 1.16-4.51 4.06-1.29 1.16-4.5 4.07-1.29 1.16-1.29 1.16 8.27 8.27 1.22 1.22 8.26 8.26 1.13-1.32 1.13-1.32 3.95-4.62 1.13-1.32 3.95-4.62 1.13-1.32 3.95-4.62 1.13-1.32 10.69-12.47v33.26l3.46 4.33-3.46 4.33v7.79H642.6l-5.1 8.92H342.4v-22.52h.27a11.21 11.21 0 0 0 6.37 1.99c6.48 0 11.74-5.57 11.74-12.43 0-4.55-2.31-8.53-5.76-10.7 1.32-1.63 2.13-3.74 2.13-6.05 0-5.13-3.93-9.29-8.78-9.29-.5 0-.98.05-1.46.14 0-.13.02-.26.02-.4 0-3.71-2.84-6.72-6.34-6.72-2.18 0-4.11 1.17-5.25 2.95-1.47-1.57-3.5-2.55-5.76-2.55-4.47 0-8.1 3.84-8.1 8.58a8.84 8.84 0 0 0 2.08 5.73c-2.69 1.39-4.55 4.31-4.55 7.7 0 .15.04.28.04.43-.61-.21-1.26-.35-1.94-.35a5.8 5.8 0 0 0-4.16 1.74c-.83-1.21-2.22-2.01-3.8-2.01a4.59 4.59 0 0 0-4.59 4.58c0 .09 0 .18.01.27-.34-.06-.7-.09-1.06-.09-3.51 0-6.35 2.84-6.35 6.33 0 1.58.58 3.02 1.54 4.13-2.49 1.48-4.17 4.19-4.17 7.29a8.48 8.48 0 0 0 8.49 8.47c1.7 0 3.28-.5 4.61-1.36h.19v14.15L.01 654.01v66h1440v-65.96h-26.33zM312.94 642.27a4.58 4.58 0 0 0 2.02.47 4.59 4.59 0 0 0 4.59-4.58v-.07a4.18 4.18 0 0 0 .8.07 4.59 4.59 0 0 0 4.59-4.58c0-1.58-.81-2.98-2.03-3.8.3-.29.57-.61.81-.96a5.94 5.94 0 0 0 1.35.16 5.7 5.7 0 0 0 1.1-.11v.11c0 3.71 2.84 6.72 6.34 6.72a5.93 5.93 0 0 0 2.8-.7v19.03h-22.34v-11.77zm399.45-29.4l5.06-5.06 4.28 4.28-5.39 5.39-3.95-4.62zm9.04 10.55l-3.95-4.62 5.48-5.48 4.28 4.28-5.81 5.81zm12.85-12.86l-5.82 5.82-4.28-4.28 5.49-5.49 4.62 3.95zm-5.93-5.08l-5.4 5.4-4.28-4.28 5.07-5.07 4.62 3.95zm-10.55-9.04l4.62 3.95-4.97 4.97-4.28-4.28 4.64-4.64zm-5.86 5.86l4.28 4.28-4.97 4.97-3.95-4.62 4.64-4.64zm5.86-60.86l-4.64-4.64 4.28-4.29 4.97 4.97-4.62 3.95zm5.93-5.08l-5.06-5.06 4.28-4.29 5.39 5.39-4.62 3.95zm10.55-9.05l-4.62 3.95-5.48-5.48 4.28-4.28 5.81 5.81zm-12.85-12.85l5.82 5.82-4.28 4.29-5.49-5.49 3.95-4.62zm-5.09 5.93l5.4 5.4-4.28 4.28-5.07-5.07 3.95-4.62zm-5.09 5.93l4.97 4.97-4.28 4.28-4.64-4.64 3.95-4.62zm-64.03-1.31l-5.07 5.07-4.28-4.28 5.4-5.4 3.95 4.62zm-9.04-10.55l3.95 4.62-5.49 5.49-4.28-4.29 5.82-5.82zm-12.86 12.85l5.81-5.81 4.28 4.28-5.48 5.48-4.62-3.95zm5.93 5.09l5.39-5.39 4.28 4.29-5.06 5.06-4.62-3.95zm10.55 9.04l-4.62-3.95 4.97-4.97 4.28 4.29-4.64 4.64zm5.86-5.86l-4.28-4.28 4.97-4.97 3.95 4.62-4.64 4.64zm-5.86 60.86l4.64 4.64-4.28 4.28-4.97-4.97 4.62-3.95zm-5.93 5.08l5.07 5.07-4.28 4.28-5.4-5.4 4.62-3.95zm-10.55 9.04l4.62-3.95 5.49 5.49-4.28 4.28-5.82-5.82zm12.86 12.86l-5.81-5.81 4.28-4.28 5.48 5.48-3.95 4.62zm5.08-5.93l-5.39-5.39 4.28-4.28 5.06 5.06-3.95 4.62zm5.09-5.93l-4.97-4.97 4.28-4.28 4.64 4.64-3.95 4.62zm31.45-37.77c-.97 0-1.9-.28-2.69-.81l-22.65 22.65-1.35-1.35 22.65-22.65c-.53-.79-.81-1.72-.81-2.69s.28-1.9.81-2.69l-22.65-22.65 1.35-1.35 22.65 22.65c.79-.53 1.72-.81 2.69-.81s1.9.28 2.69.81l22.65-22.65 1.35 1.35-22.65 22.65c.53.79.81 1.72.81 2.69s-.28 1.9-.81 2.69l22.65 22.65-1.35 1.35-22.65-22.65c-.79.53-1.72.81-2.69.81zm161.21 53.23v27.02h-1.91v-25.11h-48.95v25.11h-1.91v-27.02h5.28v-52.79h-1.56c-1.1 0-2.14-.47-2.87-1.29s-1.07-1.91-.94-3l1.49-12.48c.23-1.93 1.87-3.38 3.81-3.38h3.42V552a3.79 3.79 0 0 1-2.13-1.55l-1.3-1.95 1.48-5.91a3.81 3.81 0 0 1 2.44-2.68v-13.66h1.91v13.44h2.88v-13.44h1.91v13.66a3.85 3.85 0 0 1 2.44 2.68l1.48 5.91-1.3 1.95c-.51.76-1.27 1.3-2.13 1.55v2.08h3.42c1.94 0 3.58 1.45 3.81 3.38l1.49 12.47c.13 1.09-.21 2.18-.94 3s-1.77 1.29-2.87 1.29h-1.56v52.79h13.44v-52.79h-1.56c-1.1 0-2.14-.47-2.87-1.29s-1.07-1.91-.94-3l1.49-12.48c.23-1.93 1.87-3.38 3.81-3.38h3.42v-2.08a3.79 3.79 0 0 1-2.13-1.55l-1.3-1.95 1.48-5.91a3.81 3.81 0 0 1 2.44-2.68v-13.66h1.91v13.44h2.88v-13.44h1.91v13.66a3.85 3.85 0 0 1 2.44 2.68l1.48 5.91-1.3 1.95c-.51.76-1.27 1.3-2.13 1.55v2.08h3.42c1.94 0 3.58 1.45 3.81 3.38l1.49 12.48c.13 1.09-.21 2.18-.94 3s-1.77 1.29-2.87 1.29h-1.56v52.79H841zm128.37 27.02h-23.03v-31.82h23.03v31.82zm28.31 0h-23.03v-31.82h23.03v31.82zm28.31 0h-23.03v-31.82H1026v31.82zm158.58-27.02v27.02h-1.91v-25.11h-48.95v25.11h-1.91v-27.02h5.28v-52.79h-1.56c-1.1 0-2.14-.47-2.87-1.29s-1.07-1.91-.94-3l1.49-12.48c.23-1.93 1.87-3.38 3.81-3.38h3.42V552a3.79 3.79 0 0 1-2.13-1.55l-1.3-1.95 1.48-5.91a3.81 3.81 0 0 1 2.44-2.68v-13.66h1.91v13.44h2.88v-13.44h1.91v13.66c1.18.42 2.12 1.41 2.43 2.68l1.48 5.91-1.3 1.95c-.5.76-1.27 1.3-2.13 1.55v2.08h3.42c1.94 0 3.58 1.45 3.81 3.38l1.49 12.47c.13 1.09-.21 2.18-.94 3s-1.77 1.29-2.87 1.29h-1.56v52.79h13.44v-52.79h-1.56c-1.1 0-2.14-.47-2.87-1.29s-1.07-1.91-.94-3h0l1.49-12.48c.23-1.93 1.87-3.38 3.81-3.38h3.42v-2.08a3.79 3.79 0 0 1-2.13-1.55l-1.3-1.95 1.48-5.91a3.81 3.81 0 0 1 2.44-2.68v-13.66h1.91v13.44h2.88v-13.44h1.91v13.66a3.85 3.85 0 0 1 2.44 2.68l1.48 5.91-1.3 1.95c-.5.76-1.27 1.3-2.13 1.55v2.08h3.42c1.94 0 3.58 1.45 3.81 3.38l1.49 12.47c.13 1.09-.21 2.18-.94 3s-1.77 1.29-2.87 1.29h-1.56V627h5.28zm198.45-93.9c9.87 0 10.7 10.54 10.71 10.65l-1.91.13c-.03-.36-.73-8.86-8.8-8.86s-8.41 8.83-8.42 9.21l-1.91-.05c.11-3.83 2.4-11.07 10.33-11.07zm5.3 11.09v24.62h-10.14v-24.62h.07c.35-2.45 2.44-4.34 5-4.34s4.64 1.89 5 4.34h.07zm-79.28 2.7c5.63-6.42 12.14-10.4 17.01-10.4s11.38 3.99 17.01 10.4c6.05 6.9 9.52 14.86 9.52 21.84 0 .21-.01.42-.02.63h-1.91c0-.21.02-.42.02-.63 0-14.44-15.91-30.33-24.62-30.33s-24.62 15.89-24.62 30.33c0 .21.01.42.01.63h-1.91c0-.21-.02-.42-.02-.63 0-6.98 3.47-14.94 9.52-21.84zm35.11 21.19c0-10-11.7-21-18.1-21s-18.1 11-18.1 21c0 7.74 4.87 14.33 11.7 16.91l-.95 1.68c-7.41-2.94-12.66-10.16-12.66-18.6 0-10.62 12.11-22.91 20.01-22.91s20.01 12.29 20.01 22.91c0 8.44-5.26 15.66-12.66 18.6l-.95-1.68c6.83-2.59 11.7-9.17 11.7-16.91zm-13.14 14.36l-3.29-5.82-1.67-2.95-1.67 2.95-3.29 5.82c-5.96-2.06-10.25-7.7-10.25-14.36 0-8.4 6.81-15.2 15.2-15.2a15.21 15.21 0 0 1 15.2 15.2c0 6.66-4.29 12.3-10.25 14.36zm-62.88-49.34c9.87 0 10.7 10.54 10.71 10.65l-1.91.13c-.03-.36-.73-8.86-8.8-8.86s-8.41 8.83-8.42 9.21l-1.91-.05c.11-3.83 2.4-11.07 10.33-11.07zm5.07 11.09v24.62h-10.14v-24.62h.07c.35-2.45 2.44-4.34 5-4.34s4.64 1.89 5 4.34h.07zm0 109.83h-10.14v-27.71h10.14v27.71zm4.34 0h-1.91v-33.95l-.04-.38c-.41-3.82-5.19-6.98-7.46-6.98s-7.04 3.16-7.46 6.98l-.04.38v33.95h-1.91v-34.53h.05c.53-4.86 6.19-8.69 9.36-8.69s8.83 3.83 9.36 8.69h.05v34.53zm4.35 0h-1.91v-42.7l-6.61-11.13-5.23-8.81-5.23 8.81-6.61 11.13v42.7h-1.91v-43.22l6.88-11.58 5.92-9.97v-6.45h-3.39v-1.91h3.39v-4.84h1.91v4.84h3.39v1.91h-3.39v6.45l5.92 9.97 6.88 11.58v43.22zm41.99 0h-10.14v-27.71h10.14v27.71zm14.48 0h-10.14v-27.71h10.14v27.71zm6.52 0h-1.91v-27.29c0-14.53-11.27-25.6-16.91-25.6s-16.91 11.07-16.91 25.6v27.29h-1.91v-27.29c0-15.2 11.64-27.51 18.82-27.51s18.82 12.32 18.82 27.51v27.29zm9.41-41.77v41.77h-1.93l-.04-39.86h-6.6l-.48-1.21c-2.06-5.23-5.26-10.08-9.02-13.68l-.2-.2-.14-.25-5.7-10.08-4.13-7.3-4.13 7.3-5.7 10.08-.14.25-.2.2c-3.76 3.59-6.96 8.45-9.02 13.68l-.48 1.21h-6.6l-.04 39.86h-1.93v-47.57l1.45-12.31 1.45-12.31 1.45 12.31 1.45 12.31v5.79h1.48c2.3-5.83 5.76-10.8 9.48-14.36l5.7-10.08 5.79-10.25 5.79 10.25 5.7 10.08c3.72 3.56 7.18 8.52 9.48 14.36h1.48v-5.79l1.45-12.31 1.45-12.31 1.45 12.31 1.45 12.31v5.79zm34.03 41.77h-10.14v-27.71h10.14v27.71zm4.34 0h-1.91v-33.95l-.04-.38c-.41-3.82-5.19-6.98-7.46-6.98s-7.04 3.16-7.46 6.98l-.04.38v33.95h-1.91v-34.53h.05c.53-4.86 6.19-8.69 9.36-8.69s8.83 3.83 9.36 8.69h.05v34.53zm4.35 0h-1.91v-42.7l-6.61-11.13-5.23-8.81-5.23 8.81-6.61 11.13v42.7h-1.91v-43.22l6.88-11.58 5.92-9.97v-6.45h-3.39v-1.91h3.39v-4.84h1.91v4.84h3.39v1.91h-3.39v6.45l5.92 9.97 6.88 11.58v43.22zM679.8 566c-.78 0-1.52.31-2.08.86-.55.56-.86 1.29-.86 2.08s.31 1.52.86 2.08c1.11 1.11 3.05 1.11 4.16 0 .55-.56.86-1.29.86-2.08s-.31-1.52-.86-2.08c-.55-.55-1.29-.86-2.08-.86zm728.08-155.01h0v-7.24l-1.81-17.54-1.81-17.54-1.81 17.54-1.81 17.54v-13.03h0l-.11-.97-11.11-14.54-5.44-22.43-5.43 22.43-11.11 14.54-.11.97v13.03l-1.81-17.54-1.81-17.54-1.81 17.54-1.81 17.54v7.24 12.07h47.79v-12.07zm-115.85 0v-7.24l-1.81-17.54-1.81-17.54-1.81 17.54-1.81 17.54v-13.03l-.11-.97-11.1-14.54-5.44-22.43-5.44 22.43-11.1 14.54-.11.97v13.03l-1.81-17.54-1.81-17.54-1.81 17.54-1.81 17.54v7.24 12.07h47.78v-12.07zm62.3 108.6h59.34v-20.76h-71.18l11.3 19.82.54.94zm-28.27 0h26.07l-11.84-20.76h0l-1.2-2.1-11.58-20.32v-8.95h3.62v-2.89h-3.62v-4.35h-2.9v4.35h-3.62v2.89h3.62v8.95l-11.58 20.32-1.2 2.1h0L1300 519.59h26.06zm-27.72-.94l11.29-19.82h-71.17v20.76h59.34l.54-.94zm-3.41-30.91V444.3l-2.9-10.14v-9.18h-47.79v9.18l-2.9 10.14v43.44l-2.62 9.18h58.82l-2.62-9.18zm-28.96 0h-10.14v-37.65c0-2.37 1.01-4.47 2.29-5.79.88-.91 1.88-1.45 2.78-1.45s1.9.54 2.78 1.45c1.28 1.32 2.29 3.42 2.29 5.79v37.65zm14.48 0h-10.14v-37.65c0-2.37 1.01-4.47 2.29-5.79.88-.91 1.88-1.45 2.78-1.45s1.9.54 2.78 1.45c1.28 1.32 2.29 3.42 2.29 5.79v37.65zm-19.51-113.37l6.27-25.87.93-3.85 7.2 29.72 8.92 11.68-13.95-122.76v-1.45h4.35v-4.35h-4.35v-7.24h-4.34v7.24h-4.35v4.35h4.35v1.45h0l-13.95 122.76 8.92-11.68zm149.83 113.37V444.3l-2.9-10.14v-9.18h-47.79v9.18l-2.9 10.14v43.44l-2.62 9.18h58.82l-2.62-9.18zm-29.68 0h-10.14v-37.65c0-2.37 1.01-4.47 2.29-5.79.88-.91 1.88-1.45 2.78-1.45s1.9.54 2.78 1.45c1.28 1.32 2.29 3.42 2.29 5.79v37.65zm14.48 0h-10.14v-37.65c0-2.37 1.01-4.47 2.29-5.79.88-.91 1.88-1.45 2.78-1.45s1.9.54 2.78 1.45c1.28 1.32 2.29 3.42 2.29 5.79v37.65z"/><path d="M1367.86 386.05l8.92-11.68 6.08-25.08h0l1.12-4.63 7.2 29.71 8.93 11.68-13.95-122.76v-1.45h4.34v-4.35h-4.34v-7.24h-4.35v7.24h-4.34v4.35h4.34v1.45l-13.95 122.76zM924.03 602.54h3.84v3.84h-3.84zm120.44 0h3.84v3.84h-3.84zm0-1.91h3.84v-56.95c-.18-32.36-28.06-58.69-62.14-58.69s-61.96 26.3-62.14 58.62v57.03h3.84V543.6c.17-30.18 26.32-54.77 58.3-54.77s58.13 24.62 58.29 54.88v56.92zm-58.3-109.89c-30.92 0-56.22 23.72-56.38 52.86v57.03h112.76v-56.92c-.17-29.2-25.46-52.97-56.38-52.97zm32.63 19.47c2.62 2.22 4.97 4.71 7.03 7.41h-7.03v-7.41zm0 9.32h8.41c3.88 5.68 6.46 12.2 7.33 19.2h-15.74v-19.2zm0 21.12h15.93c.08 1.03.14 2.06.14 3.11v16.09h-16.07v-19.2zm0 21.11h16.08v19.2h-16.08v-19.2zm-65.26 32.63h-16.08v-11.52h16.08v11.52zm0-13.43h-16.08v-19.2h16.08v19.2zm0-21.12h-16.08V543.6c0-.99.06-1.98.13-2.96h15.94v19.2zm0-21.11h-15.76c.85-7 3.42-13.52 7.3-19.2h8.46v19.2zm0-21.11h-7.08c2.07-2.71 4.44-5.22 7.08-7.44v7.44zm21.12 76.77h-19.2v-11.52h19.2v11.52zm0-13.43h-19.2v-19.2h19.2v19.2zm0-21.12h-19.2v-19.2h19.2v19.2zm0-21.11h-19.2v-19.2h19.2v19.2zm0-21.11h-19.2v-8.98c5.53-4.21 12.06-7.3 19.2-8.93v17.9zm21.11 76.77h-19.2v-11.52h19.2v11.52zm0-13.43h-19.2v-19.2h19.2v19.2zm0-21.12h-19.2v-19.2h19.2v19.2zm0-21.11h-19.2v-19.2h19.2v19.2zm0-21.11h-19.2v-18.31c3.11-.58 6.31-.89 9.6-.89s6.49.31 9.6.9v18.3zm21.11 76.77h-19.2v-11.52h19.2v11.52zm0-13.43h-19.2v-19.2h19.2v19.2zm0-21.12h-19.2v-19.2h19.2v19.2zm0-21.11h-19.2v-19.2h19.2v19.2zm0-21.11h-19.2v-17.9c7.14 1.63 13.67 4.74 19.2 8.96v8.94zm1.92 76.77v-11.52h16.08v11.52h-16.08zm31.43 8.15h72.94v3.84h-72.94zm-120.44 0h112.76v3.84H929.79zm-80.14 0h72.46v3.84h-72.46zm329.9-90.68h-6.24v-3.84h-5.76v-3.84h-37.43v3.84h-5.76v3.84h-6.24v12.48h61.42v-12.48zm-46.79 12.47h-1.91v-12.48h1.91v12.48zm4.8 0h-1.91v-12.48h1.91v12.48zm21.11 0h-1.91v-12.48h1.91v12.48zm4.8 0h-1.91v-12.48h1.91v12.48zm-296.58 1.92h1.91v74.38h53.31v-57.04c.19-33.37 28.92-60.53 64.05-60.53s63.87 27.19 64.05 60.61v56.95h53.8v-74.38h1.91v74.38h7.66v-74.38h-6.74s-10.58-7.75-13.42-35.51c-.23-2.3-.58-4.32-5.82-7.2s-15.66-13.46-20-25.43c-.59-1.62-.59-3.36-5.39-4.32s-20.63-5.28-29.27-17.75c-.92-1.32-2.4-3.36-7.2-4.32s-22.53.79-34.55-6.72c-.37-.23-1.06-.76-1.44-.96-1.23-.65-2.5-.68-3.6-.65-1.09-.03-2.37 0-3.6.65-.38.2-1.07.73-1.44.96-12.02 7.51-29.75 5.76-34.55 6.72s-6.28 3-7.2 4.32c-8.64 12.48-24.47 16.79-29.27 17.75s-4.8 2.7-5.39 4.32c-4.34 11.97-14.76 22.55-20 25.43s-5.58 4.9-5.82 7.2c-2.83 27.75-13.42 35.51-13.42 35.51h-6.26v74.38h7.66v-74.38zm210.21 74.18V543.6c-.23-48.19-41.02-87.41-90.93-87.41s-90.71 39.18-90.93 87.35v56.89h-1.92v-56.9c.23-49.21 41.88-89.25 92.85-89.25s92.62 40.07 92.84 89.32v56.83h-1.91zm3.84 0v-56.85c-.24-50.3-42.75-91.23-94.77-91.23s-94.53 40.91-94.77 91.18v56.89h-1.92v-56.9c.24-51.32 43.61-93.09 96.69-93.09s96.44 41.78 96.68 93.14v56.85h-1.91zm3.84 0v-56.86c-.24-52.41-44.48-95.05-98.61-95.05s-98.36 42.63-98.61 95.02v56.89h-1.92v-56.9c.25-53.44 45.34-96.93 100.52-96.93s100.27 43.5 100.52 96.96v56.86h-1.91zm3.84 0v-56.88c-.25-54.51-46.21-98.87-102.45-98.87s-102.19 44.35-102.44 98.86v56.89h-1.92v-56.9c.26-55.56 47.07-100.77 104.36-100.77s104.1 45.21 104.36 100.79v56.88h-1.91zm-210.65-56.9c.27-57.82 48.6-104.61 108.2-104.61s107.93 46.79 108.2 104.61v56.9h-1.91v-56.9c-.26-56.62-47.94-102.69-106.29-102.69s-106.02 46.07-106.28 102.7v56.89h-1.92v-56.9zm-67.07 28.14a1.88 1.88 0 0 0 .47-1.5l-1.49-12.48c-.12-.97-.94-1.69-1.91-1.69h-5.34v-5.73l.92-.03c.62-.02 1.19-.34 1.53-.85l.83-1.24-1.27-5.09c-.21-.86-.98-1.46-1.86-1.46h-4.14c-.88 0-1.65.6-1.86 1.46l-1.27 5.08.83 1.24c.34.51.91.82 1.53.84l.92.03v5.73h-5.34a1.93 1.93 0 0 0-1.91 1.69l-1.49 12.48a1.87 1.87 0 0 0 .47 1.5 1.89 1.89 0 0 0 1.44.65h17.51a1.89 1.89 0 0 0 1.44-.65zm371.4 0a1.88 1.88 0 0 0 .47-1.5l-1.49-12.48c-.12-.97-.94-1.69-1.91-1.69h-5.34v-5.73l.92-.03a1.93 1.93 0 0 0 1.53-.84l.83-1.24-1.27-5.09c-.21-.86-.98-1.46-1.86-1.46h-4.14c-.88 0-1.65.6-1.86 1.46l-1.27 5.08.83 1.24c.34.51.91.82 1.53.84l.92.03v5.73h-5.34a1.93 1.93 0 0 0-1.91 1.69l-1.49 12.47c-.07.55.1 1.09.47 1.51a1.89 1.89 0 0 0 1.44.65h17.51a1.89 1.89 0 0 0 1.44-.65z"/><use href="#H"/><path d="M1139 574.23h10.56v52.79H1139z"/><use href="#H" x="-343.57"/><path d="M1154.47,571.67c.37-.42.54-.95.47-1.5l-1.49-12.48c-.12-.97-.94-1.69-1.91-1.69h-5.34v-5.73l.92-.03c.62-.02,1.2-.34,1.53-.84l.83-1.24-1.27-5.09c-.21-.86-.98-1.46-1.86-1.46h-4.14c-.88,0-1.65.6-1.86,1.46l-1.27,5.09.83,1.24c.34.51.91.82,1.53.84l.92.03v5.73h-5.34c-.97,0-1.79.73-1.91,1.69l-1.49,12.48c-.07.55.1,1.09.47,1.5.37.42.88.65,1.44.65h17.51c.56,0,1.07-.23,1.44-.65Z"/><use href="#H" x="-371.4"/><path d="M838.73 571.67a1.88 1.88 0 0 0 .47-1.5l-1.49-12.48c-.12-.97-.94-1.69-1.91-1.69h-5.34v-5.73l.92-.03c.62-.02 1.19-.34 1.53-.85l.83-1.24-1.27-5.09c-.21-.86-.98-1.46-1.86-1.46h-4.14c-.88 0-1.65.6-1.86 1.46l-1.27 5.09.83 1.24c.34.51.91.82 1.53.84l.92.03v5.73h-5.34a1.93 1.93 0 0 0-1.91 1.69l-1.49 12.48a1.87 1.87 0 0 0 .47 1.5 1.89 1.89 0 0 0 1.44.65h17.5a1.89 1.89 0 0 0 1.44-.65zm15.48-59.81h-6.24v-3.84h-5.76v-3.84h-37.43v3.84h-5.76v3.84h-6.24v12.48h61.42v-12.48zm-42.95 12.47h-1.91v-12.48h1.91v12.48zm4.8 0h-1.91v-12.48h1.91v12.48zm21.12 0h-1.91v-12.48h1.91v12.48zm4.8 0h-1.91v-12.48h1.91v12.48z"/></g></svg>