<?xml version="1.0" encoding="utf-8"?>
<!-- Generator: Adobe Illustrator 28.3.0, SVG Export Plug-In . SVG Version: 6.00 Build 0)  -->
<svg version="1.1" id="Layer_1" xmlns="http://www.w3.org/2000/svg" xmlns:xlink="http://www.w3.org/1999/xlink" x="0px" y="0px"
	 viewBox="0 0 158 63" style="enable-background:new 0 0 158 63;" xml:space="preserve">
<style type="text/css">
	.st0{fill:#FFFFFF;}
</style>
<g>
	<g>
		<g>
			<path class="st0" d="M1.06,47.08v-2.34h1.16c0.01,0.43,0.13,0.74,0.34,0.94c0.21,0.2,0.45,0.3,0.72,0.3
				c0.21,0,0.39-0.07,0.53-0.22s0.22-0.32,0.22-0.52c0-0.21-0.07-0.39-0.21-0.53c-0.14-0.14-0.4-0.31-0.77-0.49
				c-0.79-0.38-1.33-0.72-1.61-1.01C1.14,42.93,1,42.54,1,42.04c0-0.6,0.18-1.06,0.56-1.39c0.38-0.33,0.8-0.49,1.28-0.49
				c0.54,0,0.97,0.21,1.27,0.64v-0.57h1.16v2.08H4.11c-0.03-0.32-0.15-0.57-0.33-0.75c-0.18-0.17-0.4-0.26-0.65-0.26
				c-0.19,0-0.35,0.05-0.48,0.15c-0.13,0.1-0.2,0.23-0.2,0.4c0,0.14,0.05,0.28,0.16,0.4c0.11,0.13,0.43,0.31,0.95,0.54
				c0.51,0.22,0.89,0.43,1.17,0.61c0.27,0.18,0.49,0.42,0.64,0.71c0.16,0.29,0.24,0.63,0.24,1.01c0,0.68-0.2,1.19-0.59,1.53
				c-0.39,0.34-0.86,0.51-1.4,0.51c-0.6,0-1.06-0.22-1.39-0.67v0.58C2.23,47.08,1.06,47.08,1.06,47.08z"/>
			<path class="st0" d="M6.5,47.08v-1.16h0.86v-4.54H6.5v-1.16h3.31v1.16H9.09v1.5h1.87v-1.5h-0.69v-1.16h3.29v1.16h-0.86v4.54h0.86
				v1.16h-3.29v-1.16h0.69v-1.87H9.09v1.87h0.72v1.16H6.5z"/>
			<path class="st0" d="M21.16,45.92v1.16H17.8v-1.16h0.87l-0.33-1.18h-1.78l-0.36,1.18h0.92v1.16h-3.03v-1.16h0.85l1.34-4.54h-0.91
				v-1.16h4.48v1.16h-0.92l1.44,4.54C20.35,45.92,21.16,45.92,21.16,45.92z M18.06,43.74l-0.57-2.07l-0.62,2.07H18.06L18.06,43.74z"
				/>
			<path class="st0" d="M21.74,47.08v-1.16h0.84v-4.54h-0.84v-1.16h3.13c0.69,0,1.21,0.04,1.55,0.12c0.34,0.08,0.63,0.28,0.87,0.59
				c0.25,0.31,0.37,0.68,0.37,1.09c0,0.67-0.32,1.14-0.97,1.41c0.82,0.31,1.23,0.85,1.23,1.64c0,0.45-0.13,0.84-0.38,1.17
				c-0.25,0.33-0.58,0.54-0.99,0.66c-0.4,0.12-0.97,0.17-1.69,0.17L21.74,47.08L21.74,47.08z M24.37,42.93h0.5
				c0.35,0,0.6-0.06,0.77-0.17c0.17-0.12,0.25-0.33,0.25-0.63c0-0.27-0.08-0.47-0.24-0.58s-0.44-0.17-0.84-0.17h-0.44
				C24.37,41.38,24.37,42.93,24.37,42.93z M24.37,45.92h0.5c0.46,0,0.77-0.07,0.96-0.2c0.18-0.13,0.27-0.36,0.27-0.69
				c0-0.33-0.1-0.59-0.29-0.73c-0.19-0.14-0.51-0.21-0.93-0.21h-0.5L24.37,45.92L24.37,45.92z"/>
			<path class="st0" d="M28.73,41.38v-1.16H32v1.16h-0.68v3.1c0,0.41,0.02,0.71,0.05,0.89s0.13,0.33,0.27,0.45
				c0.15,0.12,0.34,0.17,0.56,0.17c0.23,0,0.43-0.05,0.58-0.17c0.16-0.11,0.25-0.25,0.3-0.42c0.04-0.17,0.07-0.51,0.07-1.03v-3.01
				H32.5v-1.16h2.73v1.16h-0.84v3.43c0,0.47-0.02,0.81-0.07,1.02c-0.05,0.21-0.16,0.42-0.34,0.63c-0.17,0.21-0.43,0.38-0.77,0.51
				c-0.34,0.13-0.72,0.19-1.16,0.19c-0.51,0-0.94-0.07-1.29-0.21c-0.35-0.14-0.62-0.33-0.8-0.57s-0.29-0.47-0.34-0.7
				c-0.05-0.23-0.07-0.63-0.07-1.19v-3.1L28.73,41.38L28.73,41.38z"/>
			<path class="st0" d="M35.56,49.06v-1.24c0.19,0.06,0.36,0.08,0.51,0.08c0.27,0,0.47-0.08,0.59-0.23c0.12-0.15,0.17-0.42,0.17-0.8
				v-5.5h-1.02v-1.16h3.73v1.16h-0.93v5.56c0,0.76-0.18,1.33-0.55,1.69c-0.37,0.36-0.86,0.55-1.48,0.55
				C36.27,49.19,35.93,49.15,35.56,49.06L35.56,49.06z"/>
			<path class="st0" d="M47.59,44.78v-1.16h3.21c0,0.83-0.15,1.49-0.45,1.98s-0.74,0.87-1.31,1.15c-0.57,0.28-1.21,0.42-1.93,0.42
				c-1.24,0-2.19-0.33-2.85-1c-0.66-0.67-0.99-1.51-0.99-2.53c0-0.71,0.17-1.34,0.49-1.88c0.33-0.54,0.77-0.95,1.33-1.23
				c0.55-0.28,1.16-0.41,1.81-0.41c0.92,0,1.64,0.22,2.15,0.67v-0.56h1.16v2.43h-1.16c-0.12-0.41-0.36-0.73-0.72-0.97
				c-0.36-0.24-0.75-0.35-1.16-0.35c-0.54,0-1.01,0.19-1.39,0.58s-0.58,0.92-0.58,1.6c0,0.78,0.19,1.38,0.59,1.79
				c0.39,0.41,0.87,0.61,1.43,0.61c0.41,0,0.76-0.1,1.03-0.3c0.27-0.2,0.46-0.48,0.57-0.84H47.59L47.59,44.78z"/>
			<path class="st0" d="M51.8,47.08v-1.16h0.98v-4.54H51.8v-1.16h3.76v1.16h-1v4.54h2.03V43.8h1.34v3.28H51.8z"/>
			<path class="st0" d="M62.6,40.12c1.18,0,2.11,0.34,2.79,1.03c0.68,0.69,1.02,1.52,1.02,2.5c0,0.98-0.34,1.82-1.02,2.5
				c-0.68,0.68-1.61,1.02-2.79,1.02c-1.18,0-2.17-0.35-2.82-1.05c-0.66-0.7-0.99-1.53-0.99-2.47s0.34-1.81,1.01-2.49
				C60.47,40.47,61.4,40.13,62.6,40.12L62.6,40.12z M62.6,41.37c-0.52,0-0.97,0.2-1.34,0.59c-0.36,0.39-0.55,0.97-0.55,1.74
				c0,0.68,0.18,1.21,0.54,1.62c0.36,0.4,0.81,0.61,1.35,0.61s0.97-0.2,1.34-0.59c0.37-0.39,0.55-0.97,0.55-1.71
				c0-0.67-0.17-1.21-0.52-1.62C63.62,41.58,63.16,41.37,62.6,41.37L62.6,41.37z"/>
			<path class="st0" d="M67.5,47.08v-1.16h0.84v-4.54H67.5v-1.16h3.13c0.69,0,1.21,0.04,1.55,0.12c0.34,0.08,0.63,0.28,0.87,0.59
				c0.25,0.31,0.37,0.68,0.37,1.09c0,0.67-0.32,1.14-0.97,1.41c0.82,0.31,1.23,0.85,1.23,1.64c0,0.45-0.13,0.84-0.38,1.17
				c-0.25,0.33-0.58,0.54-0.99,0.66c-0.4,0.12-0.97,0.17-1.69,0.17L67.5,47.08L67.5,47.08z M70.12,42.93h0.5
				c0.35,0,0.6-0.06,0.77-0.17s0.25-0.33,0.25-0.63c0-0.27-0.08-0.47-0.24-0.58c-0.16-0.11-0.44-0.17-0.84-0.17h-0.44L70.12,42.93
				L70.12,42.93z M70.12,45.92h0.5c0.46,0,0.77-0.07,0.96-0.2c0.18-0.13,0.27-0.36,0.27-0.69c0-0.33-0.1-0.59-0.29-0.73
				c-0.19-0.14-0.51-0.21-0.93-0.21h-0.5L70.12,45.92L70.12,45.92z"/>
			<path class="st0" d="M81.52,45.92v1.16h-3.37v-1.16h0.87l-0.33-1.18h-1.78l-0.36,1.18h0.92v1.16h-3.03v-1.16h0.85l1.34-4.54
				h-0.91v-1.16h4.48v1.16h-0.92l1.44,4.54L81.52,45.92L81.52,45.92z M78.41,43.74l-0.57-2.07l-0.62,2.07H78.41L78.41,43.74z"/>
			<path class="st0" d="M82.04,47.08v-1.16h0.98v-4.54h-0.98v-1.16h3.76v1.16h-1v4.54h2.03V43.8h1.34v3.28H82.04z"/>
			<path class="st0" d="M91.64,47.08v-1.16h0.82v-4.54h-0.82v-1.16h6.04v2.17h-1.31v-1.02h-2.12v1.58h1.72v1.16h-1.72v1.8h2.12
				v-1.03h1.31v2.18L91.64,47.08L91.64,47.08z"/>
			<path class="st0" d="M98.52,47.08v-1.16h1.04v-4.54h-1.04v-1.16h3.25c0.69,0,1.23,0.04,1.65,0.13c0.42,0.08,0.82,0.27,1.2,0.55
				c0.38,0.29,0.69,0.67,0.92,1.16c0.23,0.48,0.35,1.02,0.35,1.61c0,0.48-0.08,0.93-0.24,1.36c-0.16,0.43-0.36,0.78-0.6,1.04
				c-0.24,0.26-0.52,0.48-0.86,0.63c-0.33,0.16-0.64,0.26-0.91,0.3c-0.28,0.04-0.7,0.07-1.29,0.07L98.52,47.08L98.52,47.08z
				 M101.34,45.92h0.43c0.52,0,0.93-0.07,1.23-0.2c0.31-0.14,0.55-0.37,0.73-0.71c0.18-0.34,0.28-0.78,0.28-1.33
				s-0.09-0.97-0.28-1.33c-0.18-0.36-0.44-0.62-0.75-0.75c-0.32-0.14-0.72-0.21-1.21-0.21h-0.43L101.34,45.92L101.34,45.92z"/>
			<path class="st0" d="M106.81,41.38v-1.16h3.27v1.16h-0.68v3.1c0,0.41,0.02,0.71,0.05,0.89c0.03,0.18,0.13,0.33,0.27,0.45
				c0.15,0.12,0.34,0.17,0.56,0.17c0.23,0,0.43-0.05,0.58-0.17c0.16-0.11,0.25-0.25,0.3-0.42c0.04-0.17,0.07-0.51,0.07-1.03v-3.01
				h-0.67v-1.16h2.73v1.16h-0.84v3.43c0,0.47-0.02,0.81-0.07,1.02c-0.05,0.21-0.16,0.42-0.34,0.63c-0.17,0.21-0.43,0.38-0.77,0.51
				c-0.34,0.13-0.72,0.19-1.16,0.19c-0.51,0-0.94-0.07-1.29-0.21c-0.35-0.14-0.62-0.33-0.8-0.57s-0.29-0.47-0.34-0.7
				c-0.05-0.23-0.07-0.63-0.07-1.19v-3.1L106.81,41.38L106.81,41.38z"/>
			<path class="st0" d="M119.87,40.23h1.16v2.42h-1.16c-0.33-0.87-0.9-1.3-1.71-1.3c-0.67,0-1.18,0.23-1.52,0.69
				c-0.35,0.46-0.52,1-0.52,1.64c0,0.64,0.18,1.21,0.54,1.62c0.36,0.41,0.83,0.62,1.39,0.62c0.46,0,0.86-0.16,1.21-0.47
				c0.35-0.31,0.58-0.74,0.7-1.3l1.35,0.64c-0.51,1.59-1.64,2.39-3.38,2.39c-1.23,0-2.16-0.33-2.78-1c-0.63-0.67-0.94-1.5-0.94-2.52
				c0-0.72,0.16-1.36,0.49-1.9c0.33-0.54,0.76-0.95,1.31-1.22s1.15-0.41,1.81-0.41c0.82,0,1.5,0.21,2.06,0.64L119.87,40.23
				L119.87,40.23z"/>
			<path class="st0" d="M128.69,45.92v1.16h-3.37v-1.16h0.87l-0.33-1.18h-1.78l-0.36,1.18h0.92v1.16h-3.03v-1.16h0.85l1.34-4.54
				h-0.91v-1.16h4.48v1.16h-0.92l1.44,4.54L128.69,45.92L128.69,45.92z M125.59,43.74l-0.57-2.07l-0.62,2.07H125.59L125.59,43.74z"
				/>
			<path class="st0" d="M130.12,47.08v-1.16h1.03v-4.54h-1.03v1.59h-1.18v-2.76h6.21v2.76h-1.16v-1.59h-1.06v4.54h1.03v1.16H130.12
				L130.12,47.08z"/>
			<path class="st0" d="M135.93,47.08v-1.16h1.04v-4.54h-1.04v-1.16h3.87v1.16h-1.05v4.54h1.05v1.16H135.93z"/>
			<path class="st0" d="M144.58,40.12c1.18,0,2.11,0.34,2.79,1.03c0.68,0.69,1.02,1.52,1.02,2.5c0,0.98-0.34,1.82-1.02,2.5
				c-0.68,0.68-1.61,1.02-2.79,1.02s-2.17-0.35-2.82-1.05c-0.66-0.7-0.99-1.53-0.99-2.47s0.34-1.81,1.01-2.49
				C142.45,40.47,143.38,40.13,144.58,40.12L144.58,40.12z M144.58,41.37c-0.52,0-0.97,0.2-1.34,0.59
				c-0.36,0.39-0.55,0.97-0.55,1.74c0,0.68,0.18,1.21,0.54,1.62c0.36,0.4,0.81,0.61,1.35,0.61c0.53,0,0.97-0.2,1.34-0.59
				c0.37-0.39,0.55-0.97,0.55-1.71c0-0.67-0.17-1.21-0.52-1.62C145.6,41.58,145.14,41.37,144.58,41.37L144.58,41.37z"/>
			<path class="st0" d="M149.41,47.08v-1.16h0.92v-4.54h-0.92v-1.16h2.88l2.52,4.27v-3.12h-0.89v-1.16H157v1.16h-0.96v5.74h-1.53
				l-2.95-5.08v3.87h0.86v1.16L149.41,47.08L149.41,47.08z"/>
		</g>
		<g>
			<path class="st0" d="M22.22,55.63l-1.32-5.22h0.71l0.62,2.64c0.16,0.65,0.3,1.3,0.39,1.8h0.01c0.09-0.52,0.25-1.14,0.43-1.81
				l0.69-2.63h0.7l0.64,2.65c0.15,0.62,0.29,1.24,0.36,1.79h0.01c0.11-0.57,0.26-1.15,0.42-1.8l0.69-2.63h0.69l-1.48,5.22h-0.7
				l-0.66-2.72c-0.16-0.67-0.27-1.18-0.34-1.7h-0.01c-0.09,0.52-0.21,1.03-0.4,1.7l-0.74,2.72L22.22,55.63L22.22,55.63z"/>
			<path class="st0" d="M31.41,53.72c0,1.39-0.96,1.99-1.87,1.99c-1.02,0-1.8-0.74-1.8-1.93c0-1.25,0.82-1.99,1.86-1.99
				S31.41,52.57,31.41,53.72L31.41,53.72z M28.44,53.76c0,0.82,0.47,1.44,1.14,1.44c0.67,0,1.14-0.61,1.14-1.46
				c0-0.64-0.32-1.44-1.12-1.44S28.44,53.05,28.44,53.76z"/>
			<path class="st0" d="M32.66,53.05c0-0.44-0.01-0.82-0.03-1.17h0.6l0.02,0.73h0.03c0.17-0.51,0.58-0.82,1.04-0.82
				c0.08,0,0.13,0.01,0.19,0.02v0.64c-0.07-0.01-0.14-0.02-0.23-0.02c-0.48,0-0.82,0.36-0.91,0.87c-0.01,0.09-0.03,0.2-0.03,0.32v2
				h-0.68L32.66,53.05L32.66,53.05z"/>
			<path class="st0" d="M35.61,50.13h0.68v5.5h-0.68V50.13z"/>
			<path class="st0" d="M41.06,50.13v4.53c0,0.33,0.01,0.71,0.03,0.97h-0.61l-0.03-0.65h-0.01c-0.21,0.42-0.67,0.73-1.28,0.73
				c-0.9,0-1.6-0.77-1.6-1.91c-0.01-1.25,0.77-2.01,1.68-2.01c0.57,0,0.96,0.27,1.13,0.57h0.01v-2.24
				C40.38,50.13,41.06,50.13,41.06,50.13z M40.38,53.41c0-0.08-0.01-0.2-0.03-0.29c-0.1-0.43-0.47-0.79-0.98-0.79
				c-0.7,0-1.12,0.62-1.12,1.45c0,0.76,0.37,1.39,1.11,1.39c0.46,0,0.87-0.3,1-0.81c0.02-0.09,0.03-0.18,0.03-0.29L40.38,53.41
				L40.38,53.41z"/>
			<path class="st0" d="M42.85,51.88l0.5,1.91c0.11,0.42,0.21,0.81,0.28,1.19h0.02c0.09-0.38,0.21-0.78,0.34-1.19l0.61-1.91h0.57
				l0.58,1.87c0.14,0.45,0.25,0.85,0.34,1.22h0.02c0.06-0.38,0.16-0.77,0.29-1.21l0.53-1.88h0.68l-1.21,3.75h-0.62l-0.57-1.79
				c-0.13-0.42-0.24-0.79-0.34-1.23h-0.01c-0.09,0.45-0.21,0.84-0.34,1.24l-0.6,1.78h-0.62l-1.13-3.75L42.85,51.88L42.85,51.88z"/>
			<path class="st0" d="M49.42,50.83c0.01,0.23-0.16,0.42-0.43,0.42c-0.24,0-0.41-0.18-0.41-0.42s0.18-0.43,0.43-0.43
				S49.42,50.59,49.42,50.83L49.42,50.83z M48.66,55.63v-3.75h0.68v3.75H48.66z"/>
			<path class="st0" d="M54.1,50.13v4.53c0,0.33,0.01,0.71,0.03,0.97h-0.61l-0.03-0.65h-0.01c-0.21,0.42-0.67,0.73-1.28,0.73
				c-0.9,0-1.6-0.77-1.6-1.91c-0.01-1.25,0.77-2.01,1.68-2.01c0.57,0,0.96,0.27,1.13,0.57h0.01v-2.24
				C53.42,50.13,54.1,50.13,54.1,50.13z M53.41,53.41c0-0.08-0.01-0.2-0.03-0.29c-0.1-0.43-0.47-0.79-0.98-0.79
				c-0.7,0-1.12,0.62-1.12,1.45c0,0.76,0.37,1.39,1.11,1.39c0.46,0,0.87-0.3,1-0.81c0.02-0.09,0.03-0.18,0.03-0.29L53.41,53.41
				L53.41,53.41z"/>
			<path class="st0" d="M56,53.88c0.01,0.92,0.6,1.3,1.28,1.3c0.49,0,0.78-0.09,1.04-0.19l0.12,0.49c-0.24,0.11-0.65,0.23-1.25,0.23
				c-1.15,0-1.84-0.76-1.84-1.89s0.67-2.02,1.76-2.02c1.22,0,1.55,1.08,1.55,1.76c0,0.14-0.01,0.25-0.02,0.32L56,53.88L56,53.88z
				 M57.99,53.39c0.01-0.43-0.18-1.11-0.94-1.11c-0.69,0-0.99,0.64-1.04,1.11C56.01,53.39,57.99,53.39,57.99,53.39z"/>
			<path class="st0" d="M62.6,50.41v3.09c0,1.17,0.52,1.67,1.21,1.67c0.77,0,1.27-0.51,1.27-1.67v-3.09h0.68v3.04
				c0,1.6-0.85,2.26-1.97,2.26c-1.07,0-1.88-0.61-1.88-2.23v-3.07H62.6L62.6,50.41z"/>
			<path class="st0" d="M67.3,52.9c0-0.39-0.01-0.7-0.03-1.02h0.6l0.04,0.62h0.01c0.18-0.35,0.62-0.7,1.24-0.7
				c0.52,0,1.32,0.31,1.32,1.59v2.24h-0.68v-2.16c0-0.6-0.22-1.11-0.87-1.11c-0.45,0-0.8,0.32-0.91,0.69
				c-0.03,0.09-0.05,0.2-0.05,0.32v2.26H67.3L67.3,52.9L67.3,52.9z"/>
			<path class="st0" d="M72.75,50.83c0.01,0.23-0.16,0.42-0.43,0.42c-0.24,0-0.41-0.18-0.41-0.42s0.18-0.43,0.43-0.43
				C72.58,50.4,72.75,50.59,72.75,50.83L72.75,50.83z M71.99,55.63v-3.75h0.68v3.75H71.99z"/>
			<path class="st0" d="M74.45,51.88l0.73,2.1c0.12,0.34,0.22,0.65,0.3,0.96h0.02c0.09-0.31,0.19-0.62,0.32-0.96l0.73-2.1h0.71
				l-1.47,3.75h-0.65l-1.42-3.75H74.45z"/>
			<path class="st0" d="M78.6,53.88c0.01,0.92,0.6,1.3,1.28,1.3c0.49,0,0.78-0.09,1.04-0.19l0.12,0.49
				c-0.24,0.11-0.65,0.23-1.24,0.23c-1.15,0-1.84-0.76-1.84-1.89s0.67-2.02,1.76-2.02c1.22,0,1.55,1.08,1.55,1.76
				c0,0.14-0.01,0.25-0.02,0.32L78.6,53.88L78.6,53.88z M80.6,53.39c0.01-0.43-0.18-1.11-0.94-1.11c-0.69,0-0.99,0.64-1.04,1.11
				H80.6z"/>
			<path class="st0" d="M82.49,53.05c0-0.44-0.01-0.82-0.03-1.17h0.6l0.02,0.73h0.03c0.17-0.51,0.58-0.82,1.04-0.82
				c0.08,0,0.13,0.01,0.19,0.02v0.64c-0.07-0.01-0.14-0.02-0.23-0.02c-0.48,0-0.82,0.36-0.91,0.87c-0.01,0.09-0.03,0.2-0.03,0.32v2
				h-0.68V53.05L82.49,53.05z"/>
			<path class="st0" d="M85.31,54.93c0.2,0.13,0.56,0.27,0.9,0.27c0.5,0,0.73-0.25,0.73-0.56c0-0.33-0.19-0.51-0.69-0.69
				c-0.68-0.24-0.99-0.61-0.99-1.06c0-0.6,0.49-1.1,1.29-1.1c0.38,0,0.71,0.11,0.92,0.23l-0.17,0.5c-0.15-0.09-0.42-0.22-0.77-0.22
				c-0.4,0-0.63,0.23-0.63,0.51c0,0.31,0.22,0.45,0.71,0.64c0.65,0.25,0.98,0.57,0.98,1.13c0,0.66-0.51,1.12-1.4,1.12
				c-0.41,0-0.79-0.1-1.05-0.26L85.31,54.93L85.31,54.93z"/>
			<path class="st0" d="M89.62,50.83c0.01,0.23-0.16,0.42-0.43,0.42c-0.24,0-0.41-0.18-0.41-0.42s0.18-0.43,0.43-0.43
				S89.62,50.59,89.62,50.83L89.62,50.83z M88.86,55.63v-3.75h0.68v3.75H88.86z"/>
			<path class="st0" d="M91.88,50.81v1.08h0.98v0.52h-0.98v2.02c0,0.47,0.13,0.73,0.51,0.73c0.18,0,0.31-0.02,0.39-0.05l0.03,0.51
				c-0.13,0.05-0.34,0.09-0.6,0.09c-0.32,0-0.57-0.1-0.73-0.29c-0.19-0.2-0.26-0.53-0.26-0.98V52.4h-0.58v-0.52h0.58v-0.9
				L91.88,50.81L91.88,50.81z"/>
			<path class="st0" d="M94.32,51.88l0.82,2.22c0.09,0.25,0.18,0.54,0.24,0.77h0.01c0.07-0.22,0.15-0.51,0.24-0.78l0.74-2.2h0.72
				l-1.02,2.67c-0.49,1.28-0.82,1.94-1.28,2.35c-0.34,0.3-0.67,0.41-0.84,0.44l-0.17-0.57c0.17-0.05,0.39-0.16,0.6-0.34
				c0.18-0.15,0.42-0.41,0.57-0.76c0.03-0.07,0.05-0.12,0.05-0.16s-0.01-0.09-0.05-0.18l-1.39-3.46L94.32,51.88L94.32,51.88z"/>
			<path class="st0" d="M101,53.99l-0.54,1.64h-0.69l1.77-5.22h0.81l1.78,5.22h-0.72l-0.56-1.64H101L101,53.99z M102.71,53.46
				l-0.51-1.5c-0.12-0.34-0.19-0.65-0.27-0.95h-0.01c-0.08,0.31-0.16,0.63-0.26,0.94l-0.51,1.51
				C101.14,53.46,102.71,53.46,102.71,53.46z"/>
			<path class="st0" d="M108.41,50.13v4.53c0,0.33,0.01,0.71,0.03,0.97h-0.61l-0.03-0.65h-0.01c-0.21,0.42-0.67,0.73-1.28,0.73
				c-0.9,0-1.6-0.77-1.6-1.91c-0.01-1.25,0.77-2.01,1.68-2.01c0.57,0,0.96,0.27,1.13,0.57h0.01v-2.24
				C107.72,50.13,108.41,50.13,108.41,50.13z M107.72,53.41c0-0.08-0.01-0.2-0.03-0.29c-0.1-0.43-0.47-0.79-0.98-0.79
				c-0.7,0-1.12,0.62-1.12,1.45c0,0.76,0.37,1.39,1.11,1.39c0.46,0,0.87-0.3,1-0.81c0.02-0.09,0.03-0.18,0.03-0.29V53.41
				L107.72,53.41z"/>
			<path class="st0" d="M109.92,52.9c0-0.39-0.01-0.7-0.03-1.02h0.6l0.03,0.6h0.02c0.21-0.35,0.56-0.69,1.18-0.69
				c0.51,0,0.9,0.31,1.06,0.75h0.01c0.12-0.21,0.26-0.37,0.42-0.49c0.22-0.17,0.47-0.26,0.83-0.26c0.5,0,1.23,0.33,1.23,1.63v2.21
				h-0.67v-2.12c0-0.72-0.26-1.15-0.81-1.15c-0.39,0-0.69,0.29-0.81,0.62c-0.03,0.09-0.05,0.22-0.05,0.34v2.31h-0.67v-2.25
				c0-0.6-0.26-1.03-0.78-1.03c-0.43,0-0.73,0.34-0.85,0.68c-0.04,0.1-0.05,0.22-0.05,0.34v2.26h-0.67L109.92,52.9L109.92,52.9z"/>
			<path class="st0" d="M117.52,50.83c0.01,0.23-0.16,0.42-0.43,0.42c-0.24,0-0.41-0.18-0.41-0.42s0.18-0.43,0.43-0.43
				S117.53,50.59,117.52,50.83L117.52,50.83z M116.76,55.63v-3.75h0.68v3.75H116.76z"/>
			<path class="st0" d="M118.87,54.93c0.2,0.13,0.56,0.27,0.9,0.27c0.5,0,0.73-0.25,0.73-0.56c0-0.33-0.19-0.51-0.69-0.69
				c-0.68-0.24-0.99-0.61-0.99-1.06c0-0.6,0.49-1.1,1.29-1.1c0.38,0,0.71,0.11,0.92,0.23l-0.17,0.5c-0.15-0.09-0.42-0.22-0.77-0.22
				c-0.4,0-0.63,0.23-0.63,0.51c0,0.31,0.22,0.45,0.71,0.64c0.65,0.25,0.98,0.57,0.98,1.13c0,0.66-0.51,1.12-1.4,1.12
				c-0.41,0-0.79-0.1-1.05-0.26L118.87,54.93L118.87,54.93z"/>
			<path class="st0" d="M122.32,54.93c0.2,0.13,0.56,0.27,0.9,0.27c0.5,0,0.73-0.25,0.73-0.56c0-0.33-0.19-0.51-0.69-0.69
				c-0.68-0.24-0.99-0.61-0.99-1.06c0-0.6,0.49-1.1,1.29-1.1c0.38,0,0.71,0.11,0.92,0.23l-0.17,0.5c-0.15-0.09-0.42-0.22-0.77-0.22
				c-0.4,0-0.63,0.23-0.63,0.51c0,0.31,0.22,0.45,0.71,0.64c0.65,0.25,0.98,0.57,0.98,1.13c0,0.66-0.51,1.12-1.4,1.12
				c-0.41,0-0.79-0.1-1.05-0.26L122.32,54.93L122.32,54.93z"/>
			<path class="st0" d="M126.63,50.83c0.01,0.23-0.16,0.42-0.43,0.42c-0.24,0-0.41-0.18-0.41-0.42s0.18-0.43,0.43-0.43
				C126.46,50.4,126.63,50.59,126.63,50.83L126.63,50.83z M125.87,55.63v-3.75h0.68v3.75H125.87z"/>
			<path class="st0" d="M131.46,53.72c0,1.39-0.96,1.99-1.87,1.99c-1.02,0-1.8-0.74-1.8-1.93c0-1.25,0.82-1.99,1.86-1.99
				C130.68,51.79,131.45,52.57,131.46,53.72L131.46,53.72z M128.49,53.76c0,0.82,0.47,1.44,1.14,1.44c0.67,0,1.14-0.61,1.14-1.46
				c0-0.64-0.32-1.44-1.12-1.44C128.83,52.3,128.49,53.05,128.49,53.76z"/>
			<path class="st0" d="M132.71,52.9c0-0.39-0.01-0.7-0.03-1.02h0.6l0.04,0.62h0.01c0.18-0.35,0.62-0.7,1.24-0.7
				c0.52,0,1.32,0.31,1.32,1.59v2.24h-0.68v-2.16c0-0.6-0.22-1.11-0.87-1.11c-0.45,0-0.8,0.32-0.91,0.69
				c-0.03,0.09-0.05,0.2-0.05,0.32v2.26h-0.68L132.71,52.9L132.71,52.9z"/>
		</g>
	</g>
	<g>
		<path class="st0" d="M67.42,24.13c-0.18-0.39-0.49-1.57-0.49-1.92c0.05-0.02,0.11-0.05,0.17-0.08c0.89-0.42,1.44-1.11,1.59-2.09
			c0.21-1.41-0.61-2.44-1.55-2.88c-0.07-0.03-0.14-0.06-0.21-0.09c0-0.06-0.01-0.13,0-0.19c0.13-0.65,0.31-1.3,0.53-1.92
			c0.01-0.04,0.04-0.09,0.07-0.14c0.56,0.38,1.16,0.49,1.8,0.3c0.52-0.16,0.91-0.49,1.17-0.97c0.29-0.54,0.33-1.1,0.12-1.67
			c-0.21-0.56-0.62-0.94-1.16-1.18c0.22-0.4,1.28-1.58,1.62-1.81c0.04,0.06,0.07,0.13,0.11,0.18c0.29,0.49,0.72,0.77,1.29,0.8
			c0.88,0.05,1.57-0.6,1.66-1.4c0.06-0.52-0.09-0.96-0.46-1.33c-0.03-0.03-0.07-0.07-0.1-0.11c0,0,0-0.01,0-0.02
			c0.41-0.35,2.1-1.1,3.21-1.41c1.95-0.55,3.94-0.69,5.95-0.39c2.13,0.32,4.08,1.08,5.86,2.3c5.3,3.64,7.38,10.26,5.3,16.17
			c-2.15,6.12-7.8,9.25-12.7,9.34c0-0.05-0.02-0.11-0.02-0.17c0-1.38,0-2.75,0-4.13c0-0.05,0-0.1,0.01-0.16
			c0.14-0.02,0.27-0.04,0.39-0.06c1.99-0.19,3.79-0.89,5.4-2.06c0.13-0.1,0.26-0.2,0.38-0.32c0.1-0.1,0.18-0.21,0.26-0.33
			c0.06-0.08,0.08-0.18,0.08-0.28c-0.01-0.29-0.26-0.43-0.5-0.28c-0.09,0.05-0.17,0.13-0.25,0.2c-0.79,0.71-1.68,1.27-2.66,1.68
			c-0.73,0.3-1.48,0.51-2.26,0.6c-0.42,0.05-0.84,0.08-1.26,0.08c-1.59-0.01-3.08-0.43-4.43-1.27c-2.33-1.43-3.86-3.47-4.66-6.07
			c-0.13-0.42-0.23-0.84-0.31-1.27c-0.02-0.12-0.06-0.24-0.11-0.35c-0.13-0.24-0.39-0.24-0.53,0c-0.07,0.11-0.08,0.23-0.06,0.36
			c0.02,0.25,0.05,0.49,0.09,0.73c0.27,1.48,0.88,2.8,1.77,4c1.32,1.78,3,3.11,5.04,3.97c0.86,0.36,1.75,0.58,2.67,0.67
			c0.03,0,0.06,0.01,0.09,0.02c0.06,0.08,0.04,0.17,0.04,0.24c0,0.52,0,1.05,0,1.58c0,0.78,0,1.56,0.01,2.35
			c0,0.09,0.01,0.18-0.02,0.26c-0.42,0.06-2.01-0.13-2.92-0.35c-0.97-0.23-1.9-0.55-2.79-0.98c-0.89-0.42-1.73-0.93-2.5-1.53
			c-0.78-0.6-1.49-1.27-2.13-2.01c-0.1,0.03-0.1,0.12-0.13,0.18c-0.17,0.38-0.4,0.72-0.69,1.01c-0.57,0.57-1.26,0.9-2.08,1
			c-1.69,0.19-3.46-0.95-3.74-2.91c-0.27-1.86,0.91-3.31,2.37-3.76c0.52-0.16,1.06-0.21,1.62-0.09c0.57,1.66,1.42,3.17,2.56,4.51
			c0.08-0.02,0.09-0.09,0.1-0.14c0.6-1.91-0.49-3.74-2.18-4.31c-0.15-0.05-0.3-0.09-0.44-0.13L67.42,24.13z M89.76,18.78
			c0-0.24,0-0.52,0-0.81c0-0.12-0.01-0.25-0.04-0.37c-0.04-0.17-0.18-0.27-0.37-0.26c-0.19,0.01-0.31,0.12-0.32,0.31
			c-0.01,0.11,0,0.21,0.01,0.32c0.09,0.84,0.05,1.68-0.12,2.5c-0.72,3.4-3.6,6.1-7.22,6.42c-0.39,0.03-0.76-0.03-1.07-0.28
			c-0.31-0.24-0.62-0.5-0.89-0.78c-0.15-0.16-0.29-0.32-0.39-0.51c-0.16-0.29-0.23-0.6-0.17-0.93c0.03-0.16,0.06-0.32,0.11-0.48
			c0.06-0.19,0.13-0.37,0.2-0.55c0.12-0.29,0.19-0.58,0.21-0.88c0.03-0.6-0.16-1.12-0.6-1.53c-0.09-0.08-0.19-0.15-0.29-0.23
			c-0.1-0.08-0.2-0.17-0.29-0.27c-0.17-0.19-0.17-0.4-0.06-0.62c0.04-0.08,0.1-0.15,0.15-0.22c0.05-0.06,0.11-0.13,0.16-0.18
			c0.26-0.29,0.43-0.63,0.5-1.01c0.05-0.3,0.05-0.59,0-0.88c-0.09-0.51-0.4-0.84-0.88-1c-0.35-0.12-0.71-0.11-1.07-0.03
			c-0.52,0.11-0.74,0.39-0.75,0.92c0,0.16,0,0.31,0.01,0.47c0.02,0.4-0.08,0.77-0.3,1.1c-0.1,0.15-0.21,0.3-0.33,0.43
			c-0.14,0.17-0.29,0.34-0.44,0.5c-0.08,0.08-0.17,0.16-0.26,0.22c-0.11,0.07-0.23,0.06-0.35,0c-0.14-0.08-0.22-0.2-0.25-0.35
			c-0.01-0.07-0.02-0.15-0.02-0.22c0.01-0.3,0.05-0.59,0.16-0.87c0.06-0.16,0.12-0.33,0.13-0.5c0.01-0.19-0.06-0.35-0.23-0.43
			c-0.13-0.06-0.27-0.12-0.42-0.15c-0.28-0.06-0.57-0.11-0.85-0.14c-0.17-0.02-0.35-0.02-0.52-0.01c-0.35,0.03-0.68,0.2-0.74,0.69
			c-0.01,0.1-0.02,0.19-0.02,0.3c0,0.72,0.05,1.45,0.19,2.16c0.59,2.95,2.73,5.4,5.43,6.42c0.35,0.13,0.71,0.26,1.08,0.34
			c0.25,0.05,0.4-0.05,0.45-0.3c0.03-0.14-0.01-0.25-0.13-0.32c-0.07-0.04-0.15-0.08-0.22-0.1c-0.19-0.06-0.38-0.11-0.57-0.17
			c-1.25-0.43-2.35-1.12-3.25-2.08c-1.43-1.52-2.19-3.32-2.23-5.42c0-0.13,0.01-0.26,0.03-0.39c0.02-0.18,0.13-0.3,0.32-0.33
			c0.2-0.04,0.39-0.03,0.59,0.02c0.15,0.04,0.2,0.12,0.19,0.28c0,0.06-0.02,0.13-0.03,0.19c-0.02,0.1-0.05,0.19-0.06,0.29
			c-0.06,0.41-0.05,0.82,0.12,1.21c0.09,0.2,0.2,0.39,0.37,0.54c0.16,0.14,0.34,0.2,0.54,0.2c0.17,0,0.33-0.06,0.47-0.13
			c0.26-0.12,0.48-0.28,0.69-0.48c0.41-0.39,0.73-0.85,0.96-1.37c0.18-0.4,0.28-0.83,0.24-1.27c0-0.07,0-0.15,0-0.22
			c0.01-0.24,0.11-0.34,0.35-0.36c0.1-0.01,0.2,0,0.3,0.01c0.35,0.04,0.55,0.25,0.58,0.6c0.03,0.32-0.01,0.63-0.18,0.9
			c-0.09,0.15-0.19,0.29-0.29,0.43c-0.13,0.17-0.25,0.35-0.35,0.54c-0.18,0.4-0.14,0.77,0.12,1.12c0.12,0.16,0.26,0.3,0.41,0.42
			c0.11,0.1,0.22,0.19,0.32,0.31c0.26,0.29,0.39,0.63,0.36,1.02c-0.01,0.17-0.04,0.33-0.1,0.48c-0.09,0.28-0.18,0.56-0.28,0.85
			c-0.13,0.37-0.13,0.74-0.05,1.12c0.15,0.7,0.5,1.28,0.99,1.79c0.31,0.32,0.66,0.57,1.07,0.73c0.26,0.11,0.54,0.16,0.82,0.15
			c0.56-0.02,1.12-0.1,1.66-0.23c2.8-0.69,4.96-2.62,6.01-5.07c0.48-1.12,0.7-2.29,0.69-3.56L89.76,18.78z M82.7,16.96
			c-0.04-0.03-0.08-0.05-0.11-0.08c-0.09-0.12-0.19-0.23-0.26-0.36c-0.15-0.26-0.28-0.52-0.4-0.79c-0.05-0.11-0.1-0.23-0.13-0.35
			c-0.02-0.09-0.03-0.17-0.04-0.27c-0.01-0.22,0.07-0.4,0.25-0.53c0.11-0.08,0.24-0.15,0.37-0.2c0.17-0.07,0.35-0.11,0.52-0.16
			c0.37-0.1,0.62-0.33,0.74-0.69c0.02-0.06,0.04-0.13,0.06-0.19c0.11-0.4,0.12-0.8,0.02-1.2c-0.1-0.42-0.21-0.85-0.33-1.27
			c-0.02-0.09-0.06-0.17-0.1-0.25c-0.08-0.17-0.21-0.29-0.39-0.36c-0.08-0.03-0.17-0.06-0.26-0.08c-0.36-0.07-0.73-0.13-1.1-0.15
			c-0.64-0.03-1.28-0.01-1.92,0.1c-0.92,0.16-1.8,0.45-2.64,0.88c-1.45,0.75-2.64,1.78-3.53,3.16c-0.43,0.66-0.72,1.39-0.96,2.13
			c-0.01,0.04-0.02,0.08-0.03,0.12c-0.02,0.14,0.03,0.26,0.17,0.33c0.14,0.07,0.28,0.11,0.42,0.02c0.04-0.02,0.07-0.07,0.09-0.11
			c0.03-0.06,0.06-0.14,0.09-0.2c0.22-0.69,0.54-1.34,0.94-1.95c1.11-1.72,2.64-2.86,4.62-3.41c0.74-0.2,1.5-0.29,2.27-0.31
			c0.26,0,0.51,0,0.76,0.04c0.7,0.11,1.13,0.56,1.21,1.26c0.03,0.25,0.03,0.49,0,0.74c-0.04,0.37-0.23,0.63-0.58,0.76
			c-0.1,0.04-0.2,0.06-0.31,0.1c-0.44,0.15-0.81,0.4-1.06,0.8c-0.22,0.36-0.27,0.73-0.09,1.13c0.28,0.62,0.62,1.2,1.01,1.75
			c0.07,0.1,0.16,0.19,0.25,0.27c0.25,0.19,0.51,0.2,0.78,0.04c0.14-0.08,0.25-0.19,0.34-0.32c0.14-0.19,0.27-0.39,0.39-0.6
			c0.12-0.2,0.21-0.41,0.32-0.61c0.05-0.09,0.1-0.19,0.17-0.27c0.12-0.15,0.27-0.15,0.4-0.01c0.07,0.07,0.13,0.16,0.17,0.24
			c0.14,0.22,0.24,0.45,0.35,0.68c0.22,0.51,0.61,0.76,1.16,0.78c0.39,0.01,0.78-0.01,1.16-0.09c0.46-0.09,0.91-0.2,1.37-0.32
			c0.13-0.03,0.25-0.08,0.36-0.15c0.22-0.11,0.3-0.27,0.25-0.51c-0.03-0.17-0.08-0.34-0.15-0.5c-0.19-0.45-0.39-0.9-0.61-1.35
			c-0.27-0.54-0.61-1.04-1-1.5c-0.89-1.05-1.98-1.82-3.24-2.38c-0.07-0.03-0.14-0.05-0.21-0.07c-0.17-0.05-0.31,0.01-0.39,0.17
			c-0.09,0.17-0.07,0.34,0.06,0.45c0.06,0.05,0.14,0.09,0.21,0.12c0.16,0.08,0.33,0.15,0.49,0.23c1.76,0.92,3.02,2.3,3.82,4.12
			c0.04,0.09,0.08,0.18,0.1,0.28c0.06,0.27-0.02,0.4-0.28,0.49c-0.04,0.01-0.08,0.02-0.12,0.03c-0.3,0.06-0.59,0.13-0.89,0.18
			c-0.31,0.05-0.62,0.09-0.93,0.03c-0.26-0.05-0.44-0.17-0.54-0.41c-0.06-0.14-0.12-0.27-0.17-0.41c-0.11-0.3-0.29-0.53-0.52-0.73
			c-0.09-0.08-0.18-0.14-0.29-0.19c-0.29-0.15-0.58-0.13-0.84,0.07c-0.11,0.08-0.21,0.18-0.3,0.29c-0.1,0.13-0.17,0.28-0.25,0.42
			c-0.09,0.17-0.17,0.35-0.27,0.53c-0.12,0.22-0.25,0.42-0.47,0.6L82.7,16.96z M85.86,18.8c-0.24,0-0.53,0.05-0.82,0.14
			c-0.43,0.14-0.83,0.35-1.21,0.62c-0.32,0.22-0.65,0.37-1.05,0.36c-0.27,0-0.47,0.14-0.6,0.37c-0.14,0.24-0.09,0.51,0.13,0.68
			c0.49,0.37,1,0.73,1.55,1.01c0.23,0.12,0.46,0.21,0.7,0.31c0.06,0.02,0.13,0.05,0.19,0.03c0.24-0.04,0.49-0.09,0.72-0.16
			c0.25-0.07,0.43-0.23,0.57-0.45c0.16-0.26,0.34-0.51,0.52-0.75c0.17-0.23,0.36-0.45,0.53-0.68c0.05-0.07,0.11-0.15,0.16-0.22
			c0.17-0.31,0.12-0.63-0.13-0.88c-0.12-0.13-0.27-0.21-0.44-0.27C86.44,18.84,86.18,18.8,85.86,18.8L85.86,18.8z M81.11,25.9
			c0.05,0,0.1,0,0.15,0c0.4-0.03,0.76-0.34,0.85-0.72c0.11-0.48-0.17-1.1-0.59-1.34c-0.18-0.11-0.38-0.13-0.57-0.03
			c-0.46,0.21-0.77,0.56-0.89,1.06c-0.09,0.38,0.1,0.75,0.46,0.92C80.7,25.87,80.9,25.9,81.11,25.9L81.11,25.9z"/>
		<path class="st0" d="M66.86,22.19c-1.03,0.38-2.32,0.03-3.05-0.97c-0.7-0.98-0.67-2.35,0.12-3.3c0.8-0.97,2.11-1.16,2.94-0.81
			c-0.03,0.33-0.11,0.66-0.14,0.99c-0.03,0.35-0.06,0.69-0.07,1.03c-0.01,0.34-0.01,0.68,0,1.01c0.01,0.35,0.04,0.69,0.07,1.03
			C66.76,21.51,66.82,21.84,66.86,22.19L66.86,22.19z"/>
		<path class="st0" d="M67.53,14.74c-0.58-0.34-1.08-1.43-0.57-2.43c0.51-0.99,1.66-1.29,2.42-0.97c-0.02,0.03-0.03,0.07-0.05,0.1
			c-0.72,0.99-1.3,2.06-1.74,3.2C67.57,14.66,67.55,14.69,67.53,14.74L67.53,14.74z"/>
		<path class="st0" d="M71.12,9.41c-0.26-0.52-0.07-1.34,0.51-1.77c0.56-0.42,1.39-0.4,1.84,0c-0.19,0.16-0.41,0.26-0.61,0.4
			c-0.2,0.15-0.4,0.28-0.6,0.43c-0.2,0.15-0.39,0.31-0.58,0.46C71.49,9.08,71.31,9.24,71.12,9.41z"/>
		<path class="st0" d="M83.39,20.79c0.11-0.03,0.18-0.05,0.25-0.07c0.22-0.07,0.4-0.19,0.55-0.36c0.01-0.02,0.03-0.04,0.05-0.06
			c0.24-0.34,0.58-0.53,0.98-0.61c0.31-0.06,0.62-0.08,0.93-0.12c0.06,0,0.12,0,0.17,0.01c0.15,0.03,0.22,0.2,0.14,0.33
			c-0.02,0.04-0.06,0.08-0.1,0.11c-0.31,0.28-0.54,0.61-0.74,0.98c-0.06,0.12-0.13,0.23-0.21,0.33c-0.11,0.13-0.25,0.21-0.41,0.25
			c-0.14,0.03-0.26,0-0.39-0.04c-0.08-0.03-0.17-0.07-0.24-0.12c-0.29-0.18-0.58-0.36-0.87-0.55
			C83.47,20.84,83.45,20.83,83.39,20.79L83.39,20.79z"/>
		<path class="st0" d="M81.01,25.2c-0.02,0-0.11-0.02-0.18-0.05c-0.09-0.04-0.12-0.11-0.1-0.2c0.04-0.16,0.13-0.3,0.27-0.39
			c0.12-0.08,0.24-0.05,0.32,0.06c0.03,0.04,0.06,0.1,0.08,0.15c0.09,0.23-0.03,0.41-0.27,0.44C81.12,25.2,81.09,25.2,81.01,25.2
			L81.01,25.2z"/>
	</g>
</g>
</svg>
