<svg xmlns="http://www.w3.org/2000/svg" width="2500" height="2500" viewBox="0 0 192.756 192.756" xmlns:v="https://vecta.io/nano"><style><![CDATA[.B{fill-rule:evenodd}.C{fill:#fff}.D{stroke:#2d67a0}.E{stroke-miterlimit:2.613}.F{stroke-width:.008}.G{fill:none}.H{stroke-width:.001}.I{fill:#2d67a0}]]></style><g class="B"><path fill-opacity="0" d="M0 0h192.756v192.756H0V0z" class="C"/><path d="M113.764 111.238c11.072-3.885 14.959-8.74 17.871-12.432 4.662-5.246 7.383-13.987 7.383-22.534l-.389-5.051-.582-5.633-.777-5.245-.777-5.051c-.195-1.555-.389-3.303-.195-4.856-.193-4.468.973-8.742 4.857-11.655l-1.943-2.525c1.748-1.554 2.525-3.108 1.555-3.497.582-.388 7.381-8.158.971-4.662 1.361-.777 2.332-3.108 2.721-4.662-2.525.389-3.498.777-6.023 1.554l-6.021 2.331-4.078-5.439-1.75-2.331c-.389.583-.775.971-1.164 1.359-2.332 2.137-5.828 2.137-8.936 1.749l-5.828-.971-4.662-.583c-4.273-.776-9.325-.971-13.792-.583l-5.439.583-6.604 1.166c-4.08.583-9.713 1.359-12.238-2.914l-6.41 8.159c-.777-.194-1.943-.583-3.302-.777-.195.777.583 2.137 1.554 3.302l-.976 1.36-5.439 7.188c5.051 3.691 5.051 10.101 4.468 15.734l-1.554 9.519-.583 5.051c-.389 2.914-.583 6.022-.389 9.13.389 15.929 9.907 27.973 24.67 33.024l3.108 1.166c4.857 2.137 9.713 4.078 13.792 8.158.195-.195.388-.195.388-.389 4.858-4.469 10.685-6.606 16.513-8.743z" class="I"/><g class="C"><g class="D E"><path d="M76.078 23.435l1.943-.388 8.741-1.36 5.828-.583c5.632-.583 11.46.194 16.707.972l7.77 1.359c3.303.194 6.799 0 9.129-2.331l.389-.583 5.246 6.993c-.777.194-1.943.583-2.721.971h-.193l-2.721-3.691c-2.719 1.554-5.826 1.749-9.129 1.554l-4.469-.777-5.633-.971-6.021-.583c-3.496-.389-7.188-.194-10.684.194l-4.856.777-8.353 1.166c-3.108.194-6.216-.194-8.742-1.554L65.2 28.68c-.971-.194-1.942-.583-2.914-.972l5.633-7.381c1.943 2.72 5.051 2.914 8.159 3.108z" class="H"/><g class="F"><path d="M143.873 24.018c-1.359 3.108-2.525 4.079-4.467 4.662l-8.547 2.72c-1.361.389-2.721 1.359-4.275 1.942-5.826-2.137-10.295-.389-12.238.194-2.719.971-4.855 2.331-7.186 4.079a1.072 1.072 0 0 0-.973-.583c.389.389.777 1.36.973 1.749.193 0 1.164-.583 1.941 0 .777.777-.193 1.554-.582 2.331.971-.777 1.748-1.166 2.719-.777.971.777-.389 1.943-.777 2.525.777 0 1.555-.777 2.525-.194.389.777-.582 1.166-1.359 1.554.777 0 1.748.389 2.332.971-.973.583-2.139 0-3.303-.194-2.137-.583-2.721-1.36-4.857-1.942-.582-.194-1.553-.389-2.137-.194-.389-.194-.971-.194-1.359-.194 3.107-.971 2.332-4.662 3.691-6.993 1.553-2.72 4.662-3.302 7.381-3.691 3.691-.583 7.576-.388 10.879-1.36l2.914-.777 4.662-1.749 6.604-2.331c1.75-.582 3.498-1.359 5.439-1.748zm.195 3.69c-.584 1.166-2.332 3.691-3.691 4.468-2.33 1.36-5.244 1.943-8.158 2.331-1.943.389-2.332 0-4.273-.194l-1.166-.194c4.467-2.331 8.354-3.303 13.404-4.662 2.523-.971 2.914-1.36 3.884-1.749zm-47.204 4.469c-1.166.194-2.331 0-3.108 1.554-.388-.194 0-.972.389-1.166.776-.583 1.941-.776 2.719-.388zm43.513 1.748c-.193.583-.971 1.749-1.555 2.332-.971.777-1.359 1.166-4.078 1.748-2.137.194-6.021.583-6.41-.194 2.912-1.166 2.912-2.137 3.496-2.525 2.33-.194 4.662-.583 8.354-1.942.388-.196.582.193.193.581zm-15.93-.388c1.361.388 2.332.777 1.748.971-4.855.971-7.574 1.554-15.928 4.856.193-.194-.389-.971-.582-1.165s-1.361-.389-1.75-.389c5.828-3.108 8.354-4.856 14.764-4.662.389 0 1.166.194 1.748.389z"/><path d="M99.389 32.371c-1.166-.389-2.33 0-3.108.194s-1.748.777-2.137 1.359c1.36.389 2.915.195 4.274.389.777.194 1.359.971 2.137.583.582-.583.582-.777.582-1.166-.194-.193-.582-.971-1.748-1.359zm2.525 1.943c0 .194 0 .388-.193.583-.195 0-.195.388-.777.194 0-.388.193-.776.582-.971.195 0 .388 0 .388.194zm28.361 1.359c0 .583-1.553.971-1.748 1.36-1.943.971-2.137 1.554-4.273 1.942l-5.828 1.554-6.217 1.359c.584-.971.777-1.748-.193-2.331l10.295-3.302c3.302-.97 6.023-1.747 7.964-.582z"/></g></g><use href="#B"/></g></g><g class="D E F"><use href="#B" class="G"/><path d="M102.885 35.09c0 .194 0 .194.195.389 0 .389-.195.583-.584.777-.193.194-.582.388-.971 0-.193 0-.582-.194-.582-.194 0-.583.777-.972 1.359-1.166.194 0 .583 0 .583.194zm-31.275.583c3.108.971 3.303 1.942 4.08 4.08l-5.439-.389c-6.604-.776-8.936-6.021-10.101-8.547 4.467 3.303 9.712 4.662 11.46 4.856zm66.824 1.943c-1.553 2.137-3.107 3.303-5.244 3.885-1.166.194-2.137.777-3.496 0-2.525-1.554-3.691-2.525-2.332-2.914 4.468.972 9.13-.194 11.072-.971z" class="B C"/></g><path d="M102.303 36.839s.193-.194.389-.194c.193.583-.582.777-.971.971a.417.417 0 0 1-.389-.388c0-.389-.389-.583 0-.777.193.194.582.388.971.388z" class="B C"/><g class="D E F"><path d="M102.303 36.839l.389-.194c.193.583-.582.777-.971.971a.417.417 0 0 1-.389-.388c0-.389-.389-.583 0-.777.193.194.582.388.971.388z" class="G"/><path d="M76.661 41.889l.777.777H71.61c-1.748 0-4.662-2.137-5.633-3.303 2.72.777 5.051.972 5.828.972 1.943.195 3.496-.194 4.856 1.554zm6.799.778c-.194.389.583 1.166-.389.777-2.525 0-5.633-.777-6.993-3.108.972 0 1.749 0 2.332.194 1.942.777 3.301 1.165 5.05 2.137z" class="B C"/></g><path d="M129.693 42.667c-.389.971-1.359.971-2.137 1.166 0-.195-.195-.583-.973-.583-.582 0-.971.194-1.359.194.195-.194.389-.777.195-1.166 0 0-.195-.194-.389-.194s-.389.388-.777.388c-.777.389-1.943.583-2.721 1.554l-4.467.583c-.971 0-2.914 0-3.691-.583 0 0 1.166-.583.584-1.554l7.963-1.942c4.857-1.554 4.08-1.166 5.828.777l1.944 1.36z" class="B C"/><path d="M129.693 42.667c-.389.971-1.359.971-2.137 1.166 0-.195-.195-.583-.973-.583-.582 0-.971.194-1.359.194.195-.194.389-.777.195-1.166l-.389-.194c-.195 0-.389.388-.777.388-.777.389-1.943.583-2.721 1.554l-4.467.583c-.971 0-2.914 0-3.691-.583 0 0 1.166-.583.584-1.554l7.963-1.942c4.857-1.554 4.08-1.166 5.828.777l1.944 1.36z" class="D E F G"/><path d="M125.031 42.861c0 .777-.973.972-1.359 1.554l-.389.389c.389 0 .775-.194 1.164-.583.584-.194 2.721-.583 2.721-.194s-.389.971-.777 1.166c-1.166.583-2.719 1.36-4.273.971-.971 0-1.748.389-2.525.583l-4.273 1.166c-1.555.389-3.303.777-4.857.194-2.33-.389-4.662-.972-7.188-.972-.389.194-.777.389-.971.583.389 0 .777-.194.971 0-.193.777-.193 1.748-.777 2.331-.193 0-.193-.194-.193-.389-.389-1.942-1.359-4.662.777-6.216.971-.194 2.137.194 3.107.583 1.748 1.166 4.08 1.36 6.217 2.137l2.525-.583 6.217-.777c.971.194 1.164-1.166 2.137-1.359.582 0 .971-.389 1.553-.777-.002-.001.193-.001.193.193z" class="B C"/><g class="D E F"><path d="M125.031 42.861c0 .777-.973.972-1.359 1.554l-.389.389c.389 0 .775-.194 1.164-.583.584-.194 2.721-.583 2.721-.194s-.389.971-.777 1.166c-1.166.583-2.719 1.36-4.273.971-.971 0-1.748.389-2.525.583l-4.273 1.166c-1.555.389-3.303.777-4.857.194-2.33-.389-4.662-.972-7.188-.972-.389.194-.777.389-.971.583.389 0 .777-.194.971 0-.193.777-.193 1.748-.777 2.331 0 0-.193-.194-.193-.389-.389-1.942-1.359-4.662.777-6.216.971-.194 2.137.194 3.107.583 1.748 1.166 4.08 1.36 6.217 2.137l2.525-.583 6.217-.777c.971.194 1.164-1.166 2.137-1.359.582 0 .971-.389 1.553-.777l.193.193z" class="G"/><g class="B C"><path d="M134.938 41.307c-1.359 4.273-4.467 3.496-5.828 2.719 1.555-.583 1.555-1.36 1.555-1.36 2.136.001 3.106-.582 4.273-1.359zM82.294 44.415c-.583.195-.583.389-.389.777 0 .194.389.389.389.389-.389.194-.389 1.359-.971.971-1.748-.971-3.108-1.554-5.245-1.554-1.165-.194-3.69-.971-4.662-1.554 2.137 0 2.914.194 3.885.194 1.36 0 2.331-.388 2.331-.388 1.748.194 2.914.583 4.662 1.165z"/><path d="M74.524 45.581c.194-.194.971-.389 1.749-.194 1.359.194 2.137.389 3.302 1.166 1.942.583 3.691 2.137 5.828 2.72.194-.195-.194-.389-.389-.389 1.36-.971 2.72-1.943 4.273-2.525.972-1.166 2.331-2.331 3.885-2.137l.194.389c.194.971-.777 1.748-.777 2.914l-1.942.775-5.051 2.914c-1.36 1.166-1.942 0-3.302-.971-1.554-.777-3.108-1.554-4.468-2.914 0 0 .389 0 .194-.194-.583 0-1.166.389-1.943.583-.194 0-.777.194-.971 0l.194-.194c.389-.194.389-.777 1.166-.971-.583-.583-1.554-.777-2.137-.777l.195-.195zm56.335.388c-.777 1.554-3.887.583-4.275 1.165-.193.389 1.361.194 1.943 1.166-1.555 1.165-5.439-.583-6.021 0-.584.388 1.166.388 1.553 1.165-2.33 1.166-3.496.194-5.826-.583-.389-.194-.389 0-.777-.194.193.971.971.583 1.359 1.36-1.555.389-2.719-.583-3.885-1.36 2.33-.583 4.467-1.749 6.799-2.137 2.137.388 4.662-.389 5.633-1.554.389-.583.777-.388.973-.388-.001 0 2.329.583 2.524 1.36zm-19.232 3.302c1.166 0 1.943-.389 2.914-.583.582.388.193 1.554-.389 1.554.193.583.777 1.359.582 2.137l-2.137-.971c.389.777.973 1.942.777 2.719-.582-.583-1.941-.583-2.525-.971.195.971.971 2.331 0 3.303-.777-.583-1.164-1.36-1.941-2.137.193.972.389 2.525-.195 3.303-.389-.583-2.33-1.166-2.137-1.749-.193-.194-.777 1.943-1.359 2.137-.582-.777-1.166-1.943-2.137-2.525.193-.194.582-.194.582-.583-.582-.777-1.359-.777-2.137-1.36-.971-.389.195-.971.195-.971 1.359-.583 1.553-2.137 1.748-3.497.582-1.165 2.137-.776 3.303-.776 1.553.193 3.301.582 4.856.97zm-20.203-.194c0 .389-.389.583-.583.972-.388.971 0 1.942.971 2.525.389.389.777.583 1.166.971-1.36.971-2.137 2.719-2.332 3.108-.388-.583-.583-1.554-.583-2.331-.389.389-1.166.777-1.555.777-.194-.389.389-1.36.389-1.749 0 0-1.36 0-1.749.194-.194-.777.389-1.166.777-1.554-.194-.389-1.554-.194-1.749-.389l4.856-2.525h.392v.001z"/></g></g><path d="M99.973 53.934c-.584-.389-2.137-.583-2.721-.389-1.359 0-2.914-.194-4.079.389h.194l-.388.194c-.389.389-.195.389-.583.777 0 .194-.971 1.359-.777 1.554-.194.388-.388.777-.388.971.388.583.777.389 1.165.583-.388-.388-.388-.583-.388-.777-.194-.583.777-1.942 1.166-2.525.194-.194.388-.389.583-.389h.194c-.583.777-.971 1.554-1.359 2.331 0 .389 0 .583.194.972.195.194 1.166.194 1.554.194-.194-.777.389-1.166 0-2.137.194 0 .389 0 .583.194.195.971-.388 1.554.389 2.331.971.388 1.36-.388 2.138-.777.193-1.166 0-2.331-.195-3.302.584.194.777 1.942 1.166 2.332.389.194.582 0 .777-.195.777-.777 0-1.748-.584-2.525.195 0 .777 0 1.166.972.584 1.166 0 .971.389 1.554.195-.194 1.166-.194 1.359-.194.971-.776.584-.971 1.166-1.165-.78-.391-1.946-.78-2.721-.973z" class="B C"/><g class="D E F"><path d="M99.973 53.934c-.584-.389-2.137-.583-2.721-.389-1.359 0-2.914-.194-4.079.389h.194l-.388.194c-.389.389-.195.389-.583.777 0 .194-.971 1.359-.777 1.554-.194.388-.388.777-.388.971.388.583.777.389 1.165.583-.388-.388-.388-.583-.388-.777-.194-.583.777-1.942 1.166-2.525.194-.194.583-.389.583-.389h.194c-.583.777-.971 1.554-1.359 2.331 0 .389 0 .583.194.972.195.194 1.166.194 1.554.194-.194-.777.389-1.166 0-2.137.194 0 .389 0 .583.194.195.971-.388 1.554.389 2.331.971.388 1.36-.388 2.138-.777.193-1.166 0-2.331-.195-3.302.584.194.777 1.942 1.166 2.332.389.194.582 0 .777-.195.777-.777 0-1.748-.584-2.525.195 0 .777 0 1.166.972.584 1.166 0 .971.389 1.554.195-.194 1.166-.194 1.359-.194.971-.776.584-.971 1.166-1.165-.78-.391-1.946-.78-2.721-.973z" class="G"/><path d="M91.813 73.359l2.72 3.885c1.166 2.331 2.719 4.662 4.079 6.799.777 1.554 1.75 2.72 2.721 4.468 1.164 1.166 1.553 1.36 2.137 2.332-1.748 1.165-1.359 3.108-3.107 4.079 0 0-4.857 1.553-6.606-.777-1.36-2.137-2.137-6.022-1.554-8.936.971 1.748 2.525 3.885 3.497 4.468l.194-.194c-1.166-2.137-2.525-4.079-4.08-6.022-1.359-1.942-.777-4.856-1.166-7.187 0 0 .194 0 .194-.194.389.194.389.777.583.971.389.777.971 1.166 1.555 1.36l-.777-1.554-1.554-3.885c-.194-.583-.971-1.942-.388-2.137l1.552 2.524zM105.605 72c0 .193 0-.195 0 0zm14.957 3.107c0 .972-.971 1.166-1.748 1.554h-.193c0-.777 0-1.748.775-2.136.584-.195.973.194 1.166.582zm-2.136 23.7c.389.582.582.971.582 1.748-.193.389-.193.582-.582.777-1.359-.582-3.303-.582-3.107-2.525-.001 0 1.552-2.526 3.107 0zm-7.576-30.499l2.332 2.914c-.389-.389-1.943-.777-4.273-3.497-.584-.777-1.555-1.943-1.748-1.749-.195.389.582.972.775 1.166 0 0 2.914 3.885 2.332 3.885-.389 0-1.943-1.554-2.914-3.108-1.166-1.748-3.107-4.662-3.496-6.799 0 0 3.303 4.274 4.078 4.662 0 0-2.33-3.69-2.719-4.856s-1.748-4.273-2.721-5.245c0 0 .195.388-.971.971-.971.389-1.164-.194-2.33.194-.973.389-.777.583-1.359 1.166-.777.583-2.332 1.749-3.303.194 0 0-1.36.971-2.525.388 0 0-2.137 6.799-1.748 8.354 0 0 .776-.777 1.554-.389.583.389 1.166-.777 2.137-.389.777.389-.389 2.525 0 2.72.389.389.777-.583 1.554-.194s.194 1.554.971 1.554c.583 0-.194-3.497.777-3.497 0 0 0 2.331.971 2.914 0 0-1.164-5.245.584-9.518 0 0-.389 6.216.193 8.741 0 0 .973-2.331 2.332-1.36 1.164.777 0 2.525.582 2.72.777.194 1.943-.971 2.332-1.36.582-.389 1.164-.583 1.553 0 .584 1.36-.777.971-.582 1.749.389.777.971.388 1.748.777 1.166.583-1.943 1.165-.582 1.942.971.777 3.107.971 4.855.777 0 0 3.303 1.36 4.469 2.137-.195-.583-.777-.972-.777-1.748 1.359.582 1.941 1.554 2.137 2.719.193 0 .582 0 .777-.583.193-.971-.389-1.748.389-2.331.582-.388 1.359-.388 1.941-.388-1.749-1.165-8.355-5.244-9.325-5.633zm-33.412-19.62c-.388.388-.777.194-2.137.583.194-.389 1.36-1.166 1.942-1.166.195.195.195.389.195.583zm1.749 1.166v.777c-.777-.389-1.36-1.36-1.166-2.137.583.194 1.166.777 1.166 1.36zm-.777 2.331c-.194-.583-.972-.777-.972-1.36 0-.194.194-.583.194-.777.778.195 1.36 1.554.778 2.137zm-.778 0c.194.583-.194 1.554-.389 1.749 0-.389-.971-1.166-.389-1.943l.195-.583c.389.194.583.583.583.777zm-1.359-.777c-.389.388-.777.971-1.36.971-.389 0-1.36 0-1.554-.194.583 0 1.359-.583 1.748-.583l1.166-.194zm-.389 3.108c-.389.777-.583.777-1.36.971.971-.777.389-2.331 1.554-2.525.195.389.195 1.165-.194 1.554zm-8.935-4.468c-.389.971-.194 1.166.388 1.748-.194-1.359 1.166-1.748.583-2.914-.389.195-.971.778-.971 1.166zm7.769 3.108c0 .194-.971.583-1.165.583-.583.195-1.749.195-1.749 0 1.555-.388.972-1.165 2.914-.583zm2.332-3.496c0 .389-.777.777-1.166.972s-1.554.583-1.554.194c1.554-.583.583-1.361 2.72-1.166zm-9.519-1.748c-.194-.194-.971.194-1.359.389s-1.36.971-1.166 1.359c1.554-.972 1.554 0 2.525-1.748zm2.914-3.497c.777.195 1.166.777 1.554.777.583 0 .777-.194.777-.389-.194-.582-1.554-.582-2.331-.388zm3.303 3.302c0-.777.194-1.166.194-1.748-.194-.389-.388-.583-.583-.583-.583.389-.194 1.748.389 2.331zm-3.303-2.719c-.583-.194-1.748.194-1.942.583.777-.194 1.166.777 2.137.389l.583-.389c-.195-.195-.584-.389-.778-.583zm1.165 1.554c-.194.583.194 1.554.389 1.942 0-.777.777-1.166.389-2.137l-.194-.583c-.389.195-.584.389-.584.778zm2.331 8.741c-.388.388-1.554.583-1.942.583.583-.389.583-1.36 1.554-1.36l.777-.194a1.48 1.48 0 0 1-.389.971zm-6.022-9.13c-.971.389-.971.583-1.165 1.36.776-.971 2.136 0 2.525-.971-.194-.389-.971-.389-1.36-.389zm1.943 1.943c0 .777.388.971.777 1.359-.389-1.165.777-2.137-.194-2.914-.389.389-.583.972-.583 1.555zm-.583.582c.389.583.195.971 0 2.137-.583-.583-.583-1.749-.583-2.914.389.001.583.389.583.777z" class="B C"/></g><path d="M100.943 42.667c-1.748-.583-1.166-2.525-1.359-3.885 0-.194-.389-.389-.584-.194-.582 0-1.164.776-1.553.194.193 0 .582 0 .775-.194s.389-.389.389-.777c-.193-.194-.389-.194-.582-.194 0 .194-.193.194-.193.389-.584 0-.972-.583-1.75-.389-.388 0-.583-.388-.777-.583-.194-.777-1.166-1.36-1.749-1.943-.388.583-.582.972-.582 1.554 0 .389.776.194.971.389.583.194-.389.583-.389.777-.194 0-.194-.194 0-.388s-.194-.194-.388-.389c0 .777-.389 1.36-.389 1.942l.583.194c.194.194 0 .389 0 .583a.6.6 0 0 0 .388.194h.194c0 .194-.194.194-.194.194h-.194c0 .194 0 .389.389.389.194.194-.194.777.194.971 1.36 0 2.137-.971 3.108-1.748-.193.583-.971.971-1.166 1.554s0 1.359-.388 1.942c-.194.777-1.36.388-1.554 1.165 0 .777-.389 1.749.389 2.332 1.166 0 2.137-.194 3.108-.777 1.555-.583 2.721-2.137 4.08-3.108-.388 0-.583 0-.777-.194z" class="B C"/><g class="D E"><path d="M100.943 42.667c-1.748-.583-1.166-2.525-1.359-3.885 0-.194-.389-.389-.584-.194-.582 0-1.164.776-1.553.194.193 0 .582 0 .775-.194s.389-.389.389-.777c-.193-.194-.582-.194-.582-.194 0 .194-.193.389-.193.389-.584 0-.972-.583-1.75-.389-.388 0-.583-.388-.777-.583-.194-.777-1.166-1.36-1.749-1.943-.388.583-.582.972-.582 1.554 0 .389.776.194.971.389.583.194-.389.583-.389.777-.194 0-.194-.194 0-.388s-.194-.194-.388-.389c0 .777-.389 1.36-.389 1.942l.583.194c.194.194 0 .389 0 .583l.388.194h.194l-.194.194h-.194s0 .389.389.389c.194.194-.194.777.194.971 1.36 0 2.137-.971 3.108-1.748-.193.583-.971.971-1.166 1.554s0 1.359-.388 1.942c-.194.777-1.36.388-1.554 1.165 0 .777-.389 1.749.389 2.332 1.166 0 2.137-.194 3.108-.777 1.555-.583 2.721-2.137 4.08-3.108-.388 0-.583 0-.777-.194z" class="F G"/><path d="M109.686 109.102c-4.469 1.555-8.938 3.691-12.822 6.605-3.885-2.914-8.159-5.051-12.627-6.799-16.9-5.051-26.225-20.591-25.447-32.635v-5.051l.777-5.245 1.554-9.518.389-3.303c.194-5.245 0-11.072-3.691-14.958l3.302-4.274s-.971-.971-1.554-2.719c-1.748 2.137-3.885 5.051-5.439 7.188 1.554 1.36 2.72 2.914 3.302 4.662 1.36 3.691 1.36 8.353.777 12.432l-1.166 7.188-.777 5.439c-.389 3.497-.583 7.381-.389 10.878.389 10.684 6.605 25.835 24.865 31.664 5.633 2.137 11.267 4.467 16.123 8.742 3.498-3.109 7.382-5.051 11.46-6.801l4.857-1.748c19.619-6.604 25.447-22.727 25.252-34.771l-.193-5.245-.582-4.468-1.555-10.102a30.57 30.57 0 0 1 0-10.295c.193-1.166 1.166-4.856 4.273-7.188-1.555-2.525-.193-.972-4.273 2.137 0 0-.389 2.331-2.719 4.079-.777 3.303-.973 7.771-.195 11.267l.971 6.216.777 5.051c.389 3.497.584 7.188.389 10.878-.192 9.909-6.216 25.061-25.639 30.694z" class="B C H"/></g><path d="M21.298 140.766v3.303c.194.389.194.777.583.777h.777v.193h-3.691s0-.193.194-.193h.389c.194 0 .388-.389.388-.777.194-.584.194-1.748.194-3.303v-6.217h-2.331c-.971 0-1.166.195-1.554.389 0 .389-.194.389-.194.584 0 0 0 .193-.194.193v-.193c0-.195.389-1.359.389-1.555v-.389c.194 0 .389.193.777.193.389.195.971.195 1.166.195h5.633c.777 0 1.166-.195 1.36-.195v1.943c-.194 0-.194 0-.194-.193v-.195c0-.389-.389-.777-1.749-.777h-1.942v6.217h-.001zm15.152 0c0 1.555 0 2.719.194 3.303 0 .389 0 .777.583.777h.583l.194.193h-2.137-1.748s0-.193.194-.193h.389c.388 0 .388-.389.388-.777.194-.584.194-1.748.194-3.303v-1.555H28.68v1.555c0 1.555 0 2.719.194 3.303 0 .389 0 .777.583.777h.583c.194 0 .194.193.194.193h-2.136-1.748l.194-.193h.388c.388 0 .388-.389.583-.777v-5.828-3.303c0-.389-.194-.775-.583-.775h-.583l-.194-.195h3.691s0 .195-.194.195h-.388c-.389 0-.389.387-.389.775-.194.584-.194.973-.194 3.303v.195c0 .193.194.193.194.193h6.216c.194 0 .194 0 .194-.193v-.195-3.303c-.194-.389-.194-.775-.777-.775h-.388c-.194 0-.194-.195-.194-.195h3.691l-.194.195h-.389c-.388 0-.583.387-.583.775v5.828h-.001zm4.468-2.526v-3.303c0-.389-.194-.775-.777-.775h-.389c-.194 0-.194-.195-.194-.195h5.439c.194 0 .388-.195.583-.195h.194v.777c0 .195-.194.777-.194.973v.193c-.194 0-.194 0-.194-.193v-.584c-.194-.193-.388-.389-1.166-.389h-2.136v4.08c0 .193 0 .193.194.193h2.331c.389 0 .583 0 .583-.193.194-.193.194-.193.388-.193v.193s0 .193-.194.777v1.166h-.194v-.584c-.194-.193-.194-.389-.777-.582h-2.331v3.884c0 1.166.389 1.359 1.749 1.359.388 0 .971 0 1.36-.193s.583-.584.777-1.166c0-.193 0-.193.194-.193v.193c0 .193-.194 1.166-.194 1.555s-.195.389-.777.389c-2.332 0-3.303-.195-3.691-.195h-1.748s0-.193.194-.193h.389c.389 0 .389-.389.389-.777.194-.584.194-1.748.194-3.303v-2.526h-.002zm13.015 0v-3.303c0-.389-.194-.775-.777-.775h-.388l-.195-.195h3.691s0 .195-.194.195h-.194c-.583 0-.583.387-.583.775v5.246c0 2.137.389 3.107.971 3.689.777.777 1.554.973 2.331.973.971 0 1.749-.584 2.331-1.166.583-.777.777-2.137.777-3.691v-1.748-3.303c0-.389-.194-.775-.583-.775h-.583v-.195h3.303l-.194.195h-.389c-.388 0-.583.387-.583.775v4.858c0 1.553-.194 3.303-1.359 4.467-.971.973-2.137.973-3.108.973-.389 0-1.943 0-2.914-.973-.777-.777-1.36-1.748-1.36-3.885v-2.137zm13.598 4.858c0 1.164.194 1.553.583 1.748h.777v.193h-3.496c0-.193.194-.193.194-.193h.583c.389-.195.389-.584.389-1.943v-8.547c0-.584.194-.777.194-.777.194 0 .388.389.583.584L72 139.212l3.691 3.887-.194-7.576c0-.973-.194-1.166-.583-1.359h-.777l-.194-.195h3.497l-.194.195h-.389c-.388 0-.582.387-.582 1.359v8.74c0 .973 0 .973-.195.973l-.971-.973-3.885-4.078-3.885-4.273.192 7.186zm14.569-2.332c0 1.555 0 2.719.194 3.303 0 .389 0 .777.583.777h.583l.194.193h-2.137-1.748s0-.193.194-.193h.389c.389 0 .389-.389.389-.777.194-.584.194-1.748.194-3.303v-2.525-3.303c-.194-.389-.194-.775-.583-.775h-.389c-.194 0-.194-.195-.194-.195h3.497l-.195.195h-.388c-.389 0-.389.387-.583.775v5.828zm8.547 2.525l3.108-8.158c.194-.389.194-.584.194-.584 0-.193 0-.387-.194-.387h-.583s-.194 0-.194-.195h3.302l-.194.195c-.194 0-.388 0-.777.193-.194 0-.389.389-.777 1.359l-1.749 3.885-1.749 4.662c-.582.777-.582.973-.776.973s-.194-.195-.389-.777l-3.691-9.131c-.389-.777-.583-.971-1.166-1.164h-.583v-.195h3.885s0 .195-.194.195h-.583c-.195 0-.194.193-.194.387s.194.584.389 1.166l2.915 7.576zm7.771-5.051v-3.303c0-.389-.195-.775-.582-.775h-.584v-.195h5.244c.195 0 .584-.195.584-.195h.193c.195 0 .195 0 .195.195 0 0-.195.195-.195.582v.973c0 .193-.193.193-.193.193s-.195 0-.195-.193v-.584c-.193-.193-.193-.389-.971-.389h-2.137v4.273h2.332c.387 0 .582 0 .775-.193 0-.193.195-.193.195-.193v.97c0 .193-.195.777-.195.971v.195h-.193v-.584c0-.193-.195-.389-.777-.582h-2.137v3.884c0 1.166.195 1.359 1.555 1.359.389 0 1.164 0 1.553-.193s.584-.584.584-1.166c0-.193.193-.193.193-.193v.193c0 .193 0 1.166-.193 1.555 0 .389-.195.389-.777.389-2.137 0-3.107-.195-3.691-.195h-1.552v-.193h.582c.193 0 .389-.389.389-.777v-5.829h-.002zm9.906-3.691s.195 0 .195-.193h.971c1.555 0 2.525 1.166 2.525 2.914 0 1.166-.389 1.941-.777 2.33-.389.195-.777.389-1.166.389-.582 0-1.359-.193-1.553-.389 0 0-.195 0-.195-.193v-4.858zm-1.164 6.217v3.303c0 .389-.195.777-.389.777h-.584v.193h3.69s0-.193-.193-.193h-.584c-.389 0-.582-.389-.582-.777-.195-.584-.195-1.748-.195-3.303v-.389h2.136c.389.389 1.166 1.359 1.748 2.332.777.971 1.361 1.748 1.943 2.137.389.193.777.193 1.555.193h1.553l-.193-.193h-.582c-.389 0-.973-.195-1.75-.973-.971-.971-1.941-2.33-3.107-3.885 1.166-1.166 1.748-2.33 1.748-3.496 0-.971-.777-1.748-.971-1.943-.777-.582-1.943-.582-2.719-.582h-3.691v.195h.582c.389 0 .584.387.584.775v5.829h.001zm10.684 4.08c-.195 0-.195 0-.195-.389 0-.777.195-1.359.195-1.748v-.195c.193 0 .193 0 .193.195v.582c.195 1.166 1.166 1.555 2.137 1.555 1.555 0 2.137-1.166 2.137-2.137s-.389-1.555-1.748-2.525l-.582-.584c-1.555-1.359-1.943-2.33-1.943-3.303 0-1.553 1.166-2.719 3.109-2.719.582 0 .971.193 1.359.193.389.195.389.195.582.195v1.944c-.193 0-.193 0-.193-.195s0-.582-.195-.777c0-.193-.389-.775-1.941-.775-.973 0-1.75.582-1.75 1.748 0 .775.389 1.359 1.75 2.525l.582.387c1.748 1.361 2.137 2.139 2.137 3.498 0 .582-.389 1.748-1.359 2.33-.584.584-1.359.584-2.137.584s-1.361-.001-2.138-.389zm10.49-4.08v3.303c0 .389.193.777.582.777h.777v.193h-3.691v-.193h.582c.195 0 .389-.389.389-.777v-5.828-3.303c0-.389-.193-.775-.389-.775h-.582v-.195h3.302v.195h-.389c-.389 0-.582.387-.582.775v5.828h.001zm8.158 0v3.303c0 .389.193.777.582.777h.777v.193h-3.691v-.193h.584c.193 0 .389-.389.389-.777v-9.52h-2.137c-.973 0-1.361.195-1.555.389-.195.389-.195.389-.195.584 0 0 0 .193-.193.193v-.193c0-.195.193-1.359.389-1.555v-.389c.193 0 .389.193.777.193.389.195.971.195 1.166.195h5.438c.973 0 1.361-.195 1.555-.195v1.943c-.193 0-.193 0-.193-.193v-.195c0-.389-.389-.777-1.943-.777h-1.748v6.217h-.002zm9.324.582c0-.971-.195-1.164-.389-1.553 0-.389-1.943-3.691-2.525-4.273a7.33 7.33 0 0 0-.971-1.166c-.195-.193-.584-.193-.777-.193v-.195h3.106s-.193 0-.389.195l-.193.193c0 .193.193.389.193.582.389.389 2.525 4.273 2.914 4.662.195-.582 2.137-3.885 2.332-4.273s.389-.582.389-.777a.42.42 0 0 0-.389-.387l-.195-.195h2.914l-.193.195c-.195 0-.389 0-.777.193l-.777.777c-.389.582-2.525 4.078-2.719 4.662s-.195.971-.195 1.553v2.721c0 .389.195.777.582.777h.584c.193 0 .193.193.193.193h-2.136-1.552v-.193h.387c.389 0 .584-.389.584-.777v-2.721h-.001zm12.627-2.33c0-3.107 1.941-4.855 4.273-4.855s4.662 1.941 4.662 5.438c0 4.469-2.914 5.246-4.08 5.246-2.718-.001-4.855-2.333-4.855-5.829zm-1.361.388c0 2.719 1.75 5.828 5.635 5.828 3.689 0 6.021-2.721 6.021-6.023 0-3.496-2.525-5.633-5.828-5.633-4.078 0-5.828 3.496-5.828 5.828zm14.57-1.166v-3.303c-.195-.389-.195-.775-.777-.775h-.389c-.193 0-.193-.195-.193-.195h5.632c.193 0 .389 0 .582-.195h.195s.193 0 .193.195c0 0-.193.195-.193.582v.973c0 .193-.195.193-.195.193s-.193 0-.193-.193v-.584c-.195-.193-.389-.389-.971-.389h-2.525v4.273h2.718c.389 0 .582 0 .582-.193l.195-.193c.193 0 .193 0 .193.193 0 0-.193.193-.193.777v.971c0 .195 0 .195-.195.195 0-.195-.193-.389-.193-.584s-.193-.389-.777-.582h-2.137c-.193 0-.193 0-.193.193v4.469c.193.389.193.777.582.777h.777l.193.193h-2.137-1.748s0-.193.195-.193h.387c.389 0 .389-.389.389-.777.195-.584.195-1.748.195-3.303v-2.525h.001zM36.645 170.098c0 .777.194 2.137 1.166 2.525.777.195 1.36.195 1.554.195h.194c0 .193-.194.389-.583.389s-2.914-.195-3.885-.195c-.388 0-.583-.193-.583-.193 0-.195 0-.195.195-.195v-.971l-1.166-11.85-5.633 12.043c-.583.973-.583 1.166-.777 1.166s-.388-.193-.777-.971l-2.72-5.439-3.108-6.605-.971 10.686v1.359c0 .193.194.582.583.582a1.93 1.93 0 0 0 .777.195h.194c0 .193 0 .389-.389.389-.777 0-1.942-.195-2.137-.195s-1.36.195-1.942.195a.42.42 0 0 1-.389-.389h.971c.777-.195.777-1.166.972-1.943l1.554-15.346a.42.42 0 0 1 .389-.389s.194.193.194.389l7.187 14.568 6.799-14.568c.194-.195.194-.389.389-.389s.194.193.388.582l1.554 14.375zm6.604-7.77v-5.051c-.194-.777-.389-1.166-.971-1.359h-.971l-.194-.195c0-.193.194-.193.388-.193h7.965c.583 0 .971 0 1.166-.195h.194c.195 0 .195 0 .195.195s-.195.389-.195 1.166c0 .193-.194 1.164-.194 1.553 0 0 0 .195-.194.195 0 0-.194-.195-.194-.389v-.777c-.194-.389-.389-.582-1.749-.777h-3.108c-.194 0-.194 0-.194.195v6.41c0 .193 0 .193.194.193h3.691c.583 0 .777-.193.972-.389s.388-.193.388-.193c.194 0 .194 0 .194.193 0 0-.194.389-.194 1.166 0 .582-.194 1.359-.194 1.555v.389c-.194 0-.194 0-.194-.195s0-.389-.194-.777c0-.389-.194-.777-1.166-.777-.583 0-2.914-.193-3.303-.193-.194 0-.194.193-.194.193v6.024c0 1.748.388 1.941 2.719 1.941.583 0 1.554 0 2.137-.193.776-.389.971-.777 1.165-1.748 0-.195 0-.389.195-.389s.194.193.194.389-.194 1.748-.389 2.33-.389.584-1.165.584c-3.691 0-5.245-.195-5.828-.195-.194 0-1.554.195-2.331.195-.194 0-.389-.195-.389-.195 0-.193.195-.193.195-.193.194 0 .583 0 .777-.195.388 0 .583-.582.583-1.166.194-.971.194-2.912.194-5.049v-4.083h-.001zm16.124 4.08c0 3.496.194 4.855.583 5.244s.971.582 2.719.582c1.36 0 2.331 0 2.914-.582.194-.389.583-.971.583-1.555 0-.193 0-.193.194-.193s.195 0 .195.389c0 .193-.195 1.553-.389 2.33-.194.389-.194.584-1.554.584-3.302 0-4.856-.195-6.216-.195-.194 0-1.554.195-2.331.195-.194 0-.388-.195-.388-.195 0-.193.194-.193.194-.193.389 0 .583 0 .777-.195.389 0 .583-.582.777-1.166v-9.129-5.051c0-.778-.194-1.166-.971-1.359h-.777c-.194 0-.194-.195-.194-.195 0-.193 0-.193.388-.193h5.05c.194 0 .389 0 .389.193 0 0 0 .195-.194.195h-.777c-.583 0-.777.582-.971 1.359v9.13h-.001zm13.792-9.908c0-.193 0-.193.194-.193.389-.195.971-.195 1.166-.195 2.331 0 3.108 2.137 3.108 4.08 0 .971-.389 1.748-.777 2.33-.582.584-.777.584-2.137.584H73.36c-.194-.195-.194-.195-.194-.389V156.5h-.001zm-1.943 9.908v5.049c-.194.584-.389 1.166-.777 1.166-.194.195-.389.195-.777.195v.193s0 .195.194.195c.777 0 2.331-.195 2.331-.195.194 0 2.525.195 3.108.195 4.079 0 6.022-2.525 6.022-5.051 0-2.721-2.332-4.469-4.08-5.051 1.166-.973 2.137-2.137 2.137-4.08 0-1.166-.777-3.496-4.662-3.496h-2.525-2.525c-.389 0-.389 0-.389.193 0 0 0 .195.195.195h.776c.777.193.972.582.972 1.359v9.133zm1.943-2.525v-.195c.389 0 1.554 0 1.942.195.583 0 1.166 0 1.943.582 1.748 1.166 2.137 3.303 2.137 4.662 0 2.719-1.943 3.303-3.108 3.303-.583 0-1.554 0-2.137-.389-.777-.389-.777-.584-.777-1.748v-6.41zm14.18-.195c0-5.244 2.914-7.77 6.799-7.77 3.692 0 6.993 3.107 6.993 8.74 0 6.605-4.273 7.965-6.41 7.965-4.273 0-7.382-3.496-7.382-8.935zm-2.331.582c0 4.275 2.72 9.131 9.13 9.131 5.633 0 9.325-4.273 9.325-9.518 0-5.439-3.885-8.742-9.13-8.742-6.605 0-9.325 5.439-9.325 9.129zm23.117-1.942v-5.051c0-.778-.195-1.166-.971-1.359h-.777c-.195 0-.195-.195-.195-.195 0-.193 0-.193.389-.193h4.857c.387 0 .387 0 .387.193 0 0 0 .195-.193.195h-.582c-.584 0-.777.582-.777 1.359v8.158c0 3.496.582 4.857 1.748 5.828 1.166 1.166 2.137 1.359 3.496 1.359s2.721-.777 3.691-1.748c.971-1.359 1.359-3.303 1.359-5.633v-2.914c0-3.691 0-4.273-.193-5.051 0-.777-.195-1.166-.973-1.359h-.775l-.195-.195c0-.193.195-.193.389-.193h4.468c.193 0 .389 0 .389.193l-.195.195h-.582c-.584 0-.777.582-.973 1.359v7.381c0 2.525-.193 5.439-2.137 6.994-1.748 1.555-3.496 1.748-4.855 1.748-.777 0-3.109 0-4.662-1.555-1.166-1.164-2.137-2.719-2.137-6.215v-3.301h-.001zm22.144-5.633c0-.195 0-.195.195-.389h1.553c2.525 0 4.08 1.748 4.08 4.662 0 1.748-.582 2.914-1.555 3.496-.389.389-1.164.389-1.748.389-.971 0-1.941 0-2.33-.195-.195-.193-.195-.193-.195-.389v-7.574zm-1.941 9.713v5.049c-.195.584-.195 1.166-.777 1.166-.195.195-.389.195-.584.195s-.193 0-.193.193c0 0 0 .195.389.195.582 0 2.137-.195 2.137-.195.193 0 1.555.195 2.914.195.193 0 .389-.195.389-.195 0-.193-.195-.193-.195-.193-.193 0-.777 0-1.166-.195-.582 0-.775-.582-.775-1.166-.195-.971-.195-2.912-.195-5.049v-.584c0-.193 0-.193.195-.193h2.914s.193 0 .193.193c.582.584 1.555 2.137 2.525 3.496 1.359 1.75 2.137 2.914 3.107 3.303.777.389 1.361.584 2.525.584h1.748c.389 0 .584-.195.584-.195 0-.193-.195-.193-.195-.193h-.971c-.582-.195-1.555-.389-2.914-1.748-1.359-1.555-2.914-3.498-4.855-6.023 2.137-1.941 2.914-3.689 2.914-5.439 0-1.553-.973-2.719-1.555-3.107-1.359-.777-2.914-.971-4.273-.971h-2.914-2.525c-.195 0-.389 0-.389.193 0 0 0 .195.193.195h.777c.777.193.973.582.973 1.359v9.13h-.001zm19.619 3.496c.193 1.941.389 2.525.971 2.719.389.195.973.195 1.166.195s.193 0 .193.193c0 0-.193.195-.387.195-1.361 0-2.332-.195-2.525-.195s-1.166.195-2.139.195c-.387 0-.387-.195-.387-.195 0-.193 0-.193.193-.193s.582 0 .777-.195c.582-.193.777-.777.777-2.914v-13.402c0-.973.193-1.166.193-1.166.195 0 .584.582.971.777.389.389 3.691 4.078 7.383 7.965 2.33 2.525 4.855 5.438 5.633 6.021l-.389-11.656c0-1.553-.193-2.137-.777-2.33h-1.164c-.195 0-.195-.195-.195-.195 0-.193.195-.193.389-.193h4.468c.193 0 .387 0 .387.193 0 0 0 .195-.193.195h-.582c-.777.193-.973.582-.973 2.137v13.598c0 1.555 0 1.555-.193 1.555s-.389-.195-1.748-1.361a725.13 725.13 0 0 1-6.021-6.41l-6.023-6.604.195 11.071zm20.008-7.576v-5.051c0-.778-.193-1.166-.971-1.359h-.777c-.195 0-.195-.195-.195-.195 0-.193.195-.193.389-.193h7.964c.389 0 .777 0 .973-.195h.389v.195c0 .193 0 .389-.195 1.166v1.553l-.193.195c-.195 0-.195-.195-.195-.389s0-.582-.193-.777c-.195-.389-.389-.582-1.555-.777h-3.303v6.798h3.691c.582 0 .971-.193 1.166-.389s.193-.193.389-.193v.193s0 .389-.195 1.166v1.555c0 .193 0 .389-.193.389s-.195 0-.195-.195v-.777c-.193-.389-.389-.777-1.166-.777s-3.107-.193-3.496-.193v2.332c0 .775-.193 3.496 0 3.885 0 1.748.389 1.941 2.525 1.941.777 0 1.748 0 2.332-.193.582-.389.971-.777.971-1.748.193-.195.193-.389.193-.389.195 0 .195.193.195.389s-.195 1.748-.195 2.33c-.193.584-.387.584-1.359.584-3.496 0-5.051-.195-5.828-.195 0 0-1.553.195-2.137.195-.389 0-.389-.195-.389-.195 0-.193 0-.193.195-.193s.389 0 .582-.195c.584 0 .584-.582.777-1.166v-9.132h-.001zm-55.168-50.701c-6.021-4.078-14.375-5.828-22.146-4.467-4.08.775-7.576 2.33-11.072 4.467-1.166.584-2.525 1.555-3.691 2.332l-3.885 2.525c-6.604 4.273-14.958 6.41-23.311 4.467-1.749-.389-3.691-.971-5.051-2.525-.389-.389-.583-.971-.583-1.748l2.137-10.295c-2.332-1.555-5.051-2.137-7.965-2.332-1.359 0-2.72 0-3.885.195 3.497-3.109 4.468-7.576 3.302-12.044 5.633 0 10.878.777 15.735 3.108 1.359.776 3.302 2.137 3.302 3.885v11.072c4.856 0 8.742-2.137 12.626-4.662l4.468-3.107c8.353-5.439 18.066-8.354 28.75-6.994 6.021.777 11.656 3.107 16.9 6.41l4.662 3.109 1.166.775c3.885 2.525 7.77 4.857 12.627 4.857v-3.691l.195-7.964c.777-2.525 3.498-3.496 5.633-4.467 4.275-1.36 8.742-1.942 13.404-1.942-1.166 4.468 0 9.13 3.496 12.238-4.078-.777-8.352-.193-11.654 1.748-.195 0-.389.195-.389.195l1.943 10.684c-.195 1.943-2.332 2.914-4.08 3.303-7.965 2.525-16.9.777-23.506-3.303l-3.107-1.943-5.244-3.496-.777-.39z" class="B I"/><path d="M113.764 111.434c-6.799-4.273-15.346-6.217-23.893-4.662-4.662.971-8.742 2.914-12.627 5.439l-6.41 4.078c-5.828 3.885-13.015 5.635-20.397 4.469-2.331-.389-4.467-.973-6.216-2.525-.388-.389-.583-.584-.583-1.166l1.942-9.518c2.137 2.523 5.633 3.107 8.936 3.301 4.856.195 8.936-1.553 12.821-3.885l6.993-4.467c7.77-5.051 16.9-7.577 26.807-6.217 5.828.582 10.879 2.719 15.93 5.633l4.467 2.721 4.469 2.914c4.273 2.912 9.324 4.273 14.957 3.301 2.139-.389 4.662-.971 6.217-3.107l1.748 9.713c-.193 1.555-1.748 2.137-2.914 2.719-8.74 2.914-18.453.584-25.447-4.273l-6.8-4.468zm-58.665-1.166c-3.302 0-6.41-.582-8.741-2.719-.388-.584-.777-1.166-.388-1.75.776-1.748 2.914-1.941 4.467-2.525 1.749-.389 3.302-.775 4.662-2.137v9.131zm91.299-4.858c.389.389.584 1.166.389 1.75-.777 1.359-2.525 2.137-3.885 2.719-1.748.389-3.496.777-5.439.777v-9.131c2.525 2.332 6.217 1.944 8.935 3.885zm-93.825-9.324c1.166.777 2.72 1.75 2.525 3.303-.194 2.137-2.525 2.721-4.274 3.109-1.942.775-4.662.971-5.633 3.301-2.914-1.941-6.605-2.525-10.49-2.33 2.719-2.914 3.497-6.994 2.719-10.684 5.44.194 10.685.776 15.153 3.301zm102.956-2.913c-.777 3.886-.195 7.771 2.33 10.878-3.689-.193-7.381.389-10.488 2.137-.389-1.553-1.943-2.137-3.109-2.525-2.137-.777-4.662-.971-6.41-2.719-.389-.582-.389-1.555-.193-2.332 1.748-2.525 4.662-3.301 7.381-4.079 3.302-.972 6.798-1.36 10.489-1.36z" stroke-width=".28" class="C D E B"/><path d="M46.357 117.648c.194 0 .194-.193.388-.389l.583-4.467c0-.195 0-.195-.194-.389l2.525.193c1.165.195 1.749 1.166 1.554 1.943s-.777 1.555-2.137 1.359l-1.166-.193-.194 1.748c0 .193 0 .389.194.389v.193l-1.553-.387zm1.748-2.912l.971.193c.777.193.972 0 1.166-.582 0-.584-.194-.777-.972-.777l-.972-.195-.193 1.361zm6.217-1.554c1.554.193 2.525 1.359 2.331 2.914 0 1.553-.971 2.719-2.525 2.719s-2.525-1.359-2.331-2.914c-.001-1.553.971-2.719 2.525-2.719zm-.195 4.855c.971 0 1.554-.777 1.554-1.941s-.389-1.943-1.36-1.943-1.554.584-1.554 1.748c.001 1.359.389 1.943 1.36 2.136zm4.468-.971h.194c0 .389.972.582 1.36.389.971-.195 1.36-.582 1.166-1.166-.194-.971-3.303.389-3.691-1.553-.194-.777.194-1.555 1.554-1.943h1.359c.194 0 .389.193.583 0h.194l-.389 1.359h-.194v-.193c0-.195-.583-.584-1.359-.389-.583.193-.777.582-.777.777.194 1.164 3.303-.389 3.691 1.748.194.777-.388 1.941-1.942 2.137-.389.193-.971.193-1.166 0h-.777v.193h-.194l.388-1.359zm6.8-.388v-.193c.194 0 .194-.195 0-.389l-1.554-3.691-1.166.582c-.194 0-.388 0-.194.195l-.194.193-.583-1.164.194-.195c0 .195.194.195.388 0l3.108-1.359c.388-.195.388-.195.388-.389l.583 1.166h-.194c0-.195-.194-.195-.389 0l-1.166.582 1.748 3.691c.195.193.195.193.389.193v.195l-1.358.583zm4.661-3.496l1.943-1.359c.194-.195.389-.195.194-.389h.194l.583.971v.193c-.194-.193-.194-.193-.389 0l-3.107 1.943h-.195c.195-.193.195-.389.195-.389l-2.525-3.885c-.194-.195-.194-.195-.389-.195h-.195l3.109-1.941c.194-.195.194-.195.194-.389v-.193l.777 1.164h-.195-.388l-1.749 1.359.583.973 1.166-.584c.194-.193.194-.193.194-.389h.194l.583.973c-.194 0-.194 0-.389.193l-1.166.584.778 1.36zm3.692-1.36v-.195-.389l-2.525-3.885c-.194 0-.194-.193-.389 0v-.193l2.137-1.361c.971-.582 1.748-.582 2.331.195.389.777.389 1.359-.194 1.941l1.554.973c.389.193.583.389.777.193l.194.195-1.359.775v-.193c0-.193 0-.193-.195-.193l-1.748-.973-.777.389.971 1.555c.194.193.194.193.389.193l.194.195-1.36.778zm-.583-3.302l.971-.777c.583-.193.583-.582.389-.971-.389-.389-.583-.584-1.166-.195l-.971.584.777 1.359zm4.662.582l-.194-.193c.194 0 .194-.195.194-.195l-.777-4.662v-.389h-.389v-.193l1.554-.777v.193c-.194 0-.194.195 0 .195 0 0 0 .193.194.389l3.302 3.107c.194.195.194.195.389.195l-1.165.777v-.388l-.194-.195-.583-.582-1.748.777.194.971v.193s.194.195.388 0v.195l-1.165.582zm1.748-3.303l-1.749-1.553.583 2.137 1.166-.584zm7.382-6.022l-.389 1.555v-.195c-.194-.387-.777-.582-1.359-.387-.777.387-1.36.971-.777 2.33.194 1.166.972 1.748 1.943 1.359.583-.193.971-.582.777-.971v-.195l1.166.777h-.194c-.194.195-.388.973-1.554 1.359-1.554.389-2.719-.582-3.302-1.941-.583-1.943.388-3.107 1.748-3.496a1.235 1.235 0 0 1 1.166 0h.388c.194 0 .194 0 .194-.195h.193zm1.942 4.858v-.195l.194-.193-.777-4.662c0-.195 0-.195-.194-.195v-.193l2.525-.389c1.166-.195 1.943.389 1.943 1.359.194.777-.195 1.359-.972 1.555l1.166 1.553c.195.389.389.584.583.584v.193l-1.554.195v-.195s.194 0 .194-.193l-.194-.195-1.166-1.553h-.777l.194 1.941c0 .195 0 .195.194.195v.193l-1.359.195zm.777-3.303l1.166-.195c.583 0 .777-.387.777-.775 0-.584-.388-.777-.971-.584l-1.166.195.194 1.359zm5.634 1.748h2.331c.195 0 .389 0 .389-.195h.193v1.166h-.193s-.193-.193-.389-.193H93.95c.194 0 .194-.195.194-.389v-4.662c0-.195 0-.195-.194-.195v-.193h3.498c.389 0 .389 0 .389-.193h.193v1.359h-.193c0-.195 0-.195-.389-.195H95.31v1.361h1.36c.194 0 .194 0 .194-.195h.195v1.166h-.195c0-.195 0-.195-.194-.195h-1.36v1.553zm3.885-.582h.193v.193c0 .389.777.582 1.359.777.973.193 1.361-.195 1.361-.584.193-1.164-3.303-.971-2.914-2.912 0-.777.777-1.361 2.137-1.166.582 0 .971.193 1.164.389.389.193.389.193.584.193h.388l-.973 1.166h-.193v-.193c0-.195-.389-.777-1.166-.777-.582-.195-.971.193-.971.389-.193 1.164 3.303.777 2.914 2.912 0 .777-.971 1.555-2.525 1.361-.582 0-.971-.195-1.166-.389-.389-.195-.389-.195-.582-.195h-.388l.778-1.164zm9.518-1.555l-.971.971v-.193c0-.389-.389-.777-.777-.971-.971-.195-1.748.193-2.137 1.553-.389.971.193 1.943.971 2.137.584.195 1.166 0 1.361-.389v-.193l.582 1.359c-.195 0-.195 0-.195-.193-.193 0-.775.582-2.137.193s-1.941-1.748-1.553-3.303c.389-1.748 1.941-2.33 3.303-1.941.387.193.775.389.971.582l.389.389.193-.193v.192zm-1.359 4.856l.193-.193s.195 0 .195-.195l3.107-3.496c.195 0 .195-.193.195-.193.193 0 0-.195 0-.195v-.193l1.553.777c-.193 0-.193 0-.389.193v.389l-.389 4.469c0 .193.195.389.195.389v.193l-1.359-.582v-.195h.193c.195 0 .195-.193.195-.193v-.973l-1.748-.775-.584.775h-.193c0 .195 0 .195.193.389v.195l-1.357-.586zm3.691-.776l.193-2.332-1.359 1.748 1.166.584zm.971 2.719l.193-.193c0 .193.195 0 .195 0l2.525-4.08c.193-.195.193-.195 0-.195v-.193l1.555.971v.195h-.195c-.193.193-.582 2.719-.582 3.303 1.164-.973 2.525-1.943 2.719-1.943 0-.195 0-.195-.193-.195l.193-.193 1.555.971h-.195s-.193 0-.193.195l-2.525 4.078c-.195 0 0 .195 0 .195v.193l-1.166-.777v-.193c.195.193.195.193.389 0l1.943-3.303c-1.166.973-2.525 1.748-3.691 2.721v-.195l.777-4.273-1.943 3.107c-.193.195-.193.389 0 .389v.195l-1.361-.78zm10.683.778c0-.195 0-.195-.193-.389v-.195l1.553.973-.193.193c-.193-.193-.193-.193-.389 0l-2.33 3.496 1.941 1.166c.195.195.389.195.389 0l.195.195-.777.971c0-.193 0-.193-.195-.389l-3.107-1.943.193-.193c.195.193.195.193.389 0l2.524-3.885zm.973 6.798v-.195h.387l3.303-3.496c0-.193.195-.193.195-.193 0-.195 0-.195-.195-.195v-.193l1.555.777c-.193 0-.193 0-.193.193 0 0 0 .195-.195.389l-.389 4.469v.582l-1.359-.582.193-.195h.195v-.193l.193-.973-1.748-.775-.582.582c-.195 0-.195.193-.195.193s0 .195.195.195l-.195.193-1.165-.583zm3.689-.582l.389-2.332-1.555 1.748 1.166.584zm4.469-1.943v.193c-.195 0-.389 0-.389.195l-.777 2.914c-.193.777.195 1.164.971 1.359.584.193 1.166-.195 1.361-.777l.775-2.914c0-.193 0-.389-.193-.389v-.193l1.359.389v.193c-.193 0-.193 0-.193.195l-.777 2.914c-.389 1.164-1.166 1.748-2.721 1.553-1.359-.389-1.748-1.359-1.553-2.525l.777-3.107c0-.195 0-.195-.195-.195v-.193l1.555.388zm3.885 1.166c0-.195-.193-.195-.389-.195v-.193h2.332c1.748 0 2.525 1.359 2.525 2.719 0 1.943-.973 2.721-2.721 2.721h-2.137c.195-.195.195-.195.195-.389l.195-4.663zm.971 4.273h.584c1.359 0 1.748-.389 1.941-1.943 0-1.359-.582-1.748-1.941-1.748h-.584v3.691zm6.216-.584l2.33-.582c.195 0 .195 0 .195-.193h.193l.389 1.164h-.193c0-.193-.195-.193-.389-.193l-3.691.971c.195-.193.195-.193.195-.389l-1.166-4.467c0-.195 0-.195-.389-.195v-.193l3.496-.973c.195 0 .389 0 .389-.193l.389 1.166h-.193c0-.195-.195-.195-.389 0l-2.137.582.389 1.166 1.164-.195c.389-.193.389-.193.389-.387h.195l.193 1.164h-.389l-1.359.389.389 1.358z" class="B I"/><g class="C B"><g class="E"><path d="M89.871 38.199l-.389-.389c-.194-1.748-.583-3.69-2.137-4.856-4.274-1.554-9.13-.583-13.404-1.942 0 0-2.914-.777-4.856-1.166s-3.108-.583-4.662-.971c-1.749-.583-3.497-.971-5.634-1.36 1.36 4.274 10.101 6.799 12.433 7.188.583.194 1.748.388 3.496.777 3.303.971 6.993.777 9.713 3.108l-6.41-1.554c-.777-.194-1.554-.389-2.914-.583.194 1.554 1.166 2.72 2.137 3.108 3.303.971 4.468 1.166 6.411 2.331.388-.582 1.36-.194 1.942-.776 0-.972.194-1.749 1.943-1.554.194-.583 1.36-1.166 1.554-1.166-.388.583-.777 1.166-.777 1.748 0 0-1.36-.194-1.942.194-.389.389.194 1.166.194 1.749-.583 0-1.942-.389-2.137.388s.389 1.166.777 1.36c-.972.582-2.331-.195-2.525.777s.388.777.777 1.166l-1.166 1.165s1.748.972 2.914 1.36c1.359-1.554 2.331-2.137 3.885-2.525.972-1.749 2.331-2.331 3.886-2.331-2.138-1.556-3.109-2.721-3.109-5.246zm-13.404-4.662l-2.331-.777c3.302.583 7.381.583 10.49 1.749 1.36.583 1.942 1.942 2.331 3.302-2.72-3.303-6.022-3.303-10.49-4.274zm44.484 49.535l-3.885-4.662c-.582-.194-.777-.971-.777-.971-2.719-.389-4.273-2.525-7.188-1.943-2.525-.194-5.051-1.554-3.496-3.108-.584-.194-.971-.388-1.166-.971s.389-.972.389-1.36c-.389.194-1.359.777-1.555 1.554-.389.971 1.943 3.302 2.525 4.079l4.273 3.885c.389.971 1.943 2.137 1.943 2.719-.389 0-.777-.194-.971-.388-3.303-2.72-6.605-5.828-8.549-9.519-.193.194-.387 0-.582-.194-.971-.583-.582-1.942-1.166-2.914-.193 0-.387-.194-.582-.194-.389 0-.389.583-.582.971 0 0 0 .777.193 1.943.389 1.165-1.941-.972-2.525-1.555 0 .583.389 1.555.584 2.137-.195.194-.389 0-.777 0-1.166-.194-1.943-2.331-2.526-2.525s-.583.583-1.36.194c-.389-.583-.389-.777-.194-1.36.582-.389.582-1.166 0-.972-.389.195-.583.389-1.749-.194-.777.194-1.36.583-.583 2.914.777 1.166 1.554 2.136 2.332 3.302l3.107 4.662 4.08 6.604 1.748 2.525c.582 1.36 3.885 2.914 2.525 3.885-2.719 3.691.777 4.467.777 4.467 2.914.584 2.914-1.165 3.885-2.33.389-.583 1.748-.389 1.359.777 0 0-.389.777-.775.972-2.914 1.943 1.359.777 2.33.582 0 0 .971 0 0 1.361-.582 1.359 2.137.971 2.914.582 2.525-1.359 1.941-2.331 3.496-3.108 2.332-1.166 4.08-1.554 3.885-4.468-1.941-1.166-6.799-6.022-6.799-6.022h.195l3.885 2.72 2.525 1.943c.389.194 1.166.777 1.359 1.166 0 1.554-.582 3.302-2.137 4.079-.971.583-3.303.777-3.691 2.525.389.777 2.137.777 3.691.389 2.719-.971 2.719-2.136 3.885-4.856.389-1.166 1.359-1.166 2.525-.971-2.133-2.136-4.658-6.216-6.795-8.352zm-9.906 7.187c-.584-1.166-2.137-2.914-3.109-4.079l-7.381-10.296c2.137 1.554 10.295 12.433 10.295 12.433.388 1.165.388 1.554.195 1.942zm-10.102-45.844S99 46.94 97.64 47.718c-1.36.583-2.525.777-3.108.583 1.554-.389 1.942-.389 3.108-1.554-1.36.583-1.942.583-2.914.583s-1.166-1.166-1.166-.777c-.194.777-.777 1.554-.777 1.554-.389 1.166-1.942 2.137-.971 3.496.389.777 1.166.972 1.942.972 0 .194-.388.389-.194.583.583.194 1.555-.777 6.605 0 2.914-1.36-.389-7.187 1.943-9.324.195-.196-.776.192-1.165.581zm-2.332 8.159c-1.164.194-1.359 0-2.136-.194s-1.166-.777-1.166-1.36c0 0 .777 1.166 2.526 1.166 1.359 0 1.748-.389 2.137-.777.001-.001-.195 1.165-1.361 1.165z" class="D F"/><path d="M69.474 58.401l2.331-.583-1.166 1.942 1.942 1.359-2.331.194c0 .777.194 1.554.194 2.331l-1.748-1.554c-.583.583-1.166.971-1.748 1.554l.194-2.137c-.777-.389-1.554-.389-2.331-.583l1.943-1.359-.972-1.942 1.942.777c.583-.777.777-1.554.972-2.137.195.584.389 1.362.778 2.138zm13.015 3.303c.777 0 1.554-.389 2.331-.583l-1.166 1.943c.777.388 1.36.971 1.942 1.554l-2.331.194c0 .583.194 1.359.194 2.331l-1.749-1.554c-.583.388-1.165.971-1.748 1.554 0-.777 0-1.554.194-2.331-.583-.194-1.554-.194-2.137-.389l1.942-1.36-1.166-1.943 2.137.583c.388-.583.388-1.359.776-2.137l.781 2.138zm-15.54 13.403l2.331-.582-1.166 1.942c.583.388 1.36.777 1.942 1.359l-2.331.194c0 .777.194 1.554.194 2.331-.583-.583-1.165-.971-1.748-1.554-.583.583-1.166.971-1.748 1.554l.194-2.137c-.583-.389-1.554-.389-2.137-.583.583-.388 1.36-.777 1.943-1.359l-1.166-1.943c.777.195 1.36.583 2.137.777.194-.777.583-1.359.777-2.137l.778 2.138zm15.345.777h2.137l-1.748 1.166.583 2.137-1.555-1.36-1.748 1.36.583-2.137c-.389-.389-.971-.777-1.555-1.166h1.943c.388-.583.388-1.359.776-1.942l.584 1.942z" stroke="#fff" class="H"/></g><use href="#C"/></g><g class="E G"><use href="#C" stroke="#fff" class="H"/><path stroke-width=".86" d="M16.053 150.479h160.843" class="D"/></g><defs ><path id="B" d="M98.807 34.896c.582.194 1.748 1.36 2.137 2.137a.94.94 0 0 1-.389 1.166c-.389.195-.582.583-.777.777.195-.388 0-.583-.193-.777s-.584-.583-.777-.971c-1.166 0-3.303 0-3.303-.971.194-.194 1.748 0 2.137 0 .582 0 1.166 0 1.748.388H99c.195.389.584.583.973.389.193 0 .193-.389.193-.583-.193-.388-.777-.388-1.359-.583h-3.691c-.389-.194-1.166-1.166-1.555-1.36 0-.194.194-.194.389-.194 1.36.388 3.302.388 4.857.582z"/><path id="C" d="M82.489 89.676c.777-.194 1.36-.583 2.137-.777l-.971 1.943 1.749 1.554c-.583 0-1.554 0-2.137.194v2.331l-1.555-1.554-1.748 1.554V92.59c-.583-.194-1.36-.194-2.137-.389.583-.583 1.36-.971 1.942-1.359l-.971-1.943 1.943.777.971-2.137.777 2.137z"/></defs></svg>