<svg xmlns="http://www.w3.org/2000/svg" width="700" height="205" xmlns:v="https://vecta.io/nano"><g fill="#9c9a9b"><path d="M44.29 49.028l4.357 5.633 3.198-2.474-7.096-9.171-2.504 1.935c.994 1.546-.433 3.406-2.194 4.728l1.273 1.646 2.967-2.297m11.564-5.292c.221-.898.857-1.428 1.815-1.922 1.398-.718 2.554-.434 3.072.574s-.149 2.169-1.466 2.848c-1.019.524-2.462.665-2.901-.14l-3.395 1.746c1.468 2.369 4.307 1.995 7.344.436 3.237-1.663 5.061-4.206 3.754-6.753-1.102-2.146-3.544-2.426-6.401-.96-1.059.544-1.896 1.274-2.337 2.136l-.04.02-.447-2.147 6.175-3.17-1.094-2.131-8.792 4.513 1.636 6.53 3.077-1.581m73.656-3.565c-1.062-.535-2.144-.785-3.102-.635l-.04-.02 1.475-1.621 6.194 3.127 1.08-2.137-8.82-4.455-4.321 5.162 3.089 1.561c.855-.352 1.661-.15 2.622.334 1.403.71 1.852 1.815 1.343 2.823s-1.843 1.157-3.166.489c-1.022-.517-1.986-1.601-1.593-2.427l-3.408-1.723c-1.052 2.583.918 4.658 3.965 6.199 3.247 1.641 6.378 1.621 7.67-.933 1.087-2.155-.121-4.294-2.989-5.743m13.645 9.363c-.641.828-1.941.895-3.222-.095-1.243-.962-1.471-2.209-.809-3.065.589-.765 1.943-.79 3.08.09 1.298 1.002 1.581 2.252.951 3.07zm.401-4.927c-2.576-1.993-5.783-2.324-7.3-.364-1.383 1.79-.721 4.424 1.731 6.321 1.065.826 2.435 1.439 3.534 1.155l.036.027c-1.006 1.157-2.459 1.823-4.092.559-.374-.286-.713-.655-.904-1.034-.201-.364-.258-.768-.107-1.112l-2.825-2.184c-.887 2.03.128 4.094 2.385 5.84 3.946 3.047 7.181 1.91 9.226-.733 1.902-2.464 1.922-5.685-1.685-8.473M15.473 92.162c2.035.673 3.529-1.289 4.715-3.337 1.194-2.065 2.08-4.209 2.949-3.922.74.244.609 1.387.327 2.239-.405 1.217-1.168 2.409-2.173 2.002l-1.313 3.965c2.551.823 4.65-1.862 5.652-4.893.95-2.86 1.094-6.523-1.368-7.338-2.07-.686-3.553 1.355-4.732 3.373-1.187 2.045-2.094 4.159-3.091 3.825-.836-.276-.741-1.618-.345-2.812.555-1.682 1.351-2.649 2.704-2.295l1.316-3.967c-2.899-.933-5.058 1.781-6.219 5.274-1.107 3.346-1.28 6.937 1.579 7.885m-1.307 19.987l.319-4.164c-1.351-.262-2.094-1.446-1.944-3.396.209-2.686 2.047-3.581 3.806-3.444s3.436 1.302 3.23 3.988c-.134 1.747-.862 2.955-2.074 3.084l-.322 4.164c2.863.113 4.778-3.503 5.041-6.957.375-4.833-2.121-8.178-5.554-8.443s-6.415 2.659-6.788 7.496c-.311 4.055 1.248 7.22 4.285 7.673m9.144 13.412l-4.265.731-.934-5.421 4.264-.733-.709-4.119-11.708 2.017.709 4.119 4.821-.833.934 5.424-4.821.833.71 4.116 11.706-2.017-.708-4.117m.82 20.106c-1.609.721-3.639.501-4.744-1.96s.086-4.125 1.695-4.846 3.641-.499 4.744 1.96-.082 4.124-1.695 4.846zm4.126-5.935c-2.069-4.611-5.739-6.092-8.884-4.683s-4.478 5.137-2.411 9.75 5.736 6.086 8.879 4.68 4.482-5.134 2.416-9.747m7.372 13.141l-2.531-3.326-9.451 7.197 7.061 9.276 2.117-1.611-4.527-5.953 7.332-5.583m7.656 18.807l-2.759-2.372 4.09-1.97.035.028-1.366 4.314zm-10.398-3.097l3.257 2.795 2.154-.958 4.243 3.646-.637 2.257 3.305 2.84 3.189-12.919-3.219-2.766-12.291 5.105m45.39 14.393c1.65.341 2.845 1.217 2.77 2.239l4.09.848c.231-2.995-2.976-5.002-6.232-5.679-4.751-.984-8.388 1.067-9.087 4.439s1.822 6.698 6.573 7.683c1.452.301 3.381.294 4.691-.606l-.021 1.32 2.638.549 1.322-6.372-6.598-1.366-.466 2.247 2.86.593c-.44 1.012-1.95 1.431-3.973 1.01-2.638-.547-3.294-2.485-2.935-4.21s1.727-3.244 4.368-2.695m17.222 8.349l-.115-2.259 7.851-.399-.122-2.394-7.851.401-.105-2.076 8.59-.439-.126-2.477-12.763.648.604 11.864 12.988-.658-.135-2.658-8.817.447m22.048-13.324l2.177 6.99-.042.012-7.495-5.333-4.096 1.277 3.532 11.343 3.752-1.169-2.201-7.069.043-.016 7.52 5.414 4.098-1.277-3.534-11.341-3.752 1.169m16.496 2.402l-1.19-1.925 6.687-4.132-1.258-2.037-6.689 4.131-1.094-1.77 7.32-4.52-1.303-2.11-10.873 6.718 6.244 10.106 11.063-6.835-1.397-2.264-7.51 4.638m12.415-21.723l4.057 8.456-.032.032-8.486-3.992-3.069 3.094 11.993 4.779 3.385-3.412-4.778-12.049-3.071 3.092m15.017-4.553l-1.935-1.174 4.078-6.721-2.05-1.242-4.076 6.721-1.778-1.08 4.459-7.353-2.119-1.287-6.626 10.929 10.157 6.16 6.745-11.123-2.277-1.378-4.577 7.547m1.34-25.769l7.01 2.111-.012.043-8.618 3.222-1.238 4.106 11.376 3.429 1.135-3.763-7.091-2.136.014-.043 8.696-3.199 1.236-4.107-11.374-3.426-1.135 3.764m10.562-21.245c-2.144-.095-3.046 2.202-3.63 4.495-.584 2.311-.853 4.615-1.769 4.575-.782-.035-.964-1.167-.924-2.065.056-1.28.465-2.633 1.544-2.517l.185-4.174c-2.678-.097-3.966 3.063-4.109 6.249-.133 3.007.725 6.573 3.318 6.688 2.178.098 3.048-2.269 3.633-4.535.586-2.292.886-4.571 1.933-4.526.882.04 1.155 1.356 1.099 2.614-.078 1.772-.579 2.919-1.98 2.947l-.184 4.173c3.042.113 4.383-3.089 4.546-6.768.158-3.526-.654-7.022-3.663-7.157"/><path d="M164.56 102.27l11.759-1.695-.596-4.135-11.759 1.694.596 4.136m1.873-9.941c2.062-.708 2.004-3.23 1.719-5.554-.295-2.344-.851-4.575.141-4.917.834-.286 1.572.838 1.979 2.028.577 1.681.53 2.93-.761 3.468l1.354 3.953c2.873-1.009 2.95-4.478 1.754-7.964-1.144-3.334-3.18-6.291-6.028-5.317-2.03.696-2.027 3.164-1.735 5.511.302 2.367.896 4.608.03 4.904-.739.253-1.324-.733-1.616-1.58-.415-1.213-.53-2.621.517-2.911l-1.358-3.952c-2.524.89-2.568 4.301-1.534 7.318.976 2.848 3.081 5.855 5.537 5.012M55.881 179.013a2.84 2.84 0 0 0 .558 3.97 2.83 2.83 0 0 0 3.968-.556c.945-1.252.695-3.027-.554-3.97a2.84 2.84 0 0 0-3.973.555M32.691 65.827c.923-1.267.646-3.037-.618-3.96s-3.037-.648-3.962.618-.646 3.037.618 3.96a2.84 2.84 0 0 0 3.962-.618"/><path d="M153.244 62.486c-.923 1.267-.646 3.037.62 3.96s3.037.645 3.96-.618.647-3.037-.618-3.96-3.037-.648-3.962.618m-53.046-30.911l-2.301 3.606h5.633v-1.746l-2.219.01 1.23-1.835-1.23-1.895 2.179-.014v-1.723h-5.593l2.301 3.596m-12.174 1.871l-1.389.015v-3.758l1.292.014V27.98h-4.633v1.736l1.287-.014v3.758l-1.372-.015v1.736h4.815v-1.736"/><path d="M94.582 30.518H91.65l.013-2.563h-2.149v7.226h2.149l-.013-2.873h2.932v2.873h2.145v-7.226h-2.145v2.563m-2.369-6.837c0-.544.392-.888.961-.888.511 0 .893.389.893.888l.027 2.553h4.008V24.09h-2.457l-.01-.549c-.015-1.538-.725-2.778-2.476-2.778-1.344 0-2.274.753-2.439 2.045-.03.274-.03.564-.03.845v.437h-2.454l-.003 2.144h3.975l.005-2.553m.961 13.196a1.29 1.29 0 1 0 0 2.58 1.29 1.29 0 1 0 0-2.58m-.173 161.083c-48.223 0-87.455-39.234-87.455-87.457 0-42.66 30.711-78.264 71.183-85.914l1.219 1.501-10.508 4.007 10.503 4.018-7.095 8.727 11.105-1.77-.368 2.291c-32.138 5.449-56.698 33.474-56.698 67.141 0 37.558 30.556 68.117 68.115 68.117s68.115-30.558 68.115-68.117c0-33.649-24.529-61.66-56.641-67.132l-.303-2.249 10.816 1.736-6.806-8.84 10.224-3.905-10.34-4.216 1.082-1.332c40.531 7.601 71.309 43.234 71.309 85.939 0 48.223-39.232 87.457-87.455 87.457zM80.172 60.556l1.573-2.673h-6.5l.76-2.78c0-1.34-1.084-2.427-2.426-2.427-.326 0-.636.067-.918.185a3.27 3.27 0 0 0 .09-.653 1.6 1.6 0 0 0-1.599-1.601c-.883 0-1.601.718-1.601 1.601 0 .176.037.409.09.653a2.37 2.37 0 0 0-.915-.185c-1.342 0-2.427 1.087-2.427 2.427l.758 2.78h-1.713a2.43 2.43 0 0 0-2.379 1.945 4.14 4.14 0 0 0-1.117-.16 3.99 3.99 0 0 0-3.509 5.89c.676-1.247 1.993-2.093 3.506-2.093a3.98 3.98 0 0 1 3.277 1.718c.085.12.163.244.233.374.206.381.324.811.396 1.254h-8.069a3.99 3.99 0 0 1-3.99-3.987v2.568a3.99 3.99 0 0 0 3.99 3.99h7.648c-.681 1.222-1.983 2.05-3.484 2.05-.077 0-.154-.005-.234-.01a3.99 3.99 0 0 0 3.287 1.726c1.704 0 3.155-1.07 3.725-2.573h10.805a3.99 3.99 0 0 1 3.99 3.987c0 1.025.005 2.469-1.018 3.564l-.995 1.493L74.6 90.122a3.99 3.99 0 0 1-5.546 1.048c-1.818-1.24-2.297-3.798-1.055-5.619 1.583-.881 2.204-2.703 1.909-4.598a4.44 4.44 0 0 0-4.843-3.72l-1.342-.03c-8.533 0-14.906-5.77-15.787-13.949 9.006-8.593 20.452-14.638 33.182-16.986l-.947 5.905 8.674-7.042 2.926 7.526v11.647l-11.6-3.747zm-35.03 92.806a1.4 1.4 0 0 1 .62-.868l8.344-4.713 2.335 2.401-.033.028.575.529.429.439.026-.02 2.98 2.738c.52.524.52 1.412-.025 1.955-.263.261-.614.409-.987.409H57.73l2.122 2.117h.287c1.477.003 2.866-.576 3.912-1.618a5.5 5.5 0 0 0 1.621-3.915c0-2.942-2.314-5.331-5.214-5.501l-2.045-2.045 26.603-16.879c-.724 8.087-7.701 17.578-14.284 23.265-3.012 3.013-4.169 6.374-4.169 9.286 0 2.572.901 4.791 2.222 6.112 1.159 1.157 2.923 1.506 4.391.861l.927-.407-.717-.718c-1.167-1.167-1.582-3.202-1.582-4.718 0-3.042.785-4.588 2.255-6.184l1.885 1.885c-.622 1.681-.922 3.376-.922 5.002 0 3.252 1.149 6.199 3.048 8.099.397.396 4.608 3.89 6.38 3.296l1.268-.429-1.08-.788c-.618-.454-2.61-2.776-3.287-4.192-.541-1.132-.863-2.491-.863-3.927 0-2.314.947-4.995 3.04-7.087.111-.164 4.725-11.55 7.079-17.036l.004 1.077.029 3.82c0 6.625-.402 12.508-3.315 15.422-1.81 1.81-5.177 2.768-5.177 2.768l.873 1.027c.085.098 1.485 2.254 3.749 2.327.54.02.964-.344 1.435-.566.118 5.19 1.095 7.224 2.84 9.179-17.406-.514-33.125-7.858-44.554-19.453l-1.174-1.927a1.37 1.37 0 0 1-.21-.733 1.46 1.46 0 0 1 .036-.319zm-5.068-5.805a1.72 1.72 0 0 1 .47-1.167 1.73 1.73 0 0 1 1.228-.574l3.98.01c-1.989.454-3.704 1.76-4.645 3.626-.488-.708-.982-1.506-1.032-1.84v-.055zM32.54 96.015l16.886-3.147c-.068.454-.064.923.115 1.381.117.304.301.554.501.783l-16.632 6.475c-2.325 1.419-2.997 4.277-1.656 6.444a4.59 4.59 0 0 0 2.871 2.068c1.202.284 2.444.08 3.493-.568l14.612-9.032c.102.449.273.883.606 1.247.217.24.48.409.749.551l-13.173 12.042c-1.655 2.164-1.252 5.069.779 6.608s4.94 1.134 6.479-.898l10.484-13.854c.243.379.548.72.981.938.231.115.474.15.714.192.052.038.1.078.151.113l-7.305 14.712c-.743 2.541.638 5.027 3.016 5.71 2.378.675 4.865-.706 5.544-3.082l4.216-14.747a19.9 19.9 0 0 0 5.723.843 15.9 15.9 0 0 0 4.189-.499l-.029 5.426-13.398 14.558c-2.298 1.885-3.131 1.985-4.623.494l-.435-.434-4.076 3.197.553.554c1.535 1.536 2.981 2.593 4.935 2.783l-5.678 2.988-3.666-3.798c-.166-2.902-2.56-5.219-5.505-5.219a5.54 5.54 0 0 0-5.533 5.531v.289l2.12 2.12v-1.676a1.39 1.39 0 0 1 .408-.987 1.4 1.4 0 0 1 1.977 0l2.718 2.957-.011.012.437.452.522.564.014-.015 1.229 1.262-1.591-.003c-1.049-.87-2.355-1.334-3.728-1.279a5.5 5.5 0 0 0-3.849 1.775 5.48 5.48 0 0 0-1.372 2.783 64.95 64.95 0 0 1-9.643-34.122 65.23 65.23 0 0 1 1.81-15.226c.815.698 1.866.962 3.071.738zm6.075-21.679a66.18 66.18 0 0 1 6.38-8.104c1.175 4.144 3.747 7.87 7.127 10.543-.465.281-.866.678-1.078 1.227a2.54 2.54 0 0 0-.161 1.057l-12.267-4.723zm10.665 9.725c-.345.459-.588 1.002-.588 1.621a2.68 2.68 0 0 0 .299 1.192l-16.906.032c.743-1.912 1.571-3.777 2.485-5.598l14.71 2.753zm49.37 48.446a4.83 4.83 0 0 1 3.982-4.753c.19 2.825 2.519 5.067 5.394 5.067h10.862c2.873 0 5.204-2.239 5.394-5.067 2.252.414 3.965 2.379 3.965 4.753 0 9.146-6.302 14.672-14.797 16.774-8.496-2.101-14.8-7.627-14.8-16.774zm9.76 20.911c-1.892.74-3.239 2.571-3.239 4.723a5.08 5.08 0 0 0 5.079 5.077h6.396a5.08 5.08 0 0 0 5.079-5.077c0-2.152-1.345-3.983-3.238-4.723 8.656-3.015 14.878-11.226 14.878-20.911 0-5.012-3.714-9.122-8.533-9.818v-3.693l-7.588-6.992V97.441h4.374v6.154h7.401v-4.653h5.438v4.653h7.401V87.142h-7.401v3.98h-5.438v-3.98h-6.139v-5.047h6.139v-3.978h5.438v3.978h7.401V67.179c10.248 11.535 16.483 26.711 16.483 43.324 0 35.514-28.481 64.479-63.798 65.304v-36.703c2.09 6.688 7.264 12.014 13.866 14.313zm-3.546-107.13c13.879 2.559 26.238 9.503 35.569 19.355h-5.975v4.459h-5.438v-4.459h-7.401v6.156h-4.374l.03-9.468a3.83 3.83 0 0 0-3.827-3.825 3.83 3.83 0 0 0-3.826 3.825l.03 49.672-7.587 6.992v3.693c-3.336.482-6.109 2.621-7.521 5.539V52.556l2.538-7.346 8.575 6.972-.793-5.895zM93.121 17.432a12.77 12.77 0 0 1 12.755 12.752 12.77 12.77 0 0 1-12.755 12.752 12.77 12.77 0 0 1-12.754-12.752 12.77 12.77 0 0 1 12.754-12.752zm19.969 2.279l1.903-2.344-11.082 1.631 1.753-10.957-8.732 7.077L92.92 4.625l-4.01 10.498-8.716-7.092 1.773 11.106-11.109-1.78 1.932 2.379C31.198 28.992 0 66.166 0 110.502c0 51.283 41.721 93.003 93.001 93.003s93.001-41.72 93.001-93.003c0-44.381-31.258-81.583-72.913-90.792"/></g><g fill="#dd0860"><path d="M244.056 92.414c-20.149 0-24.692-11.55-24.692-24.397V24.1h12.297v43.119c0 8.465 2.648 14.44 13.247 14.44 9.46 0 13.434-4.181 13.434-15.632V24.1h12.205v41.129c0 18.323-9.652 27.185-26.492 27.185m75.953-1.095l-26.002-48.398c.38 5.775.569 16.333.569 24.397v24h-11.919V24.1h15.624l26.002 47.902c-.475-6.773-.661-18.722-.661-26.989V24.1h11.919v67.219h-15.533m30.006 0h12.297V24.1h-12.297v67.219zm56.556 0H392.38L370.15 24.1h13.431l12.394 39.336c1.231 3.783 2.65 8.267 3.784 13.144h.189c.947-4.578 1.987-8.264 3.784-13.939L416.316 24.1h12.581L406.57 91.319m30.72 0V24.1h35.089v10.857H449.72v16.53h21.51v10.556h-21.51v18.223h22.659V91.32H437.29m65.526-57.062c-1.798 0-3.598.1-4.826.299v19.417c.85.1 2.553.199 4.446.199 7.379 0 11.922-3.982 11.922-10.256 0-6.473-3.784-9.66-11.542-9.66zm13.431 57.06l-17.782-27.784h-.475v27.784h-12.297V24.1c5.012-.299 10.972-.397 18.352-.397 14.098 0 23.178 5.18 23.178 18.919 0 9.959-6.621 17.131-16.27 18.722l5.201 7.371 15.328 22.604h-15.234m36.026 1.095c-4.543 0-9.083-.499-13.058-1.591l.758-12.052c3.598 1.295 8.705 2.392 13.339 2.392 6.243 0 11.069-2.688 11.069-8.862 0-12.847-26.773-6.972-26.773-29.08 0-11.949 8.988-20.216 24.314-20.216 3.595 0 7.757.5 11.544 1.195l-.664 11.353c-3.595-1.094-7.568-1.792-11.45-1.792-7.093 0-10.689 3.386-10.689 8.166 0 12.049 26.867 7.569 26.867 28.58 0 12.647-9.555 21.909-25.259 21.909m35.193-1.097h12.297V24.1h-12.297v67.219zm49.572-56.163v56.163h-12.3V35.156h-16.556V24.1h45.41v11.057h-16.554m39.911-15.436l-4.382-7.271 17.427-10.955 5.28 8.765-18.326 9.46zm-13.643 71.598V24.1h36.55v10.857h-23.604v16.53h22.406v10.556h-22.406v18.223h23.604V91.32h-36.55m-422.78 50.482l-7.865.299v45.308c1.79.299 4.479.499 7.068.499 12.65 0 21.809-7.17 21.809-23.103 0-14.44-5.676-23.003-21.012-23.003zm-2.089 57.16c-6.973 0-13.048-.299-18.722-.499v-67.02c5.275-.199 13.444-.497 21.707-.497 20.813 0 34.058 9.261 34.058 32.863 0 23.103-15.134 35.152-37.043 35.152"/><path d="M284.242 198.563v-67.219h36.547v10.857h-23.601v16.53h22.409v10.556h-22.409v18.223h23.601v11.054h-36.547m129.257-53.276c-5.375-2.092-11.549-3.386-17.823-3.386-13.247 0-22.807 8.363-22.807 23.4 0 14.241 7.77 22.607 21.411 22.607 3.187 0 5.978-.399 8.564-1.195v-23.402h12.948v32.065c-6.675 2.688-14.94 4.182-23.004 4.182-21.311 0-33.958-12.548-33.958-33.06 0-21.111 14.338-36.15 37.64-36.15 6.672 0 13.247 1.195 19.021 2.891l-1.992 12.049m16.033 53.274v-67.219h36.547v10.857h-23.601v16.53h22.406v10.556h-22.406v18.223h23.601v11.054h-36.547m89.289-.001l-27.347-48.398c.396 5.775.597 16.333.597 24.397v24h-12.548v-67.219h16.47l27.347 47.899c-.5-6.77-.7-18.719-.7-26.986v-20.913h12.548v67.219H518.82m52.02-71.497l-18.323-9.461 5.48-8.865 17.325 10.955-4.481 7.371zm-22.205 71.498v-67.219h36.545v10.857h-23.601v16.53h22.409v10.556h-22.409v18.223h23.601v11.054h-36.545m82.851-.001h-14.935l-23.402-67.219h14.141l13.043 39.336c1.295 3.783 2.788 8.267 3.986 13.146h.199c.993-4.583 2.089-8.266 3.981-13.941l13.245-38.541h13.245l-23.502 67.219m31.966 0v-67.219H700v10.857h-23.601v16.53h22.406v10.556h-22.406v18.223H700v11.054h-36.547"/></g></svg>