<svg xmlns="http://www.w3.org/2000/svg" width="299.932" height="62.287" viewBox="0 0 224.949 46.715" xmlns:v="https://vecta.io/nano"><defs><clipPath id="A"><path d="M38.844 38.836H80V85H38.844z"/></clipPath><clipPath id="B"><path d="M88 67h175.793v18.551H88z"/></clipPath></defs><g transform="translate(-38.844 -38.836)"><g clip-path="url(#A)"><path d="M64.289 68.441c-1.746-1.223-4.168-.684-5.23 1.164L52.07 81.777l27.582 2.414v-4.992zm15.363-29.605L57.762 49.043c-.465.219-.68.758-.492 1.238l.094.238c.133.328.434.543.785.605.922.156 1.754.746 2.18 1.656a2.95 2.95 0 0 1-.41 3.141c-.172.203-.223.484-.125.73.145.367.551.547.922.414l18.938-6.895zM55.121 51.309c-.234-.672-.836-1.145-1.543-1.207l-14.742-1.289 3.195 18.129 14.758-8.52c.375-.219.543-.672.398-1.082-.086-.25-.281-.445-.531-.539a2.95 2.95 0 0 1-1.949-2.773 2.91 2.91 0 0 1 .301-1.289c.219-.449.273-.957.113-1.43m2.293 13.211l-1.074-1.195a1.82 1.82 0 0 0-2.258-.359l-11.574 6.684 2.023 11.469 4.52.395 8.586-14.875a1.81 1.81 0 0 0-.223-2.117m22.238 6.063l-16.055-5.844a1.81 1.81 0 0 1-1.129-1.227l-.27-.992c-.281-1.031.383-2.078 1.434-2.266l16.02-2.824z" fill="#00783a"/></g><g clip-path="url(#B)"><path d="M202.473 77.504c0 2.133-1.613 3.691-3.809 3.691-1.477 0-2.672-.398-3.809-1.258v-2.473c.996 1.277 2.254 1.973 3.59 1.973 1.516 0 2.215-.957 2.215-1.715 0-2.812-5.887-3.133-5.887-6.863 0-2.215 1.637-3.629 4.129-3.629 1.039 0 2.078.316 3.035.957v2.215c-1.156-1.098-2.277-1.418-3.195-1.418-1.254 0-2.152.656-2.152 1.617 0 2.613 5.883 2.574 5.883 6.902m5.246 2.094c.641 0 1.301-.219 2.02-.66v1.656c-.621.34-1.578.602-2.156.602-1.937 0-2.914-1.195-2.914-2.816v-4.727h-1.555v-.199l3.332-3.25v1.852h2.832v1.598h-2.832v4.59c0 1.059.758 1.355 1.273 1.355m-29.863 0c-1.715 0-2.895-1.258-2.895-3.152 0-1.715 1.219-2.973 2.895-2.973 1.773 0 3.055 1.258 3.055 2.992 0 1.938-1.18 3.133-3.055 3.133m.019-7.719c-2.672 0-4.727 1.992-4.727 4.566 0 2.754 1.973 4.75 4.727 4.75 2.875 0 4.848-1.918 4.848-4.75 0-2.652-2.035-4.566-4.848-4.566M213.227 80a1.2 1.2 0 0 1-1.195 1.195A1.2 1.2 0 0 1 210.836 80a1.2 1.2 0 0 1 1.195-1.199A1.2 1.2 0 0 1 213.227 80m-23.883-12.59v1.734c-.297-.121-.477-.16-.797-.16-1.437 0-1.895.84-1.895 2.215v.855h1.617v1.598h-1.617v7.363h-1.777v-7.363h-1.254v-1.598h1.254v-.656c0-1.754.418-2.594 1.137-3.312.762-.758 1.777-1.117 3.332-.676m53.527 0h1.777v13.606h-1.777zm-19.789 6.902h4.57v5.766c-1.816.797-3.293 1.117-5.187 1.117-4.172 0-7.242-2.914-7.242-6.906 0-4.004 3.152-7.059 7.301-7.059 1.598 0 2.715.258 4.848 1.156v1.977c-1.594-.879-3.25-1.336-4.887-1.336-2.953 0-5.246 2.25-5.246 5.203 0 3.031 2.273 5.172 5.504 5.172 1.059 0 2.016-.242 2.953-.543v-2.793h-2.613zm25.094 1.316c.242-1.418 1.059-2.215 2.414-2.215 1.258 0 2.035.859 2.098 2.215zm2.375-3.75c-2.473 0-4.191 1.832-4.191 4.547 0 2.477 1.559 4.77 4.352 4.77 1.52 0 2.496-.34 3.57-1.059v-1.715c-1.035.68-2.051 1.078-3.133 1.078-1.715 0-2.73-.918-3.012-2.695h6.305c0-3.309-1.516-4.926-3.891-4.926m13.242 3.613v5.523h-1.777v-5.547c0-1.316-.676-2.176-1.754-2.176-.777 0-1.398.359-2.234 1.297v6.426h-1.777v-8.961h1.777v1.18h.039c.676-.859 1.676-1.355 2.676-1.355 1.695 0 3.051 1.156 3.051 3.613m-29.559 3.707c-.477.461-.996.738-1.559.738a1.22 1.22 0 0 1-1.277-1.258c0-1.059 1.32-1.574 2.836-2.094zm1.773.238v-4.605c0-2.035-1.434-2.953-3.25-2.953-1.297 0-2.273.398-2.973 1.215v1.938c.859-1.02 1.855-1.477 2.832-1.477 1.078 0 1.617.457 1.617 1.574v.48l-1.578.559c-1.434.52-3.051 1.055-3.051 2.832 0 1.156.879 2.195 2.195 2.195.816 0 1.637-.301 2.414-.918.16.637.578.918 1.359.918.555 0 .895-.16 1.711-.699v-1.078c-.398.301-.758.48-.937.48-.219 0-.34-.121-.34-.461m2.695-12.027h1.773v13.605h-1.773zm-81.457 13.785c-1.937 0-2.918-1.199-2.918-2.816v-4.727h-1.555v-.199l3.332-3.25v1.852h2.832v1.598h-2.832v4.59c0 1.055.758 1.355 1.277 1.355.641 0 1.297-.219 2.016-.66v1.656c-.617.34-1.574.602-2.152.602M114.36 69.348c0 .574-.48 1.055-1.059 1.055s-1.055-.48-1.055-1.055a1.06 1.06 0 0 1 1.055-1.059c.578 0 1.059.477 1.059 1.059m48.828 9.75l-3.473-7.043h2.02l2.414 5.047 2.313-5.047h1.996l-6.32 13.496h-1.977zm-53.098-3.605v5.523h-1.773v-5.547c0-1.316-.68-2.176-1.758-2.176-.777 0-1.395.359-2.234 1.297v6.426h-1.773v-8.961h1.773v1.18h.039c.68-.859 1.676-1.355 2.676-1.355 1.695 0 3.051 1.156 3.051 3.613m12.047-3.437h1.898l-3.953 9.141h-.598l-4.047-9.141h1.934l2.414 5.508zM98.481 67.41h1.953v8.258c0 3.332-1.992 5.527-6.043 5.527-2.871 0-5.668-1.617-5.668-5.328V67.41h1.957v8.039c0 1.539.199 2.172.816 2.793.777.777 1.758 1.156 2.934 1.156 1.496 0 2.574-.477 3.191-1.098.699-.699.859-1.695.859-2.973zm13.926 4.645h1.773v8.961h-1.773zm39.051-2.707c0 .574-.477 1.055-1.055 1.055s-1.059-.48-1.059-1.055c0-.582.48-1.059 1.059-1.059a1.06 1.06 0 0 1 1.055 1.059m-1.953 2.707h1.773v8.961h-1.773zm-1.996 6.508c0 1.574-1.254 2.633-2.953 2.633-1.098 0-1.953-.219-3.109-.816v-1.918c1.156.797 2.211 1.176 2.93 1.176.719-.039 1.32-.379 1.32-1.016 0-1.238-4.191-1.895-4.191-4.309 0-1.516 1.156-2.434 2.953-2.434.836 0 1.695.238 2.633.738v1.754c-1-.656-1.934-.937-2.594-.937-.719 0-1.176.34-1.176.816 0 .402.598.879 2.176 1.797 1.473.977 2.012 1.598 2.012 2.516m-8.504-6.684c.66 0 1.289.285 1.957.875l-.937 1.535c-.508-.43-1.105-.715-1.48-.715-1.215 0-2.172 1.215-2.172 2.754v4.688h-1.777v-8.961h1.777v2.059h.039c.898-1.578 1.754-2.234 2.594-2.234m-12.754 3.75c.238-1.418 1.055-2.215 2.414-2.215 1.254 0 2.031.859 2.094 2.215zm2.371-3.75c-2.473 0-4.187 1.832-4.187 4.547 0 2.477 1.555 4.77 4.348 4.77 1.516 0 2.496-.34 3.57-1.059v-1.715c-1.035.68-2.055 1.078-3.133 1.078-1.715 0-2.73-.918-3.012-2.695h6.305c0-3.309-1.516-4.926-3.891-4.926" fill="#2e2611"/></g></g></svg>