<svg xmlns="http://www.w3.org/2000/svg" width="208" height="258" xmlns:v="https://vecta.io/nano"><path d="M26.88 250.12l2.05 4.52 1.48-4.39h1.34l-2.59 7.65-2.28-4.97-2.31 4.96-2.57-7.64h1.34l1.46 4.4 2.08-4.53zm54.77 0l2.05 4.52 1.48-4.39h1.34l-2.59 7.65-2.28-4.97-2.31 4.96-2.57-7.64h1.34l1.46 4.4 2.08-4.53zm16.93-.14l5.01 4.91v-4.64h1.32v7.62l-5.01-4.89v4.62h-1.32v-7.62zm71.71.14a3.81 3.81 0 0 1 3.89 3.82 3.82 3.82 0 0 1-7.64.046 3.82 3.82 0 0 1 3.75-3.866h0zm-24.6 0a3.81 3.81 0 0 1 3.89 3.82 3.82 3.82 0 0 1-7.64.046 3.82 3.82 0 0 1 3.75-3.866h0zm-87.81.13a2.33 2.33 0 0 1 2.38 2.33h0l-.02.02a2.21 2.21 0 0 1-1.33 2.09h0l1.78 2.93H59.2L57.63 255h-1.31v2.6H55v-7.35zm122.91 0a2.33 2.33 0 0 1 2.38 2.33h0v.02a2.21 2.21 0 0 1-1.34 2.09h0l1.79 2.93h-1.49l-1.57-2.62h-1.31v2.6h-1.32v-7.35zm-132.74-.36l3.63 7.71h-1.41l-.65-1.42h-3.16l-.66 1.42h-1.39l3.64-7.71zm112.01 0l3.62 7.71h-1.4l-.65-1.42h-3.17l-.65 1.42h-1.39l3.64-7.71zm29.69 0l3.62 7.71h-1.4l-.65-1.42h-3.17l-.65 1.42h-1.39l3.64-7.71zm-77.86 0l3.63 7.71h-1.41l-.65-1.42h-3.16l-.66 1.42h-1.39l3.64-7.71zm-20.25 0l3.63 7.71h-1.41l-.65-1.42h-3.16l-.66 1.42H88l3.64-7.71zm39.28 0l3.62 7.71h-1.4l-.65-1.42h-3.17l-.65 1.42h-1.39l3.64-7.71zm-10.74.36v3.34l2.87-3.34h1.59l-3.14 3.59 3.25 3.76h-1.62l-2.95-3.44v3.44h-1.32v-7.35h1.32zm77.64 0v3.34l2.87-3.34h1.59l-3.14 3.59 3.26 3.76h-1.62l-2.96-3.44v3.44h-1.31v-7.35h1.31zm9.42 0v7.35h-1.32v-7.35h1.32zm-201.94 0v1.19H3.31v6.16H1.99v-6.16H0v-1.19h5.3zm30.92 0v2.87h3.53v-2.87h1.31v7.35h-1.31v-3.29h-3.53v3.29H34.9v-7.35h1.32zm32.93 0v1.19h-3.36v1.75h3.15v1.19h-3.15v2.03h3.44v1.19h-4.76v-7.35h4.68zm-55.4 0v1.19h-3.36v1.75h3.15v1.19h-3.15v2.03h3.43v1.19H9.07v-7.35h4.68zm157.492 1.249a2.63 2.63 0 0 0-3.418 3.471 2.63 2.63 0 0 0 2.466 1.591 2.55 2.55 0 0 0 2.58-2.62 2.63 2.63 0 0 0-1.628-2.441zm-25.552-.189a2.63 2.63 0 0 0 0 5.25 2.63 2.63 0 0 0 0-5.25zm44.04 1.33l-1.08 2.4h2.17l-1.09-2.4zm-58.83 0l-1.08 2.4L132 255l-1.1-2.36zm-19.02 0l-1.09 2.4L113 255l-1.12-2.36zm-63.79-.04L47 255h2.18l-1.09-2.4zm43.51 0l-1.09 2.4h2.17l-1.08-2.4zm68.49 0L159 255h2.17l-1.08-2.4zm20.67-1.14h-1.51v2.36h1.4a1.15 1.15 0 0 0 1.22-1.2 1.11 1.11 0 0 0-1.11-1.16h0zm-122.93 0h-1.51v2.36h1.4l.06-.02a1.15 1.15 0 0 0 1.22-1.2 1.11 1.11 0 0 0-1.17-1.14h0zM93.32 248v1.01h-3.43V248h3.43zm-14.91-28.77l3.21 6.34 3.25-6.34h3.66l-6.91 13.12-6.87-13.12h3.66zm-31.41-.5l8.25 6.73v-6.23h3.25v12.94l-8.25-6.78v6.28H47v-12.94zm-7.07.5v7.13c0 3.76-2.56 5.53-5.58 5.53s-5.59-1.77-5.59-5.53h0v-7.09h3.39V226c0 2.14.88 2.82 2.2 2.82s2.19-.68 2.19-2.82h0v-6.77h3.39zm92.11-.17a7.29 7.29 0 0 1 3.73.84h0v3.16a6 6 0 0 0-3.55-1c-1.18 0-1.73.29-1.73.69 0 .82 1.92 1.17 3.23 1.57h0l.02.01c2.5.77 3.16 1.82 3.16 3.59 0 2.3-1.57 3.94-5.18 3.94a9.67 9.67 0 0 1-4.53-1h0v-3.39a6.78 6.78 0 0 0 4.39 1.36c1.23 0 2-.16 2-.91s-1.84-.97-3.63-1.65a3.61 3.61 0 0 1-2.69-3.5c0-2.44 2.3-3.71 4.78-3.71zm-62.86.17v12.44h-3.39v-12.44h3.39zm102.96 0l2.73 4.84 2.73-4.84h3.64l-4.69 8.03v4.41h-3.36v-4.41l-4.69-8.03h3.64zm-25.32 0v12.44h-3.39v-12.44h3.39zm16.39 0v3.07h-3.28v9.37h-3.4v-9.37h-3.35v-3.07h10.03zm-60.01 0v3.05h-5.78V224h5.39v2.78h-5.39v1.9h5.93v2.99h-9.32v-12.44h9.17zm12.72 0a4.36 4.36 0 0 1 4.46 4.28 3.83 3.83 0 0 1-2.12 3.56h0l3.1 4.6h-3.89l-2.53-3.87h-1.29v3.87h-3.39v-12.44zm-.09 3.07h-2.18v2.77h1.89v.02a1.36 1.36 0 0 0 1.47-1.47 1.22 1.22 0 0 0-1.18-1.32h0zm-67.35-47.51l16.49 13.46v-12.47h6.5v25.89L54.98 188.1v12.57h-6.5v-25.88zm135.93 0l16.5 13.46v-12.47h6.5v25.89l-16.5-13.57v12.57h-6.5v-25.88zm-53.7.64c7.64 0 13.75 5.79 13.75 12.89s-6.14 12.85-13.75 12.85S117 195.43 117 188.32s6.1-12.89 13.71-12.89zm-33.64-.03a12.13 12.13 0 0 1 7.64 2.53h0v7a10.52 10.52 0 0 0-7.64-3.43h0v.04a6.73 6.73 0 1 0 0 13.46 10.56 10.56 0 0 0 7.64-3.53h0v7a12.19 12.19 0 0 1-7.64 2.53c-7.49 0-13.56-5.38-13.56-12.78s6.07-12.82 13.56-12.82zm66.2.38v18.75h9.47v6.14h-16.25v-24.89h6.78zm-156 0v18.75h9.46v6.14H.49v-24.89h6.78zm28.07 0v24.89h-6.79v-24.89h6.79zm100.198 7.712a6.8 6.8 0 0 0-11.608 4.828 6.75 6.75 0 0 0 6.78 6.78 6.8 6.8 0 0 0 4.828-11.608zM180.08 62.66l-.27 2.17a112.51 112.51 0 0 1-33.46 66.25h0v8.1l-.31.23c-25.277 18.305-59.453 18.305-84.73 0h0l-.31-.23v-8.11a112.48 112.48 0 0 1-33.43-66.24h0l-.27-2.17 8.81 8.82 6.66-6.66.23 1.44a97.7 97.7 0 0 0 27.49 52.95h0l.22.21v8.63c19.721 13.762 45.914 13.833 65.71.18h0v-8.55l.2-.2a97.63 97.63 0 0 0 27.75-53.22h0l.23-1.44 6.66 6.66 8.82-8.82zm-35.2 60.54a58.53 58.53 0 0 1-41.18 16.73 58.52 58.52 0 0 1-41.17-16.73h0v15.22c24.616 17.639 57.734 17.639 82.35 0h0zm-44.56 19.99a2.69 2.69 0 0 1 1.36.4h0v1.12a1.88 1.88 0 0 0-1.3-.48c-.48-.02-.75.14-.75.36-.01.38.6.56 1.14.8.95.42 1.28.83 1.28 1.61h0-.03c0 .85-.67 1.49-2 1.44a3.38 3.38 0 0 1-1.75-.52h0v-1.17a2.52 2.52 0 0 0 1.7.68c.57.02.9-.11.91-.47s-.33-.52-1.11-.83-1.35-.65-1.32-1.57.87-1.37 1.87-1.37zm6.27.11l.01 1.03-1.36.01.05 4.07-1.12.02-.06-4.07-1.38.02-.01-1.03 3.87-.05zm3.08-.23a1.69 1.69 0 0 1 1.87 1.52 1.55 1.55 0 0 1-.77 1.52h0l1.41 1.85-1.27.11-1.21-1.6-.74.06.15 1.69-1.12.11-.45-5.08zm-16.55-.6l1.12.16-.41 2.89c-.13.88.26 1.28.87 1.37s1.07-.2 1.2-1.08h0l.4-2.89 1.12.16-.42 3a2 2 0 0 1-2.42 1.82h0l-.02-.01a2 2 0 0 1-1.86-2.42h0l.42-3zm20.704.052l.834 5.031-1.105.183-.834-5.031 1.105-.183zm3.586-.992l3.74 4.7-1.17.26-.56-.71-2.08.45-.17.88-1.17.25 1.41-5.83zm-29.86-.24l1.88.42a2.43 2.43 0 0 1 2.1 3.07h0v.02a2.41 2.41 0 0 1-3.17 1.91h0l-1.9-.42 1.09-5zm-5.5-1.96l2.3 4 .9-2.76 1.05.34-1.63 5.04-2.3-3.99-.9 2.75-1.05-.35 1.63-5.03zm6.38 3.22l-.65 2.98.72.16c1.26.28 1.75-.28 1.93-1.13s-.02-1.57-1.29-1.85h0l-.71-.16zm21.414 1.529l-.104.001-.99.08.13 1.38.88-.08a.68.68 0 0 0 .67-.77.63.63 0 0 0-.69-.61zm8.046-.319l-.35 1.45 1.27-.28-.92-1.17zm7.68-4.39a2.5 2.5 0 0 1 1.66-.07h0l.42 1.1a2.19 2.19 0 0 0-1.72-.07c-.536.204-.922.678-1.014 1.244s.126 1.138.57 1.5 1.048.46 1.584.256a2.21 2.21 0 0 0 1.24-1.2h0l.41 1.1a2.43 2.43 0 0 1-1.28 1h0v.05a2.63 2.63 0 0 1-3.641-2.87 2.63 2.63 0 0 1 1.771-2.04zm-3.99 3.75a.6.6 0 0 1 .74.39.59.59 0 0 1-.4.74.61.61 0 0 1-.75-.39.6.6 0 0 1 .41-.74zm-41.927-4.593l1.037.424-1.931 4.72-1.037-.424 1.931-4.72zm52.507-1.987l1.28 2.75a2 2 0 0 1-1.06 2.86h0l-.114.061a2 2 0 0 1-2.716-1.081h0l-1.28-2.75 1-.48 1.23 2.65c.38.8.9.93 1.47.67s.8-.75.42-1.56h0l-1.23-2.64 1-.48zm-59.28-1.29l3.42 1.81-.48.9-1.2-.63-1.9 3.6-1-.53 1.9-3.6-1.22-.64.48-.91zm3.04 4.57a.61.61 0 0 1 .79-.3c.301.13.44.479.31.78s-.479.44-.78.31a.61.61 0 0 1-.32-.79zm61.89-6.75l2.69 4.55-.93.55-1.32-2.23-.47 2.37-2.3-.73 1.32 2.23-.93.55-2.69-4.55 3.81 1.16.82-3.9zm-68.88-.25l2.95 1.84-.54.87-2-1.25-.5.81 1.86 1.17-.52.85-1.87-1.17-.58.93 2.04 1.27-.54.87-3-1.87 2.7-4.32zM158.34 0v49.48l-.006 1.087c-.417 35.844-21.583 68.245-54.324 83.003h0l-.31.14-.3-.14c-33.071-14.907-54.333-47.815-54.33-84.09h0V0h109.27zM103.8 88.31l-26 26a89.89 89.89 0 0 0 25.9 17.76h0l.01.04a90 90 0 0 0 26-17.89h0L103.8 88.31zM29.36 66.84A111.07 111.07 0 0 0 61 129h0v-9.32h7.86a99.11 99.11 0 0 1-27.07-51.75h0l-5.67 5.67zm148.69 0l-6.76 6.76-5.67-5.67v.01a99.07 99.07 0 0 1-27.07 51.75h0 7.83V129a111.06 111.06 0 0 0 31.67-62.16h0zm-33.25 54.34h-6.87v6a58 58 0 0 0 6.87-6h0zm-75.59.03h-6.6a57.12 57.12 0 0 0 6.6 5.79h0v-5.79zm34.49-21.34l.6.47a12.43 12.43 0 0 1 3.67 8.85 12.14 12.14 0 0 1-.3 2.7 12.49 12.49 0 0 1 7.75-2.71h0 .75l.09.75a12.5 12.5 0 0 1-5.56 10.42h0l-.348.225a12.53 12.53 0 0 1-6.652 1.895h0-1.45c-.32-.04-.62-.09-.93-.15h0-.26a12.44 12.44 0 0 1-9.87-12.22h0v-.74h.75l.37.004a12.63 12.63 0 0 1 7.47 2.686 12.45 12.45 0 0 1 3.36-11.48h0l.56-.7zm10.989 11.015l-.21.017a11 11 0 0 0-9.949 9.818h0v.38a11.05 11.05 0 0 0 8.16-4.56h0l.216-.315a10.94 10.94 0 0 0 1.784-5.345l-.001.005zm-21.969-.015a11 11 0 0 0 3 6.84 10.87 10.87 0 0 0 .49.47 11.36 11.36 0 0 0 .92.77c.21.16.44.31.67.46a9.51 9.51 0 0 0 .94.53c.18.09.35.19.54.27a11.11 11.11 0 0 0 1.44.5h0l.47.13a11.39 11.39 0 0 0 1.67.25h0l-.01.01h.15 0v-.06l-.008-.175h0l.008-.175a11 11 0 0 0-10.28-9.82zm56.14 2.05a1.8 1.8 0 0 1 2.52-.28 1.82 1.82 0 0 1 .29 2.52h0l-.67.84 1.36 1-.75.98-4.15-3.31zM58 111.7l-2.76 5.62-.76-1 .42-.84-1.35-1.76-.92.19-.77-.98L58 111.7zm45.75-9.57a11 11 0 0 0 0 14.53 10.88 10.88 0 0 0 2.76-7.29h0-.05a11 11 0 0 0-2.71-7.24zm46.402 11.175a.67.67 0 0 0-.482.265h0l-.63.78 1.15.91.62-.78v.01a.68.68 0 0 0-.14-1 .67.67 0 0 0-.518-.185zm-94.032-.165l-1.51.32.82 1.07.69-1.39zm96.911-5.043a1.76 1.76 0 0 1 1.329.293 1.59 1.59 0 0 1 .68 1.64h0l2.42.14-.77 1.07-2.08-.12-.44.63 1.44 1-.69.98-4.32-3.08 1.29-1.81a1.76 1.76 0 0 1 1.141-.743zM103.82 51.26l-42 42a90.8 90.8 0 0 0 14.92 20h0l22.57-22.65a13.69 13.69 0 0 1-9.73-13.06h0v-.75h5.29a9.27 9.27 0 0 1-1.36-4.77h0v-.47l.05-.66a2.91 2.91 0 0 1 .66-.14h0 .48a8 8 0 0 1 1.69.14h0l.48.1.24.1a7.67 7.67 0 0 1 .74.22 10.14 10.14 0 0 1 3.34 1.9h0l4.72-4.67a4.24 4.24 0 0 1 3-1.24h0l.241.006a4.18 4.18 0 0 1 2.759 1.254 4.26 4.26 0 0 1-.08 6h0l-2.33 2.3h7.5v.75a13.71 13.71 0 0 1-8.86 12.8h0l22.663 22.664.676-.692a90.84 90.84 0 0 0 13.704-18.407l.487-.875-41.85-41.85zm-49.052 56.501l.679.953-4.325 3.081-.679-.953 4.325-3.081zm98.535 1.412l-.108.007a.65.65 0 0 0-.444.28h0l-.6.83 1.18.84.54-.76a.71.71 0 0 0-.17-1.05.65.65 0 0 0-.506-.14zm1.617-5.044a2.84 2.84 0 0 1 5.18.935 2.84 2.84 0 0 1-4.37 2.935 2.78 2.78 0 0 1-.81-3.87zm-103.27-1.07l2.21 3.36-.89.59-.78-1.18-3.54 2.33-.64-.98 3.54-2.33-.79-1.2.89-.59zm106.431 1.216a1.69 1.69 0 0 0-2.261.424 1.67 1.67 0 0 0 .54 2.31 1.64 1.64 0 0 0 2.31-.51 1.69 1.69 0 0 0-.589-2.224zM48.85 97.79l-.99 4.7 2.61-1.52.58 1-4.77 2.78.99-4.7-2.6 1.52-.58-1 4.76-2.78zm110.039.46a1.42 1.42 0 0 1 1.101.07 1.06 1.06 0 0 1 .6 1.12 1.24 1.24 0 0 1 1.67-.29 1.55 1.55 0 0 1 .59 2.17h0l-1.14 2.1-4.64-2.59 1-1.84a1.42 1.42 0 0 1 .819-.74zm2.761 1.87a.64.64 0 0 0-.88.3h0l-.49.88 1.11.62.5-.88a.66.66 0 0 0-.24-.92zm-2.015-.705a.57.57 0 0 0-.775.225h0l-.38.68 1 .54.37-.67h.01a.57.57 0 0 0-.225-.775zM46.36 93.27l1.65 3.23-.95.48-1.12-2.18-.89.45 1.04 2.05-.92.47-1.05-2.04-1.01.51 1.14 2.24-.95.48-1.67-3.27 4.73-2.42zm113.688 1.97l4.729 2.415-.532 1.042-4.729-2.415.532-1.042zm2.162-4.56l.96.45-.59 1.28 3.84 1.79-.49 1.06-3.85-1.78-.6 1.3-.97-.45 1.7-3.65zm-116.995-.041l.473 1.07-4.857 2.146-.473-1.07 4.857-2.146zM169.18 87.85L168.7 89h-.94l-.85 2 .62.7-.49 1.25-4.1-4.72 6.24-.38zm-12.34-60.37H50.56v22l.004.852A90.7 90.7 0 0 0 61.09 91.87h0l42.75-42.75 42.51 42.56a90.68 90.68 0 0 0 10.43-42.21h0l.06.01v-22zM39.252 86.756a2.74 2.74 0 0 1 4.788.824 2.58 2.58 0 0 1 .1 1.73h0l-1.14.45A2.27 2.27 0 0 0 43 88a1.67 1.67 0 0 0-2.957-.563 1.67 1.67 0 0 0-.133 1.773h0-.04a2.33 2.33 0 0 0 1.27 1.27h0l-1.14.45a2.63 2.63 0 0 1-1.05-1.35 2.74 2.74 0 0 1 .302-2.824zM166.7 88.97l-1.55.08 1 1.16.55-1.24zm-51.17-10.6H91.14a12.21 12.21 0 0 0 9.42 11.1h0l3.32-3.31 3.08 3.08a12.21 12.21 0 0 0 8.57-10.87h0zm50.01 3.68l1 .35-.47 1.34 3.99 1.42-.39 1.1-3.99-1.42-.49 1.36-1-.36 1.35-3.79zM40 80.78c.88-.31 1.67.32 2 1.32a2.91 2.91 0 0 1 .1 1.47h0l-1.11.36a2 2 0 0 0 0-1.44c-.16-.48-.27-.73-.63-.6-.305.11-.351.599-.359 1.123L40 83.3h.03c-.1 1.07-.26 1.55-1.1 1.83s-1.71-.13-2.15-1.44a3.6 3.6 0 0 1-.12-1.9h0l1.15-.39a2.6 2.6 0 0 0 0 1.9c.19.58.39.84.79.72s.4-.54.4-1.39.12-1.54 1-1.85zm126.91-3.12l1.02.31-.73 2.34.95.3.68-2.19 1 .31-.68 2.19 1.08.34.75-2.39 1.01.32-1.09 3.51-5.07-1.59 1.08-3.45zM95 72.29a7.85 7.85 0 0 0 1.64 4.62h0 .89l2.63-2.6.02-.02a8.38 8.38 0 0 0-5.18-2zm14.182-3.481l-.182.001a2.79 2.79 0 0 0-2 .8h0l-7.36 7.26h7.83l3.4-3.36a2.76 2.76 0 0 0 .06-3.9 2.47 2.47 0 0 0-1.93-.8zM120.92 32.49l-.12 1.71h0v.4a6.17 6.17 0 0 0 6.2 6.13h0 11.9a6.18 6.18 0 0 0 6.21-6.13h0v-.41L145 32.5l1.24 1.09a7.56 7.56 0 0 1-1.62 12.8 6 6 0 0 1 3.21 5.25h0v.92l-.66.13a2.57 2.57 0 0 1-.36 0 6.18 6.18 0 0 1-4.25-1.69 9.49 9.49 0 0 1-3.68 6.81 5.7 5.7 0 0 1 .11 1.1 5.91 5.91 0 0 1-8.865 5.118 5.91 5.91 0 0 1-2.955-5.118 6.26 6.26 0 0 1 .12-1.07 9.53 9.53 0 0 1-3.71-6.84 6.15 6.15 0 0 1-4.22 1.68h0l-.93-.06-.15-1a6 6 0 0 1 3.08-5.17h0-.01a7.58 7.58 0 0 1-1.76-12.88h0l1.33-1.08zm-54.408 3.246a9.54 9.54 0 0 1 8.318 5.034h0 .05a9.54 9.54 0 0 1 16.675-.101 9.54 9.54 0 0 1-.175 9.671h0l-1.25 2.07L90 50a5.86 5.86 0 0 0-.34-1.55 6.85 6.85 0 0 1-2.55.53 6.54 6.54 0 0 1-2.87-.67 9.45 9.45 0 0 1-5 10.51h0L79.18 60l-.023.213A4.42 4.42 0 0 1 70.37 60h0-.05l-.06-1.37a9.39 9.39 0 0 1-4.65-10.4 6.36 6.36 0 0 1-5.54.2 5.86 5.86 0 0 0-.34 1.57h0l-.14 2.42-1.26-2.09a9.54 9.54 0 0 1 8.182-14.594zM137.45 58.74a9.2 9.2 0 0 1-8.8 0h0v.19a4.46 4.46 0 0 0 4.42 4.49h0l-.04.02a4.46 4.46 0 0 0 4.42-4.49 1.49 1.49 0 0 0 0-.21zm-65.59.6v.33l.005.173a2.94 2.94 0 0 0 5.875-.173h0l.12-.23a8.72 8.72 0 0 1-6-.1h0zm3.07-17.02l-.02.05a8 8 0 0 0-5.66 2.33 5.69 5.69 0 0 1 2 4.19h0l.45 8.94a7.89 7.89 0 0 0 6.15.11h0l.48-9v-.09a5.73 5.73 0 0 1 2.11-4.31 8.05 8.05 0 0 0-5.51-2.22h0zm58.03-.09a8.06 8.06 0 0 0-6.85 3.88 5.81 5.81 0 0 1 3.74 6.8h0l-1 4.28a7.85 7.85 0 0 0 8.26 0h0l-1-4.27-.049-.234a5.81 5.81 0 0 1 3.779-6.556 8.07 8.07 0 0 0-6.86-3.89h0zm-51.53 3.4a4.19 4.19 0 0 0-1.62 3.25h0l-.44 8.18a8 8 0 0 0 2.45-10.83 3.3 3.3 0 0 1-.31-.51h0zm-13.12.11a8.08 8.08 0 0 0-1.46 4.59h0-.01a8 8 0 0 0 3.31 6.49h0l-.4-7.93-.009-.241a4.23 4.23 0 0 0-1.431-2.909zm57.23 1.7a7.87 7.87 0 0 0 2.1 8.78h0l.84-3.51a4.79 4.79 0 0 0 .12-1.06 4.39 4.39 0 0 0-3.06-4.21zm14.96.04a4.37 4.37 0 0 0-3 4.2 4.57 4.57 0 0 0 .12 1.05h0l.842 3.469.17-.157a7.92 7.92 0 0 0 1.969-8.29zm1.6-.24a4.58 4.58 0 0 0 4.17 4 4.58 4.58 0 0 0-4.17-4zm-18.14-.06a4.58 4.58 0 0 0-4.17 4 4.58 4.58 0 0 0 4.17-4zm-40.8-9.83l.04.06A8 8 0 0 0 76.56 41a9.52 9.52 0 0 1 5.25 2.7 6.9 6.9 0 0 1 2.58-.51A7.14 7.14 0 0 1 91 47.6a7.9 7.9 0 0 0 .23-2.18 8.08 8.08 0 0 0-8.07-8.07h0zm-16.66.01a8.08 8.08 0 0 0-8.07 8.07 8.29 8.29 0 0 0 .3 2.17 7.17 7.17 0 0 1 6.62-4.41 6.89 6.89 0 0 1 2.65.54A9.51 9.51 0 0 1 73.19 41a8 8 0 0 0-6.67-3.54h0zm17.82 7.32a5.79 5.79 0 0 0-1.57.25h0l.25.42a5 5 0 0 0 6 1.76 5.65 5.65 0 0 0-4.68-2.43zm-18.93 0a5.67 5.67 0 0 0-4.64 2.42 5 5 0 0 0 6.2-2.16 5.42 5.42 0 0 0-1.56-.26zm80.97-8.76a7.69 7.69 0 0 1-7.59 6.32h0l-.74.01a9.59 9.59 0 0 1 3.2 3.38h0 .09a6.17 6.17 0 0 0 6.2-6.13 6.1 6.1 0 0 0-1.16-3.58zm-26.93-.04a6.11 6.11 0 0 0-1.17 3.58 6.18 6.18 0 0 0 6.21 6.13h0 .34a9.54 9.54 0 0 1 3.19-3.37h0-1a7.69 7.69 0 0 1-7.58-6.32h0zm37.41-34.39H50.57V26h23.1V16l-6.33-7.9h2.29l4.93 6.14 4.93-6.14h2.3L75.46 16v10h27.36V15.18h-5.49v-1.79h5.49V8.11h1.79v5.28h5.49v1.79h-5.49V26h27.44V16l-6.34-7.9H128l4.94 6.16 4.93-6.14h2.3L133.84 16v10h23V1.49z" fill="#2b4ae7" fill-rule="evenodd"/></svg>