<svg xmlns="http://www.w3.org/2000/svg" viewBox="0 0 200 200" xmlns:v="https://vecta.io/nano"><style><![CDATA[.F{fill:#e69203}.G{fill:#a16602}.H{fill:#0a2972}]]></style><path d="M77.9 63.9c-2.3-2.6-5.2-1.8-5.2-1.8s1 .9 1.6 2.6.6 2.7.6 2.7-1.3-.4-3.8.5c-2.6 1-2.5 3.9-2.5 3.9s2.3-2 5.3-.7c2.6 1.1 3.6 4.5 3.6 4.5s.2-1.3.6-2.1c.5-.9 1.1-1.6 1.7-3.2.5-1.6.4-3.8-1.9-6.4m-6.9-.4c-.5-2.2 0-3 0-3s2.1-1.5 4.8-.3a4.69 4.69 0 0 1 2.7 3s1.5-1.3 1.7-3.2-.8-3.3-1.9-4.2c-1.1-1-3.4-1.9-3.4-1.9s1.6-.9 2.1-1.8c.2-.4.3-.7.4-1.1.2-.5.3-1.1.7-1.6.6-.9 2-1.7 2-1.7s-2.3-.9-4.6.1-2.9 2-5.5 3c-.2.1-.3.1-.5.2h0c-2.8.9-4.7 0-4.7 0s1 1.1 1 3.9-.2 5.1 1 7.7c1.5 3.2 5.1 3.7 5.1 3.7s-.5-.6-.9-2.8m19.7 18.4c-1.4-1.5-2.1-4.3-3.8-7.2-2.6-4.5-5.8-5.5-5.8-5.5s.9 2.2 0 4.1c-1.3 2.5-2.4 1.5-2.4 1.5s0 1.8 1.7 2.8c2.5 1.4 4.1-.4 4.1-.4s-.2 2.5 2.3 4.3c2.2 1.6 3.9 1.6 5 1.9l1.3.5s-1.1-.5-2.4-2M70.8 49.2c3.2-6.5 9.6-5.3 9.6-5.3s-3.4-3.7-6.2-3.8c-3-.1-4.3 5.9-3.4 9.1m7.3-24.8c-.1 1.2 0 2.7-.3 4.5s-1.9 2.8-1.9 2.8 2.8.8 4.4-1.7c1.2-1.9.2-4.3-.5-5.4-.7-1.2-.6-3.1-.6-3.1s-.9 1.7-1.1 2.9m-11.6-5.9c.6 1.7.7 2.8.7 3.8 0 .7.4 1.3.4 1.3s-2.4.3-3.2 1.5c-1.2 2 .1 4 .1 4s.3-1.5 2-1.8c.9-.2 2.5-.1 4.1 1.3 2.1 1.8 4.8 2 4.8 2s-.7-1.7-.2-3.5 1-2.4 2.2-4.2 1-2.5.9-3.7-.8-2.5-.8-2.5-.4 1.3-1.5 1.8c-1.1.6-1.8 1.1-2.7 1.9s-1 1.8-1 1.8-.2-2.3-1.4-3.7-2.6-2.8-3.9-3.2c-2.1-.5-2.9-.2-2.9-.2s1.5 1.1 2.4 3.4m-6.2 13.3c1-1.6 3.1-1.1 3.1-1.1s-2.6-4.2-5.1-.8c-2.9 3.9 2.9 6.8 2.9 6.8s-2.3-2.8-.9-4.9m6.4 16.5c1.1 1.3 2.6 1.7 2.6 1.7s-1.1-4.1.2-7.7c1.2-3.5 4-5 5.7-5.4s2.3-.4 3.4-.9c.8-.4 1.1-1 1.6-1.8-1.1.2-1.9.1-3.1-.3-1.2-.5-2.3-1.1-4.5-2.6s-3-1.5-5.1-1.7c-1.8-.2-2.5.7-2.5.7s1.4.6 2 1.6c.9 1.5.3 3 .3 3s-.9-.5-2.1-.7-2 0-2.7-.2c-.7-.1-.9-.6-.9-.6s-.4 1.3.5 3.3c.8 2 2 2.1 2 2.1s-3.1.5-3.8 3.5c-1 4.1 2.2 6.6 2.2 6.6s.2-2 1.2-2.5c1-.4 2.2-1.2 2.2-1.2s-.3 1.8.8 3.1m-2.9-25.4c1.1-.9 2-.9 2-.9s-.8-.5-1.5-2.2c-.7-1.8-.2-3-.2-3s-1.4 1.2-2 3.6c-.6 2.3.5 4.7.5 4.7s.2-1.3 1.2-2.2" class="F"/><g class="H"><path d="M116.9 55.2V39H83.4v16.2S82.3 75.1 100.1 84c17.9-8.9 16.8-28.8 16.8-28.8M76.3 80.8c.2-.4.6-.7 1.1-.7.2 0 .4.1.6.1.5.3 1.5.9 2.5 1.1 1.1.3 1.7.1 1.8-.2s-1.1-1.5-2.4-1.7-3.2-.3-5.8.2-3.6-.1-3.7-.5c-.2-.4 0-.5.2-.8-.4 0-.6.2-.8.5-.5.9-.8 2-.7 4.1 0 2.1.1 3.8 1.3 4 1.2.3 2.1-.6 3-.7s1.2.3 1.2.3l1.7-5.7zm47.7 0c-.2-.4-.6-.7-1.1-.7-.2 0-.4.1-.6.1-.5.3-1.5.9-2.5 1.1-1.1.3-1.7.1-1.8-.2s1.1-1.5 2.4-1.7 3.2-.3 5.8.2 3.6-.1 3.7-.5c.2-.4-.1-.5-.2-.8.4 0 .6.2.8.5.5.9.8 2 .7 4.1 0 2.1-.1 3.8-1.3 4-1.2.3-2.1-.6-3-.7s-1.2.3-1.2.3l-1.7-5.7zm1.5 8c-6 4.2-15.1 6.8-25.4 6.8-10.2 0-19.4-2.6-25.3-6.8-.1-.1-.2-.2-.2-.4v-.2l2.3-7.1a.55.55 0 0 1 .5-.3.76.76 0 0 1 .4.2c3.6 3.8 12.2 6.4 22.4 6.4s18.9-2.7 22.5-6.5c.1-.1.2-.1.4-.1s.4.1.4.3l2.4 7.1v.2c-.1.2-.2.4-.4.4M80.6 10.3c.4 0 .2-.3-.1-.7l-.9-1.1c-.3-.3-.9-.5-1.3-.5H77c-.4 0-.4.3 0 .7 1.6 1.5 3.6 1.6 3.6 1.6m7.1 0c-.2 0-.5-.2-.7-.4l-1.4-1.6c-.1-.2 0-.3.2-.3h1.8c.2 0 .5.2.7.4l1.4 1.6c.2.2.2.4-.1.4h-1.9zm-4.1 0c-.2 0-.5-.2-.7-.4l-1.4-1.6c-.1-.2-.1-.3.1-.3h1.3c.2 0 .5.2.7.4L85 10c.2.2.1.4-.1.4h-1.3zm8.8 0c-.2 0-.5-.2-.7-.4l-1.4-1.6c-.1-.2 0-.3.2-.3h2.8c.2 0 .5.2.7.4l1.4 1.6c.2.2.2.4 0 .4h-3zm16-.1c.2 0 .5-.2.7-.4l1.4-1.6c.2-.2.1-.4-.1-.4h-1.7c-.2 0-.5.2-.7.4l-1.4 1.6c-.2.2-.1.4.1.4h1.7zm4.2 0c.2 0 .5-.2.7-.4l1.4-1.6c.2-.2.1-.4-.1-.4h-1.3c-.2 0-.5.2-.7.4l-1.4 1.6c-.2.2-.2.4 0 .4h1.4zm7.1 0c-.4 0-.2-.3.1-.7l.9-1.1c.3-.3.8-.5 1.2-.5h1.3c.4 0 .4.3 0 .7-1.5 1.6-3.5 1.6-3.5 1.6m-3 0c.2 0 .5-.2.7-.4l1.4-1.6c.2-.2.1-.4-.1-.4h-1.3c-.2 0-.5.2-.7.4l-1.4 1.6c-.2.2-.1.4.1.4h1.3zm-12.9 0c.2 0 .5-.2.7-.4l1.4-1.6c.2-.2.1-.4-.1-.4H103c-.2 0-.5.2-.7.4l-1.4 1.6c-.2.2-.1.4.1.4h2.8zm-6.3-.1c.1.2.4.2.5 0l1.5-1.8c.2-.2.1-.3-.2-.3h-3.2c-.3 0-.3.2-.2.4l1.6 1.7z"/><path d="M110.5 24.8V24c-.4-4.5-1.5-8.5-3.8-12.2-.1-.3-.4-.5-.8-.2-.2 0-.2.2-.1.4 0 0 .8 1 1.1 1.5.5.8.8 1.7.7 2.6 0 .3 0 .7-.1 1-.5 2.2-2.2 3.9-4.2 4.9-.5.2-1.1.3-1.7.4-1.2.2-2.6.1-3.6-.7-.3-.2-.6-.5-.8-.8-.4-.6-.6-1.4-.5-2.2 0-.3.1-.6.3-.8l.1-.1c.8-1.1 1 1 2.9 1.3.3.1.6.1 1 0 .3-.1.6-.3.8-.6.3-.3.5-.6.5-1a1.1 1.1 0 0 0 0-.8c-.1-.4-.3-.8-.7-1.1-1-.8-2.6-1.4-3.1-2.7-.1-.4-.1-.7 0-1s.3-.6.5-.9c0-.1.9-1.1.9-1.1l1.5-1.8c.1-.5-.5-.3-.6-.2-1.2 1.1-1.7 2.6-3.1 3.4-1.7.6-3.3 1.1-4.6 2.7-2 1.4-3.9 2.8-6 3.8-.2.5-.1 1 0 1.5 1 .7 2.4.7 3.6 1.1.6.8.7 2.1.4 3 .8.2 2.7-1.4 3.3-2.7.9.1 1.7 1 1.8 2 .1.7-.1 1.4-.4 2-.9 1.8-3 2.9-3 2.9.9.4 1.5 1 1.8 1.1s1.3-2 1.7-2.1c.5-.1 2.3 1.3 2.7 1.3.3 0 1.5-1.7 2-1.7.6 0 1.8 2 2.2 2.1.3 0 2.1-1.7 2.7-1.7.4 0 1.2 1.6 1.5 1.7s.9-.8 3.1-1.2c0 .2 0-1.3 0-2.3m-10.2-12.4c.6-.5 1.4-.6 2.2-.6 1 .2 1.9.4 2.5.9-1.1-.2-2.4-.1-3.2.5-.6.1-1.1-.2-1.5-.5-.1 0-.1-.2 0-.3m5.8 2.2c-.8-.3-1.7-.3-2.3.2-.4 0-.8-.2-1-.5-.1-.1-.1-.3 0-.4.4-.3 1-.4 1.6-.3.7.2 1.4.5 1.7 1m.4 1.7c-.6-.3-1.5-.2-2 .2-.3 0-.5-.3-.6-.7 0-.2 0-.2.1-.3.4-.2.8-.2 1.2-.1.6.2 1.1.5 1.3.9m-2 1.6c-.2 0-.4-.3-.4-.5 0-.1 0-.2.1-.2.3-.1.6-.1.9 0 .4.2.7.4.9.8-.4-.3-1.1-.3-1.5-.1m-.7 1.3c-.2-.1-.1-.3-.1-.5l.1-.1c.3 0 .5.2.6.4.2.3.3.6.3.9 0-.4-.5-.7-.9-.7m-.5 1.8c0-.3-.2-.7-.5-.9-.1-.2.1-.3.3-.4h.2c.2.1.3.3.3.6-.1.2-.1.5-.3.7m-1.7.5c.1-.2 0-.5-.3-.7 0-.1.1-.2.4-.2h.2c.2.1.2.3.2.4-.1.2-.2.4-.5.5m-1.1-.1c-.1.1-.2.2-.3.2.1-.1.1-.3 0-.4 0-.1.1-.1.2 0 .1 0 .1 0 .1.1v.1m-1.3-.3H99c.1 0 .1-.1.1-.2h.1c.1.2 0 .2 0 .2m.3-10.1c-.2.1-.2.2-.3.3-.2.3-.4.6-.4.8-.1.2-.1.5 0 .7.5 1.1 2.1 1.8 3 2.6.4.3.7.8.8 1.3v.9c-.1.4-.3.8-.6 1.2-.3.3-.6.6-1 .7s-.8.1-1.1 0c-1-.2-1.8-.8-2.5-1.5-.1.1-.1.2-.2.2l-.1.1c-.1 0-.1.3-.1.5-.1.7.1 1.4.5 2 .2.3.4.5.7.8.8.7 2.1.8 3.3.7.6-.1 1.1-.2 1.6-.4 1.9-.9 3.6-2.6 4-4.6.1-.3.1-.6.1-.9 0-.9-.2-1.7-.7-2.4-.3-.5-.7-1-1.2-1.5-.3-.3-.5-.4-.7-.6.2-.5.8-.3 1-.7-1.8-.2-5.5-.2-5.5-.2-.3-.2-.4-.2-.6 0"/></g><path d="M111.9 62.7l-7.3-.5 2.8 6.7-5.5-4.7-1.8 7-1.7-7-5.5 4.7 2.8-6.7-7.3.5 6.2-3.8-6.2-3.8 7.3.5-2.8-6.7 5.5 4.7 1.7-7 1.8 7 5.5-4.7-2.8 6.7 7.3-.5-6.2 3.8zm3.3-7.4s.3 4.9-2.5 10.5c2-5.7 1.7-10.6 1.7-10.6V41.4H85.8v13.8s-.3 4.9 1.7 10.6C84.7 60.1 85 55.3 85 55.3V40.7h30.1v14.6z" fill="#fff"/><g class="F"><path d="M129.2 67.9c-2.5-.9-3.8-.5-3.8-.5s0-1 .6-2.7 1.6-2.6 1.6-2.6-2.9-.8-5.2 1.8-2.4 4.8-1.9 6.4c.6 1.7 1.2 2.3 1.7 3.2.4.8.6 2.1.6 2.1s1-3.4 3.6-4.5c3-1.3 5.3.7 5.3.7s.2-3-2.5-3.9m-9.8 5.3c-1-1.9 0-4.1 0-4.1s-3.2 1-5.8 5.5c-1.6 2.9-2.4 5.7-3.8 7.2-1.4 1.6-2.3 1.9-2.3 1.9s.6-.3 1.3-.5c1.1-.3 2.8-.3 5-1.9 2.5-1.8 2.3-4.3 2.3-4.3s1.6 1.8 4.1.4c1.6-.9 1.7-2.8 1.7-2.8s-1.2 1.1-2.5-1.4m11.5-22.3h0c-.2-.1-.3-.1-.5-.2-2.6-1.1-3.2-2-5.5-3s-4.6-.1-4.6-.1 1.4.8 2 1.7c.4.5.5 1.1.7 1.6.1.3.2.7.4 1.1.5.9 2.1 1.8 2.1 1.8s-2.3 1-3.4 1.9c-1.1 1-2 2.3-1.9 4.2.2 1.9 1.7 3.2 1.7 3.2s.5-2.1 2.7-3c2.8-1.2 4.8.3 4.8.3s.4.8 0 3c-.5 2.2-1 2.8-1 2.8s3.6-.5 5.1-3.7c1.2-2.6 1-4.8 1-7.7 0-2.8 1-3.9 1-3.9s-1.8 1-4.6 0m-5.6-23.8c.5 1.8-.2 3.5-.2 3.5s2.7-.1 4.8-2c1.6-1.5 3.2-1.5 4.1-1.3 1.6.3 2 1.8 2 1.8s1.3-2 .1-4c-.8-1.2-3.2-1.5-3.2-1.5s.4-.6.4-1.3c0-1 .1-2.1.7-3.8.8-2.3 2.4-3.3 2.4-3.3s-.8-.4-2.9.2c-1.4.4-2.8 1.8-4 3.2s-1.4 3.7-1.4 3.7-.2-1-1-1.8c-.9-.8-1.6-1.3-2.7-1.9s-1.5-1.9-1.5-1.9-.7 1.3-.8 2.5-.2 1.9.9 3.7c1.2 1.8 1.8 2.4 2.3 4.2m16.9 2.8c-2.5-3.4-5.1.8-5.1.8s2.1-.5 3.1 1.1c1.3 2.1-.9 4.8-.9 4.8s5.9-2.8 2.9-6.7m-17.7 1.9s-1.7-1-1.9-2.8c-.3-1.8-.1-3.3-.3-4.5-.1-1.2-1.1-2.9-1.1-2.9s.1 1.9-.6 3.1-1.7 3.5-.5 5.4c1.6 2.5 4.4 1.7 4.4 1.7m11.9-15.1s.5 1.3-.2 3c-.7 1.8-1.5 2.2-1.5 2.2s.9 0 2 .9a4.01 4.01 0 0 1 1.2 2.1s1.1-2.4.5-4.7c-.7-2.2-2-3.5-2-3.5"/><path d="M129.7 49.2c.8-3.2-.5-9.2-3.4-9.1-2.8.1-6.2 3.8-6.2 3.8s6.5-1.2 9.6 5.3m6.7-10.4s1.2-.2 2-2.1c.8-2 .5-3.3.5-3.3s-.2.5-.9.6-1.5 0-2.7.2-2.2.7-2.2.7-.6-1.5.4-3c.6-1 2-1.6 2-1.6s-.8-.8-2.5-.7c-2.1.2-2.9.2-5.1 1.7s-3.3 2.1-4.5 2.6-2 .5-3.1.3c.4.8.7 1.4 1.6 1.8 1.1.5 1.7.5 3.4.9s4.5 1.9 5.8 5.4c1.2 3.5.2 7.7.2 7.7s1.5-.4 2.6-1.7.9-3 .9-3 1.2.8 2.2 1.2 1.2 2.5 1.2 2.5 3.2-2.5 2.2-6.6c-.9-3.1-4-3.6-4-3.6m-22-9.5c-.3-.4-3.8 1.4-3.8 1.4s-.1-1.9-.5-2.2c-1.4.1-2.4.8-3.3 1.7h0c-.4-1-.9-1.9-1.2-2-.5 0-2.6 1.9-2.6 1.9s-1.2-2.2-1.9-2.3c-.3 0-1.4 1.2-1.9 1.9-.7-.7-2.1-1.8-2.7-1.7-.3.1-1 1.5-1.4 2.5-.4-.4-2.3-1.9-3.3-2-.5.7-.5 2.5-.5 2.5s-2-1.8-3.3-2c-.3.5.3 3 1.7 4.3 0-.4-.7-1.6-.6-2.4.7-.3 2.3.6 2.3.6s.3-1.3 1-1.6c1 .1 2.7 1.3 2.7 1.3s.8-1.5 1.5-1.9c1-.2 2.5 1.1 2.5 1.1s1.1-1.3 1.9-1.3c.8.3 1.8 1.6 1.8 1.6s1.5-1 2.5-1.3c.6.3 1.2 1.6 1.2 1.6s1.9-1.3 3-1.2c.3.3.7 1.4.7 1.4s2.1-.8 3-.7c-.1 1.1-.7 1.9-1.2 2.8 1.1-.5 3-3.3 2.4-4m-13.7 4.6c.8.1 1.2-3.2.3-3.3-.7-.2-1 3.2-.3 3.3"/><path d="M103.8 33.9c.8.3 2-2.8 1.2-3.1-.8-.2-1.9 2.8-1.2 3.1m-7-2.7c0 1.1.6 2.9 1.2 2.8.4-.1.3-2.6-.7-3.2-.3-.2-.5.2-.5.4M107 34c.7.4 2.6-2.3 1.8-2.8-.7-.4-2.6 2.3-1.8 2.8m-14.3-2.6c-.1 1.1 1 2.9 1.6 2.6.4-.2-.2-2.5-1.2-2.9-.2 0-.4.2-.4.3m17.2 2.4c.6.4 2-1.4 1.6-1.8s-2.1 1.5-1.6 1.8m-18.6.3c.5-.3-.4-2.1-.9-1.8-.4.2.5 2.1.9 1.8"/></g><path d="M98.5 34.8c-.2 0-.4.1-.3.3l.8 2a.55.55 0 0 0 .5.3h3.4c.2 0 .4-.1.3-.3l-.8-2a.55.55 0 0 0-.5-.3h-3.4zm5.4.3c-.2 0-.3.1-.2.2l.6 1.5c.1.1.2.2.4.2h2.4c.2 0 .3-.1.2-.2l-.6-1.5c-.1-.1-.2-.2-.4-.2h-2.4zm4 .2c-.1 0-.2.1-.1.2l.4 1c0 .1.2.2.3.2h1.7c.1 0 .2-.1.1-.2l-.4-1c0-.1-.2-.2-.3-.2h-1.7zm3.1.1c-.1 0-.1 0-.1.1l.3.7c0 .1.1.1.2.1h1.2c.1 0 .1-.1.1-.1l-.3-.7c0-.1-.1-.1-.2-.1H111zm-13.3 1.7c.2 0 .3-.1.2-.2l-.6-1.5c0-.1-.2-.2-.4-.2h-2.4c-.2 0-.3.1-.2.2l.6 1.5c.1.1.2.2.4.2h2.4zm-4-.2c.1 0 .2-.1.1-.2l-.4-1c0-.1-.2-.2-.3-.2h-1.7c-.1 0-.2.1-.1.2l.4 1c0 .1.2.2.3.2h1.7zm-3-.1c.1 0 .1-.1.1-.1l-.3-.7c0-.1-.1-.1-.2-.1h-1.2c-.1 0-.1 0-.1.1l.3.7c0 .1.1.1.2.1h1.2z" class="H"/><path d="M100.1 58.9l1.1-3.4-1-6.5z" class="G"/><path d="M99 55.5l1.1 3.4.1-9.9z" class="F"/><path d="M99.1 62.3l1 6.5v-9.9z" class="G"/><path d="M100.1 68.8l1.2-6.5-1.2-3.4z" class="F"/><path d="M94.3 50.9l4.7 4.6 1.1 3.4z" class="G"/><path d="M97.2 56.8l-2.9-5.9 5.8 8z" class="F"/><path d="M106 66.9l-4.7-4.6-1.2-3.4z" class="G"/><path d="M103.1 61l2.9 5.9-5.9-8z" class="F"/><path d="M90.7 55.8l6.5 1 2.9 2.1z" class="G"/><path d="M96.5 58.9l-5.8-3.1 9.4 3.1z" class="F"/><path d="M109.6 62l-6.5-1-3-2.1z" class="G"/><path d="M103.7 58.9l5.9 3.1-9.5-3.1z" class="F"/><path d="M90.7 62l5.8-3.1h3.6z" class="G"/><path d="M97.3 61l-6.6 1 9.4-3.1z" class="F"/><path d="M109.6 55.8l-5.9 3.1h-3.6z" class="G"/><path d="M103 56.8l6.6-1-9.5 3.1z" class="F"/><path d="M94.3 66.9l3-5.9 2.8-2.1z" class="G"/><path d="M99.1 62.3l-4.8 4.6 5.8-8z" class="F"/><path d="M106 50.9l-3 5.9-2.9 2.1z" class="G"/><path d="M101.2 55.5l4.8-4.6-5.9 8z" class="F"/><g class="H"><path d="M26.4 115.5h0l-.8 11.5c-.1 2.1-.1 3.2 2.7 3.2v1.3h-7.2v-1.3c2.5 0 2.6-.7 2.7-3.4l.7-11.7c.1-1.7 0-2.4-2.2-2.5v-1.3h6.8l6.3 13.6 6-13.6h7v1.3c-2.3.1-2.5.1-2.3 2.5l.8 11.9c.2 2.7.3 3 2.8 3.2v1.3H39.6v-1.3h.5c1.4 0 2.5 0 2.5-2.1 0-.5 0-1-.1-1.5l-.7-11.5h-.1l-7.2 16.4h-.8l-7.3-16zm39.5-.9l-2.7 7.6h5.7l-3-7.6zm-3.4 9.4l-1.4 3.8c-.6 1.6-.5 2.4 2.6 2.4h.4v1.3h-8.6v-1.3h.5c1.5 0 2.4-.7 3.2-3l5.5-15.4-.4-.9h4.8l6.5 16.4c.8 2.1 1.6 2.8 3.2 2.9v1.3H68.3v-1.3h1.1c2 0 2.3-.9 1.6-2.5l-1.5-3.8h-7z"/><use href="#B"/><use href="#B" x="23"/><path d="M146.1 113.1H139v7.3h5.2c1.8 0 2.4-.6 2.4-2.3h1.3v6.4h-1.3c0-1.7-.4-2.3-2.9-2.3H139v5.8c0 1.4.3 1.7 1.2 1.7h5.4c2.1 0 3.1-.6 3.7-3.3h1.2l-.4 5.1h-19.5v-1.3h1.3c1.9 0 2.5-.7 2.5-2.3V115c0-1.7-.6-2.4-2.8-2.4h-.3v-1.3h17.8l.3 4.7h-1.2c-.2-2.2-.6-2.9-2.1-2.9m24.6 14.7c0 1.6.5 2.4 2.8 2.4h.5v1.3h-11v-1.3h.8c1.9 0 2.5-.9 2.5-2.3v-4.5l-6.9-9.2c-.9-1.2-1.3-1.5-2.9-1.5h-.2v-1.3h10.5v1.3h-.4c-1.9 0-2.1.8-1.5 1.7l5.2 6.8 3.8-5.9c.8-1.3 1.1-2.6-1.2-2.6h-.4v-1.3h7.6v1.3c-1.9.1-2.4.5-3.6 2.3l-5.5 8.5v4.3zM30.4 140.3h5.3v.8h-.1c-1.6 0-1.9.7-1.9 1.7v5.1c0 4.5-3.3 5.4-5.7 5.4-3.7 0-6-1.6-6-4.7v-6.1c0-1-.3-1.4-1.4-1.4h-.3v-.8h6.4v.8h-.3c-.9 0-1.4.4-1.4 1.4v6.1c0 2.5 1.8 3.3 3.7 3.3 2.7 0 4-1.5 4-3.7v-5c0-1.4-.4-2.1-1.7-2.1h-.4v-.8zm11.9 10.3c0 1.2.4 1.6 2 1.6v.8h-4.9v-.8h.1c1.2 0 1.5-.4 1.5-1.3v-9.4c-.5-.3-1-.4-1.6-.4v-.8h4.2l8.3 8.7v-6.2c0-1.5-.3-1.7-1.9-1.7h-.2v-.8H55v.8h-.2c-1.3 0-1.7.3-1.7 1V153H52l-9.8-10.2v7.8zm16.6-10.3h6.5v.8h-.3c-1.1 0-1.5.5-1.5 1.5v8.1c0 1 .3 1.5 1.6 1.5h.3v.8H59v-.8h.3c1.1 0 1.5-.5 1.5-1.4v-8.2c0-1.1-.4-1.5-1.5-1.5H59v-.8zm12.4 2.5c-.7-1.5-1-1.7-2.1-1.7h-.1v-.8h7.1v.8h-.3c-1.7 0-2 .6-1.4 1.8l3.2 6.8 3.1-7.4c.3-.7-.2-1.2-1.3-1.2h-.4v-.8h5.2v.8H84c-1.2 0-1.7.5-2.3 2.2l-4.2 10h-1.3l-4.9-10.5zm25.6-1.3h-4.5v4.6h3.3c1.1 0 1.5-.4 1.5-1.5h.8v4.1h-.8c0-1.1-.3-1.5-1.8-1.5h-3v3.7c0 .9.2 1.1.8 1.1h3.4c1.3 0 2-.4 2.3-2.1h.8l-.2 3.2H87.2v-.8h.8c1.2 0 1.6-.5 1.6-1.5v-8.1c0-1.1-.4-1.5-1.8-1.5h-.2v-.8h11.2l.2 3h-.8c-.1-1.5-.3-1.9-1.3-1.9m11.7 5.3h.8c2.5 0 3.9-.8 3.9-2.9 0-2.2-1.6-2.9-3.6-2.9h-1.1v5.8zm0 3.9c0 1 .4 1.5 1.6 1.5h.6v.8h-7.1v-.8h.3c1.2 0 1.8-.3 1.8-1.5v-8.1c0-1-.3-1.5-1.6-1.5h-.4v-.8l2.6-.2c1.1-.1 2.6-.1 3.3-.1 3 0 4.6.4 5.6 1.4.7.7 1 1.4 1 2.3 0 1.6-1.1 2.8-3 3.3 1.3 1.1 2.1 2.7 3.5 4.2.8.8 1.4 1.1 2.7 1.2v.8h-1.3c-2.5 0-3.6-.4-4.5-1.3-1-1-2.2-3.2-3.5-4.3h-1.6v3.1zm14.8-1.4h.8c.7 2 1.9 3.1 3.5 3.1 1.3 0 2.4-.9 2.4-2 0-3-6.5-2.9-6.5-7 0-2 1.7-3.3 4.1-3.3 1.6 0 2.8.5 3.1.5.1 0 .3 0 .4-.2h.4l.4 3.3h-.8c-.4-1.7-1.8-2.7-3.3-2.7-1.1 0-2 .6-2 1.4 0 1.9 3.4 2.2 5.7 4.5.8.8 1.2 1.7 1.2 2.7 0 2.1-1.9 3.8-4.3 3.8-1.6 0-3.1-.7-3.5-.7-.2 0-.3.1-.4.3h-.5l-.7-3.7zm13.9-9h6.5v.8h-.3c-1.1 0-1.5.5-1.5 1.5v8.1c0 1 .3 1.5 1.6 1.5h.3v.8h-6.5v-.8h.3c1.1 0 1.5-.5 1.5-1.4v-8.2c0-1.1-.4-1.5-1.5-1.5h-.3v-.8zm18.8 10.4c0 1.1.3 1.5 1.8 1.5h.5v.8H151v-.8h.7c1.1 0 1.6-.4 1.6-1.5v-9.3h-2.4c-1.6 0-1.8.2-2.2 2.4h-.8l.4-3.8h.6a1.38 1.38 0 0 1 .4.3c.1 0 .3.1.6.1h9.7c.5 0 .7 0 1-.3h.7l.4 3.8h-.8c-.4-2.1-.6-2.4-2.2-2.4h-2.4v9.2zm18.4 0c0 1 .3 1.5 1.8 1.5h.3v.8h-7v-.8h.5c1.2 0 1.5-.6 1.5-1.5v-2.8l-4.4-5.8c-.6-.8-.8-1-1.9-1h-.1v-.8h6.6v.8h-.2c-1.2 0-1.3.5-.9 1l3.3 4.3 2.4-3.7c.5-.8.7-1.6-.7-1.6h-.2v-.8h4.8v.8c-1.2.1-1.5.3-2.3 1.4l-3.5 5.4v2.8zm-150.1 18c0 .5.2.7.8.7h.2v.4h-3.3v-.4h.3c.5 0 .7-.3.7-.7v-4.4H22c-.7 0-.8.1-1 1.1h-.4l.2-1.8h.3c.1.1.1.1.2.1 0 0 .1.1.3.1H26c.2 0 .3 0 .5-.2h.3l.2 1.8h-.4c-.2-1-.3-1.1-1-1.1h-1.1v4.4zm7.8-4.4h-2v2.2h1.5c.5 0 .7-.2.7-.7h.4v2h-.4c0-.6-.1-.8-.9-.8h-1.3v1.7c0 .4.1.5.3.5H32c.6 0 .9-.2 1.1-1h.3l-.1 1.6h-5.5v-.4h.4c.5 0 .7-.3.7-.7v-3.8c0-.5-.2-.7-.8-.7H28v-.4h5l.1 1.4h-.3c-.1-.7-.2-.9-.6-.9m8.5 4.4c0 .5.2.7.7.7h.2v.4h-3v-.4h.2c.5 0 .7-.2.7-.7V165c0-.6-.2-.7-.7-.7h-.2v-.4h3v.4h-.2c-.6 0-.7.2-.7.8v1.7c.4 0 .8-.3 1.2-.8.3-.3.9-1.1.9-1.4 0-.2-.2-.3-.5-.3h-.1v-.4h2.4v.4c-.5 0-.8.1-1 .3-.4.5-.8 1.4-1.5 1.9.2.1.7.7.9 1.1l.8 1.1c.5.6.8.9 1.4.9v.4h-3.1v-.4c.4 0 .6-.1.6-.3s-.8-1.2-1.4-1.9c-.3-.3-.4-.3-.6-.3v1.6zm9.8-4.9h2.3v.4h0c-.7 0-.8.3-.8.8v2.4c0 2.1-1.5 2.6-2.6 2.6-1.7 0-2.7-.8-2.7-2.2v-2.9c0-.5-.1-.6-.6-.6H46v-.4h2.9v.4h-.2c-.4 0-.7.1-.7.6v2.9c0 1.1.9 1.6 1.7 1.6 1.2 0 1.8-.8 1.8-1.8v-2.3c0-.6-.2-.9-.8-.9h-.2v-.6zm4.8 4.8c0 .5.2.8.9.8v.4H54v-.4h0c.6 0 .7-.3.7-.6v-4.5c-.2-.1-.4-.2-.7-.2v-.4h1.9l3.7 4.1v-3c0-.6-.1-.8-.9-.8h-.1v-.4H61v.4h-.1c-.5 0-.8.1-.8.5v5.1h-.5l-4.4-4.8v3.8zm10.9-4.3h-2v2.2h1.5c.5 0 .7-.2.7-.7h.4v2h-.4c0-.6-.1-.8-.8-.8h-1.3v1.7c0 .4.1.5.3.5h1.5c.6 0 .9-.2 1-1h.4l-.1 1.6h-5.5v-.4h.4c.5 0 .7-.3.7-.7v-3.8c0-.5-.2-.7-.8-.7h-.1v-.4h5l.1 1.4h-.4c0-.7-.1-.9-.6-.9m3.9 4.3c0 .5.2.8.9.8v.4h-2.2v-.4h.1c.5 0 .7-.3.7-.6v-4.5c-.2-.1-.5-.2-.7-.2v-.4h1.9l3.7 4.1v-3c0-.6-.2-.8-.9-.8h-.1v-.4h2.4v.4h-.1c-.6 0-.8.1-.8.5v5.1h-.5l-4.4-4.8v3.8zm13.6-1.3c-.5 0-.7.2-.7.6v1.4c-.6.3-1.6.6-2.4.6-2.3 0-3.4-1.4-3.4-3.3 0-1.7 1.4-3 3.3-3 .9 0 1.7.3 2 .3.1 0 .2-.1.3-.1h.2v1.7h-.4c-.3-.9-.9-1.6-1.9-1.6-1.3 0-2.2 1.1-2.2 2.6 0 1.6.9 2.8 2.2 2.8.4 0 .8-.2 1-.3v-1.2c0-.5-.2-.6-1.1-.6v-.4h3v.5zm4-2.5L87 167h1.6l-.9-2.2zm-.9 2.8l-.4 1.1c-.2.5-.2.7.7.7h.1v.4h-2.4v-.4h.2c.4 0 .7-.3.9-.9l1.6-4.6-.1-.2h1.4l1.8 4.8c.2.6.5.8.9.9v.4h-3v-.4h.3c.5 0 .6-.3.5-.7l-.5-1.1h-2zm11.6 1.1c0 .5.2.7.7.7h.1v.4h-3v-.4h.2c.5 0 .7-.2.7-.7V165c0-.6-.2-.7-.7-.7h-.2v-.4h3v.4H99c-.6 0-.7.2-.7.8v1.7c.4 0 .8-.3 1.2-.8.3-.3.9-1.1.9-1.4 0-.2-.2-.3-.5-.3h-.1v-.4h2.4v.4c-.6 0-.7.1-1 .3-.4.5-.8 1.4-1.5 1.9.2.1.7.7.9 1.1l.8 1.1c.5.6.8.9 1.4.9v.4h-3.1v-.4c.4 0 .6-.1.6-.3s-.8-1.2-1.4-1.9c-.3-.3-.4-.3-.6-.3v1.6zm5.5-4.9h2.9v.4h-.2c-.5 0-.7.2-.7.7v3.8c0 .5.2.7.7.7h.1v.4h-2.9v-.4h.2c.5 0 .6-.3.6-.7v-3.8c0-.5-.2-.7-.7-.7h-.1v-.4zm10 3c.2.1.4.1.7.1.8 0 1.3-.6 1.3-1.5 0-.8-.5-1.4-1.3-1.4-.2 0-.4 0-.7.2v2.6zm0 1.9c0 .5.2.7.8.7h.3v.4h-3.1v-.4h.2c.5 0 .6-.1.6-.6v-4.1c0-.4-.1-.6-.6-.6h-.2v-.4c.3 0 .8-.1 1.4-.1h1.5c1.7 0 2.5.8 2.5 1.9s-.9 1.8-2.3 1.8h-1.1v1.4zm9-4.9h2.4v.4h-.1c-.7 0-.8.3-.8.8v2.4c0 2.1-1.6 2.6-2.7 2.6-1.6 0-2.6-.8-2.6-2.2v-2.9c0-.5-.2-.6-.6-.6h-.2v-.4h2.8v.4h-.1c-.3 0-.6.1-.6.6v2.9c0 1.1.8 1.6 1.7 1.6 1.1 0 1.7-.8 1.7-1.8v-2.3c0-.6-.2-.9-.7-.9h-.2v-.6zm5.5 3h.4c1.1 0 1.7-.3 1.7-1.4 0-1-.7-1.4-1.6-1.4h-.5v2.8zm0 1.9c0 .5.2.7.7.7h.3v.4h-3.2v-.4h.1c.6 0 .8-.1.8-.7V165c0-.5-.1-.7-.7-.7h-.2v-.4c.4-.1.8-.1 1.1-.1h1.6c1.3 0 2 .2 2.5.7.3.3.5.6.5 1.1 0 .7-.5 1.3-1.4 1.6.6.5.9 1.2 1.6 2 .5.4.6.5 1.2.5v.4h-.6c-1.1 0-1.6-.2-2.1-.6-.4-.5-1-1.5-1.6-2h-.7v1.2zm9.8-4.4h-2v2.2h1.6c.5 0 .6-.2.6-.7h.4v2h-.4c0-.6-.1-.8-.8-.8h-1.4v1.7c0 .4.1.5.3.5h1.5c.6 0 .9-.2 1.1-1h.3l-.1 1.6h-5.5v-.4h.4c.5 0 .7-.3.7-.7v-3.8c0-.5-.2-.7-.8-.7h-.1v-.4h5.1v1.4h-.3c0-.7-.1-.9-.6-.9m7 5.1c.5 0 .7-.3.7-.7V167h-3v1.7c0 .5.2.7.7.7h.1v.4h-2.9v-.4h.2c.5 0 .7-.3.7-.7v-3.8c0-.5-.2-.7-.7-.7h-.1v-.4h2.9v.4h-.1c-.5 0-.7.1-.7.7v1.5h3V165c0-.6-.2-.7-.7-.7h-.1v-.4h3v.4h-.2c-.5 0-.7.1-.7.7v3.8c0 .5.2.7.7.7h.2v.4h-3v-.4h0zm8.4-5.6h2.3v.4c-.8 0-.9.3-.9.8v2.4c0 2.1-1.5 2.6-2.5 2.6-1.7 0-2.7-.8-2.7-2.2v-2.9c0-.5-.1-.6-.7-.6h-.1v-.4h2.9v.4h-.1c-.4 0-.6.1-.6.6v2.9c0 1.1.8 1.6 1.6 1.6 1.2 0 1.8-.8 1.8-1.8v-2.3c0-.6-.2-.9-.8-.9h-.1v-.6zm5.5 3h.4c1.1 0 1.7-.3 1.7-1.4 0-1-.8-1.4-1.7-1.4h-.5v2.8zm0 1.9c0 .5.3.7.8.7h.3v.4h-3.3v-.4h.2c.6 0 .8-.1.8-.7V165c0-.5-.1-.7-.7-.7h-.2v-.4c.5-.1.8-.1 1.2-.1h1.5c1.3 0 2.1.2 2.6.7.3.3.4.6.4 1.1 0 .7-.6 1.3-1.4 1.6.6.5.9 1.2 1.6 2 .4.4.6.5 1.2.5v.4h-.6c-1.1 0-1.6-.2-2-.6-.5-.5-.9-1.5-1.6-2h-.8v1.2zm9.6.7c1.2 0 1.9-1.1 1.9-2.5 0-1.5-.8-3-2.2-3-1.1 0-1.9.9-1.9 2.4 0 1.9.9 3.1 2.2 3.1m-.1-5.8c1.9 0 3.3 1.3 3.3 3.1 0 1.7-1.3 3.3-3.5 3.3-2 0-3.3-1.4-3.3-3.1 0-2 1.5-3.3 3.5-3.3m7.6 1.2l-.8 2.2h1.6l-.8-2.2zm-1 2.8l-.5 1.1c-.2.5-.2.7.8.7h.1v.4h-2.5v-.4h.1c.5 0 .6-.3.9-.9l1.6-4.6-.1-.2h1.4l1.8 4.8c.2.6.4.8.9.9v.4h-3v-.4h.3c.6 0 .7-.3.4-.7l-.4-1.1h-1.8z"/></g><path d="M119.7 162.3h4.5" fill="none" stroke="#0a2972" stroke-width=".09"/><g class="H"><path d="M21.2 184.2v4.8c0 .8.2 1.2.3 1.4.5.6 1.2.8 1.8.8 2.1 0 2.1-1.6 2.1-2.2v-4.7h1v4.8c0 .4 0 1.3-.6 2-.8 1-1.9 1.1-2.5 1.1-.7 0-2-.2-2.7-1.2-.2-.3-.5-.8-.5-1.9v-4.7h1.1z"/><use href="#C"/><path d="M36.1 184.2h1.1v7.7h-1.1zm6.1 7.7H41l-2.8-7.7h1.2l2.2 6.6 2.3-6.6H45zm3.8-7.7h4.9v.9h-3.8v2.4h3.6v.9h-3.6v2.6h3.8v.9H46zm7.6 3.3h1.7c.1 0 .7 0 1-.2.2-.1.5-.4.5-1 0-1.3-1.1-1.3-1.5-1.3h-1.7v2.5zm-1.1-3.3h2.8c.4 0 1.2 0 1.8.4s.9 1 .9 1.6c0 .5-.2 1-.5 1.4-.3.3-.7.4-.9.5.7.2 1.1.5 1.2 1.5.1.9.2 1.6.5 2.4H57c-.2-.5-.3-1.5-.4-2-.1-1.1-.4-1.4-1.7-1.4h-1.3v3.5h-1.1v-7.9zm7.8 5.4c0 .5.1 1.5 1.9 1.5 1.6 0 1.8-1 1.8-1.4 0-.9-.7-1-1.8-1.3-1.2-.3-1.7-.4-2.1-.7-.6-.4-.8-1-.8-1.5 0-1.6 1.5-2.3 2.9-2.3.5 0 1.5.1 2.2.8.4.5.4 1 .5 1.3h-1.1c-.1-1-.9-1.2-1.6-1.2-1.1 0-1.7.5-1.7 1.2s.4.9 1.4 1.1c1.8.5 2 .5 2.5.8.7.5.8 1.2.8 1.5 0 1.4-1.1 2.4-3 2.4-.6 0-1.8-.1-2.4-.9-.4-.6-.5-1.2-.5-1.6h1zm6.2-5.4h1.1v7.7h-1.1zm4.9 7.7v-6.8h-2.6v-.9H75v.9h-2.6v6.8zm7.2-3l-3-4.7h1.3l2.3 3.8 2.3-3.8h1.2l-3 4.7v3h-1.1zm9.2 1.6c.4.5 1.1.7 1.7.7s1.3-.2 1.7-.7c.6-.8.7-2 .7-2.5 0-1.8-.6-3.1-2.3-3.1-1.9 0-2.5 1.6-2.5 3.2 0 .8.2 1.7.7 2.4M87 185c.8-.9 1.9-1 2.6-1 2.1 0 3.5 1.4 3.5 4 0 2-.8 4.1-3.6 4.1-2.6 0-3.5-1.9-3.5-4 0-.9.2-2.2 1-3.1m7.5-.8h4.6v.9h-3.5v2.4h3.3v.9h-3.3v3.5h-1.1zm8.9 0h1.5l3.8 6.4v-6.4h.9v7.7h-1.3l-4-6.5v6.5h-.9zm7.8 0h4.8v.9h-3.8v2.4h3.6v.9h-3.6v2.6h3.9v.9h-4.9zm6.9 0l1.7 6.3 1.8-6.3h1.4l1.7 6.4 1.8-6.4h1l-2.3 7.7H124l-1.7-6.6-2 6.6h-1.1l-2.2-7.7zm12.8 6.6l4.5-5.7h-4.3v-.9h5.6v1l-4.5 5.8h4.5v.9h-5.8zm7-6.6h4.8v.9H139v2.4h3.6v.9H139v2.6h3.8v.9h-4.9zm8.1 4.8h2.9l-1.4-3.8-1.5 3.8zm1-4.8h1.1l3.1 7.7H150l-.8-2h-3.6l-.8 2h-1.1l3.3-7.7zm5.2 0h1.1v6.8h3.6v.9h-4.7zm7.6 4.8h2.9l-1.4-3.8-1.5 3.8zm.9-4.8h1.1l3.1 7.7h-1.2l-.8-2h-3.6l-.8 2h-1.1l3.3-7.7z"/><use href="#C" x="138"/><path d="M174.8 191h1c.7 0 1.5 0 2-.4 1-.7 1-2 1-2.4 0-.3 0-1.6-.7-2.4-.5-.5-1.1-.7-2.1-.7h-1.3v5.9zm-1-6.8h2.2c1 0 2.3 0 3.1 1 .7.8.9 1.9.9 2.9 0 1.7-.7 2.7-1.3 3.2-.8.6-1.7.6-2.8.6h-2.2v-7.7zm-154.1-5.9h160.1v.7H19.7z"/></g><defs ><path id="B" d="M85.9 125.5h1.3c1.1 3.2 3 4.8 5.5 4.8 2.1 0 3.7-1.4 3.7-3.2 0-4.8-10.4-4.7-10.4-11.1 0-3.1 2.7-5.3 6.6-5.3 2.5 0 4.4.8 4.9.8.2 0 .4-.1.7-.4h.7l.6 5.2h-1.3c-.7-2.6-2.8-4.3-5.3-4.3-1.8 0-3.2 1-3.2 2.2 0 3 5.4 3.5 9 7.1 1.3 1.3 1.8 2.7 1.8 4.3 0 3.4-3 6-6.9 6-2.6 0-4.9-1-5.5-1-.3 0-.5.2-.7.5h-.8l-.7-5.6z"/><path id="C" d="M27.9 184.2h1.5l3.8 6.4v-6.4h.9v7.7h-1.3l-3.9-6.5v6.5h-1z"/></defs></svg>