<svg xmlns="http://www.w3.org/2000/svg" width="209" height="40" viewBox="0 0 1220 234" xmlns:v="https://vecta.io/nano"><defs><path id="A" d="M0 232.2h1219.453V.529H0z"/></defs><g fill="none" fill-rule="evenodd"><path fill="#fff" d="M259.559 174.027l-18.9-49.855v49.855h-14.917V97.69h18.896l20.39 53.833 20.266-53.833h18.649v76.337h-15.043v-49.855l-18.527 49.855z"/><g transform="translate(0 .071)"><path d="M328.151 140.139h21.509c-.122-5.844-3.606-10.445-9.947-10.445-5.968 0-10.193 3.606-11.563 10.445h0zm36.305 15.664c-1.99 11.812-10.692 19.397-24.617 19.397-16.161 0-26.978-11.812-26.978-28.97 0-16.783 11.189-29.091 26.731-29.091 16.287 0 25.237 11.313 25.237 27.6v4.724h-37.05c.498 8.33 5.222 13.303 12.061 13.303 5.223 0 9.075-2.237 10.319-6.963h14.297zm48.209-18.772c-1.738-3.731-5.968-6.466-10.44-6.466-8.33 0-13.305 6.713-13.305 15.665 0 8.828 4.975 15.541 13.305 15.541 4.598 0 8.702-2.611 10.44-6.464v-18.276zm0 32.324c-2.484 2.984-7.957 5.844-13.924 5.844-16.162 0-25.237-13.056-25.237-28.969s9.075-29.091 25.237-29.091c5.967 0 11.44 2.858 13.924 5.842V93.143h15.541v80.813h-15.541v-4.6z" fill="#fff"/><mask id="B" fill="#fff"><use href="#A"/></mask><path d="M440.597 173.956h15.415v-55.575h-15.415v55.575zm7.71-62.784c-4.975 0-9.201-3.606-9.201-8.828 0-5.096 4.226-8.828 9.201-8.828 4.849 0 9.075 3.731 9.075 8.828 0 5.222-4.226 8.828-9.075 8.828h0zm50.836 43.637c-1.369-2.984-5.595-4.847-10.072-4.847-4.85 0-9.821 2.113-9.821 6.836 0 4.849 4.971 6.839 9.821 6.839 4.477 0 8.702-1.865 10.072-4.849v-3.979zm0 19.147v-2.984c-1.867 1.866-7.463 3.979-13.552 3.979-11.189 0-20.638-6.464-20.638-18.027 0-10.568 9.448-17.779 21.505-17.779 4.85 0 10.445 1.616 12.685 3.233v-4.104c0-4.724-2.861-8.579-9.079-8.579-4.351 0-6.96 1.989-8.204 5.222h-14.67c1.616-10.07 10.691-17.777 23.372-17.777 14.796 0 23.373 8.08 23.373 21.383v35.434h-14.792zm68.717-14.049c14.548 0 22.505-9.326 22.505-24.119 0-14.92-7.957-24.244-22.505-24.244h-10.566v48.363h10.566zm-26.355-62.288h26.978c23.126 0 37.67 14.919 37.67 38.168s-14.545 38.168-37.67 38.168h-26.978V97.619zm85.816 42.52h21.509c-.122-5.844-3.606-10.442-9.947-10.442-5.968 0-10.193 3.604-11.563 10.442h0zm36.305 15.664c-1.99 11.812-10.692 19.397-24.617 19.397-16.16 0-26.978-11.812-26.978-28.97 0-16.783 11.19-29.091 26.731-29.091 16.287 0 25.237 11.313 25.237 27.6v4.724h-37.05c.499 8.33 5.222 13.303 12.061 13.303 5.223 0 9.076-2.239 10.319-6.963h14.297zm22.82 1.617c1.243 3.979 4.724 6.093 9.322 6.093 4.724 0 7.835-1.865 7.835-5.471 0-2.485-1.742-3.729-5.595-4.724l-11.19-2.487c-8.455-1.99-14.423-6.341-14.423-15.665 0-10.817 9.699-18.026 22.129-18.026 14.05 0 21.76 6.713 23.624 17.156h-14.67c-.997-3.108-3.606-5.47-8.702-5.47-3.731 0-7.337 1.74-7.337 5.222 0 2.236 1.495 3.48 4.975 4.351l11.437 2.611c9.699 2.362 14.795 7.708 14.795 16.162 0 11.313-9.82 18.029-22.753 18.029-13.552 0-23.125-6.466-24.742-17.78h15.294zm42.099 16.536h15.416v-55.575h-15.416v55.575zm7.709-62.784c-4.975 0-9.2-3.606-9.2-8.828 0-5.096 4.226-8.828 9.2-8.828 4.85 0 9.076 3.731 9.076 8.828 0 5.222-4.226 8.828-9.076 8.828h0zm54.491 24.616c-1.864-3.11-5.842-5.719-10.445-5.719-8.204 0-13.054 6.215-13.054 14.794 0 8.704 4.85 14.919 13.054 14.919 4.603 0 8.581-2.611 10.445-5.842v-18.152zm0 31.206c-2.488 2.983-7.585 5.719-13.678 5.719-16.036 0-25.236-12.931-25.236-27.85 0-14.794 9.2-27.724 25.236-27.724 6.093 0 11.19 2.735 13.678 5.593v-4.351h15.293v49.484c0 19.021-11.562 27.85-27.229 27.85-14.423 0-24.244-7.337-25.86-19.769h14.921c1.24 5.222 4.971 7.833 10.939 7.833 7.831 0 11.936-4.6 11.936-13.552v-3.232zm24.106-48.613h15.415v5.099c2.986-3.482 8.455-6.34 14.922-6.34 12.554 0 19.641 8.204 19.641 20.514v36.302h-15.416v-33.071c0-5.842-2.982-9.821-9.075-9.821-4.724 0-8.828 2.858-10.072 7.708v35.185h-15.415v-55.575zm93.957 33.817c2.114 6.715 7.71 9.823 15.169 9.823 7.709 0 12.806-3.482 12.806-9.573 0-4.601-2.735-7.087-9.322-8.579l-13.678-3.107c-10.943-2.487-19.394-8.329-19.394-20.887 0-13.801 11.437-23.498 27.477-23.498 17.405 0 27.476 9.201 29.96 22.131h-15.788c-1.742-5.098-6.094-9.077-14.05-9.077-7.212 0-12.058 3.481-12.058 8.951 0 4.351 2.857 6.962 8.577 8.329l13.925 3.233c12.434 2.86 20.018 9.946 20.018 21.509 0 14.795-12.187 23.747-28.348 23.747-17.032 0-29.093-8.455-31.703-23.002h16.409zm79.258-35.059c13.925 0 22.753 8.204 24.365 20.015h-15.164c-.871-4.228-4.229-6.838-9.201-6.838-7.09 0-11.441 6.466-11.441 15.914 0 9.326 4.351 15.79 11.441 15.79 4.972 0 8.33-2.611 9.201-6.839h15.164c-1.613 11.936-10.441 20.018-24.365 20.018-15.792 0-26.731-11.812-26.731-28.97 0-17.281 10.939-29.091 26.731-29.091m33.682-23.995h15.416v30.337c2.986-3.482 8.455-6.341 14.921-6.341 12.555 0 19.645 8.204 19.645 20.515v36.302h-15.42v-33.071c0-5.842-2.981-9.821-9.075-9.821-4.724 0-8.828 2.859-10.072 7.708v35.184h-15.416V93.143zm86.112 37.05c-7.706 0-11.936 6.713-11.936 16.037 0 9.2 4.23 15.914 11.936 15.914s11.936-6.713 11.936-15.914c0-9.325-4.226-16.037-11.936-16.037m0 45.007c-16.161 0-27.226-11.936-27.226-28.97 0-17.156 11.065-29.091 27.226-29.091s27.23 11.935 27.23 29.091c0 17.034-11.065 28.97-27.23 28.97m60.584-45.007c-7.706 0-11.935 6.713-11.935 16.037 0 9.2 4.229 15.914 11.935 15.914s11.936-6.713 11.936-15.914c0-9.325-4.226-16.037-11.936-16.037m0 45.007c-16.161 0-27.226-11.936-27.226-28.97 0-17.156 11.065-29.091 27.226-29.091s27.23 11.935 27.23 29.091c0 17.034-11.065 28.97-27.23 28.97m35.593-1.244h15.416V93.143h-15.416zM127.134 71.594l11.14-38.781c2.694-9.519 8.773-32.851 11.77-32.274 3.305.637-3.179 33.486-3.856 37.822l-2.776 17.184c-.091.505-.257 1.646.066 1.754s.773-.842.982-1.278l3.391-7.13 12.591-25.878c.692-1.418 3.438-7.345 4.967-6.889 1.697.507-.727 9.127-1.56 11.988l-9.535 32.309-10.139 32.855c-.398 1.284-.853 2.551-1.264 3.83-.14.434-.394 1.204-.011 1.523.268.222.607.076.882-.067.307-.158.574-.401.839-.629 9.616-8.293 19.568-16.175 29.493-24.089l29.991-23.75c3.123-2.461 6.319-4.832 9.512-7.201.935-.694 3.866-2.651 4.689-1.958.85.716-.601 3.097-1.573 4.231l-6.857 7.756-27.389 29.168-21.131 22.045c-.427.445-1.207 1.187-1.04 1.534s1.082.03 1.565-.106l8.951-2.524c1.393-.392 3.698-.704 4.309.37.659 1.16-.77 2.567-1.673 3.344-1.562 1.321-3.214 2.536-4.824 3.799-.454.355-1.27 1.009-1.201 1.305.061.264.532.209.8.175l6.781-.905 15.482-2.014c2.437-.311 4.871-.651 7.317-.863 2.807-.24 7.178-.669 7.563.886.416 1.681-2.665 3.212-4.274 3.849-4.016 1.613-50.194 17.858-51.747 18.375-1.96.63-2.718 1.199-2.718 1.996 0 .584.92 1.213 1.456 1.545l8.207 5.077 13.81 9.336 14.863 10.59c1.092.784 2.163 1.606 3.172 2.492.652.572 1.274 1.232 1.73 1.963.802 1.288.085 2.531-1.418 2.525a7.35 7.35 0 0 1-2.071-.316c-2.237-.679-4.487-1.34-6.677-2.152l-25.964-9.724c-.637-.257-1.606-.689-1.82-.41-.211.272.299.919.604 1.375l8.846 13.504c1.331 2.063 2.584 4.18 3.794 6.316.544.959.974 2.002 1.318 3.052.322.981.221 2.092-.483 2.489s-1.469.137-2.087-.159-2.054-1.143-2.964-1.863l-8.3-6.757-8.645-7.441c-.283-.243-.896-.815-1.069-.707-.196.121.19 1.315.368 1.85l3.42 10.325c.563 1.781 1.195 4.423 1.435 5.422s.404 2.667-.539 2.985c-.895.302-1.786-.365-2.281-1.033l-3.457-4.637c-.264-.362-.955-1.514-1.281-1.434-.289.071-.206.68-.15 1.042l1.748 11.269 5.28 36.822c.362 2.943.172 5.405-.977 5.494-1.162.089-2.108-1.762-3.116-4.411l-7.49-20.989-9.65-28.412-1.678-5.174c-.234-.715-.49-1.422-.767-2.219-.251-.679-1.046.698-1.676.698s-.914-.926-1.282-2.023c-.272-.812-1.937-6.91-2.153-7.755-.131-.513-.262-1.165-.575-1.165-.283 0-.611.737-.956 1.407l-3.675 7.184c-3.584 6.707-7.288 13.349-11.267 19.831-1.334 2.02-3.735 5.68-5.56 5.071-1.336-.445-1.033-2.956-.626-5.074l2.422-12.214c.826-3.829 1.78-7.63 2.66-11.447.29-1.199.133-2.326-.897-2.788-1.038-.466-2.585.064-5.183 2.27l-29.035 23.82-33.943 27.519c-3.871 3.119-10.474 8.122-11.798 9.122-1.349 1.019-3.595 2.245-4.143 1.673-.524-.548.641-2.639 2.035-4.211l4.328-4.84 39.467-41.176 31.696-32.336c1.312-1.335 2.689-2.605 4.021-3.92.314-.292.731-.749.622-1.027-.167-.431-2.033-.403-2.774-.41-4.913-.046-67.91-2.968-70.504-3.172s-4.587-.824-4.587-2.088 3.264-2.249 6.029-2.569l25.367-3.584 24.017-3.082 10.812-1.199c.737-.082 2.126-.146 2.227-.518s-1.036-.859-1.573-1.168l-13.1-7.49-37.238-21.835-27.113-16.2c-2.256-1.355-7.458-4.712-8.638-5.694-.316-.254-.602-.557-.851-.878-.337-.435-.52-.937-.219-1.466.315-.553.866-.568 1.394-.464.629.124 1.261.275 1.861.496 2.47.907 4.962 1.768 7.387 2.786l35.073 14.821 34.471 14.884c9.161 4.008 18.326 8.016 27.248 12.547 1.945.929 2.913 1.118 3.859.526 1.349-.847 1.883-6.821 2.451-14.323l2.2-34.707 1.525-15.189c.403-3.656.67-7.802 2.45-7.906 1.373-.08 1.976 2.415 2.345 4.839l2.392 16.851c.399 2.897.687 5.788 1.064 8.688.056.395.105 1.111.424 1.155.364.05.679-1.12.838-1.67M71.728 24.488c.534-.16 1.343.779 1.806 1.538l2.471 4.037 16.871 30.759 8.971 16.883c1.199 2.282 2.201 4.657 2.751 7.187.21.965.291 1.963.362 2.951.037.518-.026 1.056-.128 1.568-.453 2.288-2.342 3.114-4.367 1.915-1.019-.603-1.84-1.435-2.582-2.35-1.446-1.78-2.626-3.731-3.592-5.804l-2.69-6.097-15.67-37.934c-1.781-4.52-4.243-10.845-4.694-13.016-.148-.71-.043-1.477.491-1.637m-51.69 151.97c-.336-.604.104-1.685 2.418-3.101l8.236-5.63c1.858-1.227 3.835-2.246 6.061-2.645.625-.112 1.286-.185 1.909-.104 1.702.22 2.386 1.504 1.67 3.053-.555 1.203-1.486 2.08-2.564 2.813-1.408.957-2.912 1.734-4.519 2.291l-9.122 3.098c-1.436.468-3.747.838-4.088.224" mask="url(#B)" fill="#fff"/></g></g></svg>