<svg xmlns="http://www.w3.org/2000/svg" viewBox="0 0 216.4 145.6" xmlns:v="https://vecta.io/nano"><g fill-rule="evenodd" fill="#fff"><path d="M214.5 132.2c-.2.8-.7 1.4-1.3 1.7l-.3.1h-.2c-.1 0-.1-.1-.2-.1l-.2-.4v-.2c0-.1.1-.1.1-.2l.2-.1c.2-.1.4-.3.6-.5.1-.2.2-.4.3-.7l.1-.3h-.4c-.2 0-.3-.1-.3-.3l-1.6-5.7v-.2c.1 0 .1-.1.2-.1h.7c.2 0 .3.1.3.3l1.1 4.7.1.4v.3-.1-.2c0-.1 0-.2.1-.3 0-.1 0-.2.1-.3l1.1-4.5c0-.2.2-.3.3-.3h.7c.1 0 .1 0 .2.1 0 .1.1.1 0 .2l-1.7 6.7zm-5.3-4.8c0-.3 0-.5-.1-.7s-.1-.3-.2-.4-.2-.2-.4-.2h-.5-.5a.76.76 0 0 0-.4.2c-.1.1-.2.2-.2.4-.1.2-.1.4-.1.7s0 .5.1.7.1.3.2.4.2.2.4.2c.1 0 .3.1.5.1s.3 0 .4-.1a.76.76 0 0 0 .4-.2c.1-.1.2-.2.2-.4.2-.2.2-.5.2-.7zm1.7-1.6c0 .2-.1.3-.2.3l-.7.1c.1.2.3.4.3.6.1.2.1.4.1.7 0 .7-.2 1.3-.6 1.7s-1 .6-1.7.6c-.2 0-.5 0-.7-.1l-.2.2c0 .1-.1.1-.1.2s0 .2.1.3c.1 0 .3.1.5.1h1.1c.6 0 1.1.1 1.4.4s.5.7.5 1.3c0 .4-.1.7-.2 1a.9.9 0 0 1-.6.6c-.2.2-.5.3-.8.3-.3.1-.6.1-1 .1-.3 0-.6 0-.9-.1s-.6-.1-.8-.3c-.2-.1-.4-.3-.6-.6-.1-.2-.2-.5-.2-.9 0-.1 0-.2.1-.2.1-.1.1-.1.2-.1h.7c.2 0 .3.1.3.3s.1.3.2.4.2.2.3.2c.1.1.3.1.4.1h.4c.4 0 .7-.1 1-.2s.4-.4.4-.7-.1-.5-.2-.6-.4-.2-.8-.2h-1.3-.5c-.2 0-.3-.1-.5-.2l-.3-.3c-.1-.1-.1-.3-.1-.5s.1-.4.2-.6.2-.3.4-.5a1.85 1.85 0 0 1-.7-.8c-.2-.3-.3-.7-.3-1.1s0-.7.2-1c.1-.3.3-.5.5-.7s.5-.3.7-.4c.3-.1.6-.2 1-.2h.5.4 1.7c.2 0 .3.1.3.3v.5zm-7.6 2.5c0-.8-.1-1.3-.4-1.7-.2-.3-.6-.5-1-.5s-.7.2-1 .5a3.53 3.53 0 0 0-.4 1.7c0 .8.1 1.4.4 1.7.2.4.6.5 1 .5s.7-.2 1-.5.4-.9.4-1.7zm1.2 0c0 1-.2 1.8-.7 2.4s-1.1.8-1.9.8-1.4-.3-1.9-.8c-.5-.6-.7-1.4-.7-2.4s.2-1.8.7-2.4c.4-.6 1.1-.8 1.9-.8s1.4.3 1.9.8c.5.6.7 1.4.7 2.4zm-6.6 2.9c0 .1 0 .1-.1.2-.1 0-.1.1-.2.1h-.6c-.1 0-.1 0-.2-.1s-.1-.1-.1-.2v-8.7c0-.1 0-.1.1-.2s.1-.1.2-.1h.6c.1 0 .1 0 .2.1 0 0 .1.1.1.2v8.7zm-3.9-2.9c0-.8-.1-1.3-.4-1.7-.2-.3-.6-.5-1-.5s-.7.2-1 .5a3.53 3.53 0 0 0-.4 1.7c0 .8.1 1.4.4 1.7.2.4.6.5 1 .5s.7-.2 1-.5.4-.9.4-1.7zm1.2 0c0 1-.2 1.8-.7 2.4s-1.1.8-1.9.8-1.4-.3-1.9-.8c-.5-.6-.7-1.4-.7-2.4s.2-1.8.7-2.4c.4-.6 1.1-.8 1.9-.8s1.4.3 1.9.8c.5.6.7 1.4.7 2.4zm-6.6 2.9c0 .1 0 .1-.1.2-.1 0-.1.1-.2.1h-.6c-.1 0-.1 0-.2-.1s-.1-.1-.1-.2V127c0-.3 0-.5-.2-.7-.1-.1-.3-.2-.6-.2-.2 0-.4 0-.5.1-.2.1-.3.2-.4.3s-.2.3-.3.5-.1.4-.1.6v3.6c0 .1 0 .1-.1.2-.1 0-.1.1-.2.1h-.6c-.1 0-.1 0-.2-.1s-.1-.1-.1-.2v-5.7c0-.1 0-.2.1-.2s.1-.1.2-.1h.4c.2 0 .3.1.3.2l.1.6c.3-.3.6-.5.9-.7.3-.1.6-.2.9-.2.5 0 .9.1 1.2.4s.4.7.4 1.2v4.5zm-6.4 0c0 .1 0 .1-.1.2-.1 0-.1.1-.2.1h-.6c-.1 0-.1 0-.2-.1s-.1-.1-.1-.2V127c0-.3-.1-.5-.2-.7-.1-.1-.3-.2-.6-.2-.2 0-.4 0-.5.1-.2.1-.3.2-.4.3s-.2.3-.3.5-.1.4-.1.6v3.6c0 .1 0 .1-.1.2-.1 0-.1.1-.2.1h-.6c-.1 0-.1 0-.2-.1s-.1-.1-.1-.2v-8.7c0-.1 0-.2.1-.2s.1-.1.2-.1h.6c.1 0 .1 0 .2.1 0 .1.1.1.1.2v3.4a2.11 2.11 0 0 1 1.7-.8c.5 0 .9.1 1.2.4s.4.7.4 1.2v4.5zm-5.8-.2c0 .2 0 .3-.2.3-.1 0-.3.1-.5.1s-.5.1-.8.1c-.8 0-1.4-.3-1.9-.8s-.7-1.4-.7-2.4c0-.5.1-.9.2-1.3s.3-.7.5-1 .5-.5.8-.7.7-.2 1.1-.2c.2 0 .4 0 .6.1.2 0 .4.1.5.2.2.1.3.2.2.3l-.2.5c0 .1-.1.1-.1.2h-.2c-.1 0-.2-.1-.4-.1h-.5c-.4 0-.7.2-1 .6-.2.4-.4.9-.4 1.6s.1 1.3.4 1.7c.2.4.6.5 1.1.5h.5c.2 0 .3-.1.4-.1h.2c.1 0 .1.1.1.2l.3.2zm-6.4-3.2c0-.2 0-.4-.1-.6 0-.2-.1-.4-.2-.5a1.38 1.38 0 0 0-.3-.4c-.1-.1-.3-.1-.5-.1-.1 0-.3 0-.4.1s-.2.1-.4.3c-.1.1-.2.3-.3.5s-.1.5-.2.9h2.4zm1.2.6c0 .1 0 .1-.1.2 0 .1-.1.1-.2.1h-3.2c0 .6.2 1.1.4 1.4s.6.5 1.2.5c.3 0 .6 0 .8-.1s.4-.1.5-.1h.2c.1 0 .1.1.1.2l.2.4c.1.2 0 .3-.2.4-.1 0-.3.1-.5.2-.3.1-.6.1-1.1.1-.9 0-1.6-.3-2-.8-.5-.5-.7-1.3-.7-2.4 0-1 .2-1.8.7-2.3.4-.6 1-.8 1.8-.8.3 0 .6 0 .9.2.3.1.5.3.7.5s.4.6.5 1v1.3zm-4.4-4.9c0 .1 0 .2-.1.2s-.1.1-.2.1h-1.9v7.4c0 .1 0 .1-.1.2s-.1.1-.2.1h-.6c-.1 0-.1 0-.2-.1-.1 0-.1-.1-.1-.2v-7.4h-1.9c-.1 0-.2 0-.2-.1-.1-.1-.1-.1-.1-.2v-.5c0-.1 0-.2.1-.2s.1-.1.2-.1h5.1c.1 0 .1 0 .2.1s.1.1.1.2v.5zm-8.5-.3c0 .1-.1.1-.1.1h-.2c-.1 0-.1 0-.2-.1s-.2-.1-.3-.1c-.2 0-.3.1-.4.2s-.1.3-.1.5v1.3h.7c.1 0 .1 0 .2.1 0 .1.1.1.1.2v.4c0 .1 0 .1-.1.2s-.1.1-.2.1h-.7v5.1c0 .1 0 .1-.1.2-.1 0-.1.1-.2.1h-.7c-.1 0-.1 0-.2-.1s-.1-.1-.1-.2v-5.1h-.6c-.1 0-.2 0-.2-.1-.1-.1-.1-.1-.1-.2v-.4c0-.1 0-.1.1-.2 0 0 .1-.1.2-.1h.6v-1.3c0-.6.2-1 .5-1.3s.7-.4 1.1-.4c.2 0 .5 0 .6.1.2 0 .3.1.4.1.1.1.2.2.1.4l-.1.5zm-5.4 5.1c0-.8-.1-1.3-.4-1.7-.2-.3-.6-.5-1-.5s-.7.2-1 .5a3.53 3.53 0 0 0-.4 1.7c0 .8.1 1.4.4 1.7.2.4.6.5 1 .5s.7-.2 1-.5.4-.9.4-1.7zm1.2 0c0 1-.2 1.8-.7 2.4s-1.1.8-1.9.8-1.4-.3-1.9-.8c-.5-.6-.7-1.4-.7-2.4s.2-1.8.7-2.4c.4-.6 1.1-.8 1.9-.8s1.4.3 1.9.8c.5.6.7 1.4.7 2.4zm-10.5-.5c0-.2 0-.4-.1-.6 0-.2-.1-.4-.2-.5a1.38 1.38 0 0 0-.3-.4c-.1-.1-.3-.1-.5-.1-.1 0-.3 0-.4.1s-.2.1-.4.3c-.1.1-.2.3-.3.5s-.1.5-.2.9h2.4zm1.2.6c0 .1 0 .1-.1.2 0 .1-.1.1-.2.1h-3.2c0 .6.2 1.1.4 1.4s.6.5 1.2.5c.3 0 .6 0 .8-.1s.4-.1.5-.1h.2c.1 0 .1.1.1.2l.2.4c.1.2 0 .3-.2.4-.1 0-.3.1-.5.2-.3.1-.6.1-1.1.1-.9 0-1.6-.3-2-.8-.5-.5-.7-1.3-.7-2.4 0-1 .2-1.8.7-2.3.4-.6 1-.8 1.8-.8.3 0 .6 0 .9.2.3.1.5.3.7.5s.4.6.5 1c-.1.1 0 .6 0 1.3zm-5.5 2.7v.2c0 .1-.1.1-.2.1s-.2.1-.4.1h-.5c-.8 0-1.3-.4-1.3-1.3v-4.1h-.6c-.1 0-.2 0-.2-.1s-.1-.1-.1-.2v-.4c0-.1 0-.1.1-.2 0 0 .1-.1.2-.1h.6v-1.3c0-.2.1-.3.2-.3l.6-.2h.2c.1 0 .1.1.1.2v1.7h.7c.1 0 .1 0 .2.1 0 .1.1.1.1.2v.4c0 .1 0 .1-.1.2s-.1.1-.2.1h-.7v3.9c0 .2 0 .3.1.4s.2.1.3.1h.2.2.2c.1 0 .1.1.1.2l.2.3zm-4.3.1c0 .1 0 .1-.1.2-.1 0-.1.1-.2.1h-.4c-.2 0-.2-.1-.3-.2l-.2-.6-.3.3c-.1.1-.2.2-.4.3-.1.1-.3.2-.5.2-.2.1-.4.1-.7.1-.5 0-.9-.1-1.2-.4s-.4-.7-.4-1.2v-4.4c0-.1 0-.2.1-.2s.1-.1.2-.1h.6c.1 0 .1 0 .2.1s.1.1.1.2v4.3c0 .3.1.5.2.6s.3.2.5.2c.4 0 .8-.2 1.1-.5s.4-.8.4-1.4v-3.2c0-.1 0-.2.1-.2s.1-.1.2-.1h.6c.1 0 .1 0 .2.1s.1.1.1.2v5.6zm-5.7-.1v.2c0 .1-.1.1-.2.1s-.2.1-.4.1h-.5c-.8 0-1.3-.4-1.3-1.3v-4.1h-.6c-.1 0-.2 0-.2-.1s-.1-.1-.1-.2v-.4c0-.1 0-.1.1-.2 0 0 .1-.1.2-.1h.6v-1.3c0-.2.1-.3.2-.3l.6-.2h.2c.1 0 .1.1.1.2v1.7h.7c.1 0 .1 0 .2.1s.1.1.1.2v.4c0 .1 0 .1-.1.2 0 .1-.1.1-.2.1h-.7v3.9c0 .2 0 .3.1.4s.2.1.3.1h.2.2.2s.1.1.1.2l.2.3zm-4.3.1c0 .1 0 .1-.1.2-.1 0-.1.1-.2.1h-.6c-.1 0-.1 0-.2-.1s-.1-.1-.1-.2v-5.7c0-.1 0-.1.1-.2.1 0 .1-.1.2-.1h.6c.1 0 .1 0 .2.1 0 .1.1.1.1.2v5.7zm.2-8.2c0 .2-.1.4-.2.6-.2.2-.4.2-.6.2s-.4-.1-.6-.2c-.2-.2-.2-.3-.2-.6 0-.2.1-.4.2-.6s.3-.2.6-.2c.2 0 .4.1.6.2.1.2.2.4.2.6zm-2.5 8.1v.2c0 .1-.1.1-.2.1s-.2.1-.4.1h-.5c-.8 0-1.3-.4-1.3-1.3v-4.1h-.6c-.1 0-.2 0-.2-.1-.1-.1-.1-.1-.1-.2v-.4c0-.1 0-.1.1-.2 0 0 .1-.1.2-.1h.6v-1.3c0-.2.1-.3.2-.3l.6-.2h.2c.1 0 .1.1.1.2v1.7h.7c.1 0 .1 0 .2.1s.1.1.1.2v.4c0 .1 0 .1-.1.2 0 .1-.1.1-.2.1h-.7v3.9c0 .2 0 .3.1.4s.2.1.3.1h.2.2.2s.1.1.1.2l.2.3zm-3.7-1.4c0 .5-.2 1-.5 1.3-.4.4-.9.5-1.5.5-.4 0-.7 0-1-.1l-.7-.2c-.2-.1-.2-.2-.2-.4l.1-.5c0-.1.1-.2.1-.2h.2c.2.1.4.2.7.2.2.1.5.1.8.1.6 0 .9-.2.9-.7 0-.1 0-.3-.1-.4s-.1-.2-.2-.3-.2-.2-.3-.2l-.4-.2c-.2-.1-.4-.2-.5-.3-.2-.1-.4-.2-.5-.4-.2-.1-.3-.3-.4-.5s-.1-.4-.1-.7c0-.6.2-1 .5-1.3.4-.3.9-.5 1.5-.5.3 0 .6 0 .8.1.2 0 .4.1.6.2.1 0 .1.1.2.1v.2l-.1.4c-.1.2-.2.2-.4.2-.1-.1-.3-.1-.5-.2s-.4-.1-.6-.1c-.3 0-.5.1-.6.2s-.2.3-.2.5c0 .1 0 .2.1.3s.1.2.2.2c.1.1.2.1.3.2l.4.2.6.3c.2.1.4.2.5.4s.3.3.4.5c-.2.6-.1.8-.1 1.1zm-5.4 1.5c0 .1 0 .1-.1.2-.1 0-.1.1-.2.1h-.6c-.1 0-.1 0-.2-.1s-.1-.1-.1-.2V127c0-.3-.1-.5-.2-.7-.1-.1-.3-.2-.6-.2-.2 0-.4 0-.6.1s-.3.2-.4.3-.2.3-.3.5-.1.4-.1.6v3.6c0 .1 0 .1-.1.2-.1 0-.1.1-.2.1h-.6c-.1 0-.1 0-.2-.1s-.1-.1-.1-.2v-5.7c0-.1 0-.2.1-.2s.1-.1.2-.1h.4c.2 0 .3.1.3.2l.1.6c.3-.3.6-.5.9-.7.3-.1.6-.2.9-.2.5 0 .9.1 1.2.4s.4.7.4 1.2v4.5zm-6.5 0c0 .1 0 .1-.1.2s-.1.1-.2.1h-.7c-.1 0-.1 0-.2-.1-.1 0-.1-.1-.1-.2V123c0-.1 0-.2.1-.2s.1-.1.2-.1h.7c.1 0 .1 0 .2.1s.1.1.1.2v8.2zm-6.3 0c0 .1 0 .1-.1.2-.1 0-.1.1-.2.1h-.6c-.1 0-.1 0-.2-.1s-.1-.1-.1-.2V127c0-.3-.1-.5-.2-.7-.1-.1-.3-.2-.6-.2-.2 0-.4 0-.5.1-.2.1-.3.2-.4.3s-.2.3-.3.5-.1.4-.1.6v3.6c0 .1 0 .1-.1.2-.1 0-.1.1-.2.1h-.6c-.1 0-.1 0-.2-.1s-.1-.1-.1-.2v-8.7c0-.1 0-.2.1-.2s.1-.1.2-.1h.6c.1 0 .1 0 .2.1 0 .1.1.1.1.2v3.4a2.11 2.11 0 0 1 1.7-.8c.5 0 .9.1 1.2.4s.4.7.4 1.2v4.5zm-7.6-3.8c0-.3 0-.5-.1-.7s-.1-.3-.2-.4-.2-.2-.4-.2H92h-.5a.76.76 0 0 0-.4.2c-.1.1-.2.2-.2.4-.1.2-.1.4-.1.7s0 .5.1.7.1.3.2.4.2.2.4.2c.1 0 .3.1.5.1s.3 0 .4-.1a.76.76 0 0 0 .4-.2c.1-.1.2-.2.2-.4.1-.2.2-.5.2-.7zm1.7-1.6c0 .2-.1.3-.2.3l-.7.1c.1.2.3.4.4.6s.1.4.1.7c0 .7-.2 1.3-.6 1.7s-1 .6-1.7.6c-.2 0-.5 0-.7-.1l-.2.2c0 .1-.1.1-.1.2s0 .2.1.3.3.1.5.1h1.1c.6 0 1.1.1 1.4.4.4.3.5.7.5 1.3 0 .4-.1.7-.2 1a.9.9 0 0 1-.6.6c-.2.2-.5.3-.8.3-.3.1-.6.1-1 .1-.3 0-.6 0-.9-.1s-.6-.1-.8-.3c-.2-.1-.4-.3-.6-.6-.1-.2-.2-.5-.2-.9 0-.1 0-.2.1-.2.1-.1.1-.1.2-.1h.7c.2 0 .3.1.3.3s.1.3.2.4.2.2.3.2c.1.1.3.1.4.1h.4c.4 0 .7-.1 1-.2s.4-.4.4-.7-.1-.5-.2-.6-.4-.2-.8-.2h-1.3-.5c-.2 0-.3-.1-.5-.2l-.3-.3c-.1-.1-.1-.3-.1-.5s.1-.4.2-.6.2-.3.4-.5a1.85 1.85 0 0 1-.7-.8c-.2-.3-.3-.7-.3-1.1s0-.7.2-1c.1-.3.3-.5.5-.7s.5-.3.7-.4c.3-.1.6-.2 1-.2h.5.4 1.7c.2 0 .3.1.3.3v.5zm-6.8 5.4c0 .1 0 .1-.1.2-.1 0-.1.1-.2.1h-.4c-.2 0-.2-.1-.3-.2l-.2-.6-.3.3a1.38 1.38 0 0 1-.4.3c-.1.1-.3.2-.5.2-.2.1-.4.1-.7.1-.5 0-.9-.1-1.2-.4s-.4-.7-.4-1.2v-4.4c0-.1 0-.2.1-.2s.1-.1.2-.1h.6c.1 0 .1 0 .2.1s.1.1.1.2v4.3c0 .3.1.5.2.6s.3.2.5.2c.4 0 .8-.2 1.1-.5s.4-.8.4-1.4v-3.2c0-.1 0-.2.1-.2s.1-.1.2-.1h.6c.1 0 .1 0 .2.1s.1.1.1.2v5.6zm-7.3-2.9c0-.8-.1-1.3-.4-1.7-.2-.3-.6-.5-1-.5s-.7.2-1 .5a3.53 3.53 0 0 0-.4 1.7c0 .8.1 1.4.4 1.7.2.4.6.5 1 .5s.7-.2 1-.5c.2-.3.4-.9.4-1.7zm1.2 0c0 1-.2 1.8-.7 2.4s-1.1.8-1.9.8-1.4-.3-1.9-.8c-.5-.6-.7-1.4-.7-2.4s.2-1.8.7-2.4c.4-.6 1.1-.8 1.9-.8s1.4.3 1.9.8c.4.6.7 1.4.7 2.4zm-5.8-2.1c-.1.2-.2.3-.4.2-.1 0-.2-.1-.3-.1s-.2-.1-.4-.1c-.1 0-.2 0-.3.1l-.3.3c-.1.1-.2.3-.2.5s-.1.5-.1.8v3.3c0 .1 0 .1-.1.2-.1 0-.1.1-.2.1h-.6c-.1 0-.1 0-.2-.1s-.1-.1-.1-.2v-5.7c0-.1 0-.2.1-.2s.1-.1.2-.1h.4c.2 0 .3.1.3.2l.2.6c.2-.3.4-.5.6-.7s.5-.2.8-.2c.2 0 .4 0 .5.1.2.1.3.2.3.4l-.2.6zm-5.9 2.1c0-.8-.1-1.3-.4-1.7-.2-.3-.6-.5-1-.5s-.7.2-1 .5a3.53 3.53 0 0 0-.4 1.7c0 .8.1 1.4.4 1.7.2.4.6.5 1 .5s.7-.2 1-.5.4-.9.4-1.7zm1.2 0c0 1-.2 1.8-.7 2.4s-1.1.8-1.9.8-1.4-.3-1.9-.8c-.5-.6-.7-1.4-.7-2.4s.2-1.8.7-2.4c.4-.6 1.1-.8 1.9-.8s1.4.3 1.9.8c.5.6.7 1.4.7 2.4zm-7.5 0v-.7c0-.3-.1-.5-.2-.7s-.2-.4-.4-.6c-.2-.1-.4-.2-.6-.2-.4 0-.7.2-.9.6s-.3 1-.3 1.7c0 .8.1 1.3.3 1.7.2.3.5.5.9.5s.7-.2.9-.5c.2-.4.3-1 .3-1.8zm1.3 0c0 .6 0 1.1-.2 1.5-.1.4-.2.7-.4 1s-.4.4-.7.6c-.3.1-.6.2-.9.2-.4 0-.7-.1-.9-.2s-.4-.4-.6-.7l-.1.5c0 .2-.2.3-.4.3h-.3c-.1 0-.1 0-.2-.1s-.1-.1-.1-.2v-8.7c0-.1 0-.2.1-.2s.1-.1.2-.1h.6c.1 0 .1 0 .2.1 0 .1.1.1.1.2v3.5c.2-.3.4-.5.6-.6s.5-.2.9-.2a1.69 1.69 0 0 1 1 .3c.3.2.5.4.7.7s.3.6.4 1c-.1.3 0 .7 0 1.1zm-6.8 2.9c0 .1 0 .1-.1.2-.1 0-.1.1-.2.1h-.6c-.1 0-.1 0-.2-.1s-.1-.1-.1-.2v-8.7c0-.1 0-.1.1-.2s.1-.1.2-.1h.6c.1 0 .1 0 .2.1 0 0 .1.1.1.2v8.7zm-2.3-5c-.1.2-.2.3-.4.2-.1 0-.2-.1-.3-.1s-.2-.1-.4-.1c-.1 0-.2 0-.3.1l-.3.3c-.1.1-.2.3-.2.5-.1.2-.1.5-.1.8v3.3c0 .1 0 .1-.1.2-.1 0-.1.1-.2.1h-.6c-.1 0-.1 0-.2-.1s-.1-.1-.1-.2v-5.7c0-.1 0-.2.1-.2s.1-.1.2-.1h.4c.2 0 .3.1.3.2l.2.6c.2-.3.4-.5.6-.7s.5-.2.8-.2c.2 0 .4 0 .5.1.2.1.3.2.3.4l-.2.6zm-6.2 2.2h-.8a1.69 1.69 0 0 0-1 .3c-.3.2-.4.5-.4 1 0 .3.1.5.2.7s.3.2.6.2c.2 0 .4 0 .6-.1s.3-.2.4-.3.2-.2.3-.4c.1-.1.1-.3.1-.4v-1zm1.3 2.8v.2s-.1.1-.2.1h-.6c-.1 0-.1 0-.2-.1-.1 0-.1-.1-.1-.2l-.1-.6c-.2.3-.5.5-.8.7-.3.1-.6.2-1 .2-.5 0-.9-.2-1.2-.5s-.5-.8-.5-1.4c0-.3 0-.6.2-.9.1-.2.3-.4.5-.6s.4-.3.6-.4.5-.1.8-.1l1.4-.1v-.3c0-.4-.1-.6-.2-.8s-.4-.3-.9-.3c-.3 0-.5 0-.7.1-.2 0-.4.1-.5.1h-.2c-.1 0-.1-.1-.1-.2l-.1-.5c0-.2 0-.3.2-.3.1 0 .4-.1.7-.2s.6-.1.9-.1c.4 0 .8 0 1.1.2.3.1.5.3.7.5s.3.5.4.7c.1.3.1.6.1.9v2.3.5a.9.9 0 0 0 .1.5l-.3.6zm-6.1 0c0 .2-.1.2-.2.2h-.8c-.2 0-.3-.1-.3-.2l-.3-5.9v-.5-1.3.3c0 .1-.1.3-.1.5l-.1.5c0 .2 0 .3-.1.4l-1.3 5c0 .2-.2.3-.3.3h-.8c-.2 0-.3-.1-.3-.3l-1.3-5c0-.1 0-.3-.1-.4 0-.2-.1-.3-.1-.5s-.1-.3-.1-.5v-.3.2.5.5.5l-.4 5.9c0 .2-.1.3-.3.3h-.7c-.1 0-.1 0-.2-.1-.1 0-.1-.1-.1-.2l.7-8.1c0-.1 0-.1.1-.2.1 0 .1-.1.2-.1h1.2c.1 0 .1 0 .2.1.1 0 .1.1.1.2l1.3 5.3c0 .1 0 .2.1.4 0 .1 0 .3.1.4v.4.3-.3c0-.1 0-.3.1-.4 0-.1 0-.3.1-.4 0-.1 0-.3.1-.4l1.3-5.3c0-.1.1-.1.1-.2.1 0 .1-.1.2-.1h1.1c.2 0 .3.1.3.3l.6 8.2zm-12.8 0c0 .1 0 .1-.1.2-.1 0-.1.1-.2.1h-.6c-.1 0-.1 0-.2-.1s-.1-.1-.1-.2V127c0-.3-.1-.5-.2-.7-.1-.1-.3-.2-.6-.2-.2 0-.4 0-.6.1s-.3.2-.4.3-.2.3-.3.5-.1.4-.1.6v3.6c0 .1 0 .1-.1.2-.1 0-.1.1-.2.1h-.6c-.1 0-.1 0-.2-.1s-.1-.1-.1-.2v-5.7c0-.1 0-.2.1-.2s.1-.1.2-.1h.4c.2 0 .3.1.3.2l.2.6c.3-.3.6-.5.9-.7.3-.1.6-.2.9-.2.5 0 .9.1 1.2.4s.4.7.4 1.2v4.5zm-7.2-2.9c0-.8-.1-1.3-.4-1.7-.2-.3-.6-.5-1-.5s-.7.2-1 .5a3.53 3.53 0 0 0-.4 1.7c0 .8.1 1.4.4 1.7.2.4.6.5 1 .5s.7-.2 1-.5c.2-.3.4-.9.4-1.7zm1.2 0c0 1-.2 1.8-.7 2.4s-1.1.8-1.9.8-1.4-.3-1.9-.8c-.5-.6-.7-1.4-.7-2.4s.2-1.8.7-2.4c.4-.6 1.1-.8 1.9-.8s1.4.3 1.9.8c.4.6.7 1.4.7 2.4zm-6.2 1.4c0 .5-.2 1-.5 1.3-.3.4-.9.5-1.5.5-.4 0-.7 0-1-.1l-.7-.2c-.2-.1-.2-.2-.2-.4l.1-.5c0-.1.1-.2.1-.2h.2c.2.1.4.2.7.2.2.1.5.1.8.1.6 0 .9-.2.9-.7 0-.1 0-.3-.1-.4s-.1-.2-.2-.3-.2-.2-.3-.2l-.4-.2c-.2-.1-.4-.2-.5-.3-.2-.1-.4-.2-.5-.4-.2-.1-.3-.3-.4-.5s-.1-.4-.1-.7c0-.6.2-1 .5-1.3.4-.3.9-.5 1.5-.5.3 0 .6 0 .8.1.2 0 .4.1.6.2.1 0 .1.1.2.1v.2l-.1.4c-.1.2-.2.2-.4.2-.1-.1-.3-.1-.5-.2s-.4-.1-.6-.1c-.3 0-.5.1-.6.2s-.2.3-.2.5c0 .1 0 .2.1.3s.1.2.2.2c.1.1.2.1.3.2l.4.2.6.3c.2.1.4.2.5.4s.3.3.4.5c-.1.6-.1.8-.1 1.1zm-5.4 1.5c0 .1 0 .1-.1.2-.1 0-.1.1-.2.1h-.6c-.1 0-.1 0-.2-.1s-.1-.1-.1-.2v-8.7c0-.1 0-.1.1-.2s.1-.1.2-.1h.6c.1 0 .1 0 .2.1.1 0 .1.1.1.2v8.7zm-3.9-3.4c0-.2 0-.4-.1-.6 0-.2-.1-.4-.2-.5-.1-.2-.2-.3-.3-.4s-.3-.1-.5-.1c-.1 0-.3 0-.4.1s-.2.1-.4.3c-.1.1-.2.3-.3.5s-.1.5-.2.9h2.4zm1.2.6c0 .1 0 .1-.1.2s-.1.1-.2.1H8.6c0 .6.2 1.1.4 1.4s.6.5 1.2.5c.3 0 .5 0 .8-.1.2-.1.4-.1.5-.1h.2s.1.1.1.2l.2.4c0 .2 0 .3-.2.4-.1 0-.3.1-.5.2-.3.1-.6.1-1.1.1-.9 0-1.6-.3-2.1-.8s-.7-1.3-.7-2.4c0-1 .2-1.8.7-2.3.4-.6 1-.8 1.8-.8.3 0 .6 0 .9.2.3.1.5.3.7.5s.4.6.5 1c.1.1.1.6.1 1.3zm-6.3 2.8c0 .1 0 .1-.1.2s-.1.1-.2.1h-1c-.2 0-.3-.1-.3-.2l-2.6-5.8c0-.1-.1-.2-.2-.4s-.1-.3-.2-.5c0-.2-.1-.3-.1-.5 0-.1-.1-.2-.1-.3v.3a.9.9 0 0 0 .1.5c0 .2 0 .4.1.6v.5 5.5c0 .1 0 .1-.1.2s-.1.1-.2.1H.3c-.1 0-.1 0-.2-.1-.1 0-.1-.1-.1-.2V123c0-.1 0-.2.1-.2s.1-.1.2-.1h1.1.2c.1 0 .1.1.1.2l2.5 5.8c0 .1.1.3.2.5s.1.3.2.5l.1.5.1.3v-.3-.5-.6-.6-5.5c0-.1 0-.1.1-.2.1 0 .1-.1.2-.1h.5c.1 0 .1 0 .2.1 0 .1.1.1.1.2v8.2z"/><path d="M52.8 136.8c-.1 0-.1 0-.2-.1 0 0-.1-.1-.1-.2v-.5c0-.1 0-.1.1-.2 0-.1.1-.1.2-.1h3.1c.1 0 .1 0 .2.1 0 0 .1.1.1.2v.5c0 .1 0 .1-.1.2 0 0-.1.1-.2.1h-3.1zm-48.3-.6c0 .1 0 .1-.1.2 0 0-.1.1-.2.1H2.6v6.4c0 .1 0 .1-.1.2 0 0-.1.1-.2.1h-.5c-.1 0-.1 0-.2-.1-.1 0-.1-.1-.1-.2v-6.4H-.2c-.1 0-.1 0-.2-.1-.1 0-.1-.1-.1-.2v-.5c0-.1 0-.1.1-.2.1 0 .1-.1.2-.1h4.4c.1 0 .1 0 .2.1.1 0 .1.1.1.2v.5zm3.9 4.2c0 .1 0 .1-.1.2 0 0-.1.1-.2.1H5.3c0 .4.1.8.3 1.2.3.3.7.5 1.1.4.2 0 .5 0 .7-.1l.4-.1H8l.1.1.1.4c0 .1 0 .3-.1.3-.1.1-.3.1-.4.2-.3.1-.6.1-1 .1-.7 0-1.3-.2-1.8-.7-.5-.6-.7-1.4-.6-2.1 0-.7.2-1.4.6-2 .4-.5.9-.8 1.6-.8.3 0 .6 0 .8.1.3.1.5.3.7.5.2.3.3.6.4.9-.1.5-.1.9 0 1.3zm-1-.5c0-.2 0-.4-.1-.5 0-.2-.1-.3-.2-.5-.1-.1-.2-.3-.3-.3-.1-.1-.3-.1-.4-.1s-.2 0-.3.1c-.1 0-.2.1-.3.2s-.2.3-.3.4c-.1.2-.1.5-.2.8l2.1-.1zm11.4 3c0 .1-.1.1-.1.2-.1 0-.1.1-.2.1h-.9c-.1 0-.1 0-.2-.1-.1 0-.1-.1-.1-.2l-1-5.4c0-.1 0-.2-.1-.4s0-.3 0-.4v-.4-.2.2.4.4c0 .1 0 .3-.1.4l-1.1 5.4c0 .1-.2.3-.3.2h-1c-.1 0-.3-.1-.3-.2l-1.3-7.2v-.2s.1-.1.2-.1h.7c.1 0 .3.1.3.2l.8 5.2c0 .2.1.3.1.5v.5.4.2c0 .1 0-.1 0-.2s0-.3.1-.4 0-.3.1-.5 0-.3.1-.5l1.1-5.2c0-.2.1-.3.3-.3h.9c.1 0 .3.1.3.2l1 5.2c0 .1 0 .3.1.5a.9.9 0 0 0 .1.5v.4.2c0 .1 0-.1 0-.2v-.4c0-.1 0-.3.1-.5 0-.2 0-.3.1-.5l.9-5.2c0-.1 0-.1.1-.2 0 0 .1-.1.2-.1h.3c.1 0 .1 0 .2.1v.2l-1.4 7.4zm6.5 0c0 .1 0 .1-.1.2 0 0-.1.1-.2.1h-.5c-.1 0-.1 0-.2-.1-.1 0-.1-.1-.1-.2v-3.7c0-.2 0-.4-.2-.6-.1-.1-.3-.2-.5-.2s-.3 0-.5.1c-.1.1-.3.2-.4.3s-.2.3-.3.4c-.1.2-.1.3-.1.5v3.1c0 .1 0 .1-.1.2-.1 0-.1.1-.2.1h-.5c-.1 0-.1 0-.2-.1 0 0-.1-.1-.1-.2v-7.6c0-.1 0-.1.1-.2.1 0 .1-.1.2-.1h.5c.1 0 .1 0 .2.1.1 0 .1.1.1.2v3c.4-.5.9-.7 1.5-.7.4 0 .7.1 1 .4.2.3.4.6.4 1l.2 4zm5.3 0v.2s-.1.1-.2.1H30h-.2c-.1 0-.1-.1-.1-.2l-.1-.5c-.2.3-.4.5-.7.6s-.6.2-.9.2c-.4 0-.8-.1-1.1-.4s-.4-.8-.4-1.2c0-.3 0-.5.1-.8.1-.2.2-.4.4-.5l.6-.3c.2-.1.4-.1.7-.1l1.2-.1v-.3c0-.3 0-.5-.2-.7s-.5-.3-.8-.2c-.2 0-.4 0-.6.1l-.5.1h-.2c-.1 0-.1-.1-.1-.1l-.1-.4c0-.1 0-.2.1-.3h.1c.2-.1.4-.1.6-.1.3-.1.5-.1.8-.1s.7 0 1 .2c.2.1.4.2.6.4s.3.4.3.6c.1.3.1.5.1.8v2 .4a.9.9 0 0 0 .1.5l-.1.1zm-1.1-2.4h-.7c-.3 0-.6.1-.9.2-.3.2-.4.5-.3.8 0 .2.1.4.2.6.1.1.3.2.5.2s.3 0 .5-.1c.1-.1.3-.2.4-.3s.2-.2.3-.4c0-.1.1-.2.1-.3v-.7zm5.5-2c0 .2-.2.3-.3.2l-.3-.1c-.1 0-.2-.1-.3-.1s-.2 0-.3.1-.2.2-.2.3c-.1.1-.1.3-.2.4-.1.2-.1.4-.1.7v2.9c0 .1 0 .1-.1.2 0 0-.1.1-.2.1h-.5c-.1 0-.1 0-.2-.1-.1 0-.1-.1-.1-.2v-5c0-.1 0-.1.1-.2.1 0 .1-.1.2-.1h.3c.1 0 .2.1.3.2l.2.5c.1-.2.3-.4.5-.6.2-.1.5-.2.7-.2.1 0 .3 0 .4.1.2.1.3.2.2.4l-.1.5zm4.7 1.9c0 .1 0 .1-.1.2 0 .1-.1.1-.2.1h-2.8c0 .4.1.8.3 1.2.3.3.7.5 1.1.4.2 0 .5 0 .7-.1l.4-.1h.2l.1.1.1.4c0 .1 0 .3-.1.3-.1.1-.3.1-.5.2-.3.1-.7.1-1 .1-.7 0-1.3-.2-1.8-.7-.5-.6-.7-1.4-.6-2.1 0-.7.2-1.4.6-2 .4-.5.9-.8 1.6-.8.3 0 .5 0 .8.1s.5.3.7.5c.2.3.3.6.4.9 0 .4.1.9.1 1.3zm-1-.5c0-.2 0-.4-.1-.5 0-.2-.1-.3-.2-.5l-.3-.3c-.1-.1-.3-.1-.5-.1-.1 0-.2 0-.3.1-.1 0-.2.1-.3.2s-.2.3-.3.4c-.1.2-.1.5-.2.8l2.2-.1zm11.5 3c0 .1-.1.1-.1.2-.1 0-.1.1-.2.1h-1c-.1 0-.1 0-.2-.1-.1 0-.1-.1-.1-.2l-1-5.4v-.4-.4-.4-.2.2.4.4c0 .1 0 .3-.1.4l-1.1 5.4c0 .1-.2.3-.3.2h-1c-.1 0-.3-.1-.3-.2l-1.3-7.2v-.2s.1-.1.2-.1h.7c.1 0 .3.1.3.2l.8 5.2v.5.5.4.2-.2c0-.1 0-.3.1-.4 0-.2 0-.3.1-.5s0-.3.1-.5l1.1-5.2c0-.2.1-.3.3-.3h.9c.1 0 .3.1.3.2l1 5.2c0 .1 0 .3.1.5s0 .3.1.5 0 .3 0 .4v.2-.2-.4l.1-.5c0-.2 0-.3.1-.5l.9-5.2c0-.1 0-.1.1-.2 0 0 .1-.1.2-.1h.6c.1 0 .1 0 .2.1v.2l-1.6 7.4zm6 0v.2s-.1.1-.2.1h-.5-.2c-.1 0-.1-.1-.1-.2l-.1-.5c-.2.3-.4.5-.7.6s-.6.2-.9.2c-.4 0-.8-.1-1.1-.4s-.4-.8-.4-1.2c0-.3 0-.5.2-.8l.3-.6.6-.3c.2-.1.4-.1.7-.1l1.2-.1v-.3c0-.3 0-.5-.2-.7s-.5-.3-.8-.2c-.2 0-.4 0-.6.1l-.5.1h-.2c-.1 0-.1-.1-.1-.1l-.1-.4c0-.1 0-.2.1-.3h.1c.2-.1.4-.1.6-.1.3-.1.5-.1.8-.1s.7 0 1 .2c.2.1.4.2.6.4l.3.6c.1.3.1.5.1.8v2.5c0 .2 0 .3.1.5v.1zm-1.2-2.4h-.7c-.3 0-.6.1-.9.2-.3.2-.4.5-.3.8 0 .2.1.4.2.6.1.1.3.2.5.2s.3 0 .5-.1c.1-.1.3-.2.4-.3s.2-.2.2-.4c.1-.1.1-.2.1-.3v-.7zm6.7 2.4c0 .1 0 .1-.1.2 0 0-.1.1-.2.1H61c-.1 0-.1 0-.2-.1 0 0-.1-.1-.1-.2v-3.7c0-.2 0-.4-.2-.6-.1-.1-.3-.2-.5-.2s-.3 0-.5.1c-.1.1-.3.2-.4.3s-.2.3-.3.4c-.1.2-.1.3-.1.5v3.1c0 .1 0 .1-.1.2 0 0-.1.1-.2.1h-.5c-.1 0-.1 0-.2-.1-.1 0-.1-.1-.1-.2v-5c0-.1 0-.1.1-.2.1 0 .1-.1.2-.1h.3c.1 0 .2.1.3.2l.1.5c.2-.2.5-.4.7-.6.3-.1.5-.2.8-.2.4 0 .7.1 1 .4.2.3.4.6.4 1l.2 4.1zm5.4 0v.2s-.1.1-.2.1h-.5-.2c-.1 0-.1-.1-.1-.2l-.1-.5c-.2.3-.4.5-.7.6s-.6.2-.9.2c-.4 0-.8-.1-1.1-.4s-.4-.8-.4-1.2c0-.3 0-.5.2-.8.2-.4.6-.7 1-.9.2-.1.4-.1.7-.1l1.2-.1v-.3c0-.3-.1-.5-.2-.7-.2-.2-.5-.3-.8-.2-.2 0-.4 0-.6.1l-.5.1h-.2c-.1 0-.1-.1-.1-.1l-.1-.4c0-.1 0-.2.1-.3h.1c.2-.1.4-.1.6-.1.3-.1.5-.1.8-.1s.7 0 1 .2c.2.1.4.2.6.4l.3.6c.1.3.1.5.1.8v2.5a.9.9 0 0 0 .1.5l-.1.1zm-1.1-2.4h-.7c-.3 0-.6.1-.9.2-.3.2-.4.5-.3.8 0 .2.1.4.2.6.1.1.3.2.5.2s.3 0 .5-.1c.1-.1.3-.2.4-.3s.2-.2.2-.4c.1-.1.1-.2.1-.3v-.7zm6.7 2.4c0 .1 0 .1-.1.2 0 0-.1.1-.2.1h-.5c-.1 0-.1 0-.2-.1 0 0-.1-.1-.1-.2v-3.7c0-.2 0-.4-.2-.6-.1-.1-.3-.2-.5-.2s-.3 0-.5.1c-.1.1-.3.2-.4.3s-.2.3-.3.4c-.1.2-.1.3-.1.5v3.1c0 .1 0 .1-.1.2 0 0-.1.1-.2.1H69c-.1 0-.1 0-.2-.1 0 0-.1-.1-.1-.2v-5c0-.1 0-.1.1-.2.1 0 .1-.1.2-.1h.3c.1 0 .2.1.3.2l.1.5c.2-.2.5-.4.7-.6.3-.1.5-.2.8-.2.4 0 .7.1 1 .4.2.3.4.6.4 1l.1 4.1zm5.9-4.7c0 .1-.1.2-.2.2h-.6c.1.2.2.3.3.5s.1.4.1.6c0 .5-.2 1.1-.5 1.5-.4.4-.9.6-1.5.5-.2 0-.4 0-.6-.1l-.1.1c0 .1-.1.1-.1.2s0 .2.1.3c.1 0 .3.1.4.1h1c.4 0 .9.1 1.2.4s.5.7.4 1.1c0 .3-.1.6-.2.8s-.3.4-.5.6c-.2.1-.5.3-.7.3-.3.1-.6.1-.9.1s-.5 0-.8-.1c-.3 0-.5-.1-.7-.3-.2-.1-.4-.3-.5-.5s-.2-.5-.2-.8c0-.1 0-.1.1-.2 0 0 .1-.1.2-.1h.7c.1 0 .2.1.2.2a.76.76 0 0 0 .2.4c.1.1.2.2.3.2.1.1.2.1.4.1h.4c.3 0 .6-.1.9-.2.2-.1.4-.3.4-.6 0-.2-.1-.4-.2-.5-.2-.1-.4-.2-.7-.2h-1.1c-.2 0-.3 0-.5-.1-.1 0-.3-.1-.4-.1l-.3-.3c-.1-.1-.1-.3-.1-.4 0-.2 0-.4.1-.5a1.38 1.38 0 0 1 .3-.4c-.2-.2-.5-.4-.6-.7-.2-.3-.2-.7-.2-1s0-.6.2-.9c.1-.2.2-.5.4-.6.2-.2.4-.3.7-.4s.5-.1.8-.1h.4.4 1.5c.1 0 .2.1.3.2v.1l-.2.6zm-1.4 1.4c0-.2 0-.4-.1-.6a.76.76 0 0 0-.2-.4c-.1-.1-.2-.2-.3-.2h-.4-.4c-.1 0-.2.1-.3.2s-.2.2-.2.4c-.1.2-.1.4-.1.6s0 .4.1.6a.76.76 0 0 0 .2.4c.1.1.2.2.3.2s.3.1.4.1.3 0 .4-.1c.1 0 .2-.1.3-.2s.2-.2.2-.4c.1-.2.1-.4.1-.6h0zm6.2 3.3v.2s-.1.1-.2.1h-.5-.2c-.1 0-.1-.1-.1-.2l-.1-.5c-.2.3-.4.5-.7.6s-.6.2-.9.2c-.4 0-.8-.1-1.1-.4s-.4-.8-.4-1.2c0-.3 0-.5.2-.8.1-.2.2-.4.4-.5l.6-.3c.2-.1.4-.1.7-.1l1.2-.1v-.3c0-.3 0-.5-.2-.7s-.5-.3-.8-.2c-.2 0-.4 0-.6.1l-.5.1H80c-.1 0-.1-.1-.1-.1l-.1-.4c0-.1 0-.2.1-.3h.1c.2-.1.4-.1.6-.1.3-.1.5-.1.8-.1s.7 0 1 .2c.2.1.4.2.6.4l.3.6c.1.3.1.5.1.8v2.5a.9.9 0 0 0 .1.5h-.1zm-1.1-2.4h-.7c-.3 0-.6.1-.9.2-.3.2-.4.5-.3.8 0 .2.1.4.2.6.1.1.3.2.5.2s.3 0 .5-.1c.1-.1.3-.2.4-.3s.2-.2.2-.4c.1-.1.1-.2.1-.3v-.7zm9.6-.1c0 .7-.2 1.5-.6 2.1-.4.5-1 .8-1.6.8s-1.2-.3-1.6-.8c-.8-1.3-.8-2.9 0-4.1.4-.5 1-.8 1.6-.8s1.2.3 1.6.8.6 1.3.6 2zm-1 0c0-.5-.1-1-.3-1.5-.2-.3-.5-.5-.8-.5s-.7.2-.8.5a3.9 3.9 0 0 0 0 3c.2.3.5.5.8.5s.7-.2.8-.5c.2-.5.3-1 .3-1.5h0zm9.2-4.2c0 .1 0 .1-.1.2 0 0-.1.1-.2.1h-1.7v6.4c0 .1-.1.2-.3.3h-.5c-.1 0-.1 0-.2-.1-.1 0-.1-.1-.1-.2v-6.4h-1.7c-.1 0-.1 0-.2-.1-.1 0-.1-.1-.1-.2v-.5c0-.1 0-.1.1-.2.1 0 .1-.1.2-.1h4.4c.1 0 .1 0 .2.1 0 0 .1.1.1.2v.5zm3.9 4.2c0 .1 0 .1-.1.2 0 .1-.1.1-.2.1h-2.8c0 .4.1.8.3 1.2.3.3.7.5 1.1.4.2 0 .5 0 .7-.1l.4-.1h.2l.1.1.1.4c0 .1 0 .3-.1.3-.1.1-.3.1-.4.2-.3.1-.7.1-1 .1-.7 0-1.3-.2-1.8-.7-.5-.6-.7-1.4-.6-2.1 0-.7.2-1.4.6-2 .4-.5.9-.8 1.6-.8.3 0 .5 0 .8.1s.5.3.7.5c.2.3.3.6.4.9-.1.4-.1.9 0 1.3zm-1-.5c0-.2 0-.4-.1-.5 0-.2-.1-.3-.2-.5l-.3-.3c-.1-.1-.3-.1-.4-.1s-.2 0-.3.1c-.1 0-.2.1-.3.2s-.2.3-.3.4c-.1.2-.1.5-.2.8l2.1-.1zm9.2-3.7c0 .1-.1.2-.3.3h-1.7v6.4c0 .1 0 .1-.1.2 0 0-.1.1-.2.1h-.6c-.1 0-.1 0-.2-.1-.1 0-.1-.1-.1-.2v-6.4h-1.7c-.1 0-.1 0-.2-.1-.1 0-.1-.1-.1-.2v-.5c0-.1 0-.1.1-.2 0 0 .1-.1.2-.1h4.4c.1 0 .1 0 .2.1.1 0 .1.1.1.2l.2.5zm3.6 6.7v.2s-.1.1-.2.1h-.5-.2c-.1 0-.1-.1-.1-.2l-.1-.5c-.2.3-.4.5-.7.6s-.6.2-.9.2c-.4 0-.8-.1-1.1-.4s-.4-.8-.4-1.2c0-.3 0-.5.2-.8.1-.2.2-.4.4-.5l.6-.3c.2-.1.4-.1.7-.1l1.2-.1v-.3c0-.3 0-.5-.2-.7s-.5-.3-.8-.2c-.2 0-.4 0-.6.1l-.5.1h-.2c-.1 0-.1-.1-.1-.1l-.1-.4c0-.1 0-.2.1-.3h.1c.2-.1.4-.1.6-.1.3-.1.5-.1.8-.1s.7 0 1 .2c.2.1.4.2.6.4s.3.4.3.6c.1.3.1.5.1.8v2 .4a.9.9 0 0 0 .1.5l-.1.1zm-1.2-2.4h-.7c-.3 0-.6.1-.9.2-.3.2-.4.5-.3.8 0 .2.1.4.2.6.1.1.3.2.5.2s.3 0 .5-.1c.1-.1.3-.2.4-.3s.2-.2.3-.4c0-.1.1-.2.1-.3v-.7zm6.7 2.4c0 .1 0 .1-.1.2 0 0-.1.1-.2.1h-.3c-.1 0-.2-.1-.2-.2l-.1-.6-.3.3-.3.3c-.1.1-.3.1-.4.2-.2.1-.4.1-.6.1-.4 0-.7-.1-1-.4s-.4-.7-.4-1.1v-3.9c0-.1 0-.1.1-.2.1 0 .1-.1.2-.1h.5c.1 0 .1 0 .2.1.1 0 .1.1.1.2v3.7c0 .2 0 .4.2.5.1.1.3.2.5.2.3 0 .7-.1.9-.4.3-.4.4-.8.3-1.2v-2.8c0-.1 0-.1.1-.2.1 0 .1-.1.2-.1h.5c.1 0 .1 0 .2.1.1 0 .1.1.1.2l-.2 5zm3-7.2a.68.68 0 0 1-.7.7c-.2 0-.4-.1-.5-.2-.3-.3-.3-.7 0-1 .1-.1.3-.2.5-.2s.4.1.5.2c.1.2.2.3.2.5zm-.2 7.2c0 .1 0 .1-.1.2 0 0-.1.1-.2.1h-.5c-.1 0-.1 0-.2-.1 0 0-.1-.1-.1-.2v-5c0-.1 0-.1.1-.2 0 0 .1-.1.2-.1h.5c.1 0 .1 0 .2.1 0 0 .1.1.1.2v5zm5.7 0c0 .1 0 .1-.1.2 0 0-.1.1-.2.1h-.5c-.1 0-.1 0-.2-.1 0 0-.1-.1-.1-.2v-3.7c0-.2 0-.4-.2-.6-.1-.1-.3-.2-.5-.2s-.3 0-.5.1c-.1.1-.3.2-.4.3s-.2.3-.3.4c-.1.2-.1.3-.1.5v3.1c0 .1 0 .1-.1.2-.1 0-.1.1-.2.1h-.5c-.1 0-.1 0-.2-.1-.1 0-.1-.1-.1-.2v-7.6c0-.1 0-.1.1-.2.1 0 .1-.1.2-.1h.5c.1 0 .1 0 .2.1.1 0 .1.1.1.2v3c.4-.5.9-.7 1.5-.7.4 0 .7.1 1 .4.2.3.4.6.4 1l.2 4zm5.8 0c0 .1 0 .1-.1.2 0 0-.1.1-.2.1h-.3c-.1 0-.2-.1-.2-.2l-.1-.6-.3.3-.3.3c-.1.1-.3.1-.4.2-.2.1-.4.1-.6.1-.7 0-1.3-.5-1.4-1.2v-.2-3.9c0-.1 0-.1.1-.2.1 0 .1-.1.2-.1h.5c.1 0 .1 0 .2.1.1 0 .1.1.1.2v3.7c0 .2 0 .4.2.5.1.1.3.2.5.2.3 0 .7-.1.9-.4a1.92 1.92 0 0 0 .4-1.2V138c0-.1 0-.1.1-.2.1 0 .1-.1.2-.1h.5c.1 0 .1 0 .2.1.1 0 .1.1.1.2l-.3 4.9zm8.5-2.5c0 .7-.2 1.5-.6 2.1-.8.9-2.1 1-3 .2-.1-.1-.2-.1-.2-.2-.8-1.3-.8-2.9 0-4.1.8-.9 2.1-1 3-.2.1.1.2.1.2.2.5.5.7 1.3.6 2zm-1 0c0-.5-.1-1-.3-1.5-.2-.3-.5-.5-.9-.5-.3 0-.7.2-.9.5a3.9 3.9 0 0 0 0 3c.2.3.5.5.9.5.3 0 .7-.2.9-.5.2-.5.3-1 .3-1.5zm9.2-4.2c0 .1 0 .1-.1.2 0 0-.1.1-.2.1h-1.7v6.4c0 .1 0 .1-.1.2 0 0-.1.1-.2.1h-.6c-.1 0-.1 0-.2-.1-.1 0-.1-.1-.1-.2v-6.4h-1.6c-.1 0-.1 0-.2-.1-.1 0-.1-.1-.1-.2v-.5c0-.1 0-.1.1-.2.1 0 .1-.1.2-.1h4.4c.1 0 .1 0 .2.1.1 0 .1.1.1.2v.5zm3.9 4.2c0 .1 0 .1-.1.2 0 0-.1.1-.2.1h-2.8c0 .4.1.8.3 1.2.3.3.7.5 1.1.4.2 0 .5 0 .7-.1l.4-.1h.2l.1.1.1.4c0 .1 0 .3-.1.3-.4.2-.9.3-1.4.3-.7 0-1.3-.2-1.8-.7-.5-.6-.7-1.4-.6-2.1 0-.7.2-1.4.6-2 .4-.5.9-.8 1.6-.8.3 0 .6 0 .8.1.3.1.5.3.6.5.2.3.4.6.4.9 0 .4.1.9.1 1.3zm-1.1-.5c0-.2 0-.4-.1-.5 0-.2-.1-.3-.2-.5-.1-.1-.2-.3-.3-.3-.1-.1-.3-.1-.4-.1s-.2 0-.4.1c-.1 0-.2.1-.3.2s-.2.3-.3.4c-.1.2-.1.5-.1.8l2.1-.1zm11.6 3c0 .1-.1.1-.1.2-.1 0-.1.1-.2.1h-1c-.1 0-.1 0-.2-.1-.1 0-.1-.1-.1-.2l-1-5.4c0-.1 0-.2-.1-.4s0-.3 0-.4 0-.3-.1-.4v-.2.2.4c0 .2 0 .3-.1.4s0 .3-.1.4l-1.1 5.4c0 .1-.2.3-.3.2h-1c-.1 0-.3-.1-.3-.2l-1.3-7.2v-.2s.1-.1.2-.1h.6c.1 0 .3.1.3.2l.8 5.2c0 .1 0 .3.1.5s0 .3 0 .5v.4.2c0 .1 0-.1 0-.2s0-.3.1-.4.1-.3.1-.5 0-.3.1-.5l1.1-5.2c0-.1.1-.3.3-.3h.9c.1 0 .3.1.3.2l1 5.2c0 .1.1.3.1.5a.9.9 0 0 0 .1.5v.4.2c0 .1 0-.1 0-.2v-.4c0-.2 0-.3.1-.5 0-.2 0-.3.1-.5l.9-5.2c0-.1 0-.1.1-.2 0 0 .1-.1.2-.1h.6c.1 0 .1 0 .2.1v.2l-1.3 7.4zm6 0v.2s-.1.1-.2.1h-.5-.2c-.1 0-.1-.1-.1-.2l-.1-.5c-.2.3-.4.5-.7.6s-.6.2-.9.2c-.4 0-.8-.1-1.1-.4s-.4-.8-.4-1.2c0-.3 0-.5.1-.8.1-.2.2-.4.4-.5l.6-.3c.2-.1.4-.1.7-.1l1.2-.1v-.3c0-.3-.1-.5-.2-.7-.2-.2-.5-.3-.8-.2-.2 0-.4 0-.6.1l-.5.1h-.2c-.1 0-.1-.1-.1-.1l-.1-.4c0-.1 0-.2.1-.3h.1c.2-.1.4-.1.6-.1.3-.1.5-.1.8-.1s.7 0 1 .2c.2.1.4.2.6.4s.3.4.3.6c.1.3.1.5.1.8v2 .4a.9.9 0 0 0 .1.5v.1zm-1.1-2.4h-.7c-.3 0-.6.1-.9.2-.2.2-.4.5-.3.8 0 .2.1.4.2.6.1.1.3.2.5.2s.3 0 .5-.1c.1-.1.3-.2.4-.3s.2-.2.3-.4c.1-.1.1-.2.1-.3l-.1-.7zm6.6 2.4v.2c0 .1-.1.1-.2.1h-.8c-.1 0-.1 0-.2-.1 0 0-.1-.1-.1-.2l-1.7-2.8v2.7c0 .1 0 .1-.1.2 0 0-.1.1-.2.1h-.4c-.1 0-.1 0-.2-.1 0 0-.1-.1-.1-.2v-7.6c0-.1 0-.1.1-.2.1 0 .1-.1.2-.1h.5c.1 0 .1 0 .2.1.1 0 .1.1.1.2v4.6l1.4-2.1c0-.1.1-.1.1-.1.1 0 .1-.1.2-.1h.7c.1 0 .1 0 .2.1v.2l-1.5 2.1 1.8 3zm4.7 0v.2s-.1.1-.2.1h-.5-.2c-.1 0-.1-.1-.1-.2l-.1-.5c-.2.3-.4.5-.7.6s-.6.2-.9.2c-.4 0-.8-.1-1.1-.4s-.4-.8-.4-1.2c0-.3 0-.5.1-.8.1-.2.2-.4.4-.5l.6-.3c.2-.1.4-.1.7-.1l1.2-.1v-.3c0-.3-.1-.5-.2-.7-.2-.2-.5-.3-.8-.2-.2 0-.4 0-.6.1l-.5.1h-.2c-.1 0-.1-.1-.1-.1l-.1-.4c0-.1 0-.2.1-.3h.1c.2-.1.4-.1.6-.1.3-.1.5-.1.8-.1s.7 0 1 .2c.2.1.4.2.6.4s.3.4.3.6c.1.3.1.5.1.8v2 .4a.9.9 0 0 0 .1.5v.1zm-1.1-2.4h-.8c-.3 0-.6.1-.9.2-.2.2-.4.5-.3.8 0 .2.1.4.2.6.1.1.3.2.5.2s.3 0 .5-.1c.1-.1.3-.2.4-.3s.2-.2.3-.4c.1-.1.1-.2.1-.3v-.7zm9.2 2.4v.2s-.1.1-.2.1h-.5-.2c-.1 0-.1-.1-.1-.2l-.1-.5c-.2.3-.4.5-.7.6s-.6.2-.9.2c-.4 0-.8-.1-1.1-.4s-.4-.8-.4-1.2c0-.3 0-.5.1-.8.1-.2.2-.4.4-.5l.6-.3c.2-.1.4-.1.7-.1l1.2-.1v-.3c0-.3 0-.5-.2-.7s-.5-.3-.8-.2c-.2 0-.4 0-.6.1l-.5.1h-.2c-.1 0-.1-.1-.1-.1l-.1-.4c0-.1 0-.2.1-.3h.1c.2-.1.4-.1.6-.1.3-.1.5-.1.8-.1s.7 0 1 .2c.2.1.4.2.6.4s.3.4.3.6c.1.3.1.5.1.8v2 .4a.9.9 0 0 0 .1.5v.1zm-1.1-2.4h-.7c-.3 0-.6.1-.9.2-.3.2-.4.5-.3.8 0 .2.1.4.2.6.1.1.3.2.5.2s.3 0 .5-.1c.1-.1.3-.2.4-.3s.2-.2.3-.4c0-.1.1-.2.1-.3v-.7zm12.3 2.4c0 .1-.1.2-.2.2h-.7c-.1 0-.2-.1-.2-.2l-.3-5.2v-.4-1.1.2c0 .1 0 .3-.1.4s-.1.3-.1.5l-.1.4-1.1 4.4c0 .2-.1.3-.3.3h-.8c-.1 0-.3-.1-.3-.3l-1.1-4.4-.1-.4-.1-.5c0-.1-.1-.3-.1-.4v-.2.2.4.5.4l-.3 5.2c0 .1-.1.2-.2.2h-.7c-.1 0-.1 0-.1-.1v-.2l.6-7.2c0-.1 0-.1.1-.2.1 0 .1-.1.2-.1h1c.1 0 .1 0 .2.1l.1.1 1.1 4.6c0 .1 0 .2.1.3 0 .1 0 .3.1.4v.4.2-.2c0-.1 0-.2.1-.4s0-.3 0-.4.1-.3.1-.3l1.1-4.6c0-.1 0-.1.1-.1 0 0 .1-.1.2-.1h1c.1 0 .3.1.3.2l.5 7.4zm5.3 0v.2s-.1.1-.2.1h-.5-.2c-.1 0-.1-.1-.1-.2l-.1-.5c-.2.3-.4.5-.7.6s-.6.2-.9.2c-.4 0-.8-.1-1.1-.4s-.4-.8-.4-1.2c0-.3 0-.5.1-.8.1-.2.2-.4.4-.5l.6-.3c.2-.1.4-.1.7-.1l1.2-.1v-.3c0-.3 0-.5-.2-.7s-.5-.3-.8-.2c-.2 0-.4 0-.6.1l-.5.1h-.2c-.1 0-.1-.1-.1-.1l-.1-.4c0-.1 0-.2.1-.3h.1c.2-.1.4-.1.6-.1.3-.1.5-.1.8-.1s.7 0 1 .2c.2.1.4.2.6.4l.3.6c.1.3.1.5.1.8v2.5a.9.9 0 0 0 .1.5h0zm-1.2-2.4h-.7c-.3 0-.6.1-.9.2-.3.2-.4.5-.3.8 0 .2.1.4.2.6.1.1.3.2.5.2s.3 0 .5-.1c.1-.1.3-.2.4-.3s.2-.2.3-.4c0-.1.1-.2.1-.3v-.7zm6.7 2.4c0 .1 0 .1-.1.2 0 0-.1.1-.2.1h-.4c-.1 0-.2-.1-.3-.2l-.1-.6-.3.3-.3.3c-.1.1-.3.1-.4.2-.2.1-.4.1-.6.1-.7.1-1.3-.5-1.4-1.2v-.3-3.9c0-.1 0-.1.1-.2.1 0 .1-.1.2-.1h.5c.1 0 .1 0 .2.1.1 0 .1.1.1.2v3.7c0 .2 0 .4.2.5.1.1.3.2.5.2.3 0 .7-.1.9-.4a1.92 1.92 0 0 0 .4-1.2v-2.8c0-.1 0-.1.1-.2 0 0 .1-.1.2-.1h.5c.1 0 .1 0 .2.1.1 0 .1.1.1.2l-.1 5zm3-7.2c0 .2-.1.4-.2.5s-.3.2-.5.2-.4-.1-.5-.2c-.3-.3-.3-.7 0-1 .1-.1.3-.2.5-.2a.68.68 0 0 1 .7.7h0zm-.2 7.2c0 .1 0 .1-.1.2 0 0-.1.1-.2.1h-.5c-.1 0-.1 0-.2-.1 0 0-.1-.1-.1-.2v-5c0-.1 0-.1.1-.2 0 0 .1-.1.2-.1h.5c.1 0 .1 0 .2.1.1 0 .1.1.1.2v5zm-11.7-6.1c-.1 0-.1 0-.2-.1 0 0-.1-.1-.1-.2v-.5c0-.1 0-.1.1-.2 0 0 .1-.1.2-.1h3.1c.1 0 .1 0 .2.1 0 0 .1.1.1.2v.5c0 .1 0 .1-.1.2 0 0-.1.1-.2.1h-3.1z"/></g><path fill="#fff" d="M144.3 28.9c5.7 5.3 11.9 7.2 17 7.2 7.5 0 14.2-2.2 18.8-3.8.1 0 .1 0 .1.1s-.1.1-.1.1c-6.4 2.4-12.5 4.5-21 4.5-8.3 0-14.9-2.3-19.8-7.1.3-1.7.9-3.4 1.6-5.2.9 1.7 2.1 3 3.4 4.2h0zm11.9.8c3.2 1.9 6.8 2.6 10.3 2.6 4 0 7.3-.7 10.8-1.8.1 0 .1 0 .1.1s-.1.1-.1.1c-3.6 1.2-7.9 2.1-12.3 2.1-4.5 0-9-.8-12.2-2.7l-.3-.2c-3.6-2.3-7-5.6-9.6-9.6 1-1.6 2.2-3.2 3.5-4.6 2.1 7.2 5.7 11.6 9.8 14h0zm29.3-5.3c-4.1 2.8-9.1 4.7-15 4.9-11.1.4-18.1-6.3-20.5-16.9 1.2-1.1 2.6-2.1 3.9-3C155.4 20 160.8 29 170.7 29c8.4 0 17.1-5.4 22.2-12.8l-.3.8c-1.9 3.1-4.3 5.4-7.1 7.4zm.1-2.1c2.4-2.1 4.9-4.4 6.3-7.8 2.9-6.9-.4-12.5-8.4-12.5-5 0-10.4 2.4-14.6 6.4h-.1s-.1 0 0-.1c4.4-4.9 11-8.4 16.7-8.4 7.7 0 11 6.1 7.5 13.6-1.5 3.3-4.2 6.3-7.3 8.7.1.2 0 .2-.1.1 0 .1 0 0 0 0zM48.3 115.9h-5.8c-1.7 0-3.2-1.4-3.2-3V63.6c0-8.1-2.7-11.4-9.4-11.4-9.9 0-17.7 8.4-17.7 18.8v41.8c0 1.7-1.5 3-3.2 3H3.2c-1.7 0-3.2-1.4-3.2-3V45.7c0-1.8 1.5-3 3.2-3h3.4c2.1 0 3 .6 3.5 2.4l1.7 7.4c6.6-7.6 13.1-10.6 21-10.6 11.4 0 18.7 7.6 18.7 19v52c0 1.7-1.5 3-3.2 3zm96.8 0h-5.8c-1.7 0-3.2-1.4-3.2-3V59.7c0-4.7-2.3-7.1-7-7.1-9 0-16.8 7.9-16.8 18.4v41.9c0 1.7-1.5 3-3.2 3h-5.8c-1.7 0-3.2-1.4-3.2-3V59.7c0-4.7-2.4-7.1-7.2-7.1-9 0-16.6 7.9-16.6 18.4v41.9c0 1.7-1.5 3-3.2 3h-5.8c-1.7 0-3.2-1.4-3.2-3V45.7c0-1.8 1.5-3 3.2-3h3.4c2.1 0 3 .6 3.5 2.4l1.7 7.3c4.3-5 11.3-10.5 19.4-10.5s14.3 4.3 15.7 11.2c6.2-7.4 12.8-11.2 20.7-11.2 6.7 0 16.6 2.7 16.6 15.7v55.3c0 1.7-1.5 3-3.2 3zm25 0h-5.5c-1.7 0-3.2-1.4-3.2-3V45.7c0-1.7 1.5-3 3.2-3h5.5c1.7 0 3.2 1.4 3.2 3v67.2c0 1.7-1.5 3-3.2 3zm43.9-.3c-2.1.6-5.2 1.1-8.4 1.1-10.4 0-15.2-4.7-15.2-14.4V52.4H182c-1.8 0-3.1-1.5-3.1-3.2v-3.3c0-1.7 1.2-3.2 3.1-3.2h8.4V27.3c0-1.7.9-2.9 2.3-3.3l5.6-2c1.8-.6 4-.8 4 1.7v19h8.5c1.7 0 3 1.5 3 3.2v3.3c0 1.7-1.4 3.2-3 3.2h-8.5v48.3c0 4.1 1.7 5.9 5.5 5.9 1.2 0 3.2-.3 4.7-.6s2.9.8 3.2 2.4l.6 3.2c.3 1.9-.1 3.4-2.3 4z"/></svg>