<svg xmlns="http://www.w3.org/2000/svg" viewBox="0 0 338.24 324.79" xmlns:v="https://vecta.io/nano"><symbol id="A" viewBox="0 0 338.24 324.79"><path fill="#00467f" d="M0 48.4 48.4 0h289.8v276.3l-48.5 48.5H.2z"/><g fill="#fff"><path d="M51.6 249H53v-9h3v-1.3h-7.6v1.4h3.2v9m6.8-7.1c-1.7 0-3 1.5-3 3.5 0 1.8 1 3.6 3 3.6a3.7 3.7 0 0 0 2.5-.7V247a3.6 3.6 0 0 1-2.2.8 2 2 0 0 1-2-2H61c0-2.5-1-3.7-2.6-3.7zm-1.6 3a1.6 1.6 0 0 1 1.6-1.8 1.5 1.5 0 0 1 1.4 1.7h-3zm15.7-6.3h-1.2l-2.6 7-2.5-7H65l3.6 10.3h.3l3-8.3 3 8.3h.2l3.7-10.3h-1.4l-2.5 7-2.5-7M85.5 249v-4.2c0-1.8-1-2.7-2-2.7a2.3 2.3 0 0 0-1.8 1v-4.3h-1.2V249h1.2v-5a2 2 0 0 1 1.5-1c.7 0 1.2.7 1.2 1.7v4.2h1.2zm4-3.7c-1 .4-2 .8-2 2a1.5 1.5 0 0 0 1.4 1.7 2.5 2.5 0 0 0 1.5-.6.8.8 0 0 0 1 .6 1.8 1.8 0 0 0 1-.5v-.8a1.3 1.3 0 0 1-.6.4c-.2 0-.3 0-.3-.3v-3.4a2 2 0 0 0-2.2-2.2 2.4 2.4 0 0 0-2 1v1.4a2.4 2.4 0 0 1 2-1 1 1 0 0 1 1 1v.5zm1 2.3a1.5 1.5 0 0 1-1 .5 1 1 0 0 1-.8-.8c0-.8.8-1.2 2-1.6v2zm3.9-5.4v6.7h1.2v-3.6c0-1 .7-2 1.5-2a2 2 0 0 1 1.2.6l.6-1a2 2 0 0 0-1.4-1c-.6 0-1 .6-1.8 1.8v-1.6h-1.2zm8.3-.2c-1.7 0-3 1.5-3 3.5 0 1.8 1 3.6 3 3.6a3.7 3.7 0 0 0 2.5-.7V247a3.6 3.6 0 0 1-2 .8 2 2 0 0 1-2-2h4c0-2.5-1-3.7-2.5-3.7zm-1.6 3a1.6 1.6 0 0 1 1.7-1.8 1.5 1.5 0 0 1 1.4 1.7h-3zm15.7-6.3h-1.2l-2.6 7-2.5-7h-1.3L113 249h.2l3-8.3 3 8.3h.3l3.7-10.3H122l-2.6 7zm8.7 6.6c-1 .4-2 .8-2 2a1.5 1.5 0 0 0 1.4 1.7 2.4 2.4 0 0 0 1.6-.6.8.8 0 0 0 1 .6 1.8 1.8 0 0 0 1-.5v-.8a1.4 1.4 0 0 1-.6.4s-.2 0-.2-.3v-3.4a2 2 0 0 0-2.2-2.2 2.3 2.3 0 0 0-2 1v1.4a2.4 2.4 0 0 1 2-1 1 1 0 0 1 1 1v.5zm1 2.3a1.5 1.5 0 0 1-1 .5 1 1 0 0 1-.8-.8c0-.8 1-1.2 2-1.6v2zm9 1.4v-4.2c0-2-1-2.7-2-2.7a2.3 2.3 0 0 0-2 1v-.8h-1v6.7h1v-5a2 2 0 0 1 1.6-1c.8 0 1.3.7 1.3 1.7v4.2h1.2zm3.9-3.7c-1 .4-2 .8-2 2a1.6 1.6 0 0 0 1.4 1.7 2.5 2.5 0 0 0 1.7-.6.8.8 0 0 0 1 .6 1.8 1.8 0 0 0 1-.5v-.8a1.4 1.4 0 0 1-.6.4c-.3 0-.3 0-.3-.3v-3.4a2 2 0 0 0-2.2-2.2 2.4 2.4 0 0 0-2 1v1.4a2.4 2.4 0 0 1 2-1 1 1 0 0 1 1 1v.5zm1 2.3a1.5 1.5 0 0 1-1 .5 1 1 0 0 1-.8-.8c0-.8 1-1.2 2-1.6v2zm8.9 1.4v-4.2c0-2-1-2.7-2-2.7a2.3 2.3 0 0 0-1.8 1v-.8h-1.2v6.7h1.2v-5a2 2 0 0 1 1.5-1c.7 0 1.2.7 1.2 1.7v4.2h1.2zm7.3-6.8H154c-1.6 0-2.6 1-2.6 2.3a2.4 2.4 0 0 0 .4 1.3 2.3 2.3 0 0 0 1 .8 1 1 0 0 0-1 1 1 1 0 0 0 .6 1 1.8 1.8 0 0 0-1.6 1.7c0 1.2 1.2 2 2.8 2 1.8 0 3-.8 3-2a2 2 0 0 0-2-2c-1-.2-1.7-.4-1.7-.8 0-.8 1.5-.3 2.3-1.3a2.6 2.6 0 0 0 .6-1.5 2 2 0 0 0-.7-1.5h1.2v-1zm-3.2 7c.7 0 2 .2 2 1 0 .7-.6 1-1.7 1s-1.7-.3-1.7-1a1.2 1.2 0 0 1 1.4-1m.3-3.4a1 1 0 0 1-1.2-1.3 1.2 1.2 0 0 1 2.4 0 1.2 1.2 0 0 1-1.3 1.3zm6.1-.5c-1 .4-2 .8-2 2a1.6 1.6 0 0 0 1.4 1.7 2.5 2.5 0 0 0 1.6-.6.8.8 0 0 0 1 .6 1.8 1.8 0 0 0 1-.5v-.8a1.4 1.4 0 0 1-.6.4s-.2 0-.2-.3v-3.4a2 2 0 0 0-2.2-2.2 2.4 2.4 0 0 0-2 1v1.4a2.4 2.4 0 0 1 2-1 1 1 0 0 1 1 1v.5zm1 2.3a1.5 1.5 0 0 1-1 .5 1 1 0 0 1-1-.8c0-.8 1-1.2 2-1.6v2zM172 249a3.5 3.5 0 1 0-3.3-3.5 3.3 3.3 0 0 0 3.2 3.6zm0-5.7a2 2 0 0 1 2 2.2 2 2 0 0 1-2 2.4c-1.3 0-2-1-2-2.5a2 2 0 0 1 2-2.2zm12 5.7v-9h3v-1.3h-7.6v1.4h3.2v9h1.3m4.8-3.8c-1 .4-2 .8-2 2a1.6 1.6 0 0 0 1.4 1.7 2.5 2.5 0 0 0 1.7-.6.8.8 0 0 0 1 .6 1.8 1.8 0 0 0 1-.5v-.8a1.4 1.4 0 0 1-.5.4c-.2 0-.3 0-.3-.3v-3.4a2 2 0 0 0-2.2-2.2 2.4 2.4 0 0 0-2 1v1.4a2.4 2.4 0 0 1 2-1 1 1 0 0 1 1 1v.5zm1 2.3a1.5 1.5 0 0 1-1 .5 1 1 0 0 1-.8-.8c0-.8.8-1.2 1.8-1.6v2zm13.1 1.4v-4.3c0-1.6-.8-2.6-2-2.6a2.6 2.6 0 0 0-2 1.3 2 2 0 0 0-1.8-1.2 2.5 2.5 0 0 0-1.8 1v-.8H194v6.7h1.2v-5a1.7 1.7 0 0 1 1.5-.8c.6 0 1 .5 1 1.6v4h1.3V244a2 2 0 0 1 1.3-.8 1.4 1.4 0 0 1 1.3 1.6v4h1.2zm4.2-3.7c-1 .4-2 .8-2 2a1.5 1.5 0 0 0 1.6 1.7 2.5 2.5 0 0 0 1.6-.6.8.8 0 0 0 1 .6 1.8 1.8 0 0 0 1-.5v-.8a1.4 1.4 0 0 1-.6.4s-.2 0-.2-.3v-3.4a2 2 0 0 0-2.2-2.2 2.4 2.4 0 0 0-2 1v1.4a2.4 2.4 0 0 1 2-1 1 1 0 0 1 1 1v.5zm1.2 2.3a1.5 1.5 0 0 1-1 .5 1 1 0 0 1-1-.8c0-.8 1-1.2 2-1.6v2zm8.2-5.4l-2.7 3.3 3 3.4h1.7l-3.2-3.5 2.6-3.3h-1.4m-3.9-3.4h1.2V249h-1.2z"/><ellipse cx="220.7" cy="240.2" rx=".7" ry=".8"/><path d="M220 242.2h1.3v6.7H220zm17.8 6.8v-10.3h-1.2l-3 4.2-3-4.3h-1.3V249h1.3v-8l2.8 4h.3l2.8-4v8zm4.5-3.7c-1 .4-2 .8-2 2a1.6 1.6 0 0 0 1.5 1.7 2.4 2.4 0 0 0 1.6-.6.8.8 0 0 0 1 .6 1.8 1.8 0 0 0 1-.5v-.8a1.4 1.4 0 0 1-.6.4s-.2 0-.2-.3v-3.4a2 2 0 0 0-2.2-2.2 2.4 2.4 0 0 0-2 1v1.4a2.4 2.4 0 0 1 2-1 1 1 0 0 1 1 1v.5zm1 2.3a1.5 1.5 0 0 1-1 .5 1 1 0 0 1-.8-.8c0-.8 1-1.2 2-1.6v2zm8.3-5.4-2.7 3.3 3 3.4h1.6l-3-3.5 2.4-3.3h-1.4m-3.8-3.4h1.2V249h-1.3zm7.3 4.3v1.4a2.4 2.4 0 0 1 1.8-1 1 1 0 0 1 1 1v.5l-1 .3c-1 .4-2 .8-2 2a1.6 1.6 0 0 0 1.5 1.8 2.5 2.5 0 0 0 1.6-.6.8.8 0 0 0 .8.7 1.8 1.8 0 0 0 1.2-.5v-.8a1.4 1.4 0 0 1-.6.4c-.2 0-.3 0-.3-.3v-3.4a2 2 0 0 0-2-2.2 2.4 2.4 0 0 0-2 1zm3 4.6a1.5 1.5 0 0 1-1 .5 1 1 0 0 1-1-.8c0-.8 1-1.2 2-1.6v2zm9.2 1.4v-7H266v4.8a1.8 1.8 0 0 1-1.4 1 1.2 1.2 0 0 1-1.3-1.5V242H262v4.2c0 1.7 1 2.6 2.2 2.6a2.5 2.5 0 0 0 1.8-1v1h1.2zm3-6.8v6.7h1.2v-3.6c0-1 .6-2 1.5-2a2 2 0 0 1 1 .6l.6-1a2 2 0 0 0-1.4-1c-.6 0-1 .6-1.8 1.7v-1.5h-1.2zm8 3.1c-1 .4-2 .8-2 2a1.6 1.6 0 0 0 1.4 1.7 2.4 2.4 0 0 0 1.6-.6.8.8 0 0 0 1 .6 1.8 1.8 0 0 0 1-.5v-.8a1.4 1.4 0 0 1-.5.4c-.2 0-.3 0-.3-.3v-3.4a2 2 0 0 0-2.2-2.2 2.4 2.4 0 0 0-2 1v1.4a2.4 2.4 0 0 1 2-1 1 1 0 0 1 1 1v.5zm1 2.3a1.5 1.5 0 0 1-1 .5 1 1 0 0 1-.8-.8c0-.8 1-1.2 2-1.6v2zm9.3 1.4v-7h-1.2v4.8a1.8 1.8 0 0 1-1.4 1 1.2 1.2 0 0 1-1.3-1.5V242h-1.2v4.2c0 1.7.8 2.6 2 2.6a2.5 2.5 0 0 0 1.8-1v1h1.2zm-164.8-8.5h3.5v.7h-3.5zm63.3 0h3.5v.7H187zm-92.7-50.3h-7v-5H94v-3h-6.7v-4.6H94v-3h-9.6v18.5h10v-2.8m84.6-12.7v-3h-9.6v18.5h10v-2.8h-7v-5h6.4v-3h-6.5v-4.6h6.8M68 185.3h8.5v7.8h3v-18.3h-3v7.7H68v-7.7h-3V193h3zm44 8a7.3 7.3 0 0 0 5.7-2 7.8 7.8 0 0 0 1.8-5.5v-11h-3v10.5c0 2-.2 3-.8 3.7a4.5 4.5 0 0 1-3.5 1.3 4 4 0 0 1-3.3-1.4c-.7-.8-1-1.6-1-3.5v-10.8h-3V186a7.2 7.2 0 0 0 2.3 5.5 7 7 0 0 0 4.8 1.8m27.2-.3v-18.3h-2.8v13l-10.4-13h-2.3V193h2.8v-13l10.2 13zm26.5-18.3h-3l-4.6 12-4.5-12h-3l7.2 18.5h1zm28.6 18.3h3.5l-.4-.6-2-3.3-1.8-2.8a9.2 9.2 0 0 0-1.5-1.8 4.8 4.8 0 0 0 2.5-4.4 5.2 5.2 0 0 0-1.5-4 5.8 5.8 0 0 0-4-1.3h-4.4V193h3v-7.6h.5c1 0 2 .3 4 4zm-2.8-13a2.5 2.5 0 0 1-.6 1.7 3 3 0 0 1-2.4.8h-1v-5h1c2 0 3 .7 3 2.3zm13.5-2.4a5 5 0 0 1 3.7 1.8l.4.4h.2v-3.7a6.3 6.3 0 0 0-3.8-1.3 5.2 5.2 0 0 0-3.8 1.4 5 5 0 0 0-1.4 3.7c0 2.6 1.8 4 3.6 5.2l.4.2.8.6a9 9 0 0 1 1 1 2.8 2.8 0 0 1 1 2 2 2 0 0 1-2.2 1.8 5 5 0 0 1-4-2.4l-.5-.7v-.2 4.5a7 7 0 0 0 4.7 1.7 4.7 4.7 0 0 0 3.4-1.5 5.4 5.4 0 0 0 1.4-3.6c0-3-2-4.5-3.6-5.7l-1.2-.7a10 10 0 0 1-1-.8 2.3 2.3 0 0 1-1-1.8 2 2 0 0 1 2-1.8zm38 15.4h2.8v-9.5l6.3-8.8h-3.5l-4 6-4.3-6h-3.5l6.2 8.8v9.6zm-99-18.3h3V193h-3zm71 0h2.8V193h-3zM54.3 193h3v-15.4h5.5v-3h-14v3h5.5zm172.7 0h3v-15.4h5.6v-3h-14v3h5.5V193m54.9-8.3h6v-3h-6v-4h6v-3h-9V193h3zm-15.3 8.6a8.4 8.4 0 0 0 6.5-2.8 10.2 10.2 0 0 0 0-13 8.8 8.8 0 0 0-12.8 0 10 10 0 0 0 0 13 8.4 8.4 0 0 0 6.3 2.8m-4-14a5.6 5.6 0 0 1 4-1.7c3.4 0 6 2.7 6 6.4a6.7 6.7 0 0 1-1.8 4.6 5.7 5.7 0 0 1-8.4 0 7 7 0 0 1 0-9.2zm-52 21.1h-3.5l-12 31.4h5l3.5-9h10.8l3.6 9h5.3zm-5 17.6c0-.3 3-8.3 3.2-9 0 .7 3.4 8.7 3.5 9h-7zm-15 8.8h-12.3v-26.2h-5v31.2h17.3zM57.2 223h11l3.5 8.8h5l-12.4-31.4h-3.5l-12 31.4h5l3.4-9zm5.3-14 3.5 9h-6.8c0-.4 3-8.4 3.3-9m73.7 20.3v-6h-.2l-.7.5a16 16 0 0 1-9 3.4 10.2 10.2 0 0 1-7.7-3 11 11 0 0 1-3-8 11.4 11.4 0 0 1 3-7.8 10 10 0 0 1 7.4-3.2 16.3 16.3 0 0 1 9 3l.7.5h.2l-.3-6c-4-1.7-6.8-2.5-9.6-2.5-9 0-15.4 7-15.4 16.5a17 17 0 0 0 3.7 10.2 14.3 14.3 0 0 0 11.5 5.3 19 19 0 0 0 10.3-3zm17.1-13.9 12.3-14.8h-6.3l-10.6 12.8v-12.8h-5v31.2h5v-14l13 14h7zm132.7-9.8a14.2 14.2 0 0 0-11.3-5h-11v31.2h11a14.3 14.3 0 0 0 11-4.8 16.5 16.5 0 0 0 4-10.8 17 17 0 0 0-3.6-10.6zM274.3 227h-5.7v-21.5h5.5a10.3 10.3 0 0 1 8 3.2 11 11 0 0 1 2.6 7.5c0 4-2.2 10.7-10.4 10.7zm-182.1 5.2c4 0 7.3-1.2 9.5-3.5s3-5.4 3-9.3v-18.8h-5v18c0 3.3-.3 5-1.5 6.3a7.7 7.7 0 0 1-6 2.2 7 7 0 0 1-5.4-2.4c-1.2-1.3-1.5-2.7-1.5-6v-18.2h-5V220c0 3.8 1.3 7 3.7 9.3a12 12 0 0 0 8.2 3zm158.5-9.2L233 200.5h-4v31.2h5v-22.2l17.3 22.2h4v-31.2h-4.7V223zm-192 49.3-7.6-9h-2v12.8h2.4v-9l7.6 9h2v-12.6h-2.3v9m17.7-1.9H82v-2h-5.5v-3.3h5.8v-2H74v12.8h8.4v-1.8h-6v-3.6m31.6.6-3.4-8h-2l-3.4 8-3.2-8h-2.5l5.2 13h.8l4-9.5 4 9.5h1l5.2-13h-2.5zm43-7.9h-11.2v2h7l-7.5 10.7h11.8v-1.8h-7.4l7.4-10.8m14.4 7.1h5.5v-2h-5.5v-3.3h5.8v-2H163v12.8h8.4v-1.8h-6v-3.6m22.3-7.3-5.2 12.7h2.6l1.3-3h5.7l1.3 3h2.6l-5.7-12.6h-2.5zm-.7 7.8 2-5 2 5zm23-7.8h-2.5V276h8.6v-1.8h-6v-10.8m21.9 0-5.4 12.7h2.6l1.2-3h5.7l1.4 3h2.6l-5.6-12.6h-2.6zm-.8 7.8 2-5 2 5zm30.2 1.1-7.6-9h-2.2v12.8h2.4v-9l7.6 9h2.2v-12.6h-2.4v9m24.2-8.3a7.5 7.5 0 0 0-3.6-.8h-5.3V276h5.2a8 8 0 0 0 3.5-.7 5.8 5.8 0 0 0 2.5-2.2 6.3 6.3 0 0 0 1-3.2 6.4 6.4 0 0 0-1-3.3 6 6 0 0 0-2.4-2.3zm-.6 8.8a4.5 4.5 0 0 1-3.3 1.2H279v-9h2.6a4.6 4.6 0 0 1 3.4 1.3 4.8 4.8 0 0 1 0 6.5M49 257h240.4v1.3H49zm71.7-208.5v49c0 11.6 8.6 45 48 61.6l.6.3.7-.2c39.3-16.4 48-50 48-61.5v-49h-97.3z"/></g><path d="M131 81l-.2-.2a14.6 14.6 0 0 0-7.4-2 4 4 0 0 0-.4 0h-.2v18.7c0 .4 1.3 40.5 46.5 59.5 45.2-19 46.5-59 46.5-59.5V79h-.6a14.6 14.6 0 0 0-7.4 2 15.8 15.8 0 0 1-15.8 0 14.8 14.8 0 0 0-14.8 0 15.8 15.8 0 0 1-15.8 0v-.2a14.8 14.8 0 0 0-14.8 0h-.2a15.8 15.8 0 0 1-15.3.2zm5.4-23.8a6.7 6.7 0 0 1 5-2.3c7.2-.3 10.8 5 10.7 9.4 0 5-3.8 6-4.3 6.3a5 5 0 0 0 .7 2.5.4.4 0 0 1 0 .5 3 3 0 0 1 0 .4.5.5 0 0 0 0 .4 1.6 1.6 0 0 1-.4 1.2 5.4 5.4 0 0 0 0 2q0 .3 0 0a3.3 3.3 0 0 1-1-1.7 4.7 4.7 0 0 0-2.2 2.2s-.2.2-.2 0a3 3 0 0 1 1.2-2.6 2.6 2.6 0 0 0-2 .4s-.2 0 0 0c0 0 .4-1 2.2-1.3a9 9 0 0 0 .6-1.2 6.6 6.6 0 0 0-.8-2.4 5 5 0 0 0-2.4 1 .4.4 0 0 0-.2.3v.4a.7.7 0 0 1-.5.6l-2.4 1a3.5 3.5 0 0 0-1.2 1 2.6 2.6 0 0 1-1 .8 1.6 1.6 0 0 0-.7.5 4.3 4.3 0 0 1-.6.6 3.4 3.4 0 0 0-1 1.3s0 .2 0 0v-.6a3.2 3.2 0 0 1 .8-1.5.7.7 0 0 1-.2 0 10.3 10.3 0 0 0-3.5.3s-.2 0 0 0c0-.3.5-1.4 3-1.4a2.4 2.4 0 0 0-1.7-.7V74a2.6 2.6 0 0 1 2.6.5 6 6 0 0 1 1.4-.4 23 23 0 0 1 2.4-2 2 2 0 0 1 0-.6 5.5 5.5 0 0 1-.8-3 6.3 6.3 0 0 1-3.7-2.5 5.5 5.5 0 0 1-4.3-3.3c-3.6 2.7-6 7.4-6.2 7.6h-.2a3.5 3.5 0 0 1-.3-2.2 30.2 30.2 0 0 1 4.2-7c-.7-4 3-5.2 4.5-5.2a3.7 3.7 0 0 1 2.7 1.3z" fill="#00467f"/><path fill="#fff" d="M143.6 57.8a2 2 0 0 1 1.3-.6 4.4 4.4 0 0 0-3.6 0 3.6 3.6 0 0 1 1-1 4.3 4.3 0 0 0-3 1 3 3 0 0 1 .7-1c-2 0-3.8 2.8-3.8 2.8a2.5 2.5 0 0 0-2.4-2c-1.4-.2-4.7 1.8-3.4 4.4-.6 1-2.5 2.7-4 6v.2c1.4-2 3.5-4.7 5.6-6 .2.2 1.4 3.4 4.3 3.6.3.2 1.7 2.6 4.2 2.3a11 11 0 0 0 .5 3.3 9.6 9.6 0 0 1 2.8-1.6 9.5 9.5 0 0 1 .8-2 4.7 4.7 0 0 0 3.8-4.4c0-2.5-2.2-5.3-4.8-5m-12 3a.6.6 0 1 1 .5-.5.6.6 0 0 1-.5.6z"/><path fill="#00467f" d="M166.8 57.2a6.7 6.7 0 0 1 5-2.3c7.2-.3 11 5 10.7 9.4 0 5-4 6-4.4 6.3a5 5 0 0 0 1 2.5.4.4 0 0 1 0 .5 3 3 0 0 1-.3.4.5.5 0 0 0 0 .4 1.6 1.6 0 0 1-.2 1.2 5.4 5.4 0 0 0 0 2q0 .3 0 0a3.2 3.2 0 0 1-1-1.7 4.6 4.6 0 0 0-2.2 2.2s-.3.2-.3 0a3 3 0 0 1 1.2-2.6 2.6 2.6 0 0 0-2 .4s-.2 0 0 0c0 0 .4-1 2.3-1.3a9 9 0 0 0 .6-1.2 6.5 6.5 0 0 0-.8-2.4 5 5 0 0 0-2.3 1 .4.4 0 0 0-.3.3v.4a.7.7 0 0 1-.5.6l-2.4 1a3.4 3.4 0 0 0-1.2 1 2.6 2.6 0 0 1-1 .8 1.6 1.6 0 0 0-.8.5 4.2 4.2 0 0 1-.6.6 3.4 3.4 0 0 0-1 1.3s0 .2 0 0v-.6a3.2 3.2 0 0 1 .8-1.5.7.7 0 0 1-.2 0 10.3 10.3 0 0 0-3.5.3s-.2 0 0 0c0-.3.5-1.4 3-1.4a2.4 2.4 0 0 0-1.8-.7V74a2.6 2.6 0 0 1 2.5.5 6 6 0 0 1 1.4-.4 24 24 0 0 1 2.4-2 2 2 0 0 1 0-.6 5.6 5.6 0 0 1-.8-3 6.3 6.3 0 0 1-3.7-2.5 5.5 5.5 0 0 1-4-3.3c-3.8 2.7-6.2 7.4-6.3 7.6h-.2a3.6 3.6 0 0 1-.4-2.2 30.2 30.2 0 0 1 4.3-7c-.7-4 3-5.2 4.4-5.2A3.7 3.7 0 0 1 167 57z"/><path fill="#fff" d="M174 57.8a2.2 2.2 0 0 1 1.3-.6 4.4 4.4 0 0 0-3.5 0 3.6 3.6 0 0 1 1-1 4.3 4.3 0 0 0-3 1 3 3 0 0 1 .8-1c-2.3 0-4 2.8-4 2.8a2.5 2.5 0 0 0-2.4-2c-1.4-.2-4.7 1.8-3.4 4.4-.6 1-2.5 2.7-4 6a1 1 0 0 0 0 .2c1.4-2 3.5-4.7 5.6-6 .2.2 1.5 3.4 4.3 3.6.3.2 1.7 2.6 4.2 2.3a11 11 0 0 0 .4 3.3 9.5 9.5 0 0 1 3-1.5 9.7 9.7 0 0 1 .8-2A4.7 4.7 0 0 0 179 63c0-2.7-2.4-5.5-5-5.2m-12 3a.6.6 0 1 1 .5-.5.6.6 0 0 1-.6.6z"/><path fill="#00467f" d="M197 57.2a6.7 6.7 0 0 1 5-2.3c7.3-.3 11 5 10.8 9.4-.2 5-4 6-4.4 6.3a5 5 0 0 0 .8 2.5.4.4 0 0 1 0 .5 3 3 0 0 1-.2.4.5.5 0 0 0 0 .4 1.6 1.6 0 0 1-.3 1.2 5.5 5.5 0 0 0 .2 2c0 .2-.2.2-.3 0a3.2 3.2 0 0 1-1-1.7 4.7 4.7 0 0 0-2.2 2.2s-.2.2-.2 0a3 3 0 0 1 1.2-2.6 2.6 2.6 0 0 0-2 .4s-.2 0 0 0c0 0 .3-1 2.2-1.3a9 9 0 0 0 .6-1.2 6.4 6.4 0 0 0-1-2.4 5 5 0 0 0-2.2 1 .4.4 0 0 0 0 .3v.4a.7.7 0 0 1-.6.6l-2.4 1a3.5 3.5 0 0 0-1.2 1 2.7 2.7 0 0 1-1 .8 1.6 1.6 0 0 0-.8.5 4.3 4.3 0 0 1-.6.6 3.4 3.4 0 0 0-1 1.3s0 .2 0 0a6 6 0 0 1 0-.6 3 3 0 0 1 .8-1.5.7.7 0 0 1-.2 0 10.3 10.3 0 0 0-3.5.3s-.2 0 0 0c0-.3.5-1.4 3-1.4a2.4 2.4 0 0 0-1.8-.7V74a2.6 2.6 0 0 1 2.5.5 6 6 0 0 1 1.4-.4 23 23 0 0 1 2.4-2 2 2 0 0 1 0-.6 5.6 5.6 0 0 1-.8-3 6.3 6.3 0 0 1-3.7-2.5 5.5 5.5 0 0 1-4-3.3c-3.8 2.7-6.2 7.4-6.3 7.6h-.2a3.6 3.6 0 0 1-.3-2.2 30 30 0 0 1 4.2-7c-.8-4 3-5.2 4.4-5.2A3.6 3.6 0 0 1 197 57z"/><g fill="#fff"><path d="M204.3 57.8a2 2 0 0 1 1.3-.6 4.4 4.4 0 0 0-3.5 0 3.6 3.6 0 0 1 1-1 4.3 4.3 0 0 0-3 1 2.8 2.8 0 0 1 1-1c-2.4 0-4 2.8-4 2.8a2.5 2.5 0 0 0-2.5-2c-1.4-.2-4.6 1.8-3.4 4.4-.5 1-2.4 2.7-4 6v.2c1.5-2 3.6-4.7 5.7-6 .2.2 1.5 3.4 4.3 3.6.3.2 1.7 2.6 4.2 2.3a10.7 10.7 0 0 0 .5 3.3 9.6 9.6 0 0 1 3-1.5 9.4 9.4 0 0 1 .8-2 4.7 4.7 0 0 0 3.7-4.4c0-2.7-2.3-5.5-5-5.2zm-12 3a.6.6 0 1 1 .5-.5.6.6 0 0 1-.6.6zM173 127.5l-.6.4.8.3a1.5 1.5 0 0 1-.7 2.8H166a1.5 1.5 0 0 1-.6-2.7l.8-.4-.7-.5a9 9 0 0 0-5-1.6 9 9 0 0 0-5 1.4 9.6 9.6 0 0 1-6 1.6 12.5 12.5 0 0 1-8.7-3.2H139a1.2 1.2 0 0 1-1 .5 1.1 1.1 0 1 1 0-2.2 1.2 1.2 0 0 1 1 .6v.2h2v-2.4h-2v.2a1.2 1.2 0 0 1-1 .4 1 1 0 1 1 0-2 1.2 1.2 0 0 1 1 .3v.2h2v-2.3h-2v.2a1.2 1.2 0 0 1-1 .4 1.1 1.1 0 1 1 0-2.2 1.2 1.2 0 0 1 1 .5v.2h2V116h-2a1.2 1.2 0 0 1-1 .5 1 1 0 1 1 0-2 1.2 1.2 0 0 1 1 .3v.2h2v-2.3h-2a1.2 1.2 0 0 1-1 .6 1.1 1.1 0 1 1 0-2.2 1.2 1.2 0 0 1 1 .5v.2h2v-2.3h-2v.2a1.2 1.2 0 0 1-1 .4 1.1 1.1 0 1 1 0-2.2 1.2 1.2 0 0 1 1 .5v.2h2V106h-2v.3a1.2 1.2 0 0 1-1 .4 1 1 0 1 1 0-2 1.2 1.2 0 0 1 1 .3v.2h1.6l1.6-.8v21l.2.3c4.4 2.8 8.7 3 12.6.8 4.2-2.3 10-2.4 13.4 2.5h-1.7a.5.5 0 0 0 0 1h5a.5.5 0 0 0 0-1h-1.5c3.5-5 9.3-4.5 13.4-2.5 3.6 2 7.8 1.6 12.5-.7l.4-.5v-21l1.6 1h1.4l.2-.3a1.2 1.2 0 0 1 1-.4 1 1 0 1 1 0 2 1.2 1.2 0 0 1-1-.3l-.2-.2h-1.8v2.4h2a1.2 1.2 0 0 1 1-.6 1.1 1.1 0 1 1 0 2.2 1.2 1.2 0 0 1-1-.4l-.2-.2h-1.8v2.3h1.8l.2-.2a1.2 1.2 0 0 1 1-.4 1.15 1.15 0 1 1 0 2.3 1.2 1.2 0 0 1-1-.5h-2v2.2h1.8l.2-.2a1.2 1.2 0 0 1 1-.4 1 1 0 1 1 0 2 1.2 1.2 0 0 1-1-.3h-2v2.3h1.8l.2-.2a1.2 1.2 0 0 1 1-.4 1.1 1.1 0 1 1 0 2.2 1.2 1.2 0 0 1-1-.4v-.2h-2v2.3h2v-.2a1.2 1.2 0 0 1 1-.4 1 1 0 1 1 0 2 1.2 1.2 0 0 1-1-.4h-2v2.2h2v-.2a1.2 1.2 0 0 1 1-.4 1 1 0 1 1 0 2 1.2 1.2 0 0 1-1-.3v-.3H198l-.2.2a12.6 12.6 0 0 1-8.7 3 9.7 9.7 0 0 1-6-1.5 9 9 0 0 0-10 0zm-28.5-2.9c3.3 1.7 6 2.2 10.6-.3a11.8 11.8 0 0 1 13.8 2v1.6c-3.8-5-10-4.8-14.3-2.4-3.5 2-7.4 1.8-11.3-.6v-21l1-.6v21z"/><path d="M145.3 123.8v-21a14.7 14.7 0 0 0 10-1c4.5-2 9-1.3 13.5 1.7V125a13 13 0 0 0-8.3-3 12.5 12.5 0 0 0-5.8 1.4c-4.3 2.2-6.6 2-9.4.4m38.1.5c4.8 2.5 7.4 2 10.7.3h.3v-21.3l1 .6v21c-4.2 2-8 2.3-11.3.7-4.3-2.2-10.3-2.8-14.2 2.2v-1.6a11.8 11.8 0 0 1 13.6-2z"/><path d="M169.8 125v-21.4c4.5-3 9-3.7 13.4-1.8a14.7 14.7 0 0 0 10 1v21c-2.7 1.5-5 1.8-9.3-.4a12.7 12.7 0 0 0-14.2 1.6zm23.8-26-5.7-4.3L182 99l2.2-6.8-6-4.3h7.3l2.2-7 2 7h7.3l-6 4.2 2.3 6.8m-36.9.1-5.7-4.2L145 99l2.2-6.8-6-4.3h7.3l2.2-7 2.2 7h7.2l-6 4.2 2.2 7m7.3 53.6 2.2-6.8-6-4.4h7.3l2.3-7 2.2 7h7.3l-6 4.3 2.2 6.7-5.7-4.3-5.7 4.3"/></g></symbol><use href="#A"/></svg>