<?xml version="1.0" encoding="utf-8"?>
<!-- Generator: Adobe Illustrator 26.0.3, SVG Export Plug-In . SVG Version: 6.00 Build 0)  -->
<svg version="1.0" id="Layer_1" xmlns="http://www.w3.org/2000/svg" xmlns:xlink="http://www.w3.org/1999/xlink" x="0px" y="0px"
	 viewBox="0 0 280 218" style="enable-background:new 0 0 280 218;" xml:space="preserve">
<style type="text/css">
	.st0{fill:none;}
</style>
<path d="M217.1,172.5c1.9,0,2.9,1.3,2.9,3.7c0,2.2-1.1,3.6-2.9,3.6s-2.9-1.3-2.9-3.6S215.2,172.5,217.1,172.5 M217.1,169.7
	c-3.6,0-6.5,3-6.4,6.5c0,3.6,3,6.5,6.5,6.4c3.5,0,6.4-2.9,6.4-6.4c0.2-3.4-2.5-6.4-5.9-6.6C217.5,169.6,217.3,169.6,217.1,169.7
	 M208.7,170.1h-2.2v-3.9h-3.6v3.9h-1.7v2.5h1.7v5.6c0,1.9,0.2,2.6,0.7,3.2s1.3,0.8,2.9,0.8h2.2v-2.7h-1.3c-0.8,0-0.9-0.2-0.9-2.1
	v-4.8h2.2L208.7,170.1L208.7,170.1z M199.3,173.7c-0.3-2.6-2.2-4-5.4-4s-5.2,1.5-5.2,4c0,2,1.1,3,3.7,3.5l2.2,0.5
	c1,0.2,1.4,0.6,1.4,1.1s-0.8,1.2-1.9,1.2c-1.4,0-2.2-0.6-2.4-1.7h-3.4c0.2,2.7,2.3,4.3,5.7,4.3s5.5-1.6,5.5-4.2
	c0-0.9-0.3-1.8-0.9-2.5c-0.8-0.7-1.8-1.1-2.8-1.2l-2.3-0.5c-1.1-0.2-1.5-0.5-1.5-0.9s0.7-1,1.7-1c1.2,0,1.9,0.5,2.1,1.4L199.3,173.7
	L199.3,173.7z M185.6,165.3H182v3h3.6L185.6,165.3z M185.6,170H182v12.3h3.6L185.6,170z M173.1,172.6c1.6,0,2.6,1.4,2.6,3.6
	s-1.1,3.5-2.6,3.5s-2.6-1.4-2.6-3.6S171.4,172.6,173.1,172.6 M167,170v16.2h3.6v-4.9c0.9,0.9,2.1,1.4,3.3,1.3c3.2,0,5.4-2.6,5.4-6.5
	s-2.2-6.4-5.4-6.4c-1.4-0.1-2.7,0.6-3.5,1.8l0.1-1.4L167,170L167,170z M158,172.5c1.9,0,2.9,1.3,2.9,3.7c0,2.2-1.1,3.6-2.9,3.6
	s-2.9-1.3-2.9-3.6S156.1,172.5,158,172.5 M158,169.7c-3.6,0-6.5,3-6.4,6.5c0,3.6,3,6.5,6.5,6.4c3.5,0,6.4-2.9,6.4-6.4
	c0.2-3.4-2.5-6.4-5.9-6.6C158.4,169.6,158.2,169.6,158,169.7 M149,165.3h-3.6v3h3.6V165.3z M149,170h-3.6v12.3h3.6V170z M142,165.3
	h-3.6v17h3.6V165.3z M132.6,170l-1.6,5.5c-0.3,1.1-0.5,1.9-0.6,2.7l-0.2-0.5c-0.3-1-0.3-1-0.6-2.2l-1.8-5.6h-3.9l4,10.3
	c0.4,1.1,0.5,1.1,0.5,1.6c0,1.1-0.6,1.6-1.9,1.6h-1v2.7h2.1c2.7,0,3.3-0.5,4.5-3.8l4.3-12.4H132.6z M122.1,174.4h-8.3v3.2h8.3V174.4
	z M104.8,172.5c1.9,0,2.9,1.3,2.9,3.7c0,2.2-1.1,3.6-2.9,3.6s-2.9-1.3-2.9-3.6S102.9,172.5,104.8,172.5 M104.8,169.7
	c-3.6,0-6.5,3-6.4,6.5c0,3.6,3,6.5,6.5,6.4c3.5,0,6.4-2.9,6.4-6.4c0.2-3.4-2.4-6.4-5.9-6.6C105.2,169.6,105,169.6,104.8,169.7
	 M96.7,170.1h-2.2v-3.9h-3.6v3.9h-1.7v2.5h1.7v5.6c0,1.9,0.2,2.6,0.7,3.2s1.3,0.8,2.9,0.8h2.2v-2.7h-1.3c-0.9,0-0.9-0.2-0.9-2.1
	v-4.8h2.2V170.1z M86.9,165.3h-3.6v17h3.6V165.3z M76.7,178.3c-0.5,1-1.5,1.6-2.7,1.6c-1.1,0-1.8-0.5-1.8-1.3s0.6-1.2,1.9-1.5
	l1.3-0.3c0.5-0.1,0.9-0.2,1.3-0.4V178.3z M72.5,173.9c0.2-1,0.9-1.5,2.2-1.5c1.3,0,1.9,0.4,1.9,1.1c0,0.5-0.3,0.7-1.1,0.8l-2,0.3
	c-3.4,0.6-4.9,1.8-4.9,4.1s1.8,3.9,4.5,3.9c1.3,0.1,2.6-0.4,3.6-1.3c0.1,0.3,0.2,0.7,0.3,1h3.7c-0.4-0.6-0.5-0.8-0.5-2.1v-5.6
	c0-1.8-0.3-2.8-1.2-3.6c-1.2-0.9-2.7-1.4-4.2-1.3c-3.5,0-5.2,1.4-5.4,4.2L72.5,173.9z M61.5,175.7h-3.8l2.1-6.6L61.5,175.7z
	 M62.4,178.9l0.9,3.4h4.3l-5.4-17h-4.8l-5.9,17h4.1l1.1-3.4H62.4z"/>
<path d="M119.8,101.2H93.4l13.2-38.1L119.8,101.2z M160.6,141.5l-37.9-107H90.5l-37.9,107h26.9l6.5-18.9h41.2l6.6,18.9L160.6,141.5
	L160.6,141.5z"/>
<path d="M228.5,64c0-20.6-16.4-32.1-39.9-32.1c-22.8,0-40.3,11.8-40.3,32.6v3.4h24.1c0-10,6.8-14.4,16-14.4
	c8.5,0,14.4,4.5,14.4,11.4c0,5.5-3.1,9.2-10.1,13.2c-10.1,5.7-16.3,12.4-16.3,28.3v2.4h24.2v-1c0-8.6,2.4-11.8,11.3-17.7
	C219.9,84.6,228.6,77.4,228.5,64"/>
<rect x="176.3" y="117.3" width="24.2" height="24.2"/>
<rect x="40" y="9" class="st0" width="200" height="200"/>
</svg>
