<?xml version="1.0" encoding="UTF-8" standalone="no"?>
<svg width="243" height="300" xmlns="http://www.w3.org/2000/svg" xmlns:xlink="http://www.w3.org/1999/xlink">
 <desc>Logo of Åbo Akademi</desc>
 <g>
   <path fill="#aa001d" fill-rule="evenodd" id="path28" d="m218.44772,198.42227l-58.56816,-148.41377l-32.41232,66.40832l-26.20811,-66.40832l-72.43439,148.41377c-2.08944,3.77281 -3.05582,5.03128 -4.6205,7.52431l12.46773,0c0.23268,-2.61185 0.91887,-5.1404 2.03956,-7.52431l31.76411,-65.76717l49.06602,0l-32.09653,65.76717c-2.08944,3.77281 -3.05814,5.03128 -4.62048,7.52431l12.46536,0c0.2327,-2.61185 0.92126,-5.1404 2.04192,-7.52431l26.34583,-54.5484l21.21484,54.5484c0.97591,2.8658 1.17056,4.98376 1.28696,7.52431l17.62479,0c-1.55281,-2.38393 -2.68062,-4.29274 -3.97464,-7.52431l-25.95407,-65.76717l44.0585,0l25.57893,65.76717c0.97345,2.8658 1.16815,4.98376 1.28453,7.52431l17.62718,0c-1.55522,-2.38393 -2.68306,-4.29274 -3.97708,-7.52431l-0.00003,0l0.00003,0zm-145.35316,-71.25189l24.18992,-49.53858l19.55992,49.53858l-43.74984,0zm58.61804,0l24.18993,-49.53858l19.55989,49.53858l-43.74982,0zm-31.08742,-88.07676c13.09219,0 23.70557,-8.75181 23.70557,-19.54796c0,-10.79389 -10.61337,-19.54567 -23.70557,-19.54567c-13.09219,0 -23.70555,8.75181 -23.70555,19.54567c0,10.79618 10.61335,19.54796 23.70555,19.54796zm0.18046,-35.23533c7.24416,0 13.11593,6.88076 13.11593,15.3691c0,8.48588 -5.87177,15.36678 -13.11593,15.36678c-7.24416,0 -13.11593,-6.8809 -13.11593,-15.36678c0,-8.48834 5.87177,-15.3691 13.11593,-15.3691"/>
   <path fill="#231f20" fill-rule="nonzero" id="path32" d="m7.89482,243.03879l-2.47407,8.15065l-5.42075,0l9.21743,-28.76006l6.70043,0l9.34299,28.76006l-5.63197,0l-2.60229,-8.15065l-9.13176,0l-0.00001,0zm4.77967,-29.78395c2.94401,0 4.56579,1.79312 4.56579,4.05542c0,2.2186 -1.79274,3.968 -4.60853,3.968c-2.85891,0 -4.65145,-1.79311 -4.65145,-3.968c0,-2.17488 1.70725,-4.05542 4.65145,-4.05542l0.04274,0zm3.45687,25.81589l-2.26266,-7.08127c-0.5556,-1.75131 -1.02325,-3.71538 -1.45063,-5.37933l-0.08567,0c-0.42719,1.66397 -0.8523,3.67175 -1.36516,5.37933l-2.22012,7.08127l7.38424,0zm-3.53817,-23.90497c-1.23694,0 -1.92076,1.06752 -1.92076,2.17871c0,1.02191 0.7693,2.04573 1.9635,2.04573c1.23713,0 2.00642,-0.93832 2.00642,-2.08945c0,-1.15298 -0.76929,-2.13499 -2.00642,-2.13499l-0.04274,0"/>
   <path fill="#231f20" fill-rule="nonzero" id="path36" d="m28.47325,220.85092l5.24751,0l0,12.41689l0.08549,0c1.27968,-2.00584 3.54234,-3.32785 6.65749,-3.32785c5.07637,0 8.70457,4.22253 8.66164,10.54019c0,7.46686 -4.73673,11.18039 -9.43092,11.18039c-2.68777,0 -5.07637,-1.02574 -6.56975,-3.58623l-0.08547,0l-0.25644,3.11513l-4.48032,0c0.0853,-1.40752 0.17077,-3.71347 0.17077,-5.80292l0,-24.5356zm5.24751,21.76237c0,0.42548 0.04274,0.85283 0.12804,1.23842c0.55578,2.13124 2.39106,3.66789 4.65145,3.66789c3.28609,0 5.29233,-2.60229 5.29233,-6.82672c0,-3.67166 -1.7498,-6.6577 -5.2496,-6.6577c-2.13464,0 -4.09586,1.53673 -4.65145,3.84076c-0.08529,0.38559 -0.17077,0.85286 -0.17077,1.36571l0,3.37164"/>
   <path fill="#231f20" fill-rule="nonzero" id="path40" d="m62.28176,251.66054c-5.84566,0 -10.41145,-4.01361 -10.41145,-10.71121c0,-6.82863 4.48032,-11.00937 10.75336,-11.00937c6.18756,0 10.32597,4.35167 10.32597,10.66751c0,7.63782 -5.37782,11.05309 -10.62514,11.05309l-0.04274,0l0,-0.00002zm0.17096,-3.79897c2.98693,0 5.07865,-2.90245 5.07865,-7.12689c0,-3.24242 -1.45311,-6.99576 -5.03591,-6.99576c-3.71349,0 -5.20687,3.62419 -5.20687,7.08127c0,4.0117 2.00623,7.04138 5.12138,7.04138l0.04275,0"/>
   <path fill="#231f20" fill-rule="nonzero" id="path44" d="m92.06281,243.03879l-2.47311,8.15065l-5.42113,0l9.2163,-28.76006l6.70138,0l9.34355,28.76006l-5.63198,0l-2.60228,-8.15065l-9.13272,0l0,0l-0.00001,0zm8.23618,-3.96806l-2.26229,-7.08127c-0.55465,-1.75131 -1.02193,-3.71538 -1.44931,-5.37933l-0.08736,0c-0.42548,1.66397 -0.85098,3.67175 -1.36385,5.37933l-2.22049,7.08127l7.3833,0"/>
   <path fill="#231f20" fill-rule="nonzero" id="path48" d="m117.816,239.54182l0.08546,0c0.51286,-0.813 1.10931,-1.70767 1.62216,-2.43518l5.07543,-6.69757l6.31577,0l-7.72141,8.49069l8.78893,12.28967l-6.44305,0l-5.97388,-9.17447l-1.74942,2.09129l0,7.08318l-5.24827,0l0,-30.33852l5.24827,0l0,18.6909"/>
   <path fill="#231f20" fill-rule="nonzero" id="path52" d="m150.1965,246.19762c0,1.87669 0.08546,3.71347 0.34186,4.99182l-4.73727,0l-0.38181,-2.30405l-0.12726,0c-1.23843,1.62402 -3.4153,2.77515 -6.14484,2.77515c-4.18263,0 -6.53041,-3.02968 -6.53041,-6.18857c0,-5.20648 4.65181,-7.8942 12.33333,-7.85056l0,-0.34189c0,-1.36572 -0.55655,-3.62611 -4.22443,-3.62611c-2.04958,0 -4.18079,0.63821 -5.5883,1.53667l-1.02762,-3.41527c1.53668,-0.94025 4.22824,-1.83485 7.51054,-1.83485c6.6577,0 8.57619,4.22444 8.57619,8.78886l0,7.4688l0.00002,0zm-5.11914,-5.16283c-3.71347,-0.04366 -7.25223,0.72371 -7.25223,3.88254c0,2.04956 1.32205,2.98604 2.98602,2.98604c2.13309,0 3.6261,-1.36388 4.13895,-2.85872c0.12724,-0.38368 0.12724,-0.7693 0.12724,-1.15112l0,-2.85872"/>
   <path fill="#231f20" fill-rule="nonzero" id="path56" d="m174.48706,220.85092l0,24.4938c0,2.13124 0.08549,4.43718 0.17099,5.8447l-4.65186,0l-0.25642,-3.28606l-0.08551,0c-1.23653,2.30594 -3.75717,3.75716 -6.74313,3.75716c-4.98994,0 -8.91808,-4.22446 -8.91808,-10.62575c-0.03987,-6.95781 4.31181,-11.09482 9.30367,-11.09482c2.85683,0 4.90637,1.15105 5.84473,2.6877l0.08546,0l0,-11.77675l5.25015,0l0,0.00002zm-5.25015,18.2198c0,-0.42734 -0.04369,-0.98012 -0.1292,-1.40753c-0.46724,-2.00586 -2.13121,-3.66788 -4.52264,-3.66788c-3.36969,0 -5.24637,2.98601 -5.24637,6.82486c0,3.84076 1.87668,6.61589 5.20647,6.61589c2.13124,0 4.00981,-1.45313 4.52269,-3.71352c0.12538,-0.47104 0.16905,-0.98395 0.16905,-1.53667l0,-3.11517"/>
   <path fill="#231f20" fill-rule="nonzero" id="path60" d="m183.42224,242.27135c0.12729,3.75531 3.07146,5.37558 6.39938,5.37558c2.43323,0 4.13893,-0.38184 5.76108,-0.93648l0.76741,3.58432c-1.79123,0.76743 -4.26813,1.32205 -7.25412,1.32205c-6.74129,0 -10.7112,-4.14085 -10.7112,-10.49654c0,-5.76303 3.50075,-11.18033 10.15654,-11.18033c6.74129,0 8.96178,5.54645 8.96178,10.11472c0,0.98012 -0.08548,1.74754 -0.17094,2.21667l-13.90993,0zm9.1308,-3.66975c0.0437,-1.91849 -0.81108,-5.07732 -4.30991,-5.07732c-3.24243,0 -4.60815,2.94417 -4.82089,5.07732l9.1308,0"/>
   <path fill="#231f20" fill-rule="nonzero" id="path64" d="m201.44073,236.5976c0,-2.39145 -0.08546,-4.3954 -0.17094,-6.18851l4.48088,0l0.25644,3.07338l0.12726,0c0.98012,-1.62216 2.8587,-3.54251 6.40126,-3.54251c2.73146,0 4.86458,1.53667 5.75922,3.84071l0.08549,0c0.72562,-1.153 1.58035,-2.00586 2.51678,-2.60416c1.19481,-0.80922 2.51871,-1.23656 4.26816,-1.23656c3.41336,0 6.91412,2.34584 6.91412,9.00354l0,12.24593l-5.12292,0l0,-11.47667c0,-3.45708 -1.19284,-5.50664 -3.70966,-5.50664c-1.79314,0 -3.11517,1.28029 -3.67172,2.77521c-0.17096,0.46913 -0.25642,1.15106 -0.25642,1.74748l0,12.46062l-5.11909,0l0,-12.03322c0,-2.90053 -1.15298,-4.95009 -3.58435,-4.95009c-1.96405,0 -3.28609,1.53673 -3.79706,2.94424c-0.17096,0.55463 -0.25644,1.15297 -0.25644,1.7494l0,12.28966l-5.121,0l0,-14.59184"/>
   <path fill="#231f20" fill-rule="nonzero" id="path68" d="m239.69443,227.42311c-1.74751,0 -2.90242,-1.28026 -2.90242,-2.81694c0,-1.62216 1.19667,-2.85872 2.94611,-2.85872c1.79124,0 2.90051,1.23656 2.94421,2.85872c0,1.53668 -1.15295,2.81694 -2.94421,2.81694l-0.04369,0zm2.64595,23.76633l-5.24826,0l0,-20.78035l5.24826,0l0,20.78035z"/>
   <path fill="#231f20" fill-rule="nonzero" id="path72" d="m38.44098,261.22253l0,16.76862c0,5.63199 2.34586,8.23425 5.88839,8.23425c3.7965,0 6.05935,-2.60226 6.05935,-8.23425l0,-16.76862l5.24733,0l0,16.42667c0,8.87631 -4.5637,12.80066 -11.47782,12.80066c-6.65522,0 -10.96476,-3.71161 -10.96476,-12.75693l0,-16.4704l5.24751,0"/>
   <path fill="#231f20" fill-rule="nonzero" id="path76" d="m60.88792,275.38699c0,-2.38959 -0.08547,-4.39539 -0.17075,-6.18475l4.56579,0l0.25644,3.11136l0.1282,0c0.93777,-1.61835 3.20061,-3.58243 6.65541,-3.58243c3.62801,0 7.38177,2.34586 7.38177,8.91803l0,12.33337l-5.24732,0l0,-11.73685c0,-2.98413 -1.11119,-5.24832 -3.96992,-5.24832c-2.08943,0 -3.54026,1.4949 -4.09585,3.07336c-0.17096,0.4274 -0.25645,1.06561 -0.25645,1.66394l0,12.24786l-5.24733,0l0,-14.59558"/>
   <path fill="#231f20" fill-rule="nonzero" id="path80" d="m87.3483,266.21436c-1.75037,0 -2.90204,-1.28214 -2.90204,-2.81885c0,-1.62024 1.1944,-2.85684 2.94382,-2.85684c1.79311,0 2.9024,1.2366 2.94421,2.85684c0,1.53671 -1.15109,2.81885 -2.94421,2.81885l-0.04179,0zm2.64407,23.76822l-5.24693,0l0,-20.78033l5.24693,0l0,20.78033z"/>
   <path fill="#231f20" fill-rule="nonzero" id="path84" d="m98.55714,269.20224l3.37157,10.54025c0.59644,1.83109 1.02382,3.49695 1.40753,5.20264l0.12916,0c0.38179,-1.70569 0.85287,-3.32785 1.40752,-5.20264l3.326,-10.54025l5.50661,0l-7.93794,20.78033l-5.1609,0l-7.72519,-20.78033l5.67564,0"/>
   <path fill="#231f20" fill-rule="nonzero" id="path88" d="m119.47045,281.06448c0.12726,3.75342 3.07336,5.37558 6.40126,5.37558c2.43133,0 4.13895,-0.38562 5.76112,-0.93839l0.76549,3.58246c-1.78931,0.76929 -4.26624,1.32394 -7.25221,1.32394c-6.74126,0 -10.71118,-4.13898 -10.71118,-10.49847c0,-5.75919 3.49886,-11.17844 10.15655,-11.17844c6.74126,0 8.95795,5.54648 8.95795,10.11282c0,0.98013 -0.08168,1.74945 -0.16713,2.22049l-13.91183,0l-0.00001,0zm9.13271,-3.67166c0.04178,-1.92041 -0.81297,-5.0773 -4.30994,-5.0773c-3.24431,0 -4.60815,2.94608 -4.82278,5.0773l9.13271,0"/>
   <path fill="#231f20" fill-rule="nonzero" id="path92" d="m137.48894,275.89981c0,-2.815 -0.04178,-4.86456 -0.17096,-6.69757l4.52458,0l0.21274,3.92435l0.12727,0c1.02385,-2.90244 3.45895,-4.39542 5.71935,-4.39542c0.51097,0 0.81105,0.04367 1.23653,0.12915l0,4.9064c-0.46724,-0.08551 -0.93831,-0.12732 -1.58034,-0.12732c-2.47313,0 -4.22255,1.57849 -4.69362,3.96808c-0.08359,0.46912 -0.12727,1.02191 -0.12727,1.57846l0,10.79663l-5.24828,0l0,-14.08276"/>
   <path fill="#231f20" fill-rule="nonzero" id="path96" d="m152.24603,285.11606c1.15108,0.72568 3.41147,1.53674 5.29004,1.53674c2.306,0 3.32982,-0.98016 3.32982,-2.34778c0,-1.40753 -0.85475,-2.08942 -3.41528,-3.02777c-4.0535,-1.36765 -5.71744,-3.58432 -5.71744,-6.05936c0,-3.66977 3.02968,-6.48672 7.85243,-6.48672c2.3022,0 4.30995,0.55658 5.54654,1.2366l-1.06755,3.67163c-0.85284,-0.51282 -2.56049,-1.19666 -4.39726,-1.19666c-1.87482,0 -2.90053,0.94022 -2.90053,2.22049c0,1.32205 0.98395,1.92041 3.62802,2.90054c3.79704,1.32199 5.50281,3.24429 5.54648,6.3157c0,3.79712 -2.9442,6.52856 -8.4489,6.52856c-2.51682,0 -4.77911,-0.59644 -6.31577,-1.45123l1.0694,-3.84079"/>
   <path fill="#231f20" fill-rule="nonzero" id="path100" d="m172.34636,266.21436c-1.74944,0 -2.90051,-1.28214 -2.90051,-2.81885c0,-1.62024 1.19478,-2.85684 2.9442,-2.85684c1.79312,0 2.90242,1.2366 2.9442,2.85684c0,1.53671 -1.15108,2.81885 -2.9442,2.81885l-0.04369,0zm2.64598,23.76822l-5.24637,0l0,-20.78033l5.24637,0l0,20.78033z"/>
   <path fill="#231f20" fill-rule="nonzero" id="path104" d="m186.11192,263.86661l0,5.33563l4.99182,0l0,3.92435l-4.99182,0l0,9.13083c0,2.56049 0.68381,3.8407 2.68774,3.8407c0.94022,0 1.45313,-0.04367 2.04953,-0.2146l0.08551,3.96991c-0.7693,0.30011 -2.17871,0.55273 -3.79898,0.55273c-1.96216,0 -3.54063,-0.63821 -4.52266,-1.70569c-1.15302,-1.19476 -1.66394,-3.11328 -1.66394,-5.84665l0,-9.72723l-2.94421,0l0,-3.92435l2.94421,0l0,-3.8844l5.1628,-1.45123"/>
   <path fill="#231f20" fill-rule="nonzero" id="path108" d="m198.90872,269.20224l3.71158,11.13477c0.4274,1.28027 0.89848,2.85873 1.19478,4.01364l0.12727,0c0.30011,-1.15491 0.68381,-2.73337 1.11121,-4.05542l3.24429,-11.09299l5.58829,0l-5.20648,14.16446c-2.85872,7.76694 -4.7791,11.22403 -7.21043,13.35526c-2.09134,1.79309 -4.22446,2.47504 -5.50467,2.646l-1.1967,-4.39539c0.89848,-0.21274 1.96405,-0.68195 3.03349,-1.45123c0.98012,-0.63821 2.17299,-1.87479 2.9005,-3.28232c0.16905,-0.38559 0.29631,-0.68381 0.29631,-0.94022c0,-0.21466 -0.04176,-0.51099 -0.25641,-1.02383l-7.63594,-19.07272l5.80293,0"/>
 </g>
</svg>