<?xml version="1.0" encoding="utf-8"?>
<!-- Generator: Adobe Illustrator 25.0.1, SVG Export Plug-In . SVG Version: 6.00 Build 0)  -->
<svg version="1.0" id="Layer_1" xmlns="http://www.w3.org/2000/svg" xmlns:xlink="http://www.w3.org/1999/xlink" x="0px" y="0px"
	 viewBox="0 0 336 224" style="enable-background:new 0 0 336 224;" xml:space="preserve">
<style type="text/css">
	.st0{fill:none;}
</style>
<g id="Page-1">
	<g id="Desktop_landingpage">
		<g id="Group-19">
			<g id="Group-18">
				<path id="Fill-2" d="M136.2,68.8v-18c4.8,1.1,12.4,3.6,18.5,9.3c9.4,8.7,9.5,30.7,9.5,30.7c-2.2-4.8-5.4-9.2-9.3-12.8
					C148.8,72.6,141.2,70,136.2,68.8"/>
				<path id="Fill-4" d="M181.3,60.1c6.1-5.7,13.7-8.2,18.5-9.3v18c-5,1.3-12.6,3.8-18.7,9.1c-4,3.6-7.1,8-9.3,12.9
					C171.8,90.8,172,68.8,181.3,60.1"/>
				<path id="Fill-6" d="M209.6,78.6v30.1c0,0-5.6,0-15.6,3.7c-14.7,5.4-23.5,20.1-23.5,20.1l2.8-24.5c0.7-6.3,3-16.4,12-22.8
					C192.4,80.2,201,77.9,209.6,78.6"/>
				<path id="Fill-8" d="M126.4,78.6v30.1c0,0,5.6,0,15.6,3.7c14.7,5.4,23.5,20.1,23.5,20.1l-2.8-24.5c-0.7-6.3-3-16.4-12-22.8
					C143.6,80.2,135,77.9,126.4,78.6"/>
				<path id="Fill-10" d="M168,64.9c0,0-1.8-6.6-4.9-10.8c-1.6-2.2-3.6-4.2-5.8-5.9l10.7-9.4l10.7,9.4c-2.2,1.7-4.2,3.7-5.8,5.9
					C169.9,58.3,168,64.9,168,64.9"/>
				<path id="Fill-12" d="M84.3,177.6h-5.4v-4.1h5.7v-1.4h-7.5V185H85v-1.4h-6V179h5.4L84.3,177.6z M96.2,180.9l1.5,4.1h1.9
					l-4.8-12.9h-2.2L88,185h1.9l1.4-4.1L96.2,180.9z M91.7,179.6l1.3-3.7c0.3-0.8,0.5-1.6,0.7-2.3l0,0c0.2,0.8,0.4,1.5,0.7,2.4
					l1.4,3.7L91.7,179.6z M102.3,184.4c1.1,0.6,2.3,0.9,3.5,0.8c3.3,0,4.9-1.7,4.9-3.7s-1.2-2.9-3.6-3.8c-1.9-0.7-2.8-1.3-2.8-2.5
					c0-0.9,0.7-1.9,2.6-1.9c0.9,0,1.8,0.2,2.6,0.6l0.5-1.4c-1-0.4-2-0.7-3.1-0.6c-2.7,0-4.5,1.5-4.5,3.5c0,1.8,1.4,2.9,3.7,3.6
					c1.9,0.7,2.6,1.4,2.6,2.6s-1.1,2.2-2.9,2.2c-1.1,0-2.2-0.3-3.2-0.9L102.3,184.4z M116.8,185h1.8v-11.5h4.3v-1.4h-10.3v1.4h4.2
					V185z M133,177.6h-5.4v-4.1h5.7v-1.4h-7.5V185h7.8v-1.4h-6V179h5.4V177.6z M138.1,185h1.8v-5.6h1.7c1.6,0.1,2.4,0.7,2.8,2.5
					c0.2,1.1,0.5,2.1,0.9,3.1h1.8c-0.5-1.1-0.8-2.3-1.1-3.5c-0.1-1.2-0.9-2.2-2-2.6v-0.1c1.5-0.4,2.6-1.7,2.6-3.3
					c0-0.9-0.4-1.8-1.1-2.4c-1.2-0.8-2.6-1.1-4-1c-1.2,0-2.3,0.1-3.5,0.3L138.1,185z M139.9,173.5c0.6-0.1,1.2-0.2,1.8-0.1
					c1.9,0,3.2,0.7,3.2,2.4c0,1.5-1.2,2.4-3.1,2.4h-1.8C139.9,178.2,139.9,173.5,139.9,173.5z M153.1,185v-5.5c0-2.1,0-3.7-0.1-5.3
					h0.1c0.8,1.5,1.6,2.9,2.6,4.3l4.4,6.5h1.8v-12.9h-1.7v5.4c0,1.8,0,3.5,0.2,5.3l0,0c-0.7-1.5-1.6-2.8-2.5-4.2l-4.5-6.5h-2V185
					H153.1z M171.9,185h1.8v-5.8h5.3v-1.4h-5.3v-4.3h5.7v-1.4h-7.5L171.9,185z M183.7,185h1.8v-12.9h-1.8V185z M192.5,185v-5.5
					c0-2.1,0-3.7-0.1-5.3h0.1c0.8,1.5,1.6,2.9,2.6,4.3l4.4,6.5h1.8v-12.9h-1.7v5.4c0,1.8,0,3.5,0.2,5.3l0,0
					c-0.7-1.4-1.6-2.8-2.5-4.2l-4.5-6.5h-2V185H192.5z M206.2,185h7.8v-1.4h-6v-11.5h-1.8V185z M224.5,180.9l1.5,4.1h1.9l-4.8-12.9
					H221l-4.8,12.9h1.9l1.4-4.1H224.5z M219.9,179.6l1.4-3.7c0.3-0.8,0.5-1.6,0.7-2.3h0c0.2,0.8,0.4,1.5,0.7,2.4l1.4,3.7
					L219.9,179.6z M233.4,185v-5.5c0-2.1,0-3.7-0.1-5.3h0.1c0.8,1.5,1.6,2.9,2.6,4.3l4.4,6.5h1.8v-12.9h-1.7v5.4c0,2,0,3.6,0.2,5.3
					l0,0c-0.7-1.4-1.6-2.8-2.5-4.2l-4.5-6.5h-2V185H233.4z M247.5,185c1.1,0.1,2.2,0.2,3.3,0.1c2.7,0,4.9-0.6,6.2-1.9
					c1.4-1.3,2.1-3.1,2-5c0.1-1.8-0.7-3.5-2-4.6c-1.2-1.1-3.1-1.6-5.6-1.6c-1.3,0-2.6,0.1-3.8,0.3L247.5,185L247.5,185z
					 M249.3,173.6c0.7-0.1,1.4-0.2,2.1-0.2c3.8,0,5.7,1.9,5.7,5c0,3.5-2.1,5.5-5.9,5.5c-0.6,0-1.2,0-1.8-0.1V173.6L249.3,173.6z"/>
				<path id="Fill-14" d="M95.8,149.5v7.6c0,4,2.1,5.5,5,5.5c3,0,5.3-1.6,5.3-5.6v-7.5h-1.8v7.6c0,2.9-1.3,4.1-3.4,4.1
					c-1.9,0-3.2-1.2-3.2-4.1v-7.6H95.8z M112.6,162.4v-5.5c0-2.1,0-3.7-0.1-5.3h0.1c0.8,1.5,1.6,2.9,2.6,4.3l4.4,6.5h1.8v-12.9h-1.7
					v5.4c0,2,0,3.6,0.2,5.3l0,0c-0.7-1.5-1.6-2.9-2.5-4.2l-4.5-6.5h-2v12.9L112.6,162.4z M126.2,162.4h1.8v-12.9h-1.8L126.2,162.4z
					 M138,162.4l5-12.9h-2l-2.4,6.4c-0.6,1.7-1.2,3.3-1.6,4.8l0,0c-0.4-1.5-0.9-3.1-1.5-4.8l-2.2-6.3h-2l4.6,12.9H138z M153.4,155
					H148v-4.1h5.7v-1.4h-7.5v12.9h7.8V161H148v-4.6h5.4L153.4,155z M158.1,162.4h1.8v-5.6h1.7c1.6,0.1,2.4,0.7,2.8,2.5
					c0.2,1.1,0.5,2.1,0.9,3.1h1.9c-0.5-1.1-0.8-2.3-1.1-3.5c-0.1-1.2-0.9-2.2-2-2.6v-0.1c1.5-0.4,2.6-1.7,2.6-3.3
					c0-0.9-0.4-1.8-1.1-2.4c-1.2-0.8-2.6-1.1-4-1c-1.2,0-2.3,0.1-3.4,0.3L158.1,162.4z M159.9,150.9c0.6-0.1,1.2-0.2,1.8-0.2
					c1.9,0,3.2,0.8,3.2,2.4c0,1.5-1.2,2.4-3.1,2.4h-1.8V150.9z M170.3,161.8c1.1,0.6,2.3,0.9,3.6,0.9c3.3,0,4.9-1.7,4.9-3.7
					s-1.2-2.9-3.6-3.8c-1.9-0.7-2.8-1.3-2.8-2.5c0-0.9,0.7-1.9,2.6-1.9c0.9,0,1.8,0.2,2.6,0.6l0.5-1.4c-1-0.5-2-0.7-3.1-0.6
					c-2.7,0-4.5,1.5-4.5,3.5c0,1.8,1.4,2.9,3.7,3.6c1.9,0.7,2.6,1.4,2.6,2.6s-1.1,2.2-2.9,2.2c-1.1,0-2.2-0.3-3.2-0.8L170.3,161.8z
					 M183,162.4h1.8v-12.9H183V162.4z M192.2,162.4h1.8v-11.5h4.3v-1.4H188v1.4h4.2L192.2,162.4z M206.2,162.4v-5.5l4.7-7.4h-2
					l-2,3.6c-0.5,1-1,1.8-1.4,2.7l0,0c-0.4-0.9-0.9-1.8-1.4-2.7l-2-3.6H200l4.4,7.4v5.5H206.2z"/>
				<path id="Fill-16" d="M222.4,149.3c-3.7,0-6.5,2.7-6.5,6.8c0,3.9,2.6,6.5,6.3,6.5s6.5-2.4,6.5-6.8
					C228.7,152,226.2,149.3,222.4,149.3z M222.3,150.7c3,0,4.4,2.7,4.4,5.2c0,2.9-1.6,5.4-4.5,5.4s-4.4-2.5-4.4-5.2
					S219.4,150.7,222.3,150.7L222.3,150.7z M232.8,162.4h1.8v-5.8h5.3v-1.4h-5.3v-4.3h5.7v-1.4h-7.5L232.8,162.4L232.8,162.4z"/>
			</g>
		</g>
	</g>
</g>
<rect x="68" y="12" class="st0" width="200" height="200"/>
</svg>
