<?xml version="1.0" encoding="utf-8"?>
<!-- Generator: Adobe Illustrator 25.0.1, SVG Export Plug-In . SVG Version: 6.00 Build 0)  -->
<svg version="1.0" id="Layer_1" xmlns="http://www.w3.org/2000/svg" xmlns:xlink="http://www.w3.org/1999/xlink" x="0px" y="0px"
	 viewBox="0 0 301.5 213.4" style="enable-background:new 0 0 301.5 213.4;" xml:space="preserve">
<style type="text/css">
	.st0{fill:#0F284E;}
	.st1{fill:#F03E38;}
	.st2{fill:#231F20;}
</style>
<path id="path827" class="st0" d="M150.8,105.5c-7.9-0.1-15.3-4.1-19.6-10.8l-0.1-0.1h39.4l-0.1,0.1
	C166.2,101.5,158.8,105.6,150.8,105.5z M154.2,143h-6.8v-35.9h0.1c2.1,0.8,4.5,0.8,6.6,0h0.1L154.2,143"/>
<path id="path829" class="st1" d="M154.5,58.1c2.4,2.4,3.1,6,1.9,9.1c-1.6,3-5,6.9-5.9,8c-1.5,1.8-5.9,6.1-6.4,8.5
	c-0.2,2,0,4.1,0.5,6.1h-2.8c-1.2-2.8-1.6-5.9-1.2-9c0.5-2.8,4.4-7.2,5.1-8c1.3-1.5,4.9-5.9,6.4-7.8c1.7-2.2,1.6-3.6,0.4-5.3
	L154.5,58.1L154.5,58.1z M151.6,93.4h-4.8c-1-2.9-2.2-6.6-1-9.6c1.3-3.2,7-7.8,10.6-11.8c1.9-2.4,2.6-3.9,1.5-6l1.9-1.6
	c2,1.7,3.5,6.3,1.3,9.2c-1.3,1.7-2.7,3.2-4.5,5.1c-1.8,1.9-3.5,3.5-5.8,6.2C148.9,87,150.9,91.2,151.6,93.4z M157,93.4h-4
	c-0.4-1.4-1-3-1.2-4.4c-0.3-1.8-0.2-2.8,1.1-4.1c1.8-1.9,6.4-4.9,7.5-6.3c0.6-0.8,0.7-1.9,0.3-2.8l1.9-1.6c2.3,2.7,1.7,6.6-0.1,8.1
	c-1.3,1.1-4,3.3-5.8,5.1c-1,1-1,1-0.7,2.6C156.4,91.1,156.8,92.5,157,93.4L157,93.4z M139.3,82.4c-1.1-1.5-1.7-3.3-1.8-5.1
	c-0.3-4.5,3-8.2,5.7-12c2.3-3.2,4.5-6.2,4.7-7.4c0.1-0.9-0.1-1.8-0.5-2.6c0,0,1.7-1.4,1.9-1.6c2.3,2.2,2.8,5.6,1.4,8.5
	C147.9,68.1,138.5,75.8,139.3,82.4"/>
<path id="path831" class="st2" d="M238.5,153.2l1.8-4.2l1.8,4.2H238.5z M240.8,147.1h-0.4c-0.4,1-0.9,2.1-1.3,3.1l-2.5,5.7
	c-0.1,0.4-0.4,0.6-0.8,0.7h-0.5v0.4c0.5,0,1.1-0.1,1.6-0.1s1,0,1.6,0.1v-0.4H238c-0.4,0-0.7-0.1-0.7-0.4c0.1-0.5,0.3-1,0.5-1.5
	l0.4-0.9h4.1l0.6,1.6c0.1,0.3,0.2,0.6,0.3,0.9c0,0.2-0.3,0.3-0.6,0.3H242v0.4c0.8,0,1.4-0.1,1.9-0.1s1.3,0,1.9,0.1v-0.4h-0.5
	c-0.2,0-0.4-0.2-0.6-0.5c-0.2-0.3-0.3-0.7-0.4-1L240.8,147.1z M242,144.8c-0.4,0-0.7,0.2-0.7,0.6c0,0,0,0.1,0,0.1
	c0,0.4,0.2,0.7,0.6,0.8c0.4,0,0.7-0.2,0.8-0.6c0-0.1,0-0.1,0-0.2C242.7,145.1,242.4,144.8,242,144.8C242,144.8,242,144.8,242,144.8
	L242,144.8z M239.2,144.8c-0.4,0-0.7,0.3-0.7,0.6c0,0,0,0.1,0,0.1c0,0.4,0.3,0.7,0.7,0.7c0.4,0,0.7-0.3,0.7-0.7c0,0,0,0,0,0
	C239.9,145.1,239.6,144.8,239.2,144.8C239.2,144.8,239.2,144.8,239.2,144.8z M229.6,149c0-0.4,0-0.7,0.1-1.1
	c0.1-0.1,0.2-0.2,0.6-0.2h0.7v-0.4c-0.7,0-1.4,0-2.1,0s-1.4,0-2.1,0v0.4h0.7c0.3,0,0.5,0.1,0.6,0.2c0.1,0.3,0.1,0.7,0.1,1.1v6.7
	c0,0.3-0.1,0.6-0.4,0.8l-0.4,0.2v0.3c0.4,0,0.7-0.1,1.2-0.1c0.9,0,1.8,0,3.1,0.1c1,0,2.1,0,2.8-0.1c0.1-0.7,0.2-1.6,0.3-2.4h-0.4
	l-0.2,0.7c0,0.3-0.1,0.6-0.3,0.9c-1,0.2-2.1,0.3-3.1,0.3c-0.4,0-0.8,0-1.2-0.1L229.6,149z M220.3,148.5c-0.2-0.3-0.4-0.6-0.6-0.9
	c-0.2-0.3-0.4-0.6-0.7-0.5l-1.6,0.3v0.4h0.4c0.4,0,1.1,0.6,1.8,1.8l1.8,3c0.1,0.2,0.1,0.4,0.1,0.6v2c0,0.4,0,0.7-0.1,1.1
	c-0.1,0.1-0.2,0.2-0.6,0.2H220v0.4c0.7,0,1.4-0.1,2.1-0.1s1.3,0,2,0.1v-0.4h-0.7c-0.3,0-0.5-0.1-0.6-0.2c-0.1-0.3-0.2-0.7-0.1-1.1
	v-1.8c0-0.4,0.1-0.7,0.2-1.1c1-1.8,2.1-3.5,3.5-5v-0.2h-1.1c-0.5,0.9-1,1.8-1.5,2.7l-1.4,2.3L220.3,148.5z M210.1,152.4l0.1-0.1
	l4.9,4.7c0.4,0,0.8-0.1,1.1-0.1s0.7,0,0.9,0.1v-0.4h-0.3c-0.3-0.1-0.6-0.3-0.9-0.6l-4.6-4.4l3.8-3.4c0.3-0.3,0.7-0.5,1.1-0.5h0.6
	v-0.4c-0.3,0-0.7,0-1.1,0s-0.8,0-1.3,0v0.4c0,0.1-0.2,0.3-0.4,0.6l-3.9,3.8v-3c0-0.4,0-0.7,0.1-1.1c0.1-0.1,0.2-0.2,0.6-0.2h0.7
	v-0.4c-0.7,0-1.4,0-2.1,0s-1.4,0-2.1,0v0.3h0.7c0.3,0,0.5,0.1,0.6,0.2c0.1,0.3,0.2,0.7,0.1,1.1v6.3c0,0.4,0,0.7-0.1,1.1
	c-0.1,0.1-0.3,0.2-0.6,0.2h-0.7v0.4c0.7,0,1.4-0.1,2.1-0.1s1.3,0,2.1,0.1v-0.4h-0.7c-0.3,0-0.5-0.1-0.6-0.2
	c-0.1-0.3-0.2-0.7-0.1-1.1L210.1,152.4z M206,149.6c0-0.7,0.1-1.3,0.2-2c-0.8-0.4-1.7-0.6-2.6-0.6c-1.7,0-3.6,1-3.6,3.2
	c0,1.5,0.9,2.2,3.1,2.4c1.4,0.2,2.5,0.5,2.5,1.9c-0.1,1.3-1.2,2.3-2.4,2.2c0,0-0.1,0-0.1,0c-1.1,0-2.2-0.5-2.3-1.1l-0.1-1h-0.4
	c0,0.7,0,1.4-0.1,2.2c0.8,0.3,1.6,0.5,2.4,0.5c2.1,0,4.3-1.2,4.3-3.6c0-1.6-1.3-2.1-3.2-2.3c-1.8-0.2-2.3-0.8-2.3-1.8
	c0-1.1,0.8-2,1.9-2.1c0.1,0,0.1,0,0.2,0c0.5,0,1.1,0.1,1.5,0.3c0.5,0.3,0.6,0.5,0.6,0.8l0.1,0.8L206,149.6z M192.2,153.2l1.8-4.2
	l1.8,4.2H192.2z M194.6,147.1h-0.4c-0.4,1-0.9,2.1-1.3,3.1l-2.5,5.7c-0.1,0.4-0.4,0.6-0.8,0.7H189v0.4c0.5,0,1.1-0.1,1.6-0.1
	s0.9,0,1.6,0.1v-0.4h-0.5c-0.4,0-0.7-0.1-0.7-0.4c0.1-0.5,0.3-1,0.5-1.5l0.4-0.9h4.1l0.6,1.6c0.1,0.3,0.2,0.6,0.3,0.9
	c0,0.2-0.3,0.3-0.6,0.3h-0.7v0.4c0.8,0,1.4-0.1,1.9-0.1c0.6,0,1.3,0,1.9,0.1v-0.4H199c-0.3,0-0.4-0.2-0.6-0.5s-0.3-0.7-0.4-1
	L194.6,147.1z M195.7,144.8c-0.4,0-0.7,0.3-0.7,0.6c0,0,0,0.1,0,0.1c0,0.4,0.3,0.7,0.7,0.7s0.7-0.3,0.7-0.7S196.1,144.8,195.7,144.8
	C195.7,144.8,195.7,144.8,195.7,144.8z M192.9,144.8c-0.4,0-0.7,0.2-0.7,0.6c0,0,0,0.1,0,0.1c0,0.4,0.2,0.7,0.6,0.8
	c0.4,0,0.7-0.2,0.8-0.6c0-0.1,0-0.1,0-0.2C193.6,145.1,193.4,144.8,192.9,144.8C193,144.8,192.9,144.8,192.9,144.8L192.9,144.8z
	 M182.8,148.1c-0.1-0.3,0.1-0.4,0.4-0.4h0.8v-0.4c-0.6,0-1.2,0-1.9,0s-1.3,0-1.9,0v0.4h0.5c0.2,0,0.4,0.1,0.6,0.6l2.6,6.5
	c0.3,0.8,0.6,1.5,0.8,2.3h0.7c0.3-0.9,0.6-1.7,0.9-2.5l2.5-5.9c0.3-0.7,0.5-1,0.8-1h0.4v-0.4c-0.5,0-1,0-1.5,0s-1,0-1.5,0v0.4h0.7
	c0.4,0,0.7,0.2,0.4,0.9l-2.6,6.7L182.8,148.1z M173.9,148.5c-0.2-0.3-0.4-0.6-0.6-0.9c-0.2-0.3-0.4-0.6-0.7-0.5l-1.6,0.3v0.4h0.4
	c0.3,0,1.1,0.6,1.8,1.8l1.7,3c0.1,0.2,0.1,0.4,0.1,0.6v2c0,0.4,0,0.7-0.1,1.1c-0.1,0.1-0.2,0.2-0.6,0.2h-0.7v0.4
	c0.7,0,1.4-0.1,2.1-0.1s1.3,0,2,0.1v-0.4H177c-0.3,0-0.5-0.1-0.6-0.2c-0.1-0.3-0.2-0.7-0.1-1.1v-1.8c0-0.4,0.1-0.7,0.2-1.1
	c1-1.8,2.1-3.5,3.5-5v-0.2h-1.1c-0.5,0.9-1,1.8-1.5,2.7l-1.4,2.3L173.9,148.5z M169.1,149c0-0.4,0-0.7,0.1-1.1
	c0.1-0.1,0.2-0.2,0.6-0.2h0.7v-0.4c-0.7,0-1.4,0-2,0s-1.4,0-2.1,0v0.4h0.7c0.3,0,0.5,0.1,0.6,0.2c0.1,0.3,0.2,0.7,0.1,1.1v8.3
	c0,0.4,0,0.8-0.1,1.1c-0.1,0.3-0.3,0.5-0.6,0.5c-0.4,0-0.7-0.1-1-0.3l-0.1,0.1l0.1,1.1c0.1,0,0.2,0,0.2,0c0.8-0.1,1.5-0.5,2-1.1
	c0.7-0.9,1-2.1,0.9-3.3L169.1,149z M158,152.4c0.4,0,1,0,1.6,0c0.5-0.1,1,0,1.5,0.2c0.1,0,0.1,0.2,0.1,0.4l0.1,0.8h0.5
	c0-0.5,0-1,0-1.6s0-1.1,0-1.6h-0.4l-0.1,0.7c0,0.2,0,0.3-0.1,0.4c-0.5,0.2-1,0.2-1.5,0.2c-0.7,0-1.2,0-1.6,0V148
	c0.4-0.1,0.8-0.1,1.2-0.1c0.8,0,1.7,0.1,2.5,0.3c0.1,0,0.1,0.2,0.1,0.4v0.9h0.5c0-0.7,0.1-1.4,0.2-2.1c-0.6,0-1.2,0-1.8,0
	c-0.8,0-2.1,0-3.1,0s-1.6,0-2.4,0v0.3h0.7c0.3,0,0.5,0.1,0.6,0.2c0.1,0.3,0.2,0.7,0.1,1.1v6.3c0,0.4,0,0.7-0.1,1.1
	c-0.1,0.1-0.3,0.2-0.6,0.2h-0.7v0.4c0.7,0,1.4-0.1,2.1-0.1s1.3,0,2,0.1v-0.4h-0.7c-0.3,0-0.5-0.1-0.6-0.2c-0.1-0.3-0.2-0.7-0.1-1.1
	L158,152.4z M149.3,147.6c2.6,0,3.9,1.9,3.9,4.7c0,2.6-1.1,4.4-3.5,4.4c-2.8,0-4-2.6-4-5.1C145.8,149.3,146.9,147.6,149.3,147.6
	L149.3,147.6z M149.2,157.3c3,0,5.4-2.4,5.5-5.3c0,0,0-0.1,0-0.1c0-3.1-2.2-4.8-5.2-4.8c-2.8-0.2-5.1,1.9-5.3,4.7c0,0.2,0,0.3,0,0.5
	c-0.2,2.7,1.8,5,4.5,5.1C148.9,157.3,149.1,157.3,149.2,157.3L149.2,157.3z M134.5,148.5c-0.2-0.3-0.4-0.6-0.6-0.9
	c-0.2-0.3-0.4-0.6-0.7-0.5l-1.6,0.3v0.4h0.4c0.4,0,1.1,0.6,1.8,1.8l1.8,3c0.1,0.2,0.1,0.4,0.1,0.6v2c0,0.4,0,0.7-0.1,1.1
	c-0.1,0.1-0.2,0.2-0.6,0.2h-0.7v0.4c0.7,0,1.4-0.1,2.1-0.1c0.7,0,1.3,0,2,0.1v-0.4h-0.7c-0.3,0-0.5-0.1-0.6-0.2
	c-0.1-0.3-0.2-0.7-0.1-1.1v-1.8c0-0.4,0.1-0.7,0.2-1.1c1-1.8,2.1-3.5,3.5-5v-0.2h-1.1c-0.5,0.9-1,1.8-1.5,2.7l-1.4,2.3L134.5,148.5z
	 M126.5,155.3c0,0.4,0,0.7-0.1,1.1c-0.1,0.1-0.2,0.2-0.6,0.2h-0.7v0.4c0.7,0,1.4-0.1,2.1-0.1s1.3,0,2,0.1v-0.4h-0.7
	c-0.3,0-0.5-0.1-0.6-0.2c-0.1-0.3-0.2-0.7-0.1-1.1v-6c0-0.5,0-0.9,0.1-1.4h2.2c0.4,0,0.5,0.1,0.6,0.5v1.1h0.4c0-0.8,0-1.5,0.1-2.3
	c-1,0-2,0-3,0h-2c-1,0-2,0-3.1,0c0.1,0.7,0.1,1.5,0.1,2.3h0.4l0.1-1.1c0-0.3,0.1-0.5,0.6-0.5h2.2c0,0.5,0.1,0.9,0.1,1.4L126.5,155.3
	z M121.2,149c0-0.4,0-0.7,0.1-1.1c0.1-0.1,0.2-0.2,0.6-0.2h0.7v-0.4c-0.7,0-1.4,0-2,0s-1.4,0-2.1,0v0.4h0.7c0.3,0,0.5,0.1,0.6,0.2
	c0.1,0.3,0.2,0.7,0.1,1.1v6.3c0,0.4,0,0.7-0.1,1.1c-0.1,0.1-0.3,0.2-0.6,0.2h-0.7v0.4c0.7,0,1.4-0.1,2.1-0.1s1.3,0,2,0.1v-0.4h-0.7
	c-0.3,0-0.5-0.1-0.6-0.2c-0.1-0.3-0.2-0.7-0.1-1.1V149z M117.1,149.6c0-0.7,0.1-1.3,0.2-2c-0.8-0.4-1.7-0.6-2.6-0.6
	c-1.7,0-3.6,1-3.6,3.2c0,1.5,0.9,2.2,3.1,2.4c1.4,0.2,2.5,0.5,2.5,1.9c0,1.3-1.1,2.3-2.4,2.2c0,0-0.1,0-0.1,0
	c-1.1,0-2.2-0.5-2.3-1.1l-0.1-1h-0.4c0,0.7,0,1.4-0.1,2.2c0.8,0.3,1.6,0.5,2.4,0.5c2.1,0,4.3-1.2,4.3-3.6c0-1.6-1.3-2.1-3.2-2.3
	c-1.8-0.2-2.3-0.8-2.3-1.8c0-1.1,0.8-2,1.9-2.1c0.1,0,0.1,0,0.2,0c0.5,0,1.1,0.1,1.5,0.3c0.5,0.3,0.6,0.5,0.6,0.8l0.1,0.8
	L117.1,149.6z M104.5,147.9c0.5-0.1,1-0.2,1.4-0.2c1.1,0,2.2,0.4,2.2,2c0,1-0.8,1.9-1.8,2c-0.4,0.1-0.8,0.1-1.2,0.1L105,152
	c0.2,0.3,0.5,0.6,0.7,0.9l2.6,3.5c0.2,0.2,0.4,0.5,0.6,0.8c0.3,0,0.6-0.1,1-0.1s0.7,0,1,0.1v-0.4c-0.3,0-0.6-0.1-0.9-0.4l-3.2-4.2
	c1.5-0.1,2.6-1.3,2.8-2.7c0-1-0.6-2.2-2.8-2.1c-0.8,0-1.6,0-2.5,0c-0.8,0-1.6,0-2.4,0v0.4h0.6c0.3,0,0.5,0.1,0.6,0.2
	c0.1,0.3,0.2,0.7,0.1,1.1v6.3c0,0.4,0,0.7-0.1,1.1c-0.1,0.1-0.3,0.2-0.6,0.2h-0.7v0.4c0.7,0,1.4-0.1,2.1-0.1s1.3,0,2,0.1v-0.4h-0.7
	c-0.3,0-0.5-0.1-0.6-0.2c-0.1-0.3-0.2-0.7-0.1-1.1L104.5,147.9z M94.6,155.3c0,0.4,0,0.7-0.1,1.1c-0.1,0.1-0.2,0.2-0.6,0.2h-0.5v0.4
	c0.5,0,1-0.1,1.5-0.1c0.9,0,2,0,3.1,0.1s2.2,0,2.8-0.1c0-0.8,0.1-1.5,0.2-2.3h-0.5c-0.1,0.9-0.3,1.5-0.5,1.6
	c-0.9,0.2-1.9,0.2-2.8,0.2c-0.4,0-0.8,0-1.2-0.1v-3.9c0.4,0,1,0,1.6,0c0.5-0.1,1,0,1.5,0.2c0.1,0,0.1,0.2,0.1,0.4l0.1,0.8h0.5
	c0-0.5-0.1-1-0.1-1.6s0-1.1,0.1-1.6h-0.4l-0.1,0.7c0,0.2,0,0.3-0.1,0.4c-0.5,0.2-1,0.2-1.5,0.2c-0.7,0-1.2,0-1.6,0V148
	c0.4-0.1,0.8-0.1,1.2-0.1c0.9-0.1,1.9,0,2.8,0.3c0.1,0,0.1,0.2,0.1,0.4v0.9h0.5c0-0.7,0.1-1.4,0.2-2.1c-0.6,0-1.2,0-1.8,0
	c-0.8,0-2.1,0-3.3,0c-0.8,0-1.6,0-2.4,0v0.4h0.7c0.3,0,0.5,0.1,0.6,0.2c0.1,0.3,0.2,0.7,0.1,1.1L94.6,155.3L94.6,155.3z M85.5,148.1
	c-0.1-0.3,0.2-0.4,0.4-0.4h0.8v-0.4c-0.6,0-1.2,0-1.9,0s-1.2,0-1.9,0v0.4h0.5c0.2,0,0.4,0.1,0.6,0.6l2.7,6.5
	c0.3,0.8,0.6,1.5,0.8,2.3h0.7c0.3-0.8,0.6-1.7,0.9-2.5l2.4-5.9c0.3-0.7,0.5-1,0.8-1h0.4v-0.4c-0.5,0-1,0-1.5,0s-1,0-1.5,0v0.4h0.7
	c0.4,0,0.7,0.2,0.4,0.9l-2.6,6.7L85.5,148.1z M81.2,149c0-0.4,0-0.7,0.1-1.1c0.1-0.1,0.2-0.2,0.6-0.2h0.7v-0.4c-0.7,0-1.4,0-2.1,0
	c-0.6,0-1.3,0-2.1,0v0.4h0.7c0.3,0,0.5,0.1,0.6,0.2c0.1,0.3,0.2,0.7,0.1,1.1v6.3c0,0.4,0,0.7-0.1,1.1c-0.1,0.1-0.2,0.2-0.6,0.2h-0.7
	v0.4c0.7,0,1.4-0.1,2.1-0.1s1.3,0,2.1,0.1v-0.4h-0.7c-0.3,0-0.5-0.1-0.6-0.2c-0.1-0.3-0.2-0.7-0.1-1.1V149z M68.1,155.3
	c0,0.4,0,0.7-0.1,1.1c-0.1,0.1-0.2,0.2-0.6,0.2h-0.6v0.4c0.6,0,1.1-0.1,1.6-0.1s1.1,0,1.7,0.1v-0.4h-0.6c-0.3,0-0.5-0.1-0.6-0.2
	c-0.1-0.3-0.1-0.7-0.1-1.1v-6.5l0,0l6.6,8.2l1.3,0.2c0-0.2,0-0.4,0-0.5V149c0-0.4,0-0.7,0.1-1.1c0.1-0.1,0.2-0.2,0.6-0.2H78v-0.4
	c-0.6,0-1.1,0-1.7,0c-0.6,0-1.1,0-1.6,0v0.4h0.6c0.3,0,0.5,0.1,0.6,0.2c0.1,0.3,0.2,0.7,0.1,1.1v6.6l0,0l-6.7-8.3
	c-0.2,0-0.5,0-0.8,0c-0.5,0-1.1,0-1.7,0v0.5h0.6c0.3,0,0.5,0.1,0.6,0.2c0.1,0.3,0.2,0.7,0.1,1.1L68.1,155.3z M57.2,154
	c0,2.6,1.4,3.3,3.8,3.3c2.8,0,4-1.2,4-4.2V149c0-0.4,0-0.7,0.1-1.1c0.1-0.1,0.2-0.2,0.6-0.2h0.6v-0.4c-0.6,0-1.1,0-1.7,0
	c-0.6,0-1.1,0-1.6,0v0.4h0.6c0.3,0,0.5,0.1,0.6,0.2c0.1,0.3,0.2,0.7,0.1,1.1v4.5c0,2.3-1.4,2.9-2.9,2.9c-1.9,0-2.9-0.6-2.9-2.6V149
	c0-0.4,0-0.7,0.1-1.1c0.1-0.1,0.3-0.2,0.6-0.2h0.7v-0.4c-0.7,0-1.4,0-2,0s-1.4,0-2.1,0v0.4h0.7c0.3,0,0.5,0.1,0.6,0.2
	c0.1,0.3,0.2,0.7,0.1,1.1L57.2,154L57.2,154"/>
</svg>
