<?xml version="1.0" encoding="utf-8"?>
<!-- Generator: Adobe Illustrator 25.0.1, SVG Export Plug-In . SVG Version: 6.00 Build 0)  -->
<svg version="1.0" id="Layer_1" xmlns="http://www.w3.org/2000/svg" xmlns:xlink="http://www.w3.org/1999/xlink" x="0px" y="0px"
	 viewBox="0 0 238.8 151" style="enable-background:new 0 0 238.8 151;" xml:space="preserve">
<path d="M41.8,54c0.1-0.6,0.2-1.1,0.2-1.7c0-0.6-0.1-1.2-0.2-1.8c0.5,0.5,0.9,1.1,1,1.8l0,0C42.5,52.9,42.2,53.5,41.8,54 M48,61.1
	c-1-0.4-2-0.6-3.1-0.6c-0.4,0-0.9,0-1.3,0.1c-0.3-0.6-0.4-1.2-0.4-1.8c0.1-1.4,0.7-2.7,1.6-3.7c0.3-0.4,0.5-0.7,0.8-1.1l0.3-0.4
	c0.2-0.3,0.5-0.6,0.7-0.9c0.2-0.3,0.2-0.4,0.4-0.5s0.3-0.4,0.4-0.7c0.2-0.3,0.3-0.6,0.4-0.9c0.1,0.6,0.2,1.2,0.2,1.7
	c0,0.2,0,0.4,0,0.6c0,0.3-0.1,0.6-0.2,0.9c-0.1,0.2-0.1,0.4-0.2,0.7c-0.1,0.3-0.3,0.6-0.4,0.8L46.9,56l-0.4,0.6
	c-0.4,0.6-0.7,1.3-0.8,2c0,0.1,0,0.2,0,0.3c0.1,0.3,0.2,0.8,0.7,0.8c0.3,0,0.5-0.2,0.7-0.4c0.1-0.2,0.1-0.4,0.1-0.6
	c0-0.3-0.1-0.6-0.2-0.9c0.2-0.3,0.5-0.8,0.7-1.2c0.1-0.2,0.3-0.5,0.5-0.8c0.5,0.9,0.8,1.9,0.9,2.9C49,59.5,48.7,60.4,48,61.1
	 M41.7,61.2c-0.6-0.8-1-1.8-1-2.8c0-0.2,0-0.4,0-0.6c0.2-1.1,0.8-2.1,1.5-2.8l0.1-0.2c0.7-0.8,1.2-1.7,1.4-2.8c0-0.1,0-0.2,0-0.3
	c0-0.4-0.1-0.7-0.1-1.1c0-1,0.3-1.9,0.9-2.7c0,0.1,0,0.2,0,0.2c0.1,1.4,0.6,2.8,1.4,3.9c-0.3,0.4-0.7,0.9-1,1.3
	c-0.4,0.5-0.6,0.7-0.8,1.1c-1,1.2-1.7,2.7-1.8,4.3c0,0.7,0.1,1.4,0.4,2C42.3,61,42,61.1,41.7,61.2 M56.1,63L56,62.7
	c-0.2-0.3-0.4-0.6-0.7-0.8l4-10.4h0.3c0.7,0,1.3,0.3,1.7,0.8c0.4,0.4,0.6,1,0.6,1.6L56.1,63z M28,53.9c0-0.6,0.3-1.1,0.6-1.6
	c0.4-0.5,1.1-0.8,1.8-0.8c0.1,0,0.2,0,0.3,0l4,10.4c-0.3,0.2-0.5,0.5-0.7,0.8c-0.1,0.1-0.1,0.2-0.1,0.3L28,53.9z M56.9,65
	c-0.2-0.2-0.5-0.3-0.7-0.4l6.4-10c0.7,0.1,1.3,0.5,1.7,1.1c0.4,0.6,0.5,1.3,0.3,2L56.9,65z M25.4,57.7c-0.2-0.7-0.1-1.4,0.3-2
	c0.3-0.6,0.9-1,1.6-1.1l6.4,10c-0.3,0.1-0.5,0.2-0.7,0.4L25.4,57.7z M23.2,61.9c-0.3-0.7-0.3-1.4,0-2.1c0.3-0.6,0.8-1.1,1.5-1.3
	l7.6,7.2l-0.1,0.1c-0.2,0.3-0.3,0.7-0.3,1.1l0,0L23.2,61.9z M57.9,66.9c0-0.4-0.1-0.8-0.3-1.1l-0.1-0.1l7.6-7.2
	c0.7,0.2,1.2,0.7,1.5,1.3c0.3,0.7,0.3,1.4,0,2.1L57.9,66.9L57.9,66.9z M58,69.1c-0.1-0.3-0.3-0.6-0.5-0.8l9.7-5.6
	c0.6,0.3,1,0.8,1.1,1.4c0.2,0.7,0.1,1.5-0.3,2.1L58,69.1z M21.9,66.2c-0.4-0.6-0.5-1.4-0.3-2.1c0.2-0.6,0.6-1.1,1.1-1.4l9.7,5.6
	c-0.2,0.2-0.4,0.5-0.5,0.8L21.9,66.2z M57.9,71.2c0.2-0.3,0.3-0.7,0.3-1.1l10-2.9c0.5,0.4,0.8,1.1,0.8,1.8c0,0.6-0.2,1.3-0.7,1.8
	L57.9,71.2z M21.7,70.7c-0.4-0.5-0.7-1.1-0.7-1.8c0-0.7,0.3-1.3,0.8-1.8l10,2.9c0,0.4,0.1,0.8,0.3,1.1L21.7,70.7z M58,73.3
	c0-0.4-0.1-0.8-0.3-1.2l10.6-0.5c0.4,0.5,0.5,1.1,0.4,1.7c-0.1,0.7-0.5,1.4-1.1,1.8L58,73.3z M22.3,75.1c-0.6-0.4-1-1.1-1.1-1.8
	c-0.1-0.6,0.1-1.2,0.4-1.7l10.6,0.5c-0.2,0.4-0.3,0.8-0.3,1.2L22.3,75.1z M23.6,78.9c-0.6-0.3-1-0.8-1.2-1.4c-0.1-0.5-0.1-1,0.2-1.4
	l9.6-1.8c0.1,0.3,0.3,0.6,0.6,0.9L23.6,78.9z M57.2,75.2c0.3-0.2,0.5-0.5,0.6-0.9l9.6,1.8c0.2,0.4,0.3,0.9,0.2,1.4
	c-0.1,0.6-0.6,1.2-1.2,1.5L57.2,75.2z M57.1,77.6c0.1-0.3,0.2-0.7,0.2-1c0-0.1,0-0.2,0-0.4l8.5,3.5c0.2,0.5,0.1,1-0.1,1.5
	c-0.3,0.5-0.7,0.9-1.3,1.2L57.1,77.6z M25.5,82.4c-0.5-0.2-1-0.6-1.2-1.1c-0.2-0.5-0.3-1-0.1-1.5l8.5-3.5c0,0.1,0,0.2,0,0.4
	c0,0.3,0.1,0.7,0.2,1L25.5,82.4z M27.9,85.2c-0.6-0.1-1.2-0.5-1.5-1c-0.2-0.3-0.3-0.6-0.4-1l7.4-4.8c0.3,0.3,0.6,0.5,1,0.6V79
	L27.9,85.2z M55.5,79C55.5,79,55.5,79,55.5,79c0.4-0.2,0.7-0.4,1-0.6l7.4,4.8c0,0.4-0.1,0.7-0.4,1.1c-0.3,0.5-0.9,0.9-1.5,1L55.5,79
	z M30.7,87.4c-0.6,0-1.1-0.3-1.5-0.7c-0.2-0.2-0.4-0.5-0.5-0.8l5.9-5.6c0.1,0.3,0.2,0.5,0.4,0.8c0,0,0.1,0.1,0.1,0.1L30.7,87.4z
	 M54.9,81.2c0,0,0.1-0.1,0.1-0.1c0.2-0.2,0.3-0.5,0.4-0.8l5.9,5.6c-0.1,0.3-0.3,0.6-0.5,0.8c-0.4,0.4-1,0.7-1.5,0.7L54.9,81.2z
	 M56.3,89.2H56L52.8,82l0,0l0,0H53c0.4,0,0.7-0.1,1.1-0.2l4.3,6.2c-0.2,0.3-0.4,0.6-0.7,0.8C57.3,89.1,56.8,89.2,56.3,89.2
	 M33.6,89.2c-0.5,0-1-0.2-1.4-0.5c-0.3-0.2-0.5-0.5-0.7-0.8l4.3-6.2c0.3,0.2,0.7,0.2,1.1,0.2h0.2l0,0l-3.2,7.2L33.6,89.2 M36.4,90.6
	c-0.3,0-0.6-0.1-0.8-0.2c-0.3-0.1-0.6-0.4-0.8-0.7l2.9-6.5c0.1,0.1,0.1,0.1,0.2,0.2c0.2,0.2,0.4,0.4,0.7,0.5l-1.4,6.5
	C36.9,90.5,36.7,90.6,36.4,90.6 M53.5,90.6c-0.3,0-0.5,0-0.7-0.2l-1.3-6.5c0.3-0.1,0.5-0.3,0.7-0.5l0.2-0.2l2.9,6.5
	c-0.2,0.3-0.5,0.5-0.8,0.7C54.1,90.5,53.8,90.6,53.5,90.6 M39.6,91h-0.2c-0.4,0-0.9-0.2-1.2-0.5l1.4-6.4h0.1c0.4,0,0.8-0.1,1.2-0.3
	l-0.3,7C40.3,91,39.9,91,39.6,91 M50.4,91c-0.3,0-0.7-0.1-1-0.2l-0.3-7c0.4,0.2,0.8,0.3,1.2,0.3h0.1l1.3,6.4
	C51.4,90.8,51,91,50.6,91H50.4 M44.4,103v-2.3c0-0.2-0.1-0.3-0.2-0.4c-0.8-0.4-1.1-1.4-0.7-2.2c0.2-0.3,0.4-0.5,0.7-0.7
	c0.1-0.1,0.2-0.3,0.2-0.4c-0.1-3.8-0.2-6.9-0.3-9.3c0-1.1-0.2-2.1-0.3-3.2c0-0.6-0.2-1.3-0.6-1.8c-0.3-0.4-0.7-0.6-1.2-0.6
	c-0.4,0-0.8,0.2-1.1,0.5c-0.3,0.3-0.7,0.5-1.2,0.5c-0.4,0-0.8-0.2-1.1-0.4c-0.3-0.3-0.5-0.7-0.5-1.1c0-0.1,0-0.1,0-0.2
	c0-0.2-0.1-0.3-0.2-0.4c-0.1-0.1-0.2-0.1-0.3-0.1h-0.2C37.3,81,37.2,81,37,81c-0.5,0-0.9-0.2-1.2-0.6c-0.2-0.3-0.3-0.6-0.3-1
	c0-0.3,0.1-0.5,0.2-0.7c0.1-0.2,0.1-0.3,0-0.5c-0.1-0.1-0.2-0.2-0.4-0.2c-0.6,0-1.1-0.3-1.3-0.8c-0.1-0.2-0.2-0.4-0.2-0.7
	c0-0.4,0.2-0.7,0.4-1c0.1-0.1,0.2-0.3,0.1-0.4c0-0.2-0.1-0.3-0.3-0.3c-0.6-0.2-1-0.8-1-1.4c0-0.5,0.3-1,0.7-1.2
	c0.1-0.1,0.2-0.3,0.2-0.4c0-0.2-0.1-0.3-0.3-0.4c-0.5-0.3-0.8-0.8-0.8-1.3c0-0.5,0.2-0.9,0.6-1.2c0.1-0.1,0.2-0.2,0.2-0.4
	c0-0.1,0-0.3-0.2-0.4c-0.3-0.3-0.5-0.7-0.5-1.1c0-0.2,0.1-0.4,0.2-0.7c0.3-0.5,0.9-0.8,1.4-0.8c0.2,0,0.3-0.1,0.4-0.3
	c0.1-0.2,0.1-0.4,0-0.5c-0.2-0.3-0.3-0.6-0.3-0.9c0-0.2,0.1-0.4,0.2-0.7c0.2-0.4,0.7-0.7,1.2-0.8c0.1,0,0.2-0.1,0.3-0.2
	c0.1-0.1,0.1-0.2,0.1-0.4c0-0.2-0.2-0.4-0.5-0.4h-0.1l-0.3,0.1l-4-10.4c0.3-1.2,1.4-2.1,2.6-2.2c0.4,0,0.8,0.1,1.1,0.3l0.1,0.6
	c0.7,4,2.2,13.5,2.5,14.9c0,0.2,0.1,0.4,0.1,0.6c0,0.4-0.2,0.8-0.5,1.1l-0.2,0.1c-0.6,1-1.1,2-1.4,3.1c-0.3,0.9-0.4,1.8-0.4,2.8
	c0,3.3,1.4,6.5,3.4,7.8c0.6,0.5,1.4,0.8,2.2,0.8c0.7,0,1.4-0.4,1.8-1c0.4-0.7,0.6-1.5,0.5-2.3v-0.3c0-0.6,0-1.5,0-2.5s0-2.2,0-3.3
	c0-1.6-0.1-3.2-0.5-4.8l0,0v-0.1l-0.1-0.2l0,0l0,0c-0.5-0.8-1.3-1.4-2.2-1.6c0-0.2,0-0.4,0-0.6c0-0.4,0-0.9,0.1-1.3
	c1.1-1,2.6-1.6,4.2-1.5l0,0c1,0,2.1,0.2,3,0.6c0,0,0.1,0,0.1,0.1c0.4,0.2,0.8,0.5,1.1,0.8c0.1,0.4,0.1,0.9,0.1,1.3
	c0,0.2,0,0.4,0,0.6c-0.9,0.2-1.7,0.8-2.2,1.6l0,0L47,66.7c0,0,0,0,0,0.1c-0.4,1.6-0.5,3.2-0.5,4.8c0,1.1,0,2.3,0,3.3s0,1.9,0,2.5
	v0.3c0,0.8,0.2,1.6,0.5,2.3c0.4,0.6,1.1,1,1.8,1c0.8,0,1.5-0.3,2.2-0.8c2-1.4,3.4-4.5,3.4-7.8c0-0.9-0.1-1.9-0.4-2.8
	c-0.3-1.1-0.8-2.1-1.5-3l-0.1-0.2C52.2,66,52,65.7,52,65.3c0-0.2,0-0.4,0.1-0.6c0.3-1.5,2-12,2.6-15.5v-0.1c0.3-0.2,0.7-0.3,1.1-0.3
	c0.5,0,0.9,0.1,1.3,0.4c0.7,0.4,1.2,1,1.3,1.8l-4,10.4l-0.3-0.1H54c-0.2,0-0.5,0.2-0.5,0.4c0,0.1,0,0.3,0.1,0.4
	c0.1,0.1,0.2,0.2,0.3,0.2c0.5,0.1,0.9,0.4,1.2,0.8c0.1,0.2,0.2,0.4,0.2,0.7c0,0.3-0.1,0.6-0.3,0.9l0,0l0,0c0,0.1-0.1,0.2,0,0.2l0,0
	V65c0.1,0.2,0.2,0.3,0.4,0.3h0.1c0.6,0,1.1,0.3,1.3,0.8c0.1,0.2,0.2,0.4,0.2,0.7c0,0.4-0.2,0.9-0.5,1.2c-0.1,0.1-0.2,0.2-0.2,0.4
	c0,0.1,0.1,0.3,0.2,0.4c0.4,0.3,0.6,0.7,0.7,1.2l0,0c0,0.5-0.3,1-0.8,1.3c-0.2,0.1-0.3,0.2-0.3,0.4c0,0.2,0.1,0.3,0.2,0.4
	c0.4,0.3,0.7,0.7,0.7,1.2l0,0c0,0.6-0.4,1.2-1,1.4c-0.2,0.1-0.4,0.4-0.3,0.6c0,0.1,0.1,0.1,0.1,0.2c0.3,0.3,0.4,0.6,0.4,1
	c0,0.2-0.1,0.5-0.2,0.7c-0.3,0.5-0.8,0.8-1.3,0.8c-0.3,0-0.5,0.2-0.5,0.5c0,0.1,0,0.2,0.1,0.2c0.1,0.2,0.2,0.5,0.2,0.7
	c0,0.3-0.1,0.7-0.3,0.9C53.9,80.7,53.5,81,53,81c-0.2,0-0.4,0-0.5-0.1c-0.1,0-0.1,0-0.2,0c-0.1,0-0.2,0-0.3,0.1
	c-0.1,0.1-0.2,0.3-0.2,0.4c0,0.1,0,0.1,0,0.2c0,0.4-0.1,0.8-0.4,1.1c-0.3,0.3-0.7,0.4-1.1,0.4c-0.4,0-0.8-0.2-1.1-0.5
	c-0.3-0.3-0.7-0.5-1.2-0.6c-0.4,0-0.9,0.2-1.1,0.6c-0.3,0.5-0.5,1.2-0.6,1.8c-0.4,4.1-0.6,8.3-0.6,12.4c0,0.2,0.1,0.3,0.2,0.4
	c0.5,0.3,0.9,0.8,0.9,1.4c0,0.6-0.4,1.2-0.9,1.5c-0.2,0.1-0.3,0.2-0.3,0.4v2.3L44.4,103z"/>
<path d="M96,62.4c0,3.9-2.6,6.3-6.9,6.3s-6.9-2.5-6.9-6.3V51.8h3.5V62c-0.1,1.9,1.3,3.5,3.2,3.6s3.5-1.3,3.6-3.2c0-0.1,0-0.2,0-0.4
	V51.8H96V62.4z"/>
<polygon points="113.4,68.6 104.3,59.9 103.2,59 103.2,68.4 99.8,68.4 99.8,51.6 99.9,51.6 109,60.3 110,61.2 110,51.8 113.5,51.8 
	113.5,68.6 "/>
<rect x="117.4" y="51.8" width="3.5" height="16.6"/>
<path d="M131.1,68.6H131l-8.2-16.8h3.9l2.2,4.8c0.9,1.9,1.6,3.5,2.2,5.2c0.5-1.2,1.5-3.5,2.2-5.2l2.1-4.8h3.9L131.1,68.6z"/>
<polygon points="141.1,68.4 141.1,51.8 151.8,51.8 151.8,54.8 144.7,54.8 144.7,58.6 150.7,58.6 150.7,61.4 144.7,61.4 144.7,65.4 
	152.1,65.4 152.1,68.4 "/>
<path d="M158.5,54.8v4.9h2.5c1.3,0.2,2.5-0.7,2.6-2c0-0.2,0-0.3,0-0.5c0-1.7-1.1-2.5-2.7-2.5L158.5,54.8z M160.9,51.8
	c3.8,0,6.4,1.9,6.4,5.4c0.1,2.1-1.2,4-3.1,4.7l3.5,6.4h-3.8l-2.9-5.8h-2.4v5.8H155V51.8L160.9,51.8z"/>
<path d="M169.6,67.8v-3.4c1.3,0.7,2.7,1.1,4.2,1.2c0.5,0,1,0,1.5-0.1c1.3-0.2,2-0.7,2-1.5c0-1.1-1-1.7-3.3-2.5
	c-2.9-1-4.6-2.3-4.6-5.2s2.4-4.8,6-4.8c1.5,0,3,0.3,4.3,0.8v3.3c-1.2-0.7-2.6-1-4-1c-1.7,0-2.8,0.7-2.8,1.7s0.9,1.6,3.1,2.5
	c2.9,1.1,4.7,2.3,4.7,5.1c0,3-2.3,4.8-6.2,4.8C172.9,68.7,171.3,68.4,169.6,67.8"/>
<rect x="183.5" y="51.8" width="3.5" height="16.6"/>
<polygon points="197.6,54.8 197.6,68.4 194,68.4 194,54.8 189.4,54.8 189.4,51.8 202.2,51.8 202.2,54.8 "/>
<polygon points="206.2,51.8 210,58.6 213.8,51.8 217.8,51.8 211.8,62 211.8,68.4 208.3,68.4 208.3,62 202.3,51.8 "/>
<path d="M90,87.7c3,0.1,5.5-2.1,5.6-5.1c0.1-3-2.1-5.5-5.1-5.6s-5.5,2.1-5.6,5.1c0,0.1,0,0.2,0,0.3c-0.1,2.8,2,5.2,4.9,5.4
	C89.9,87.7,90,87.7,90,87.7 M90,73.7c4.7,0,8.6,3.9,8.5,8.7s-3.9,8.6-8.7,8.5c-4.7,0-8.5-3.9-8.5-8.6c-0.1-4.7,3.7-8.5,8.4-8.6
	C89.8,73.7,89.9,73.7,90,73.7"/>
<polygon points="105.2,77.1 105.2,81 110.7,81 110.7,83.9 105.2,83.9 105.2,90.7 101.6,90.7 101.6,74.1 111.7,74.1 111.7,77.1 "/>
<polygon points="125.5,77.1 125.5,90.7 122,90.7 122,77.1 117.3,77.1 117.3,74.1 130.1,74.1 130.1,77.1 "/>
<path d="M146.1,84.6c0,3.9-2.6,6.3-6.9,6.3s-6.9-2.5-6.9-6.3V74.1h3.6v10.2c0,1.9,1.5,3.4,3.4,3.4c1.9,0,3.4-1.5,3.4-3.4V74.1h3.5
	L146.1,84.6z"/>
<path d="M153.3,77.1v5h2.5c1.6,0,2.6-0.8,2.6-2.5s-1.1-2.5-2.7-2.5L153.3,77.1z M155.7,74.1c3.8,0,6.4,1.9,6.4,5.4
	c0.1,2.1-1.2,4-3.1,4.7l3.5,6.4h-3.8l-2.9-5.8h-2.4v5.8h-3.5V74.1L155.7,74.1z"/>
<polygon points="168.8,81.9 175.2,74.1 179.4,74.1 173.5,81 179.5,90.7 175.5,90.7 171.1,83.3 168.8,86 168.8,90.7 165.2,90.7 
	165.2,74.1 168.8,74.1 "/>
<path d="M195.2,84.6c0,3.9-2.6,6.3-6.9,6.3s-6.9-2.5-6.9-6.3V74.1h3.6v10.2c0,1.9,1.5,3.4,3.4,3.4c1.9,0,3.4-1.5,3.4-3.4
	c0,0,0,0,0,0V74.1h3.6L195.2,84.6z"/>
</svg>
