<?xml version="1.0" encoding="utf-8"?>
<!-- Generator: Adobe Illustrator 25.0.1, SVG Export Plug-In . SVG Version: 6.00 Build 0)  -->
<svg version="1.0" id="Layer_1" xmlns="http://www.w3.org/2000/svg" xmlns:xlink="http://www.w3.org/1999/xlink" x="0px" y="0px"
	 viewBox="0 0 368 246" style="enable-background:new 0 0 368 246;" xml:space="preserve">
<style type="text/css">
	.st0{fill:#23408F;}
	.st1{fill:#4CC0AD;}
</style>
<path class="st0" d="M145.1,88.9h10.7v18h22.9v-18h10.7v18h22.9v-18h10.7v31.5h-19.3l-3.5,31.8h-32.1l-3.5-31.8h-19.3V88.9z
	 M157.6,128l3.5,31.8h45.7l3.5-31.8h20.1V81.3h-25.8v18h-7.8v-18h-25.8v18h-7.8v-18h-25.8V128H157.6z"/>
<polygon class="st1" points="226.7,42.7 221.5,37.5 221.1,38 199.2,59.8 204.4,65 "/>
<polygon class="st1" points="163.6,65 168.8,59.8 146.5,37.5 141.3,42.7 141.7,43.1 "/>
<polygon class="st1" points="187.5,27.7 180.2,27.7 180.2,28.4 180.2,59.3 187.5,59.3 "/>
<path class="st0" d="M145.6,213.9l-0.8,0.8h-3.6l-0.7-0.8v-8.4l0.8-0.8h3.5l0.8,0.8V213.9z M139.6,201.2l-3.1,3.1v10.9l3.1,3.1h6.9
	l3.1-3.1v-10.9l-3.1-3.1H139.6z"/>
<polygon class="st0" points="151.9,218.3 155.9,218.3 155.9,211.9 161.9,211.9 161.9,208.3 155.9,208.3 155.9,204.8 164,204.8 
	164,201.2 151.9,201.2 "/>
<path class="st0" d="M180.1,213.9l-0.8,0.8h-3.6l-0.7-0.8v-8.4l0.8-0.8h3.5l0.8,0.8V213.9z M174.1,201.2l-3.1,3.1v10.9l3.1,3.1h6.9
	l3.1-3.1v-10.9l-3.1-3.1H174.1z"/>
<polygon class="st0" points="205.8,201.2 201.8,201.2 201.8,218.3 212.9,218.3 212.9,214.7 205.8,214.7 "/>
<polygon class="st0" points="195.3,213.8 194.6,214.6 191,214.6 190.3,213.8 190.3,201.2 186.2,201.2 186.2,215.2 189.4,218.3 
	196.2,218.3 199.3,215.2 199.3,201.2 195.3,201.2 "/>
<polygon class="st0" points="223.4,213.8 222.7,214.6 219.2,214.6 218.4,213.8 218.4,201.2 214.4,201.2 214.4,215.2 217.5,218.3 
	224.4,218.3 227.5,215.2 227.5,201.2 223.4,201.2 "/>
<polygon class="st0" points="142,196.5 146.4,196.5 146.4,179.3 142.3,179.3 142.6,190.1 136.1,179.3 131.7,179.3 131.7,196.5 
	135.8,196.5 135.5,185.6 "/>
<rect x="148.8" y="179.3" class="st0" width="4" height="17.1"/>
<polygon class="st0" points="162,192.8 161.9,192.8 158.2,179.3 154.1,179.3 158.9,196.5 165.1,196.5 169.9,179.3 165.8,179.3 "/>
<polygon class="st0" points="183.7,182.9 183.7,179.3 171.1,179.3 171.1,196.5 183.7,196.5 183.7,192.8 175.1,192.8 175.1,189.6 
	181.7,189.6 181.7,185.9 175.1,185.9 175.1,182.9 "/>
<path class="st0" d="M195,186.2l-0.7,0.8h-4.3v-4h4.3l0.8,0.8V186.2z M199,187.4v-5l-3.1-3.1h-10v17.1h4v-5.9h2.3l3,5.9h4.3
	l-3.2-6.3L199,187.4z"/>
<polygon class="st0" points="205,185.3 205,183.7 205.7,182.9 213.2,182.9 213.2,179.3 204.1,179.3 200.9,182.4 200.9,186.4 
	202.7,188.6 209.5,190.5 209.5,192.1 208.8,192.8 200.6,192.8 200.6,196.5 210.4,196.5 213.6,193.3 213.6,189.3 211.8,187.2 "/>
<rect x="215.4" y="179.3" class="st0" width="4" height="17.1"/>
<polygon class="st0" points="221.1,182.9 225.9,182.9 225.9,196.5 230,196.5 230,182.9 234.8,182.9 234.8,179.3 221.1,179.3 "/>
<polygon class="st0" points="247.3,179.3 243.4,187.2 243.4,187.2 239.5,179.3 234.9,179.3 241.2,191.2 241.2,196.5 245.5,196.5 
	245.5,191.2 251.9,179.3 "/>
<polygon class="st0" points="125.2,191.9 124.5,192.7 120.9,192.7 120.2,191.9 120.2,179.3 116.2,179.3 116.2,193.3 119.3,196.5 
	126.1,196.5 129.3,193.3 129.3,179.3 125.2,179.3 "/>
</svg>
