<svg xmlns="http://www.w3.org/2000/svg" xmlns:xlink="http://www.w3.org/1999/xlink" width="158.453" height="40.396" viewBox="0 0 158.453 40.396">
  <defs>
    <clipPath id="clip-path">
      <rect id="Rectangle_1215" data-name="Rectangle 1215" width="158.453" height="40.396" fill="none"/>
    </clipPath>
  </defs>
  <g id="Group_491" data-name="Group 491" transform="translate(0 0.001)">
    <g id="Group_490" data-name="Group 490" transform="translate(0 -0.001)" clip-path="url(#clip-path)">
      <path id="Path_1361" data-name="Path 1361" d="M141.928,14.123a2.888,2.888,0,0,1-.79,2.109,2.726,2.726,0,0,1-3.537,0,2.888,2.888,0,0,1-.79-2.109,2.891,2.891,0,0,1,.79-2.109,2.726,2.726,0,0,1,3.537,0,2.891,2.891,0,0,1,.79,2.109m1.3,0a3.862,3.862,0,1,0-7.725,0,3.862,3.862,0,1,0,7.725,0m-8.748,3.567-.3-.977a3.279,3.279,0,0,1-1.055.187,1.559,1.559,0,0,1-1.178-.4,2.045,2.045,0,0,1-.388-1.52V11.533H134.2V10.462h-2.638V8.073h-1.241v2.389h-1.645v1.071h1.645v3.583a2.567,2.567,0,0,0,.651,2.172,2.8,2.8,0,0,0,1.986.714,3.778,3.778,0,0,0,1.52-.311m-6.454-1.876c0-3.257-4.932-1.52-4.932-3.444,0-.744.853-1.086,1.721-1.086a2.674,2.674,0,0,1,2.234.947l.808-.667a3.352,3.352,0,0,0-3.042-1.319c-1.86,0-2.962,1.024-2.962,2.141,0,3.118,4.932,1.442,4.932,3.428,0,.806-.931,1.148-1.924,1.148a3,3,0,0,1-2.389-1.009l-.76.73a3.6,3.6,0,0,0,3.1,1.319c2.157,0,3.211-1.071,3.211-2.187M120.2,10.462h-1.241v7.321H120.2Zm.187-2.389a.807.807,0,1,0-.806.806.8.8,0,0,0,.806-.806m-4.405,6.112a2.507,2.507,0,1,1-4.994-.016,2.548,2.548,0,0,1,2.559-2.793c1.3,0,2.435.776,2.435,2.808m1.3-.062c0-2.963-2-3.878-3.521-3.878a3.246,3.246,0,0,0-2.746,1.288l-.03-1.071h-1.21V20.668h1.241V16.838A2.853,2.853,0,0,0,113.527,18a3.689,3.689,0,0,0,3.754-3.878m-10.176,0a2.888,2.888,0,0,1-.79,2.109,2.726,2.726,0,0,1-3.537,0,2.883,2.883,0,0,1-.792-2.109,2.885,2.885,0,0,1,.792-2.109,2.726,2.726,0,0,1,3.537,0,2.891,2.891,0,0,1,.79,2.109m1.3,0a3.862,3.862,0,1,0-7.725,0,3.862,3.862,0,1,0,7.725,0m-9.4-3.661H97.768v7.321h1.241ZM99.2,8.073a.807.807,0,1,0-.806.806.8.8,0,0,0,.806-.806m-3.474-.806H94.48V17.783h1.241Zm-2.358,3.2H92.076l-2.513,5.895L87.1,10.462H85.762l3.149,7.321-.156.475c-.279.667-.621,1.116-1.349,1.116a1.739,1.739,0,0,1-.637-.107l-.326.992a2.72,2.72,0,0,0,1.07.219,2.218,2.218,0,0,0,2.2-1.521ZM81.17,17.783V13.534a3.47,3.47,0,0,0-.76-2.5,2.6,2.6,0,0,0-1.985-.792A2.922,2.922,0,0,0,75.9,11.517l-.03-1.055h-1.18v7.321h1.241V14.526A3.272,3.272,0,0,1,76.594,12a2.147,2.147,0,0,1,1.474-.589,1.814,1.814,0,0,1,1.4.481A2.485,2.485,0,0,1,79.93,13.7v4.078Zm-9.649-3.521a2.378,2.378,0,0,1-.589,1.954,2.453,2.453,0,0,1-1.768.651c-.776,0-1.49-.34-1.49-1.225,0-1.319,1.427-1.381,2.421-1.381Zm1.21,3.521V13.8c0-1.194-.03-2.033-.728-2.746a3.114,3.114,0,0,0-2.3-.806A3.687,3.687,0,0,0,66.621,11.7l.806.683a2.871,2.871,0,0,1,2.187-1.055,2.1,2.1,0,0,1,1.458.45c.358.358.449.651.449,1.443H70a4.163,4.163,0,0,0-2.994.837,2.09,2.09,0,0,0-.605,1.566,2.317,2.317,0,0,0,2.6,2.342,2.865,2.865,0,0,0,2.545-1.209l.032,1.022ZM65.1,15.814c0-3.257-4.934-1.52-4.934-3.444,0-.744.854-1.086,1.723-1.086a2.677,2.677,0,0,1,2.234.947l.806-.667a3.345,3.345,0,0,0-3.04-1.319c-1.862,0-2.963,1.024-2.963,2.141,0,3.118,4.934,1.442,4.934,3.428,0,.806-.931,1.148-1.924,1.148a3,3,0,0,1-2.389-1.009l-.76.73A3.6,3.6,0,0,0,61.89,18c2.156,0,3.211-1.071,3.211-2.187m-8.949-1.552a2.374,2.374,0,0,1-.591,1.954,2.453,2.453,0,0,1-1.768.651c-.776,0-1.49-.34-1.49-1.225,0-1.319,1.427-1.381,2.421-1.381Zm1.209,3.521V13.8c0-1.194-.03-2.033-.728-2.746a3.116,3.116,0,0,0-2.3-.806A3.691,3.691,0,0,0,51.249,11.7l.808.683a2.867,2.867,0,0,1,2.186-1.055,2.1,2.1,0,0,1,1.459.45c.356.358.45.651.45,1.443H54.63a4.166,4.166,0,0,0-2.994.837,2.1,2.1,0,0,0-.6,1.566,2.317,2.317,0,0,0,2.606,2.342,2.869,2.869,0,0,0,2.544-1.209l.03,1.022Zm-9.12-3.521a2.378,2.378,0,0,1-.589,1.954,2.457,2.457,0,0,1-1.769.651c-.775,0-1.488-.34-1.488-1.225,0-1.319,1.426-1.381,2.419-1.381Zm1.21,3.521V13.8c0-1.194-.032-2.033-.73-2.746a3.114,3.114,0,0,0-2.3-.806A3.689,3.689,0,0,0,43.338,11.7l.806.683a2.871,2.871,0,0,1,2.187-1.055,2.1,2.1,0,0,1,1.458.45c.358.358.45.651.45,1.443H46.72a4.163,4.163,0,0,0-2.994.837,2.09,2.09,0,0,0-.605,1.566,2.318,2.318,0,0,0,2.606,2.342,2.864,2.864,0,0,0,2.544-1.209l.032,1.022ZM43.835,7.267H42.454l-3.5,8.981L35.427,7.267H34L38.22,17.783h1.4Z" transform="translate(15.221 3.254)" fill="#fff"/>
      <path id="Path_1362" data-name="Path 1362" d="M15.108,15.889,11.038,11.82l4.069-4.069" transform="translate(4.941 3.47)" fill="#fdc100" fill-rule="evenodd"/>
      <path id="Path_1363" data-name="Path 1363" d="M7.265,15.889l4.069-4.069L7.265,7.751" transform="translate(3.252 3.47)" fill="#fdc100" fill-rule="evenodd"/>
      <path id="Path_1364" data-name="Path 1364" d="M7.746,7.268l4.069,4.069,4.069-4.069" transform="translate(3.467 3.254)" fill="#fdc100" fill-rule="evenodd"/>
      <path id="Path_1365" data-name="Path 1365" d="M7.746,15.112l4.069-4.069,4.069,4.069" transform="translate(3.467 4.944)" fill="#ffda00" fill-rule="evenodd"/>
      <path id="Path_1366" data-name="Path 1366" d="M22.372,15.89,18.3,11.82l4.069-4.069" transform="translate(8.193 3.471)" fill="#fdc100" fill-rule="evenodd"/>
      <path id="Path_1367" data-name="Path 1367" d="M14.529,15.89,18.6,11.82,14.529,7.751" transform="translate(6.504 3.471)" fill="#f7a600" fill-rule="evenodd"/>
      <path id="Path_1368" data-name="Path 1368" d="M15.01,7.269l4.069,4.069,4.069-4.069" transform="translate(6.719 3.255)" fill="#fdc100" fill-rule="evenodd"/>
      <path id="Path_1369" data-name="Path 1369" d="M15.01,15.113l4.069-4.069,4.069,4.069" transform="translate(6.719 4.944)" fill="#fdc100" fill-rule="evenodd"/>
      <path id="Path_1370" data-name="Path 1370" d="M29.637,15.89l-4.069-4.069,4.069-4.069" transform="translate(11.446 3.471)" fill="#fdc100" fill-rule="evenodd"/>
      <path id="Path_1371" data-name="Path 1371" d="M21.794,15.89l4.069-4.069L21.794,7.751" transform="translate(9.757 3.471)" fill="#fdc100" fill-rule="evenodd"/>
      <path id="Path_1372" data-name="Path 1372" d="M22.275,7.269l4.069,4.069,4.069-4.069" transform="translate(9.972 3.255)" fill="#fdc100" fill-rule="evenodd"/>
      <path id="Path_1373" data-name="Path 1373" d="M22.275,15.113l4.069-4.069,4.069,4.069" transform="translate(9.972 4.945)" fill="#fdc100" fill-rule="evenodd"/>
      <path id="Path_1374" data-name="Path 1374" d="M7.843,15.89,3.773,11.82,7.843,7.751" transform="translate(1.689 3.471)" fill="#fdc100" fill-rule="evenodd"/>
      <path id="Path_1375" data-name="Path 1375" d="M0,15.89,4.069,11.82,0,7.751" transform="translate(0 3.471)" fill="#fdc100" fill-rule="evenodd"/>
      <path id="Path_1376" data-name="Path 1376" d="M.481,7.269,4.55,11.338,8.619,7.269" transform="translate(0.215 3.255)" fill="#f7a600" fill-rule="evenodd"/>
      <path id="Path_1377" data-name="Path 1377" d="M.481,15.113,4.55,11.043l4.069,4.069" transform="translate(0.215 4.944)" fill="#fdc100" fill-rule="evenodd"/>
      <path id="Path_1378" data-name="Path 1378" d="M7.264,8.622l4.069-4.069L7.264.483" transform="translate(3.252 0.217)" fill="#fdc100" fill-rule="evenodd"/>
      <path id="Path_1379" data-name="Path 1379" d="M7.745,7.845l4.069-4.069,4.069,4.069" transform="translate(3.467 1.691)" fill="#ffda00" fill-rule="evenodd"/>
      <path id="Path_1380" data-name="Path 1380" d="M22.372,8.622,18.3,4.553,22.372.483" transform="translate(8.194 0.217)" fill="#fdc100" fill-rule="evenodd"/>
      <path id="Path_1381" data-name="Path 1381" d="M14.529,8.622,18.6,4.553,14.529.483" transform="translate(6.504 0.217)" fill="#fdc100" fill-rule="evenodd"/>
      <path id="Path_1382" data-name="Path 1382" d="M15.01,0,19.079,4.07,23.149,0" transform="translate(6.72 0.001)" fill="#ffda00" fill-rule="evenodd"/>
      <path id="Path_1383" data-name="Path 1383" d="M15.01,7.845l4.069-4.069,4.069,4.069" transform="translate(6.72 1.691)" fill="#fdc100" fill-rule="evenodd"/>
      <path id="Path_1384" data-name="Path 1384" d="M21.795,8.622l4.069-4.069L21.795.483" transform="translate(9.757 0.217)" fill="#fdc100" fill-rule="evenodd"/>
      <path id="Path_1385" data-name="Path 1385" d="M22.275,7.845l4.069-4.069,4.069,4.069" transform="translate(9.972 1.691)" fill="#f7a600" fill-rule="evenodd"/>
      <path id="Path_1386" data-name="Path 1386" d="M7.842,8.622,3.773,4.553,7.842.484" transform="translate(1.689 0.217)" fill="#fdc100" fill-rule="evenodd"/>
      <path id="Path_1387" data-name="Path 1387" d="M.48,7.846,4.55,3.776,8.619,7.846" transform="translate(0.215 1.691)" fill="#fdc100" fill-rule="evenodd"/>
      <path id="Path_1388" data-name="Path 1388" d="M15.107,23.155l-4.069-4.069,4.069-4.069" transform="translate(4.941 6.723)" fill="#ffda00" fill-rule="evenodd"/>
      <path id="Path_1389" data-name="Path 1389" d="M7.264,23.155l4.069-4.069L7.264,15.016" transform="translate(3.252 6.723)" fill="#fdc100" fill-rule="evenodd"/>
      <path id="Path_1390" data-name="Path 1390" d="M7.745,14.534,11.814,18.6l4.069-4.069" transform="translate(3.467 6.507)" fill="#fdc100" fill-rule="evenodd"/>
      <path id="Path_1391" data-name="Path 1391" d="M7.745,22.378l4.069-4.069,4.069,4.069" transform="translate(3.467 8.197)" fill="#fdc100" fill-rule="evenodd"/>
      <path id="Path_1392" data-name="Path 1392" d="M22.372,23.155,18.3,19.086l4.069-4.069" transform="translate(8.193 6.723)" fill="#f7a600" fill-rule="evenodd"/>
      <path id="Path_1393" data-name="Path 1393" d="M14.529,23.155,18.6,19.086l-4.069-4.069" transform="translate(6.504 6.723)" fill="#fdc100" fill-rule="evenodd"/>
      <path id="Path_1394" data-name="Path 1394" d="M15.009,14.534,19.079,18.6l4.069-4.069" transform="translate(6.719 6.507)" fill="#fdc100" fill-rule="evenodd"/>
      <path id="Path_1395" data-name="Path 1395" d="M15.009,22.378l4.069-4.069,4.069,4.069" transform="translate(6.719 8.197)" fill="#fdc100" fill-rule="evenodd"/>
      <path id="Path_1396" data-name="Path 1396" d="M21.795,23.155l4.069-4.069-4.069-4.069" transform="translate(9.757 6.723)" fill="#fdc100" fill-rule="evenodd"/>
      <path id="Path_1397" data-name="Path 1397" d="M22.275,14.534,26.345,18.6l4.069-4.069" transform="translate(9.972 6.507)" fill="#fdc100" fill-rule="evenodd"/>
      <path id="Path_1398" data-name="Path 1398" d="M7.842,23.155,3.773,19.086l4.069-4.069" transform="translate(1.689 6.723)" fill="#fdc100" fill-rule="evenodd"/>
      <path id="Path_1399" data-name="Path 1399" d="M.48,14.534,4.55,18.6l4.069-4.069" transform="translate(0.215 6.507)" fill="#fdc100" fill-rule="evenodd"/>
      <path id="Path_1400" data-name="Path 1400" d="M15.107,30.421l-4.069-4.069,4.069-4.071" transform="translate(4.941 9.975)" fill="#fdc100" fill-rule="evenodd"/>
      <path id="Path_1401" data-name="Path 1401" d="M7.745,21.8l4.069,4.069L15.884,21.8" transform="translate(3.467 9.76)" fill="#fdc100" fill-rule="evenodd"/>
      <path id="Path_1402" data-name="Path 1402" d="M14.528,30.421,18.6,26.352l-4.069-4.069" transform="translate(6.504 9.976)" fill="#f7a600" fill-rule="evenodd"/>
      <path id="Path_1403" data-name="Path 1403" d="M15.009,21.8l4.069,4.069L23.148,21.8" transform="translate(6.719 9.76)" fill="#fdc100" fill-rule="evenodd"/>
      <path id="Path_1404" data-name="Path 1404" d="M107.208,20.378h-1.956l.979-2.4Zm1.365,1.773-1.983-4.769h-.7L103.9,22.152h.625l.514-1.267h2.37l.514,1.267Zm-5.007-1.3c0-1.907-3.031-.964-3.031-2.271,0-.528.449-.795,1.132-.795a1.728,1.728,0,0,1,1.442.689l.408-.324a2.02,2.02,0,0,0-1.85-.879c-1.139,0-1.75.647-1.75,1.323,0,1.869,3.03,1.019,3.03,2.264,0,.583-.5.886-1.273.886a1.7,1.7,0,0,1-1.484-.731l-.423.33a2.11,2.11,0,0,0,1.914.921c1.16,0,1.885-.534,1.885-1.413m-5.416-.472H96.2l.977-2.4Zm1.365,1.773-1.983-4.769h-.7l-1.983,4.769h.625l.514-1.267h2.37l.514,1.267Zm-6.2-1.773H91.356l.979-2.4Zm1.365,1.773-1.983-4.769h-.7l-1.983,4.769h.625l.514-1.267h2.37l.514,1.267ZM90.3,17.383h-.625l-1.59,4.071-1.6-4.071h-.647l1.914,4.769h.633Zm-6.329.512v-.512H80.724v4.769h.591V19.979H83.8v-.507H81.315V17.9Zm-4.754,1.872a1.777,1.777,0,1,1-3.531,0,1.777,1.777,0,1,1,3.531,0m.62,0a2.387,2.387,0,1,0-4.769,0,2.387,2.387,0,1,0,4.769,0M73.03,17.383h-.66l-1.38,2.151L69.6,17.383H68.91l1.757,2.672v2.1h.592v-2.1Zm-4.289.512v-.512H64.859V17.9h1.646v4.256H67.1V17.9Zm-4.514-.512h-.591v4.769h.591ZM62.665,20.85c0-1.907-3.031-.964-3.031-2.271,0-.528.45-.795,1.134-.795a1.731,1.731,0,0,1,1.442.689l.407-.324a2.017,2.017,0,0,0-1.849-.879c-1.139,0-1.752.647-1.752,1.323,0,1.869,3.031,1.019,3.031,2.264,0,.583-.5.886-1.272.886a1.7,1.7,0,0,1-1.484-.731l-.423.33a2.109,2.109,0,0,0,1.912.921c1.161,0,1.885-.534,1.885-1.413M57.63,18.768c0,.851-.788.9-1.5.9h-.951V17.875h1a1.729,1.729,0,0,1,1.238.3.773.773,0,0,1,.211.591m.858,3.383L57,20.1a1.405,1.405,0,0,0,1.216-1.364,1.31,1.31,0,0,0-.387-.95,2.05,2.05,0,0,0-1.533-.408h-1.71v4.769h.591V20.161h1.176l1.427,1.991Zm-4.782,0V21.63H50.879V19.979h2.567v-.507H50.879V17.9h2.742v-.512H50.289v4.769Zm-4.052-4.769h-.625l-1.59,4.071-1.6-4.071H45.2l1.914,4.769h.633Zm-5.091,0h-.591v4.769h.591Zm-1.688,4.769V17.383h-.547V21.2L39.57,17.383h-.6v4.769h.547V18.3L42.3,22.152Zm-4.964-1.991V17.383H37.32v2.785a1.528,1.528,0,0,1-.366,1.2,1.386,1.386,0,0,1-1,.35,1.4,1.4,0,0,1-1-.372,1.656,1.656,0,0,1-.366-1.272V17.383H34v2.758a2.023,2.023,0,0,0,.485,1.546,2.2,2.2,0,0,0,2.94,0,1.918,1.918,0,0,0,.485-1.526" transform="translate(15.221 7.732)" fill="#fff"/>
    </g>
  </g>
</svg>
