<svg width="1439" height="720" viewBox="0 0 1439 720" fill="none" xmlns="http://www.w3.org/2000/svg">
<path fill-rule="evenodd" clip-rule="evenodd" d="M719.488 495.066C446.071 495.066 224.422 273.417 224.422 -4.23327e-05L350.87 -3.12783e-05C350.87 203.582 515.906 368.618 719.488 368.618C923.07 368.618 1088.11 203.582 1088.11 0.000110351L1214.55 0.000121405C1214.55 273.418 992.905 495.066 719.488 495.066Z" fill="#F5F5F5"/>
<path fill-rule="evenodd" clip-rule="evenodd" d="M719.488 719.488C322.126 719.488 3.13312e-05 397.362 0.000100808 -6.19523e-05L126.448 -5.08979e-05C126.448 327.527 391.961 593.04 719.488 593.04C1047.01 593.04 1312.53 327.527 1312.53 0.000207148L1438.98 0.000218202C1438.98 397.362 1116.85 719.488 719.488 719.488Z" fill="#F5F5F5"/>
<path fill-rule="evenodd" clip-rule="evenodd" d="M719.488 280.845C564.381 280.845 438.643 155.106 438.643 -2.36049e-05L565.09 -1.25505e-05C565.09 85.2713 634.217 154.397 719.488 154.397C804.759 154.397 873.885 85.2714 873.885 9.16228e-05L1000.33 0.000102677C1000.33 155.107 874.594 280.845 719.488 280.845Z" fill="#F5F5F5"/>
</svg>
