<?xml version="1.0" encoding="UTF-8"?>
<svg id="Layer_1" xmlns="http://www.w3.org/2000/svg" version="1.1" viewBox="0 0 141.71 106.47">
  <!-- Generator: Adobe Illustrator 29.0.1, SVG Export Plug-In . SVG Version: 2.1.0 Build 192)  -->
  <defs>
    <style>
      .st0 {
        fill: #fff;
      }

      .st1 {
        fill: #111821;
      }

      .st2 {
        fill: #f12535;
      }

      .st3 {
        fill: #131a22;
      }

      .st4 {
        fill: #131a23;
      }

      .st5 {
        fill: #121922;
      }

      .st6 {
        fill: #131922;
      }

      .st7 {
        fill: #fefefe;
      }

      .st8 {
        fill: #fdfefe;
      }

      .st9 {
        fill: #fcfdfd;
      }
    </style>
  </defs>
  <path class="st1" d="M86.35,63.53v6.39c0,.55.77,1.28,1.33,1.39,1.04.19,4.61.14,5.75.03.35-.03.75-.1.84-.51-1.35-1.07-2.52-2.4-3.27-3.96,2.84-2.48,7.34-2.52,10.16.01-.72,1.57-1.94,2.87-3.27,3.95-.05.2.36.44.53.48l6.14.02c-.21-2.58,1.46-4.71,4.13-4.68,4.8.04,5.44,7.08,1.17,8.23-2.05.55-3.9-.23-4.9-2.07-.2.41-.46.6-.92.67-1.2.17-5.31.12-6.38-.27-.61-.22-1.06-.65-1.63-.95-.43.36-.94.71-1.47.91-1.28.49-5.75.45-7.25.3s-2.68-1.08-3.13-2.59c-1.14,1.27-2.5,1.63-4.08.85-2.65-1.31-2.69-6.39-.19-7.77.13-.07.99-.43,1.04-.43h5.38Z"/>
  <path class="st1" d="M42.21,68.17c1.59-1.87,3.34-3.17,5.94-2.94,3.11.28,3.97,3.37,4.02,6.04,0,.29-.05,2.21-.29,2.21h-11.2c-.18,0-.39-.66-.45-.68-.2-.05-.2.23-.42.37-.24.15-.65.28-.93.31-.98.11-3.79.12-4.74-.01-.7-.1-.8-.64-.92-.67s-.42.31-.62.4c-1.06.47-4.16.37-5.21-.12-.57-.26-.79-.63-1.19-1.07-.58,1.49-1.24,2.72-2.67,3.55-3.54,2.07-8.4.32-9.35-3.76-.2-.86-.1-2.2-.31-2.85-.13-.41-.59-.38-.63-.79h2.66s.17.16.17.17v2.71c0,.1.35,1.1.43,1.26,1.28,2.7,5.56,2.87,7.26.54.12-.16.57-1.01.57-1.13v-5.03h1.87c.27,0,.04.84.05,1.08.06,1.29.6,2.79,1.86,3.35.57.26,2.99.32,3.62.18s.83-.93.88-1.5c.06-.75.09-3.16-.21-3.76-.21-.43-.66-.38-.59-.82h2.83v4.8c0,.32-.3.95-.34,1.3h5.88v-8.31c0-.07-.26-.59-.34-.68-.16-.21-.44-.26-.46-.28-.06-.09.11-.34.17-.34h2.49s.17.16.17.17v6.27Z"/>
  <polygon class="st2" points="90.76 46.35 73 28.66 77.34 24.43 90.76 37.7 90.76 46.35"/>
  <polygon class="st1" points="56.81 51.89 74.41 34.26 78.65 38.49 65.24 51.89 56.81 51.89"/>
  <polygon class="st2" points="51.27 17.97 68.92 35.55 64.58 39.78 51.27 26.51 51.27 17.97"/>
  <polygon class="st1" points="85.1 12.44 67.72 29.95 63.38 25.72 76.56 12.44 85.1 12.44"/>
  <path class="st1" d="M61.68,71.33h4.24c.62,0,.82-1.3.85-1.75.05-.64-.04-3.21-.3-3.67-.14-.25-.51-.36-.5-.69h2.72v5.94c0,.06-.26.82-.32.93-.29.58-1.06,1.14-1.69,1.25s-3.89.14-4.5.02c-.3-.06-.37-.34-.62-.45-.24,1.35-1.24,2.56-2.47,3.13-.35.16-1.33.49-1.66.49h-2.32v-1.58h2.21c.54,0,2.23-.82,2.09-1.58h-2.55c-.08,0-1.01-.45-1.15-.54-2.2-1.34-2.6-4.94-.6-6.64,2.51-2.13,6.56-.59,6.56,2.83v2.32Z"/>
  <path class="st1" d="M116.56,61.84v7.97c0,.55.57,1.53,1.19,1.53h9v-3.11c0-.32-.75-.96-1.08-.96h-4.36v-2.03h4.81c1.23,0,2.77,1.91,2.77,3.11v4.97s-.16.17-.17.17h-11.43c-.05,0-.71-.16-.83-.19-.54-.17-1.05-.55-1.36-1.02-1.23-1.85-.23-6.9-.59-9.24-.03-.2-.16-.46-.28-.62-.2-.27-.52-.26-.5-.57h2.83Z"/>
  <path class="st2" d="M85.22,51.89h-8.54c-.38-.49-3.6-3.41-3.56-3.66l4.24-4.25,7.87,7.91Z"/>
  <path class="st1" d="M90.76,17.86v8.54c-.49.38-3.41,3.6-3.66,3.55l-4.15-4.23,7.81-7.86Z"/>
  <polygon class="st2" points="56.81 12.44 65.36 12.44 68.92 15.88 64.56 20.23 56.81 12.44"/>
  <polygon class="st1" points="51.27 46.24 51.27 37.7 54.83 34.26 59.07 38.49 51.27 46.24"/>
  <path class="st1" d="M39.27,82.75h4.7c.73,0,2.21.81,2.72,1.35,2.63,2.79.5,7.35-3.28,7.35h-3.28s-.17-.16-.17-.17v-7.57c0-.45-.67-.61-.68-.96Z"/>
  <path class="st1" d="M76.16,82.75v5.94s.26.62.32.7c.67,1.06,2.56,1.07,3.24.03.06-.09.29-.57.29-.62v-6.05h1.81v5.48c0,.68-.48,1.93-.96,2.43-1.18,1.2-4.01,1.23-5.3.21-1.94-1.53-.9-4.96-1.21-7.04-.09-.58-.49-.62-.67-1.08h2.49Z"/>
  <path class="st1" d="M22.63,91.46h-1.75c-.24,0-.8-1.78-.95-2.08-.14-.18-3.02-.02-3.5-.05-.15.32-.62,1.96-.8,2.08-.25.17-1.23-.01-1.59.05-.02-.16.02-.3.06-.45.56-2.11,2.41-4.82,2.84-6.89.05-.23.1-.49.03-.72-.09-.3-.58-.28-.55-.64h2.55l3.68,8.7Z"/>
  <path class="st1" d="M24.67,85.69c2.62-1.47,4.74.96,3.99,3.59-.67,2.36-3.72,2.83-5.64,1.72l-.05-7.18c-.02-.2-.09-.42-.2-.59-.16-.25-.42-.18-.37-.48h2.09s.17.16.17.17v2.77Z"/>
  <path class="st1" d="M62.81,82.75v2.94c.35-.09.64-.33,1.01-.4,2.46-.46,3.71,2.14,2.98,4.22s-3.73,2.59-5.52,1.5c-.27-2.24.17-4.74-.06-6.95-.02-.19-.07-.48-.14-.65-.12-.27-.43-.35-.42-.65h2.15Z"/>
  <path class="st1" d="M50.36,82.75v3.17c.83-.73,2.29-.93,3.16-.16,1.16,1.03.53,4.08.67,5.52-.12.36-1.24.12-1.57.19v-4.13c0-1.03-2.1-1.16-2.27.22-.11.92.21,3.03-.01,3.72-.12.36-1.24.12-1.57.19v-7.63c0-.28-.33-.73-.56-.91v-.17s2.15,0,2.15,0Z"/>
  <path class="st1" d="M70.62,73.48v-10.46c0-.07-.26-.59-.34-.68-.16-.21-.44-.26-.46-.28-.06-.09.11-.34.17-.34h2.49s.17.16.17.17v11.42s-.16.17-.17.17h-1.87Z"/>
  <path class="st1" d="M124.15,85.46c.47.95.84,2.09,1.34,3.02.04.08.17.31.25.26.38-.57,1.04-2.83,1.41-3.17.29-.26,1.23-.04,1.64-.11l-3.74,8.53c-.26.36-1.26.1-1.69.18l1.45-3.43-2.22-4.45-.7-.83h2.26Z"/>
  <path class="st1" d="M104.12,88.74h-3.96c-.03,1.9,2.32,1.84,3.51,1.02.09.58.53,1.02-.15,1.38-2.04,1.1-4.86.17-5.06-2.33-.38-4.64,6.26-4.81,5.66-.06Z"/>
  <path class="st1" d="M88.5,91.46h-1.58v-4.24c0-.48-.78-.67-1.19-.62-.29.03-1.07.55-1.07.74v4.13c-.33-.07-1.45.17-1.57-.19-.22-1.09.31-4.58-.19-5.35-.16-.24-.46-.13-.39-.46h2.04s-.07.51.06.56c.85-.89,2.65-1.08,3.45-.06.1.13.45.8.45.9v4.58Z"/>
  <path class="st1" d="M31.23,85.46v4.01c0,.32.52.81.86.85s1.29-.4,1.29-.73v-4.13h1.58l.11,5.99c-.74-.1-1.68.38-1.64-.68-.88,1.05-2.89,1.13-3.51-.23-.58-1.28.04-3.87-.46-4.63-.16-.24-.46-.13-.39-.46h2.15Z"/>
  <path class="st1" d="M59.87,90.44l.67-.11c.18.89-.23,1.21-1.08,1.23-.65.02-1.03-.52-1.12-.53-.11,0-.44.3-.63.37-2.55.92-4.02-2.37-.94-3.42.23-.08,1.38-.24,1.39-.31.3-1.66-2.08-1.12-2.72-.28.06-.32-.11-1.23.02-1.45.16-.28,1.71-.68,2.07-.68,3.17,0,1.88,3.2,2.32,5.17Z"/>
  <path class="st1" d="M113.51,87.05c-.07.08-1.38-.86-2.07-.43-.96.6,1.1,1.22,1.45,1.45.47.3.78.6.85,1.19.23,1.87-1.35,2.51-2.97,2.29-1.43-.19-1.26-.59-1.22-1.89.59.27,1.07.65,1.76.68.53.02,1.21-.24.85-.86-.44-.75-2.57-.7-2.59-2.37s1.94-2.07,3.26-1.7c1.03.29.6.74.67,1.64Z"/>
  <path class="st1" d="M94.16,85.46l1.41,3.62,1.24-3.51c.2-.24,1.18-.05,1.53-.11l-2.2,5.88c-.15.18-1.09.18-1.25,0l-2.18-5.17-.7-.71h2.15Z"/>
  <path class="st1" d="M119.73,85.46h1.81v1.24h-1.81v3c0,.06.26.39.34.45.7.49,1.6-.27,1.69-.17.07.99.07,1.39-.99,1.55-.65.1-1.72,0-2.18-.51-.84-.95-.27-4.14-.45-4.32-.07-.07-.92.19-.91-.28,0-.32,2.08-2.09,2.44-2.43l.06,1.47Z"/>
  <path class="st1" d="M106.61,85.46s-.03.64,0,.79c.27-.21.42-.61.75-.78.41-.22,1.71-.24,1.96.11.1.14-.34,1.08-.33,1.34-3.18-1.18-2.02,2.63-2.31,4.42-.16.23-1.21.05-1.53.11v-4.92c0-.4-.39-.83-.68-1.07.3.06,2.07-.08,2.15,0Z"/>
  <path class="st5" d="M69.49,85.46v5.82c0,.28-1.34.14-1.58.17v-4.69c0-.46-.38-.97-.68-1.3h2.26Z"/>
  <path class="st5" d="M116.45,85.46v5.99h-1.58v-5.03s-.23-.54-.29-.62c-.1-.13-.38-.03-.28-.34h2.15Z"/>
  <path class="st5" d="M91.55,85.46v5.99h-1.58v-5.14s-.24-.44-.29-.51c-.11-.14-.37-.04-.28-.34h2.15Z"/>
  <path class="st6" d="M69.83,60.82c-.01-.77-.18-.87.68-.79-.73-1.71,1.66-3.11,2.37-1.26-.73.51-.58.03-.89-.06-.95-.25-1,1.13-.5,1.29.24.08,1.12-.04,1.17.02v.79h-2.83Z"/>
  <path class="st3" d="M33.57,75.32c1.23-.06,1.33,1.8.32,2-1.66.32-1.72-1.93-.32-2Z"/>
  <path class="st4" d="M18.84,78.4c1.37.04,1.32,2.3-.34,1.98-1.02-.2-.89-2.01.34-1.98Z"/>
  <path class="st6" d="M84.84,60.05c1.59-.36,1.72,1.86.4,1.99-1.2.12-1.46-1.75-.4-1.99Z"/>
  <path class="st6" d="M82.13,60.05c1.59-.36,1.72,1.86.4,1.99-1.2.12-1.46-1.75-.4-1.99Z"/>
  <path class="st3" d="M21.56,78.4c1.39.04,1.28,2.29-.34,1.98-1.02-.2-.89-2.01.34-1.98Z"/>
  <path class="st3" d="M124.34,77.06c-.93,1.02-2.51-.58-1.43-1.49.9-.75,2.29.55,1.43,1.49Z"/>
  <path class="st5" d="M46.71,61.64c1.65-.37,1.75,1.95.31,1.95-1.18,0-1.3-1.73-.31-1.95Z"/>
  <path class="st5" d="M67.42,75.43c1.63-.37,1.7,1.95.32,1.95-1.18,0-1.3-1.73-.32-1.95Z"/>
  <path class="st4" d="M68.32,82.89c1.3-.3,1.52,1.38.63,1.65-1.35.4-1.73-1.4-.63-1.65Z"/>
  <path class="st6" d="M90.39,82.89c1.62-.37,1.62,2.01,0,1.65-.75-.17-.74-1.48,0-1.65Z"/>
  <path class="st6" d="M115.29,82.89c1.6-.36,1.6,2.01,0,1.65-.75-.17-.74-1.48,0-1.65Z"/>
  <path class="st0" d="M84.2,65.23v3c0,.57-.81,1.7-1.39,1.89-2.8.92-3.68-3.85-1.41-4.69.11-.04.65-.2.7-.2h2.09Z"/>
  <path class="st0" d="M108.16,68.53c2.91-.54,3.21,4.17.97,4.58-2.9.53-3.21-4.16-.97-4.58Z"/>
  <path class="st0" d="M98.57,67.38c.12.18-.56.97-.73,1.13-.24.23-1.46,1.08-1.72,1.1-.49.04-2.53-1.63-2.53-2.17,1.22-.72,2.61-.84,3.96-.46.14.04.98.36,1.01.4Z"/>
  <path class="st0" d="M50.02,71.33h-8.04c1.02-2.1,3.29-4.74,5.89-4.24,1.84.35,2.29,2.66,2.15,4.24Z"/>
  <path class="st0" d="M59.64,71.33h-2.32c-.17,0-.83-.56-.96-.74-1.3-1.72.25-4.33,2.23-3.36.49.24,1.05,1.13,1.05,1.66v2.43Z"/>
  <path class="st0" d="M41.76,90.1v-5.99h1.75c.09,0,.86.28,1,.36,1.52.81,1.81,3.27.75,4.56-.86,1.04-2.25,1.11-3.51,1.08Z"/>
  <path class="st7" d="M19.35,88.06h-2.38c.37-.94.59-1.97,1.01-2.89.05-.11.07-.27.23-.28l1.13,3.17Z"/>
  <path class="st0" d="M24.68,90.2c-.11-.12-.03-3.11.04-3.27.08-.17.39-.3.57-.33,2.45-.41,2.45,3.71.11,3.73-.11,0-.7-.1-.72-.13Z"/>
  <path class="st0" d="M62.81,90.21v-3.22c0-.36,1.71-.79,2.29.32.85,1.64-.41,3.55-2.29,2.91Z"/>
  <path class="st8" d="M102.53,87.61h-2.38c.18-1.49,2.35-1.58,2.38,0Z"/>
  <path class="st9" d="M58.17,88.63c-.04.69.29,1.8-.74,1.79-1.65-.01-.62-2.01.74-1.79Z"/>
</svg>