<svg xmlns="http://www.w3.org/2000/svg" width="161.449" height="64" viewBox="0 0 161.449 64"><defs><clipPath id="clip-path"><path d="M0 0H161.449V64H0z" data-name="Rectangle 13543"></path></clipPath></defs><g clip-path="url(#clip-path)" data-name="Group 31215"><path fill="#e30a0a" d="M55.376 2.4L27.527.268.194 2.3S0 8.28 0 15.688c0 37.946 27.7 48.053 27.7 48.053s27.873-10.01 27.873-47.958c0-7.406-.193-13.385-.193-13.385" data-name="Path 43177" transform="translate(0 -.016)"></path><path fill="#fff" d="M29.2 26.043a34.109 34.109 0 00-12.329 2.587 2.048 2.048 0 01-.027-1.444.866.866 0 10-.081-1.73l-.126.022-.146.029-.138.054-.054.024-.1.073-.1.081a2.975 2.975 0 00-.671 3.154 1.14 1.14 0 00-.64.779 1.077 1.077 0 00-.881-.073 1.126 1.126 0 00-.654.807 1.06 1.06 0 00-.888-.093 1.092 1.092 0 00-.644.826 1.041 1.041 0 00-.9-.112 1.078 1.078 0 00-.627.853 1 1 0 00-.915-.139 1.361 1.361 0 00-.5 1.806c.3.766 1.007 1.225 1.59 1a1.019 1.019 0 00.592-.768 1.067 1.067 0 001 .175 1.039 1.039 0 00.6-.739 1.089 1.089 0 00.982.143 1.06 1.06 0 00.615-.72 1.108 1.108 0 00.975.126 1.091 1.091 0 00.621-.7 1.14 1.14 0 00.969.105l.154-.079a1.8 1.8 0 01-.085 1.391h-.031a.874.874 0 10.423 1.621l.059-.023a2.563 2.563 0 001.11-1.6 3.722 3.722 0 00-.163-2.12 28.782 28.782 0 017.526-1.035 21.2 21.2 0 017.816 1.338c.815-1.314 2.2-1.959 3.2-1.429 1.026.545 1.263 2.114.572 3.558l1.514 1.422H47.8v-.158c0-1.4-3.233-8.585-18.6-9.01" data-name="Path 43178" transform="translate(-.528 -1.554)"></path><path fill="#fff" d="M29.312 39.213h-.266a33.568 33.568 0 00-9.765 2.067 1.7 1.7 0 01-.054-1.2.737.737 0 00-.084-1.471l-.107.017-.126.025-.109.043-.053.022-.09.067-.072.063a2.453 2.453 0 00-.534 2.715l-.091.026a.972.972 0 00-.557.646.922.922 0 00-.732-.046.951.951 0 00-.554.659.9.9 0 00-.734-.062.923.923 0 00-.547.674.874.874 0 00-.743-.076.9.9 0 00-.53.7.85.85 0 00-.761-.1.824.824 0 00-.447.444 1.454 1.454 0 00.016 1.1 1.162 1.162 0 001.359.85.857.857 0 00.5-.631.912.912 0 00.831.131.863.863 0 00.5-.607.922.922 0 00.826.111.889.889 0 00.518-.588.941.941 0 00.809.091.921.921 0 00.524-.574.967.967 0 00.806.075l.212-.121a1.334 1.334 0 01-.1.906h-.01a.738.738 0 100 1.475.783.783 0 00.358-.094l.05-.022a2.134 2.134 0 00.922-1.324 2.677 2.677 0 00-.078-1.537 23.832 23.832 0 016.4-.931 14.322 14.322 0 015.162.831c.781-1.208 2.069-1.788 3.007-1.292.921.485 1.175 1.833.66 3.135l1.374 1.2h7.225v-.157c0-1.121-2.59-6.9-14.907-7.24" data-name="Path 43179" transform="translate(-.748 -2.358)"></path><path fill="#fff" d="M29.27 50.662h-.121a20.234 20.234 0 00-7.138 1.413l-.2.069a1.152 1.152 0 01-.059-1.007.655.655 0 00.585-.64.663.663 0 00-.673-.649l-.086.017-.119.023-.087.035-.039.017-.083.06-.069.058a2.106 2.106 0 00-.46 2.277h-.013a.784.784 0 00-.444.506.746.746 0 00-.577-.032.754.754 0 00-.441.521.707.707 0 00-.582-.047.749.749 0 00-.437.531.7.7 0 00-.587-.056.739.739 0 00-.432.54.685.685 0 00-.591-.066.666.666 0 00-.373.371 1.178 1.178 0 00.011.895.953.953 0 001.122.693.7.7 0 00.4-.484.67.67 0 001.056-.386.737.737 0 00.644.079.72.72 0 00.414-.46.705.705 0 001.057-.375.792.792 0 00.638.048l.123-.066a1.186 1.186 0 01-.054.829.646.646 0 10.315 1.211l.054-.023a1.839 1.839 0 00.786-1.128 2.274 2.274 0 00-.08-1.366 18.3 18.3 0 014.792-.692 10.362 10.362 0 013.393.5 2.037 2.037 0 012.458-.961 2.021 2.021 0 01.6 2.533l1.038.839h5.47v-.159c0-1.118-2.015-5.254-11.221-5.469" data-name="Path 43180" transform="translate(-.987 -3.044)"></path><path fill="#fff" d="M28.911 17.6c-3.129 0-5.58-.51-5.58-1.163 0-.8 2.8-1.161 5.58-1.161 2.685 0 5.58.364 5.58 1.161 0 .653-2.452 1.163-5.58 1.163m8.311-9.857a1.231 1.231 0 00-1.634.594 1.182 1.182 0 00-.112.466l-.665.241.443 1.22a38.086 38.086 0 01-1.464 2.268 16.392 16.392 0 00-3.73-.632 39.185 39.185 0 01-.484-3.324l.918-.915-.5-.5a1.144 1.144 0 00.1-.469 1.229 1.229 0 00-2.458 0 1.182 1.182 0 00.1.469l-.5.5.919.92c-.128 1.371-.41 2.9-.49 3.329a14.044 14.044 0 00-3.629.624c-.346-.5-.937-1.376-1.461-2.269l.443-1.219-.667-.241a1.2 1.2 0 00-.109-.466 1.236 1.236 0 00-1.114-.709 1.228 1.228 0 00-1.114 1.747 1.19 1.19 0 00.285.384l-.239.665 1.226.447a42.787 42.787 0 011.192 5.557c.237 1.314 2.946 2.268 6.442 2.268 3.54 0 6.183-.931 6.429-2.268.028-.163.069-.416.118-.725a25.183 25.183 0 011.077-4.832l1.234-.449-.24-.665a1.174 1.174 0 00.284-.384 1.232 1.232 0 00-.592-1.633" data-name="Path 43181" transform="translate(-1.215 -.333)"></path><path d="M79.238 18.247c-.023-.392-1.013-10.491-1.013-10.491a17.95 17.95 0 01-.069-1.914h-.048s-.161.9-.46 1.914c0 0-2.836 9.96-3.021 10.491h-1.661c-.161-.462-3-10.514-3-10.514a31.641 31.641 0 01-.462-1.891h-.045a18.172 18.172 0 01-.069 1.891s-.99 10.052-1.012 10.514h-2.467l1.776-15.864h2.951l2.835 10.169c.278 1.014.417 1.776.417 1.776h.045a14.931 14.931 0 01.416-1.776l2.928-10.169h2.951l1.776 15.864z" data-name="Path 43182" transform="translate(-4.025 -.145)"></path><path d="M85.865 5.721h2.814V18.15h-2.814zm1.406-2.145a1.473 1.473 0 01-1.545-1.384 1.551 1.551 0 013.089 0 1.458 1.458 0 01-1.545 1.384" data-name="Path 43183" transform="translate(-5.236 -.048)"></path><path d="M98.977 7.311a4.423 4.423 0 00-1.246-.161c-2.444 0-3.273 2.1-3.273 4.727 0 2.813.9 4.658 3.066 4.658a2.7 2.7 0 001.453-.278zm-1.522 11.023c-3.667 0-5.788-2.352-5.788-6.3 0-4.058 2.214-6.48 5.443-6.48a6.685 6.685 0 011.868.23V0h2.813v17.433a8.871 8.871 0 01-4.335.9" data-name="Path 43184" transform="translate(-5.598)"></path><path d="M112.458 7.311a4.421 4.421 0 00-1.245-.161c-2.445 0-3.275 2.1-3.275 4.727 0 2.813.9 4.658 3.067 4.658a2.7 2.7 0 001.453-.278zm-1.523 11.023c-3.665 0-5.787-2.352-5.787-6.3 0-4.058 2.214-6.48 5.442-6.48a6.69 6.69 0 011.868.23V0h2.813v17.433a8.873 8.873 0 01-4.336.9" data-name="Path 43185" transform="translate(-6.422)"></path><path d="M0 0H2.814V18.101H0z" data-name="Rectangle 13542" transform="translate(112.094)"></path><path d="M130.416 7.525c-1.637 0-2.767 1.337-2.7 4.312l5.143-.783c0-2.514-.9-3.528-2.445-3.528m-2.537 5.742c.231 2.307 1.336 3.459 3.39 3.459a6.759 6.759 0 003.134-.692l.669 1.776a8.484 8.484 0 01-4.1.875c-3.528 0-5.763-2.283-5.763-6.479 0-4.06 2.05-6.412 5.3-6.412 3.3 0 5.1 2.192 4.982 6.365z" data-name="Path 43186" transform="translate(-7.647 -.354)"></path><path d="M141.428 18.663a6.308 6.308 0 01-3.436-.9l.739-1.8a3.864 3.864 0 002.328.715 1.755 1.755 0 001.915-1.751c0-1.06-.556-1.569-1.822-2.052-2.352-.9-2.837-2.191-2.837-3.482a3.665 3.665 0 013.944-3.6 5.712 5.712 0 013.227.876l-.691 1.637a3.293 3.293 0 00-1.982-.691 1.624 1.624 0 00-1.776 1.637c0 1.014.761 1.522 1.844 1.96 2.421.969 2.975 2.213 2.975 3.667 0 2.028-1.706 3.781-4.426 3.781" data-name="Path 43187" transform="translate(-8.428 -.354)"></path><path d="M153.714 7.525c-1.639 0-2.77 1.337-2.7 4.312l5.142-.783c0-2.514-.9-3.528-2.442-3.528m-2.537 5.742c.229 2.307 1.338 3.459 3.388 3.459a6.779 6.779 0 003.137-.692l.668 1.776a8.492 8.492 0 01-4.1.875c-3.53 0-5.765-2.283-5.765-6.479 0-4.06 2.052-6.412 5.3-6.412 3.3 0 5.1 2.192 4.981 6.365z" data-name="Path 43188" transform="translate(-9.07 -.354)"></path><path d="M168.166 18.471l-2.329-4.52h-.047l-2.375 4.52h-2.858l3.848-6.434-3.459-5.994h2.954L166 10.1h.046l2.19-4.058h2.652l-3.528 5.81 3.9 6.618z" data-name="Path 43189" transform="translate(-9.806 -.369)"></path><path d="M71.759 42.4c-3.113 0-5.234-1.983-5.234-4.866V26.277h2.928v11.23a2.4 2.4 0 002.421 2.628 2.367 2.367 0 002.4-2.628v-11.23h2.721V37.53c0 2.883-2.121 4.866-5.235 4.866" data-name="Path 43190" transform="translate(-4.063 -1.605)"></path><path d="M88 42.35v-8.808c0-1.014-.46-2.075-2.236-2.075a4.661 4.661 0 00-1.937.347V42.35h-2.814V30.59a11.426 11.426 0 014.864-.9c3.713 0 4.935 1.8 4.935 3.8v8.86z" data-name="Path 43191" transform="translate(-4.948 -1.813)"></path><path d="M94.728 29.617h2.813v12.428h-2.813zm1.407-2.145a1.4 1.4 0 111.545-1.383 1.472 1.472 0 01-1.545 1.383" data-name="Path 43192" transform="translate(-5.777 -1.507)"></path><path d="M106.675 42.365H104l-4.057-12.428h3l2.188 8.023a8.866 8.866 0 01.3 1.708h.045a10.93 10.93 0 01.323-1.708l2.238-8.023h2.627z" data-name="Path 43193" transform="translate(-6.104 -1.828)"></path><path d="M117.841 31.421c-1.638 0-2.767 1.336-2.7 4.311l5.141-.783c0-2.514-.9-3.528-2.445-3.528m-2.535 5.741c.23 2.307 1.338 3.461 3.389 3.461a6.779 6.779 0 003.136-.693l.673 1.77a8.481 8.481 0 01-4.1.878c-3.53 0-5.765-2.283-5.765-6.481 0-4.059 2.052-6.41 5.3-6.41 3.295 0 5.095 2.192 4.98 6.365z" data-name="Path 43194" transform="translate(-6.879 -1.813)"></path><path d="M131.749 31.768a3.382 3.382 0 00-2.626.093v10.49h-2.814V30.59c1.291-.621 2.858-.967 5.994-.874z" data-name="Path 43195" transform="translate(-7.714 -1.814)"></path><path d="M137.281 42.558a6.311 6.311 0 01-3.437-.9l.74-1.8a3.873 3.873 0 002.329.715 1.754 1.754 0 001.914-1.753c0-1.059-.553-1.568-1.822-2.052-2.353-.9-2.837-2.19-2.837-3.482a3.667 3.667 0 013.944-3.6 5.724 5.724 0 013.228.875l-.692 1.639a3.283 3.283 0 00-1.982-.692 1.626 1.626 0 00-1.777 1.636c0 1.016.762 1.523 1.845 1.961 2.421.968 2.974 2.214 2.974 3.667 0 2.029-1.705 3.781-4.426 3.781" data-name="Path 43196" transform="translate(-8.174 -1.813)"></path><path d="M144.935 29.617h2.814v12.428h-2.814zm1.408-2.145a1.4 1.4 0 111.543-1.383 1.457 1.457 0 01-1.543 1.383" data-name="Path 43197" transform="translate(-8.843 -1.507)"></path><path d="M155.312 42.274a3.139 3.139 0 01-3.41-3.366v-7.4h-1.384v-1.8h1.382v-2.745l2.812-.785v3.528h2.029v1.8h-2.029v7.264c0 .969.392 1.614 1.361 1.614a2.158 2.158 0 00.669-.115v1.753a3.712 3.712 0 01-1.431.253" data-name="Path 43198" transform="translate(-9.193 -1.599)"></path><path d="M163.621 47.323h-2.975l2.028-4.958-4.1-12.428h3l2.144 8.048a7.783 7.783 0 01.254 1.775h.046a10.814 10.814 0 01.346-1.775l2.307-8.048h2.627z" data-name="Path 43199" transform="translate(-9.685 -1.828)"></path><path d="M70.731 52.111a4.825 4.825 0 00-1.96.325v12.842a5.7 5.7 0 001.982.3c3.2 0 4.428-2.374 4.428-6.849 0-4.358-1.429-6.618-4.451-6.618m.139 14.966a9.011 9.011 0 01-4.2-.855v-14.6a8.841 8.841 0 014.1-.874c4.381 0 6.6 3.089 6.6 8 0 4.888-2.006 8.325-6.5 8.325" data-name="Path 43200" transform="translate(-4.072 -3.099)"></path><path d="M85.539 67.338c-3.113 0-4.4-1.57-4.4-4.059v-8.623h2.03v8.692a2.318 2.318 0 002.489 2.56 4.166 4.166 0 002.232-.508V54.656h2.028v11.69a8.784 8.784 0 01-4.379.992" data-name="Path 43201" transform="translate(-4.955 -3.338)"></path><path d="M98.012 55.325a3.729 3.729 0 00-2.029.484v9.523a4.106 4.106 0 001.753.3c2.558 0 3.573-2.144 3.573-5.281 0-2.72-.946-5.025-3.3-5.025m-.323 11.621a6.988 6.988 0 01-3.713-.877V48.615h2.006V54.7a5.008 5.008 0 012.535-.577c2.861 0 4.819 2.4 4.819 6.157 0 3.989-1.959 6.664-5.649 6.664" data-name="Path 43202" transform="translate(-5.74 -2.969)"></path><path d="M113.192 60.014c-3.136.391-5 1.06-5 3.573 0 1.8 1.106 2.537 2.952 2.537a4.516 4.516 0 002.052-.415zM110.98 67.3c-3.228 0-4.729-1.407-4.729-3.667 0-3.295 3.091-4.265 6.941-4.657v-.762c0-1.912-1.153-2.466-2.744-2.466a6.925 6.925 0 00-3 .783l-.484-1.2a8.219 8.219 0 013.8-.922c2.307 0 4.335.993 4.335 4.036v7.976a8.681 8.681 0 01-4.125.878" data-name="Path 43203" transform="translate(-6.489 -3.323)"></path><path d="M119.3 54.353h2.029v12.428H119.3zm1.018-2.4a1.12 1.12 0 111.174-1.108 1.161 1.161 0 01-1.174 1.108" data-name="Path 43204" transform="translate(-7.275 -3.036)"></path></g></svg>