<?xml version="1.0" encoding="UTF-8"?>
<svg id="layer" xmlns="http://www.w3.org/2000/svg" version="1.1" viewBox="0 0 605 266">
  <!-- Generator: Adobe Illustrator 29.0.1, SVG Export Plug-In . SVG Version: 2.1.0 Build 192)  -->
  <defs>
    <style>
      .st0 {
        fill: #fff;
      }

      .st1 {
        fill: #6c2383;
      }

      .st2 {
        fill: #939292;
      }

      .st3 {
        fill: #ffd500;
      }
    </style>
  </defs>
  <rect class="st1" x="2.75" y="6.15" width="599.7" height="186.2"/>
  <path class="st3" d="M400.15,69.45c0-4.2,3.8-6.7,9.2-6.7s10.9,3.6,13.2,9h1.3l-1.1-8c-2.8-1.3-8.8-3.2-14.1-3.2-8.3,0-14.4,5.4-14.4,11.7,0,13.2,26.1,16.1,26.1,26.9,0,5.9-5.8,8.5-11.3,8.5-6.4,0-12.3-3.9-14-11.3h-1.4l1.7,11.2c4.2,1.2,10,2.5,14.5,2.5,9.6,0,16.5-6.2,16.5-13.5-.1-14-26.2-16.4-26.2-27.1M427.35,61.45h38.5l1.1,10.2h-1.3c-1.1-6.6-2.5-7.4-5.5-7.4h-10.3v37.3c0,4,1.3,5.4,5.9,5.4h1.7v1.6h-21.6v-1.6h1.7c4.5,0,5.9-1.4,5.9-5.4v-37.2h-10.3c-3,0-4.3.8-5.4,7.4h-1.3l.9-10.3ZM387.55,63.35c-1.2-7.5-3.5-8-6.7-8h-20.3v22.1h15.9c3.3,0,4.8-.4,5.3-5.7h1.7v15.2h-1.7c-.7-6.4-2.4-6-6.2-6h-15v19.3c0,4.2,1.9,5,5.3,5h13.6c6.2,0,8.3-1.3,10.5-9h1.7l-1.4,12.3h-44.9v-1.7c7.3-.2,7.8-1.2,7.8-6.7v-39.6c0-5.5-.5-6.5-7.8-6.7v-1.7h43.2l.7,11.3h-1.7v-.1ZM431.65,154.45h-1.4c-1,4.4-2.2,5.5-5.8,5.6h-17c9-7.9,22.8-18.2,22.8-29.1,0-7.2-5.5-12.7-13-12.7s-13.6,5.6-14.5,13.8h1.1c1.6-5.8,6.2-9.7,11.3-9.7,5.4,0,9.5,4.2,9.5,9.6,0,12.9-21,28.7-22.8,30.5v2.1h28.5l.6-4.5h0l.7-5.6ZM345.95,164.45v-1.7c6.8,0,7.1-1.2,7.1-4.7h0v-33.6c-2.4,2-6.7,4.7-9.5,5.9l-.6-1c4.4-2.8,10.7-8.2,12.5-10.7h2.6v38.4c.1,4.6,1,5.5,7.8,5.7v1.7h-19.9ZM432.35,151.45v-1.7l22.9-31.2h2.1v29.2h5.9v3.6h-5.8v13h-5.1v-13h-20M452.35,125.65l-16.2,22.2h16.2v-22.2ZM387.35,139.25c8.3,3.4,12,7.1,12,12.6,0,7.5-6.8,13.3-15.5,13.3s-15.3-5.3-15.3-11.8c0-5.1,3.9-9.2,11.6-12-7.4-3-11-6.6-11-11.5,0-6.4,6.5-11.7,14.4-11.7s14.2,4.6,14.2,10.4c0,4.6-3.5,8.2-10.4,10.7M381.65,142.05c-5.4,2.7-8.6,6.4-8.6,11.1,0,6.1,4.8,10.2,10.8,10.2s10.8-3.8,10.8-9.4c0-4.9-3.9-8.1-13-11.9M383.45,120.05c-5.4,0-10.1,3.1-10.1,7.6,0,4,2.2,6.7,12.5,10.7,4.4-2.5,7.5-5.7,7.5-9.8,0-5.2-4.4-8.5-9.9-8.5"/>
  <path class="st0" d="M508.05,63.35l-.7-11.3h-43.2v1.7c7.3.2,7.8,1.2,7.8,6.7v39.6c0,5.5-.5,6.5-7.8,6.7v1.7h44.9l1.4-12.3h-1.7c-2.2,7.6-4.2,9-10.5,9h-13.6c-3.4,0-5.3-.8-5.3-5v-19.3h15c3.7,0,5.5-.4,6.2,6h1.7v-15.2h-1.7c-.5,5.3-2,5.7-5.3,5.7h-15.9v-22.1h20.3c3.2,0,5.5.5,6.7,8h1.7M206.35,52.05v1.7c7.3.2,7.8,1.2,7.8,6.7v36.1l-37.9-44.6h-13.6v1.7c3.2.1,4.9.8,6.9,2.3v44.7c0,3.4-1.3,5.9-4.4,5.9-2.4,0-3.6-2.7-4.9-5.5l-21.1-49h-6.4l-19.5,45.8c-3.5,7.6-4.1,8.8-6,8.8-2.4,0-3.2-2.1-3.6-8.2l-2.8-39.9c0-3.5,1.1-4.7,7.9-4.7v-1.7h-15.3l-20,45.8-20-45.9h-15.9v1.7c6.8,0,7.9,1.2,7.9,4.7l-2.4,38.6c-.5,8.3-1.3,9.7-7.9,9.7v1.7h18.9v-1.7c-4.1-.2-7.5-1.2-7.3-5.8l2.5-40.9h.2l21.3,48.4h2.1l20.7-48.4h.2l2.6,40.7c.4,4.8-3.8,6-8.1,6v1.7h35v-1.7h-.3c-5,0-7.4-.9-7.4-3.4,0-1.3,1.2-4,1.8-5.7l5-11.9h23.7l5.9,14.2c.4.9,1,2.3,1,3.7,0,2.5-1.9,3.1-7.1,3.1h-1.2v1.7h36.9v-1.7c-7.7,0-8-1.4-8-7.9v-38.9l42.2,49.2h2.4v-50.6c0-3.5.3-4.7,7.1-4.7v-1.7h-18.9v-.1ZM123.95,82.25l10.4-24.6,10.3,24.6h-20.7ZM343.95,106.75v1.7h-22.5v-1.7c6.9-.2,7.7-1.1,7.8-5.8v-20h-33.3v19.1h0c0,5.5.5,6.5,7.8,6.7v1.7h-22.5v-1.7c6.8,0,7.1-1.2,7.1-4.7h0v-43.5h0c0-3.5-.3-4.7-7.1-4.7v-1.7h22.5v1.7c-7.3.2-7.8,1.2-7.8,6.7h0v16.9h33.3v-17.7c-.1-4.8-.9-5.8-7.8-5.9v-1.7h22.5v1.7c-6.8,0-7.1,1.2-7.1,4.7h0v43.5h0c-.1,3.5.3,4.7,7.1,4.7M256.25,50.65c9.5,0,16.5,3.2,20.8,5l.7,11.2h-1.7c-3-8.4-9.3-14-19.2-14-15.2,0-22.7,11.7-22.7,27,0,16.4,9.9,27.5,23.7,27.5,4.1,0,14.5-2.8,20.7-13.7h1.7l-4.3,10.7c-5.4,2.6-9.8,5.6-20.5,5.6-18.4,0-29.4-12.2-29.4-29-.2-17.6,11.2-30.3,30.2-30.3M563.95,97.95l-7.2-6.9c-4.3-4.3-7-6.2-10.4-8.8,7.5-2.2,12.2-7.9,12.2-14.8,0-9.3-7.6-16.2-24.5-16.2-5.9,0-7.8.1-11.5.3s-9.3.5-11.5.5v1.7h2c5.3,0,6.9,1.6,6.9,7.3v38.1c0,6.1-1.9,7.6-7.3,7.6h-1.5v1.7h25.8v-1.7h-2.1c-5.1,0-7.3-1.4-7.3-6.9v-15.1c1.5.1,2.6.2,4.7.2,2.4,0,3.8-.1,6-.2,6.9,4,12.4,10.1,15.6,13.2,8.3,7.9,10.3,11.2,26.2,10.5v-1.7c-7.1-.4-10.7-3.4-16.1-8.8M533.05,82.85c-2.1,0-3.5.1-5.7-.2v-29.1c1.6-.2,2.8-.2,4.6-.2,14.1,0,17.9,6.2,17.9,14.7.1,10.9-6.6,14.8-16.8,14.8M563.95,97.95l-7.2-6.9c-4.3-4.3-7-6.2-10.4-8.8,7.5-2.2,12.2-7.9,12.2-14.8,0-9.3-7.6-16.2-24.5-16.2-5.9,0-7.8.1-11.5.3s-9.3.5-11.5.5v1.7h2c5.3,0,6.9,1.6,6.9,7.3v38.1c0,6.1-1.9,7.6-7.3,7.6h-1.5v1.7h25.8v-1.7h-2.1c-5.1,0-7.3-1.4-7.3-6.9v-15.1c1.5.1,2.6.2,4.7.2,2.4,0,3.8-.1,6-.2,6.9,4,12.4,10.1,15.6,13.2,8.3,7.9,10.3,11.2,26.2,10.5v-1.7c-7.1-.4-10.7-3.4-16.1-8.8M533.05,82.85c-2.1,0-3.5.1-5.7-.2v-29.1c1.6-.2,2.8-.2,4.6-.2,14.1,0,17.9,6.2,17.9,14.7.1,10.9-6.6,14.8-16.8,14.8"/>
  <path class="st2" d="M16.35,216.65v30.4h-3.8v-30.4H2.45v-3.2h24v3.2h-10.1ZM46.85,247.15h3.7v-17.3c0-4.4-1.7-8-7.4-8-4.3,0-7.4,2.3-8.8,6h-.1c.3-1.2.4-3.3.4-4.9v-12.1h-3.7v36.4h3.7v-11.9c0-5.9,3.1-10.3,7.6-10.3,3.6,0,4.6,2.2,4.6,6.1v16M66.95,224.75c3.8,0,6.1,2.6,6,6.4h-12.5c.5-3.9,3-6.4,6.5-6.4M76.75,233.95c.1-.7.1-1.4.1-1.8,0-5.5-2.8-10.2-9.7-10.2s-10.9,5.5-10.9,13c0,8.7,4,12.7,11.5,12.7,3.1,0,5.9-.5,8.2-1.5l-.3-3.2c-1.9,1-4.6,1.6-7.2,1.6-5.5,0-8.5-3.1-8.2-10.5h16.5M105.05,247.55c8.7,0,13.3-4.6,13.3-13.2v-20.9h-3.7v21.2c0,7.2-3,9.8-9.2,9.8-7.3,0-8.9-4-8.9-8.8v-22.1h-3.8v22.5c-.1,5.7,1.9,11.5,12.3,11.5M141.65,247.15h3.7v-17.3c0-4.4-1.7-8-7.4-8-4.3,0-7.5,2.4-8.9,6l-.1-.1c.2-1.5.4-3.9.4-5.5h-3.7v24.8h3.8v-11.9c0-5.9,3.1-10.3,7.6-10.3,3.6,0,4.6,2.2,4.6,6.1v16.2M152.45,247.15h3.7v-24.8h-3.7v24.8ZM154.35,217.85c1.4,0,2.6-1.1,2.6-2.5s-1.2-2.5-2.6-2.5-2.6,1.2-2.6,2.5c0,1.4,1.1,2.5,2.6,2.5M173.45,247.15l9.6-24.8h-4.1l-5.9,16.4c-.5,1.3-.9,2.8-1.3,4.2h0c-.5-1.4-.9-2.8-1.4-4.4l-5.9-16.2h-4.2l9.4,24.8h3.8M194.65,224.75c3.8,0,6.1,2.6,6,6.4h-12.6c.6-3.9,3.1-6.4,6.6-6.4M204.35,233.95c.1-.7.1-1.4.1-1.8,0-5.5-2.8-10.2-9.7-10.2s-10.9,5.5-10.9,13c0,8.7,4,12.7,11.5,12.7,3.1,0,5.9-.5,8.2-1.5l-.3-3.2c-1.9,1-4.6,1.6-7.2,1.6-5.5,0-8.5-3.1-8.2-10.5h16.5M222.25,225.55l.2-3.7c-5.2-.6-7.8,3.1-8.8,6.7h0c.3-2.1.5-4.6.5-6.2h-3.7v24.8h3.7v-9.9c.1-8.4,2.7-12.6,8.1-11.7M230.85,247.55c6.5,0,10.4-3.4,10.4-7.8,0-8.4-12.1-5-12.1-11,0-2.4,1.8-3.9,5.4-3.9,1.7,0,3.5.3,5.1.9l.1-3.2c-1.5-.3-3.3-.5-4.8-.5-6.3,0-9.7,3.1-9.7,7.3,0,8.8,12.1,5.1,12.1,11.1,0,2.6-2.5,4.2-6.1,4.2-1.9,0-3.9-.4-5.5-.8l-.1,3.4c1.5.1,3.4.3,5.2.3M250.65,247.15h-3.7v-24.8h3.7v24.8ZM251.45,215.35c0,1.4-1.2,2.5-2.6,2.5s-2.6-1.1-2.6-2.5,1.1-2.5,2.6-2.5c1.4-.1,2.6,1.1,2.6,2.5M266.15,247.55c1.5,0,3.3-.2,4.6-.5v-3.2c-1,.3-2.3.4-3.5.4-2.9,0-3.7-1.1-3.7-5.6v-13.4h7.3v-2.9h-7.4v-9.3l-3.7,1v8.2h-5.4v2.9h5.4v14.9c-.1,5.3,1.4,7.5,6.4,7.5M284.25,249.75l10.4-27.3h-4.1l-4.4,12.6c-1,2.8-2,5.9-2.5,7.5h-.1c-.5-1.8-1.1-3.6-1.9-5.9l-5.2-14.2h-4.3l9.5,24.8-1.1,2.9c-1.9,5.2-3.4,6.6-6.4,6.6-1.1,0-2.1-.2-3.1-.5l-.4,3.4c1,.2,2.2.2,3.1.2,5.4,0,7.6-2.5,10.5-10.1M317.55,224.95c4.9,0,7.4,3.6,7.4,9.6,0,6.8-3.5,9.8-7.4,9.8-4.8,0-7.6-3.5-7.6-9.8s3.7-9.6,7.6-9.6M317.05,247.55c7.3,0,11.9-5.9,11.9-13.3,0-9.1-4.9-12.4-11-12.4-7.4,0-11.8,5.9-11.8,13-.1,8.7,4.2,12.7,10.9,12.7M348.95,214.05l.3-3.1c-1.3-.3-2.7-.5-4.1-.5-5.9,0-9.4,3.2-9.4,10.1v1.7h-5.3v2.9h5.4v21.8h3.7v-21.8h7.3v-2.9h-7.3v-1.7c0-4.8,1.7-7,5.5-7,1.3,0,2.6.1,3.9.5M393.95,247.15h4l-5-33.6h-5l-7.9,23.1c-.9,2.4-1.4,3.9-1.8,6.2h-.1c-.3-1.8-1-4.1-1.9-6.5l-7.7-22.7h-4.8l-4.8,33.6h3.9l2.4-20.3c.4-3.4.7-6.1.9-8.8h0c.4,2,1.3,4.7,2.1,7.1l7.5,22h4.3l7.9-23.5c.8-2.3,1.3-4.2,1.6-5.6h.1c.2,1.8.5,4.3,1,8.4l3.3,20.6M417.25,235.55v.4c0,4.3-2.9,8.6-7.3,8.6-2.4,0-4-1.4-4-3.7s2-5.3,11.3-5.3M421.15,247.15c-.1-2.2-.1-5-.1-7.4v-9.7c0-4.7-1.9-8.1-8.8-8.1-3.3,0-6.2.8-8.6,1.8l.3,3.3c2.2-1.4,5.2-2.1,7.6-2.1,4.3,0,5.6,2.1,5.6,5.8v2c-9.7,0-15,3.6-15,8.8,0,3.9,2.8,6,6.8,6,4.2,0,7.4-2.5,8.6-5.7h.1c-.2,1.4-.2,3.3-.2,5.2h3.7v.1ZM444.15,247.15h3.7v-17.3c0-4.4-1.7-8-7.4-8-4.3,0-7.5,2.4-8.9,6l-.1-.1c.2-1.5.4-3.9.4-5.5h-3.7v24.8h3.7v-11.9c0-5.9,3.1-10.3,7.6-10.3,3.6,0,4.6,2.2,4.6,6.1v16.2M464.35,247.45c3,0,5.7-.7,7.4-1.3l-.3-3.2c-1.7.9-4,1.4-6.2,1.4-6,0-7.6-4.2-7.6-9.3,0-6,2.6-9.9,8-9.9,2.1,0,4,.4,5.7,1.1l.4-3.3c-1.7-.5-3.8-.8-5.8-.8-8.1,0-12.2,5.5-12.2,13.6-.1,9.2,5.1,11.7,10.6,11.7M492.85,247.15h3.7v-17.3c0-4.4-1.7-8-7.4-8-4.3,0-7.4,2.3-8.8,6h-.1c.3-1.2.4-3.3.4-4.9v-12.1h-3.7v36.4h3.7v-11.9c0-5.9,3.1-10.3,7.6-10.3,3.6,0,4.6,2.2,4.6,6.1v16M512.95,224.75c3.8,0,6.1,2.6,6,6.4h-12.6c.6-3.9,3.1-6.4,6.6-6.4M522.75,233.95c.1-.7.1-1.4.1-1.8,0-5.5-2.8-10.2-9.7-10.2s-10.9,5.5-10.9,13c0,8.7,4,12.7,11.5,12.7,3.1,0,5.9-.5,8.2-1.5l-.3-3.2c-1.9,1-4.6,1.6-7.2,1.6-5.5,0-8.5-3.1-8.2-10.5h16.5M532.55,247.55c6.5,0,10.4-3.4,10.4-7.8,0-8.4-12.1-5-12.1-11,0-2.4,1.8-3.9,5.4-3.9,1.7,0,3.5.3,5.1.9l.1-3.2c-1.5-.3-3.3-.5-4.8-.5-6.3,0-9.7,3.1-9.7,7.3,0,8.8,12.1,5.1,12.1,11.1,0,2.6-2.5,4.2-6.1,4.2-1.9,0-3.9-.4-5.5-.8l-.1,3.4c1.5.1,3.4.3,5.2.3M556.55,247.55c1.5,0,3.3-.2,4.6-.5v-3.2c-1,.3-2.3.4-3.5.4-2.9,0-3.7-1.1-3.7-5.6v-13.4h7.3v-2.9h-7.3v-9.3l-3.7,1v8.2h-5.4v2.9h5.4v14.9c-.2,5.3,1.3,7.5,6.3,7.5M574.95,224.75c3.8,0,6.1,2.6,6,6.4h-12.6c.6-3.9,3.1-6.4,6.6-6.4M584.65,233.95c.1-.7.1-1.4.1-1.8,0-5.5-2.8-10.2-9.7-10.2s-10.9,5.5-10.9,13c0,8.7,4,12.7,11.5,12.7,3.1,0,5.9-.5,8.2-1.5l-.3-3.2c-1.8,1-4.6,1.6-7.2,1.6-5.5,0-8.5-3.1-8.2-10.5h16.5M602.35,225.55l.2-3.7c-5.2-.6-7.8,3.1-8.8,6.7h0c.3-2.1.5-4.6.5-6.2h-3.7v24.8h3.7v-9.9c0-8.4,2.6-12.6,8.1-11.7"/>
</svg>