<?xml version="1.0" encoding="UTF-8"?>
<svg id="Layer_1" xmlns="http://www.w3.org/2000/svg" version="1.1" viewBox="0 0 172 120">
  <!-- Generator: Adobe Illustrator 29.0.1, SVG Export Plug-In . SVG Version: 2.1.0 Build 192)  -->
  <defs>
    <style>
      .st0 {
        fill: #001641;
      }
    </style>
  </defs>
  <path class="st0" d="M52.96,44.19v-5.34c0-.41-.27-.53-1.38-.57v-.42h3.9v.42c-1.18.04-1.27.13-1.27.57v5.13c0,1.55,1.05,2.22,2.46,2.22.71,0,1.27-.25,1.68-.66.48-.48.67-.89.67-1.88v-3.73c0-1.2-.27-1.51-1.54-1.69v-.39h3.36v.39c-1.18.21-1.29.49-1.29,1.69v4.13c0,1.39-1.19,2.71-3.29,2.71s-3.3-1.05-3.3-2.58"/>
  <path class="st0" d="M63.75,39.23h-.01v5.24c0,1.22.16,1.52,1.43,1.71v.39h-3.35v-.39c1.18-.2,1.39-.49,1.39-1.71v-5.3c0-.49-.32-.88-1.39-.9v-.42h2.47l4.92,6.76h.01v-4.68c0-1.2-.28-1.51-1.54-1.69v-.39h3.36v.39c-1.18.21-1.29.49-1.29,1.69v6.84h-.52l-5.49-7.54Z"/>
  <path class="st0" d="M72.08,46.14c1.11-.04,1.37-.16,1.37-.57v-6.72c0-.41-.26-.53-1.37-.57v-.42h4.01v.42c-1.11.04-1.37.16-1.37.57v6.72c0,.41.26.53,1.37.57v.42h-4.01v-.42Z"/>
  <path class="st0" d="M78.47,39.17c-.21-.57-.44-.74-1.42-.94v-.38h3.88v.39c-1.15.07-1.35.31-1.16.84l2.13,6.07h.05l1.96-5.21c.49-1.31.3-1.51-.94-1.69v-.39h3.14v.39c-.9.18-1.14.54-1.58,1.68l-2.67,6.85h-.59l-2.79-7.6Z"/>
  <path class="st0" d="M86.77,46.14c1.11-.04,1.37-.16,1.37-.57v-6.72c0-.41-.26-.53-1.37-.57v-.42h7.07l.04,2.43h-.41c-.46-1.47-.7-1.95-2.18-1.95h-1.88v3.45h.78c.98,0,1.35-.09,1.68-1.47h.36v3.44h-.36c-.33-1.38-.7-1.47-1.68-1.47h-.78v3.76h1.88c1.75,0,2.17-.69,2.63-2.22h.41s-.07,2.73-.07,2.73h-7.49v-.41Z"/>
  <path class="st0" d="M97.86,45.57c0,.44.18.53,1.36.57v.42h-3.99v-.42c1.11-.04,1.38-.16,1.38-.57v-6.72c0-.41-.26-.53-1.38-.57v-.42h3.65c2.65,0,3.43,1.02,3.43,2.12s-.59,1.82-2.21,2.18v.04c1.6.16,1.8.78,1.95,1.75l.2,1.26c.12.76.44.95,1.35,1.02v.42c-.09,0-.35.01-.44.01-1.86,0-2.17-.39-2.26-1.59l-.08-1.02c-.1-1.29-.65-1.6-2.01-1.6h-.95v3.12h0ZM98.88,41.97c1.67,0,2.08-.73,2.08-1.96,0-1.15-.58-1.68-2.17-1.68h-.93v3.64h1.02Z"/>
  <path class="st0" d="M104.4,43.99h.41c.69,1.54,1.56,2.3,2.66,2.3,1.32,0,1.86-.9,1.86-1.68,0-.98-.7-1.33-2.3-1.9-1.2-.42-2.48-.78-2.48-2.41s1.29-2.66,2.94-2.66c.74,0,1.27.14,1.69.3l.42-.37h.29v2.54h-.41c-.42-1.23-1.18-2-2.21-2-.9,0-1.6.58-1.6,1.61,0,.95.76,1.26,2.18,1.73,1.2.41,2.45.82,2.45,2.46,0,1.31-.76,2.84-2.96,2.84-.71,0-1.47-.16-1.97-.37l-.66.42h-.32v-2.82h0Z"/>
  <path class="st0" d="M111.57,46.14c1.11-.04,1.37-.16,1.37-.57v-6.72c0-.41-.26-.53-1.37-.57v-.42h4.01v.42c-1.11.04-1.37.16-1.37.57v6.72c0,.41.26.53,1.37.57v.42h-4.01v-.42Z"/>
  <path class="st0" d="M118.4,46.14c1.18-.04,1.47-.16,1.47-.57v-7.24h-.67c-1.27,0-1.51.69-2.04,2.26l-.41-.03.08-2.71h7.33l.09,2.71-.41.03c-.44-1.48-.73-2.26-2.04-2.26h-.69v7.24c0,.41.29.53,1.47.57v.42h-4.2v-.42h.01Z"/>
  <path class="st0" d="M131.17,39.69c.59-1.02.57-1.29-.59-1.46v-.38h3.01v.39c-.75.16-1.07.33-1.67,1.32l-1.96,3.24v2.77c0,.41.27.53,1.38.57v.42h-4.01v-.42c1.11-.04,1.38-.16,1.38-.57v-2.62l-2.25-3.9c-.29-.5-.49-.66-1.28-.8v-.39h3.75v.39c-1.16.07-1.29.36-1.02.86l1.77,3.16,1.5-2.58Z"/>
  <path class="st0" d="M51.92,54.58c0-2.79,1.85-4.59,4.15-4.59s4.16,1.75,4.16,4.54-1.85,4.59-4.16,4.59c-2.37,0-4.15-1.73-4.15-4.54M58.8,54.55c0-2.83-1.18-4.09-2.78-4.09s-2.67,1.26-2.67,4.09,1.18,4.09,2.78,4.09,2.67-1.24,2.67-4.09"/>
  <path class="st0" d="M60.92,58.48c1.11-.04,1.37-.16,1.37-.57v-6.72c0-.41-.26-.53-1.37-.57v-.42h7.04l.09,2.5h-.41c-.45-1.48-.89-2.01-2.37-2.01h-1.72v3.56h.88c.98,0,1.2-.13,1.56-1.44h.36v3.41h-.37c-.33-1.37-.58-1.47-1.56-1.47h-.88v3.16c0,.44.28.53,1.46.57v.42h-4.09s0-.42,0-.42Z"/>
  <path class="st0" d="M77.88,51.68c-.22-.69-.48-.97-1.32-1.1v-.39h3.6v.39c-1.09.07-1.22.36-1.07.83l1.78,5.74h.05l1.6-4.88c.44-1.31.31-1.51-.94-1.69v-.39h3.2v.39c-.9.18-1.28.58-1.65,1.68l-2.28,6.85h-.59l-1.9-5.9-2.25,5.9h-.59l-2.31-7.6c-.18-.59-.41-.74-1.39-.94v-.39h3.64v.39c-1.02.07-1.1.33-.95.83l1.67,5.75h.04l1.86-4.86-.2-.61Z"/>
  <path class="st0" d="M84.94,54.58c0-2.79,1.85-4.59,4.16-4.59s4.15,1.75,4.15,4.54-1.85,4.59-4.15,4.59c-2.37,0-4.16-1.73-4.16-4.54M91.83,54.55c0-2.83-1.18-4.09-2.78-4.09s-2.67,1.26-2.67,4.09,1.18,4.09,2.78,4.09,2.67-1.24,2.67-4.09"/>
  <path class="st0" d="M94.08,58.48c1.11-.04,1.37-.16,1.37-.57v-6.72c0-.41-.26-.53-1.37-.57v-.42h4.01v.42c-1.11.04-1.37.16-1.37.57v7.21h1.44c1.75,0,2.16-.62,2.66-2.42l.41.03-.09,2.9h-7.05v-.42h0Z"/>
  <path class="st0" d="M102.35,58.48c1.11-.04,1.37-.16,1.37-.57v-6.72c0-.41-.26-.53-1.37-.57v-.42h4.01v.42c-1.11.04-1.37.16-1.37.57v7.21h1.44c1.75,0,2.16-.62,2.66-2.42l.41.03-.09,2.9h-7.05v-.42h0Z"/>
  <path class="st0" d="M110.49,54.58c0-2.79,1.85-4.59,4.15-4.59s4.15,1.75,4.15,4.54-1.85,4.59-4.15,4.59c-2.37,0-4.15-1.73-4.15-4.54M117.36,54.55c0-2.83-1.18-4.09-2.78-4.09s-2.67,1.26-2.67,4.09,1.18,4.09,2.78,4.09,2.67-1.24,2.67-4.09"/>
  <path class="st0" d="M121.35,51.58h-.01v5.24c0,1.22.16,1.52,1.43,1.71v.39h-3.35v-.39c1.18-.2,1.39-.49,1.39-1.71v-5.3c0-.49-.32-.88-1.39-.9v-.42h2.47l4.92,6.76h.01v-4.69c0-1.2-.27-1.51-1.54-1.69v-.39h3.36v.39c-1.18.21-1.29.49-1.29,1.69v6.84h-.52l-5.49-7.53Z"/>
  <path class="st0" d="M129.07,54.58c0-2.73,2.08-4.59,4.51-4.59.81,0,1.68.22,2.12.42l.36-.42h.41v2.56h-.4c-.53-1.41-1.42-2.08-2.62-2.08-1.46,0-2.95,1.32-2.95,4.09s1.61,4.09,3.06,4.09c.81,0,1.41-.16,1.77-.45v-2.46c0-.41-.26-.53-1.37-.57v-.42h3.5v.42c-.81.04-.88.13-.88.57v2.71c-.75.41-2.07.67-2.92.67-2.45,0-4.6-1.54-4.6-4.54"/>
  <path class="st0" d="M138.63,54.58c0-2.79,1.85-4.59,4.15-4.59s4.15,1.75,4.15,4.54-1.85,4.59-4.15,4.59c-2.37,0-4.15-1.73-4.15-4.54M145.51,54.55c0-2.83-1.18-4.09-2.78-4.09s-2.67,1.26-2.67,4.09,1.18,4.09,2.78,4.09,2.67-1.24,2.67-4.09"/>
  <path class="st0" d="M149.56,51.58h-.01v5.24c0,1.22.16,1.52,1.43,1.71v.39h-3.35v-.39c1.18-.2,1.39-.49,1.39-1.71v-5.3c0-.49-.32-.88-1.39-.9v-.42h2.48l4.92,6.76h.01v-4.69c0-1.2-.28-1.51-1.54-1.69v-.39h3.36v.39c-1.18.21-1.29.49-1.29,1.69v6.84h-.52l-5.5-7.53Z"/>
  <path class="st0" d="M157.51,54.58c0-2.73,2.08-4.59,4.51-4.59.81,0,1.68.22,2.12.42l.36-.42h.41v2.56h-.4c-.53-1.41-1.42-2.08-2.62-2.08-1.46,0-2.95,1.32-2.95,4.09s1.61,4.09,3.06,4.09c.81,0,1.41-.16,1.77-.45v-2.46c0-.41-.26-.53-1.38-.57v-.42h3.5v.42c-.8.04-.87.13-.87.57v2.71c-.75.41-2.07.67-2.92.67-2.45,0-4.6-1.54-4.6-4.54"/>
  <path class="st0" d="M56.75,67.98h-2.96l-.5,1.29c-.49,1.24-.42,1.4.73,1.59v.39h-2.87v-.39c.9-.18,1.19-.7,1.64-1.84l2.66-6.62h.59l2.67,7.37c.24.66.5.95,1.48,1.09v.39h-3.9v-.39c1.15-.07,1.37-.32,1.11-1.02l-.65-1.86ZM56.58,67.5l-1.2-3.5h-.05l-1.35,3.5h2.6Z"/>
  <path class="st0" d="M60.8,68.88v-5.35c0-.41-.27-.53-1.38-.57v-.42h3.9v.42c-1.18.04-1.27.13-1.27.57v5.13c0,1.55,1.05,2.22,2.46,2.22.71,0,1.27-.25,1.68-.66.48-.48.67-.89.67-1.88v-3.73c0-1.2-.28-1.51-1.54-1.69v-.39h3.36v.39c-1.18.21-1.29.49-1.29,1.69v4.13c0,1.39-1.19,2.71-3.29,2.71-2.02,0-3.3-1.04-3.3-2.58"/>
  <path class="st0" d="M69.27,68.68h.41c.69,1.54,1.56,2.3,2.66,2.3,1.32,0,1.86-.9,1.86-1.68,0-.98-.7-1.33-2.3-1.9-1.2-.42-2.48-.78-2.48-2.41s1.29-2.66,2.94-2.66c.74,0,1.27.14,1.69.31l.42-.37h.29v2.54h-.41c-.42-1.23-1.18-2-2.21-2-.9,0-1.6.58-1.6,1.61,0,.95.76,1.26,2.18,1.73,1.2.41,2.45.82,2.45,2.46,0,1.31-.76,2.84-2.96,2.84-.71,0-1.47-.16-1.97-.37l-.66.42h-.32v-2.83h.01Z"/>
  <path class="st0" d="M77.91,70.82c1.18-.04,1.47-.16,1.47-.57v-7.24h-.66c-1.27,0-1.51.69-2.04,2.26l-.41-.03.08-2.71h7.33l.09,2.71-.41.03c-.44-1.48-.73-2.26-2.04-2.26h-.69v7.24c0,.41.29.53,1.47.57v.42h-4.2v-.42h0Z"/>
  <path class="st0" d="M87.45,70.25c0,.44.18.53,1.36.57v.42h-3.99v-.42c1.11-.04,1.38-.16,1.38-.57v-6.72c0-.41-.26-.53-1.38-.57v-.42h3.65c2.65,0,3.43,1.02,3.43,2.12s-.59,1.82-2.21,2.18v.04c1.6.16,1.8.78,1.96,1.75l.2,1.26c.12.76.44.95,1.35,1.02v.42c-.09,0-.35.01-.44.01-1.86,0-2.17-.39-2.26-1.59l-.08-1.02c-.1-1.29-.65-1.6-2.01-1.6h-.95v3.12h0ZM88.47,66.66c1.67,0,2.08-.73,2.08-1.96,0-1.15-.58-1.68-2.17-1.68h-.93v3.64h1.02Z"/>
  <path class="st0" d="M99.26,67.98h-2.96l-.5,1.29c-.49,1.24-.42,1.4.73,1.59v.39h-2.87v-.39c.9-.18,1.19-.7,1.64-1.84l2.66-6.62h.59l2.67,7.37c.24.66.5.95,1.48,1.09v.39h-3.9v-.39c1.15-.07,1.37-.32,1.11-1.02l-.65-1.86ZM99.09,67.5l-1.2-3.5h-.05l-1.35,3.5h2.6Z"/>
  <path class="st0" d="M103.33,70.82c1.11-.04,1.37-.16,1.37-.57v-6.72c0-.41-.26-.53-1.37-.57v-.42h4.01v.42c-1.11.04-1.37.16-1.37.57v7.21h1.44c1.75,0,2.16-.62,2.66-2.42l.41.03-.09,2.9h-7.05v-.42h0Z"/>
  <path class="st0" d="M111.26,70.82c1.11-.04,1.37-.16,1.37-.57v-6.72c0-.41-.26-.53-1.37-.57v-.42h4.01v.42c-1.11.04-1.37.16-1.37.57v6.72c0,.41.26.53,1.37.57v.42h-4.01v-.42Z"/>
  <path class="st0" d="M121.85,67.98h-2.96l-.5,1.29c-.49,1.24-.42,1.4.73,1.59v.39h-2.87v-.39c.9-.18,1.19-.7,1.64-1.84l2.66-6.62h.59l2.67,7.37c.24.66.5.95,1.48,1.09v.39h-3.9v-.39c1.15-.07,1.36-.32,1.11-1.02l-.65-1.86ZM121.68,67.5l-1.2-3.5h-.05l-1.35,3.5h2.6Z"/>
  <path class="st0" d="M25.22,41.41c.03-.16-.07-.71-.23-.99-.12-.22-.42-.54-.75-.65-.34-.12-.58-.11-.69-.1-.1.01-.07,0,0,.06.48.3.75.94,1.01,1.31.19.25.63.43.65.37"/>
  <path class="st0" d="M25.94,42.46h0c-.5.01-.91.33-.91.73s.41.72.91.73h0c.5,0,.91-.33.91-.73s-.41-.72-.91-.73"/>
  <path class="st0" d="M23.3,42.68c-.19-.11-.63-.34-1.14-.1-.2.09-.5.28-.7.37-.24.1-.36.1-.5.15-.04.01-.02.06.03.07.31.08.71.27,1.48,0,.31-.12.6-.36.78-.37.08,0,.12-.07.05-.11"/>
  <path class="st0" d="M27.32,44.19s-.32.49-1.31.54h-.12c-.99-.05-1.26-.54-1.26-.54-.21.09.18,1.1,1.3,1.11h.1c1.1,0,1.5-1.02,1.29-1.11"/>
  <path class="st0" d="M28.6,42.78c.18.01.46.26.78.37,1.02.35,1.27.05,1.48,0,.05,0,.09-.05.05-.06-.14-.05-.27-.05-.5-.15-.2-.09-.5-.28-.7-.37-.51-.24-.95,0-1.14.1-.06.04-.05.1.03.1"/>
  <path class="st0" d="M14.13,43.04s.12-.44-.09-.85c-.16-.32-.47-.67-.5-1.09,0-.09-.06-.1-.08-.02-.06.21-.28.86.12,1.43.2.28.53.56.55.52"/>
  <path class="st0" d="M12.74,43.52c-.19-.07-.76-.1-1.1.23-.24.23-.41.38-.41.38,0,.11.41.09.83-.05.4-.11.77-.33,1.09-.33-.03-.07-.23-.18-.41-.24"/>
  <path class="st0" d="M16.61,44.22s-.05.12-.12.29c-.29.72-1.01.99-1.37,1.09-.12.03-.24.06-.22.09,0,.02.23.1.5.1.37,0,.64-.02.93-.3.36-.35.36-.73.35-.97,0-.09-.06-.31-.08-.3"/>
  <path class="st0" d="M13.25,46.24c-.37.48-.37.9-.38,1.05,0,.05.25.01.42-.28.22-.39.41-.44.73-.8.12-.13.19-.58.19-.58,0,0-.6.13-.97.61"/>
  <path class="st0" d="M17.41,40.99c-.12.09-.54.17-.88.63s-.46,1.07-.46,1.07c.02.05.56-.08.69-.4.11-.26.17-.37.44-.67.28-.31.31-.71.21-.63"/>
  <path class="st0" d="M15.97,43.72c-.22-.27-.75-.22-1.18.14-.42.35-.59.86-.37,1.13.22.27.75.22,1.18-.14.42-.35.59-.86.37-1.13"/>
  <path class="st0" d="M40.65,44.14s-.16-.15-.41-.39c-.35-.33-.92-.29-1.1-.23-.18.06-.39.18-.42.24.32,0,.69.22,1.09.33.42.14.83.16.83.05"/>
  <path class="st0" d="M38.3,42.52c.41-.58.18-1.22.12-1.43-.02-.08-.07-.07-.08.02-.03.41-.34.76-.5,1.09-.21.41-.09.85-.09.85.03.03.35-.24.55-.52"/>
  <path class="st0" d="M38.59,47.01c.17.29.43.33.42.28-.02-.16,0-.56-.38-1.05-.37-.48-.97-.62-.97-.62,0,0,.08.45.19.58.32.37.51.42.73.81"/>
  <path class="st0" d="M25.99,37.15c-.07,0-.14,0-.19,0-.11,0-.33,0-.66,0-2.24,0-9.9.2-16.07,2.65v9.81c.67-.13,1.47-.24,2.41-.24h.04c1.51,0,2.78.34,4.01.67h0c1.09.29,2.12.56,3.14.52,1.27-.04,2.39-.33,3.46-.61,1.21-.32,2.35-.61,3.71-.61h.1c1.8,0,3.15.39,4.34.73h.01c1,.29,1.87.54,2.82.51,1.25-.04,2.28-.35,3.28-.65,1.1-.33,2.25-.67,3.69-.68h.03c.97,0,1.83.14,2.58.31v-9.76c-6.17-2.46-13.83-2.65-16.07-2.65-.32,0-.54,0-.65,0M18.12,47.33c-.29-.14-.4-.1-1.02-.13-1.02-.05-1.45-.67-1.5-.8-.05-.14-.14-.16-.25.08-.08.2-.1.79-.54,1.12-.69.53-1.46.31-1.81.35-.23.03-.37.14-.47.05-.2-.2.05-.44.05-.73,0-.71.28-1.35.87-1.71.31-.18.22-.39-.14-.23-.3.12-1.01.21-1.43-.03-.74-.4-.71-.7-1.04-.87-.27-.14-.2-.41,0-.46.32-.08.73-.69,1.37-.84.64-.14.95.18,1.16.26.09.04.19-.08.19-.1.03-.11-.12-.2-.16-.28-.77-1.01-.1-1.92-.12-2.37-.02-.42.24-.41.42-.25.23.2.61.28.95.48.39.23.76.9.74,1.41,0,.16,0,.41.14.38.21-.05.14-.41.26-.76.35-1.04,1.46-.98,1.73-1.3.11-.13.3-.18.42-.1.16.1,0,.35.14.73.48,1.3-.28,2.52-1.02,2.87-.2.1-.22.22,0,.27.61.18,1.04.84,1.13,1.17.26.96,0,1.1.27,1.42.24.29-.06.48-.35.35M22.33,48.31c-.96-.95-2.68-1.78-2.91-1.73-.16.05-.46.05-.46-.02.04-.69-.14-1.72-.88-2.22-.17-.1-.08-.18.03-.26.27-.2.33-.38.37-.38.3,0,.69.4,1,1.09.2.45.19.6.69,1.01s1.46.85,2.24,2.05c.25.39.03.54-.07.46M33.79,41.25c.14-.39-.02-.63.14-.73.12-.08.31-.03.42.1.27.32,1.38.26,1.73,1.3.12.35.05.72.26.76.14.03.15-.22.14-.38-.02-.5.35-1.18.74-1.41.35-.2.73-.28.95-.48.18-.16.44-.18.42.25-.02.45.65,1.36-.12,2.37-.05.08-.19.17-.16.28,0,.02.1.14.19.1.22-.08.52-.41,1.16-.26s1.05.75,1.37.84c.2.05.27.32,0,.46-.33.16-.29.47-1.04.87-.43.23-1.14.15-1.43.03-.37-.15-.45.05-.14.23.59.35.87.99.87,1.71,0,.28.25.53.05.73-.09.09-.24-.02-.47-.05-.36-.05-1.12.17-1.81-.35-.44-.33-.46-.93-.54-1.12-.11-.25-.2-.22-.25-.08-.05.14-.48.76-1.5.8-.61.03-.73,0-1.02.13-.29.13-.58-.06-.35-.34.26-.31,0-.46.27-1.42.08-.33.52-.99,1.13-1.17.22-.07.2-.18,0-.27-.74-.36-1.5-1.58-1.02-2.88M32.4,44.8c.31-.69.7-1.09,1-1.09.04,0,.1.18.37.38.11.08.2.16.03.26-.74.5-.92,1.54-.88,2.22,0,.07-.3.06-.46.02-.23-.06-1.95.78-2.91,1.73-.1.08-.32-.07-.08-.45.78-1.2,1.74-1.63,2.24-2.05.51-.42.5-.57.7-1.02M28.25,39.1c.65-.03.69-.28.93-.19.21.08.04.28.07.67.07.77,0,1.44-.77,2.16-.3.25-.25.54-.12.49.1-.03.29-.12.48-.2.87-.31,1.53.27,1.9.52.15.1.25.25.5.32.35.08.34.41.01.52-.38.14-.37.44-.84.97-.69.8-1.71.71-2.33.59-.33-.08-.39.03-.41.07-.08.22.56.94-.34,1.96-.46.52-.95.73-1.1,1.03-.09.18-.1.27-.27.29h-.05c-.17-.02-.17-.12-.27-.29-.16-.31-.65-.52-1.1-1.03-.9-1.02-.26-1.75-.34-1.96-.01-.04-.07-.16-.41-.07-.62.12-1.65.22-2.34-.59-.46-.54-.45-.84-.83-.97-.33-.12-.34-.44.01-.52.25-.07.35-.22.5-.32.37-.25,1.03-.84,1.9-.52.2.07.39.17.48.2.14.04.18-.24-.12-.49-.77-.72-.84-1.39-.77-2.16.04-.39-.14-.59.07-.67.24-.09.28.16.93.19,1.29.07,1.97.71,2.19,1.94.05.25.03.41.08.45.01,0,.02.01.04.02h0s.03,0,.04-.02c.06-.05.04-.2.08-.45.21-1.22.88-1.87,2.18-1.94"/>
  <path class="st0" d="M36.27,44.84c.42.35.95.41,1.18.14s.06-.78-.37-1.13c-.42-.35-.95-.41-1.18-.14-.22.28-.06.78.37,1.13"/>
  <path class="st0" d="M36.76,45.6c-.36-.1-1.07-.37-1.37-1.09-.07-.17-.09-.29-.12-.29s-.08.21-.08.3c0,.25,0,.63.35.97.29.28.56.31.93.3.27,0,.49-.08.5-.1.01-.03-.1-.06-.22-.09"/>
  <path class="st0" d="M35.11,42.29c.14.31.67.44.69.41,0,0-.12-.61-.46-1.07s-.75-.54-.88-.63c-.1-.07-.07.33.2.63.27.31.33.41.44.67"/>
  <path class="st0" d="M27.24,41.16c.25-.35.47-1.03,1.07-1.43.09-.03.12-.06,0-.06-.09,0-.35-.03-.7.1-.33.12-.62.44-.75.65-.16.27-.25.82-.21.99.01.06.39,0,.58-.25"/>
  <path class="st0" d="M25.9,35.4c-.77-.03-10.62-.25-18.27,3.1l-.31.14v25.76c0,3.36.55,7.05,4.54,11.26,3.17,3.34,10.17,7.14,13.83,8.75l.21.09.21-.09c3.67-1.61,10.66-5.41,13.82-8.75,3.99-4.21,4.54-7.9,4.54-11.26v-25.76l-.31-.14c-7.64-3.35-17.49-3.12-18.27-3.1M43.43,64.4c0,3.14-.52,6.6-4.26,10.54-2.99,3.16-9.63,6.79-13.28,8.41-6.66-2.96-11.67-6.72-13.28-8.42-3.74-3.94-4.26-7.39-4.26-10.54v-25.07c7.22-3.04,16.62-2.9,17.47-2.88h.12c.86-.02,10.25-.16,17.48,2.88v25.08Z"/>
  <path class="st0" d="M45.39,37.71l-.74-.32c-6.62-2.9-14.69-3.22-17.85-3.22h-1.82c-3.16,0-11.23.31-17.85,3.22l-.73.32-.31.13v26.56c0,3.61.59,7.58,4.88,12.09,3.29,3.47,10.47,7.37,14.23,9.02l.5.22.2.09.2-.09.5-.22c3.75-1.65,10.93-5.56,14.21-9.02,4.29-4.52,4.88-8.49,4.88-12.09v-26.56l-.3-.13ZM45.19,64.4c0,3.5-.58,7.35-4.74,11.75-3.23,3.41-10.34,7.27-14.05,8.9l-.5.22-.5-.22c-3.71-1.63-10.82-5.49-14.06-8.9-4.16-4.39-4.73-8.24-4.73-11.75v-26.23l.74-.32c6.53-2.86,14.51-3.17,17.65-3.17.46,0,.78,0,.91.01.13,0,.44-.01.9-.01,3.13,0,11.11.31,17.65,3.17l.74.32v26.23h0Z"/>
  <path class="st0" d="M12.66,56.32c-.04-.37-.43-.61-.77-.61-.2,0-.37.08-.49.22-.24.28-.02.76.07.91-.14-.05-.27-.07-.4-.07-.23,0-.61.09-.64.71.03.61.42.71.64.71.12,0,.25-.02.4-.07-.08.14-.31.62-.07.91.12.14.29.22.49.22.34,0,.73-.25.77-.61.01-.14,0-.4,0-.56h.76v-1.16h-.76c0-.16,0-.46,0-.59M11.96,58.02c-.3,0-.54-.24-.54-.52,0-.08.02-.16.06-.23.01.2.18.37.39.37s.4-.17.4-.39c0-.08-.03-.16-.08-.23.19.08.32.27.32.48,0,.29-.25.52-.55.52"/>
  <path class="st0" d="M12.66,66.27c-.04-.37-.43-.61-.77-.61-.2,0-.37.08-.49.22-.24.28-.02.76.07.91-.14-.05-.27-.07-.4-.07-.27,0-.61.12-.64.71.03.61.42.71.64.71.12,0,.25-.03.4-.07-.08.14-.31.62-.07.91.12.14.29.22.49.22.34,0,.73-.25.77-.61.01-.14,0-.4,0-.56h.76v-1.16h-.76c0-.16,0-.46,0-.59M11.96,67.97c-.3,0-.54-.24-.54-.52,0-.08.02-.16.06-.23.01.2.18.37.39.37s.4-.17.4-.39c0-.08-.03-.16-.08-.23.19.08.32.27.32.48,0,.29-.25.52-.55.52"/>
  <polygon class="st0" points="39.55 56.97 38.68 56.97 38.68 57.66 40.23 57.66 39.55 58.25 39.55 58.25 39.55 59.02 40.79 59.02 40.79 56.17 39.55 56.17 39.55 56.97"/>
  <path class="st0" d="M36.79,55.22v14.21l.42.52v-14.19l.45.59v14.25s-9.39,0-9.39,0c-.44.06-.61.32-.8.44-.02.01-.03.02-.05.02-.29.22-.76.42-1.47.42-.86,0-1.38-.26-1.65-.5-.17-.14-.37-.35-.81-.37h-9l-.03-14.33.43-.52v14.2l.42-.52v-14.18l.06-.07h-1.45v16.08h9.23c.2,0,.42.03.7.23.33.31,1.07.82,2.23.76.99-.05,1.59-.44,1.9-.73.37-.28.61-.26.87-.27h9.41v-16.07h-1.48l.02.04Z"/>
  <path class="st0" d="M12.66,61.3c-.04-.37-.43-.61-.77-.61-.2,0-.37.08-.49.22-.24.28-.02.76.07.91-.14-.05-.27-.07-.4-.07-.23,0-.61.09-.64.71.03.61.42.71.64.71.12,0,.25-.02.4-.07-.08.14-.31.62-.07.91.12.14.29.22.49.22.34,0,.73-.25.77-.61.01-.14,0-.4,0-.56h.76v-1.16h-.76c0-.17,0-.48-.01-.59M11.96,62.99c-.3,0-.54-.24-.54-.52,0-.08.02-.16.06-.23.01.2.18.37.39.37s.4-.17.4-.39c0-.08-.03-.16-.08-.23.19.08.32.27.32.48,0,.29-.25.52-.55.52"/>
  <polygon class="st0" points="39.55 66.98 38.68 66.98 38.68 67.67 40.23 67.67 39.55 68.26 39.55 68.26 39.55 69.03 40.79 69.03 40.79 66.18 39.55 66.18 39.55 66.98"/>
  <polygon class="st0" points="35.91 54.11 35.91 68.34 36.32 68.86 36.32 54.63 35.91 54.11"/>
  <polygon class="st0" points="39.55 61.98 38.68 61.98 38.68 62.67 40.23 62.67 39.55 63.25 39.55 63.25 39.55 64.02 40.79 64.02 40.79 61.18 39.55 61.18 39.55 61.98"/>
  <polygon class="st0" points="15.76 54.63 15.76 68.86 16.17 68.34 16.17 54.11 15.76 54.63"/>
  <path class="st0" d="M23.78,54.64c.32,0,.65.1.76.12.39.14.68.28.89.44v-.91c-.31-.33-1.15-1.01-2.75-.87-2.02.18-4.31,1.35-6.03.48v14.18c.31.25,2.03.6,4.16-.08,2.72-.87,3.97-.14,4.62.32v-1.07c-.27-.29-.79-.71-1.46-.86h-.02c-.18-.05-.32-.05-.39-.06-.03,0-.03,0-.01-.01.12-.03.26-.05.42-.05.24,0,.47.04.56.05.41.1.7.21.9.34v-.9c-.4-.41-1.2-.78-1.45-.83h-.02c-.2-.06-.35-.06-.42-.07-.02,0,0,0,0-.01.11-.03.25-.04.4-.04.23,0,.44.04.59.07.41.1.69.22.89.34v-.83c-.58-.63-1.25-.85-1.46-.91h-.02c-.18-.05-.33-.07-.41-.07-.02,0-.01,0,0-.01.11-.02.24-.03.37-.03.24,0,.47.04.62.07.41.11.7.22.9.35v-.86c-.35-.41-.86-.73-1.45-.9h-.02c-.19-.06-.34-.07-.42-.08-.01,0-.01,0,0,0,.1-.02.22-.03.35-.03.28,0,.54.06.65.08.41.12.69.23.89.36v-.84c-.5-.54-1.22-.84-1.45-.93h-.02c-.17-.05-.29-.07-.38-.08-.02,0-.03,0-.05,0-.01,0,0,0,0-.01.09-.02.2-.03.33-.03.29,0,.58.07.67.08.41.12.69.24.9.37v-.87c-.21-.24-.64-.65-1.39-.91l-.09-.03c-.18-.05-.33-.07-.4-.08-.03,0-.03-.01,0-.01.08-.01.18-.03.29-.03.3,0,.59.07.69.1.41.12.69.25.9.39v-.87c-.2-.24-.63-.64-1.42-.93l-.07-.02c-.17-.05-.31-.08-.4-.08-.02,0-.01-.01,0-.01.08-.01.16-.02.26-.02.31,0,.61.08.72.1.41.13.69.26.9.41v-.87c-.22-.27-.68-.71-1.45-.97h-.02c-.18-.07-.33-.08-.4-.1h-.01s-.01-.01,0-.01c.07-.01.16-.02.25-.02.31,0,.64.08.75.12.44.15.71.29.89.42v-.87c-.22-.27-.67-.71-1.45-.99h-.02c-.19-.07-.34-.1-.42-.11-.01,0-.01,0,0,0,.08,0,.16,0,.25,0M18.55,67.36h-.2c-.3-.01-.34-.02-.56-.06-.4-.08-.45-.39-.45-.4s0-.01,0-.01h.01s.05,0,.05,0c.16.06.52.16,1.12.16.27,0,.58-.02.9-.07.1,0,.35-.03.59-.09h0s.01,0,.01,0c0,.01-.34.41-1.49.46M18.55,65.9h-.05s-.07,0-.11,0h-.04c-.3-.01-.34-.02-.56-.06-.4-.08-.45-.39-.45-.4s0-.01,0-.01h.01s.05,0,.05,0c.16.06.52.16,1.12.16.27,0,.58-.02.9-.07.1,0,.35-.03.59-.09h0s.01,0,.01,0c0,.02-.34.41-1.49.46M18.55,64.44h-.05s-.07,0-.11,0h-.04c-.3-.01-.34-.02-.56-.06-.4-.08-.45-.39-.45-.4s0-.01,0-.01h.01s.05,0,.05,0c.16.06.52.16,1.12.16.27,0,.58-.02.9-.06.1,0,.35-.03.59-.09h0s.01,0,.01,0c0,.01-.34.41-1.49.46M18.55,62.97h-.2c-.3-.01-.34-.02-.56-.06-.4-.08-.45-.39-.45-.39,0,0,0-.01,0-.01h.01s.05,0,.05,0c.16.06.52.16,1.12.16.27,0,.58-.02.9-.07.1,0,.35-.03.59-.09h0s.01,0,.01,0c0,0-.34.4-1.49.45M18.55,61.51h-.2c-.3-.01-.34-.02-.56-.06-.4-.08-.45-.39-.45-.4s0-.01,0-.01h.01s.05,0,.05,0c.16.06.52.16,1.12.16.27,0,.58-.02.9-.07.1,0,.35-.03.59-.09h0s.01,0,.01,0c0,.01-.34.41-1.49.46M18.55,60.05h-.05s-.07,0-.11,0h-.04c-.3-.01-.34-.02-.56-.06-.4-.08-.45-.39-.45-.4s0-.01,0-.01h.01s.05,0,.05,0c.16.06.52.16,1.12.16.27,0,.58-.02.9-.07.1,0,.35-.03.59-.09h0s.01,0,.01,0c0,.02-.34.41-1.49.46M18.55,58.58h-.05s-.07,0-.11,0h-.04c-.3-.01-.34-.02-.56-.06-.4-.08-.45-.39-.45-.39,0,0,0-.01,0-.01h.01s.05,0,.05,0c.16.06.52.16,1.12.16.27,0,.58-.02.9-.06.1,0,.35-.03.59-.09h0s.01,0,.01,0c0,0-.34.4-1.49.45M18.55,57.12h-.05s-.07,0-.11,0h-.04c-.3-.01-.34-.02-.56-.06-.4-.08-.45-.39-.45-.4s0-.01,0-.01h.06c.16.07.52.17,1.12.17.27,0,.58-.02.9-.07.1,0,.35-.03.59-.09h0s.01,0,.01,0c0,.02-.34.41-1.49.46M18.55,55.66h-.2c-.3-.01-.34-.02-.56-.06-.4-.08-.45-.39-.45-.4s0-.01,0-.01h.06c.16.07.52.17,1.12.17.27,0,.58-.02.9-.06.1,0,.35-.03.59-.09h0s.01,0,.01,0c0,0-.34.39-1.49.44"/>
  <path class="st0" d="M31.25,68.01c2.12.68,3.85.33,4.16.08v-14.18c-1.72.86-4.01-.31-6.03-.48-1.63-.15-2.57.58-2.9.89v14.13c.59-.43,1.83-1.37,4.77-.43M28.44,54.61h.03s.03,0,.03,0c.23-.03.44-.05.65-.05.08,0,.18,0,.29,0,.59.07,1.24.23,1.92.5.5.2.98.35,1.44.46v.03c-.39-.03-.98-.09-1.58-.27-.75-.22-1.44-.33-2.07-.33-.25,0-.48.02-.71.05-.03,0-.06,0-.08,0-.27,0-.33-.29-.33-.29.12-.03.29-.08.42-.1M28.44,56.05h.03s.03,0,.03,0c.23-.03.44-.05.65-.05.08,0,.18,0,.29,0,.59.07,1.24.23,1.92.5.5.2.98.35,1.44.46v.03c-.59-.05-1.12-.13-1.58-.26-.75-.22-1.44-.33-2.07-.33-.25,0-.48.02-.71.05-.03,0-.06.01-.08.01-.27,0-.33-.29-.33-.29.11-.05.28-.09.41-.12M28.44,57.5s.03,0,.03,0h.03c.22-.03.43-.05.65-.05.08,0,.18,0,.29,0,.59.07,1.24.23,1.92.5.5.2.98.35,1.44.46v.03c-.44-.03-.97-.08-1.58-.26-.75-.22-1.44-.33-2.07-.33-.24,0-.48.02-.71.05-.03,0-.06.01-.09.01-.27,0-.33-.29-.33-.29.11-.05.28-.09.41-.11M28.44,58.94c.24-.04.47-.05.71-.05.08,0,.18,0,.29,0,.59.07,1.24.23,1.92.5.5.2.98.35,1.44.46v.03c-.59-.04-1.12-.13-1.58-.27-.75-.22-1.44-.33-2.07-.33-.24,0-.48.02-.71.06-.03,0-.06.01-.09.01-.27,0-.33-.29-.33-.29.11-.05.28-.1.41-.12M28.44,60.39c.24-.04.47-.05.71-.05.08,0,.18,0,.29,0,.59.07,1.24.23,1.92.5.5.2.98.35,1.44.46v.03c-.27-.02-.95-.08-1.58-.26-.75-.22-1.44-.33-2.07-.33-.24,0-.48.02-.71.06-.03,0-.07.01-.09.01-.27,0-.33-.29-.33-.29.11-.05.28-.1.41-.12M28.44,61.83c.24-.04.47-.05.71-.05.09,0,.18,0,.29,0,.59.07,1.24.23,1.92.5.5.2.98.35,1.44.46v.03c-.59-.05-1.12-.13-1.58-.27-.75-.22-1.44-.33-2.07-.33-.24,0-.47.02-.71.06-.03,0-.07.01-.09.01-.27,0-.33-.29-.33-.29.11-.05.28-.1.41-.12M28.44,63.28c.24-.04.47-.05.71-.05.08,0,.18,0,.29,0,.59.07,1.24.23,1.92.5.5.2.98.35,1.44.46v.03c-.32-.02-.95-.08-1.58-.27-.75-.22-1.44-.33-2.07-.33-.24,0-.48.02-.71.05-.03,0-.07.01-.09.01-.27,0-.33-.29-.33-.29.11-.05.28-.09.41-.11M28.44,64.72c.24-.04.47-.05.71-.05.08,0,.18,0,.29,0,.59.07,1.24.23,1.92.5.5.2.98.35,1.44.46v.03c-.59-.05-1.12-.13-1.58-.27-.75-.22-1.44-.33-2.07-.33-.25,0-.48.02-.71.05-.03,0-.07.01-.09.01-.27,0-.33-.29-.33-.29.11-.05.28-.09.41-.11M28.36,66.57c-.27,0-.33-.29-.33-.29.11-.04.27-.08.41-.11.24-.04.47-.05.71-.05.08,0,.18,0,.29,0,.59.06,1.24.23,1.92.5.5.2.98.35,1.44.46v.03c-.26-.02-.95-.08-1.58-.27-.75-.22-1.44-.33-2.07-.33-.24,0-.47.02-.71.05-.03,0-.07.01-.09.01"/>
</svg>