<?xml version="1.0" encoding="UTF-8"?>
<svg id="Layer_1" xmlns="http://www.w3.org/2000/svg" version="1.1" viewBox="0 0 235.9 56">
  <!-- Generator: Adobe Illustrator 29.0.1, SVG Export Plug-In . SVG Version: 2.1.0 Build 192)  -->
  <defs>
    <style>
      .st0 {
        fill: #b22417;
      }

      .st1 {
        fill: #c7c6c7;
      }

      .st2 {
        fill: #fff;
      }

      .st3 {
        fill: #010202;
      }

      .st4 {
        fill: #e42618;
      }

      .st5 {
        fill: #5692ce;
      }

      .st6 {
        fill: #1e1e1c;
      }

      .st7 {
        fill: #fcc307;
      }

      .st8 {
        fill: #bf6f15;
      }

      .st9 {
        fill: #0655a1;
      }
    </style>
  </defs>
  <path id="wordmarque" class="st3" d="M82.2,24.2h.2c2,0,2,1.4,2,5.3v4.5c0,3.9,0,5.3-2,5.3h-.2v.3h7.1v-.3h-.2c-2.1,0-2.1-1.5-2.1-5.6v-4c0-4,0-5.6,2.1-5.6h.2v-.3h-7.1v.4ZM73.9,31.3c2.7-.6,3.9-2,3.9-3.7,0-2.4-2-3.7-5.1-3.7h-7.4v.3h.2c2,0,2.1,1.4,2.1,5.3v4.5c0,3.9-.1,5.3-2.1,5.3h-.2v.3h7.2c1.7,0,3,0,4.3-.7,1.4-.6,2.4-2,2.4-3.6,0-2.1-1.8-3.9-5.3-4ZM70,24.6h1.2c2.6,0,3.9,1,3.9,3.2,0,2.4-1.3,3.3-4,3.3h-1.1v-6.5ZM72.3,39c-2.1,0-2.3-.7-2.3-3.7v-3.4h2.1c2.6,0,4.3,1,4.3,3.5s-1.3,3.6-4.1,3.6ZM105.3,36.4c-1.4-2.5-2.1-4.8-5-4.9,3.1-.4,4.5-1.8,4.5-3.9,0-3-2.9-3.7-5.2-3.7h-7.3v.3h.2c2,0,2.1,1.4,2.1,5.3v4.5c0,3.9-.1,5.3-2.1,5.3h-.2v.3h7.1v-.3h-.2c-2.1,0-2.1-1.5-2.1-5.6v-2h1.1c1.8.1,2.3.4,3.3,2.3.6,1.1,1.3,3.2,2.9,5.6h4v-.4c-1.2.2-2-.8-3.1-2.8ZM97.1,31.2v-6.5h1.2c2.5,0,3.7.9,3.7,3.4,0,2.3-1.3,3.1-3.9,3.1,0,0-1,0-1,0ZM230.1,11.8h-.2c-1.8,0-1.8-.9-1.8-3.9v-1.4c1.8.1,2.2.4,2.3,2h.3v-4.4h-.3c-.1,1.5-.4,1.8-2.3,1.8V1.4h1.2c2.1,0,3,.3,3.4,2h.3l-.1-2.7h-8.2v.4h.1c1.4,0,1.5.9,1.5,3.6v3.3c0,2.7-.1,3.6-1.5,3.6h-.1v.4h5.4v-.2h0ZM185.8,1.5h1.2v9.5c0,3.9-.1,5.3-2.1,5.3h-.2v.3h7.2v-.3h-.2c-2,0-2.1-1.4-2.1-5.3V1.5h1.2c2.9,0,3.5.8,4.1,3.9h.3V.8h-13.8v4.6h.3c.6-3.1,1.3-3.9,4.1-3.9ZM88.4,16.4c-2-.1-2.4-1.3-2.4-4.2V3.6l10.6,13.2h.7V5.4c0-3,.4-4.2,2.4-4.2v-.4h-5.5v.3c2,.1,2.4,1.3,2.4,4.2v6.9L87.2.8h-4.4v.3c2,.1,2.3,1.4,2.3,4.1v6.9c0,3-.4,4.2-2.4,4.2v.3h5.6v-.2h.1ZM179.9,16.4h-.2c-2.1,0-2.1-1.5-2.1-5.6v-4.1c0-4,0-5.6,2.1-5.6h.2v-.3h-7.1v.3h.2c2,0,2,1.4,2,5.3v4.6c0,3.9,0,5.3-2,5.3h-.2v.3h7.1s0-.2,0-.2ZM112.3,3.9l5,13.1h.5l4.5-11.5c1-2.6,1.8-4.1,3.5-4.3v-.4h-5.6v.3c1.3.1,1.8.5,1.8,1.7,0,.7-.2,1.8-.8,3.2l-2.7,6.8-3.4-8.6c-.4-1-.4-1.7-.4-1.8,0-.8.6-1.2,1.8-1.4v-.2h-6.9v.3c1.6.1,2,1,2.7,2.8ZM76.1,1.1c2,.1,2.3,1.3,2.3,4.2v5.1c0,.5,0,1.4-.1,1.9-.3,2.1-1.6,3.6-4,3.6-3,0-3.9-1.6-4.3-3.3-.1-.7-.1-1.4-.1-2v-4.2c.1-3.8.1-5.3,2.1-5.3h.2v-.3h-7.1v.3h.2c2.1,0,2.1,1.5,2.1,5.6v4.1c0,2.3.4,3.4,1.3,4.5,1,1.1,3,1.8,4.6,1.8,4.2,0,5.6-2.3,5.8-4.6.1-.7.1-1.4.1-2v-5c0-3,.4-4.2,2.4-4.2v-.5h-5.6v.3h.1ZM209.9,35.5l-4.8-11.9h-.5l-4.4,10.7c-1.1,2.6-2.1,5-3.7,5.2v.3h5.4v-.3c-1.1-.1-2-.7-2-1.7,0-.7.5-1.7,1.1-3.1l.2-.7h5.2l.8,2.2c.4.9.5,1.5.5,2-.1.8-.7,1.2-2,1.3v.3h7v-.3c-1.2-.1-2-2.1-2.8-4ZM201.6,33.2l2.4-5.8,2.3,5.8h-4.7ZM170.1,12.2c0-3.3-2.4-4-5-5.3-2-1-3.3-1.7-3.3-3.3,0-1.3,1.2-2.3,2.8-2.3,2.3,0,3.9,1.5,4.3,4.1h.3V.7h-.3c-.1.4-.2.7-.6.7-.7,0-1.6-.9-3.8-.9-2.5,0-4.8,1.9-4.8,4.2,0,2.8,1.8,3.6,4.8,5,2.1,1,3.3,1.8,3.3,3.6s-1.2,2.9-3.3,2.9c-2.7,0-4.2-1.8-4.8-4.8h-.3v5.1h.4c.1-.4.3-.7.7-.7.8,0,1.8,1,4.4,1,3.2.2,5.2-1.8,5.2-4.6h0ZM169.8,32.1c1.8.1,2.4.7,2.4,2.3v1.9c0,2.1-1.3,3.1-3.5,3.1-3.1,0-5.4-2.7-5.4-7.2,0-5.1,2.2-7.9,5.2-7.9,2.6,0,4.8,1.7,5.2,4.8h.3v-5h-.4c-.2.3-.4.5-.7.5-.9,0-2.3-1-4.5-1-4.6,0-8.2,3.5-8.2,8.6,0,4.5,3,8.1,7.7,8.1,1.9,0,3.4-.5,4.9-1.2.5-.2,1.1-.5,1.5-.4-.1-.8-.1-1.4-.1-1.8v-1.8c0-2.1.2-2.6,2.3-2.7v-.3h-7.1v.2c.3-.2.4-.2.4-.2h0ZM101.5,1.1h.2c2,0,2,1.4,2,5.3v4.6c0,3.9,0,5.3-2,5.3h-.2v.3h7.1v-.3h-.2c-2.1,0-2.1-1.5-2.1-5.6v-4c0-4,0-5.6,2.1-5.6h.2v-.3h-7.1s0,.3,0,.3ZM233.4,24.2h.2v-.3h-4.6l-5.2,12-4.8-12h-5v.3c1.2.1,1.8.2,2,.8.2.5.3,2.3.3,5.1v5.1c0,2.9-.3,4.2-2.4,4.2v.4h5.8v-.4c-2.3-.1-2.7-1.2-2.7-4.2v-9.1l5.5,13.7h.4l5.8-13.5v7.7c0,4,0,5.5-2.3,5.5v.3h7.1v-.3h-.2c-2.1,0-2.1-1.5-2.1-5.6v-4c.1-4.2.1-5.7,2.2-5.7h0ZM218.1,3.4c.4,0,.5,0,.8.1v-.4c-.2-.1-.8-.1-.9-.1-3,0-4.8,2.1-4.8,4.5,0,3.1,2.1,4.9,5.2,4.9s5.6-2.6,5.6-5.8c0-3.4-2.7-6.1-6.9-6.1-6.7,0-11,5.2-12.8,8.4l-3.1-5.4c-.2-.5-.4-1.1-.4-1.3,0-.7.5-1,1.7-1v-.4h-6.4v.3c1.2.1,1.7,1.1,2.6,2.7l3.6,6.2v2.1c0,3.1-.3,4.2-2.1,4.2h-.2v.3h7.1v-.3h-.2c-1.8,0-2.1-1.1-2.1-4.2v-2.4c1.6-2.7,5.9-8.4,12.1-8.4,3.1,0,5,1.6,5,5.3s-1.4,5.3-3.4,5.3c-2.1,0-3.3-1.7-3.3-4.5,0-2.5,1.6-4,2.9-4h0ZM188.7,24.2h.2c2,0,2.1,1.4,2.1,5.3v1.5h-8v-1.2c0-4,.1-5.6,2.1-5.6h.2v-.3h-7v.3h.2c2,0,2.1,1.4,2.1,5.3v4.5c0,3.9-.1,5.3-2.1,5.3h-.2v.3h7v-.3h-.2c-2.1,0-2.1-1.5-2.1-5.6v-2h8v2.3c0,3.9-.1,5.3-2.1,5.3h-.2v.3h7v-.3h-.2c-2,0-2.1-1.4-2.1-5.3v-4.5c0-3.9.1-5.3,2.1-5.3h.2v-.3h-7s0,.3,0,.3ZM131.9,24.2h.2c2,0,2,1.4,2,5.3v4.6c0,3.9,0,5.3-2,5.3h-.2v.3h7.1v-.3h-.2c-2.1,0-2.1-1.5-2.1-5.5v-4.1c0-4.1,0-5.6,2.1-5.6h.2v-.3h-7.1v.3ZM155.1,13.4c-1.4-2.5-2.1-4.8-5-4.9,3.1-.4,4.6-1.8,4.6-3.9,0-3-2.9-3.7-5.2-3.7h-7.3v.3h.2c2,0,2.1,1.4,2.1,5.3v4.5c0,3.9-.1,5.3-2.1,5.3h-.2v.3h7.1v-.3h-.3c-2.1,0-2.1-1.5-2.1-5.6v-2h1c1.8,0,2.3.4,3.3,2.3.6,1.1,1.3,3.2,2.8,5.6h4.3v-.3h-.1c-1.3.1-2-1-3.1-2.9ZM146.8,8.1V1.5h1.2c2.5,0,3.7.9,3.7,3.4,0,2.3-1.3,3.1-3.9,3.1h-1v.1ZM119.1,35.8l-4.8-11.9h-5v.3c1.2.1,1.8.2,2,.8.2.5.3,2.3.3,5.1v5.1c0,2.9-.3,4.2-2.4,4.2v.4h5.8v-.4c-2.3-.1-2.7-1.2-2.7-4.2v-9.1l5.5,13.6h.4l5.8-13.4v7.7c0,4,0,5.5-2.3,5.5v.3h7.1v-.3h-.2c-2.1,0-2.1-1.5-2.1-5.6v-4c0-4.1,0-5.6,2.1-5.6h.2v-.3h-4.6l-5.1,11.8h0ZM152.6,24.2c2,.1,2.4,1.3,2.4,4.2v6.9l-9.1-11.5h-4.4v.3c2,.1,2.3,1.4,2.3,4v6.9c0,3-.4,4.2-2.4,4.2v.3h5.5v-.3c-2-.1-2.4-1.3-2.4-4.2v-8.4l10.6,13.2h.7v-11.4c0-2.9.4-4.2,2.4-4.2v-.3h-5.5l-.1.3c.1,0,0,0,0,0ZM135,16c-3.1,0-3.4-.2-3.4-4v-3.2c2.8.1,3.7.5,3.9,2.9h.3v-6.2h-.3c-.1,2.2-1,2.6-3.9,2.7V1.5h2.3c3,0,4.4.5,4.9,3.1h.3l-.1-3.8h-12.2v.3h.2c2,0,2.1,1.4,2.1,5.3v4.6c0,3.9-.1,5.3-2.1,5.3h-.2v.3h13.3l.2-4.8h-.3c-.4,3.1-1.8,4.2-5,4.2Z"/>
  <g id="crest">
    <path id="black-background" class="st3" d="M44.5,36.5V.6H.6v35.9s.4,6.4,6.6,10.3c3.1,2,4.6,2.4,10,4.2,4.4,1.4,5.8,4.2,5.8,4.2,0,0,1.2-2.9,5.8-4.2,5.5-1.7,6.7-2.2,9.8-4.2,6.2-4,5.9-10.3,5.9-10.3Z"/>
    <path id="white-keyline" class="st2" d="M22.9,56l-.3-.5s-1.4-2.7-5.7-4.1l-.5-.2c-5-1.6-6.6-2.1-9.6-4C.4,43.2,0,36.6,0,36.6V0h45.1v36.5c0,.2,0,6.5-6.2,10.6-3.1,2-4.4,2.6-10.2,4.2-4.4,1.3-5.6,4-5.6,4,0,0-.2.7-.2.7ZM.6.6v35.9c0,.1.4,6.3,6.4,10.1,3,1.9,4.4,2.3,9.5,4l.5.2c3.5,1.1,5.2,3,5.8,3.9.6-.9,2.1-2.9,5.8-3.9,5.6-1.7,6.9-2.2,10-4.2,6.1-3.9,5.9-10,5.9-10V.6H.6Z"/>
    <path id="red-background" class="st4" d="M1.2,36.7l21.4-14.5V1.2H1.2v35.5Z"/>
    <path id="blue-background" class="st5" d="M43.9,36.7l-20.7-14.5V1.2h20.7v35.5Z"/>
    <path id="black-divider" class="st3" d="M22.4,1.1h.4v21.7h-.4V1.1Z"/>
    <path id="lion-red" class="st0" d="M19.2,7.1c-.1.4.1.6.3.8.1.1.5,1.1.3,1.1.3,0-.1-1.7-.1-1.9.1-.8,1.1-.7,1.2-1.4.1-.3,0-.7.2-1,.1-.1.5-.4.5-.3,0,0-.2.2-.2.3-.1.2.1.5.1.7.2.7-.2,1-.6,1.4-.2.2-.2.5-.2.8,0,.1.1.5.2.5s.1-.4.1-.4c.1-.2.3-.5.5-.6-.4.5.1,1.1.2,1.6.2.8,0,1.5-.5,2.1-.5.5-1.2.7-2,.6s-1.6.1-1.3,1c.2.7,1,.9,1.4,1.4.5.6.9,1.5.8,2.3,0,.7-.4,1.4-1,1.8-.5.4-1.2.6-1.7.1-.2.2-.2.5-.7.4-.4-.1-.8-.7-1-1,0,.4.1.9-.1,1.3.5-.1.1.2.3.5.1.2.4.1.6.1.4-.1.9-.1,1,.4.1.3-.1.7.1,1,.2.2.5.1.7.2.4.3-.2.4-.3.5-.2.4.4.7.4,1,0,.2-.4.5-.5.5.1.4.2.7,0,1l-.2.2c-.1.1-.1.4-.3.5-.2,0-.1-.7-.2-.1,0,.2,0,.5-.3.6-.2.1-.2,0-.4.1s-.5.7-.7.5c-.1-.1,0-.4-.2-.5-.1.1-.1.2-.2.2-.1.1-.2-.1-.3,0s-.5.4-.6.5c-.1.2-.1.6-.2.4-.2-.2-.1-.9,0-1.1-.3.1-.4-.2-.7,0-.2.1-.4.3-.4.5-.1.1-.1-.8,0-1,.1-.1.1-.2.2-.4.1-.1.1-.2.2-.4-.1,0-.2,0-.4.1-.1,0-.4.2-.4.2-.2-.1.6-1.7.8-1,.2-.3.4-.6.8-.5.2.1.5.5.7.4s0-.9-.1-1c-.1-.4-.5-.9-.8-1.2-.4-.4-1-.4-1.4-.5-.5-.2-.8-.5-1.1-1-.1-.2-.2-.4-.2-.7,0-.1.1-.4-.1-.4-.1,0-.3.4-.4.4-.2.1-.4.1-.5.1.3.5.2,1.4-.5,1.5.4.7-.2,1.4-.7,1.8,0,0-.1-.6-.2-.7.1.4-.1.8-.4,1.1-.1.1-.4.4-.6.2-.1,0,0-.5-.1-.6-.1.4-.5.7-.8.7-.2,0-.4-.1-.5-.1l-.4.2c-.2.2-.1.5-.3.3-.2-.2-.2-.6-.2-.9q.3-.3.2-.3t-.4.1c-.2.1-.5.3-.5.5,0-.2-.1-.4-.2-.6,0-.2.1-.4.1-.7.1-.2.2-.5,0-.6-.2.2-.7.1-.8.5-.1-.1-.1-.5-.1-.7.1-.2.3-.5.5-.6s.2,0,.3-.2c.1-.1,0-.3.1-.4-.2-.1-.4-.1-.7,0,.1-.2.4-.4.6-.5s.4,0,.5,0,.3-.1.4-.1c.3,0,.5.1.7.3.2.3.4.7.8.6.5-.1.8-.7.9-1.2.2-1.1-.4-2.3.5-3.1.4-.4,1-.4,1.5-.2.4.1,1.1.4,1.4,0-.7-.1-1.3-.1-1.6-1,0,.2-.3.9-.5.7-.1-.1,0-.4-.1-.5,0-.2-.1-.3-.3-.3-.2.6-.6.5-1,.8-.2.1-.5.6-.7.4-.2.2-.4.4-.7.6-.2.2-.4.4-.4-.1h.1c-.1.2-.2.4-.4.5,0,0-.3.2-.4.1,0-.1.2-.3.1-.5-.1.2-.2.3-.4.4-.1.1-.2.1-.3.1s-.1-.1-.1-.1c-.2,0-.3.3-.7.2-.1-.1-.3-.2-.4-.2-.2,0-.3.4-.5.5s-.1.2-.2,0c-.1-.1-.1-.4-.1-.6-.3.1-.4-.1-.7-.2-.3-.1-.6.4-.7.6-.2-.5,0-1.1.5-1.4-.3.1-.3-.3-.2-.5-.1,0-.2.2-.3.2s.1-.4.1-.4c.1-.2.3-.2.5-.4s.3-.4.6-.4c.7-.1,1.2.4,1.8.2.3-.1.6-.2.8-.5.1-.1.7-.7.6-.8.1.1-.9.4-1,.4s-1.3-.1-1.2-.1c-.1-.2.8-.5,1-.6.4-.1.5-.2.7-.5-.2-.1-.4,0-.7-.1-.4-.1-.8-.6-1.2-.5,0-.2.4-.4.6-.4v-.1c-.2,0-1.2-.1-.9-.4-.2-.1-.4,0-.6-.2.2,0,.1-.1,0-.1-.1-.1,0-.1,0-.1-.1-.4,0-.2-.3-.2-.1-.1-.3-.2-.4-.2s-.2.1-.2,0c-.2-.1.3-.6.5-.6-.1-.3,0-.2-.2-.4-.1,0-.3-.1-.4-.1h-.4c-.1-.2.4-.5.4-.5.2-.1.4-.1.6,0-.2-.3.1-.5.1-.7s-.6-.4-.5-.4c0-.2.8-.1,1-.1.1-.1.2.1.3.1-.1,0,.2-.5.2-.5,0-.3-.5-.2-.5-.3s.5-.3.6-.3c.4,0,.5.3.8.5s.5.2.6.7c.1.4-.1.7-.1,1.1-.2.8.7.5,1.2.8.2.1.4.2.6.3h.5c.2,0,.7,0,.7.3.3-.3.9-.3,1.2-.6.1-.3.3-.6,0-.7-.4-.2-.8.3-1.2.4-.7.4-1.4-.4-1.2-1.2.1-.2.2-.5.1-.7-.1,0-.5-.1-.6-.3-.2-.1-.5-.4-.7-.4.5-.4.8-.1,1.2,0,0-.1-.1-.2-.1-.4s.2-.4.1-.5c-.1-.2-.3-.3-.2-.6.2-.7,1.3-.4,1.8-.5.4-.1.5-.3.9-.5s1,0,1.4-.2c.4-.1.8-.4,1.2-.4.1,0,.8-.1.9.1,0,0-.2.4-.2.5-.1.1,0,.3,0,.4.1-.1.3-.5.4-.5l.1.4c.4-.2.7-.2,1.1-.2.5,0,.8-.1,1.3-.3.2-.1.9-.5,1.1-.4.1.1.1.4.1.5.2-.1.7-.3.8-.1,0,.1-.2.2-.2.2-.1.2-.1.4,0,.5.1.2.2.5.1.8,0,.2-.2.4-.2.5,0,.2.3.5.4.7.1.4.2.7.4,1,.1.2.4.8.2,1-.1.2-.2-.4-.2-.4-.2-.2-.6-.3-.8-.4.4.5,0,1.5.6,1.8l.1-.1q.1.1-.1.2c-.2.2-.7.1-.9,0-.2.4.4,1.5.1,1.8s-.8-.4-1-.6c0,.7-.6.8-.8,1.4,0,.1.1.2,0,.2s-.2-.1-.3-.2c-.2-.2-.2-.5-.2-.8-.2.2-.5.3-.4.7.1.5.5,1,.7,1.4.5.8.5,1.7.7,2.6.4-.6,1.2.4,1.5.7.5.5,1.4,1.1,2,.6,1-.9.1-2.6-.7-3.3-.5-.5-1-.9-1.1-1.7,0-.4.1-.7.2-1,.1-.1.2-.2.2-.3.1-.2.2-.3.2-.5.3-.6,1.1-.6,1.3-1.2.2-.1-.5-1.2.1-1.6,0,.1,0,0,0,0Z"/>
    <path id="lion-yellow" class="st7" d="M19.1,6.9c-.1.3.1.5.2.8.2.4.3.7.2,1.1h.1c.3-.4-.1-1.1-.1-1.5-.1-.7.1-1,.7-1.2s.5-.6.6-1.1c.1-.2.1-.4.3-.6l.4-.2s-.2.2-.2.3c-.1.2.1.5.1.7.2.7-.2,1-.6,1.4-.2.2-.2.5-.2.8,0,.1.1.5.2.5s.1-.4.1-.4c.1-.2.3-.5.5-.6-.4.5.1,1.1.2,1.6.2.8,0,1.5-.5,2.1-.5.5-1.2.7-2,.6s-1.6.1-1.3,1c.2.7,1,.9,1.4,1.4.5.6.9,1.5.8,2.3,0,.7-.4,1.4-1,1.8-.5.4-1.2.6-1.7.1-.2.2-.2.5-.7.4-.4-.1-.8-.7-1-1,0,.4.1.9-.1,1.3.5-.1.1.2.3.5.1.2.4.1.6.1.4-.1.9-.1,1,.4.1.3-.1.7.1,1,.2.2.5.1.7.2.4.3-.2.4-.3.5-.2.4.4.7.4,1,0,.2-.4.5-.5.5.1.4.2.7,0,1l-.2.2c-.1.1-.1.4-.3.5-.1,0-.1-.3-.1-.4h-.2c0,.4.1.7-.4.8-.1,0-.1-.1-.2,0s-.4.2-.4.3c-.2.2-.2.4-.3.1-.1-.2,0-.3-.2-.4-.1.1-.1.2-.2.2-.1.1-.2-.1-.3,0s-.5.4-.6.5c-.1.2-.1.6-.2.4-.2-.2-.1-.9,0-1.1-.3.1-.4-.2-.7,0-.2.1-.4.3-.4.5-.1.1-.1-.8,0-1,.1-.1.1-.2.2-.4.1-.1.1-.2.2-.4-.1,0-.2,0-.4.1-.1,0-.4.2-.4.2-.2-.1.6-1.7.8-1,.2-.3.4-.6.8-.5.2.1.5.5.7.4s0-.9-.1-1c-.1-.4-.5-.9-.8-1.2-.1-.5-.7-.5-1.1-.7-.5-.2-.8-.5-1.1-1-.1-.2-.2-.4-.2-.7,0-.1.1-.4-.1-.4-.1,0-.3.4-.4.4-.2.1-.4.1-.5.1.3.5.2,1.4-.5,1.5.4.7-.2,1.4-.7,1.8,0,0-.1-.6-.2-.7.1.4-.1.8-.4,1.1-.1.1-.4.4-.6.2-.1,0,0-.5-.1-.6-.1.4-.4.6-.7.7-.2.1-.4-.1-.7-.1l-.4.2c-.2.2-.1.6-.4.3,0-.2-.1-.6,0-.9-.1,0-.2-.1-.2-.1q-.2-.1-.4.1c-.2.1-.5.3-.5.5,0-.2-.1-.4-.2-.6,0-.2.1-.4.1-.7.1-.2.2-.5,0-.6-.2.2-.7.1-.8.5-.1-.1-.1-.5-.1-.7.1-.1.3-.4.6-.5.2-.1.2,0,.3-.2.1-.1,0-.3.1-.4-.2-.1-.4-.1-.7,0,.1-.2.4-.4.6-.5s.4,0,.5,0,.3-.1.4-.1c.3,0,.5.1.7.3.2.3.4.7.8.6.5-.1.8-.7.9-1.2.3-1.1-.4-2.3.5-3.1.4-.4,1-.4,1.5-.2.4.1,1.1.4,1.4,0-.7-.1-1.3-.1-1.6-1,0,.2-.3.9-.5.7-.1-.1,0-.4-.1-.5-.1-.2-.2-.3-.4-.4-.2.6-.6.5-1,.8-.2.1-.5.6-.7.4-.2.2-.4.4-.7.5-.2.2-.4.4-.4-.1h-.1c-.1.2-.2.4-.4.5,0,0-.3.2-.4.1,0-.1.2-.3.2-.5-.2.3-.4.4-.7.4-.1,0,0-.2-.1-.1-.1,0-.1.1-.1.2q-.1.1-.3.1c-.1,0-.3-.2-.4-.2-.2,0-.6.5-.5.7-.2-.2-.4-.5-.3-.8-.3.1-.4-.1-.7-.2-.3-.1-.6.4-.7.6-.2-.5,0-1.1.5-1.4-.1.1-.1-.2-.1-.5-.1,0-.2.2-.3.2-.3-.1,1-1.1,1.1-1.1.7-.2,1.2.4,1.9.2.3-.1.6-.2.8-.5.1-.1.7-.8.7-.8,0,0-.8.3-1,.3-.1,0-1.4-.1-1.3-.1-.1-.3.8-.5,1-.6.4-.1.5-.2.7-.5-.2-.1-.4,0-.7-.1-.4-.1-.8-.6-1.2-.5.1-.2.3-.2.4-.4.2-.2,0-.1-.2-.1-.2-.1-.4-.1-.6-.3,0,0,.2,0,.1-.1-.1,0-.4.1-.4,0-.1,0-.2-.1-.3-.1q-.1-.2-.1-.3c-.1-.3,0-.1-.3-.2-.2,0-.3-.1-.4-.1h-.2c-.2-.2.4-.6.6-.6-.2-.3,0-.3-.3-.4-.1-.1-.2-.2-.4-.2h-.4c0-.1.4-.4.5-.4.2-.1.4-.1.6,0-.2-.3,0-.5,0-.7s-.6-.4-.5-.4c0-.2.8-.1,1-.1.1,0,.2.3.3.2,0-.1.2-.5.2-.5,0-.3-.5-.2-.5-.3-.1-.1.5-.2.6-.2.4,0,.5.3.8.5s.5.2.6.7c.1.4-.1.7-.1,1.1-.2.8.6.5,1.2.7.2.1.4.2.6.3s.4,0,.5,0c.2,0,.7.1.7.4.3-.3.9-.3,1.1-.7.2-.2.3-.5,0-.7-.4-.1-.7.4-1,.5-.8.4-1.4-.5-1.3-1.2.1-.2.2-.5.1-.7-.1-.1-.5-.2-.6-.3-.2-.2-.4-.4-.7-.4.5-.4.8-.1,1.2,0v-.4c0-.1.1-.4.1-.5-.1-.2-.4-.4-.3-.6,0-.7,1.1-.4,1.7-.5.4-.1.5-.3.9-.5s1,0,1.4-.2c.4-.1.8-.4,1.2-.4.1,0,.8-.1.9.1,0,0-.2.4-.2.5-.1.1,0,.3,0,.4,0-.1.3-.5.3-.5,0,0,.1.4.1.5.4-.2.7-.2,1.1-.2.5,0,.8-.1,1.3-.3.2-.1.9-.5,1.1-.4.1.1.1.4.1.5,0-.1.6-.3.7-.1l-.1.1c-.1.2-.2.3-.2.5s.2.5.2.7-.1.4-.1.6c0,.1-.1.1-.1.2s.3.4.4.5c.2.4.2.7.4,1,.1.2.4.7.2,1-.2.4-.1-.2-.2-.3-.2-.2-.6-.4-.8-.4.4.5,0,1.5.6,1.8l.1-.1q.1.1-.1.2c-.2.2-.7.1-.9,0-.2.4.4,1.5.1,1.8s-.8-.4-1-.6c-.1.7-.6.8-.8,1.4,0,.1.1.2,0,.2s-.2-.1-.3-.2c-.2-.2-.2-.5-.2-.8-.2.2-.5.3-.4.7.1.5.5,1,.7,1.4.5.8.6,1.7.7,2.6.4-.6,1.2.4,1.5.7.5.5,1.4,1.1,2,.6,1-.9.1-2.5-.7-3.2-.5-.5-1-.8-1.1-1.5-.1-.4,0-.8.2-1.1.1-.1.2-.2.3-.4.1-.1.1-.3.2-.5.3-.6,1.1-.6,1.3-1.2.4-.4-.4-1.5.3-1.8-.1.1,0,0,0,0h0ZM21.3,6.8q0-.1,0,0Z"/>
    <path id="lion-blue" class="st9" d="M2.8,6.6c.1-.5-.7-.4-1-.4.4.1.9.9,1,.4ZM3.5,15.1c-.5,0-.4,1-.3,1.2.1-.1.8-1.1.3-1.2ZM3.8,5.9c.1-.4-.7-.4-.7-.4-.1-.1.5.9.7.4ZM2.5,13.7c-.4,0-.6.2-.7.4.2-.1.8.2.9-.4-.1.1-.1,0-.2,0ZM2.4,14.8c-.5-.2-.7.7-.7,1.1.2-.3.4-.4.6-.6.1,0,.4-.3.1-.5ZM2.1,7.9c.4,0,.1-.7-.5-.4,0,.1-.3.2-.2.3l.7.1ZM4.2,19s1.3.2,1.1-.2c.1,0-.3-.5-1.1.2ZM2.4,9c.3,0,.4-.4.1-.5-.3-.1-.5.2-.8.3.3,0,.4.2.7.2ZM4.8,20c-.4-.7-1.1.8-.8.8.1-.3,1-.4.8-.8ZM14.5,24.4c-.2,0-.4.3-.4.5s.1.4.1.5c0-.1.4-.4.4-.5.1-.1.3-.4-.1-.5ZM13.5,23.9c-.5-.1-.5.8-.5,1,.1-.1.3-.3.4-.4.3-.3.3-.6.1-.6ZM13.5,22.7c-.4-.4-.7.5-.8.6.1-.1.5-.1.7-.1.2-.1.3-.3.1-.5ZM15.7,24.9c.2-.4.7-.4.4-.9-.2.2-.5.3-.4.9ZM7.4,5.5c-.5.1-.7.3-1.2.1-.2-.1-.4-.2-.6-.1-.1,0-.2,0-.4.1.3,0,.7.4.9.5.5.3.8,0,1.4-.1.1.1.5.2.5-.1s-.3-.5-.6-.4ZM5.3,21c-.6-.2-.7.9-.7,1.2.2-.4.5-.4.7-.6.3-.2.3-.5,0-.6-.1-.1.4.1,0,0ZM6.5,21.6c-.7-.2-.4,1-.3,1.2,0-.4.2-.4.4-.7.2-.1.2-.4-.1-.5ZM11,5.8c-.3.1-.6.1-.9-.1-.2,0-.6-.3-.8-.2-.3.1.1.3.3.4.2.2.5.4.8.4h.6c.1,0,.2-.1.3,0,.1,0,.2.1.2.1.2-.1.3-.3.1-.5-.1-.3-.4-.1-.6-.1Z"/>
    <path id="lion-custard" class="st8" d="M14.6,15.9c.1.2.1-.7.1-.8,0,0-.2.6-.1.8ZM4.2,9c.3-.3-.7-.1-.8-.1s-.1,0-.1.1c.1,0,.9.1.9,0ZM4.8,9.4c0-.1-.5.1-.6.1s-.1,0-.1.1c.1.1.8.1.7-.2ZM15,19.4c0-.1-.2.3-.1.4.1.2.1-.3.1-.4ZM4.6,9.7c-.1,0,.4.2.4,0,.3-.2-.4,0-.4,0ZM3.2,16.1l-.6-7.7.6,7.7ZM5.2,17c.2-.4-.6-.1-.8-.1h-.1c0-.1.7.4.9.1ZM3.3,15s-.1.1,0,0ZM9.4,18.9c0,.1.1.2.1.4,0,.1,0,.3-.1.4,0-.1-.1-.5-.2-.5.1,0,0,.7-.1.8,0-.1-.1-.6-.2-.6.1,0,.1.6.1.7v-.3c0-.3-.2.2-.2.2,0,.1-.3.6-.3.5.1.2,1-.4,1.1-.5.1-.2.2-.5.1-.7,0-.1-.3-.5-.3-.4ZM16.7,21.1c.1.4,0,.8-.1,1.2,0,.2-.3.8-.2.9.4.2.5-1.8.5-2,0,0,.3.4.4.4,0,0-.4-.5-.4-.7,0,0,0-.1,0,0v-.1c.2.1.5.4.3.1-.1-.2-.4-.4-.5-.5,0,0,.3.2.4.1,0,0-.4-.5-.4-.6s.1-.4,0-.5-.4-.1-.5-.1c-.3.1,0,.5.1.7.2.4.3.7.4,1.1ZM15.5,18.9q.1.1.1.2c0-.1-.1-.2-.1-.2ZM15.6,19.5c0,.2-.2.5-.1.7.2.2.2-.4.2-.4,0-.3-.1-.5-.2-.8-.1-.1,0,.2,0,.2,0,0,.1.2.1.3ZM15.1,20c.2.2.2-.7.2-.8,0,0,0,.1,0,0,0-.2-.1,0-.1,0-.1.1,0,.2,0,.4,0,0-.1.3-.1.4ZM15,19.3s0-.1,0,0ZM15.1,9.7l6.5-1.4c-.1-.4-.4-.7-.4-1.1,0-.1.1-.5.1-.5-.1-.1-.5.4-.5.5-.1.2-.1.4-.1.6-.1-.3-.2-.7-.1-.9.1-.4.5-.5.7-.9.2-.5.1-.7,0-1.1,0-.1-.1-.4,0-.4,0-.1.2-.3.2-.3-.1-.2-.5.1-.5.1-.2.2-.2.4-.3.7-.1.5-.1.8-.6,1-.5.3-.8.5-.7,1.2.1.5.4,1.1.1,1.5.1-.7-.1-.8-.4-1.4-.1-.2.1-.7-.2-.4-.6.7.4,1.5-.2,2.1-.2.2-.7.3-.9.5-.1.1-.2.3-.3.5-.1.2-.1.3-.2.4-.5.6-.6,1.4-.2,2.1s1.2,1.1,1.5,1.8c.3.6.5,1.1.3,1.8-.8,2.2-3-1.8-3.7-.8.1-1-.1-2-.7-2.8-.4-.5-.9-1.2-.2-1.7-.1.3.1.6.2.8.3.2.4.1.4-.1s.1-.4.4-.6c.2-.2.4-.4.4-.7.1.3.8.8,1,.4.2-.5-.4-1.1-.1-1.6.2.2.7.2.9,0,.1-.1.2-.2.2-.3s-.2.1-.2,0c-.5-.2-.2-1.2-.5-1.7.4.1.7.2.8.6,0,.1,0,.2.1.2.2.1.2-.2.2-.2.1-.3-.1-.7-.2-1-.2-.4-.2-.7-.4-1.1-.1-.1-.3-.4-.4-.5,0-.1.1-.2.1-.2.1-.4.1-.7-.1-1.1-.1-.2,0-.3.1-.5.1-.1.2-.2.1-.3-.1-.2-.6,0-.7.1.3-1-.7-.4-1.3-.1-.4.2-.7.2-1.2.2-.4,0-.8,0-1.1.2,0,0,0-.4-.1-.4-.2-.1-.3.3-.4.4,0-.2,0-.4.1-.6s.2-.2-.1-.2c-.3-.1-.8,0-1.1.1-.4.1-.7.4-1,.4-.8.1-1.3,0-1.8.3-.4.2-.6.3-1.1.4-.3,0-.7-.1-1,.1-.3.1-.6.3-.4.7q.1.2.2.4c0,.2-.1.4.1.7-.5-.1-.6-.3-1-.1-.1,0-.3.2-.4.2.4-.1.8.4,1.1.6.1.1.2.1.3.2.1.2,0,.4-.1.6-.1.7.5,1.5,1.3,1.2.3-.1.5-.3.8-.4s.6.2.4.5c-.2.4-.8.3-1.2.6,0-.4-.8-.2-1-.2-.4,0-.7-.4-1.2-.4-.3-.1-.7,0-.8-.3-.1-.3,0-.8.1-1.1.1-.4,0-.8-.4-1.1-.1,0-.3,0-.3-.1-.1,0-.1-.2-.1-.2-.2-.1-.4-.3-.6-.3-.1,0-.4.1-.5.2-.3.2.4.2.4.4,0,.1-.2.3-.2.5,0,0-.1-.2-.3-.3-.1,0-.3-.1-.4-.1s-.5.1-.6.1c0,.3.4.3.5.5.1.2-.1.5,0,.7-.2-.1-1,0-1,.5,0,0,.6.1.7.1.1.1.4.3.3.5-.1.1-.8.3-.5.6l.4.1c.2.1.4,0,.5.2-.1.1.1.4.2.4.2.2.4.2.6.2-.4.4.7.5.9.5-.1.1-.7.2-.6.5,0,0,.5.1.6.2.2.1.4.3.7.4.2.1.4,0,.5.1-.2.4-.6.4-1,.5-.1.1-.8.4-.7.6.1.1.4,0,.5,0,.2,0,.4,0,.6.1.5.1.7,0,1.1-.2-.4.4-.5.8-1,1-.2.1-.4.2-.6.2-.3,0-.5-.2-.8-.2-.7-.1-.7,0-1.2.3-.2.1-.7.4-.8.7,0,.4.1.1.3.1-.1.1-.1.5.1.5-.2.1-.4.3-.4.5-.1.1-.2,1,.1.9.1,0,.1-.3.2-.4s.2-.2.4-.2c.2-.1.4.2.8.2-.1-.2-.1.4.2.4-.1,0,.1-.5.1-.5.1-.1.1-.2.2-.2.1-.1.1,0,.2.1.3.1.6.2.8-.2.1.4.6.1.7-.1,0,.2-.4.5.2.3.2-.1.4-.4.5-.6,0,.4.2.2.5.1.3-.2.6-.5.7-.5.2-.1.3-.1.4-.2q.2-.2.5-.3c.4-.2.7-.3.8-.7.2.1.3.3.4.5,0,.1-.1.4,0,.4.2.2.5-.4.5-.6.3.7.9.8,1.5.8-.2.4-1.1,0-1.4-.1-.5-.1-1.1-.1-1.5.4-.8.9-.1,2.1-.4,3.1-.1.5-.7,1.4-1.2,1-.4-.2-.4-.7-.8-.8-.2-.1-.5.1-.7.1-.3,0-.5-.1-.8.2-.1.1-.4.3-.3.4,0,0,.5-.1.6,0-.1.2,0,.4-.2.5-.3.2-.4.3-.6.4-.2.2-.4,1-.1,1-.1,0,.5-.4.6-.4.4-.1.2-.1.2.2,0,.4-.2.7-.1,1,0,.1.1.5.2.5s.4-.5.5-.5c.2-.1.5-.2.6,0,.1.1,0,1,.4,1,.1,0,.1-.4.2-.5.2-.1.5-.2.6-.1.6.1,1,.1,1.1-.5.1.2,0,.5.2.5.1.1.4-.2.6-.3.2-.2.4-.6.4-1,.2.4,0,1,.5.3.3-.4.6-1,.4-1.5.7-.1.8-1,.5-1.5.4,0,.7-.2.9-.5-.1.6.2,1.2.6,1.6.5.5,1,.5,1.6.8.5.2.8.7,1.1,1.2.2.3.4,1,.2,1.3-.3-.1-.4-.4-.7-.5-.4-.1-.6.2-.8.4-.2-.5-.7.5-.8.8,0,.1-.1.2,0,.2.1.1.5-.3.7-.3-.1.2-.1.3-.2.5s-.2.2-.2.5c0,.1-.1.8.1.8.1,0,.1-.4.3-.5.1-.1.3-.1.4-.1s.2.1.4.1c-.1.2-.2,1,.1,1.2.2.2.2-.2.2-.3.1-.2.1-.3.3-.4l.4-.2c.1-.1.2.1.3,0s.2-.2.3-.1,0,.3.1.4c.2.3.2,0,.4-.2.1-.1.2-.2.3-.2.1-.1.3,0,.4-.1.4-.2.2-.5.2-.8.1.1,0,.4.1.4.1.1.2-.2.3-.3s.1-.2.1-.2l.1-.1c.2-.3.1-.5.1-.8,0-.2-.1-.1.1-.3l.2-.2c.1-.1.2-.2.2-.4,0-.1-.2-.3-.3-.4-.1-.1-.1-.2-.1-.4.1-.2.1-.1.1-.2.1-.1.4-.2.2-.5-.1-.2-.4-.1-.6-.1-.5-.2-.1-.7-.2-1.1-.2-.7-1-.1-1.4-.3-.5-.1.1-.6-.5-.6.1-.4.1-.8.1-1.2.4.5,1.2,1.5,1.7.5.5.5,1.5.1,2-.4.6-.5.8-1.3.7-2.1-.1-.8-.4-1.5-1-2.1-.4-.4-1.1-.7-1.2-1.3-.2-1,.8-.9,1.5-.8.7.1,1.4-.2,1.9-.7.1-.6.2-1.3.1-2l-6.5,1.4ZM16,10.6c-.1,0-.2-.1-.4-.1-.2-.1-.2-.6-.4-.7.1.1-.2.7-.2.8-.3.3-.7.4-.7,1-.3-.2-.1-.7.1-.8.2-.3.5-.5.5-.9.3-.2.5-.5.6-.9,0,.2-.2,1.4.3,1.5-.3,0,0-1.6,0-1.8.2,0,.2.1.3.1q-.1.1-.1.2v.4c0,.3.2.6.2.9s0,.3-.2.3ZM16.6,7.8c0,.4,0,.9.4,1-.4.1-.7-.1-.8-.4-.2-.4-.1-.7-.1-1.2.1.1.4,1.4.5,1.4-.1.1-.1-.7,0-.8-.1-.5-.2-.5-.4-.8q-.1-.1,0-.2c.2.3.4.6.4,1ZM5.4,5.5c.5-.1.9.3,1.5.2.2-.1.5-.3.8-.2.2,0,.5.3.2.5-.2-.3-1,.1-1.2.1-.6,0-.8-.5-1.3-.6ZM3.8,5.9c-.2.3-.5-.3-.6-.3.1-.1.7,0,.6.3ZM3,6.6c.2,0,.5.2.7.3.3.2.4.5.4.9-.2-.7-1.1-.6-1.7-.4,0-.2-.1-.3,0-.5v-.1c.1.1.2.1.3.1.2-.1.3-.3.3-.3ZM2,6.2c.2-.1,1,.1.8.4s-.6-.3-.8-.4ZM1.4,7.7c.1-.1.8-.4.9-.1,0,.5-.8.1-.9.1ZM1.8,8.8c.2-.1.8-.4.8-.1,0,.4-.6.1-.8.1ZM2.6,8.4c-.5-.2.2-.6-.2-1,.5-.1,1.4-.2,1.5.5-.5-.3-.9.3-1.3.5q0-.1,0,0ZM5.2,11c-.4,0-.7-.4-1.2-.3.4-.2.8-.1,1.1-.4.1-.1-.5-.1-.5-.1-.4-.1-.7-.1-1.1-.1.1-.1.4-.5.1-.5-.1,0-.2.1-.4.2,0-.1-.2-.1-.3-.2.2,0,.3-.1.2-.2,0-.1-.4-.1-.4-.2.3-.2.3-.5.1-.7.3-.1.7-.5,1-.4.2.1.4.6.4.6.2,0-.1-.5-.1-.6.3-.1.2-.8.1-1.1-.1-.3-.3-.3-.6-.4-.2-.1-.2,0-.2-.2,0-.1,0-.2.1-.3.1,0,.7.1.5-.2.5.2.7.6.7,1.1-.1.5-.2,1,.1,1.4.2.2.4.1.7.2.3,0,.5.1.8.2.2.2.4.1.7.1.2,0,.4.2.6.2-.1,0-.2.2-.1.2-.2.1-.4.2-.7.1.1,0,.2,0,0,0s.3.1.4.1c-.1,0-1,.1-.9,0-.1.2.6.3.6.3-.3.1-.6-.1-.9-.1-.1,0-.9.1-.9.2s.7.2.7.3c-.1.1-.5.2-.5.2-.1.2.4.1.5.1-.3.1-.7.5-.6.5ZM1.8,14.1c.1-.1.7-.5.8-.3.1.3-.6.2-.8.3ZM1.7,15.7c0-.1.4-1,.7-.8s-.6.6-.7.8ZM2.6,15.3c.3-.3,0-.4,0-.7,0-.1.3-.4.4-.5.3-.3.9-.8,1.3-.4-.5.1-.8.8-1,1.2-.3.3-.4.7-.7.4ZM3.2,16.1c-.1-.2-.1-1,.3-.9.4.1-.2.8-.3.9ZM4.3,19c.2-.1.9-.5,1-.2.2.3-.9.1-1,.2ZM5.3,21.6c-.2.1-.4.1-.6.4-.1-.3.2-1.2.6-1,.4.1.2.4,0,.6ZM6.2,22.6c-.1-.2-.1-1.1.4-.9.4.2-.4.6-.4.9ZM12.9,23.2c.1-.1.3-.5.5-.5s.2.2.2.4c-.1-.1-.5-.1-.7.1ZM13.4,24.3c-.2.2-.4.2-.4.5,0-.1.2-1,.4-.9.4.1.1.4,0,.4ZM14.2,25.4c0-.2-.1-1,.4-.9.5,0-.3.7-.4.9ZM15.8,24.9c-.1-.5,0-.5.4-.8.2.4-.2.4-.4.8ZM20.8,10.4c-.5.4-1.1.5-1.7.5-.6-.1-1.2-.2-1.5.4-.3.6,0,1.2.5,1.6.6.4,1.1.9,1.3,1.6.4,1.3.2,2.6-1.2,3.1.1-.4-.1-.2-.2,0-.2.2-.5.2-.8.1.1,0,.3-.1.3-.2,0-.2-.1-.1-.2-.1-.3-.1-.6-.1-.9-.2s-.5-.3-.7-.5c-.1-.1-.4-.6-.5-.6-.1.1.6.9.7,1,.3.3.6.5,1,.5-.1.3-.4-.1-.5-.1-.2.1.2.2.4.3-.5.2-1.2-.8-1.3-1.1-.1-.1-.2-.7-.3-.2,0,.2.1.6.1.8-.1-.2-.2-.4-.2-.6,0-.1-.2-.6-.3-.4-.1.1,0,.5,0,.6v.7c0,.2,0,.5-.1.7s-.3.4-.3.6c0,.3.4-.2.4-.2.1-.2.2-.4.2-.7,0,.1,0,1,.1,1,.1.1.1-.4.1-.5.1,0,.1.1.2.1s.1,0,.1.1c.1.1.1.2.2.3.4.2.8-.1,1.2,0,.4.1.2.5.3.8.1.5.4.6.8.6-.1.4-.6.1-.6.2s.2.1.2.1v.4c.1.2.1.3.2.4.1.2.2.1.1.3-.3.7-.5-.3-.7-.2,0,0,.3.6.3.7.1.3.1.6,0,.9,0-.1-.2-1-.4-.8.1,0,.4,1.1.1,1.4,0-.1-.2-.5-.3-.4-.1.1,0,.2,0,.4,0,.1-.1.7-.4.5-.1-.1-.1-.4-.2-.5-.2-.2-.5-.1-.7.2,0-.2-.1-.5,0-.7,0-.1.2-.4.2-.4,0-.2-.3.2-.3.2-.1.2-.1.5-.1.7s.1.5-.1.7c-.2.2-.2.1-.4-.1s-.4-.5-.7-.2c.1-.3.4-.8.6-1,.1-.1.5-.2.5-.2.1-.2-.4-.2-.4-.2-.2.1-.3.2-.4.3-.2.2-.3.4-.4.7-.1.2-.1.5-.4.3.1-.2-.1-.8-.4-.6.1-.4.7-1.1,1.1-1,.2.1.5.2.2-.1-.3-.2-.7,0-1,.2,0-.3-.2-.5.2-.6.3-.1.5.1.7.2s.4.4.6.1c.1-.1,0-.7,0-.8,0-.6-.3-1.1-.7-1.5-.4-.5-.8-.5-1.4-.8-1.2-.5-1.5-1.8-.8-2.9.3-.5.8-.8.9-1.4.1-.3,0-.6-.2-.8-.1-.1-.5-.7-.5-.6.1,0,.4,1,.4,1.1,0,.3-.1.7-.3.9.1-.1.1-.8,0-.8s-.1.5-.2.5c0-.1,0-.5-.1-.5,0,0-.2,1-.2,1.1,0-.1-.1-.4-.1-.4-.1,0-.1.5-.1.5,0-.2-.1-.6-.2-.7.1.1,0,.7,0,.8,0-.1-.1-.6-.2-.6v1.1c0-.1-.1-1-.3-1-.1,0,0,.4,0,.5,0-.1-.3-.7-.3-.7l.1.7c0-.1-.1-.5-.2-.6.1.2,0,1-.1,1.1-.1-.1-.2-1.4-.5-1.3.1,0,.2.8.2.9,0,.4,0,.7-.2,1-.2.2-.5.5-.1.3.2-.1.6-.4.7-.7.2.4.5.2.8.2-.1.4-.4.7-.8.7-.1,0-.3-.2-.4-.2-.2,0-.1.1-.1.1-.2.2-.8.3-.6.7.2.6.5-.3.2-.2.1-.2.3-.3.5-.4-.1.1.1.2.2.4s.1.4.1.5c-.1.5-.3.4-.7.5-.2.1-.1,0-.1.2s.1.4.1.6c.1.4-.1.8-.4,1.1.1-.2.1-.5-.1-.7-.2-.2-.4-.1-.4.2-.1.4-.1.7-.4,1,0-.1-.1-1-.3-.9-.1,0,.1.6.1.7,0-.1-.4-.7-.4-.7-.2-.1.1.5.1.5,0,.2-.3.4-.4.4.2-.1.2-1,0-.8-.1.1-.1.6-.2.7.1-.1.1-.2.1-.4,0,0,.1-.4-.1-.4,0,0-.1.4-.2.4-.1.2-.2.2-.4.4-.1-.5-.6-.7-1-.3-.2-.2.3-1,.5-1.2.1-.2.2-.3.5-.2.1,0,.4.3.4.1s-.4-.3-.6-.3c-.2.1-.3.2-.4.4-.2.3-.8.9-.7,1.3,0,0-.1-.7-.2-.7-.2-.2-.5-.1-.7.1,0-.4.4-.7.7-.9.5-.4.7-.4,1.1-.1,0,0-.1-.2-.2-.3-.1-.2-.3-.2-.5-.1s-1,.5-1,.8c0-.2.1-.4-.1-.6.5-.2.8-.8,1.4-.5.1,0,.2.2.2.1.1-.1-.2-.3-.2-.3-.2-.1-.5-.1-.7,0,0-.1.2-.3.1-.4.5-.2.7.2,1,.6.4.5.8.5,1.2-.1.7-.9.4-1.9.4-2.9,0-.6.2-1.2.9-1.4.5-.1,1,.1,1.4.2.2.1,1.1.3,1.1-.2.1.1.4.4.5.3.2-.1-.2-.4-.2-.4-.4-.3-.9-.3-1.3-.5-.2-.1-.4-.2-.5-.4-.1-.1-.1-.3-.2-.3-.2-.1-.1.7-.4.9,0-.3,0-.6-.2-.8,0,.2-.4-.1-.4-.1-.2.1-.1.4-.2.5-.1.4-.3.5-.6.6.1-.1.3-1,.1-1,0,0-.2.8-.2.9-.1.3-.3.4-.6.6.1-.2,0-.4.1-.5s.1-.2.2-.4c.1-.1.4-.5.3-.7,0,0-.5.7-.6.7,0,0,.1-.3.1-.4,0,0-.4.7-.5.7,0-.1.2-.4.1-.4.1,0-.4.5-.4.5.1-.1.2-.2.2-.4,0,.1-.5.5-.6.5l.1-.2c.1.1-.8.6-.7.5,0,.1,1-.2,1-.2.2-.1.5-.2.7-.4-.1.4-.1.5-.4.8,0,0,.1-.4-.1-.3-.1.1-.1.3-.1.4-.1.2-.2.2-.4.3.1-.2.1-.7-.2-.2-.1.2-.2.5-.5.7.1-.1.1-.4-.1-.4-.1,0-.4.3-.6.4,0-.1-.1-.2-.1-.2,0-.1.1-.1.1-.1,0-.1.2-.2,0-.2-.3,0-.2.5-.7.5-.4,0-.2-.2-.3-.4,0-.2-.2-.3-.2-.3-.1-.2.2-.6.4-.8.2-.2.3-.2.5-.2,0,0,.3.3.2.1,0-.1-.1-.1-.2-.3-.1,0-.2,0-.2-.1q-.1-.1-.2-.1c-.4-.2-.8.1-1.2.3-.2.2-.4.6-.7.7.1-.1-.1-.2-.1-.4.1-.1.2-.1.4-.1.2-.1.3-.5,0-.6.7-.6,1.7.2,2.5-.2.5-.2.7-.7,1.1-1,.1-.1.8-.7.8-.7-.1-.1-1,.4-1.1.5-.5.2-1-.1-1.5.1.4-.3.9-.2,1.2-.5.1-.1.4-.4.4-.5-.2-.2-.5-.1-.7-.2.9.1,1.1-.7,1.7-1.2.2-.2,1-.4.4-.7,1-.7,1.9-.1,3-.2.5-.1,1-.4,1.4-.7.2-.1.4-.2.6-.4,0,0,.4-.2.4-.1-.1-.1-.7,0-.7.1-.2.1-.5.2-.8.4,0,0,.1-.2,0-.3-.1,0-.2.2-.3.3,0-.1.1-.4.1-.4-.1-.1-.4.5-.4.5,0-.1.1-.6.2-.6-.1-.1-.4.4-.4.4-.1-.1,0-.3,0-.3-.1-.1-.2.3-.2.3-.2-.2-.3-.5-.2-.8s.3-.5.2-.8c.4.1,1.1-.1,1.1.3,0,.1-.2.4.1.3,0,0,.4-.4.4-.5.2-.3.3-.8-.1-1.1-.4-.2-.6.2-1,.2-.5,0-.6-.5-.5-1,0-.1.1-.3.1-.3,0-.1-.1-.1-.2-.1,0,0-.1-.3-.1-.2-.2-.2-.1.7-.1.8s-.2.3-.2.5c.1.1.2.2.2.3-.3-.1-.4-.3-.8-.2-.1,0-.3.2-.4.2.4-.1.5.3.8.5.2.2.5.2.5.5-.1,0-.2.3-.3.4,0-.1.1-.5.1-.5-.2.1-.2.3-.3.4,0-.1.1-.4.1-.4l-.2.3s.1-.4,0-.4-.1.4-.1.4l-.1-.4s-.2.5-.3.6-.2.1-.2.1c0,.2.3,0,.4-.1,0,.1-.2.2-.2.2,0,.1.4-.1.4-.2,0,.1-.2.3-.2.3,0,.1.2-.1.2-.1-.1.2-.2.2-.2.3.1,0,.2-.2.2-.2,0,.1-.2.4-.1.4.1.1.2-.2.2-.2,0,.1-.1.4-.1.4.1.1.2-.2.2-.2,0,.1-.2.5-.2.5.2-.1.4-.3.4-.3-.1.3.3.4-.1.7-.3.3-.6.1-.9.1.3-.2.6-.8.2-1.1-.4-.3-.8.2-1.2.3,0,0,.1-.2,0-.3l-.2.3.1-.4c-.2-.1-.3.5-.3.5,0-.1.1-.7.1-.6-.1,0-.4.5-.4.5-.1-.1,0-.3,0-.3l-.2.4c-.7-.5-.1-1-.2-1.5.3,0,.9-.2,1.1.1.1,0-.1.3,0,.3.2.1.2-.2.3-.3.2-.3.4-.6.3-1-.1-.4-.4-.4-.7-.3-.3.1-.7.5-1,.1-.2-.2-.2-.6-.2-.8,0-.1.1-.2.1-.2.1-.1.3,0,.4-.1.2-.4-.6-.1-.5.1-.2-.1-.1-.4-.2-.4.5-.1.9-.1,1.5-.1s.9-.5,1.5-.5c.3-.1.6,0,.9-.1.3-.1.5-.2.8-.3.2-.1,1.1-.4,1.4-.2-.2-.1-.5.4-.6.5s-.6.5-.6.5c-.1.2.4-.1.4-.1.2-.2.4-.4.5-.6-.2.2-.2.6-.6.8-.2.1-.8-.1-1,.1-.1,0,.5-.1.7-.1.3,0,.7,0,1-.1.4-.1.6-.4,1-.4.4-.1.7-.1,1.1-.1.7-.1,1.2-.5,1.8-.7-.1.2-.2.4-.4.6-.1.1-.4,1.1-.5,1.1.2.1.5-.7.5-.8.2-.3.7-.4,1-.4-.3.4-.1.8-.1,1.2,0,.3-.2.5-.1.8.1,0,.2,0,.2.1.1.1.1.2.1.2.1.2.1.3.2.5.1.4.4.8.5,1.2-.3-.4-.8-.4-1.1-.6-.5-.3.2-.1.4-.1.4,0,.1-.2,0-.4-.1-.1-.4-1-.4-1l.2,1h-.4c-.2,0-.2-1.2-.4-1.1,0,0,.1,1.2.1,1.4-.1.5-.1,1-.2,1.5-.2.9-.6,1.6-1.4,2-.8.4-1.8.7-2.8.5-.5-.1-1-.4-1.5-.4-.1,0-1.2.3-1.1.5-.1-.1.5-.2.5-.2.2-.1.5-.1.7,0,.5.1,1,.3,1.4.4,1.1.2,2-.1,3-.6,0,.5-1,.7-1.4.8-.6.2-1.1.4-1.8.2-.6-.1-1.2-.7-1.8-.4-.2.1-.4.4-.7.5-.1.1-.7.2-.7.2,0,.3,1.1-.3,1.2-.4.5-.3.9-.2,1.4.1-.6-.1-1.2-.1-1.7.4l-.7.7c.3,0-.3.4-.3.3,0,.2.9-.4,1-.4.3-.2.6-.5,1-.6-.4.2-.5.6-.8.8-.2.2-.6.4-.8.6-.3.3.4,0,.5-.1.4-.2.6-.4.9-.7-.1.3-.4.7-.1,1-.1-.1.1-.5.1-.7-.1.1,0,.8.2.7-.1,0-.1-.5-.1-.6q.1.1.2.1c0,.1.1.2.1.3.1.2.2.3.2.4.1.1.8.7.8.5l-.6-.6c-.2-.2-.3-.5-.3-.8.1-.6.9-.9,1.4-1,.2,0,.4-.1.5-.1.2,0,.2-.1.4.1s.3.5.5.7.4.3.5.5c.2.2.2.6.3.8v-.4c.1.2.1.4.2.6,0-.1.1-.2.1-.2.1.2.1.4.1.5v-.4c.1.2.1.4.2.5v-.2c.1.1.2.5.2.6.1-.6-.1-1.4-.5-1.8-.3-.4-1-1-.7-1.5.1.4.5.8.7,1.2s.4.8.6,1.2c.1.4.3.8.3,1.3v.5c0,.1,0,.5.1.3.2-.3-.1-.7.4-.6.3.1.6.4.8.6.4.5,1.1,1.2,1.8,1,1.5-.4,1-2.5.2-3.3-.5-.5-1.1-.8-1.4-1.6-.1-.4-.1-.8.1-1.1.1-.2.4-.4.5-.7.1-.2.1-.5.4-.7s.7-.2,1-.5c.5-.7-.4-1.4.1-2.2-.2.4.1.7.2,1.1.1.2.2.4.2.6,0,.1-.1.3-.1.4.1.4.4-.2.4-.4.1-.4-.1-.7-.2-1-.1-.4-.1-.7.1-1s.5-.4.8-.6c.5-.5.2-1.3.7-1.7-.3.4.1.9,0,1.3s-.6.7-.8,1.1c-.2.5.1,1,.1,1.4.1.5-.2.8-.2,1.3.1-.4.5-.8.6-1.3.1-.4-.1-.9.3-1.2-.2.7.2,1.2.2,1.8.1,1-.1,1.7-.6,2.1ZM9.3,5.5c.6-.1.9.4,1.4.4.3,0,.5-.2.8-.1.2.1.5.4.2.5-.2-.3-1,0-1.2,0-.6-.1-.8-.7-1.2-.8ZM12.6,5.8c0-.1-.4.6.1.4q.1-.1.1-.2c0-.1-.3.1-.2-.2ZM12.5,6.4c-.1,0-.2.4-.2.4-.1.2-.3.2-.5.2s.1.2.2.2q.2,0,.4-.1c.1,0,.4-.7.1-.7ZM15.4,4.6s.1,0,0,0ZM13.1,4.4s0-.1,0,0ZM21,8.7c-.1,0-.2.5-.2.6-.1.3-.3.6-.5.8.1-.2.2-.4.3-.5,0,.1-.1.2,0,0,.1-.1-.2.1-.2.2-.1,0-.3.1-.4.2.1-.1.2-.2.2-.3,0,.1-.8.5-.9.5s-1.1.3-1,.4c-.1-.1,1-.1,1-.1.4,0,.7,0,1.1-.2.3-.2.5-.4.7-.7-.1,0,.1-.9-.1-.9ZM14.7,15c0,.1,0,0,0,0ZM12.4,5c.1-.5-.8-.3-1-.1,0,0,.4-.1.5,0,.2,0,.5.4.5.1ZM14.8,15.6c0-.2-.2.4-.1.5.3,0,.2-.4.1-.5,0,0,.1.1,0,0ZM1.8,8.8l11.4-3.4c.1,0,.1-.3.1-.3.1.1.3.2.2.3.1-.1,0-.3,0-.4q.1.1.2.1c.1,0-.1-.4-.1-.4.5-.1.5-.5.8-.8,0-.1,0,0,0,0l-.4.1c-.2.1-.4.1-.7,0,.1-.2.3-.3.5-.3.1,0,.4.1.4.1.1-.1-.3-.1-.4-.1-.2,0-.4.1-.5.2-.2.2-.2.4-.5.5-.1,0-.4-.1-.4,0-.1.1.2.1.2.1.1.1.2,0,.3.1,0,.2.3.8.3.8L1.8,8.8ZM1.7,7.8c.2-.3.2.1,0,0ZM2.1,7.7c.1.1.2.1.4.1-.1.4-.8.6-1,.2.2.2.6,0,.6-.3ZM4.5,8.2c.1,0,.2-.2.3-.4.1-.2.2-.6.1-.8-.2-.3-.2,0-.2.2,0,.3-.1.6-.3.8-.1.2.1.2.1.2ZM13.4,8c.4-.1.8-.2,1-.6s.2-.8.1-1.1c0-.1-.1-1.1,0-1.1-.1-.1-.2,1.1-.3,1.2-.1,0-.2-.6-.2-.6-.1,0-.1.5-.1.6-.1-.2-.1-.8-.2-.4-.1.2.1.5.1.8-.1-.2-.2-.9-.3-.8s0,.8,0,1c0-.1-.1-1-.2-1s-.1,1-.1,1.1c0-.1-.1-.6-.2-.6s-.2.5-.1.7c.1.2.4.1.6.2-.2.1-.4.3-.6.4l.1-.1s-.1,0-.1.1c-.1.1.4-.1.5-.1l.6-.3c-.3.3-.6.4-.9.7-.1.1-.7.6-.5.7-.1-.2.8-.7.8-.8ZM8,4.3c.2-.2-.4.1-.5.1s.1.1.1.1c.1,0,.2-.1.4-.2ZM8.4,5s0-.1,0,0c-.1-.2,0,.2,0,0,0,.2.2.3.2.4.1.2.1.4.1.6s0,.5-.2.7c-.1,0-.5.2-.4.2.2.2.7-.6.8-.7.1-.5-.2-.8-.5-1.2ZM13.4,9.4c-.3.1-.4.5-.7.6-.1.1.1.1.2,0s.2-.2.3-.3.2-.2.4-.2c.1,0,.4-.1.5-.1.2-.3-.6,0-.7,0ZM13.5,4.3s.2,0,0,0ZM9.1,4c.1-.2.2-.3.4-.3.1,0,.4.1.4.1.1-.1-.3-.1-.4-.1-.2-.1-.4,0-.5.2-.2.1-.3.4-.5.4-.1,0-.4-.1-.4,0,0,.2.3.2.3.2q.1.1.2.1c.2.2.5.2.8.1.2-.1.5-.4.4-.6,0-.2-.4-.1-.7-.1ZM9,4.1c0,.1-.1.2-.2.1.1-.1,0-.1.2-.1ZM8.6,4.4c.1.1.3.1.5.1.1-.1.1-.2.2-.2h.4c-.2.3-.9.5-1.1.1ZM8.9,6.8s.4-.1.4-.4c-.1-.3-.4.3-.4.4q-.1,0,0,0ZM7.4,12.8c-.2.2-.6.4-.9.2.1,0,.2.1,0,0-.1,0,.2.1.3.1.2,0,.4-.1.5-.1.1-.1.9-.6.7-.7,0,0-.6.4-.6.5ZM9.6,4.2l6.1.7s-.2.2-.3.2c-.2,0-.1-.4,0-.5,0,0-.1.1,0,0,.1-.2-.1-.1-.2,0s-.1.4-.1.5c.3.4.8-.1.6-.2l-6.1-.7ZM8.3,11c-.4.2-.5.4-.8.6-.2.1.2-.1.2,0,.1-.1.2-.2.4-.3s.7-.2.9-.4c0-.3-.7,0-.7.1ZM15.1,6.5c.1.4.2.7.2,1.1,0,.1-.1.8-.1.8.3.1.3-1.5.2-1.7-.1-.6-.4-1.1-.3-1.7q0,.1,0,0c0-.1-.1.1-.1.2-.1.1-.1.3,0,.4-.1.3,0,.6.1.9ZM8.2,10.5c-.1,0,.2-.1.3-.1.1-.1.2-.2.4-.2.1,0,.6-.1.6-.2.1-.3-.5-.1-.5,0-.3.1-.5.4-.8.5ZM12.8,9.6c.4-.4.6-.4,1.1-.5s.9-.4,1.1-.8c0-.2.2-1.4,0-1.4-.1,0-.1,1-.2,1.1-.2.4-.6.5-1,.6-.5.1-.8.1-1.1.5s-.6.5-1.1.3c.5.3.8.6,1.2.2ZM7.6,10.2c.2-.2.4-.3.7-.5.2-.1.3-.2.5-.3.1,0,.5,0,.5.1.1-.1-.7-.2-.8-.1-.3,0-.6.3-.8.5-.5.4-.8,1.1-1.5,1.2.1-.1.4-.1.6-.2.4-.2.6-.4.8-.7ZM5,14.5c0,.1,0,.2-.1.3,0,.1-.2.1-.2.1.1.1.3.1.4-.1.2-.2.1-.4-.1-.6-.1-.2,0,.3,0,.3ZM5,14.2c.1.1,0-.1,0,0Z"/>
    <path id="mermaid-blue" class="st9" d="M43.2,16.9c.1.1.1,0,0,0ZM43.2,16.9c.1-.3-1.1-.1-1.3-.1-.5-.1-1-.4-1.3-.8-.2-.4-.4-1-.4-1.4s-.2-1.1-.7-.7c-.7.6-.6,1.9-.5,2.7.1.2.1.5.1.8s.2.5.2.7c.1.4-.2.9-.3,1.3-1.4-.6-3.2.2-3.3,1.8-.1,1.7,2.1,2.6,3.2,1.3-.4,1.6-2.5,1.5-3.3.3-.4-.6-.5-1.3-.6-2s0-1.2.2-1.9c.2.3,1.2.5,1.4,0,.1-.1-.1-.1-.1-.2v-.5c.2.1.7.1.8-.1.2-.3-.1-.2-.2-.3-.3-.2-.4-1.4-.5-1.4.7-.1.6.5.8,1,.1-.2.2-1,.1-1.2-.1-.3-.1-.5-.1-.5-.4-.7-.3-1.4-.7-2.1.5.1,1.2.2,1.7.2.4-.1.7-.6.8-1,.2-.6.2-1,.1-1.6-.1-.5-.2-1.1-.2-1.5s-.1-.7-.1-1.1v-.8c0-.4.2-1,.1-1.4-.1-.2-.2-.5-.3-.7s-.1-.4-.2-.5c-.1-.2-.2-.1-.4-.2-.1,0-.2-.1-.2-.1.2-.2-.4-.7-.2-.8,0-.1-.3-.1-.3-.1.2-.6-1,.1-1.1.2-.2.1-1.2.8-.9.8-.1.1,0,.1.1.1-.2.1,0,.1,0,.1h-.1c0,.2.2.2.2.4.1.1.2.3.2.5.1.1.4,1.1.5,1.1-.1.1.2.8.3.8.2.1.4-.2.5,0,.1.1.3.6.4.7.3.9-.1,2-.2,2.9-.2-.3-.4-.5-.7-.8s-.5-.3-.6-.7c-.2-.6.1-1.1-.3-1.7-.1-.3-.3-.4-.3-.7-.1-.4.1-.7,0-1.1-.1-.8-.6-1.1-1-1.7-.3-.4-.5-1.1-1-1.4-.4-.2-.6-.1-1-.1-.1-.1-.2-.4-.5-.2q-.2.1-.4.2c-.2.1-.3.2-.5.2-.2.1-.4.2-.5.4-.2.3-.2.5-.3.8-.1.2-.3.4-.3.4q-.1.2-.1.4c0-.2,0,.2,0,.2v.6c0,.1.1,1.1.1,1.1-.4.4-.7.5-1.1.7-.5.3-.8.8-.6,1.4.1.2.2.4.2.6s-.2.6-.4.8c-.2.5-.7.8-1,1.2,0-.4-.1-.9,0-1.4v-.2c.1-.1.2-.2.2-.4.1-.2.2-.4.2-.6.1-.2.2-.4.1-.7-.1-.2-.2-.2-.4-.4s-.1-.2-.1-.5c.1-.4.3-.7.4-1.1.1-.2,0-.4.1-.6s.1-.1.2-.2c.2-.2.2-.8-.2-.7-.1-.8-.2-1.3-.6-2q-.1-.2-.1-.4c0-.1-.1-.2-.2-.3-.4-.1-.4.5-.4.7s0,.2-.1.5c-.1.2-.2.4-.2.5,0,.4,0,.9-.2,1.1-.1.1-.3,0-.4.2,0,.3.2.3.3.4.1.1.1.2.1.4.1.3.2.6.2.8.1.3.4.6.5.9s0,.2-.2.4c-.1.1-.2.2-.3.4-.3.4-.5.8-.7,1.3-.1.3-.2.5-.2.8-.1.4,0,.8-.1,1.1-.1.2-.2.1-.1.4,0,.3.2.5.3.8.1.5.5,1.7,1.1,1.8s1.4-.5,1.8-.9c-.2.5-.5,1-.4,1.5q.1.4,0,.7c-.1.3-.2.5-.2.8,0,.2.1.4.2.6s.2.5.3.8c.2.2.4.5.6.7l.1.1c.1,0,.1.1.1.1,0,.1.1.2.1.2.1.2.2.5.2.7.2.6.5,1.2.8,1.7.5.9,1.1,1.7,1.9,2.4,1.8,1.6,4.3,2.5,6.7,1.3,1.8-.9,2.6-3,2.1-4.9-.1-.4-.3-.7-.4-1,0-.1-.1-.1-.1-.2s.1-.4.1-.5c.1-.6.1-.4.6-.5.6-.2,1.1-.4,1.5-.9.3.2,1.2-.5.9-1Z"/>
    <path id="mermaid-yellow" class="st7" d="M42.5,16.7c-.4.1-.7.1-1,0-.7-.2-1.2-.6-1.4-1.3-.1-.4,0-1.8-.7-1.5-.3.1-.4.8-.6,1.1-.2.8,0,1.7.2,2.4.1.4.2.5.2,1-.1.4-.2.7-.2,1-1.4-.7-3.4.2-3.3,2,.1,1.6,2.4,2.3,3.3.8-.2,1.7-2.2,2.1-3.3.9-1-1.1-1.1-3.1-.5-4.3.1.2.4.3.7.4s.7-.2.6-.4c-.2-.2-.1-.5-.1-.8.2.2.5.2.7.1.3-.2.1-.1-.1-.2-.2-.2-.4-.4-.4-.7-.1-.3-.1-.7-.2-1,.4.1.7.1.8.4.1.1.2.7.2.7.1,0,0-.7,0-.7,0-.4-.1-.6-.3-1-.4-.7-.3-1.4-.8-2.1.5.2,1.3.4,1.8.2.5-.1.7-.7.8-1.1.2-.9.2-2,0-2.9-.1-.4-.2-.8-.2-1.2s.1-.8.1-1.2c.1-.2.1-.6,0-.8-.1-.2-.2-.5-.4-.8-.2-.5-.2-.6-.8-.6l.1-.1s-.2.1-.3.2l.2-.3c-.1-.1-.2.1-.2.1,0,0,.2-.2.2-.3-.1,0-.2,0-.2.1,0,0,.2-.2.2-.3-.1-.1-.3.2-.4.2.1-.1.3-.3.2-.4s-.3.2-.3.2c.1-.1.2-.2.3-.4-.1.1-.2.1-.3.2.2-.2.3-.2,0-.2.1-.3.1-.4-.2-.2-.2.1-.5.3-.8.4-.2.1-.5.3-.7.5s-.1.1.2.1c-.4.3.1.1.2.1-.5.2-.2.2.2,0,0,0-.4.2-.4.3.1.1.4-.1.5-.2-.1,0-.6.3-.4.4.2.1.4-.2.5-.2-.1.1-.7.2-.5.4.1.1.4-.1.4-.1-.1.1-.4.2-.4.3.1.1.4-.1.5-.2-.4.2-.7.5-.1.2-.4.3-.4.4.1.2-.4.2-.4.4.1.2-.5.3-.4.4.1.2-.1.1-.4.2-.4.3.1.1.4-.1.5-.1v.1c-.1.1-.5.2-.4.4,0,.1.4-.1.5-.1-.4.2-.6.5,0,.2-.2.2-.5.4-.1.2-.1.1-.4.2-.1.3-.1.1.5-.1.5-.1,0,.4.3.7.4,1,.1.2.1.5.1.7,0,.8-.2,1.5-.2,2.3-.2-.4-.5-.8-1-1-.3-.2-.5-.4-.5-.8-.1-.5.1-1-.2-1.4-.2-.5-.3-.7-.3-1.2s0-1-.3-1.4c-.2-.3-.5-.5-.8-.9-.3-.5-.6-1.4-1.2-1.5-.2-.1-.4,0-.6,0s-.2-.1-.4-.2c-.4-.2-.7.1-1,.4-.3.2-.6.2-.8.4-.3.3-.2.6-.4,1-.1.1-.2.2-.3.4-.1.2-.1.4-.1.5,0,.5.2.8.2,1.2.1.7-.7.9-1.1,1.2-.4.2-.7.5-.7,1,0,.4.3.7.3,1,0,.4-.5,1-.7,1.3s-.6.6-.8,1c0-.6-.1-1.3,0-1.9.2.1.5-1.1.5-1.1.4,0-.2-.8-.3-.9q-.2-.2-.1-.5c.1-.2.2-.4.2-.7.1-.2.2-.5.2-.8v-.4c.1-.2,0-.1.1-.2.6-.2.8-.2.8-.4s-.2-.3-.4-.2c0-.4-.1-.8-.2-1.2-.1-.2-.1-.4-.2-.5s-.3-.3-.3-.4c-.1-.2.1-1-.4-.4-.1.1-.1.3-.1.5s-.1.3-.2.5c-.2.4-.3.7-.4,1.1,0,.1,0,.4-.1.5,0,0-.2,0-.2.1-.1.1-.2.2-.1.4.1.1.2.1.3.2.1.2.1.8.2,1,.1.4.3.7.5,1,.1.2.2.3.1.4-.1.1-.3.2-.4.4-.4.4-.6.9-.8,1.4-.4,1.1-.5,2.9.1,4,.3.5.5,1.2,1.2,1,.5-.2,1.1-.6,1.5-1-.1.5-.4.8-.4,1.3,0,.2,0,.4.1.6q.1.2-.1.5c-.2.3-.3.7-.2,1,.1.2.2.3.3.5s.1.4.2.7c.1.2.4.4.5.7.1.1.1.2.2.2.1.1.2.3.2.4.3.9.6,1.7,1.1,2.6,1.6,2.7,5,5,8.2,3.6,1.2-.5,2.1-1.7,2.3-3,.1-.7.1-1.3-.1-2-.1-.4-.3-.7-.4-1.1-.1-.2,0-.6.1-.9.1-.5.2-.4.6-.5.4-.1.7-.1,1-.3.5-.3,1.1-.8,1.4-1.4,0-.8-.1-.9-.5-.8ZM37.2,21.1c-.2-.6.6-.7,1-.5l.1.1c-.1.3-.8,1.2-1.1.4ZM26.2,12c-.1-.3-.2-.5-.2-.8,0,0,0,.1,0,0s.2-.2.2-.3v1.1Z"/>
    <path id="mermaid-custard" class="st8" d="M27.8,16.8c-.1.3-.4.7-.2,1.1,0,0,.2-.7.2-1.1ZM26,11.2c0,.3.2.5.2.8v-1.1c-.1.1-.2.2-.2.3ZM33.7,10.2c.1-.4.1-.7-.1-1-.1.7-.5,1.2-.2,1.8,0-.3.2-.6.3-.8ZM35,13.7c.1.3.2.6.4.8.1.1.6.5.6.5-.1.2-1-.7-1.1-.9,0,.6.7.9,1.1,1.2.2.2.3.3.6.4.4.1.7.1.9.5.1-.4-.4-.7-.5-1-.2-.4-.2-.8-.3-1.1-.3-.8-1.1-1.1-1.5-1.7.2.4.5.7.9,1.1.2.1.3.3.4.5.1.1.2.6.1.5-.1-.1-.2-.5-.4-.6.1.1.1.8.2.8-.1-.1-.1-.5-.3-.7s-.4-.3-.6-.4c.1.1,1.1,1.4.9,1.5-.2.1-1.3-1.3-1.4-1.4ZM34.7,11.6q0-.1,0,0c0-.1,0,0,0,0ZM37.2,21.1c.2.7,1-.1,1.1-.4-.4-.2-1.2-.2-1.1.4ZM39.3,16.1c0,.5.3,1.2.5,1.7,0-.1.1-.4.2-.4s0,.5,0,.5c.1-.2.5-.5.5-.7-.1.2-.1.4-.2.5.1-.1.7-.5.7-.6.1.1-.4.5-.5.6.1,0,.8-.5.8-.5.1.1-.7.7-.7.7.2-.1.4-.2.7-.3.1-.1.5-.4.6-.4.2,0-.7.7-.8.7-.3.1-1.1.2-1.2.4-.1.1-.1.5-.1.6-.1.2-.2.5-.1.7.1-.3.1-1,.3-1.1.1-.1.4-.1.4-.1.2-.1.5-.1.7-.2.7-.2,1.5-.8,1.7-1.5-.8.2-2-.1-2.5-.9-.2-.4-.4-.9-.4-1.3,0-.2.1-.7-.1-.8-.2-.2-.4.2-.5.4-.4.9-.2,2.1.1,3,.1.2.2.4.2.7,0,.1-.1.3-.1.4-.1.2-.1.5-.2.7-.1.4-.1.3.1.5.1-.5.5-1.1.3-1.7-.3-.4-.4-1.1-.4-1.6ZM37.4,6.1c.1.5,1-.2,1-.1.1.1-.6.4-.7.4.2.2.6-.1.7,0,0,.1-.1.1-.1.1.2.1-.4.8-.5.9.4-.4.2,0,.1.2.1-.2.3-.3.2,0-.1.2-.4.4-.2.1-.2.2-.4-.3-.3-.5q-.2.1-.2.4c0,.1.2.4.2.4l.2.2c.1.1.1.2-.2.1.1.7,0,1.4-.1,2,0,.1-.2,2-.1,2,.1-.1-.8-1.4-1-1.5-.4-.4-.8-.5-1.2-.8-.1.1-.1.2-.1.4.1,0,.6,0,.6.1,0,0-.3.2-.4.2-.2.2-.3.3-.4.5-.2.5,0,.9.4,1.3.3.4.7.6,1.2.8.4.1,1.1.2,1.4.1.8-.4.7-1.9.7-2.7s-.1-1.5-.2-2.4c-.2.2.1,1.6.1,2,0,.2-.1,2-.1,2,0,0-.1-2.3-.1-2.5s-.1-.4-.1-.6,0-.5-.1-.7c0,0-.5-.5-.3-.5.1.1.1.2.3.2s.2-.1.3-.2c.1-.3.1-.8.1-1.2.1-.4-.1-.6-.2-1-.1-.1-.1-.3-.2-.5.2-.3.3-.2,0-.3-.1,0-.8,0-.9.2-.2.4.3.2.4.2s.7-.2.5.1c-.1,0-.4.1-.4.1-.2.1-.4.2-.5.2.1.5,1-.2,1-.1s-.7.4-.8.4ZM37,4.4c-.1-.1.1-.4.1-.5-.4.3-.9.5-1.4.7,1,.4,1.1,1.5,1.2,2.4-.1.1-.2.4-.2.5.5-.2.8-.5,1.2-.9-.2,0-.4-.1-.5-.2-.1,0-.2-.1-.2-.1q-.1-.1,0-.2c-.2-.2-.4-.2-.1-.5-.1-.1-.2-.4.1-.6-.1,0-.2-.4-.2-.6,0,0,0,.3,0,0ZM27.1,6.9c.1-.5.1-1,.1-1.5-.1-.5-.2-1.1-.4-1.5-.1-.2-.3-.4-.4-.5,0-.1.1-.6-.1-.5-.1.1.1.4,0,.5-.1.2-.3.4-.4.6-.2.5-.3,1-.4,1.5s0,1.1.2,1.6c.1.3.4,1.2.8,1.2.1-.3.5-.9.6-1.4ZM25.5,5.6c-.3.1-.3.2,0,.3v-.3ZM27.4,5.9c.3,0,.4-.3,0-.3v.3ZM26.6,10.5c-.1,0-.1-.1-.1-.1-.3.4-.2,1.1-.2,1.6,0,.2.1,1.6-.1,1.7.4.1.3-.2.3-.5v-1c.1-.4,0-1.1.1-1.7ZM27.3,9.4c0,.1-.3,1.2-.5,1.1-.1.6,0,1.3,0,1.9.2-.4.5-.7.8-1s.7-.9.7-1.3c0-.3-.3-.6-.3-1,.1-.5.3-.8.7-1,.4-.1,1.1-.4,1-1.1-.1-.4-.2-.8-.2-1.2,0-.2.1-.4.1-.5.1-.1.3-.3.3-.4.1-.4.1-.7.4-1,.2-.2.5-.2.8-.4s.5-.5,1-.4c.2.1.2.2.4.2s.4-.1.6,0c.7.2,1,1.1,1.2,1.5s.5.5.8.9.3.9.3,1.4c-.1.6.1.8.3,1.2.2.5.1,1,.2,1.4.1.4.2.6.5.8.4.2.7.6,1,1,0-.8.2-1.5.2-2.3,0-.2,0-.5-.1-.7-.1-.3-.4-.6-.4-1-.1,0-.7.2-.5.1-.3-.1.1-.2.1-.3-.5.1-.2-.1.1-.2-.6.2-.4,0,0-.2-.1,0-.5.2-.5.1s.4-.3.4-.4v-.1c-.1.1-.5.2-.5.1s.3-.2.4-.3c-.4.2-.5.2-.1-.2-.5.4-.5.2-.1,0-.5.2-.5.1-.1-.2-.6.3-.3-.1.1-.2-.1.1-.5.3-.5.2-.1-.1.3-.2.4-.3-.1,0-.4.2-.4.1-.2-.2.4-.4.5-.4-.1-.1-.4.2-.5.2-.4-.2.1-.5.2-.5-.1.1-.5.3-.5.2-.1-.1.4-.3.4-.3-.4.2-.7.2-.2-.1-.2-.1-.7.2-.2-.1-.2-.1-.4.1-.2-.1s.5-.4.7-.5c.2-.2.5-.3.8-.4.4-.2.3-.1.2.2.3-.1.2-.1,0,.2q.1-.1.3-.2c0,.1-.2.3-.3.4l.3-.2c.1.1-.2.4-.2.4,0,0,.3-.2.4-.2.1.1-.2.2-.2.3q.1-.1.2-.1c.1.1-.2.2-.2.3,0,0,.2-.2.2-.1.1.1-.2.3-.2.3.1,0,.3-.2.3-.2.1.1,0,.1-.1.1.5-.1.5.1.8.6.1.2.3.5.4.8.1.2,0,.6,0,.8-.1.4-.1.9-.1,1.2,0,.4.1.8.2,1.2.2.9.1,2,0,2.9-.1.5-.2,1-.8,1.1-.5.1-1.3-.1-1.8-.2.5.7.5,1.4.8,2.1.2.4.2.6.3,1,0,.1.1.7,0,.7,0,0-.1-.5-.2-.7-.2-.4-.5-.4-.8-.4.2.3.2.7.2,1,.1.4.2.5.4.7.1.1.3,0,.1.2s-.6.1-.7-.1c-.1.3-.2.6.1.8.1.1,0,.4-.5.4-.3,0-.7-.2-.8-.4-.6,1.2-.4,3.3.5,4.3,1.1,1.2,3.1.8,3.3-.9-.8,1.5-3.1.8-3.3-.8-.1-1.7,1.8-2.6,3.3-2,.1-.4.2-.7.2-1,.1-.4-.1-.6-.2-1-.2-.7-.4-1.6-.2-2.4.1-.4.2-1.1.7-1.2.6-.2.5,1.2.7,1.5.2.7.7,1.1,1.4,1.3.4.1.7.1,1,0,.4-.1.5,0,.3.4-.2.6-.8,1.1-1.4,1.4-.3.2-.7.3-1,.3-.4.1-.5,0-.6.5-.1.3-.2.7-.1.9.1.4.4.7.4,1.1.2.7.2,1.3.1,2-.2,1.3-1.1,2.4-2.3,3-3.2,1.5-6.6-.8-8.2-3.6-.5-.8-.8-1.7-1.1-2.6,0-.1-.2-.3-.2-.4-.1-.1-.1-.2-.2-.2-.2-.2-.4-.4-.5-.7-.1-.2-.1-.4-.2-.7-.1-.2-.2-.3-.3-.5-.1-.4.1-.7.2-1s.1-.3.1-.5c-.1-.2-.1-.4-.1-.6.1-.5.4-.8.4-1.3-.4.4-1,.8-1.5,1-.7.2-1-.4-1.2-1-.6-1.1-.4-2.9-.1-4,.2-.5.4-1,.8-1.4.1-.1.4-.2.4-.4.1-.1,0-.2-.1-.4-.2-.3-.4-.6-.5-1-.1-.2-.1-.8-.2-1-.1-.1-.2-.1-.3-.2-.1-.1,0-.2.1-.4.1-.1.2,0,.2-.1s.1-.4.1-.5c.1-.4.2-.7.4-1.1.2-.2.2-.3.2-.5s0-.3.1-.5c.4-.5.3.2.4.4.1.4.3.5.4.7s.1.4.2.5c.1.4.2.8.2,1.2.2-.1.4,0,.4.2.1.2-.2.2-.3.4-.1.1-.1,0-.1.2-.1.1,0,.2,0,.4-.1.2-.1.5-.2.8-.1.2-.2.4-.2.7-.1.3-.1.4.1.5-.2.2.5,1,.1,1ZM33.9,5.9c.4.5.2-.2.2-.3.1-.1.2.2.2.2.1.3-.3.3-.1.5.1.1.3-.3.3-.3.1.1-.2.5-.2.5.1-.1.2-.4.2-.4.1.1-.2.4-.1.5,0,0,.1-.3.2-.3.1.1-.1.3-.1.4.1.2.2-.1.2-.1.1.1-.1.1-.1.2.2.2.4.3.4.4.1-.4.1-.8-.1-1.1-.2-.5-.5-.7-.8-1.1,0,0,.1.3,0,.3.1,0-.5-1.2-.6-1.3-.1-.2-.2-.4-.5-.5-.3-.2-.5-.1-.8-.1.1.1.1.3-.1.2-.1-.1-.1-.2-.2-.4-.4-.2-.6.1-.9.3-.2.2-.5.2-.8.5.1.1-.1,1-.1,1-.1,0-.1-.1-.1-.2-.4.4-.4,1-.2,1.5s.4.9,0,1.4c-.4.4-.8.4-1.2.7s-.6,1.1-.2,1.5c.2-.2.4-.5.5-.7s.2-.4.4-.6c.2-.1.4-.2.5-.4.1-.1.3-.6.3-.6.2,0-.2.8-.2.8-.2.3-.5.4-.7.7.4-.2,1-.2,1.2-.4s.2-.8.1-1.1c0,.3-.1.7-.2,1-.1.1-.6.5-.7.3,0,0,.5-.4.6-.5.2-.3.2-.7.1-1-.1-.4-.2-.7-.3-1,0-.1-.2-1.1.1-1,0,0-.1.4,0,.5.1.2.2.4.3.7v-.5c0,.1.1-.2.1-.1.1-.2.1-.3.1-.5,0-.1-.1-.3-.1-.3.1-.1.2.1.4,0,.1-.1-.1-.2,0-.2l.5-.1c.1-.1.2-.7.2-.7,0,0,0,.4.1.4.1.1.2.1.4,0,.1-.1.1-.2.2-.2.2,0,0,.3,0,.3.2.1.4-.1.5-.2s.1-.2.1-.3-.1-.1-.1-.2q.1-.2.3.1c.1.1,0,.2.1.4s.4.4.4.5c0,0,.1,0,.2-.1s0-.5,0-.5c.2-.1.2.4.2.4,0,.2-.1.2-.2.3-.1,0-.1.1-.1.1,0,.1,0,.2.1.2-.1.3,0,.4.1.5,0,0-.1,0,0,0h0ZM38.2,22c.1-.1.4-.3.3-.5,0,.1-.3.4-.4.3l.2-.2c.1-.1.1-.2,0-.3-.4.5-1.2.8-1.4.1-.2-.6.3-1.1.9-1,1.5.1,1.7,2.1.9,3-.8,1-2.4,1-3.3,0-.9-1-1.2-2.7-.9-4q-.1.1-.2.1c0,.1-.1.2-.2.4s0,.5,0,.7c.1.5.1,1,.2,1.5.4,1.4,1.5,2.3,2.9,2.3.7,0,1.2-.3,1.7-.8s.6-1.1.5-1.8c-.1-.5-.2-1.1-.5-1.5-.2-.2-.5-.5-.8-.5-.1,0-.8-.1-.8,0-.1-.3,1.2,0,1.4.1.4.2.7.5.8.9.5,1.1.4,2.5-.5,3.3-.8.8-2.2.8-3.2.4-1-.5-1.5-1.4-1.7-2.4-.1,0-.4.2-.4.1l.2-.1c.1-.1.1-.2.1-.4-.1.1-.4.1-.4,0,0,0,.3-.1.4-.2.1-.1,0-.4,0-.6-.1,0-.6,0-.7-.1,0,0,.5-.2.6-.2-.1,0-.9.2-.9.1,0,0,.8-.3.9-.3-.1,0-1,.2-1,.1,0,0,.5-.2.6-.2-.1,0-.9.1-1-.1,0,.1.1.5.1.5-.2,0-.2-.4-.2-.5-.4.1.1.5,0,.6-.1.2-.2-.4-.2-.5-.1.1-.2.2-.1.4,0,.1.2.4.1.4-.2.1-.2-.5-.2-.7-.2.2-.2.4-.1.7,0,.1.2.4.3.4,0,.1-.3-.2-.4-.2-.1-.2-.1-.3-.1-.5,0-.5.3-.6.7-.8.2-.1.3-.2.4-.4.1-.1-.1-.3.1-.2.1.1.1.5.1.6-.1.1-.2.2-.2.4.6-.1,1-.2.9-.8,0-.1-.2-.4.1-.2.2.2.2.7,0,.8.5-.2-.1-1.4-.1-1.4l.3.5c.1.2.1.5,0,.8.2-.1.2-.4.2-.5s-.2-.8-.2-.8c0,0,.1.2.1.3.1.2.1.3.2.4-.1-.3-.1-.6-.1-.9,0,.1.2.2.2.4.1.2.1.4.1.5,0-.2-.1-1.4-.1-1.4,0,0,.3.6.4.7.1.2.1.4,0,.6.1-.2-.1-1.7-.1-1.7l.2.4c.1.2.1.5.1.7,0-.1,0-1.5-.1-1.5.1-.1.3.7.3.8,0-.2-.2-.8-.2-.9.1-.4.4.5.4.6.1.3-.1.6.1.9.2.3.7.5,1,.3-.4,0-.2-.7-.2-.9.1-.4.1-.8-.1-1.2-.1-.4-.4-.6-.6-.8-.1-.1-.6-.7-.4-.7-.2,0,.5.7.5.7.2.2.5.5.7.8.2.4.1.7.2,1,.1.2,0,.2.2.3.2.1.4,0,.5-.1-.7-.1-.5-1.1-.8-1.5-.4-.7-1-1-1.4-1.5,0,.5.1,1.1.4,1.5.3.4.4.8.4,1.2,0,.2,0,.6-.1.8-.2.3-.1-.1-.1-.2.1-.2.1-.5,0-.8-.1-.4-.3-.5-.5-.7-.3.2-.1-.2,0-.4.1-.4-.1-.8-.1-1.2-.1-.7.2-1.4.2-2.1,0-.4-.2-.7-.3-1-.2-.5-.1-.8.2-1.2.2-.4.5-.7.5-1.1-.7-.2-.7-.9-.7-.9-.1,0,.5.7.5.7-.1-.6.1-1.1-.3-1.6-.3-.4-.8-.6-1.1-1-.1.5-.4,1-.4,1.5,0,.3.1.5.2.7,0,.2-.1.5-.2.8-.2.5-.4.8-.2,1.4,0,.1.2.4,0,.3-.2-.1-.2-.5-.4-.7.1.2.1.4.2.7.1.2.3.5.2.8-.1.2-.1.4-.2.1s-.1-.5-.2-.8c-.1-.4-.1-.9-.1-1.4s.3-1,.4-1.5c-.1,0-.4.4-.5.3,0,.1.5-.7.5-.7-.1.1-.5.5-.5.4,0,0,.5-.7.5-.8-.1.1-.5.5-.5.5,0,0,.4-.7.5-.7-.1.1-.5.5-.5.4,0,0,.4-.5.4-.6-.4.4-1.1.8-1.7.5,0,.1-.5,1-.6.8.1.1.4-.8.4-.8h-.1c0,.1-.5,1-.6.8,0,0,.3-.4.4-.4.1-.2.1-.4-.1-.6-.1.6-.4.8-1,.9-.5.1-1,.3-1.4.7s-.5,1-.8,1.5-.7.9-1.1,1.3c-.2.2-.2.4-.2.7v.5c0,.2.1.4-.2.4-.1,0-.3-.1-.4-.2-.1-.2-.1-.9-.1-1.2-.1-.5-.4-1-.3-1.4,0,0-.1.1-.2.1,0,0,.7-1,.8-1.1.2-.1.3.1.4.1.3-.2-.4-.4-.3-.5s.4.1.4.2c.2-.4-.4-.4-.4-.6,0-.1.5.1.5.1.3-.4-.2-.5-.3-.6-.2-.2.5.1.5.1.1-.2-.3-.6-.5-.6-.4-.1-.7.3-.9.6-.4.5-.7,1.4-.8,2-.1.7,0,1.6.2,2.3.1.6.5,1.8,1.2,1.7s1.4-.9,1.8-1.4c.5-.6.8-1.2,1-2,.1-.2,0-.8.2-.7.2.2-.1.7-.1,1-.1.8.5,1.5,1.3,1.3-.1,0-.6-.2-.5-.3l.5.2c.2,0,.4,0,.5-.2-.1,0-.7-.1-.7-.2,0,0,.7.1.8-.1-.1,0-.5-.1-.5-.2.1-.1.5.2.7-.1,0,0-.3,0-.3-.1s.2-.1.2-.1q.1-.1.1-.2c0-.1-.1-.5-.1-.5.2,0,.2.6.2.7,0,.3-.2.7-.4.9-.4.4-1.1.7-1.7.2.2.6-.2,1.3-.2,1.9,0,.3-.1.6,0,.8,0,.1.4.7.4.7-.2.2-.6-.9-.6-1-.1-.5,0-1,.1-1.4-.1.2-.3.5-.4.8-.1.1-.1.9-.2.9-.3.1.1-1.3.2-1.4.2-.4.3-.7.3-1.1-.1.4-.4.7-.6,1.1-.1.1-.2,1.3-.1,1.2-.2.1-.1-1.3,0-1.4.1-.4.4-.7.5-1.1-.2.2-.4.4-.5.5-.2.2-.2.3-.3.5-.2.5-.4,1-.2,1.5,0-.1.1-.5.1-.5.2,0-.4,1.7-.4,1.9.1-.4.3-.6.5-.9.1.4.1.6,0,.9s-.3.9,0,1.2c-.1-.1.1-1.2.2-1.2s-.1.7-.1.7c-.1.3,0,.5.2.8,0-.2.4-2.5.4-2.5.3,0-.2,2.2-.1,2.4,0-.1.4-1.1.4-1.1.1,0-.1.7-.1.8,0,.2.1.4.2.6,0-.1.1-1.3.1-1.3.1,0,.2.9.2,1,.1.4.2.7.4,1,.2-.3.4-.4.7-.6.1-.1.3-.6.4-.6.4-.1,0,.4-.1.5,0,.2,0,.3.1.5.1.1.3.3.2.3-.1.2-.5-.5-.6-.6-.1.2-.4.3-.5.5-.1.1-.2.5-.5.4-.1,0-.1-.5-.2-.6-.1-.3-.1-.5-.2-.8,0,.2.2.8.1,1-.2.2-.4-.4-.4-.5.1,1.7,1.2,3.5,2.4,4.7,1.5,1.5,3.6,2.7,5.8,2.1,1.8-.5,3-2,3-3.9,0-.8-.2-1.8-.8-2.4-.7-.6-1.7-.7-2.4-.2-.8.5-1.2,1.6-.6,2.4.5.7,2.3,1,2.3-.2-.1.1-.2.3-.3.2q.3.3.3.2ZM33.1,7.4c.2-.1.3-.2.4-.4,0,0-.2.2-.3.1,0,0,.3-.3.3-.4,0,0-.2.2-.3.1,0,.1.5-.6.5-.7.1-.4-.1-.7,0-1-.3,0-.7-.3-.8-.6-.2.3-.5.2-.8.2-.2,0-.5.2-.6-.2-.1.3-.2.5-.5.4,0,.2-.1.3-.3.3.1.4-.1.7-.1,1,.1.4.3,1,.5,1.3.6,1,1.5.7,2.2.1q-.1.1-.2.1s.3-.3.3-.4c-.2.1-.4.1-.3.1.2-.1-.1,0,0,0ZM35.9,12.6c-.1-.1-.4-.9-.2-.8-.1,0,.2.7.3.7,0-.1-.1-.6,0-.6-.1,0,.2.7.2.7,0-.1-.1-.7,0-.6-.1,0,.3.7.3.8-.1-.1-.2-.7,0-.7-.1,0,.2.7.3.7.1.1,1,.3,1,.2,0,.1-.9-.1-1-.1-.3.1-.6,0-.9-.3,0,0,0,.1,0,0ZM26.8,6.3c-.1.1-.5,1.1-.4,1.1.3.1.4-.8.4-.8,0,0-.1,1.7-.7.8-.4-.5-.4-1.3-.4-1.8s.1-1.4.5-1.7c.2-.1.1-.1.1.1,0,.3-.2.6-.2.9.1-.1.4-.7.4-.7l-.4,1c.1-.1.4-.7.4-.7,0,0-.4,1-.4,1.1.1,0,.4-.6.4-.6l-.4,1c.1-.1.4-.7.4-.7l-.4,1.1c.1-.1.4-.8.5-.8l-.4,1c.1-.1.5-.8.5-.8,0,0-.3.8-.4.8.1-.1.4-.7.4-.7,0,0-.4.9-.4,1,.2-.1.5-.4.5-.6ZM27.6,13.7c.3-.1.5-.6.7-.9.1-.1.5-.8.5-.6.1.2-.4.8-.6,1s-.4.5-.6.5c.1,0,0,0,0,0ZM34.7,12.4c0,.7-.3,1.2-.3,1.8,0,.1.2,1.6.1,1.6.1,0-.3-1.7-.3-1.8,0-.4.2-.7.2-1,.1-.1.1-.2.1-.4.1,0,.2-.4.2-.2ZM34.8,8.9c.1.2.3.4.3.7,0,.2-.2.4-.3.6-.1.2-.2.4-.3.6-.1.2-.1.4-.1.1-.2-.4.4-1,.4-1.3,0-.2,0-.5-.1-.8,0-.1-.3-.4-.2-.5.1,0,.2.2.2.2.1.1.2.1.4.2.1.1.3,0,.2.2s-.4.1-.5,0c.1.3.1.1,0,0ZM30.1,19.8c-.1.1-.2.9-.3.5,0-.1.1-.3.1-.4,0,0,.3-.1.2-.1-.2.2.1,0,0,0ZM30.3,20c-.1.1-.1.8-.2.4,0-.1,0-.3.1-.4,0,0,.2-.2.1,0,0,.1,0-.1,0,0ZM30.5,20c0,.1.1.4,0,.4q-.1.1-.2-.1l.2-.3c0,.1,0,0,0,0ZM30.8,20.1s-.1.3-.1.2c-.2,0,.1-.5.1-.2,0,0,0-.1,0,0ZM35.2,15.7c0,.2.4.4.5.6.2.2.3.5.3.8s0,.5-.1.8c0,.1.1.7.1.7-.2.2-.2-.4-.2-.5,0-.4.1-.7,0-1.1s-.2-.5-.4-.8c-.1-.1-.2-.2-.2-.3,0,0,0-.2,0-.2ZM31.8,16c.1,0,.4,0,.4.1s-.5,0-.4-.1c-.1,0,0,0,0,0,0,0-.1,0,0,0ZM31.7,15.9c.2-.1.5-.2.7,0,.1.1.1.2,0,.2.1,0-.3-.2-.3-.2-.2,0-.6,0-.4,0,.1-.2-.1,0,0,0ZM29.9,12.4c.1.1-.1.4-.2.1-.1-.3.4-.2.2-.1.2.1.1,0,0,0ZM31.9,9.2c.1,0,.5-.1.2.2-.1.1-.3-.3-.2-.2.1,0,0-.1,0,0ZM32.4,18.7c.1.2.1.4.1.7,0,0-.2.4-.3.2,0-.1.2-.4.2-.4v-.5c.1.3,0,0,0,0ZM29.8,21.1c.1.1.7-.1.6.1-.1.1-.2.1-.4.1-.1.1-.3-.2-.2-.2.1.1,0,0,0,0ZM30,21.6c.1.1.5-.1.6-.1.1.1-.4.3-.4.3-.1,0-.2-.2-.2-.2.2.1,0,0,0,0ZM30.3,22c.1,0,.5-.2.5,0-.1.4-.6,0-.5,0,.2,0,0,0,0,0ZM32.2,21.4c.1.1.7-.1.6.1-.1.1-.3.2-.4.1-.1,0-.3-.3-.2-.2.1,0,0-.1,0,0ZM33,21.7c.2.1.4-.3.5-.1.1.1-.5.1-.5.1.1,0-.1,0,0,0ZM32.1,22c.1.1.8-.1.4.2-.1.1-.2,0-.3,0-.1-.1-.2-.3-.1-.2.1,0,0-.1,0,0ZM33.1,22c.1.1.8-.3.4.1-.1.1-.3.2-.4.1-.1,0-.2-.3,0-.2.1,0-.1-.1,0,0ZM32.4,22.6c.1,0,.8-.2.5,0-.1.1-.4.2-.5.1,0,0-.1-.1,0-.1ZM33.4,22.6c.1.1.6-.2.4.1-.1.1-.3.2-.4.1s-.2-.3,0-.2c0,0-.1-.1,0,0ZM32.7,23.1s.7-.1.4.1c-.3.1-.4-.1-.4-.1.1.1,0-.1,0,0ZM33.3,23.2c.1,0,.7-.2.4.1-.1.1-.2.2-.4.1,0,0-.2-.2,0-.2.1,0-.1,0,0,0ZM34,23.4c.1,0,.6-.5.5-.1-.1.3-.5.1-.5.1.1,0,0,0,0,0ZM33.3,21.1s.7-.2.4.1c-.1.1-.2.1-.3.1-.3-.2-.1-.2-.1-.2.1,0,0,0,0,0ZM30.3,22.6c.1.1.8,0,.5.2-.2.1-.3-.2-.5-.2.2.1,0-.1,0,0ZM30.8,23c.1.1.7-.2.4.1-.1.1-.3.1-.4.1,0,0-.1-.3,0-.2.1.1,0,0,0,0ZM31.4,23.6c.1.1.6-.2.4.1-.1.1-.4.2-.5,0,0-.1,0-.2.1-.1.1,0-.1-.1,0,0ZM31.9,24c.1.1.7,0,.3.2-.3.1-.4-.3-.3-.2ZM33.4,24.1c.1,0,.6-.1.4.1-.2.3-.6-.1-.4-.1ZM34.1,24.3c.1,0,.5-.2.4.1-.1.1-.5-.1-.4-.1s0,0,0,0ZM34.7,24.6c.1,0,.7-.4.3.1-.2.3-.5-.1-.3-.1s-.1,0,0,0ZM35.6,24.7c.1,0,.8-.2.4.2-.4.3-.6-.3-.4-.2.1.1-.1,0,0,0ZM36.2,24.9c.1-.1.5-.3.4.1-.1.2-.6-.1-.4-.1.1,0-.1,0,0,0ZM36.2,25.8l.1-.1c-.3,0-.6.1-.9.1.1,0,.2-.1.3-.1-.1,0-1.1.1-1.1,0s.4-.1.4-.1c-.1,0-.3-.1-.4-.1s-.2.1-.2.2c-.1,0-.5,0-.5-.1s.6-.1.7-.1c-.1-.1-.2-.1-.4-.1-.1.1-.2.1-.3.1s-.5,0-.5-.1c0,0,.6-.1.7-.1-.2-.1-.4-.1-.6-.1-.1,0-.7,0-.7-.1,0,0,.6-.1.7-.1-.1-.1-.8-.3-.8-.3,0-.1.2-.1.2-.1-.1-.1-.2-.2-.3-.2l-.1.1c-.1,0-.3,0-.3-.1s.3-.1.3-.1c-.5-.4-.8-1-1.2-1.5-.2-.3-.3-.6-.4-.9s-.4-.7-.4-1.1c0-.2.1-.4.3-.2.2.1.2.5.3.7.2.5.4,1.1.7,1.5.5.9,1.3,1.7,2.3,2.1.6.2,1.2.4,1.8.4.2,0,2.3-.2,2.2-.3.2.2-1.8.7-1.9.8.1-.1,0,0,0,0ZM34,17.4c-.6.7-1.4.8-2.3.7-.4-.1-.7-.1-1-.3-.1-.1-1-.7-.9-.8,0,0,.9.5,1.1.6.6.1,1.3.1,1.8-.2.2-.1.9-.7.8-.2-.1.5-1.2.7-1.5.7.8.1,1.7-.2,2-1.1l-.2.1s.3-.3.3-.4c-.1,0-.4.2-.4.2l.4-.4c-.1.1-.4.1-.4.1.1-.1.4-.2.3-.4-.1,0-.4.3-.4.3,0,0,.4-.5.4-.6-.1.1-.2.2-.4.4.2-.2.4-.5.4-.8-.1.1-.4.6-.5.5,0,0,.5-.7.4-.8-.2.3-.8.8-.3.2.2-.4.5-.9.2-1.2-.1-.2-.1-.1-.4-.1-.2,0-.5-.1-.7-.2-.2-.1-.3-.3-.4-.5,0-.1-.2-.6-.1-.5,0,0,.3.6.4.7.2.2.8.5,1.1.2.1-.1.1-.4.1-.5.1-.2.1-.4.1-.7,0-.1-.2-.9-.2-.9.1-.1.4.5.4.6.1.3.1.5,0,.8s-.3.8-.1,1.1c0-.5.4-.9.4-1.4,0-.3-.1-.5-.2-.7-.1-.1-.1-1,.1-.9-.1,0,0,.7.1.7.1.3.3.5.3.8,0,.5-.4,1-.5,1.5-.2.9.7,2.3-.2,3.4ZM31.5,7.4c.1.1.5-.1.6-.1h.5c.1.1-.5.1-.6.1s-.2.1-.4,0c-.1.1-.2-.1-.1,0,0,0-.1-.1,0,0ZM31.8,7.7c.1,0,.5-.1.4.1s-.5-.1-.4-.1c0,0-.1,0,0,0ZM31.7,6.8c.2,0,.1.1.1.1,0,0-.3-.1-.1-.1.1,0,0,0,0,0ZM32.1,6.9q.1-.1.2-.1c.1.1-.3.2-.2.1ZM31.4,5.8c0,.2-.2.2-.2,0-.1,0-.3.1-.4,0s.4-.2.4-.2c.4-.1.7.2.2.2ZM31.8,5.8c0,.1.1.7,0,.7s0-.7,0-.7c0,.2,0,0,0,0ZM32.1,5.9c-.1-.3.1-.4.4-.4.1-.1.8-.1.7.2-.1.1-.3,0-.4,0,.1.2-.1.1-.2.1s-.1-.1-.2-.1c-.2.1-.1.1-.1.2-.1.1.1.8.1.8-.3.1-.3-.6-.3-.8,0,0,.1.3,0,0Z"/>
    <path id="book-yellow" class="st7" d="M6.1,37.1h.7c0-.4.1-.4-.2-.4-.4,0-.8,0-1,.4h.5c.1,0-.2,0,0,0ZM6,37.4c-.2,0-.4-.1-.5,0,.2.6.8.4,1.2.5v-.4c-.2-.1-.5-.1-.7-.1s.1,0,0,0ZM6.7,41.5c.2,0,.4,0,.7.1q0-.4-.3-.4c-.4,0-.7,0-.9.4.1-.1.3-.1.5-.1s-.2,0,0,0ZM6.7,41.7c-.2,0-.4-.1-.5-.1.2.6.8.4,1.2.5v-.4c-.3.1-.5,0-.7,0s.1,0,0,0ZM34.9,32.7c0,.9-.1,1.8-.1,2.7.5-.1,1.2-.1,1.7.2.7.4,1.2.6,2,.7.7.1,1.2.2,1.7.7.3.3.3.4-.1.4-.4.1-.7,0-1.1.1-.8.2-1.3.3-2.1.1-.6-.2-1.1-.7-1.7-.6-.2,0-.4.1-.5.2-.1.1,0,1,0,1.1,0,.7,0,1.3-.1,2,.4-.1.8-.1,1.2,0,.5.1.9.4,1.4.5s.9,0,1.3.1,1,.2,1.3.5c.4.3.3.4-.1.5-.5.1-1,.2-1.4.4-.8.3-1.7.1-2.4-.3-.2-.1-1-.4-1.2-.1-.1.2-.1.8-.1,1-.1.9-.1,1.7-.1,2.6,0,.3,0,.5-.2.7-.4.3-.9.5-1.4.6-1,.2-2,.1-3,0-1.8-.3-3.8-1.2-5.7-.6-.6.2-.8.8-1.5.8-.4.1-1-.1-1.2-.4q-.2-.2-.5-.4c-.8-.3-1.9-.2-2.8-.1-1,.1-1.9.5-2.9.6-1,.2-2.1.2-3.1-.1-.4-.2-1-.3-1.3-.6-.3-.2-.1-.5-.1-.9,0-.5,0-1.1-.1-1.7,0-.2.1-.9-.1-1.1-.2-.2-1-.1-1.3.1-.2.1-.4.2-.7.2s-.5.1-.7.1c-.2.1-.3.1-.5.1-.5,0-1,.1-1.4-.2-.2-.1-.4-.3-.5-.5-.1-.1-.1-.3-.1-.4-.1-.1-.7.1-.7-.1.2-.2.4,0,.6-.1s.2-.2.4-.5c.4-.5,1.1-.4,1.6-.4.4.1.7.2,1.1.1.4-.1.7-.3,1.1-.4.4-.1.8-.1,1.1,0,0-.5,0-1-.1-1.5,0-.2.1-.9-.1-1.1-.3-.3-1.2-.2-1.6-.1-.2.1-.4.2-.6.3-.2.1-.5.1-.7.1-.2.1-.4.2-.7.2-.4,0-.9.1-1.3-.1-.2,0-.4-.1-.5-.3-.1-.1-.1-.4-.1-.5-.1-.1-.7.1-.7-.1.1-.2.4,0,.6-.1.1-.1.1,0,.2-.1s.1-.4.2-.5c.4-.5,1.1-.5,1.7-.4h.4c.1,0,.1.1.1.1.4.1.7-.1,1-.2.7-.3,1.4-.5,2.1-.2-.1-.5-.1-1-.1-1.5,0-.2-.2-1.4,0-1.5-.1.1.4.1.4.1.1,0,.2-.1.3-.1.2-.1.3-.3.4-.4.2-.2.5-.7.8-.8.2-.1.7.1,1,.1.4,0,.8,0,1.3-.1,1.1-.2,2.1-.7,3.2-1,1.1-.2,2.3-.4,3.3-.3.3,0,.6.1.8.1.2.1.5.2.8.2s.7-.2,1-.2c1.2-.3,2.5-.2,3.7-.1,1.1.1,2.1.5,3.1.8s1.8.2,2.7.2c.3,0,.2-.1.5.2.1.1.2.3.4.5.1.1.3.2.4.4-.2.2.1.5.4.3,0,1.1-.2.1,0,0Z"/>
    <path id="white-page" class="st2" d="M33,31.4c-1.2.2-2.4.1-3.7-.3-1.5-.5-2.9-.7-4.5-.7-.4,0-.8.1-1.2.1-.4.1-.8.3-1.1.4-.2.1-.6-.2-.9-.2-.4-.1-.7-.2-1-.2-1.5-.1-3,.1-4.3.6-.8.2-1.7.6-2.5.7-.6.1-1.1,0-1.7-.1,0,.7.1,1.4.2,2,.1.8.1,1.7.1,2.5,0,1.7.1,3.4.2,5,.1.8.1,1.6.2,2.4,0,.2-.1.7.1.8.1.1.6.1.8.1,1.4.1,2.7-.4,4.1-.6.8-.1,1.7-.1,2.6-.1.4.1.7.1,1.1.2.3.1,1,.2,1.1.5.4-.5,1.4-.7,2-.8.8-.1,1.6-.1,2.4-.1.8.1,1.5.2,2.3.5.8.2,1.4.5,2.3.4.2,0,.4-.1.5-.1.2,0,.5,0,.6-.1s.1-.2.1-.4c0-.8.1-1.5.1-2.3.1-1.7.2-3.3.2-4.9-.3-1.7-.3-3.4-.1-5.3Z"/>
    <path id="pages" class="st1" d="M23.5,31.6v-.8c0-.1.1-.3,0-.4-.1,0-.2-.1-.2,0v10c0,.5,0,1.1.1,1.7v1.5c-.1-.5.1-3.1.1-3.4v-3.4c0-1.2,0-2.4-.1-3.5.1-.6.1-1.2.1-1.7ZM22.5,39.3v-5.3c0-.9,0-1.7-.1-2.6,0-.1.1-.5,0-.6l-.1-.1c-.2-.1-.7-.2-1-.2.1,2.6.1,5.1.1,7.7,0,1.4.1,2.7.2,4,.1.5,0,1.1.1,1.7,0,.1,0,.3.1.4.1.1.5.3.6.4.5.4.2-.6.2-.8v-1.2c-.1-1.2-.1-2.3-.1-3.4ZM21.1,31.9v-.8c0-.2.1-.7-.2-.7v3.9c0,1.5.1,3.1.1,4.7v2.6c0,.2-.1,2.4.1,2.5-.1,0,.1-1.5.1-1.7,0-.6.1-1.2.1-1.7v-3.4c0-1.2,0-2.4-.1-3.6-.1-.7-.1-1.2-.1-1.8ZM20.8,31.8v-.8c0-.2.1-.6-.2-.7v3.3c0,1.6.1,3.3.1,4.9v2.6c0,.2-.1,2.3,0,2.3-.1,0,.1-1.5.1-1.7,0-.5.1-1,.1-1.5v-3.3c0-1.2,0-2.3-.1-3.5v-1.6ZM20.4,31.3c0-.2.1-1-.2-1v2.7c0,1.6.1,3.3.1,4.9v2.6c0,.2-.1,2.3,0,2.3-.1-.1.1-2.9.1-3.2v-3.2c0-1.1,0-2.3-.1-3.4.1-.6.1-1.2.1-1.7ZM23,30.6c-.2.1-.2.3-.2.5v9.5c0,.3-.1,3,.1,3-.1,0,.1-3,.1-3.2v-9.8ZM13.1,31.7c0-.1,0,0,0,0ZM13.5,37.5c-.1-2-.2-3.9-.2-5.9,0-.1-.2,0-.2.1.1,2,.2,4,.2,6.1.1.8.1,1.6.1,2.4,0,.1.1.7.1.8.1-.1,0-.8,0-1,0-.8,0-1.6,0-2.5ZM15.2,31.9c0,.4.1.7.1,1.1v.4-.4c.1,1.2.1,2.3.2,3.5,0,.5.1,1.1.1,1.6,0,.4-.1,1.2.1,1.5-.1-2.8-.2-5.6-.3-8.4-.4.2-.3.5-.2.7ZM15.7,33.8s0-.1,0,0c0,.2,0,.6,0,0ZM15.7,32.2c0,.5.1,1,.1,1.5,0-.2,0-.4,0,.1,0,.7.1,1.2.1,1.9,0,.3.1.5.1.8,0,.1.1.3.1.5-.1-2-.1-3.9-.2-5.8-.4,0-.2.7-.2,1ZM16,31.8c0,.4.1.9.1,1.3.1,1.1.1,2.4.2,3.5.1-1.8-.1-3.7-.1-5.5-.3,0-.2.4-.2.7ZM31,40.9c.1-.3.1-.2,0,0,.1-1.5.1-3.1.1-4.7,0-.8.1-1.7.1-2.6,0-.2.1-2.3.1-2.3.1,0-.1,1.3-.2,1.5-.1.6-.1,1.2-.1,1.7-.1,1.1-.1,2.3-.1,3.4-.1,1.2-.1,2.4-.1,3.6,0,.5-.1,1.1-.1,1.7v.8c0,.2-.1.7.1.7.1-1.2.2-2.5.2-3.8,0,.4,0,1,0,0ZM31.4,41.5c-.1,1.3,0-.8,0,0ZM31.5,34.1c0-.2.1-2.3.1-2.3.1.1-.2,2.9-.2,3.2-.1,1.1-.1,2.2-.1,3.3-.1,1.2-.1,2.3-.1,3.5,0,.5-.1,1-.1,1.5v.8c0,.2-.1.6.2.7.1-1.1.1-2.2.1-3.3.1-1.6.1-3.3.1-4.9v-2.5ZM31.9,37.1c0-.8.1-1.7.1-2.6,0-.2.1-2.3.1-2.3.1,0-.1,1.4-.1,1.6-.1.5-.1,1.1-.1,1.6-.1,1.1-.1,2.1-.1,3.2-.1,1.1-.1,2.3-.1,3.4,0,.5-.1,1.1-.1,1.7,0,.2-.2,1,.2,1,.1-.9.1-1.8.1-2.7,0,.2,0,.6,0,0,0-.4,0-.2,0,0-.1-1.6-.1-3.3,0-4.9ZM30.7,32c-.3,2.1-.3,4.2-.4,6.4-.1,1.1-.1,2.3-.1,3.4,0,.5-.1,1.1-.1,1.6v.7c0,.3-.1.5.2.7.1-1,.1-1.9.1-2.9,0,.3,0,.6,0-.1,0-.3,0-.2,0,0,.1-1.6.1-3.2.1-4.9,0-.8.1-1.7.1-2.6.1-.7,0-1.6.1-2.3ZM32.1,41.9q0-.1,0,0ZM32.2,37.2c0-.8.1-1.7.1-2.6,0-.8-.1-1.5.1-2.3-.2,2-.2,4-.4,6.1-.1,2.1-.1,4.2-.2,6.2.3-.1.2-.2.2-.5v-.6c0-.5.1-1,.1-1.4v.3-.5.2c.1-1.7.1-3.3.1-4.9ZM32.8,32.4q-.1,0,0,0c-.3,2-.3,4-.4,6.1-.1,2.1-.1,4.1-.2,6.2.3.1.2-.7.2-.9,0-.5.1-1.1.1-1.6v.1-.2.1c.1-1.6.1-3.3.1-4.9,0-.8.1-1.7.1-2.6,0-.8,0-1.6.1-2.3ZM32.5,42v-.1.1ZM32.5,42.2v.1-.1ZM29.7,43.6c0-.2,0-1.2,0,0ZM30,36.4c-.1,1.3-.2,2.6-.2,3.9,0,.7-.1,1.4-.1,2.1,0,.4-.1.8-.1,1.2v.5c0,.2-.1.3.2.4v-1q0,.1,0,0c.1-1.3.1-2.6.1-3.9,0-.7,0-1.3.1-2v-1.2ZM29.5,38.4c-.1.8-.1,1.7-.2,2.5,0,.7-.1,1.2-.1,1.9,0,.2,0,.5-.1.8v.5c0,.2-.1.2.2.4.1-1,.1-2,.1-3,0-.8,0-.4,0,0,.1-1.1,0-2.1.1-3.1ZM13.9,37.1c0-1-.1-2.1-.1-3.1,0-.5-.1-1-.1-1.5,0-.2.1-1-.2-.8,0,.5.1,1,.1,1.5,0-.1,0-.2,0,0,.1,1.7.1,3.4.2,5.2,0,.5.1,1.1.1,1.7,0,.1.1.5.1.6.1-.2,0-.8,0-1,0-.9-.1-1.8-.1-2.6ZM13.6,33.6v-.4.4ZM13.6,33.6q0,.1,0,0ZM14,32.8c0,.2,0,1,0,0ZM14.3,37.2c-.1-1.8-.1-3.7-.2-5.6h-.2c0,.4.1.8.1,1.1q0-.1,0,0c.1,1.7.1,3.4.2,5.2,0,.5.1,1.1.1,1.7,0,.1.1.5.1.6.1-.1,0-.6,0-.8-.1-.7-.1-1.5-.1-2.2ZM14.7,37c-.1-1.8-.1-3.6-.2-5.5-.4-.1-.2.7-.2.8q0-.1,0,0c.1,1.7.1,3.4.2,5.2,0,.5.1,1.1.1,1.7,0,.1.1.5.1.6.1-.1,0-.7,0-.8,0-.7,0-1.3,0-2ZM15.1,36.8c-.1-1.8-.1-3.5-.2-5.3-.3-.1-.2.3-.2.5,0,.1.1,1.2,0,0,.1,1.7.1,3.4.2,5.2,0,.5.1,1.1.1,1.7,0,.1.1.5.1.6.1-.1,0-.5,0-.7,0-.8,0-1.4,0-2Z"/>
    <path id="black-centre-line" class="st6" d="M22.9,37.6s-.1-6.8-.3-6.8c-.2-.1-.1.7-.1,1v11.2c0,1.1-.1,1.6.1,1.6s.1-1,.1-1c0,0,.2-6,.2-6Z"/>
    <path id="book-custard" class="st8" d="M8.1,40.9c0,.1.1,0,0,0ZM35.9,41.1c.2-.1.1-.5-.2-.4-.3,0,0,.5.2.4ZM6.6,37.5l31.5,4c.5-.1-.1-.5-.2-.3-.4.1,0,.3.2.3l-31.5-4ZM35.2,37c.4-.1.6.1.9.2.5.3,1.1.5,1.7.6.7.1,1.1-.3,1.8-.4.4-.1,1.5.1.8-.6-.5-.4-1.1-.7-1.8-.7-.7-.1-1.2-.2-1.8-.5s-1.2-.5-1.9-.4c0-.7.1-1.3.1-2,0-.2.1-.5-.1-.7q-.1,0-.2.1c-.1-.1-.2-.1-.4-.2l-.2-.2c-.2-.2-.4-.4-.5-.6s-.3-.4-.5-.5c-.1-.1-.4.1-.5.1-.2,0-.5,0-.7.1-1.1.1-2.1-.4-3.1-.7-1.2-.3-2.3-.4-3.5-.5-.6,0-1.2,0-1.8.1-.3.1-.7.3-1,.3-.2,0-.4-.1-.7-.2-1.1-.3-2.2-.2-3.3-.1-1.2.1-2.3.5-3.4.9-.8.3-1.7.4-2.7.3-.4-.1-.6-.1-.9.3-.2.2-.3.3-.5.5s-.3.4-.5.5c-.4.1-.5-.2-.5.3-.1.3,0,.6,0,.9.1.6.1,1.2.2,1.8-.9-.3-1.5.1-2.3.4-.1.1-.4.1-.5.1-.2,0-.1-.1-.2-.1-.2-.1-.5,0-.7,0-.4,0-.7-.1-1,.1-.2.1-.3.2-.4.4,0,.1-.1.5-.1.5-.1.1-.5-.1-.6,0-.5.1.1.3.3.3h.2c.1.1.1.4.3.5.2.3.6.5,1,.5h1c.2,0,.2-.1.4-.2.1-.1.4,0,.5-.1.8-.2,1.3-.7,2.2-.5q.4.1.4.5v.6c0,.5,0,1,.1,1.4-.5-.1-.9-.1-1.3.1-.4.1-.8.4-1.2.4-.1,0-.2-.1-.2-.1h-.4c-.4,0-.8-.1-1.1,0-.2.1-.4.1-.5.3-.1.1-.2.5-.3.5-.2.1-.5-.1-.7,0-.3.3.4.2.5.3.2.1.1,0,.2.2s.2.4.4.5c.5.4,1.5.4,2.1.3.1,0,.1-.1.2-.1h.4c.2,0,.4-.1.5-.2.3-.1.6-.2,1-.3.1,0,.5-.1.7.1.1.1.1.3.1.5,0,.4.1.8.1,1.2,0,.5.1,1,0,1.4s-.1.4.3.6c1.7,1,3.4,1,5.2.5.8-.2,1.5-.4,2.3-.4.8-.1,1.8-.2,2.5.2.3.2.4.4.8.6.4.1.8.2,1.2.1.4-.1.5-.4.8-.6.2-.2.7-.3,1-.4,1.8-.3,3.3.4,5,.7.9.1,1.9.2,2.8.1.5-.1,1.7-.4,1.9-.9.1-.2.1-.6.1-.8v-1.2c0-.4.1-.9.1-1.3,0-.2-.1-.5.1-.7-.1-.2.1-.2.4-.2q-.1,0,0,0c.2,0,.1,0,0,0,.5.1.9.4,1.4.5s1,.2,1.5.1.8-.4,1.4-.4c.3,0,1,0,.7-.4-.2-.3-.8-.6-1.2-.7-.5-.1-1,0-1.5-.1s-.9-.3-1.3-.5c-.5-.2-.9-.1-1.4-.1,0-.7.1-1.4.1-2.1,0-.2-.1-.4,0-.6q-.6-.1-.3-.2h0ZM37.3,36.2c.2.1.1.2.1.3-.2,0-.1-.2-.1-.3ZM35,36c0-.2.1-.4.1-.5.2,0-.1,1.1.1,1.1.1,0,.2-.5.2-.5h.1s-.2.4,0,.4.1-1,.3-1c0,.1-.1.6-.1.6l.2-.7c.2,0,1,.2,1.1.5.1.1-.2.8-.1.8s.2-.7.2-.8c.2.1.1.2.1.4q-.1.1,0,.3c.1.6.1-.2.3-.1l.1.1c0,.1-.1.3,0,.3s.2-.7.2-.8c.1.1,0,.8.1.8,0,0,.2-.7.2-.8h-.1c0,.1-.1.8-.1.8,0,0,.1-.3.1-.4.1-.2,0-.3.1-.4.2-.1.7,0,.8,0,.5.1,1.2.4,1.5.8-.5-.1-1-.3-1.4-.1-.5.2-1,.3-1.5.2s-1-.4-1.4-.6c-.2-.1-.4-.1-.6-.2-.2,0-.2.1-.4-.1-.1-.1-.1-.4-.1-.4q0,.3,0,.3ZM37.4,37.4c.5.1,1,.1,1.5-.1s.9-.1,1.4-.1c-.1,0-.8,0-1.2.1-.5.2-.8.3-1.3.2-1-.1-1.8-1-2.9-.7-.1-.5,2.2.5,2.5.6ZM4.2,37.2c0-.1.5-.1.6-.1,0,.3-.5.2-.6.1ZM5.6,37.3c0-.2.4-.1.6-.1.1,0,.5-.1.5.1h-1.1ZM6.6,37.5v.2c-.3-.1-.8.1-1-.3.3.1.7.1,1,.1ZM6.6,37.1h-1c.2-.2.7-.2,1-.2v.2ZM5,37.2c.1-.8.9-1.1,1.6-1q0,.4-.4.4c-.4,0-.7.1-.8.4-.3.7.7,1.1,1.2,1v.3c-.7,0-1.7-.1-1.6-1.1ZM6.7,36.2c.2,0,.4.1.4.2.1.1.1.4.1.5v.7c0,.3,0,.4-.3.4,0,0,.1,0,0,0-.2-.1,0-1.7-.2-1.8ZM6.8,38.2v-.2h.4c0,.3-.3.2-.4.2ZM4.9,41.5c-.1-.1.4-.1.5-.1.2.2-.4.2-.5.1ZM6.2,41.6c0-.2.5-.1.6-.1s.5-.1.5.1h-1.1ZM7.2,41.9v.2c-.3-.1-.8.1-1-.3.3,0,.7.1,1,.1ZM7.2,41.5c-.4,0-.7-.1-1-.1.1,0,.1-.1.1-.1.1-.1.4-.1.5-.1.3,0,.4,0,.4.3ZM5.6,41.6c0-.9,1-1,1.6-.9v.4c-.5,0-1.5-.1-1.2.7.1.3.5.4.8.5.4.1.5-.1.5.3-.6,0-1.7-.1-1.7-1ZM7.3,40.7c.2,0,.4.1.4.2.1.1.1.4.1.5v.7c0,.3,0,.4-.3.4-.2-.2,0-1.7-.2-1.8ZM7.4,42.6v-.1h.4c0,.1-.2.1-.4.1ZM33.1,33.6v2.1c0-.6-.1-1.4,0-2.1ZM33,44.4c0,.3.1.4-.2.5s-.5.1-.7.1c.1-.2-.1-.2-.2-.2.4,0,.8-.1,1-.2.1-.2,0-1,.1-1.2.1-1.4.2-2.9.2-4.3.1.9,0,1.8-.1,2.8,0,.4-.1.8-.1,1.1-.1.4-.2,1,0,1.4ZM13.8,31.7c.9-.1,1.7-.4,2.5-.7,1.4-.4,2.9-.7,4.3-.6.4,0,.7.1,1,.2s.7.3.9.2c.4-.1.8-.3,1.1-.4.4-.1.8-.1,1.2-.1,1.5,0,3,.2,4.5.7,1.2.4,2.4.6,3.7.3-.1,1.8-.1,3.6-.1,5.4.1,1.7-.1,3.3-.2,4.9-.1.8-.1,1.5-.1,2.3,0,.2.1.3-.1.4-.1.1-.4.1-.6.1s-.4.1-.5.1c-.8.1-1.5-.1-2.3-.4-.7-.2-1.5-.4-2.3-.5s-1.6-.1-2.4.1c-.6.1-1.6.3-2,.8-.2-.3-.8-.4-1.1-.5-.4-.1-.7-.2-1.1-.2-.8-.1-1.7-.1-2.6.1-1.4.2-2.7.7-4.1.6-.2,0-.7,0-.8-.1s-.1-.6-.1-.8c-.1-.8-.1-1.6-.2-2.4-.2-1.7-.2-3.4-.2-5,0-.8,0-1.7-.1-2.5-.1-.7-.2-1.4-.2-2,.7,0,1.3.1,1.9,0ZM23.3,44.5c.2-.1.4-.1.5-.2.1,0,1.1-.4,1.1-.4l-.1-.1c1.2-.2,2.3-.1,3.4.2-.1.1.1.2.1.2-1.1-.3-2.1-.4-3.3-.3-.9.1-1.6.4-2.4.7-.1,0,.1-.2.2-.2,0,.4.5.2.5.1ZM23,45c-.1.1.7-.2.8-.2.4-.1.7-.2,1-.3.7-.2,1.4-.2,2-.1,1.2.1,2.4.6,3.6.8.2,0,.3.1.5.1-.4,0-.8-.1-1.2-.1-.5-.1-1-.4-1.4-.4-.1,0-.1.1-.2.1s-.2-.1-.3-.1c-.2-.1-.5-.1-.8-.1-.5-.1-1-.1-1.5,0-.9.1-1.8.2-2.6.7,0-.3.1-.4.1-.4ZM28.4,44.3c.7.2,1.2.4,1.9.5-.5-.1-1.4-.2-1.9-.5ZM23.4,45.1c-.5.4.6-.1.7-.1.3-.1.7-.3,1-.3,1-.1,2-.1,2.9.2.8.2,1.6.5,2.4.6.2,0,.4,0,.6.1-.2,0-.4.1-.5.1h-.7c-.5-.1-1-.2-1.5-.3-1-.2-1.8-.3-2.9-.3-.5,0-1,.1-1.4.2-.2.1-.5.1-.7.2-.2.1-.4.2-.5.1.4-.3.5-.4.6-.5ZM21.6,45.3c.1-.1.5.1.5.2v.1c-.2-.2-.3-.3-.5-.3ZM22,45.7c-.2.1-.4,0-.5-.1.1,0,.1-.1.1-.1.1,0,.3.1.4.2ZM21.9,45c.2,0,.3.1.4.1v.1c-.1-.1-.3-.1-.4-.2ZM21.9,44.7c.1,0,.1-.1.1-.1.1.1.3.1.4.3-.1-.1-.3-.1-.5-.2ZM7.5,36.5c.7,0,1.1-.6,1.8-.7.3,0,.9,0,1,.2.1.3.1.9.1,1.2-.2-.1-.1-.4-.2-.6,0-.1,0-.6-.1-.6s0,1,0,1c-.2,0-.1-1-.3-1-.1,0,0,.9,0,1-.2-.1-.1-1-.2-1-.2,0,.1,1-.1,1,0-.1-.1-1-.2-1s-.1.6-.1.7c0,.4,0,.3-.4.4-.4.1-.9.2-1.2.5.1-.3-.1-.7-.2-1,0,.1-.1.2,0,.4.1-.1,0-.3.1-.5ZM10.4,37.7c-.7-.2-1.2-.1-1.8.1-.2.1-1.2.6-1.1.2.5,0,1-.5,1.5-.6.2,0,1.6-.2,1.4.3ZM9.7,40.4c.2-.1.7-.1.8.1.1.2.1.8.1,1.1q-.2-.1-.2-.4c0-.1,0-.5-.1-.5-.2,0,.1.9-.2.9.1-.1,0-.9-.1-.9s0,.5,0,.5c0,.2.1.4-.1.4.1-.1,0-.9-.1-.9s-.1.9-.1,1c-.4.1-.9.2-1.3.4,0-.1-.1-1-.2-1s-.1.1-.1.1v-.3c.6,0,1.1-.4,1.6-.5ZM9,42.3c-.2.1-.7.3-.9.2s.2-.2.2-.2c.2-.1,2.4-.9,2.3-.2-.6-.2-1.1,0-1.6.2ZM21,45.8c-.5-.2-1.1-.2-1.6-.2-.9,0-1.8.2-2.6.4-2,.5-4.1.8-5.9-.4.2-.2.1-.8.1-1.1,0-.6,0-1.2-.1-1.7-.1-1.1-.1-2.1-.2-3.1-.1-2.3-.4-4.5-.5-6.7.4.1.8-.4,1-.6.1,0,.2-.1.2-.1.1-.1.1-.2.1-.2.1-.1.2-.3.3-.4v.9c0-.2-.4-.4-.4-.1-.4-.2-.4.6-.4.8,0-.1,0-.4-.2-.4-.1,0-.2.1-.1.2-.2-.1-.2.2-.2.2-.1-.2-.2,0-.2.1-.1.2,0,.4,0,.7.1.5.1,1,.1,1.5.1.4.1.9.2,1.3,0,.2.2,1.3.1,1.4-.1.1.1,1.4.1,1.7.1.7.1,1.4.2,2.1.1.7.1,1.4.1,2.1,0,.1,0,1.2.2,1s0-1.2-.1-1.5c0-.7-.1-1.4-.1-2-.1-.7-.1-1.4-.2-2.1,0-.5.1-1,.1-1.4.1,1.3.1,2.6.2,3.9.1.7.1,1.3.2,2,0,.2-.1.8,0,.9.2.3.2-.4.2-.5,0-1.3-.2-2.6-.2-3.9s-.1-2.6-.1-4c.1.7.5,8,.7,8,0,0-.3-5.2-.3-5.8.2.1.2,1.6.2,1.9.1.8.1,1.5.2,2.3.1.4,0,.7.1,1s.1.3.1-.1c.1-.7-.1-1.4-.2-2.1-.1-1.4-.3-2.9-.2-4.3.1-1.5-.1-3-.1-4.5.1,1.8.1,3.7.2,5.6.1,1.8.4,3.6.5,5.3,0,.1-.1.3,0,.4.1.1.3.1.4.1h.8c.8.1,1.5-.1,2.3-.2,1.4-.4,3.1-.7,4.6-.2.1.1.2.1.4.2-1.4-.4-2.9-.1-4.3.1-.6.1-1.2.2-1.9.3-.5.1-1,.1-1.5,0-.1,0-1-.2-.9-.3-.1.2,1,.4,1,.4-.2,0-.7-.1-.8-.1-.2.1.2.2.4.2.5.1,1,0,1.4,0,.5,0,1-.1,1.5-.2.2-.1.5-.2.7-.2,1.2-.2,2.9-.6,4-.1-1.4-.2-2.7,0-4.1.3-.8.2-1.6.3-2.4.4-.4,0-.8,0-1.2-.1-.1,0-.8-.2-.8-.3-.2.3,1.9.5,2,.5-.4.1-.8.1-1.2.1-.1,0-.4-.1-.4-.1-.1.2.2.2.4.2-.1,0-1.1-.3-1.1-.3-.1.2.9.4,1,.4.6.1,1.2.1,1.8,0-.5.1-1,.2-1.5.1-.1,0-.7-.2-.7-.2-.1.1.2.2.3.2-.2-.1-.4-.1-.5-.1-.2-.1-.5-.2-.7-.2s-.1.1.1.1c.2.2.5.2.8.3.6.1,1,.3,1.6.3s1.2-.1,1.7-.2c.5-.1.9-.3,1.4-.4.4-.1.8-.1,1.3-.2,1.2-.1,2.3-.1,3.4.4-.4.7-.6.4-.8.3ZM16.6,45.5h-.1c1.4-.3,3-.5,4.4-.2h-.1c-.2-.1.2.2.2.2-1.5-.3-3,0-4.5.2.1,0,.3-.1.1-.2ZM16.6,45.3c.1-.2-.6-.1-.7-.1,1.5-.4,3.4-.7,5-.3-.1,0-.3-.1-.4-.1,0,0,.4.2.5.2-1.4-.3-2.9,0-4.4.3ZM23.4,46.4c-.5.4-1.2.3-1.7.1.1-.4.7-.1,1-.1.1-.1.9-.6.7,0ZM34.4,45v.6c-.1.3-.3.4-.6.5-.7.3-1.3.4-2,.3-.9,0-1.7-.1-2.6-.3-.7-.2-1.3-.4-2-.5s-1.4-.1-2.1-.1c-.4,0-.8.1-1.1.2-.2.1-.3.2-.5.1.5-.5,1.8-.5,2.5-.5.9,0,1.7.1,2.6.4.8.2,1.7.5,2.6.5.5,0,1,0,1.4-.1.2-.1.5-.1.7-.2.1,0,.5-.2.4-.2-.1-.1-.6.2-.7.2-.2.1-.5.1-.8.1-.2,0-.6,0-.8-.1-.1.1-.2.1-.5.1-.6,0-1.1-.1-1.7-.2-.2-.1-.5-.2-.7-.2-.1,0,0,.1.1.2-1.5-.4-3.1-.6-4.6-.2-.1.1-.7.3-.8.2-.2-.1.5-.2.5-.2.5-.1,1.1-.4,1.6-.4.7-.1,1.5-.1,2.2.1.7.1,1.3.4,2,.5s1.4.2,2.1.2c.4,0,.7,0,1.1-.1.1,0,.8-.3.7-.4-.1-.1-.4.1-.5.2-.2.1-.4.1-.5.1-.2,0-.5.1-.7,0s-.1-.1-.4-.2h-.1c.3,0,.6,0,.9-.1.2,0,.5-.1.7-.1.1,0,.4-.2.4-.2-.1-.1-.4.1-.5.2-.2.1-.4.1-.5.1-.2-.1-.1-.1-.3-.2h-.1c.3,0,.6-.1.9-.1.7-.2.6-.8.5-1.4-.1-.7.1-1.4.1-2.1,0-.8.1-1.5.1-2.3.1,1.2.1,2.4.1,3.7v-.4c0,.4-.1,1-.1,1.5,0,.1,0,1.1.1,1.1.2.1.2-1.9.2-2.1.1-.9.1-1.8.1-2.7,0,.2.1,1.2.2,1.1,0,.4-.1.9-.1,1.3q-.1.2-.1.5c-.1.4-.2,2,.1,2.1.1,0,.1-1.6.1-1.8.1-.8.1-1.7.1-2.6q.1.1.2,0c0,.4-.1.8-.1,1.2s.1.8,0,1.2c0,.2-.4,1.8-.1,1.9,0,.2.1.1.2,0s.1-.4.1-.5c.1-.4.1-.9.1-1.3v-1.6c0-.3.1-.5.1-.8v-.4l.1-.1c-.2,1.5-.3,2.9-.3,4.3ZM34.4,38.3v-.6.6ZM34.6,40.3v-.6.6ZM39.8,41.3c.1.1.2.1.2.2-.1,0-.2-.1-.3-.1.1.1.1,0,.1-.1ZM39.6,41.2c.1.1.1.2.1.3-.3,0-.2-.1-.1-.3ZM39.3,41.1c.2.1.1.2.1.4-.2-.1-.1-.2-.1-.4ZM39.1,41c.1.1.1.2.1.3-.1.2.1.1-.2.2,0-.2.1-.4.1-.5ZM37.1,40.8v.3-.3ZM36.9,40.7c0,.1.1.1,0,0,.1.1.1.2,0,.3h-.1c.1,0,.1-.1.1-.3ZM35,40.3c.1.3.1.6.1.9,0-.2.1-.5.2-.8v.5c0,.1.1-.3.1-.4.1-.3.1-.4.5-.2.2.1.6.2.7.3.1.1.1.5.1.8,0-.2.1-.5.2-.7.2.1-.1.9.1.9.1,0,.1-.1,0-.1-.1-.1,0-.2.2-.1,0,0-.1.3,0,.3s.1-.3.2-.4c0,.1-.1.4.1.4.1,0,.1-.7.1-.8.1-.1.8,0,1,0s.4-.1.5,0c.2.1.1-.1.2.2.1.4-.1.4-.4.5-.7.3-1.2.4-1.9.1-.6-.2-1.1-.5-1.7-.5-.3-.3-.3-.6-.3-.9ZM37.3,42c.5.1.9-.1,1.4-.3.4-.2.8-.1,1.2-.1-.4.1-.8,0-1.1.2-.5.2-.8.4-1.3.4s-1-.1-1.4-.3-.8-.4-1.3-.3q0-.1.1-.1c.7-.2,1.5.4,2.4.5ZM34.6,36.4c0-.2-.1-.7-.1-.8.1-.5,0-.9,0-1.4,0-.2.1-1.3-.1-1.4-.1,0,0,.8,0,.8v1.3c-.1.8.1,1.7-.1,2.6,0-.4-.1-4.6-.2-4.6,0,0-.2,2.4-.2,2.6-.1-.5-.1-1.1-.1-1.6,0-.2.1-1.1-.1-1.3s-.1.7-.1.9v1.4c-.1-.8-.2-1.6-.2-2.4,0-.1.1-.5-.1-.3-.1.1,0,.7,0,.8,0,.5,0,1-.1,1.5-.1-1.1-.2-2-.2-3.1.1.1.2.3.4.4.1.2.2.2.4.4s.7.8,1.1.7c-.2,1.1-.3,2.3-.3,3.5h0ZM36.2,36.4c.2-.1.1-.5-.2-.4-.3,0,0,.5.2.4ZM38.4,37c.3-.2-.2-.5-.3-.4-.3.2.1.5.3.4ZM7.8,42.5c-.1,0,0,0,0,0ZM7.2,41.9c-.1,0,0,0,0,0ZM34,39q0-.2,0,0ZM6.2,41.6c.2,0,0,0,0,0ZM4.9,41.5c.4.1-.1,0,0,0Z"/>
    <path id="per-ad-ardua-alta" class="st6" d="M14,34.4c.5-.1,1.8-.2,2,.4.3.8-1,.9-1.4.9v.6s.1.7.2.5c0,.1-.7,0-.7.1.1-.2.1-.4.1-.7,0-.2-.1-.4-.1-.6v-.7c0-.3-.1-.4-.1-.5ZM14.5,34.6c0,.1,0,.8.1.8.1.1.6.1.8,0,.3-.2.4-.7.1-.9-.2-.1-1-.1-1,.1ZM16.2,34.3c-.1-.1.1-.1.2-.1.2-.1.4-.1.5-.1.3-.1.7-.2,1-.2,0,0,.1.5,0,.5.1-.1-.4-.2-.5-.2-.2,0-.5.1-.5.4,0,.1,0,.5.1.5.2.2.5-.4.6-.4s.1.7,0,.7c-.1.2-.2-.4-.5-.1-.2.2,0,.9,0,1.1.2-.1.7-.1.8-.3.1-.1.2-.6.4-.6,0,0,0,.5-.1.6q-.1.2-.3.2c-.1.1-1.4.4-1.4.4l.2-.5v-.7c-.3-.4-.3-1.1-.5-1.2-.1-.1,0,0,0,0ZM19,33.8c0,.5-.2,1.1.5.7.3-.1.5-.6.2-.8-.2-.1-.6-.1-.7.1ZM18.3,33.8c-.2-.1.4-.2.4-.2.2-.1.4-.2.7-.2.4-.1,1.1.1.8.7-.1.2-.3.2-.4.4-.2.2-.1.1-.1.3.1.2.3.5.4.6s.7.3.7.2c0,.2-.8,0-.9-.1-.3-.2-.4-.5-.7-.7-.3-.2-.3-.1-.2.2,0,.2.1.3.1.5,0,.1.1.1.1.2s-.8.1-.7.2c0-.1.1-.4.1-.5v-.5c0-.2,0-.9-.3-1.1-.1-.1.2,0,0,0ZM13.9,40c-.1.2-.2.5-.2.7.1,0,.4.1.5,0-.1-.2-.2-.5-.3-.7ZM12.9,41.7c.1-.2.2-.4.3-.5s.1-.3.1-.4c.1-.2.3-1.2.5-1.3s.4.7.4.9c.1.2.1.5.2.8,0,.1.3.7.3.7l-.6.1v-.6c-.1-.3,0-.2-.2-.3-.1-.1-.4-.1-.5,0-.2.1-.1.7-.1.8,0-.2-.2-.2-.4-.2ZM15.4,39.6c-.1.1.1.8.1.9.1.2.1.3.4.2.2-.1.4-.4.2-.7.1-.3-.5-.8-.7-.4,0,.1.1-.2,0,0ZM15,39.4c0-.2,1.2,0,1.4.1.5.5-.1.9-.4,1.1.2.2.2.4.3.6s.3.3.5.4c-.4.1-.7-.2-.9-.5-.1-.1-.3-.6-.4-.5-.1.2.2.7.1.9-.1.2-.1.1-.2.2-.1,0-.4.1-.4,0,0,.1.2-.4.2-.5,0-.2-.1-.4-.1-.6s.1-1.1-.1-1.2M16.9,39.3c.1-.2.8-.2,1-.1.5.1.7.7.7,1.1s-.3.9-.6,1.1c-.1.1-1,.4-1.1.3,0-.1.1-.2.2-.4v-.9c.1-.2.1-1-.2-1.1ZM17.4,39.3c-.2.2,0,1,0,1.2s-.1,1,.2,1c.5.1.6-1.1.5-1.4.1-.1-.3-1.2-.7-.8-.1.1.1,0,0,0ZM18.6,39c-.1-.2.8-.2.8-.2,0,0-.2.2-.2.4s.1.5.1.7c0,.3-.1,1.3.5,1,.4-.2.2-.8.2-1.2,0-.1-.1-1.2-.3-1.1.1-.1.5-.1.5-.1.1.1-.1.1-.1.2q-.1.2,0,.4c.1.5.2,1.3-.2,1.7-.5.5-1-.1-1.1-.7-.1-.3-.1-.6-.1-.8v-.4c.1.1.1.2-.1.1M21,40.3h.5c0-.1-.2-.8-.2-.8-.2-.1-.3.6-.3.8ZM20.5,41c.3-.4.4-.8.5-1.2.1-.2.2-1.1.4-1.2.1-.1.3,1.2.4,1.4.1.4.2,1,.5,1.2-.2,0-.5-.1-.7-.1.1-.4.1-.8-.4-.8q-.2.1-.3.4c0,.1.1.2,0,.4l-.4.1v-.2ZM26.5,34.9h.5c0-.1-.1-.8-.1-.8-.1-.1-.4.6-.4.8ZM25.9,35.6c.3-.4.4-.7.7-1.1.1-.2.4-1.1.5-1.2,0,0,.6,2.4.6,2.6-.2-.1-.4-.1-.5-.1.1-.1.1-.4,0-.5s-.4-.3-.6-.3q-.2.1-.4.4c0,.3,0,.2-.3.2ZM28.5,33.7c-.1-.2.7.1.8.1.4.1.8.5.9.9.2.7-.3,1.5-1.1,1.5-.1,0-.5-.1-.7-.1-.1-.1,0-.3.1-.5.1-.5.3-1.6,0-1.9M29,33.8c0,.4-.1.8-.1,1.1,0,.1-.1.8,0,1s.5,0,.7-.1c.2-.2.2-.7.3-.9.1-.3.1-.7-.2-1-.1.1-.7-.3-.7-.1ZM24.8,39.2c-.2.2-.4.7-.4,1,.2.1.6.1.6-.2.1-.2-.2-.7-.2-.8ZM23.9,41.1c0-.1.2-.4.3-.6s.1-.4.2-.5c.1-.2.4-1.4.5-1.4.1.1.4,1.1.4,1.2.1.4.2.9.5,1.2-.1,0-.7,0-.7-.1,0-.5.1-.7-.5-.7q-.2,0-.3.1c-.1.2-.2.5-.1.7,0,0-.2,0-.3.1ZM26.2,38.8c-.1-.1.8-.1.7.1,0,0-.2.1-.2.2v.2c0,.4,0,.7-.1,1,0,.2-.1.5.1.7.3.3.8-.2,1.1-.2-.1.1-.1.3-.2.4-.1.2-.2.1-.5.1-.1,0-1.1-.2-1.1-.1.1-.2.2-.3.2-.5v-.6c.2-.6.3-1.1,0-1.3-.1-.1,0,0,0,0ZM28.3,39c.2.1.6.1.8.1.1,0,.6-.1.7,0,0,0,.1.3.1.4-.1.2-.4-.2-.6-.2-.4,0-.2.5-.3.8,0,.2-.1.4-.1.5v.4c0,.1.1.2.2.3,0-.1-.8,0-.8,0,0-.1.2-.2.2-.2.1-.1,0-.2.1-.2.1-.2.1-.5.1-.8,0-.1.2-.7.1-.8-.2-.3-.7.3-.8.3-.1-.1.3-.6.3-.6M30.6,40c-.1.2-.2.4-.2.7.2,0,.4.1.5.1-.1-.2-.1-.5-.2-.8.1,0,0,0-.1,0ZM30.8,39.2c.1-.2.2.4.2.3.1.2.1.4.2.5.2.5.4,1,.7,1.5-.2-.1-.5.1-.6,0s0-.1-.1-.2c-.1-.4-.2-.5-.5-.5s-.4,0-.4.4c0,.1.2.3.1.4h-.5s.5-1.1.5-1.2c.1-.4.2-.8.4-1.2,0-.1,0,.1,0,0Z"/>
  </g>
</svg>