<svg xmlns="http://www.w3.org/2000/svg" viewBox="0 0 120.9 103.17" xmlns:v="https://vecta.io/nano"><path d="M4.62 6.16h111.67v69.18H4.62z"/><g fill="#fff"><path d="M31.75 46.9h1.1l-.55-2.95-.55 2.95zm-3.17-23.74L20 61.33h6.88l1.22-6.43h8.4l1.24 6.43h7.16l-8.59-38.17zM29.25 49l3-16.08h.1l3 16.08zm36.17 5.9h-7.16V23.16H51.1v32.21l5.96 5.97h9.55l5.96-5.97V23.16h-7.15V54.9zm14.02-25.29h7.16v31.73h7.16V29.61h7.15v-6.45H79.44v6.45zM0 0v82.13h120.9V0zm46.52 62.63a2.06 2.06 0 0 1-1.62.79h-7.16a2.07 2.07 0 0 1-2-1.68L34.78 57h-5l-.91 4.75a2.08 2.08 0 0 1-2.05 1.68H20a2.07 2.07 0 0 1-2-2.53l8.59-38.17a2.07 2.07 0 0 1 2-1.63h7.73a2.08 2.08 0 0 1 2 1.63l8.59 38.17a2.08 2.08 0 0 1-.39 1.73zm28.13-7.26a2.1 2.1 0 0 1-.65 1.47l-6 6a2 2 0 0 1-1.47.62h-9.47a2.06 2.06 0 0 1-1.47-.61l-6-6a2.1 2.1 0 0 1-.59-1.48V23.16a2.08 2.08 0 0 1 2.08-2.08h7.15a2.08 2.08 0 0 1 2.09 2.08v29.65h3V23.16a2.08 2.08 0 0 1 2.08-2.08h7.15a2.08 2.08 0 0 1 2.08 2.08zM103 29.6a2.08 2.08 0 0 1-2.08 2.08h-5.08v29.65a2.08 2.08 0 0 1-2.08 2.08H86.6a2.08 2.08 0 0 1-2.08-2.08V31.68h-5.08a2.07 2.07 0 0 1-2.08-2.08v-6.44a2.08 2.08 0 0 1 2.08-2.08h21.47a2.08 2.08 0 0 1 2.09 2.08z"/><path d="M0 82.13h120.9v21.05H0z"/></g><path d="M99.1 90.57h-.87v4.55h.69c1.37 0 1.85-.37 1.85-2.28 0-1.74-.4-2.27-1.67-2.27zm-32.82 3.06h1.66l-.82-2.99-.84 2.99zm15.32 0h1.66l-.82-2.99-.84 2.99zM0 82.13v21h120.9v-21zm24.06 14.44h-1.49l-2.73-4.34v4.34h-1.49v-7.41h1.33l2.89 4.57v-4.57h1.49zm7.6 0H27v-7.41h4.57v1.46h-3V92h2.12v1.44h-2.17v1.67h3.14zm9.76 0H39.7l-1.25-4.7-1.35 4.7h-1.72l-1.87-7.41h1.62l1.2 5.24 1.36-5.24h1.6l1.33 5.24 1.28-5.24h1.54zm13.25 0h-5.56v-1.09l3.24-4.86h-3.13v-1.46h5.08v1.11l-3.18 4.84h3.55zm7.23 0h-4.68v-7.41h4.58v1.46h-3V92h2.11v1.44h-2.14v1.67h3.13zm6.81 0L68.23 95H66l-.48 1.6h-1.59l2.37-7.43h1.77l2.29 7.43zm8.73 0h-4.71v-7.41h1.53v6h3.18zm6.59 0L83.55 95H81.3l-.48 1.6h-1.57l2.37-7.43h1.77l2.29 7.43zm9.73 0h-1.48l-2.73-4.34v4.34h-1.5v-7.41h1.34l2.89 4.57v-4.57h1.48zm5.37 0h-2.45v-7.41h2.44c2.26 0 3.22 1 3.22 3.68s-.91 3.73-3.21 3.73z" fill="#536972"/></svg>