<svg xmlns="http://www.w3.org/2000/svg" width="336.096" height="115.105" viewBox="0 0 88.925 30.455" xmlns:v="https://vecta.io/nano"><defs><clipPath id="A"><path d="M463.02 0v89.78h4.24S474.14 46.16 520 0z"/></clipPath><path id="B" d="M289.26 113.49c-3.62 0-5.97 2.25-5.97 6.23 0 3.59 2.23 6.66 5.87 6.66 2.76 0 4.55-1.51 5.2-3.79l-.19-.1c-.46.5-1.37 1.17-3.02 1.17-2.11 0-3.79-1.1-3.91-4.86l7.14.02c.07-2.9-1.8-5.34-5.13-5.34zm1.39 4.55-3.4.05c0-2.18.62-3.83 1.87-3.83.93 0 1.53.6 1.53 2.88v.91z"/></defs><g transform="matrix(1.90939 0 0 1.90939 -19.871 0)"><g fill="#183121"><path d="M46.87 0v15.929h.753S48.843 8.189 56.98 0z"/><g clip-path="url(#A)" transform="matrix(.17742 0 0 .17742 -35.28 0)"><path d="M463.02 0H520v89.78h-56.98z"/></g><path d="m44.61 15.945 6.79-.036C47.84 11.93 46.9 4.6 46.9 4.6Z"/><path d="M10.407.022V15.95l37.216-.024S48.57 6.344 51.347.024h-40.94Z"/></g><path d="M33.344 2.67h.051v10.977h-.05z" fill="#fff"/><g transform="matrix(.08131 0 0 .08131 13.756 2.67)" fill="#fff"><path d="M301.55 87.83c9.37 3.5 23.2 6.07 38.8 6.53.07 0 .09-.1.02-.12-8.39-2.5-15.58-5.19-21.91-8.66-.09-.05-.05-.19.05-.18 10.55.83 26.06.86 42.5-4.85 6.56-21.31 12.8-45.41 18.21-71.03.03-.12-.12-.2-.21-.11-14.89 15.03-40.76 27.66-61.99 31.27-12.63-7.79-23.17-17.62-35.91-31.05a.13.13 0 0 0-.22.11c5.81 25.97 12.53 51.99 20.65 78.11zm39.14-10.96c-8.07 3.69-16.44 6.4-23.89 7.69-6.89-4.03-13.13-9.19-19.79-16.33-.07-.08.01-.2.11-.16a99.9 99.9 0 0 0 43.53 8.61c.11 0 .14.14.04.19M365 61.92c-6.52 5.47-14.43 10.27-22.52 14.11-8.02-2.14-16.75-6.44-25.32-11.98-.09-.06-.04-.2.07-.18 12.93 2.43 29.85 3.64 47.68-2.12.1-.03.18.1.1.17zm-46.03-20.25c17.7 2.61 36.7 1.21 52.66-5.72a.1.1 0 0 1 .1.17c-8.3 7.36-16.49 13.28-26.96 18.11-9.6-3.87-18.15-7.79-25.87-12.37-.09-.06-.04-.2.07-.18zm-29.35-1.62c17.16 9.69 35.48 13.56 53.27 14.86.1 0 .13.15.03.19-7.81 3.38-16.7 5.96-27.45 7.81-10.18-6.76-19.58-14.97-25.98-22.71-.07-.08.03-.2.13-.15m102.27 84.9c-.86 0-1.17-.46-1.17-1.75v-5.37c0-2.85-1.39-4.34-3.98-4.34s-4.24 1.25-5.39 2.9l.24.24a4.57 4.57 0 0 1 2.97-1.13c1.73 0 2.3 1.05 2.3 2.95v.53c-2.73.55-5.93 1.22-5.93 4.53 0 1.65 1.07 2.88 2.74 2.88 1.44 0 2.52-.74 3.28-1.82.24 1.05 1.1 1.8 2.54 1.8 1.1 0 1.87-.46 2.42-1.22l-.02-.19zm-5.03-.96c-.29.1-.62.17-1.01.17-1.05 0-1.53-.86-1.53-1.75 0-1.49.86-2.32 2.54-2.71z"/><use href="#B"/><path d="M284.25 113.69l-.62-5.42-4.43.22h-5.97c-1.63 0-3-.12-4.39-.22l-.62 5.42h.32c2.56-3.67 3.8-4.36 4.76-4.39l.79-.02v11.69c0 2.32-.02 3.31-.38 4.94v.12h5.15v-.12c-.43-1.63-.48-2.66-.48-4.94v-11.69l.79.02c.96.02 2.2.72 4.76 4.39zm40.98-2.06l.14-1.04h-8.89l-.14 1.04zm1.13 2.25h-4.24v.12c.19.58.38 1.44.38 2.88v5.8c-.38.77-.96 1.27-1.75 1.27-1.08 0-1.53-.77-1.53-1.75v-8.32h-4.03v.14c.1.6.19 1.44.19 2.88v5.68c0 2.3 1.15 3.81 3.23 3.81s3.43-1.65 3.93-2.66l.07.02v2.28h4.24v-.12c-.36-1.51-.5-2.2-.5-4.86v-7.16z"/><use href="#B" x="57.96"/><path d="M365.57 116.82c0-2.04-1.49-3.33-3.59-3.33s-2.92 1.27-3.57 2.3l-.1-.02v-2.28l-4.36 1.27v.12c.38.96.62 1.94.62 3.74v3.19c0 2.01-.1 3.02-.24 4.1v.12h4.34v-.12c-.17-1.1-.26-2.11-.26-4.1v-4.82c.24-.72.77-1.58 1.68-1.58 1.13 0 1.63.86 1.63 1.89v4.53c0 1.92-.12 3-.26 4.07v.12h4.58v-.12c-.29-1.1-.46-2.08-.46-4.12v-4.96zm10.12 7.15l-2.78-.31c-1.63-.19-2.18-.34-2.18-1.03 0-.24.07-.48.22-.65a7.09 7.09 0 0 0 2.42.43c3.33 0 5.3-1.61 5.3-4.41 0-1.25-.46-2.2-1.2-2.9l2.83.19h.1v-2.78l-.14-.05-3.4 2.11c-.89-.67-1.85-1.05-3.5-1.05-3.09 0-5.3 1.87-5.3 4.41 0 1.68.81 2.92 2.16 3.67-1.2.6-2.25 1.61-2.25 3.04 0 1.17.62 1.85 1.7 2.28-1.41.17-2.78.81-2.78 1.99 0 1.75 2.42 2.64 6.06 2.64 3.91 0 6.97-1.56 6.97-4.17 0-2.13-1.99-3.16-4.22-3.4zm-2.35-9.68c1.15 0 1.58 1.13 1.58 3.64s-.48 3.71-1.56 3.71-1.53-1.15-1.53-3.71.36-3.64 1.51-3.64m.69 16.41c-2.35 0-4-.77-4-2.35a2.22 2.22 0 0 1 .36-1.22 14.25 14.25 0 0 0 1.7.29l2.13.24c2.25.26 3.28.43 3.28 1.44s-1.46 1.61-3.47 1.61zm-37.77-13.01l.84-.74c1.13-.98 2.01-1.73 3.67-2.85v-.22h-4.12l-.86 3.31-2.56 2.01v-11.84l-4.34 1.39v.12c.34 1.01.48 1.94.48 3.74v9.66c0 1.94-.05 2.73-.24 3.64v.12h4.34v-.12c-.17-.86-.24-1.77-.24-3.64v-2.2l3.26 5.97h4.79v-.22c-.6-.74-1.01-1.27-1.63-2.35l-3.38-5.78zm-29.02-9.2h-6.45v.12c.36 1.65.38 2.59.38 4.94v7.43c0 2.32-.02 3.31-.38 4.94v.12h5.15v-.12c-.43-1.63-.48-2.66-.48-4.94v-2.13h1.29c4.79 0 6.9-2.47 6.9-5.54 0-2.78-1.65-4.82-6.42-4.82zm-1.08 9.56h-.69v-8.75l.72-.02c1.94 0 3.09 1.7 3.09 4.03s-.91 4.74-3.12 4.74"/></g><path d="M31.152 11.409l-.158.015a1 1 0 0 1-.128-.013c.036.032.045.158.045.504v.449c0 .078 0 .472-.045.544q.072-.01.144-.011.071.001.139.015c-.051-.056-.051-.318-.051-.416V11.9c0-.292.02-.45.056-.49zm-.83.004a1 1 0 0 1-.257-.007c.039.04.044.154.044.243l-.004.598c0 .09-.003.22-.021.306-.039.17-.187.221-.348.221-.134 0-.293-.03-.347-.168a.7.7 0 0 1-.023-.22v-.505c0-.102.008-.445.056-.47q-.077.01-.155.01-.068-.002-.132-.012c.027.038.04.12.04.209v.763c0 .067 0 .135.012.202.051.3.29.34.557.34.165 0 .343-.037.444-.177.081-.112.085-.27.085-.403v-.588c0-.111.005-.303.051-.341zm-2.1-.198q.131-.002.253.008a.4.4 0 0 1-.009-.076c0-.025 0-.034.005-.06a3 3 0 0 1-.253.007h-.156c-.081 0-.173-.002-.242-.008 0 .008.006.036.006.064s-.004.046-.008.073a3 3 0 0 1 .244-.008h.161zm.152 1.075a2 2 0 0 1-.192.01q-.131 0-.266-.01l.238-.7.221.7zm-.07-.876a1.2 1.2 0 0 1-.257-.002 7 7 0 0 1-.204.63l-.201.544a1.4 1.4 0 0 1-.152.318q.052-.005.105-.006a.7.7 0 0 1 .154.014c-.005-.017-.005-.022-.005-.031 0-.053.047-.207.065-.257l.066-.19a4 4 0 0 1 .538-.005l.065.22c.03.103.053.177.053.224 0 .016-.006.035-.006.041.073-.016.127-.016.158-.016s.06 0 .122.012c-.047-.037-.171-.424-.235-.616l-.12-.358a5 5 0 0 1-.146-.523zm-1.242 1.498c-.058-.038-.058-.398-.058-.594v-.524c0-.167.003-.331.052-.384a1 1 0 0 1-.305-.003c-.053.18-.133.348-.48 1.214l-.42-1.218a1 1 0 0 1-.193.019c-.051 0-.105-.004-.152-.008.06.049.062.124.062.188 0 .39 0 1.19-.08 1.304q.05-.004.103-.004.078 0 .156.012a.7.7 0 0 1-.039-.267l.004-.909-.002-.139.469 1.307h.109c.054-.158.38-.908.546-1.308l-.017.826c-.004.206 0 .445-.04.484a1.3 1.3 0 0 1 .282.004zm-3.058-.622a2 2 0 0 1-.193.01q-.13 0-.266-.01l.238-.7zm-.07-.876a1.2 1.2 0 0 1-.258-.002 6 6 0 0 1-.203.63l-.202.544a1.4 1.4 0 0 1-.152.318q.053-.005.105-.006a.7.7 0 0 1 .155.014c-.004-.017-.004-.022-.004-.031 0-.053.047-.207.064-.257l.067-.19a4 4 0 0 1 .537-.005l.064.22c.03.103.054.177.054.224 0 .016-.007.035-.007.041.073-.016.127-.016.159-.016a.53.53 0 0 1 .122.012c-.047-.037-.172-.424-.236-.616l-.12-.358a5 5 0 0 1-.146-.523zm-2.067.704c0 .359-.114.694-.48.694-.39 0-.492-.32-.492-.645s.103-.66.493-.66c.367 0 .478.301.478.611zm.203-.004c0-.438-.205-.719-.675-.719-.504 0-.707.326-.707.797 0 .442.21.738.684.738.506 0 .698-.354.698-.816m-1.897-.702a1.1 1.1 0 0 1-.3.002c.06.042.062.238.062.434v.204a3 3 0 0 1-.206.007h-.152c-.115 0-.226-.003-.343-.008v-.215c0-.23.01-.395.056-.426a1 1 0 0 1-.175.012 1 1 0 0 1-.129-.01c.054.052.058.193.058.35v.822c0 .102-.004.26-.06.324l.158-.01a1 1 0 0 1 .148.012c-.05-.048-.056-.179-.056-.257v-.466l.212-.004h.157q.165-.001.327.004v.266c0 .283-.015.424-.057.46l.162-.013c.043 0 .092.004.131.01-.04-.037-.047-.142-.047-.27l.004-.803c0-.286 0-.374.05-.426zm-2.046.88a2 2 0 0 1-.193.008q-.131 0-.266-.009l.238-.7zm-.071-.877a1.2 1.2 0 0 1-.257-.002 6 6 0 0 1-.203.63l-.202.544a1.4 1.4 0 0 1-.152.318q.052-.005.105-.006a.7.7 0 0 1 .154.014c-.004-.017-.004-.023-.004-.031 0-.053.048-.207.065-.257l.066-.19a4 4 0 0 1 .539-.005l.064.22c.03.103.054.177.054.223 0 .017-.007.036-.007.042.073-.016.127-.016.159-.016a.53.53 0 0 1 .122.012c-.048-.038-.172-.424-.236-.616l-.12-.358a5 5 0 0 1-.146-.523zm-1.816 1.268c-.105.085-.279.095-.426.095h-.1c-.136 0-.144-.02-.144-.154v-.433q.125-.003.252-.004c.15 0 .252.008.297.053a1 1 0 0 1-.009-.115q0-.061.01-.122c-.052.05-.153.053-.222.053h-.328v-.279l.009-.231c.073-.008.141-.008.217-.008.111 0 .296.004.362.08l-.006-.089q.001-.06.013-.12c-.082.013-.564.019-.617.019a2 2 0 0 1-.223-.015c.05.049.062.123.062.466v.523c0 .451-.028.484-.076.506l.287-.004h.264l.323.012c0-.065.033-.171.055-.232zm-1.344-1.279c-.05.017-.135.017-.201.017l-.74.004a.8.8 0 0 1-.199-.02 1 1 0 0 1 .01.12q-.001.059-.005.113c.05-.07.172-.076.319-.076h.156q.015.205.015.414v.44c0 .194-.013.459-.057.497l.16-.012q.072.001.142.008c-.053-.038-.064-.36-.064-.541v-.489q0-.16.006-.318l.269-.002c.072 0 .145.005.188.065q-.005-.06-.004-.118-.002-.051.007-.102zm-1.104-7.927v7.059h17.371V3.477zm5.971 2.831c0 .181-.007.704-.237 1.245-.416.959-1.114 1.482-1.991 1.995-.702-.373-1.592-1.008-1.977-2.006a3.68 3.68 0 0 1-.255-1.234V4.484h.368l-.003.443.454-.46.461.468.475-.468.461.468v.439l-.461-.468-.475.468-.461-.468-.457.464-.003.454.457-.481.461.485.475-.485.461.485v.436l-.461-.468-.475.468-.461-.468-.457.464v.049c.014.272-.014 1.793 1.874 2.908a5.96 5.96 0 0 0 .739-.516l-.767.367.654-.558-.846.15.77-.376-.846-.073.833-.154-.801-.3.846.076-.698-.498.801.286-.533-.663.698.495-.372-.781.563.663-.165-.858.372.781.076-.858.148.844.299-.798-.076.858a2.9 2.9 0 0 0 .176-.994V4.484h.358zm11.267 4.084h-9.763v-6.77h9.763zM22.719 7.58l-.007.15a.76.76 0 0 1-.014.109c-.006.031-.013.06-.023.089l-.034.089.111-.011.112-.009.129-.006.162-.002.221.001.221.003.203.006.166.008.111.01.012-.11.011-.088.014-.081.019-.089.026-.112c-.029.02-.06.036-.09.051s-.067.028-.107.038a1.04 1.04 0 0 1-.142.024l-.201.008a2 2 0 0 1-.175-.005c-.041-.003-.072-.012-.091-.025s-.029-.034-.034-.063-.006-.067-.005-.116v-.271l.109-.007.111-.002q.085 0 .166.005a1 1 0 0 1 .144.017.31.31 0 0 1 .1.035l-.001-.044v-.063l-.001-.063.002-.092.006-.094.01-.109c-.024.011-.048.019-.073.025a.73.73 0 0 1-.084.013l-.114.005h-.372V6.57l.001-.081.002-.105h.254l.181.003.124.008a.57.57 0 0 1 .085.015c.023.007.044.015.062.026a.38.38 0 0 1 .056.038l-.002-.08v-.067l.002-.096.007-.102.013-.133-.054.007c-.02.003-.048.005-.082.007l-.133.007-.21.005-.311.002h-.185a6.8 6.8 0 0 1-.14-.002l-.115-.006-.108-.009-.121-.013.028.103a1.15 1.15 0 0 1 .023.101 1.16 1.16 0 0 1 .015.122l.009.165.003.232v.646l-.002.215zm3.229.017l-.013.191-.02.121c-.007.03-.015.054-.023.07a.19.19 0 0 1-.024.039L26.065 8q.098-.007.195-.007l.193.007.194.018a.33.33 0 0 1-.033-.093l-.024-.137-.015-.165-.008-.177q-.002-.09-.002-.173v-.616l.007-.321a1.39 1.39 0 0 1 .026-.215c.012-.055.028-.095.049-.121l-.195.018q-.098.007-.195.007a2.49 2.49 0 0 1-.192-.007L25.874 6c.012.018.024.041.034.071s.018.068.024.116l.015.184.006.272v.675l-.006.28zm2.124-1.221l-.004.107c.02-.02.039-.035.058-.046s.041-.02.067-.025a.72.72 0 0 1 .104-.011l.168-.002h.201v.93l-.001.232-.006.159a.93.93 0 0 1-.013.112.65.65 0 0 1-.024.091l-.037.094q.095-.01.193-.017l.194-.008.133.004.133.01.121.012a.24.24 0 0 1-.022-.035.36.36 0 0 1-.022-.064.83.83 0 0 1-.02-.115c-.006-.048-.011-.112-.014-.189l-.005-.284V6.4h.209l.137.002.093.007c.024.002.046.007.063.013s.033.013.049.023.031.021.049.035l-.007-.11-.004-.194.002-.067c0-.019.002-.036.003-.053L29.876 6a.91.91 0 0 1-.077.007q-.057.004-.137.007-.08.004-.173.007l-.188.005-.181.002h-.322c-.059 0-.115-.002-.163-.002s-.095-.002-.139-.003l-.13-.006-.137-.007-.161-.011a.32.32 0 0 1 .004.053l.002.09v.111l-.002.125z" fill="#fff"/></g></svg>