<svg xmlns="http://www.w3.org/2000/svg" viewBox="0 0 369 131.46" xmlns:v="https://vecta.io/nano"><g fill="#fff"><path d="M27.58 34.48q10.31 3.69 20.1 18.6 8-14.35 19.2-18.58 10.09 3.29 19.2 19.22 8.08-15.3 19.82-19.81-12.58 1.62-19.7 8.79a39.07 39.07 0 0 0-19-8.66q6.16-11.16 20.76-17.61-13.67 1.93-21.28 8.3-8.12-7.17-21.63-8.17a38 38 0 0 1 21.21 17.46q-11.62 1.92-18.77 8.93-10.05-8-19.91-8.5zM86.17.24s.43 0 1.22.16c31.457 10.065 50.92 41.517 45.89 74.16-13.73.77-102.15 5-133.28-11C.325 35.275 18.364 10.235 45.09.97q1.35-.38 2.76-.72s-31 10.8-34.4 62.44l106.58-.13S124.05 22.73 86.17.24zm45.59 80.67S78.28 97.86 5.96 91.63a55.15 55.15 0 0 1-3.87-10.68h.23zm-122 17.9h114.75a67.37 67.37 0 0 1-8.47 11.22h-.43C61.35 115.75 9.76 98.81 9.76 98.81zm15.57 17.9s42.4 6.63 83.36 0l-.73.64c-23.362 18.003-55.748 18.612-79.77 1.5-.83-.65-2.02-1.4-2.86-2.14z"/><g fill-rule="evenodd"><path d="M161 35.19h7.48V12.81h.1l6.86 13.27h1.54l6.87-13.27h.1v22.38h7.48V.21h-7.17l-8.05 14.39L168.17.21H161v34.98zm34.42 0h7.68l1.69-7.27h7.89l1.64 7.27H222L212.83 0h-8.25zm10.5-13l2.77-12.7h.1l2.71 12.7zm20.17 13h7.48V14.55h.11l9.93 20.64h6.92V.21h-7.48v19.77h-.1L233.47.21h-7.38v34.98z"/><use href="#B"/><path d="M287.77 35.19h7.94v-16.9h.11l10.04 16.9h8.86l-10.91-18.34L312.52.21h-7.94l-8.76 16.95h-.11V.21h-7.94v34.98zm27.66 0h7.69l1.69-7.27h7.89l1.64 7.27h7.68L332.85 0h-8.25zm10.5-13l2.77-12.7h.1l2.72 12.7z"/><use href="#B" x="87.22"/><path d="M166.77 108.97h5.74V88.06h5.77v-4.37H161v4.37h5.77v20.91zm14.77 0h15.06v-4.37h-9.33v-6.29h8.36v-4.37h-8.36v-5.88h8.99v-4.37h-14.72v25.28zm34.11-6.49a8.66 8.66 0 0 1-4.81 2c-3.55 0-5.48-2.92-5.48-8.29 0-5.55 2.48-8.1 5.77-8.1a8.45 8.45 0 0 1 4.33 1.47v-4.8a12.35 12.35 0 0 0-5.7-1.41c-6.22 0-10.25 5.22-10.25 13.21 0 7.77 4.22 12.73 10.25 12.73a8.85 8.85 0 0 0 5.88-1.89zm4.44 6.49h5.73V98.38h6.33v10.59h5.73V83.69h-5.73v10.33h-6.33V83.69h-5.73v25.28zm23.01 0h5.4V94.05h.07l7.18 14.92h5V83.69h-5.41v14.28h-.07l-6.84-14.28h-5.33v25.28zm21.79-12.89c0 9.47 5.07 13.21 10 13.21 4.29 0 10-3.07 10-13 0-9.47-5.25-13-10-13-4.97.06-10 4.21-10 12.79zm5.85.22c0-5 1-8 4.11-8 3.4 0 4.11 3.63 4.11 8 0 6.07-1.44 8-4.11 8-3.15.04-4.09-2.96-4.09-8zm18.12 12.67h14.99v-4.56h-9.25V83.69h-5.74v25.28zm16.9-12.89c0 9.47 5.07 13.21 10 13.21 4.29 0 10-3.07 10-13 0-9.47-5.25-13-10-13-5 .06-10 4.21-10 12.79zm5.85.22c0-5 1-8 4.11-8 3.4 0 4.11 3.63 4.11 8 0 6.07-1.44 8-4.11 8-3.18.04-4.15-2.96-4.15-8zm36-.96h-8.58v4.22h2.85v4.25a5 5 0 0 1-2.44.67c-3.26 0-4.92-3.14-4.92-7.88 0-5.48 2.29-8.51 6.29-8.51 2.26 0 3.7.67 5.92 2.48v-5.25a12.64 12.64 0 0 0-6.7-2c-6.59 0-11.36 5.59-11.36 13.36 0 7.29 4.52 12.58 10.73 12.58a13.5 13.5 0 0 0 8.21-3zm9.14 13.63h5.88V97.42l6.33-13.73h-6.11l-3.14 7.77-3.81-7.77h-6.15l7 13.73v11.55z"/></g><path d="M161 46.78h5.75V72.1H161z"/><path d="M172.04 72.1h5.42V57.16h.07l7.19 14.94h5.01V46.78h-5.42v14.31h-.07l-6.86-14.31h-5.34V72.1zm22.06-1.68a11.76 11.76 0 0 0 6.19 2 7 7 0 0 0 7.34-7.08c0-6-8.19-9.68-8.19-12.68 0-1 1-1.74 2.34-1.74s2.37.41 4.89 1.82v-4.75a11.19 11.19 0 0 0-5.52-1.56c-4.11 0-7.27 2.82-7.27 6.45 0 6.15 7.9 8.93 7.9 12.64a2.15 2.15 0 0 1-2.34 2.11c-1.52 0-2.93-.7-5.34-2.67zm21.53 1.68h5.75V51.15h5.78v-4.37h-17.31v4.37h5.78V72.1z" fill-rule="evenodd"/><path d="M230.5 46.78h5.75V72.1h-5.75z"/><g fill-rule="evenodd"><path d="M245.36 72.1h5.74V51.15h5.79v-4.37h-17.31v4.37h5.78V72.1zm14.5-25.33v16.72c0 6.3 3.6 8.93 8.86 8.93 6 0 8.86-3.45 8.86-9V46.77h-5.74V63.9c0 2.3-.89 3.74-3.11 3.74-2 0-3.11-1.45-3.11-3.45V46.77zm26.42 25.33h5.75V51.15h5.78v-4.37H280.5v4.37h5.78V72.1zm14.79 0h15.09v-4.38h-9.34v-6.3h8.37v-4.37h-8.37v-5.9h9v-4.37h-14.75V72.1zm30.57-12.91c0 9.49 5.08 13.23 10 13.23 4.3 0 10-3.08 10-13 0-9.49-5.26-13-10-13-4.96.02-10 4.14-10 12.77zm5.86.22c0-5 1-8 4.12-8 3.41 0 4.11 3.63 4.11 8 0 6.08-1.45 8-4.11 8-3.16.05-4.13-2.96-4.13-8zm18.15 12.69h5.75V61.49h7.3v-4.37h-7.3v-5.97h7.56v-4.37h-13.31V72.1zm-59.54 55.35a3.26 3.26 0 0 0-3.5-3.34 4 4 0 0 0-4.07 3.93 3.45 3.45 0 0 0 3.56 3.42 4 4 0 0 0 4.01-4.01zm-2.18-.06c0 1-.61 2.36-1.82 2.36a1.46 1.46 0 0 1-1.4-1.58c0-.72.43-2.34 1.8-2.34a1.41 1.41 0 0 1 1.42 1.56zm21.31-6.71h-2.39l-3.58 6.7-1.71-6.7h-2.47l-3.45 10.64h2.27l2.39-7.39h.03l1.87 7.39h1.07l3.93-7.19h.03l.33 7.19h2.18l-.5-10.64zm9.83 3.67a11 11 0 0 0-2.38-.24c-3.81 0-5.11 2.25-5.11 4.31 0 1.78 1 3 2.47 3a3.13 3.13 0 0 0 2-.79l-.09.65h2.1zm-2.78 4.91a2.42 2.42 0 0 1-1.51.62c-.64 0-1-.5-1-1.36a2.48 2.48 0 0 1 3-2.64zm7.21-5.03h-2.1l-1 7.08h2.1l.64-4.55a2.71 2.71 0 0 1 1.77-1.09c.56 0 .71.73.62 1.42l-.59 4.23h2.1l.61-4.38c.2-1.45-.23-2.82-1.86-2.82a3.72 3.72 0 0 0-2.41.92zm13.26 0h-2.1l-.64 4.62a2.63 2.63 0 0 1-1.77 1c-.5 0-.76-.47-.56-1.89l.53-3.76h-2.1l-.64 4.49c-.22 1.48.4 2.71 2 2.71a3.62 3.62 0 0 0 2.28-.84l-.12.8h2.12zm4.92-3.55h-2.1l-1.49 10.64h2.1l.48-3.49 2.6 3.49h2.55l-2.72-3.71 2.79-3.37h-2.59l-2.52 3.06-.03-.03.93-6.59zm12.36 3.67a11 11 0 0 0-2.38-.24c-3.81 0-5.11 2.25-5.11 4.31 0 1.78 1 3 2.47 3a3.12 3.12 0 0 0 2-.79l-.09.65h2.1zm-2.78 4.91a2.42 2.42 0 0 1-1.51.62c-.64 0-1-.5-1-1.36a2.48 2.48 0 0 1 3-2.64zm11.7-5.03h-2.1l-.64 4.62a2.63 2.63 0 0 1-1.77 1c-.5 0-.76-.47-.56-1.89l.53-3.76h-2.1l-.64 4.49c-.22 1.48.4 2.71 2 2.71a3.63 3.63 0 0 0 2.29-.92l-.13.8h2.1zm-198.65-3.68h-9.06l-.25 1.78h3.35l-1.24 8.86h2.26l1.24-8.86h3.45l.25-1.78z"/><use href="#C"/><path d="M195.16 120.55h-2.28l-2.86 6.26h-.04l-1.58-6.26h-1.1l-3.38 6.26h-.03l-1.12-6.26h-2.13l2.16 10.78h.94l3.57-6.58 1.71 6.58h.92l5.22-10.78zm3.68.01h-2.08l-1.49 10.64h2.1l.64-4.6a3 3 0 0 1 1.76-.89c.5 0 .71.45.65 1l-.64 4.54h2.1l.64-4.59c.23-1.67-.56-2.62-1.91-2.62a3.74 3.74 0 0 0-2.36.93zm13.01 3.65a11.1 11.1 0 0 0-2.38-.23c-3.81 0-5.11 2.25-5.11 4.31 0 1.78 1 3 2.47 3a3.12 3.12 0 0 0 2-.8l-.09.65h2.1zm-2.78 4.91a2.43 2.43 0 0 1-1.51.62c-.64 0-1-.5-1-1.36a2.48 2.48 0 0 1 3-2.64zm7.1-5.02h-2.1l-1 7.08h2.1l.59-4.21c.23-.47.78-1 1.28-1 .34 0 .64.24 1 .77l1-2c-.48-.56-.84-.78-1.26-.78s-1.06.36-1.71 1.17h0z"/><use href="#C" x="50.44"/><path d="M239.66 120.55h-9.06l-.25 1.78h3.36l-1.24 8.86h2.25l1.24-8.86h3.45l.25-1.78zm5.74 3.66a11.09 11.09 0 0 0-2.38-.23c-3.81 0-5.11 2.25-5.11 4.31 0 1.78 1 3 2.47 3a3.12 3.12 0 0 0 2-.8l-.09.65h2.1zm-2.78 4.91a2.43 2.43 0 0 1-1.51.62c-.64 0-1-.5-1-1.36a2.48 2.48 0 0 1 3-2.64zm7.69-8.57h-2.1l-1.49 10.64h2.1l.48-3.49 2.6 3.49h2.54l-2.72-3.71 2.8-3.37h-2.59l-2.52 3.06-.03-.04.93-6.58zm7.81 3.55h-2.1l-1 7.08h2.1zm-.81-3.06a1.09 1.09 0 1 0 1.09 1.09 1.08 1.08 0 0 0-1.09-1.09zm9.74 3.06h-2.1l-.64 4.62a2.64 2.64 0 0 1-1.77 1c-.5 0-.76-.47-.56-1.89l.53-3.76h-2.1l-.65 4.49c-.22 1.48.4 2.71 2 2.71a3.62 3.62 0 0 0 2.28-.92l-.12.79h2.1zm4.37 0h-2.1l-1 7.08h2.1l.59-4.21c.23-.47.78-1 1.27-1 .34 0 .64.24 1 .77l1-2c-.48-.56-.84-.78-1.26-.78s-1.06.36-1.71 1.17h0zm10.4.11a11.09 11.09 0 0 0-2.38-.23c-3.81 0-5.11 2.25-5.11 4.31 0 1.78 1 3 2.47 3a3.13 3.13 0 0 0 2-.8l-.09.65h2.1zm-2.78 4.91a2.43 2.43 0 0 1-1.51.62c-.64 0-1-.5-1-1.36a2.48 2.48 0 0 1 3-2.64z"/></g></g><defs ><path id="B" d="M257.3.2v23.1c0 8.71 5 12.35 12.24 12.35 8.3 0 12.24-4.77 12.24-12.45V.2h-7.94v23.67c0 3.18-1.23 5.17-4.3 5.17-2.82 0-4.3-2-4.3-4.76V.2z"/><path id="C" d="M175.46 127.94c.5-2.26-.7-4-2.91-4a3.84 3.84 0 0 0-3.82 3.9 3.26 3.26 0 0 0 3.51 3.45 7.19 7.19 0 0 0 2.46-.52l.37-1.76a7.51 7.51 0 0 1-2.61.72 1.54 1.54 0 0 1-1.62-1.83zm-4.41-1.22c.31-.89.78-1.29 1.46-1.29a1 1 0 0 1 1 1.29z"/></defs></svg>