<svg xmlns="http://www.w3.org/2000/svg" width="1067.63" height="180.22" xmlns:v="https://vecta.io/nano"><g fill="#fff"><path d="M53.91 96.52C19.44 96.52 0 72.25 0 48.26 0 25.51 18.48 0 53.91 0s53.77 25.65 53.77 48.26c0 24.13-19.99 48.26-53.77 48.26m0-76.94c-17.92 0-29.78 11.45-29.78 28.68s11.86 28.68 29.78 28.68S83.55 65.5 83.55 48.26 71.69 19.58 53.91 19.58m81.07 17.65c5.66-4.69 11.31-6.76 18.2-6.76 16.55 0 29.51 14.07 29.51 32.27 0 20.41-12.41 33.78-31.3 33.78-5.65 0-11.72-1.65-16.41-4.41v34.88h-19.99V31.71h19.99v5.51zm0 41.78c4 2.9 7.58 4.14 11.58 4.14 9.79 0 15.86-7.45 15.86-19.3s-5.52-19.17-15.03-19.17c-4.27 0-7.44 1.24-12.41 5.1zm121.34 9.1c-11.44 8.41-23.44 8.41-28.4 8.41-22.33 0-36.81-12.96-36.81-32.81s13.92-33.23 33.5-33.23c18.48 0 33.78 13.1 32.82 36.26h-45.64c.69 11.31 8.41 17.92 20.96 17.92 8 0 14.2-2.34 23.58-9.1V88.1zm-16.54-31.85c-.83-8.69-6.07-13.93-13.79-13.93s-12.96 5.1-13.79 13.93zm46.32-15.45c6.34-7.31 12.55-10.34 20.68-10.34 9.93 0 23.16 5.66 23.16 24.41v40.4h-19.99V56.53c0-8.96-4.28-12.68-9.93-12.68-4.96 0-8.68 2.62-13.93 10.48v40.95H266.1V31.71h19.99v9.1zM421.36 1.24c21.51 0 31.16 15.03 31.16 27.85s-9.38 28.4-31.03 28.4h-18.61v37.78h-23.44V1.24h41.91zm-18.48 39.02h10.89c10.76 0 14.62-3.86 14.62-10.89 0-8-4.55-10.89-17.24-10.89h-8.27zm84.8 56.26c-20.82 0-35.98-13.1-35.98-33.09 0-21.65 17.24-32.96 35.98-32.96 15.58 0 35.71 8.69 35.71 33.09s-21.65 32.95-35.71 32.95m0-54.19c-8.68 0-14.61 6.76-14.61 21.1 0 16.41 7.03 21.23 14.61 21.23 9.38 0 14.34-7.72 14.34-21.65 0-12.41-4.27-20.68-14.34-20.68m45.23-41.08h19.99v94.03h-19.99zm50.77 83.69l-24.82-53.22h21.37l13.38 32.68 14.34-32.68h20.96l-42.61 94.03h-21.24zm100.51-39.57h-23.16v26.2c0 6.2 3.59 10.2 9.79 10.2 4.14 0 8-.96 13.37-3.72v14.47c-7.03 2.89-12.27 4-18.48 4-13.24 0-24.68-6.06-24.68-23.85v-27.3h-9.1V41.5l26.61-29.78h2.48v19.99h23.16v13.65zm70.87 42.75c-11.45 8.41-23.44 8.41-28.4 8.41-22.34 0-36.82-12.96-36.82-32.81s13.93-33.23 33.51-33.23c18.48 0 33.78 13.1 32.82 36.26h-45.64c.69 11.31 8.41 17.92 20.96 17.92 7.99 0 14.2-2.34 23.57-9.1V88.1zm-16.54-31.85c-.83-8.69-6.07-13.93-13.79-13.93s-12.96 5.1-13.79 13.93zm84.66 35.98c-8 2.9-14.75 4.28-21.51 4.28-22.34 0-36.81-12.96-36.81-32.81s15.02-33.23 35.98-33.23c6.48 0 14.75 1.66 21.38 4.14v14.89c-5.24-2.76-11.31-4.28-16.27-4.28-12 0-19.72 7.17-19.72 18.34s7.58 18.75 19.02 18.75c4.83 0 9.1-1.1 17.93-4.41v14.34zm32.12-51.15h.28c5.79-7.31 12.26-10.62 20.13-10.62 11.58 0 23.3 7.03 23.3 24.27v40.54h-19.99V59.02c0-9.51-4.14-13.93-10.34-13.93-4.69 0-8.69 2.89-13.38 9.65v40.54h-19.99V1.24h19.99zm73.07-.28c6.34-7.31 12.55-10.34 20.68-10.34 9.93 0 23.16 5.66 23.16 24.41v40.4h-20V56.53c0-8.96-4.27-12.68-9.93-12.68-4.96 0-8.68 2.62-13.93 10.48v40.95h-19.99V31.71h19.99v9.1zm74.73-29.78c0 6.07-4.96 11.03-11.03 11.03s-11.03-4.96-11.03-11.03S986 0 992.07 0s11.03 4.97 11.03 11.03m-.96 84.24h-20V31.71h20zm65.49-3.03c-7.99 2.9-14.75 4.28-21.5 4.28-22.34 0-36.82-12.96-36.82-32.81s15.03-33.23 35.99-33.23c6.48 0 14.75 1.66 21.37 4.14v14.89c-5.24-2.76-11.31-4.28-16.27-4.28-11.99 0-19.72 7.17-19.72 18.34s7.59 18.75 19.03 18.75c4.82 0 9.1-1.1 17.92-4.41v14.34zM28.78 179.65L10.61 162v17.75h-.37-5.67v-37.68h.37 5.67v16.32l15.18-16.32h7.44l-16.41 17.85 19.79 19.19.66.64zm47.49-14.25v-23.34h6.06v22.2c0 4.16.51 5.71 2.11 7.32 2.04 2.04 4.58 3.03 7.7 3.03 3.99 0 6.81-1.27 8.41-2.88 1.79-1.77 2.22-4.36 2.22-7.8v-21.88h6.05v22.79c-.02 9.21-5.66 15.37-16.78 15.38-7.93 0-15.74-4.54-15.76-14.83m223.02-17.82h-12.79v-.37-5.13h31.62v.37 4.76.37h-12.78v32.18h-.38-5.67zm60.06-5.5h.37 5.67v37.31.37h-.36-5.68zm56.11 9.85v27.83h-.38-5.34v-37.68h.36l4.5.12 24.38 27.86v-27.98h.38 5.34v37.31.37h-.36l-4.83-.13zm73.62-9.86h.38 5.67v37.32.37h-.37-5.68zm105.3 5.51h-12.78v-.37-5.13h31.62v.37 4.76.37h-12.79v32.18h-.36-5.68zm59.26 17.83v-23.34h6.05v22.2c0 4.16.52 5.72 2.11 7.32 2.05 2.04 4.59 3.03 7.7 3.03 3.98 0 6.81-1.28 8.4-2.88 1.79-1.77 2.23-4.37 2.23-7.8v-21.88h6.05v22.8c-.02 9.21-5.65 15.36-16.78 15.37-7.92 0-15.73-4.53-15.75-14.83m113.74 14.69h-1.29l-11.88-29.61-12 29.61h-1.53l-15.24-38.01h6.11l9.93 24.83 9.99-24.83h5.54l10.04 24.83 9.83-24.83h6.05l-15.21 37.78-.1.23zm0-.38h0m81.69-16.04h-19.96v16.09h-.36-5.68v-37.68h.38 5.66v16.08h19.96v-16.08h.38 5.67v37.31.37h-.37-5.68zm72.13-21.59v.36 4.77.37h-15.66v10.42h15.12v.37 5.14h-15.12v10.74h16.15v.37 5.14h-22.19v-37.68zm52.12 0c7.59.01 12.49 4.11 12.5 10.71 0 4.18-2.1 7.43-5.79 9.13 3.13 2.29 5.13 5.62 7.79 9.96 1.56 2.53 2.47 3.76 5.02 7.29l.43.59h-7.27l-4.98-7.75c-4.9-7.58-6.93-8.27-9.49-8.29h-1.85v16.03h-6.05v-37.68h9.69m-.59 16.15c5.46-.05 6.83-2.63 6.88-5.52 0 0-.03-.08 0-.13-.1-3.29-1.84-5.16-6.89-5.22h-3.05v10.87h3.05z"/><path d="M162.1 142.07c7.59.01 12.49 4.11 12.5 10.71 0 4.18-2.1 7.43-5.78 9.13 3.13 2.29 5.13 5.62 7.79 9.96 1.56 2.53 2.47 3.76 5.02 7.29l.43.59h-7.27l-4.98-7.75c-4.9-7.58-6.93-8.27-9.49-8.29h-1.85v16.03h-6.05v-37.68h9.69m-.59 16.15c5.46-.05 6.83-2.63 6.88-5.52 0 0-.03-.08 0-.13-.1-3.29-1.84-5.16-6.89-5.22h-3.05v10.87h3.05z"/><use href="#B"/><use href="#B" x="811.17"/></g><defs ><path id="B" d="M254.81 179.23l-16.62-37.38h-4.22l-16.19 37.89h6.23l4.65-10.89h15.23l4.93 10.89h6.22l-.22-.52zm-23.79-15.88l4.98-12.07 5.38 12.07z"/></defs></svg>