<svg xmlns="http://www.w3.org/2000/svg" viewBox="0 0 95.6 25.5" xmlns:v="https://vecta.io/nano"><g fill="#fff"><path d="M43.4 14.1V6.4h3.5v7.2c0 2 .6 3 2.4 3s2.4-1 2.4-3V6.4h3.5v7.8c0 3.8-2.6 5.4-5.9 5.4-3.4-.1-5.9-1.7-5.9-5.5m33.5 5.4c-3.8 0-6.7-2.7-6.7-6.7s2.9-6.7 6.7-6.7 6.7 2.7 6.7 6.7-3 6.7-6.7 6.7m0-10.3c-1.9 0-3.1 1.4-3.1 3.6s1.2 3.6 3.1 3.6S80 15 80 12.8s-1.2-3.6-3.1-3.6m11.6-2.8v10h6.4v2.9H85V6.4h3.5z"/><path d="M66,14.1c-.3,1.2-1.1,2.3-2.9,2.3s-3-1.4-3-3.6,1.1-3.6,3-3.6,2.6,1.1,2.9,2.3l3.4-.2c-.4-2.9-2.5-5.2-6.2-5.2s-6.6,2.7-6.6,6.7,2.8,6.7,6.6,6.7,5.8-2.2,6.3-5.2l-3.5-.2Z"/></g><path d="M16.9 10.3c0 4.9 4 8.9 8.9 8.9s8.9-4 8.9-8.9h5c0 7.7-6.3 14-14 14s-14-6.3-14-14h5.2zM14.5.1c7.7 0 14 6.3 14 14h-5c0-4.9-4-8.9-8.9-8.9s-8.9 4-8.9 8.9h-5C.5 6.4 6.8.1 14.5.1" fill="#e96852"/></svg>