<svg xmlns="http://www.w3.org/2000/svg" viewBox="0 0 526.3 252" fill="#fff" xmlns:v="https://vecta.io/nano"><path d="M96.8 153.6c2.3 5.6 6.8 10.5 15.6 18.4 1.7 1.4 3.7 3.1 6.1 4.9.4.4 2.8 2.1 4.8 3.5 13-9.1 28.4-23.1 28.4-38.5v-1.4-86.6l-18.1 6.6v66.2c0 14.3.3 24.9-10.3 38.5-10.9-13.4-10.8-23.4-10.8-38.5V68l-18.1 6.7v49c-.1 12-.3 23.1 2.4 29.9h0 0zm38.4 23.2h0c-2.3 1.7-5 3.7-8.2 5.8 3.1 2.1 7.3 5 12.2 7.7 1.4-.8 6.8-3.5 11.8-6.5.4-.4.9-.4 1.3-.6 27.7-17.6 27.3-32.2 27.2-58.7v-81L156.1 52v71.5c0 15.8.4 22.7-2.1 30-3 8.8-9.4 16-18.8 23.3h0 0zm7.5 15.5l4.7 2.4 6.8 3.8c3.3 1.9 6.6 3.6 9.5 5.2l-15.1-14.4c-1.2.9-3 1.8-5.9 3h0 0zm9.2 10.1c-7.8-4.4-20.3-11.6-31.7-19.5h0s-4.8-3.3-6.8-4.9h0c-5-3.7-9.5-7.6-13.1-11.2-3.9-4.1-6.9-8.5-8.5-13.2-2.3-7.6-2.1-19.2-2.1-30V76.3l-23.3 8.5v39.9c0 20.9-.1 33.4 11.2 45.6 2 2.3 8.7 9.8 22.1 17.5l-17.6 15.8a233.85 233.85 0 0 0 9.5-5.2l13.9-7.6 4.3 2.1-23.5 13.6 16.6-3.2 20.4-4.9c10.2 3.5 22.5 6.5 36.7 8.2l-8.1-4.2h0 0zm89.2-58.5c0 13-3.1 17.8-13.3 17.8s-13.3-4.9-13.3-17.8v-37.3h-11.9v37.8c0 18.5 8.8 27.6 25.2 27.6s25.1-9.2 25.1-27.6v-37.8h-11.8v37.3h0 0zm47.8-23c-5.4 0-10.7 2.1-15.9 5.1v-3.9h-10.9v48.5h11.3v-36.8c5.2-2.1 9.5-3.3 12.7-3.3 5.6 0 6.8 2.4 6.8 9.4v30.8h11.5v-30.8c.1-10.9-1.8-18.9-15.5-19h0 0zm65.3-11h-11.3v12.3h-9.1v8.4l9.1.8v26.7c0 10.2 3.8 13.9 13.4 13.9 4.3 0 8.5-1.1 9.8-1.4v-7.9c-1.4.2-4.9.4-7.4.4-4.1 0-4.4-.9-4.4-5.3v-26.6h11.8V122h-11.8l-.1-12.1h0 0zm-39.9 60.8h11.5v-48.5h-11.5v48.5h0zm131.1-40c2.7 0 6.8.3 13 .7v-8.6c-2.3-.6-7.6-1.8-15-1.8-14 0-20.4 7.6-20.4 22.4v6.1c0 14.6 6.5 22.5 20.4 22.5 7.5 0 12.8-1.2 15-1.8v-8.6c-6.1.4-10.3.8-13 .8-7 0-11-2.4-11-12.9v-6.1c0-10.6 3.9-12.8 11-12.7h0 0zm-51.7-9.8c-14.5 0-21.9 7.9-21.9 24.2v3c0 17.1 6.2 23.8 23.8 23.8 8.1 0 14.4-1.2 18-2.1v-8.5c-6.4.5-12.4 1.2-17.5 1.2-11.9 0-13-4.6-13-11.7v-.8h32.5v-3.8c0-14.6-5.7-25.2-21.9-25.3h0 0zm10.4 21.6H383v-.7c0-5.5 1.4-11.8 10.5-11.8 9.2 0 10.5 6.1 10.5 11.8l.1.7h0 0zm-90-27.8h11.8v-11h-11.8v11h0z"/></svg>