<svg xmlns="http://www.w3.org/2000/svg" viewBox="15.5 21 97.96 75.628" fill="#c01" clip-path="url(#clip0_684_57705)" xmlns:v="https://vecta.io/nano"><path d="M51.177 22.97c-2.977.048-3.755 1.151-3.8 3.723l-.185 14.757c-.09 6.71-2.882 13.468-12.96 13.468-8.472 0-14.929-3.678-14.929-13.512V26.693c0-2.572-.826-3.675-3.803-3.722V21.59c3.665.139 5.22.139 6.686.139s3.034 0 6.689-.14v1.382c-2.977.047-3.803 1.15-3.803 3.722v15.86c0 6.896 4.352 10.619 9.48 10.619 7.97 0 10.81-5.15 10.81-13.147l-.092-6.43-.138-6.665c-.047-2.758-.64-3.953-3.985-3.953v-1.38l4.946.138c1.42 0 3.3-.091 5.084-.138zm31.697 8.831H81.68c-1.011-6.618-6.595-9.055-12.09-9.055-6.092 0-12 4.826-12 13.745 0 8.643 4.947 16.504 12.87 16.504 3.435 0 8.796-2.03 12.734-8.277l.02 5.414c-3.813 3.225-9.319 4.778-14.218 4.778-15.846 0-18.185-12.317-18.185-17.329C50.81 30.136 56.08 21 70.325 21c2.883 0 8.196.826 12.549 2.575zm24.334-6.992v-.024c-.047-.142-.226-.883.91-1.039a2.5 2.5 0 0 1 .567-.734 3.45 3.45 0 0 1 .539.788 1.16 1.16 0 0 1 .941 1.039s-.573-.338-.708.091l.061 1.452h1.372a.6.6 0 0 0 .185-.643s.9-.416.951.938a2.94 2.94 0 0 1 .792.466 1.6 1.6 0 0 1-.843.593s-.107.97-.95.917c0 0 .286-.528-.125-.697h-1.443v1.438a.436.436 0 0 0 .593.19s.439.943-.805.943a2.7 2.7 0 0 1-.56.833 2.24 2.24 0 0 1-.57-.877s-.9-.074-.914-.913c0 0 .486.182.705-.166l-.064-1.438h-1.379a.46.46 0 0 0-.142.676s-.933.308-1.011-.896a2.6 2.6 0 0 1-.786-.565 2.54 2.54 0 0 1 .84-.559s.125-.95.968-.94c0 0-.304.572.118.707h1.453V24.94a.46.46 0 0 0-.316-.235.45.45 0 0 0-.379.103m1.012-.061v1.973h-1.966a.61.61 0 0 1-.367-.542.96.96 0 0 0-.287.738.94.94 0 0 0-.674.257 1.01 1.01 0 0 0 .637.264c.03.886.337.856.337.856-.108-.39.337-.677.337-.677h1.952v1.94a.83.83 0 0 1-.566.375c.094.24.725.338.725.338a.8.8 0 0 0 .337.677c.175-.115.236-.7.236-.7.694.152.846-.298.846-.298a.78.78 0 0 1-.674-.393V27.64h1.932c.31.085.394.589.394.589a1.42 1.42 0 0 0 .297-.823.85.85 0 0 0 .62-.226.85.85 0 0 0-.63-.298c.077-.714-.277-.883-.277-.883a1.03 1.03 0 0 1-.337.72h-1.996v-1.996a.88.88 0 0 1 .614-.338 1.35 1.35 0 0 0-.796-.271.96.96 0 0 0-.239-.64 1.17 1.17 0 0 0-.294.647c-.644-.14-.832.243-.832.243a.75.75 0 0 1 .66.383zm-21.964.068l1.52-1.526 2.29 2.298 2.296-2.298 1.591 1.597-2.839 2.707v3.723h-2.157v-3.723zm2.994 2.63v3.509h1.56V27.42l2.566-2.548-1.048-1.11-2.28 2.284-2.312-2.325-1.038 1.08z"/><path d="M89.74 26.262h.59l-.132.524.395-.196v.657l-.338-.132v.988a.9.9 0 0 1-.195.338c-.064 0-.132-.132-.196-.338v-.988l-.394.132v-.657l.394.196-.131-.524zm-.065 2.429h.654l-.131.46.394-.131v.592l-.394-.132v1.053c-.064.2-.132.264-.196.264a.45.45 0 0 1-.199-.264V29.48l-.337.132v-.592l.394.132-.195-.46zm-2.357-3.809l.459-.46.263.392.131-.392.46.46-.395.132.785.789a.23.23 0 1 1-.105.446.23.23 0 0 1-.154-.186l-.79-.72-.128.338-.458-.46.391-.132-.459-.197zm4.979-.528l.459.46-.395.264.395.132-.459.47-.199-.338-.718.789q-.192.06-.395.064.008-.175.068-.338l.785-.789-.337-.196.391-.46.196.392.199-.46zm-.58 20.689c.195.03.914.247.914.247.057-.088.576-.62.576-.62-.121-.067-.822-.31-.822-.31-.078.067-.668.683-.668.683m15.77.465l-.27.274.27.27.269-.27zm-1.822-1.041l-.27.27-.273-.27.273-.268zm1.318.661l-.556.545-.543-.549.56-.562zm-.55-.105l-.097.091.097.098.108-.091zM95.168 40.74a.1.1 0 0 1-.044-.088v.03a.34.34 0 0 0 .074.356l.115-.119.115-.115a.2.2 0 0 1 0-.044.24.24 0 0 0-.118-.338l-.071.145z"/><path d="M113.386 33.294c.064 19.654-13.884 22.479-13.884 22.479s-13.884-2.958-13.884-22.48V21.989h27.768zM86.208 22.547v10.287s.924.75 1.686.724c0 0 .59.196 1.55-.816 0 0 .854-.998 1.805-.991 0 0 .56-.17 1.915.819 0 0 .94 1.015 2.083 1.015 0 0 .995.068 2.1-.975 0 0 .938-.863 2.024-.886 0 0 .812-.153 2.093.913 0 0 .954.951 2.101.948a2.8 2.8 0 0 0 2.023-1.096s.934-.938 1.918-.914a2.8 2.8 0 0 1 1.898.914s1.082 1.164 1.919 1.062c0 0 .987 0 1.456-.724V22.574zm13.115 11.085h-.286v2.877h.286zm.617 0h-.286v2.877h.3zm.297-.267a.84.84 0 0 0 .088-.369.823.823 0 0 0-1.642 0 .84.84 0 0 0 .084.366h.556a.405.405 0 0 1-.175-.553.405.405 0 1 1 .7.403.4.4 0 0 1-.167.15zm-3.78 13.37v1.116h6.622s.553 2.45 2.023 2.643v-1.062s-.415.101-.711-.66L104 47.645s1.652-.575 2.498-1.476l-.971-.558a7.3 7.3 0 0 1-1.814.978l-.388-1.238-.977.21.374 1.17zm1.113 1.387v.379h2.225v-.386zm-1.052-.03v2.263h5.058s.269-.016.259-.257c0 0 .044-.18-.212-.433l-1.484-1.584v.758h-2.882v-.74zm-.785 2.602v.365h7.812l-2.718-2.97h-.199l1.349 1.464a.83.83 0 0 1 .145.782s-.105.322-.614.355zm11.679-4.294c.795.338 1.028-.078 1.028-.078.307-.562-.371-.985-.371-.985l-2.609-1.506c-.732-.206-.921.237-.921.237a.71.71 0 0 0 .27.89zm-11.228 1.164v-.867a29 29 0 0 0-2.825-1.187s.388-.467.52-.6c.983.436 1.922.965 2.804 1.581h1.093a16.8 16.8 0 0 0-7.714-3.428s-.29-.074-.391.301a.36.36 0 0 0 .26.413q.857.123 1.685.383l-.728.747s-1.069-.203-1.635-.27a.384.384 0 0 0-.395.372s-.044.321.216.413c.014 0 3.82.179 7.11 2.142m-1.01-8.7a.78.78 0 0 1 .835-.098.44.44 0 0 1 .398.098.76.76 0 0 1 .179-.677.4.4 0 0 0 .3.518c-.438.284 0 .5 0 .5-.476.288-.037.508-.037.508-.338.298.077.338.077.338-.128.677.337.857.337.857a.25.25 0 0 1-.165 0 6.56 6.56 0 0 1 0 2.175.37.37 0 0 1 0 .305c.098.274-.209.284-.209.284q-.09.24-.246.444l.115.152.263-.339.067.065-.199.396.337-.068a.52.52 0 0 0 .338-.46c-.18-.545.13-.721.13-.721-.238-.758.102-2.369.102-2.369.5-.054.236-.643.236-.643.358-.193.084-.592.084-.592.3-.166.081-.592.081-.592.304-.206.125-.7.125-.7.337-.14.094-.566.094-.566.277-.179 0-.66 0-.66.247.082.338-.338.338-.338v-3.215a.76.76 0 0 0-.567.339.62.62 0 0 0-.593.436.646.646 0 0 0-.617.522c-.479 0-.479.592-.479.592a.43.43 0 0 0-.337.497.64.64 0 0 0-.317.508c-.314.138-.314.578-.314.578-.384.109-.25.535-.25.535-.286.125-.174.565-.174.565a.78.78 0 0 0-.277.579q.186.117.354.26zm-.412.677c.3.575.674.551.674.551a.78.78 0 0 0 .742-.29.6.6 0 0 0 .054-.66c-.112-.207-.246.04-.246.04-.18.538-.398.51-.398.51-.304.123-.523-.402-.523-.402a.86.86 0 0 0-.809-.494c.223.202.4.45.516.728zm.04 1.015a.7.7 0 0 1-.101.274 1.13 1.13 0 0 1 .58.646c.317.66.603.453.603.453l-.131-.206a.193.193 0 0 1 0-.26c.121-.095.26.04.26.04-.273-.62.188-.755.188-.755a1.05 1.05 0 0 0-.107-.592 1.14 1.14 0 0 1-.907.109c-.099.13-.227.234-.375.304zm.479-1.445l.135.247s.07.152.209 0a1.1 1.1 0 0 0 .192-.386s-.169-.095-.526.139zm-1.096.111a.86.86 0 0 0-.617-.22q.245.273.442.582s.104-.31.185-.368zm2.182 1.692a1 1 0 0 1-.139.099.217.217 0 0 0 0 .3s.287.468.04.677a3.2 3.2 0 0 1 0 1.476 2 2 0 0 0-.164.62l.151-.278h.095l-.064.338.202-.047q.135-.24.179-.511s-.048-.288.141-.339a.34.34 0 0 1 0-.338s.26-.62-.027-2.03a.39.39 0 0 1-.404.027zm0-.714a3.85 3.85 0 0 0 .053.373l.068.08h.111v-.314zm5.337 4.152l.526-.338.037.071q-.231.16-.418.369s.087.068.644-.112a.57.57 0 0 0 .29-.206s.107-.075 0-.24a.45.45 0 0 1-.088-.275.22.22 0 0 0 .219-.057s.041 0 .098-.122a.37.37 0 0 1 .138-.338s-.098-2.203.044-2.369c0 0 .088-.453-.273-.535 0 0 .418-.389.057-.548 0 0 .435-.41-.064-.575 0 0 .533-.376.175-.697a.47.47 0 0 0-.05-.633s.128-.555-.216-.612c0 0 .28-.39-.051-.488 0 0 .193-.534-.188-.7 0 0 .418.023.509.578 0 0 .286.14.084.501a.6.6 0 0 1 .172.643.65.65 0 0 1 .074.677s.293.46-.125.7a.43.43 0 0 1 .041.552.37.37 0 0 1 .09.274.37.37 0 0 1-.131.257.58.58 0 0 1 0 .521s.429.356.756.078a.63.63 0 0 0 .114-.612s.206-.197.091-.38a.28.28 0 0 0-.05-.338.516.516 0 0 0-.081-.632.76.76 0 0 0-.132-.626.55.55 0 0 0-.188-.552s.114-.464-.166-.66a.64.64 0 0 0-.246-.545.68.68 0 0 0-.384-.626.6.6 0 0 0-.428-.51.54.54 0 0 0-.442-.41.36.36 0 0 0-.28-.379s-.047-.39-.607-.355a.52.52 0 0 0-.445-.339.5.5 0 0 0-.425-.162l-.145-.102v3.181s0 .098-.067.108c0 0-.027.47.276.593a.475.475 0 0 0 .108.544s-.091.46.172.626c0 0-.131.38.108.528a.64.64 0 0 0 .172.633s0 .38.32.43c0 0 .206.426.55.338 0 0 .388.264.091 2.562a.39.39 0 0 0-.206.464s-.202.121-.313.636h.064l.479-.42a.363.363 0 0 1 .101-.48q.044-.247.155-.47a6.04 6.04 0 0 0 .017-2.065.5.5 0 0 1-.095-.244.6.6 0 0 1-.337-.27.5.5 0 0 1-.452-.46c-.252-.12-.229-.464-.229-.464-.337-.19-.145-.633-.145-.633-.273-.149-.199-.653-.199-.653-.269-.173-.125-.541-.125-.541-.212-.099-.128-.464-.128-.464-.279-.294-.043-.775-.043-.775a.71.71 0 0 0 .337.707c-.152.247.108.48.108.48-.172.312.175.522.175.522a.62.62 0 0 0 .145.677c-.186.42.162.53.162.53-.135.309.232.471.232.471-.111.383.381.393.381.393-.084.223.337.467.337.467a.4.4 0 0 1-.118.03.52.52 0 0 0 .321.17 12 12 0 0 1 0 2.145s-.081.338-.108.4a.3.3 0 0 0 0 .148.3.3 0 0 1-.229.149.38.38 0 0 0-.159.26zm-7.418-4.808l.102.101c.09.22-.186.24-.186.24-.135.028-.125.183.02.21h.017a.19.19 0 0 1 .155.119c.05.115-.09.233-.09.233a.19.19 0 0 0 .036.23c.061.048.138-.054.138-.054v-.203c0-.203.223-.179.223-.179a.4.4 0 0 0 .273-.06 1.3 1.3 0 0 1-.374-.393l-.202-.38z"/><path d="M96.19 24.512c.454.036.909-.063 1.308-.285 0 0 1.045-.626 1.918 0a2.23 2.23 0 0 1 2.107-.02s.907.464 1.531.338v.085l.701.061v.572h.391v1.056h-.397v.257h.397v1.059h-.397v.464h.397v1.015h-.397v.423h.397v1.045h-.397v.339h-3.743a1.3 1.3 0 0 1-1.106 0h-3.53v-.444l-.4-.03.168.105-.338.338-.583-.507-.283-.02s-.243-.14 0-.319l.273-.034.57-.504.391.339-.202.023v.115l.39-.054v-.94l-.42-.041.178.125-.337.362-.56-.565h-.253s-.283-.17 0-.338l.263-.02.56-.518.378.338-.2.105.412-.02v-.965l-.485-.078.222.13-.337.337-.56-.466-.273-.02s-.263-.14 0-.34h.263l.57-.537.367.338-.263.125.486-.04v-.934l-.422-.03.21.084-.378.379-.496-.484h-.283s-.337-.112 0-.338l.162-.024.637-.558.354.338-.263.159.486-.034v-.754l.822-.048zm-.429 5.786l.408-.423V25.04l-.421.033zm3.055.234l.378-.785c-2.337.517-2.782.362-2.782.362l-.411.433zm.624-.498l-.317.633a1.01 1.01 0 0 0 .674 0zm.199-.308l.451.816h3.058l-.455-.403a9 9 0 0 1-2.508-.338 5 5 0 0 0-.546-.058zm3.425.285l.293.267v-5.205l-.293-.033zm-6.544-.22a7 7 0 0 0 1.41-.15l1.328-.243V24.85l.168-.2.169.2v4.528a13 13 0 0 1 1.561.284 6.4 6.4 0 0 0 1.571.139v-4.887a3.7 3.7 0 0 1-1.349-.413 2.04 2.04 0 0 0-1.935.109 1.565 1.565 0 0 0-1.746-.091 2.61 2.61 0 0 1-1.177.338zm-36.291 56.83h-1.713l.124-.406h1.71z"/><path stroke="#c01" stroke-width=".2" d="M21.77 85.743h-.552a1.046 1.046 0 0 0-1.133.934h-.202l.189-1.185 2.023.02 2.022-.02-.195 1.144h-.202q.026-.168.027-.338c0-.46-.243-.569-.675-.569h-.694l-.695 3.675q-.036.168-.047.338c0 .291.196.359.398.359h.141l-.033.203c-.27 0-.587-.02-.938-.02l-.788.02.047-.203h.054c.418 0 .465-.135.6-.846zm3.938 3.802c-.371.42-.749.853-1.35.853a.86.86 0 0 1-.8-.604.9.9 0 0 1-.036-.354c0-.727.736-2.223 1.848-2.223a.626.626 0 0 1 .675.616c0 .453-.445 1.07-1.565 1.07q-.18.001-.357-.028a1.6 1.6 0 0 0-.095.48c0 .34.149.762.513.762.297 0 .647-.321 1.011-.72zm-.176-1.787c0-.18-.08-.311-.283-.311-.5 0-.958.826-1.052 1.205q.144.019.29.02a1.03 1.03 0 0 0 1.045-.914zm3.761-1.421c-.034-.495-.115-.643-.546-.643h-.102l.048-.203.896.02.79-.02-.041.203h-.121c-.243 0-.358.074-.358.31v.312l.223 3.147 2.05-4.135h.189l.229 4.203 1.726-2.968a1.82 1.82 0 0 0 .297-.64c0-.175-.142-.23-.371-.23h-.108l.04-.202.884.02.748-.02-.04.203a.77.77 0 0 0-.769.412l-2.744 4.291h-.203l-.165-3.75-2.043 3.75H29.6zm7.331-.548q.036-.144.047-.291a.18.18 0 0 0-.189-.176q-.158.003-.31.047l.047-.21 1.113-.257-.83 3.79c.338-.561.992-1.489 1.578-1.489a.4.4 0 0 1 .446.406 1.4 1.4 0 0 1-.055.339l-.39 1.59q-.03.12-.041.244a.14.14 0 0 0 .155.156c.196 0 .358-.25.432-.447l.182.054c-.061.196-.452.826-.89.826a.425.425 0 0 1-.418-.467q.009-.19.06-.373l.385-1.516q.03-.113.04-.23a.15.15 0 0 0-.155-.162c-.357 0-.883.717-1.079 1.015a3.66 3.66 0 0 0-.607 1.618l-.519.108zm6.209 3.743c-.21.311-.587.866-1.012.866-.256 0-.317-.196-.317-.392q.019-.385.108-.758l.108-.46c-.283.554-.951 1.624-1.686 1.624-.445 0-.6-.406-.6-.745 0-.737.809-2.436 2.394-2.436l.492.023q.123-.002.243-.023l-.465 2.206q-.04.167-.048.339a.145.145 0 0 0 .149.162c.141 0 .337-.277.465-.447zm-2.59.541c.553 0 1.686-1.692 1.726-2.572a1 1 0 0 0-.236-.027 1.32 1.32 0 0 0-1.267.718 3.1 3.1 0 0 0-.5 1.421c0 .21.04.46.277.46zm3.813-1.873q.056-.19.074-.387a.12.12 0 0 0-.066-.124.1.1 0 0 0-.048-.011c-.149 0-.317.183-.567.46l-.141-.122c.027-.04.613-.798 1.072-.798.216 0 .29.169.29.385a4 4 0 0 1-.223.921l.155-.298c.156-.27.58-1.015 1.248-1.015q.075 0 .149.024l-.108.619a.8.8 0 0 0-.27-.047c-.52 0-.91.541-1.012.744a6.7 6.7 0 0 0-.553 1.733l-.54.108zm4.245 1.345c-.37.42-.748.853-1.349.853a.86.86 0 0 1-.8-.604.9.9 0 0 1-.036-.354c0-.727.735-2.223 1.848-2.223a.626.626 0 0 1 .675.616c0 .453-.446 1.07-1.565 1.07a2 2 0 0 1-.358-.028 1.6 1.6 0 0 0-.094.48c0 .34.148.762.513.762.296 0 .647-.321 1.011-.72zm-.175-1.787c0-.18-.08-.311-.283-.311-.5 0-.958.826-1.052 1.205q.144.019.29.02a1.03 1.03 0 0 0 1.045-.914zm3.762-1.421c-.034-.495-.115-.643-.547-.643h-.1l.046-.203.897.02.79-.02-.041.203h-.122c-.242 0-.357.074-.357.31v.312l.222 3.147 2.094-4.135h.189l.23 4.203 1.725-2.968a1.8 1.8 0 0 0 .297-.64c0-.175-.141-.23-.37-.23h-.109l.04-.202.884.02.749-.02-.04.203a.77.77 0 0 0-.77.412l-2.744 4.291h-.202l-.196-3.75-2.043 3.75h-.202zm8.809 3.195c-.209.311-.587.866-1.012.866-.256 0-.317-.196-.317-.392q.02-.385.108-.758l.108-.46c-.283.554-.95 1.624-1.686 1.624-.445 0-.6-.406-.6-.745 0-.737.81-2.436 2.394-2.436l.492.023q.123-.002.243-.023l-.465 2.206q-.04.167-.047.339a.145.145 0 0 0 .148.162c.142 0 .337-.277.465-.447zm-2.59.541c.553 0 1.686-1.692 1.727-2.572a1 1 0 0 0-.236-.027 1.32 1.32 0 0 0-1.268.718 3.1 3.1 0 0 0-.5 1.421c0 .21.041.46.277.46zm3.069-2.037c.08-.119.6-.82.957-.82.19 0 .297.123.297.407a6 6 0 0 1-.216 1.17c.183-.338.884-1.59 1.531-1.59.365 0 .493.217.493.427 0 .358-.493 1.766-.493 2.098a.152.152 0 0 0 .156.17c.1 0 .195-.035.384-.272l.169-.21.141.13c-.337.419-.674.811-1.045.811-.243 0-.371-.128-.371-.318 0-.365.52-2.05.52-2.315a.17.17 0 0 0-.176-.169c-.23 0-.64.48-1.012 1.056a4.8 4.8 0 0 0-.62 1.665l-.54.109.418-1.862a4 4 0 0 0 .122-.697c0-.088-.034-.156-.108-.156-.135 0-.337.25-.486.454zm7.299 1.496c-.209.311-.586.866-1.011.866-.257 0-.317-.196-.317-.392q.018-.385.108-.758l.108-.46c-.284.554-.951 1.624-1.687 1.624-.445 0-.6-.406-.6-.745 0-.737.81-2.436 2.394-2.436l.493.023q.122-.002.243-.023l-.466 2.206q-.04.167-.047.339a.15.15 0 0 0 .088.15q.03.014.06.012c.142 0 .338-.277.466-.447zm-2.59.541c.553 0 1.687-1.692 1.727-2.572a1 1 0 0 0-.236-.027 1.32 1.32 0 0 0-1.268.718 3.1 3.1 0 0 0-.499 1.421c0 .21.04.46.287.46zm3.065-2.037c.081-.119.6-.82.958-.82.189 0 .297.123.297.407a6 6 0 0 1-.216 1.17c.182-.338.883-1.59 1.53-1.59.365 0 .493.217.493.427 0 .358-.492 1.766-.492 2.098a.152.152 0 0 0 .155.17c.101 0 .196-.035.384-.272l.169-.21.142.13c-.338.419-.675.811-1.046.811-.243 0-.37-.128-.37-.318 0-.365.519-2.05.519-2.315a.17.17 0 0 0-.176-.169c-.23 0-.64.48-1.011 1.056a4.8 4.8 0 0 0-.62 1.665l-.54.109.418-1.862a4 4 0 0 0 .121-.697c0-.088-.034-.156-.108-.156-.135 0-.337.25-.485.454zm6.897-1.165a.6.6 0 0 1 0 .149c0 .338-.182.528-.594.677q.06.164.06.338c0 1.218-1.766 1.273-1.766 1.692s1.82.447 1.82 1.306c0 .42-.444.812-1.409.812-.896 0-1.45-.338-1.45-.764s.392-.657.79-.772c-.23-.108-.371-.237-.371-.392 0-.305.37-.48.903-.677a.67.67 0 0 1-.641-.46.7.7 0 0 1-.033-.278c.023-.329.166-.638.403-.867a1.32 1.32 0 0 1 .878-.371.89.89 0 0 1 .735.318c.101-.02.176-.075.176-.176a.55.55 0 0 0-.169-.318zm-2.195 3.567c-.216.027-.675.186-.675.582 0 .28.27.589 1.012.589.52 0 .87-.15.87-.46.01-.366-.637-.576-1.207-.711zm.782-3.019c-.411 0-.775.596-.775 1.13 0 .339.12.495.384.495.499 0 .708-.697.708-1.124.01-.359-.132-.5-.307-.5zm4.839 2.113c-.209.311-.587.866-1.011.866-.257 0-.317-.196-.317-.392a4 4 0 0 1 .108-.758l.107-.46c-.283.554-.95 1.624-1.686 1.624-.445 0-.6-.406-.6-.745 0-.737.81-2.436 2.394-2.436l.493.023q.122-.002.242-.023l-.465 2.206q-.04.167-.047.339a.145.145 0 0 0 .148.162c.142 0 .337-.277.466-.447zm-2.59.541c.553 0 1.686-1.692 1.727-2.572a1 1 0 0 0-.236-.027 1.32 1.32 0 0 0-1.268.718 3.1 3.1 0 0 0-.5 1.421c0 .21.041.46.28.46zm6.952-2.858a.96.96 0 0 1 .986.609 1 1 0 0 1 .066.406c0 .907-.708 2.16-1.747 2.16a1.05 1.05 0 0 1-.965-.732 1.1 1.1 0 0 1-.047-.426c0-1.083.91-2.017 1.707-2.017zm-.027.203c-.695 0-1.14 1.198-1.14 1.956 0 .576.162.82.492.82.803 0 1.187-1.666 1.187-2.11 0-.578-.31-.666-.54-.666zm4.477-1.081c-.034-.495-.115-.643-.546-.643h-.102l.048-.203.897.02.788-.02-.04.203h-.121c-.243 0-.358.074-.358.31v.312l.223 3.147 2.05-4.135h.188l.23 4.203 1.726-2.968a1.82 1.82 0 0 0 .297-.64c0-.175-.142-.23-.371-.23h-.108l.04-.202.884.02.748-.02-.04.203a.77.77 0 0 0-.769.412l-2.744 4.291h-.159l-.195-3.75-2.044 3.75h-.202zm8.808 3.195c-.209.311-.587.866-1.011.866-.257 0-.317-.196-.317-.392a4 4 0 0 1 .108-.758l.108-.46c-.284.554-.952 1.624-1.687 1.624-.445 0-.6-.406-.6-.745 0-.737.81-2.436 2.394-2.436l.493.023q.122-.002.243-.023l-.466 2.206q-.04.167-.047.339a.145.145 0 0 0 .148.162c.142 0 .338-.277.466-.447zm-2.59.541c.553 0 1.687-1.692 1.727-2.572a1 1 0 0 0-.236-.027 1.32 1.32 0 0 0-1.268.718 3.1 3.1 0 0 0-.5 1.421c0 .21.041.46.278.46zm3.79-1.988q.046-.166.067-.338c0-.061-.027-.136-.108-.136-.189 0-.404.312-.526.501l-.148-.108.027-.047c.135-.237.546-.752.91-.752a.364.364 0 0 1 .385.373 2.5 2.5 0 0 1-.081.399l-.338 1.55a1.6 1.6 0 0 0-.047.264c0 .128.075.19.155.19.162 0 .277-.156.338-.278l.12-.197.156.092c-.169.28-.472.788-.91.788a.4.4 0 0 1-.385-.45q.003-.219.061-.43zm.613-2.318a.237.237 0 0 1 .263.25.465.465 0 0 1-.431.481.243.243 0 0 1-.243-.257.45.45 0 0 1 .411-.474zm1.584 1.8h-.675l.257-.284h.478l.129-.616.532-.136-.148.752h.708l-.034.284h-.741l-.398 1.834q-.06.22-.088.447a.2.2 0 0 0 .006.063q.01.03.031.055a.15.15 0 0 0 .111.051c.203 0 .445-.406.54-.561l.168.087c-.236.42-.613.853-.991.853-.236 0-.378-.169-.378-.44q.015-.295.088-.582zm4.906 1.965c-.209.311-.587.866-1.012.866-.256 0-.317-.196-.317-.392q.02-.385.108-.758l.108-.46c-.283.554-.951 1.624-1.686 1.624-.445 0-.6-.406-.6-.745 0-.737.809-2.436 2.394-2.436l.492.023q.123-.002.243-.023l-.465 2.206a1.7 1.7 0 0 0-.047.339.13.13 0 0 0 .006.061q.01.03.031.054a.14.14 0 0 0 .111.047c.142 0 .337-.277.465-.447zm-2.59.541c.553 0 1.686-1.692 1.727-2.572a1 1 0 0 0-.236-.027 1.32 1.32 0 0 0-1.268.718 3.1 3.1 0 0 0-.499 1.421c0 .21.04.46.276.46zm4.157-4.284q.035-.144.047-.291a.2.2 0 0 0-.057-.128.18.18 0 0 0-.132-.048 1.2 1.2 0 0 0-.31.047l.047-.21 1.113-.257-.83 3.79c.337-.561.991-1.489 1.578-1.489a.4.4 0 0 1 .445.406 1.4 1.4 0 0 1-.054.339l-.391 1.59q-.029.12-.04.244a.14.14 0 0 0 .092.15q.03.009.063.006c.195 0 .357-.25.431-.447l.182.054c-.06.196-.451.826-.89.826a.42.42 0 0 1-.398-.293.4.4 0 0 1-.02-.174q.01-.19.061-.373l.384-1.516q.031-.113.041-.23a.15.15 0 0 0-.155-.162c-.358 0-.884.717-1.079 1.015a3.65 3.65 0 0 0-.607 1.618l-.519.108zm6.211 3.743c-.209.311-.586.866-1.011.866-.257 0-.317-.196-.317-.392a4 4 0 0 1 .108-.758l.108-.46c-.284.554-.951 1.624-1.687 1.624-.445 0-.6-.406-.6-.745 0-.737.81-2.436 2.394-2.436l.493.023q.122-.002.243-.023l-.466 2.206a1.7 1.7 0 0 0-.047.339.2.2 0 0 0 .006.061.14.14 0 0 0 .082.09q.03.012.06.011c.142 0 .338-.277.466-.447zm-2.589.541c.553 0 1.686-1.692 1.726-2.572a1 1 0 0 0-.236-.027 1.32 1.32 0 0 0-1.268.718 3.1 3.1 0 0 0-.499 1.421c0 .21.04.46.293.46zM22.96 94.34h-.118c-.1-.654-.65-.895-1.193-.895-.6 0-1.184.478-1.184 1.354s.486 1.628 1.268 1.628a1.57 1.57 0 0 0 1.258-.815l.04.534a2.38 2.38 0 0 1-1.443.474c-1.565 0-1.794-1.218-1.794-1.712 0-.735.52-1.639 1.925-1.639a3.8 3.8 0 0 1 1.241.254zm1.133 2.089c.293 0 .374-.115.374-.369v-2.224c0-.254-.08-.362-.374-.365v-.139h1.332v.139c-.294 0-.375.111-.375.365v.918h1.687v-.918c0-.254-.085-.362-.378-.365v-.139h1.349v.139c-.294 0-.378.111-.378.365v2.23c0 .255.084.366.378.37v.135h-1.349v-.135c.293 0 .378-.115.378-.37V94.95H25.05v1.117c0 .254.08.365.374.369v.135h-1.332zm4.584 0c.293 0 .374-.115.374-.369v-2.224c0-.254-.08-.362-.374-.365v-.139h1.447c.785 0 1.035.396 1.035.84a.83.83 0 0 1-.63.791l.566 1.043c.202.376.313.463.57.5v.11h-.21c-.6 0-.85-.21-1.102-.752l-.176-.376c-.188-.403-.253-.437-.556-.44v1.015c0 .254.081.366.374.37v.135h-1.349zm.944-1.54q.147.032.297.034c.408 0 .654-.186.654-.626a.76.76 0 0 0-.45-.764.75.75 0 0 0-.305-.062 1 1 0 0 0-.196 0zm2.966 1.54c.293 0 .374-.115.374-.369v-2.224c0-.254-.08-.362-.374-.365v-.139h1.332v.139c-.293 0-.374.111-.374.365v2.23c0 .255.08.366.374.37v.135h-1.332zm2.407-.741h.175a.93.93 0 0 0 .864.764.586.586 0 0 0 .674-.538c0-.724-1.649-.677-1.649-1.692 0-.23.132-.944 1.14-.944a2.7 2.7 0 0 1 .836.118l.027.802h-.168a.78.78 0 0 0-.52-.707.8.8 0 0 0-.306-.04.523.523 0 0 0-.584.48c0 .677 1.686.72 1.686 1.733 0 .535-.38.964-1.13.964a4 4 0 0 1-.984-.152zm3.992.742c.294 0 .375-.116.375-.37v-2.5h-.398c-.361 0-.6.1-.627.676h-.169l.03-.9h2.9l.027.9h-.178c-.027-.572-.267-.677-.63-.677h-.382v2.508c0 .254.084.366.378.37v.135h-1.349zm6.344-2.09h-.117c-.102-.654-.651-.895-1.194-.895-.6 0-1.184.478-1.184 1.354s.486 1.628 1.268 1.628a1.57 1.57 0 0 0 1.258-.815l.04.534a2.38 2.38 0 0 1-1.443.474c-1.565 0-1.794-1.218-1.794-1.712 0-.735.52-1.639 1.926-1.639a3.82 3.82 0 0 1 1.24.254zm1.145 2.089c.293 0 .374-.115.374-.369v-2.224c0-.254-.081-.362-.374-.365v-.139h1.332v.139c-.294 0-.375.111-.375.365v.918h1.686v-.918c0-.254-.084-.362-.377-.365v-.139h1.349v.139c-.294 0-.375.111-.375.365v2.23c0 .255.081.366.375.37v.135h-1.35v-.135c.293 0 .377-.115.377-.37V94.95h-1.686v1.117c0 .254.081.365.375.369v.135h-1.332zm8.095-2.96c-.296 0-.37.111-.377.365v1.459c0 .66-.287 1.33-1.278 1.33-.837 0-1.477-.365-1.477-1.337v-1.452c0-.254-.081-.362-.375-.365v-.14h1.349v.14c-.296 0-.377.111-.377.365v1.554a.95.95 0 0 0 .937 1.049c.786 0 1.066-.511 1.066-1.3v-1.293c0-.274-.064-.389-.395-.389v-.139h.992zm.984 2.96c.293 0 .374-.115.374-.369v-2.224c0-.254-.08-.362-.374-.365v-.139H57c.785 0 1.035.396 1.035.84a.83.83 0 0 1-.628.791l.564 1.043c.205.376.313.463.57.5v.11h-.21c-.6 0-.85-.21-1.102-.752l-.176-.376c-.188-.403-.253-.437-.556-.44v1.015c0 .254.08.366.374.37v.135h-1.349zm.944-1.54q.15.032.3.034c.405 0 .651-.186.651-.626a.757.757 0 0 0-.755-.826 1 1 0 0 0-.196 0zm6.238-.549h-.114c-.102-.654-.651-.895-1.194-.895-.604 0-1.187.478-1.187 1.354s.489 1.628 1.271 1.628a1.57 1.57 0 0 0 1.258-.815l.04.534a2.38 2.38 0 0 1-1.443.474c-1.564 0-1.794-1.218-1.794-1.712 0-.735.52-1.639 1.926-1.639a3.8 3.8 0 0 1 1.237.254zm1.137 2.089c.297 0 .378-.115.378-.369v-2.224c0-.254-.081-.362-.378-.365v-.139h1.349v.139c-.293 0-.374.111-.374.365v.918h1.686v-.918c0-.254-.081-.362-.375-.365v-.139h1.349v.139c-.296 0-.377.111-.377.365v2.23c0 .255.08.366.377.37v.135H66.16v-.135c.294 0 .375-.115.375-.37V94.95h-1.686v1.117c0 .254.08.365.374.369v.135h-1.349zm6.623 0c.294 0 .378-.115.378-.369v-2.224c0-.254-.084-.362-.378-.365v-.139h.85l2.131 2.393V93.86c0-.274-.064-.39-.388-.39v-.138h.988v.139c-.293 0-.374.111-.374.365v2.759h-.182l-2.445-2.708.037 2.132c0 .339.088.383.374.41v.135h-.978zm4.531 0c.293 0 .374-.115.374-.369v-2.224c0-.254-.08-.362-.374-.365v-.139H77.3l.02.765h-.145c-.074-.437-.266-.592-.81-.592h-.394v1.313h.337c.412 0 .472-.15.503-.437h.155v1.06h-.155c0-.36-.112-.45-.506-.45h-.337v1.076c0 .21.084.338.509.338s.786-.084.894-.656h.151a8 8 0 0 0-.067.829h-2.432zm3.475-3.098h1.349v.139h-.132c-.151 0-.242.067-.242.19a.7.7 0 0 0 .064.243l.65 1.847.766-2.477h.08l.88 2.488.543-1.831q.04-.126.054-.257c0-.156-.121-.2-.337-.203v-.139h1.008v.139c-.31 0-.384.101-.478.392l-.917 2.731h-.132l-.836-2.308-.765 2.308h-.135l-.992-2.707c-.131-.372-.198-.403-.438-.416zm7.625 3.149l2.023-2.884h-1.18c-.31 0-.51.108-.567.633h-.151l.027-.897h2.751l-2.09 3.006h1.244c.469 0 .597-.217.674-.677h.159l-.044.91h-2.826zm3.871-.051c.293 0 .374-.115.374-.369v-2.224c0-.254-.081-.362-.374-.365v-.139h2.272l.02.765h-.144c-.075-.437-.267-.592-.81-.592h-.394v1.313h.337c.411 0 .472-.15.502-.437h.155v1.06h-.155c0-.36-.11-.45-.505-.45h-.338v1.076c0 .21.088.338.513.338s.782-.084.89-.656h.152a8 8 0 0 0-.067.829h-2.432zm3.461-.002c.31-.02.398-.065.644-.677l.995-2.41h.077l1.225 2.748c.118.26.229.339.462.339v.135h-1.366v-.135c.253 0 .337-.048.337-.17a1.4 1.4 0 0 0-.128-.372l-.182-.426h-1.035l-.132.368q-.092.205-.121.427c0 .118.053.17.337.173v.135h-1.083zm1.966-1.141l-.489-1.164-.415 1.164zm2.311 1.143c.297 0 .378-.115.378-.369v-2.224c0-.254-.08-.362-.378-.365v-.139h1.349v.139c-.293 0-.374.111-.374.365v2.23c0 .238.128.316.506.316.597 0 .893-.078.984-.64h.156l-.075.83h-2.181a3 3 0 0 0-.338 0zm3.459-.002c.314-.02.398-.065.648-.677l.995-2.41h.077l1.224 2.748c.118.26.226.339.462.339v.135h-1.386v-.135c.257 0 .337-.048.337-.17a1.3 1.3 0 0 0-.128-.372l-.178-.426h-1.036l-.131.368a1.4 1.4 0 0 0-.122.427c0 .118.054.17.338.173v.135h-1.086zm1.966-1.141l-.489-1.164-.414 1.164zm2.287 1.143c.297 0 .378-.115.378-.369v-2.224c0-.254-.081-.362-.378-.365v-.139h.853l2.128 2.393V93.86c0-.274-.064-.39-.388-.39v-.138h.989v.139c-.294 0-.375.111-.375.365v2.759h-.182l-2.445-2.708.037 2.132c0 .339.091.383.375.41v.135h-.978zm4.529 0c.294 0 .375-.115.375-.369v-2.224c0-.254-.081-.362-.375-.365v-.139h1.703c1.15 0 1.687.704 1.687 1.662 0 .487-.264 1.57-1.848 1.57h-1.548zm.945-.356c0 .24.104.302.445.302.718 0 1.349-.315 1.349-1.32a1.68 1.68 0 0 0-.486-1.31c-.219-.186-.452-.24-.978-.24h-.317zM26.833 60.714l-.027 2.886c0 1.354-.084 1.78-.414 2.369-.563 1.042-1.629 1.597-3.035 1.597-1.736 0-3.081-.91-3.439-2.348a5.7 5.7 0 0 1-.145-1.472v-2.998c0-.958-.097-1.104-.856-1.253a1 1 0 0 1-.135-.023v-.285h.233q.518.045 1.038.038h1.126l.675-.027h.283v.28c-.782.088-.944.285-.944 1.205v3.354c0 1.015.087 1.448.357 1.928a2.44 2.44 0 0 0 2.202 1.202 2.47 2.47 0 0 0 1.678-.573 2.5 2.5 0 0 0 .867-1.552q.059-.396.05-.796v-.328l-.073-3.143c-.024-1.046-.135-1.205-.93-1.293h-.15v-.284h.136l.526.023h1.958v.295c-.738.003-.97.3-.98 1.198zm11.247-1.157h-.085c-.721.034-.93.281-.93 1.103v6.94h-.294l-6.352-6.987v5.12c0 1.069.206 1.326 1.09 1.353v.308h-2.583V67.1c.833-.061 1.011-.318 1.011-1.354v-5.33c0-.602-.256-.849-.907-.872h-.084v-.308H31.1l5.425 6.033v-4.572c0-.896-.158-1.079-1.011-1.14v-.338h.195l1.15.034h1.224zm4.06-.037c-.744.023-.916.233-.916 1.106v5.414c0 .873.172 1.083.917 1.093v.284h-3.206v-.284c.735 0 .92-.22.92-1.093v-5.414c0-.873-.185-1.093-.92-1.107v-.28h3.206zm9.951-.034c-.732.047-1.113.308-1.369.934l-.172.44-2.717 6.696h-.256l-3.133-6.734c-.478-1.042-.674-1.215-1.372-1.326v-.281h3.709v.284c-.647 0-1.011.22-1.011.613a1.34 1.34 0 0 0 .134.527l2.29 5.11 1.837-5.11q.106-.297.135-.612c0-.338-.21-.49-.772-.518v-.28h2.69zm6.269-.159l.046.565.125 1.055.024.197-.391.037a1.86 1.86 0 0 0-.418-.995c-.378-.43-.675-.518-1.848-.518h-.856v3.316h.832c1.09 0 1.309-.145 1.349-.98v-.16h.405v.122l-.024.541v1.266l.024.602v.207h-.405c0-.93-.233-1.117-1.42-1.117h-.795v2.484c0 .836.199 1.015 1.14 1.015 1.685 0 2.215-.369 2.494-1.72l.395.075a28 28 0 0 0-.162 1.841v.247h-5.283l-.843.024v-.28c.732 0 .917-.224.917-1.094v-5.441c0-.887-.185-1.093-.917-1.107v-.294h5.603zm2.026-.11h1.052l1.581-.038.954-.027c1.48 0 2.448.85 2.448 2.115a2.07 2.07 0 0 1-1.042 1.817 3 3 0 0 1-.637.244c.183.16.33.358.432.579l.674 1.252c.721 1.353.843 1.522 1.16 1.756.123.093.266.157.418.186q.186.041.377.037v.281q-.388.064-.782.061a2.46 2.46 0 0 1-1.834-.697c-.367-.382-.711-.971-1.372-2.348-.337-.677-.587-.87-1.224-.87h-.074v2.21c0 1.08.135 1.238 1.065 1.289v.338h-3.354v-.284c.748 0 .92-.22.92-1.093v-5.421c0-.883-.172-1.093-.92-1.106v-.295zm2.117 3.955h.354c.424.022.848-.035 1.251-.169a1.42 1.42 0 0 0 .796-1.414 2.13 2.13 0 0 0-.796-1.72 1.86 1.86 0 0 0-1.26-.317h-.338zm11.349-1.817h-.39a2.5 2.5 0 0 0-.355-1.016 2.05 2.05 0 0 0-1.703-.896 1.35 1.35 0 0 0-.973.33 1.36 1.36 0 0 0-.46.922c0 .443.247.785.82 1.143l1.214.7c1.126.627 1.578.996 1.86 1.524.163.322.243.68.233 1.042 0 1.475-1.092 2.457-2.697 2.457a13 13 0 0 1-2.508-.281l-.098-2.064.404-.038.024.085a2.13 2.13 0 0 0 .93 1.438c.392.29.863.448 1.35.454a1.42 1.42 0 0 0 1.36-.847 1.4 1.4 0 0 0 .123-.551c0-.224-.064-.442-.186-.63-.256-.378-.512-.537-1.996-1.299-1.348-.677-1.982-1.438-1.982-2.369a2.5 2.5 0 0 1 1.493-2.2c.433-.154.89-.229 1.35-.22q.978.024 1.944.184l.149.023zm4.465-1.835c-.749.023-.917.233-.917 1.106v5.414c0 .873.168 1.083.917 1.093v.284H75.11v-.284c.735 0 .917-.22.917-1.093v-5.414c0-.873-.182-1.093-.917-1.107v-.28h3.207zm8.435 1.94h-.405c-.06-.737-.246-1.14-.6-1.373-.28-.196-.442-.234-1.076-.234h-.967v6.176c0 .897.172 1.106.917 1.12v.27h-3.213v-.27c.748 0 .92-.234.92-1.106v-6.186h-1.257c-.917 0-1.258.392-1.406 1.62h-.415l.108-2.27h7.333zm8.908-1.943c-.577.06-.807.257-1.211 1.015l-2.07 3.966v1.489c0 .92.158 1.093 1.079 1.14v.284h-3.574v-.284c.954 0 1.126-.183 1.126-1.154v-1.475l-1.686-3.462c-.634-1.327-.792-1.476-1.564-1.55v-.267h3.705v.297c-.725.061-.907.173-.907.552.004.196.05.389.135.565l1.517 3.218 1.517-3.167a1.3 1.3 0 0 0 .159-.589c0-.358-.22-.528-.732-.565v-.284h2.496zm7.12 8.062c-2.714 0-4.758-1.844-4.758-4.301s1.895-4.223 4.441-4.223c2.63 0 4.514 1.793 4.514 4.297s-1.723 4.227-4.197 4.227zm-.499-8.122c-1.605 0-2.583 1.327-2.583 3.49 0 2.442 1.285 4.222 3.034 4.222 1.565 0 2.57-1.353 2.57-3.485v-.149c-.061-2.443-1.305-4.088-3.021-4.088zm11.061.007c0 .098 0 .206.023.338l.024.565.047.508.024.28-.361.058a1.75 1.75 0 0 0-.391-.981c-.391-.457-.843-.592-2.067-.592h-.914v3.353h.907c1.224 0 1.457-.172 1.494-1.13h.364a36 36 0 0 0-.034 1.55v1.14h-.367c-.061-.883-.337-1.093-1.541-1.093h-.823v2.579c0 .896.186 1.106.968 1.106h.111v.284h-3.388v-.284c.735 0 .917-.22.917-1.093v-5.448c0-.883-.172-1.106-.917-1.117v-.284h1.197l.944.024h3.763zm-85.04 20.035c-1.444 1.015-2.698 1.431-4.238 1.431-3.082 0-5.172-1.942-5.172-4.835 0-2.975 2.218-5.005 5.468-5.005 1.273.022 2.531.283 3.709.768v2.352h-.314c-.226-1.574-1.58-2.667-3.317-2.667-1.554 0-2.63.697-3.223 2.102a5.5 5.5 0 0 0-.395 2.03c0 2.707 1.598 4.764 3.672 4.764 1.011 0 1.85-.412 2.758-1.333a5.3 5.3 0 0 0 .903-1.164h.098zm8.601-.75c.566 1.303.85 1.587 1.753 1.692v.311h-3.999v-.338h.115c.522 0 .775-.17.775-.552a1.4 1.4 0 0 0-.111-.47l-.779-1.94H31.65l-.651 1.801q-.12.286-.155.596c0 .368.253.524.846.538h.169v.338h-3.207v-.338c.78 0 1.288-.454 1.71-1.476l3.223-7.888zm-5.125-1.716h2.626l-1.399-3.418zm17.696-5.358h-.097c-.833.044-1.073.339-1.073 1.276v8.013h-.337l-7.333-8.067-.023 5.912c0 1.231.239 1.53 1.257 1.573v.355h-2.98V80.4c.96-.071 1.173-.369 1.173-1.56v-6.172c0-.694-.297-.978-1.045-1.015h-.091v-.356h2.498l6.268 6.988v-5.289c0-1.035-.182-1.249-1.174-1.32v-.382h.226l1.329.044.58-.017h.832zm9.45 2.199h-.466c-.07-.852-.283-1.32-.69-1.59-.338-.227-.51-.267-1.245-.267h-1.116v7.13c0 1.035.2 1.275 1.059 1.292v.311H52.75v-.31c.864-.018 1.063-.272 1.063-1.28v-7.12h-1.444c-1.058 0-1.453.454-1.625 1.872h-.478l.128-2.623h8.459zm7.289-2.468l.057.65.142 1.221.03.227-.455.04a2.16 2.16 0 0 0-.479-1.147c-.438-.497-.792-.595-2.134-.595h-.988v3.827h.961c1.258 0 1.51-.17 1.568-1.134v-.186h.465v.142l-.027.627v1.441l.027.694v.24h-.465c0-1.08-.267-1.293-1.639-1.293h-.917v2.894c0 .964.226 1.164 1.312 1.164 1.935 0 2.559-.427 2.883-1.987l.451.085-.182 2.128v.284l-2.515-.016-2.417.016h-1.187l-.974.028v-.339c.85-.017 1.062-.257 1.062-1.262v-6.26c0-1.015-.213-1.262-1.062-1.28v-.338h6.469zm2.347-.128h1.215l1.823-.04 1.103-.031c1.71 0 2.825.978 2.825 2.44a2.4 2.4 0 0 1-1.2 2.115q-.352.181-.735.284c.21.188.378.419.492.677l.762 1.445c.836 1.56.978 1.76 1.349 2.03.141.107.305.18.479.213q.216.048.438.044v.339a5.5 5.5 0 0 1-.904.07 2.85 2.85 0 0 1-2.12-.808c-.422-.44-.82-1.12-1.582-2.707-.38-.795-.674-1.015-1.412-1.015h-.085v2.554c0 1.246.156 1.432 1.228 1.486v.4h-3.871v-.34c.863 0 1.062-.253 1.062-1.261v-6.294c0-1.016-.199-1.263-1.062-1.276v-.338zm2.445 4.565h.408a3.99 3.99 0 0 0 1.443-.196c.58-.244.917-.84.917-1.631a2.46 2.46 0 0 0-.917-1.987c-.411-.284-.721-.368-1.456-.368h-.395zm6.583-4.579h3.655a4.2 4.2 0 0 1 1.55.196 2.25 2.25 0 0 1 1.598 2.115c0 1.174-.947 2.03-2.387 2.196.44.027.874.123 1.285.284a2.31 2.31 0 0 1 1.51 2.213c0 1.6-1.2 2.467-3.371 2.467h-4.093v-.338c.863 0 1.072-.254 1.072-1.263v-6.27c0-1.015-.209-1.262-1.072-1.276v-.338q.126.015.253.013zm2.404 4.399q.31.035.62.027c1.012 0 1.4-.142 1.78-.653a2.177 2.177 0 0 0-1.213-3.303 4 4 0 0 0-.736-.058h-.451zm0 3.428c0 1.015.195 1.248 1.045 1.248 1.311 0 1.976-.595 1.976-1.8s-.749-2.196-1.75-2.369a5 5 0 0 0-.82-.07 4 4 0 0 0-.451.03zm14.646-6.082l-.03 3.333c0 1.56-.098 2.054-.479 2.747-.65 1.209-1.878 1.845-3.52 1.845-2.002 0-3.557-1.05-3.968-2.707a6.4 6.4 0 0 1-.169-1.692v-3.48c0-1.106-.114-1.275-.99-1.447a1 1 0 0 1-.156-.027v-.339h.27l1.2.04h1.302l.788-.026h.338v.338c-.907.098-1.09.339-1.09 1.388v3.87c0 1.178.098 1.676.412 2.227a2.82 2.82 0 0 0 2.542 1.391 2.86 2.86 0 0 0 1.936-.663 2.88 2.88 0 0 0 1-1.79q.067-.459.058-.92v-.356l-.084-3.63c-.027-1.206-.155-1.388-1.076-1.49h-.168v-.338h.155l.607.027h2.262v.338c-.86 0-1.126.325-1.14 1.36zm1.807-1.731h1.213l1.824-.04 1.103-.031c1.709 0 2.825.978 2.825 2.44a2.37 2.37 0 0 1-1.203 2.098 3.6 3.6 0 0 1-.732.284c.21.188.378.419.492.677l.762 1.445c.836 1.56.978 1.76 1.349 2.03.141.107.305.18.478.213q.217.048.439.044v.339a5.5 5.5 0 0 1-.904.07 2.85 2.85 0 0 1-2.121-.822c-.421-.44-.819-1.12-1.581-2.707-.381-.795-.674-1.015-1.412-1.015h-.085v2.555c0 1.245.155 1.431 1.228 1.486v.399h-3.871v-.339c.863 0 1.062-.253 1.062-1.262V72.88c0-1.016-.199-1.263-1.062-1.276v-.338zm2.444 4.565h.408a3.99 3.99 0 0 0 1.443-.196c.576-.244.917-.84.917-1.631a2.45 2.45 0 0 0-.226-1.102 2.44 2.44 0 0 0-.691-.885c-.411-.284-.722-.368-1.457-.368h-.394zm14.546-4.229c-.675.072-.931.298-1.396 1.192l-2.387 4.581v1.716c0 1.063.182 1.262 1.24 1.316v.339h-4.136v-.339c1.102 0 1.298-.21 1.298-1.333v-1.692l-1.919-4.003c-.735-1.53-.917-1.692-1.807-1.787v-.311h4.279v.338c-.833.071-1.046.2-1.046.64a1.59 1.59 0 0 0 .156.653l1.753 3.722 1.753-3.658c.111-.208.173-.44.182-.677 0-.409-.253-.609-.846-.65v-.338h2.876z"/></svg>