<svg xmlns="http://www.w3.org/2000/svg" height="512" viewBox="0 0 62 62" width="512" xmlns:v="https://vecta.io/nano"><path d="m53 5v4.25c-.64-.16-1.31-.25-2-.25s-1.36.09-2 .25v-4.25h2z" fill="#aab2bd"/><path d="m53 9.25c3.45.89 6 4.02 6 7.75v.67l-4 1.33-4.01-4-3.99 4-4-1.33v-.67c0-3.73 2.55-6.86 6-7.75.64-.16 1.31-.25 2-.25s1.36.09 2 .25z" fill="#ccd1d9"/><path d="M61 43v18H41v-8zm0-16v10L41 47V37zm0-10v4L41 31V17l2 .67L47 19l3.99-4L55 19l4-1.33z" fill="#69d6f4"/><path d="M61 37v6L41 53v-6zm0-16v6L41 37v-6z" fill="#4fc1e9"/><path d="M21 55v6H1v-6h2 4 8 4z" fill="#dfb28b"/><path d="M19 1v4h-2H5 3V1z" fill="#ccd1d9"/><path d="M17 5v8h-4V9H9v4H5V5z" fill="#e6e9ed"/><path d="M9 9h4v4H9zm24 4v6h-4v-6h2z" fill="#aab2bd"/><path d="M35 19v9.6L27 27v-8h2 4z" fill="#ccd1d9"/><path d="M37 51v10H25c9 0 6-10 12-10zm0-9.01c-6 0-3 10-12 10V27h2l8 1.6 2 .4z" fill="#e6e9ed"/><path d="M37 41.99V51c-6 0-3 10-12 10v-9.01c9 0 6-10 12-10z" fill="#ccd1d9"/><g fill="#69d6f4"><use href="#B"/><use href="#B" y="8"/></g><path d="M3 13h16v42H3z" fill="#f0d0b4"/><path d="M7 19h8v36H7z" fill="#69d6f4"/><path d="M59.964 16.291c-.282-3.599-2.688-6.602-5.964-7.766V4h-2V0h-2v4h-2v4.525c-3.276 1.164-5.682 4.167-5.964 7.766L40 15.613V60h-2V28.18l-2-.4V18h-2v-6h-2V8h-2v4h-2v6h-2v8.012L24 26v34h-2v-6h-2V12h-2V6h2V0H2v6h2v6H2v42H0v8h62V15.613zM4 2h14v2H4zm2 4h10v6h-2V8H8v4H6zm6 6h-2v-2h2zm-8 2h14v40h-2V18H6v36H4zm10 16h-2v-4h2zm0 2v4h-2v-4zm0 6v4h-2v-4zm0 6v4h-2v-4zm0-20h-2v-4h2zm-4 0H8v-4h2zm-2 2h2v4H8zm0 6h2v4H8zm0 6h2v4H8zm0 6h2v4H8zm0 6h2v4H8zm4 0h2v4h-2zm8 10H2v-4h18zm6-.056v-6.991c4.799-.396 6.219-3.66 7.374-6.316.813-1.87 1.415-3.073 2.626-3.479v6.934c-2.586.464-3.578 2.728-4.46 4.755-1.056 2.429-2.067 4.73-5.54 5.097zM32 43h-2v-1a1 1 0 1 1 2 0zm-2-29h2v4h-2zm4 6v7.38l-6-1.2V20zm-7.099 8L36 29.82v11.263c-.807.145-1.461.462-2.002.897C33.987 40.335 32.647 39 31 39c-1.654 0-3 1.346-3 3v3h3.911l-.371.838c-1.057 2.43-2.067 4.731-5.54 5.097V28zm6.473 27.644c.813-1.87 1.415-3.073 2.626-3.479V60h-5.299c1.316-1.251 2.037-2.894 2.673-4.356zM60 42.382l-18 9v-3.764l18-9zm-6 5.236V60h-6v-9.382zm-12-10l4-2v7.764l-4 2zm6 4.764v-7.764l6-3v7.764zm12-6l-4 2v-7.764l4-2zm0-10l-18 9v-3.764l18-9zm-12-6.968l2.995-2.999 3.005 3v3.967l-6 3zm12-1.027v1.995l-4 2v-2.661zM50 6h2v2.059C51.671 8.022 51.338 8 51 8s-.671.022-1 .059zm1 4a7.01 7.01 0 0 1 6.997 6.947l-2.728.909-4.276-4.27-4.264 4.27-2.727-.909A7.01 7.01 0 0 1 51 10zm-5 9.721v7.661l-4 2V18.387zm-4 33.897l4-2V60h-4zM56 60V46.618l4-2V60zM34 34c0-1.654-1.346-3-3-3s-3 1.346-3 3v3h6zm-2 1h-2v-1a1 1 0 1 1 2 0z"/><defs ><path id="B" d="m33 34v2h-4v-2c0-1.1.9-2 2-2 .55 0 1.05.22 1.41.59.37.36.59.86.59 1.41z"/></defs></svg>