<svg xmlns="http://www.w3.org/2000/svg" viewBox="0 0 1440 720" xmlns:v="https://vecta.io/nano"><style><![CDATA[.H{opacity:.4}.I{opacity:.1}.J{fill:#fd6c6b}.K{fill:#fd8585}.L{fill:#fd1d1a}]]></style><defs><linearGradient id="A" x1="718.58" y1="-46.35" x2="718.58" y2="761.43" gradientUnits="userSpaceOnUse"><stop offset="0" stop-color="#ff4e4e"/><stop offset=".02" stop-color="#ff5151"/><stop offset=".17" stop-color="#ff7272"/><stop offset=".29" stop-color="#ff8585"/><stop offset=".38" stop-color="#ff8d8d"/><stop offset=".41" stop-color="#ff8d8d" stop-opacity=".92"/><stop offset=".63" stop-color="#ff8d8d" stop-opacity=".48"/><stop offset=".77" stop-color="#ff8d8d" stop-opacity=".21"/><stop offset=".84" stop-color="#ff8d8d" stop-opacity=".1"/></linearGradient><path id="B" d="M588.5 623.45a1.83 1.83 0 0 0 1.82-1.82 1.83 1.83 0 0 0-1.82-1.82 1.82 1.82 0 1 0 0 3.64z"/><path id="C" d="M1160.13 547.54h1.13v162.13h-1.13z"/><path id="D" d="M1166.31 547.54h1.12v162.13h-1.12z"/><path id="E" d="M1155.61 553.3h85.78v1.82h-85.78z"/><path id="F" d="M117.53,708.27c-.41-8.6-7.49-15.45-16.19-15.45s-15.78,6.85-16.19,15.45h32.39Z"/><path id="G" d="M1133.78 701.28c-1.9 0-3.62.75-4.89 1.98-1.27-1.23-2.99-1.98-4.89-1.98s-3.57.73-4.83 1.92c-1.26-1.19-2.96-1.92-4.82-1.92a7.05 7.05 0 0 0-7.04 6.71h33.51c-.18-3.73-3.26-6.71-7.04-6.71z"/><path id="H" d="M1251.06,703.31c-1.37,0-2.6.54-3.51,1.42-.91-.88-2.15-1.42-3.51-1.42s-2.56.52-3.46,1.38c-.91-.85-2.13-1.38-3.47-1.38-2.72,0-4.92,2.14-5.05,4.81h24.05c-.13-2.68-2.34-4.81-5.05-4.81Z"/></defs><path d="M-2.85 0H1440v719.36H-2.85z" fill="url(#A)"/><g class="K"><path d="M193.23 509.19l-14.02 9.44v6.29h-46.67v-6.29l-14.02-9.44-14.02 9.44v188.28h7.7 20.34 46.67 8.31 19.73V518.63l-14.02-9.44zm732.89 38.05v4.97h-44.66v101.93h83.99v-4.98-96.95-4.97h-39.33zm136.76-64.62h62.54v226.61h-62.54zm-81.43 34.15h62.54v193.44h-62.54zm243.51 98.03h-.8-.97v-1.4-1.84-2.87-1.84-2.87-1.84-2.86-1.84-2.87-1.84-2.87-1.84-2.86-1.84-2.87-1.84-2.87-1.84-2.86-1.85-2.86-1.84-2.87-1.84-2.86-1.84-2.87-1.84-1.47h-1.97v-83.31h-5.02V452.2h.04v-.95h.39v-1.13h-7.98v-1.15h0v-.98h0v-1.37h0v-.98h0v-1.38h0v-.98h0v-1.37h0v-.98h0v-1.38h0v-.97h0v-1.67h.44v-1.13h-4.24v-.93h.01v-.98h-.01v-1.38h.01v-.98h-.01v-1.37h.01v-.98h-.01v-.56-.81h.01v-.37h.27v-1.13h-6.52v-.01h.01v-.65h-.01v-1.37h.01v-.98h-.01v-1.38h.01v-.98h-.01v-1.37h.01v-.98h-.01v-1.37h.01v-.98h-.01v-1.38h.01v-.98h-.01v-.39h.19v-1.13h-12.43v1.13h.19v.39.79.19 1.38.98 1.37.98 1.37.98 1.38.98 1.37.65.01h-6.51v1.13h.27v.37.81.56.98 1.37.98 1.38.98.95h-4.29v1.13h.48v1.18h.01v.47.97 1.38.98 1.37.98 1.38.98 1.37.98 1.15h-8.28v1.13h.71v.71.47.27.84 2.7 1.16.98.19 2.7.84.32 1.84.19.89h-1.52-.92-1.65-.92v83.55h-1.95v65.9h-.99-.78-.13v76.29.15 19.06h7.41 8.97.93 2 4.73 2.24 1.04 2.33 5.69 2.33 1.05 2.12 4.73 2.12 1.02 8.97 7.31v-19.06-.15-76.29h-.12z"/><path d="M1233.01 490.53h.44.98.45.99.44.51v-3.34h13.45 24.61v3.34h1.78.44 2.18.45.47v1.84.26 2.1.26 2.1.26 2.1.26 2.1.27 2.09.27 2.1.26 2.1.26 2.1.26 2.1.26 2.1.27 2.09.27 2.1.26 2.1.26 2.1.26 2.1.26 2.1.27 1.8h4.06v1.02h1.1v2.67.28h1.7.3 1.32v1.67.27 2.12.28 2.78.27 2.13.27 2.13.27 2.13.27 2.12.28 2.13.27 2.13.27 2.34.27 2.13.27 2.13.27 2.13.27 2.13.27 2.35.27 2.12.28 2.12.22.06.21 2.13.28 2.12.27 2.13.27 2.13.27 2.12.28 1.43h.87.3 2.33.3 2.12v1.7.28 2.13.26 2.13.28 2.12.27 2.13.27 2.13.27 2.13.28 2.12.27 2.13.27 1.91.27 2.13.27 2.13.27 2.13.27 2.13.27 2.12.28 2.12.28 2.13.27 2.12.28 2.34.27 2.13.28 2.12.27 2.13.27 2.13.27 2.13.27 2.13.26 2.13.28 2.12.28 2.12.28 2.12.27 2.13.27 2.13.27 2.56.28 2.13.27 2.12.28 2.12.27 2.13.28 2.12.28 2.12.27 2.13.27 2.13.27 2.13.27 2.13.27 2.12.28 2.13.27 2.13.27 2.12.28 2.13.27 2.13.27 2.12.28 2.12.28.57 1.9h-2.12-.3-2.33-.3-.87-1.46-.29-2.33-.3-2.56-.3-1.24-.93-.27-.02v.03h-2.86-.19-1.49-1.16-.97-.88-.13-.92-.97-.87v.01h-.12v-.01h-.96-.96-.92-.13-2.91-1.63-.06-4.04-.3-3.68-21.21v-.03h-.01v-.13-2.1-.26-2.11-.26-2.1-.26-2.1-.26-2.1-.26-2.1-.26-2.1-.27-2.09-.26-2.11-.26-2.1-.26-2.1-.26-2.1-.27-2.09-.26-2.11-.25-2.1-.27-2.09-.27-2.09-.27-1.31-.26-2.1-.27-2.1-.26-2.1-.26-2.1-.08-.18-2.1-.26-2.1-.26-2.1-.27-2.1-.26-2.09-.26-2.11-.26-2.1-.26-2.1-.27-2.09-.27-2.09-.27-2.09-.27-2.09-.27-2.1-.26-2.1-.26-2.1-.26-2.11-.26-2.09-.27-2.1-.26-2.1-.26-2.1-.26-2.1-.26-2.1-.26-2.1-.27-2.09-.27-2.1-.26-2.1-.26-2.1-.26-2.1-.26-2.1-.26-2.1-.27-2.1-.26-2.1-.26-2.1-.26-2.1-.26-.82-1.28-.27-2.09-.27-2.1-.25-2.11-.26-2.1-.26-2.1-.26-2.1-.26-2.1-.27-2.09-.26-2.11-.26-2.1-.26-2.1-.26-2.1-.26-2.1-.26-2.1-.27-2.1-.26-2.1-.26-2.1-.26-2.1-.26-2.1-.26-2.1-.26-2.1-.27-2.1-.26-2.1-.26-2.1-.26-2.1-.26-2.1-.27-2.09-.27-2.1-.26-2.1-.26-2.1-.26-2.1-.26-2.1-.27-2.09-.27-2.1-.26-2.1-.26-2.1-.26-2.1-.26-1.83-.01h1.4z"/><path d="M847.37 455.41v-.02h-.29v.02h-.78v-.02h-.54v.02h-.74v-.02h-.27v.02h-2.47-.28-2.46v-.02h-.28v.02h-.87v-.02-3.02h-2.34v-.17h.45v-.5h-1.06v.5h.45v.17h-17.27-.26v-1.52h-1.94v1.52h-.49v-.61h-2.24v.61h-1.27v-.61h-2.19v.61h-4v3.02.02h-1.13v-.02h-.27v.02h-.46-.58-1.03v-.02h-.27v.02h-.02-.99-.53-.53v-.02h-.29v.02h-.17-1.09v-.02h-.55v.02h-.26v2.9.5 1.14.24 1.42.5 1.28.25 1.94.49.78.25 1.77.51.93.24 2.29.49 1.12.24 1.45.5 1.25.26 1.95.49.75.26 1.8.49.91.26 1.64.5 1.05.25 1.5.49 1.21.26 2 .5.7.24 1.85.49.86.27 2.35.5 1.04.24 1.53.48 1.2.24 2.04.48.68.26 1.87.5.83.25 1.73.5.98.24 1.57.5 1.14.25 2.08.48.64.25 1.92.5.77.26 2.42.51.97.24 1.58.51 1.11.26 2.1.5 1.29.25 1.26.49.76.25 1.14.49.89.24 1.67.51 1.03.25 2.17.51 1.2.27 1.33.48.69.24 2.55.49.87.24 1.69.5 1.02.25 2.2.49.51.25 2.04.51.66.24 2.56.5.83.26 1.71.51.98.24 2.23.5.48.25 2.07.49 1.33.25 1.89.5.81.25 1.75.48.98.24 2.25.49 1.16.26 1.39.5.61.25 1.94.5.76.25 1.79.5.92.25 2.29.49 1.12.24 1.47.47 1.26.25 1.96.5.75.24 1.81.51.89.24 2.33.5 1.07.24 1.49.49 1.24.25 1.31.5.69.25 1.88.48.85.24 2.37.51 1.03.23 1.56.47 1.17.27 2.02.51.66.25 1.89.49.83.25 2.4.49 1 .25 1.54.51 1.16.25V657v.5 1.3.25 1.26.48 1.47.24 1.76.49.97.23 1.62.49 1.11.24 2.12.49.6.25 1.96.48.75.25 2.47.5.93.24 1.63.49 1.1.24 1.47.5 1.24.24 1.32.5.71.22 2.53.5.89.25 1.67.48 1.05.25 2.18.5 1.21.25 1.34.49 1.37.24 4.12h5.73.58 5.61.14 12.38.11 25.15v-5.73-.49-2.8-.5-3.48-.48-2.81-.5-194.47-42.76h-.39z"/><path d="M649.89 700.92v-5.24h-4.24v-1.16h-.32v-4.9h-.29v4.9h-.33v1.16H637v-.3-.68-.65-1.24-.69-.65-1.26-.68-.9-1.24-.69-.65-1.25-.68-.64-1.26-.69-.64-1.26-.67-.66-1.25-.68-.65-1.25-.69-.64-1.25-.69-.64-1.26-.68-.68-1.25-.7-.63-1.26-.69-.64-1.25-.69-.65-1.24-.69-.65-1.25-.69-.64-1.25-.68-.65-1.25-.69-.64-1.25-.69-.74-1.26-.68-.65-1.25-.68-.65-1.26-.68-.65-1.25-.68-.65-1.25-.68-.65-1.25-.69-.65-1.24-.69-.65-1.25-.68-.65-1.25-.68-.66-1.24-.69-.65-1.25-.68-.64-1.26-.68-.65-1.25-.69-.65-1.25-.68-.65-1.24-.7-.63-1.26-.68-.65-1.25-.69-.64-1.26-.68-.65-1.25-.69-.65-1.24-.69-.64-1.25-.69-.65-1.25-.68-.65-1.25-.69-.65-1.25-.68-.64-1.26-.68-.65-1.26-.67-.66-1.25-.68-.65-1.25-.68-.65-1.25-.69-.64-1.25-.69-.65-1.25-.69-.64-1.25-.69-.64-1.25-.69-.65-1.25-.68-.65-1.25-.68-.65-1.25-.69-.65-1.24-.69-.65-1.25-.69-.64-1.25-.69-.64-1.26-.68-.65-1.25-.68-.65-1.25-.69-.64-1.25-.69-.64-1.25-.69-.65-1.25-.69-.64-1.26-.68-.64-1.25-.69-.65-1.25-.69-.64-1.25-.69-.64-1.26-.68-.65-1.25-.68-.65-1.25-.69-.64-1.25-.69-.65-1.25-.68-.65-1.25-.68-.65-1.25-.69-.65-1.25-.68-.65-1.25-.68-.65-1.25-.69-.65-1.24-.69-.65-1.24-.69-.65-1.25-.69-.64-1.26-.68-.65-1.25-.68-.65-1.25-.69-.64-1.26-.68-.64-1.26-.68-.65-1.25-.69-.64-1.25-.69-.65-1.25-.68-.65-1.25-.69-.64-1.25-.69-.64-1.26-.68-.65-1.25-.68-.65-1.25-.69-.64-1.25-.69-.65-1.25-.68-.65-.77-.48-.69-3.74h-1.3-1.29-.83v-1.79h-1.65v-4.05h-.5v-11.04h-.72v11.04h-.5v4.05h-1.56v-3.51h-.39v-4.71h.09v-.78h-.4v.78h.09v4.71h-.38v3.51h-1.29v-5.88h-.69v-14.5h-.98v14.5h-.69v5.88h-1.14v-2.15h-5.97v-6.3h-.39v-4.71h.09v-.79h-.4v.79h.09v4.71h-.39v6.3h-.89v-20.93h-.92v-2.14h.92v-1.13h-.92v-2.14h.92v-1.12h-.92v-2.15h.92v-1.12h-.92v-2.15h.92v-1.12h-.92v-2.14h.92v-1.12h-.92v-2.15h.92v-1.12h-.92v-2.15h.92v-1.12h-.92v-2.14h.92v-1.13h-.92v-2.14h.92v-1.12h-.92v-11.67h-2.36v11.67h-.92v1.12h.92v2.14h-.92v1.13h.92v2.14h-.92v1.12h.92v2.15h-.92v1.12h.92v2.15h-.92v1.12h.92v2.14h-.92v1.12h.92v2.15h-.92v1.12h.92v2.15h-.92v1.12h.92v2.14h-.92v1.13h.92v2.14h-.92v20.93h-3.86v-5.2h-.5v-11.04h-.71v11.04h-.51v5.2h-1.02v2.15h-.44v-5.24h-.46v-5.64h.11v-.94h-.48v.94h.11v5.64h-.47v5.24h-1.5v-4.05h-.5v-11.04h-.72v11.04h-.5v4.05h-1.56v-3.51h-.39v-4.71h.09v-.78h-.4v.78h.1v4.71h-.39v3.51h-3.48v1.79h-.65-2.6-.23v258.32h-11.46v3.47.11 1.83 3.78h1.14 1.12 2.52.76 5.5 1.6 1.24 1.59 1.24 1.6 1.25 1.59 1.24 1.6 1.24 1.6 1.24 1.6 1.23 1.61 1.24 1.59 1.25 1.59 1.24 1.6 1.24 1.6.26.98 1.1.5.79.45.05 1.55.79.45.05 1.54.79.46.05 1.54.8.44.06 1.54.79.51.44.5 1.39.5.45.5 1.39.5.45.49 1.4.5.44.51.6.79.5.8 1.06v-5.61-.11-3.47h-1.06zm-408.44-80.39v-55.67h10.23v-52.58h10.77v-60.01l10.77-11.18v-6.24h63.52V711h-10.76-10.77-10.23-14-17.76-10.77-10.77-10.23-14v-90.47h14zm321.2 17.83V471.33l-11.98-55.03h-8.55v54.05h-1.6v-13.21h-20.77v13.21h-1.59V416.3h-8.56l-11.98 55.03v167.03h-2.14v70.93h2.14 10.71 9.83 23.96 9.82 10.71 10.7v-70.93h-10.7zm418-107.53h-2.09v-7.65h-42.27v-3.1h-1.49v-2.76h-.88v2.76h-.4v-6.97h-.83v6.97h-1.14v3.1h-2.21v7.65h-2.09v8.98h2.09v71.22h-3.76v-4.81h-35.03v4.81h-4.65v99.24h43.44 5.79 43.43V539.81h2.09v-8.98zm374.42 52.65v-3.78h-11.63v-5.56h-7.01v-2.25-1.08-3.58h-2.89v-20.21h-.99v-.11h.03v-.62h-.03v-.86h.03v-.62h-.03v-.86h.03v-.62h-.8v-.1h-.61v.1h-5.66v-.1h-.62v.1h-4.92v-.1h-.63v.1h-1.58v.62h.05v.86h-.05v.62h.05v.86h-.05v.62h.05v.11h-.95v20.21h-2.89v3.58 1.08 2.25h-7v5.56h-11.65v3.78h-2.98v86.45 9.86 13.23 1.11 15.08h3.67v.01h1.18v-.01h.98v.01h1.18v-.01h2.63v.01h1.18v-.01h.97v.01h1.19v-.01h3.11v.01h1.18v-.01h.98v.01h1.18v-.01h11.76v.01h1.18v-.01h.98v.01h1.18v-.01h11.57v.01h1.18v-.01h.99v.01h1.17v-.01h3.38v.01h1.18v-.01h.98v.01h1.18v-.01h2.62v.01h1.18v-.01h.98v.01h1.19v-.01h3.59v-15.08-1.11-13.23-9.86-86.45h-2.99zm-147.59-54.12v-6.47h-74.93v6.47h-7.14v88.84h89.21v-88.84h-7.14zm-395.05-43.8v-4.75h-32.75v-9h-20.34v9h-4.6v4.75h-2.68v224.68h63.06V485.56h-2.69z"/><path d="M238.41 602.25v4.98h-44.67v101.92h84v-4.97-96.95-4.98h-39.33zm121.08 71.5h.72 1.93.72 1.5.71v-.61-1.92-.94-.61-1.92-.93-.62-1.91-.94-.62-1.92-.94-.61-1.91-.94-.61-1.92-.94-.61-1.92-.94-.61-1.92-.94-.61-1.92-.94-.61V640v-.93-.62-1.91-.95-.61-1.91-.94-.61-1.92-.94-.61-1.92-.94-.62-1.91-.94-.61-1.91-.95-.61-1.92-.93-.62-1.91-.95-.61-1.91-.95-.61-1.91-.94-.61-1.92-.94-.61-1.92-.94-.61-1.92-.93-.62-1.91-.94-.61-1.92-.95-.61-1.92-.93-.61-1.92-.94-.61-1.92-.94-.61-1.92-.94-.61-1.92-.93-.63-1.91-.94-.61-1.91-.94-.62-1.92-.93-.62-1.91-.94-.62-1.91-.94-.61-1.92-.94-.61-1.92-.94-.61-1.91-.95-.61-1.92-.94-.61-1.92-.93-.62-1.91-.94-.62-1.91-.94-.61-1.92-.93-.62-1.92-.94-.61-1.92-.93-.62-1.91-.95-.61-1.91-.95-.61-1.91-.94-.62-1.91-.94-.61-1.92-.94-.61-1.91-.95-.61-1.91-.94-.62-1.91-.94-.62-3.14h.31v-.01h.34v.01h.55v-.01h.33v.01h.55v-.01h.34v.01h.55v-.01h.33v.01h1.44v-.01h.33v.01h1.44v-.01h.33v.01h.72v-.56-.43-.02-.25-.62-.99-.43-1.7-.62-.38-.33 2.41-1.89-.43-.76-.62-.5-.43-.14l.63-.09v-.08h.33v.02l.64-.09v-.03h.17l1.6-.24v-.03h.17l3.37-.52v-.02h.17l1.6-.25v-.02h.17l1.6-.25v-.01h.08l3.37-.51v-.06h.33 0l3.2-.48v-.06h.33 0l3.21-.48v-.03h.18l1.59-.24v-.03h.18l1.59-.24v-.04h.18l1.59-.23v-.03h.18l.7-.11v-.06h.34v.01l.55-.09v-.05h.33 0l.55-.08v-.2h.34v.15l.55-.09v-.06h.33v.01l.07-.01v4.76.43.5.62.76.43 1.89-2.41.33.38.62 1.7.43.99.62.25.02.43.56h1.03v-.01h.33v.01h1.44v-.01h.33v.01h1.44v-.01h.33v.01h.55v-.01h.33v.01h.56v-.01h.33v.01h.55v-.01h.33v.01h.01v3.14.62.94 1.91.62.94 1.91.61.95 1.91.61.94 1.92.61.94 1.91.62.94 1.91.61.95 1.91.61.95 1.91.62.93 1.92.61.94 1.92.62.93 1.92.61.94 1.91.62.94 1.91.62.93 1.92.61.94 1.92.61.95 1.91.61.94 1.92.61.94 1.92.61.94 1.91.62.94 1.91.62.93 1.92.62.94 1.91.61.94 1.91.63.93 1.92.61.94 1.92.61.94 1.92.61.94 1.92.61.93 1.92.61.95 1.92.61.94 1.91.62.93 1.92.61.94 1.92.61.94 1.92.61.94 1.91.61.95 1.91.61.95 1.91.62.93 1.92.61.95 1.91.61.94 1.91.62.94 1.92.61.94 1.92.61.94 1.91.61.95 1.91.62.93 1.92.61.94 1.92.61.94 1.92.61.94 1.92.61.94 1.92.61.94 1.91.61.94 1.92.62.94 1.91.62.93 1.92.61.94 1.92.61.94 1.92.61.94 1.91.62.94 1.92.61.93 1.92.62.94 1.91.61.94 1.92.61.94 1.92.61.94 1.92.62.46 1.29 1.09.62.94 3.1h-19.38v.04h-.33v-.04h-.01-2.95-2.65v.04h-.33v-.04h-19.69-.71-1.5-.72-1.93-.72-1.94-.72-1.93-.72-1.71v-.03-3.07-.94-.62-1.91-.93-.62-1.92-.94-.61-1.92-.94-.61-.02-1.9-.94-.61-1.91-.94-.62-1.92-.93-.61-1.92-.94-.62-1.91-.9-.04-.61-2.86h7.02zm221.85-130.79v-6.62h0l-20.23-18.35h-7.09l-20.23 18.35v6.62h-4.53v167.9h56.61v-167.9h-4.53zM75.08 588.01v-.96l18.57-10.5 18.57 10.5v.96h3.79v.92h8.17v121.19h-8.17-36.55-8.17V588.01h3.79zm577.24-102.39v-4.75h-34.74v4.75h-1.61V710.3h37.98V485.62h-1.63zm360.29 58.83h27.13v153.22h-27.13z"/></g><g class="J"><path d="M994.91 564.47h49.79v144.35h-49.79zm269.48 56.25v-6.47h-74.94v6.47h-7.13v88.85h89.21v-88.85h-7.14zm-691.46-.41a1.83 1.83 0 0 0 1.82-1.83c0-1.01-.81-1.82-1.82-1.82a1.82 1.82 0 0 0-1.82 1.82c0 1 .82 1.83 1.82 1.83z"/><use href="#B"/><path d="M595.95 627.42a1.82 1.82 0 1 0-1.82-1.82 1.83 1.83 0 0 0 1.82 1.82zm5.53 4.82a1.83 1.83 0 0 0 1.82-1.82 1.83 1.83 0 0 0-1.82-1.82 1.83 1.83 0 0 0-1.82 1.82 1.83 1.83 0 0 0 1.82 1.82zm5.09 6.23a1.82 1.82 0 0 0 1.82-1.82c0-1.01-.81-1.82-1.82-1.82s-1.82.81-1.82 1.82.81 1.82 1.82 1.82zm3.81 7.78a1.83 1.83 0 0 0 1.82-1.82 1.82 1.82 0 1 0-3.64 0 1.83 1.83 0 0 0 1.82 1.82zm.64 6.66a1.83 1.83 0 0 0 1.82 1.82 1.83 1.83 0 0 0 1.82-1.82 1.83 1.83 0 0 0-1.82-1.82 1.83 1.83 0 0 0-1.82 1.82zm1.51 7.86c-.96 0-1.72.75-1.79 1.69l.18-3.7c0-10.25-3.99-19.88-11.24-27.13-5.34-5.34-11.98-8.89-19.21-10.4.99-.01 1.8-.82 1.8-1.82a1.83 1.83 0 0 0-1.82-1.82 1.83 1.83 0 0 0-1.82 1.82c0 .75.45 1.39 1.1 1.67-2.35-.44-4.75-.68-7.18-.68-10.25 0-19.88 3.99-27.12 11.23-7.25 7.25-11.24 16.88-11.24 27.13 0 .97.07 1.94.14 2.91-.31-.24-.67-.4-1.09-.4a1.83 1.83 0 0 0-1.82 1.82 1.83 1.83 0 0 0 1.82 1.82 1.79 1.79 0 0 0 1.38-.67 38.18 38.18 0 0 0 1.77 7.25c-.26-.15-.56-.26-.88-.26a1.83 1.83 0 0 0-1.82 1.82 1.82 1.82 0 0 0 1.82 1.82c.78 0 1.43-.5 1.69-1.19 1.9 4.5 4.67 8.65 8.23 12.21 7.06 7.07 16.41 11.01 26.37 11.2v9.47h1.97v-9.49c5.87-.18 11.52-1.65 16.59-4.32-.58.3-.99.89-.99 1.59a1.83 1.83 0 0 0 1.82 1.82 1.83 1.83 0 0 0 1.82-1.82 1.83 1.83 0 0 0-1.82-1.82c-.22 0-.42.05-.62.12 3.31-1.76 6.38-4.03 9.11-6.76 4.03-4.03 7.01-8.81 8.9-14.02a1.77 1.77 0 0 0-.14.69 1.82 1.82 0 0 0 1.82 1.82 1.83 1.83 0 0 0 1.82-1.82 1.83 1.83 0 0 0-1.82-1.82c-.75 0-1.39.45-1.67 1.1 1.07-2.95 1.81-6.02 2.13-9.19.03.98.82 1.77 1.81 1.77s1.82-.82 1.82-1.82-.81-1.81-1.82-1.81zm-36.59.11l-1.49-1.1s.03-.04.04-.06l32.69 12.86c-.9 2.24-2.01 4.38-3.31 6.39l-27.92-18.09zm27.63 18.55c-.27.41-.56.8-.84 1.2l-19.63-14.47 20.47 13.27zm-32.52-17.77l-13.88 31.05c-1.99-.91-3.89-1.97-5.68-3.2l19.55-27.85zm-19.99 27.54c-.52-.37-1.03-.75-1.53-1.14l18.45-22.95-16.92 24.09zm-8.7-8.6c-1.22-1.68-2.3-3.47-3.23-5.34l31.04-15.21.16-.07-.86.72-27.1 19.91zm20.24-14.21l-19.02 15.82-.92-1.17 19.94-14.65zm-27.13-11.58c.17-1.61.45-3.18.82-4.72l32.63 7.83.38.12-33.82-3.23zm29.15 3.32l-29.32-.89c.03-.64.07-1.27.13-1.9l29.2 2.79zm-11.19-31.38a37.95 37.95 0 0 1 6.53-3.1l11.33 31.44.54 1.84s-.02.02-.04.02l-18.36-30.21zm14.71 25.22l-16.75-23.91c.52-.36 1.05-.71 1.58-1.04l15.16 24.95zM586.06 624l-12.41 31.26 6.23-33.07c2.13.43 4.2 1.04 6.18 1.81zm-10.59 34.06l-.15.02.96-.42 31.35-11.58a36.05 36.05 0 0 1 1.6 5.98l-33.76 6zm33.85-5.48c.08.48.15.97.21 1.47L584.52 657l24.8-4.42zm-24.88 1.5l22.45-9.87a38.4 38.4 0 0 1 .54 1.36l-22.99 8.5zm-8.3 3.06l-.75.28 29.46-17.27c.67 1.15 1.28 2.35 1.82 3.58l-30.53 13.42zm2.91-2.48l24.4-16.78c.4.59.78 1.19 1.14 1.81l-25.54 14.97zm-3.83 1.98l2.09-2.24 22.56-20.98c1.18 1.27 2.26 2.62 3.26 4.04l-27.91 19.19zm-.15-.88l17.59-28.38c1.89 1.22 3.67 2.6 5.31 4.13l-21.03 22.52-1.87 1.73zm-1.37 1.2l15.08-31.78a37.09 37.09 0 0 1 3.44 1.9l-18.52 29.88zm2.14-5.77l10.72-26.99c.58.24 1.16.49 1.73.75l-12.45 26.24zm-2.01.22l4.25-29.54c.43.06.85.14 1.27.22l-5.52 29.32zm-1.68 4.35v.17l-.36-1.02-9.42-32.03a38.03 38.03 0 0 1 6.08-1.2l3.7 34.07zm-3.16-34.13c.49-.05.98-.08 1.47-.11l1.24 25.17-2.72-25.06zm-.21 24.91l-8.31-23.06a32.62 32.62 0 0 1 1.4-.45l6.91 23.52zm1.34 10.52l-29.57-17.43a37.54 37.54 0 0 1 3.87-5.33l25.7 22.75zm-25.35-23.16l.88-.95 21.55 20.82-22.44-19.87zm17.31 19.04l-22.52-11.55c.23-.44.47-.87.72-1.3l21.8 12.84zm7.85 4.63l.14.08-1.07-.25-32.05-9.78c.62-1.99 1.42-3.91 2.36-5.75l30.62 15.69zm-9.53-2.24l-23.99-5.76c.12-.48.26-.95.4-1.43l23.59 7.19zm9.49 4.25l-31.83 13.33a36.76 36.76 0 0 1-1.96-6.32l33.79-7.01zm-33.91 6.49l-.23-1.28 29.8-4.86-29.57 6.15zm25.79-2.51l-22.89 11.22c-.22-.45-.42-.91-.62-1.37l23.51-9.85zm8.22 1.78l-11.12 28.09c-.41-.16-.81-.32-1.21-.5l12.33-27.59zm1.81-3.12v.81l-6.06 32.38a36.96 36.96 0 0 1-6.38-1.79l12.44-31.4zm-.85 8.23l-3.21 25.28c-.5-.06-.99-.14-1.49-.22l4.69-25.06zm2.82-3.97v-1.3l6.32 30.1c-1 .21-2.01.36-3.03.48l-3.29-29.28zm2.76 29.35c-.49.05-.98.09-1.48.12l-1.28-24.68 2.76 24.57zm-1.89-29.11l7.8 27.99c-.6.17-1.21.32-1.83.46l-5.97-28.44zm-.71-4.55l15.04 30.06a37.96 37.96 0 0 1-6.01 2.33l-9.03-32.39zm2.16 3.13l14.49 26.08c-.38.21-.76.4-1.14.6l-13.35-26.68zm-1.63-4.04l21.96 26.13c-1.67 1.4-3.47 2.64-5.37 3.73l-16.59-29.86zm6.2 6.55l17.26 18.24-1.1.98-16.16-19.22zm-.36-6.37l27.7 8.87a53.56 53.56 0 0 1-.63 1.78l-27.07-10.65zm-4.2-1.91l33.43 3.96c-.28 2.16-.73 4.27-1.36 6.31l-32.07-10.27zm3.93-.08l29.69 2.22a26.43 26.43 0 0 1-.12 1.28l-29.57-3.5zm-4.4-.86l33.98-4.01a38.46 38.46 0 0 1 .24 4.18c0 .8-.04 1.6-.08 2.39l-34.13-2.55zm23.88-25.57l-17.01 15.82 15.85-16.97 1.15 1.15zm-21.96-11.22l-4.87 33.86-1.69-34.16c.52-.03 1.03-.04 1.55-.04 1.7 0 3.36.12 5 .34zm-26.59 6.57l19.37 27.66-24.3-23.47c1.52-1.53 3.17-2.93 4.93-4.19zm-15.68 29.4l33.89 1.03-33.5 5.46c-.27-1.8-.41-3.64-.41-5.5 0-.33.02-.66.03-.98zm8.65 24.85l25.87-21.52 1.43-1.05a2.57 2.57 0 0 0 .05.08l-22.18 27.58a37.83 37.83 0 0 1-5.18-5.1zm24.35 13.17l3.52-27.74v27.98c-1.19-.03-2.36-.1-3.52-.24zm5.49-14.17l.74 14.37-.74.02v-14.4zm24.54 4.06l-23.5-24.82-.11-.13.92.6 26.79 19.74c-1.24 1.65-2.62 3.19-4.1 4.61zm7.14-5.27a1.83 1.83 0 0 0-1.82 1.82 1.82 1.82 0 0 0 1.82 1.82c1.01 0 1.82-.81 1.82-1.82a1.82 1.82 0 0 0-1.82-1.82zm-6.22 6.71a1.83 1.83 0 0 0-1.82 1.82 1.83 1.83 0 0 0 1.82 1.82 1.83 1.83 0 0 0 1.82-1.82 1.83 1.83 0 0 0-1.82-1.82z"/><path d="M582.3 696.04a1.82 1.82 0 1 0 0 3.64 1.82 1.82 0 1 0 0-3.64zm-41.99-15.13a1.82 1.82 0 1 0 0 3.64 1.83 1.83 0 0 0 1.82-1.82 1.82 1.82 0 0 0-1.82-1.82zm6.22 6.7a1.83 1.83 0 0 0-1.82 1.82 1.82 1.82 0 1 0 3.64 0 1.83 1.83 0 0 0-1.82-1.82zm8.05 5.39a1.83 1.83 0 0 0-1.82 1.82 1.83 1.83 0 0 0 1.82 1.82 1.82 1.82 0 1 0 0-3.64zm8.89 3.53a1.83 1.83 0 0 0-1.82 1.82 1.82 1.82 0 0 0 1.82 1.82c1.01 0 1.82-.81 1.82-1.82s-.81-1.82-1.82-1.82z"/><use href="#B" x="-23.72" y="-2.4"/><path d="M556.6 623.4a1.83 1.83 0 0 0 1.82-1.82 1.83 1.83 0 0 0-1.82-1.82 1.83 1.83 0 0 0-1.82 1.82 1.83 1.83 0 0 0 1.82 1.82zm-7.45 3.98a1.82 1.82 0 0 0 1.82-1.82c0-1.01-.81-1.82-1.82-1.82a1.82 1.82 0 0 0-1.82 1.82 1.83 1.83 0 0 0 1.82 1.82zm-5.53 4.82a1.82 1.82 0 0 0 1.82-1.82 1.83 1.83 0 0 0-1.82-1.82 1.83 1.83 0 0 0-1.82 1.82 1.83 1.83 0 0 0 1.82 1.82zm-5.09 6.23a1.83 1.83 0 0 0 1.82-1.82 1.83 1.83 0 0 0-1.82-1.82 1.82 1.82 0 0 0-1.82 1.82c0 1.01.81 1.82 1.82 1.82zm-3.81 7.78a1.83 1.83 0 0 0 1.82-1.82 1.83 1.83 0 0 0-1.82-1.82 1.83 1.83 0 0 0-1.82 1.82 1.83 1.83 0 0 0 1.82 1.82zm-.64 6.66a1.83 1.83 0 0 0-1.82-1.82 1.83 1.83 0 0 0-1.82 1.82 1.83 1.83 0 0 0 1.82 1.82 1.83 1.83 0 0 0 1.82-1.82zm-170.72 12.67v-92.28h-2.94v-35.13h-2.2v-22.48h-1.76v-12.98h-3.23v-3.17h-1.76v-2.21h-1.13v-1.58h-16.72v1.58h-1.12v2.21h-1.76v3.17h-3.24v12.98h-1.75v22.48h-2.21v35.13h-2.94v92.28h-2.89v42.73h48.55v-42.73h-2.9zM215.24 544.46v-6.48h-52.3v6.48h-4.98v164.03h62.26V544.46h-4.98z"/><path d="M331.12 620.88v-6.47h-74.93v6.47h-7.13v88.85h89.2v-88.85h-7.14zm463.46 85.28v-27.79-.58-1.25-.58-1.26-.57-1.26-.58-1.25-.58-1.26-.57-1.27-.56-1.26-.58-1.26-.57-1.26-.58-1.26-.57-1.26-.57-1.26-.58-1.26-.57-1.26-.58-1.26-.57-1.26-.57-1.26-.57-1.27-.57-1.26-.57-1.27-.57-1.26-.57-1.26-.57-1.26-.58-1.25-.58-1.26-.57-1.27-.57-1.26-.57-1.26-.57-1.27-.57-1.26-.57-1.26-.58-1.26-.57-1.26-.57-1.26-.58-1.25-.58-1.26-.58-1.26-.57-1.26-.57-1.26-.57-1.27-.57-1.26-.57-1.26-.57-1.27-.57-1.26-.57-1.26-.57-1.27-.57-1.26-.57-1.27-.57-1.26-.57-1.26-.57-1.26-.58-1.26-.57-1.26-.58-.2-1.05-.58-1.26-.57-1.27-.57-1.26-.57-1.26-.58-.22h-3.39v-1.03-.57-1.27-.57-1.26-.58-1.25-.58-1.26-.57-1.26-.57-1.27-.57-1.26-.57-1.26-.58-2.21h-5.17-.58-5.06-.59-3.18-.58-5.07-.58-4.73v2.21.58 1.26.57 1.26.57 1.27.57 1.26.57 1.26.58 1.25.58 1.26.57 1.27.57 1.03h-3.45v.22.58 1.26.57 1.26.57 1.27.57 1.26.58 1.25.58 1.26.57 1.26.58 1.26.57 1.26.57 1.26.57 1.27.57 1.26.57 1.27.57 1.26.57 1.26.57 1.27.57 1.26.57 1.26.57 1.27.57 1.26.57 1.26.57 1.26.58 1.26.58 1.25.58 1.26.57 1.26.57 1.26.58 1.26.57 1.26.57 1.27.57 1.26.57 1.26.57 1.27.57 1.26.58 1.25.58 1.26.57 1.26.57 1.26.57 1.27.57 1.26.57 1.27.57 1.26.57 1.26.57 1.26.58 1.26.57 1.26.58 1.26.57 1.26.57 1.26.58 1.26.57 1.26.58 1.26.56 1.27.57 1.26.58 1.25.58 1.26.57 1.26.58 1.25.58 28.72h.03 5.29.47.12.48 4.58.59 4.12.4.18 4.59.59 4.11.48.12.47 5.76.03l-.03-.93z"/><path d="M667.87 704.64v-27.67-3.17h-.71v-16.01h-.93l-.25-.23v-1.4h-1.5v-1.04-1.38-1.3-1.37-1.3-1.38-1.29-1.38-1.3-1.38-1.3-1.37-1.3-1.37-1.3-1.38-1.29-1.38-1.3-1.37-1.3V627v-1.29-1.38-1.3-1.38-1.29-1.38-1.3-1.37-1.3-1.37-1.3-1.38-1.29-1.38-1.3-1.38-1.29-1.38-1.29-1.38-1.3-1.38-1.3-1.37-1.3-1.38-1.29-1.38-1.3-1.37-1.3-1.27-.11-1.29-1.06h0v-.74-1.3-.95-1.3-1.13-1.29-.15-.41-.26-.41-.26-.41-.26-.41-.25-.42-.25-.42-.25-.41-.26-.41-.26-.41-.26-.4-.27-.07-.34-.26-.4-.27-.41-.25-.41-.11h-2.64l-.02-.02v-.41-.26-.41-.26-.41-.23h-1.26v-.6-.13h1.26v-.44-.45h-1.26v-1.16h-2.33v-.54h-3.05v-.56-2.17h-2.34v-.06-.36-.97-.37-.97-.36-.81h-1.4l-3.16-1.8v-.63h.16v-.37h-.16v-.3h.16v-.37h-.16v-.3h.16v-.37h-.16v-.3h.16v-.37h-.16v-.3h.16v-.37h-.16v-.3h.16v-.36h-.16v-.3h.16v-.38h-.16v-.29h.16v-.38h-.16v-.56h-1.06v.56h-.16v.38h.16v.29h-.16v.38h.16v.3h-.16v.36h.16v.3h-.16v.37h.16v.3h-.16v.37h.16v.3h-.16v.37h.16v.3h-.16v.37h.16v.3h-.16v.37h.16v.63l-3.16 1.8h-1.4v.81.36.97.37.97.36.06h-2.34v2.73h-3.04v.54h-2.33v1.16h-1.26v.45.44h1.26v.73h-1.26v.23.41.26.41.26.41.02h-2.66v.1.41.26.41.25.42.25.42.25.41.26.41.26.41.25.42.25.42.26.41.26.41.25.41.26.41.26.41.16 1.29 1.13 1.3.95 1.3.74h0v1.06 1.29 1.38 1.3 1.37 1.3 1.38 1.29 1.38 1.3 1.37 1.3 1.38 1.3 1.38 1.29 1.38 1.29 1.38 1.3 1.38 1.29 1.38 1.3 1.37 1.3 1.37 1.3 1.38 1.29 1.38 1.3 1.38V627v1.38 1.3 1.37 1.3 1.38 1.29 1.38 1.3 1.37 1.3 1.37 1.3 1.38 1.3 1.38 1.29 1.38 1.3 1.37 1.3 1.38 1.04h-1.5v1.63h-1.28v16.01h-1.58v30.84h-.28v2.5h.61v-1.95h1.32v1.95h2.25 1.18 3.79 1.68 3.79 1.69 3.78 1.69 3.79 1.68 3.79 1.69 3.78 1.08 2.25 1.32.6v-2.5h-.28zm88.48-3.03v-.55-1.48-.54-1.47-.54-1.47-.55-1.48-.53-1.48-.54-1.48-.54-1.47-.54-1.48-.54-1.47-.54-1.48-.54-1.47-.54-1.48-.54-1.47-.55-1.47-.54-1.47-.55-1.47-.54-1.48-.54-1.47-.55-1.47-.54-1.48-.54-1.48-.53-1.48-.54-1.47-.55-1.47-.54-1.47-.55-1.47-.54-1.47-.55-1.47-.54-1.48-.54-1.48-.54-1.47-.54-1.47-.55-1.47-.54-1.48-.54-1.47-.55-1.47-.54-1.47-.55V625v-.54-1.48-.54-1.47-.55-1.47-.54-1.47-.54-1.48-.54-1.48-.54-1.47-.54-1.48-.54-1.48-.53-1.48-.54-1.48-.54-1.47-.54-1.48-.54-1.47-.54-1.48-.54-1.48-.54-1.47-.54-.56-.92h-1.76v-.89l-7.5-6.8h-.23l-7.49 6.8v.89h-1.76v.92.56.54 1.47.54 1.48.54 1.48.54 1.47.54 1.48.54 1.47.54 1.48.54 1.48.53 1.48.54 1.48.54 1.47.54 1.48.54 1.48.54 1.47.54 1.47.55 1.47.54 1.48.54 1.47.55 1.47.54 1.47.55 1.47.54 1.48.54 1.47.55 1.47.54 1.47.54 1.48.54 1.48.54 1.47.55 1.47.54 1.47.55 1.47.54 1.47.55 1.47.54 1.48.53 1.48.54 1.48.54 1.47.55 1.47.54 1.48.54 1.47.55 1.47.54 1.47.55 1.47.54 1.48.54 1.47.54 1.48.54 1.47.54 1.48.54 1.47.54 1.48.54V693v.53 1.48.55 1.47.54 1.47.54 1.48.55h-3.15v1.47.53 1.48.54 1.47.66h3.15 0 18.74 0 9.32v-.66-1.47-.54-1.48-.53-1.47h-9.32z"/></g><g class="L"><path d="M926.47 419.64v-1.18h-1.36l-8.22-18.58v-.08h-1.73l-7.85-17.76v-.36h-.16 0-1.61l-8.03-18.15h-2.8v-.9h-1.31v-.89h-.99v-6.56l-3.57-2.79v-7.2l-2.66-2.49v-15.79l-.9-.82v-.02l-.01.01-.01-.01v.02l-.91.82v15.8l-2.65 2.48v7.21l-3.57 2.78v6.56h-.98v.89h-1.32v.9h-2.48l-8.03 18.15h-1.6l-8.02 18.12h-1.53v.02l-8.25 18.64h-1.6v1.18h-.96v1.19h.76l.43 1.02h0l1.22 2.87h-1.14v1.19h1.14v1.11.89 3.08 2.71 3.97 2.72 3.96 2.72 3.97 2.71 3.97.35.14 2.22 3.97 2.72 3.96 2.72 3.97 2.71 3.97 2.71 3.97 2.72 3.96 2.72 3.97 3.27 2.99 3.55 3.13 3.55 3.14 3.55 3.13 3.55 3.13 3.55 3.13 3.55 3.14 3.55 3.13 3.55 3.13 3.55 3.13 3.55 3.13 3.56 3.13 3.55 3.13 3.55 3.13 3.55 3.13 3.56V611v3.55 3.13 3.55 3.13 3.55 3.14 3.55 3.13 3.55 3.13 3.55 3.13 3.55 3.14 3.54 3.14 3.55 3.13 3.55 3.13 3.55 3.13 3.55 5.15h-1.55v16.09h1.55.97 2.03 4.56 1.18.79 1.24 1.76 1.17 2.14 1.18 2.14 1.17 2.07 2.45.94 1.17 2.14 1.17 2.14 1.18 2.13 1.18 2.14 1.17 2.14 1.18 2.14 1.17 2.14 1.18 2.13 1.17.94 4.52 1.17H908h1.17 2.15 1.17.02 1.76 1.25.18 1.17 5.17 2.22.76 1.57.01V693.2h-.01-1.57V507.77v-3.27-3.97-2.72-3.96-2.72-3.97-2.71-3.97-2.71-3.97-2.72-3.96-2.72-3.97-2.22-.14-.35-3.97-2.71-3.97-2.72-3.96-2.72-3.97-2.71-3.08-.89-1.11h1.14v-1.19h-1.14l1.22-2.87h0l.43-1.02h.76v-1.19h-.96zm-437.39 15.31h-6.09v-7.75h-1.37c0-2.11-1.65-3.82-3.68-3.82-.16 0-.31.03-.46.05v-1.4h-2.14v-1.37h-4.35v-9.73h4.35v-2.39h2.14v-3.07h-31.16v3.07h2.14v2.39h4.36v9.73h-4.36v1.37h-2.14v1.35c-1.44 0-2.68.87-3.28 2.12h-10.55v.03c-.6-1.27-1.84-2.15-3.29-2.15-.16 0-.31.03-.46.05v-1.4h-2.14v-1.37h-4.36v-9.73h4.36v-2.39h2.14v-3.07h-31.16v3.07h2.14v2.39h4.36v9.73h-4.36v1.37h-2.14v1.35c-2.03 0-3.68 1.71-3.68 3.82h-1.37v7.75h-6.59v223.96h-6.75v51.52h22.94v-.54h32.11v.28h7.03v-.28h41.72v.28l2.69-.28h3.89V434.95h-.49zm-82.02-24.01h2.16v9.73h-2.16v-9.73zm5.14 0h2.16v9.73h-2.16v-9.73zm5.13 0h1.93v9.73h-1.93v-9.73zm38.47 0h2.15v9.73h-2.15v-9.73zm5.14 0h2.15v9.73h-2.15v-9.73zm5.13 0H468v9.73h-1.93v-9.73zm647.83 267.39h-2.23V445.3h-1.23v1.29h-.74v-1.24h-.36v-1.38h-.51v1.38h-.36v1.24h-5.82v-1.24h-.36v-1.38h-.51v1.38h-.37v1.24h-.38v-14.32h-2.64v-3.8h-.01l-15.69-29.68v-.9h-5.37v-1.74h-.17v-3.09h.17v-1.74h-.82v-1.08h-.66v-2.89h-1.91v2.89h-.73v1.08h-.75v1.74h.23v3.09h-.23v1.74h-5.02v.62l-15.85 29.99v3.78h-2.84v13.03h-.35v1.29h-6.09v-1.29h-.37v-1.33h-.51v1.33h-.35v1.29h-1.32v-1.29h-1.24v3.86h-.37v229.17h-2.97v30.96h1.41v-.06h31.38v.06h14.96v-.06h4.77v.06h1.23v-.06h4.95v.06h1.23v-.06h6.32v.06h1.24v-.06h5.82v.06h1.24v-.06h3.5v.06h1.41v-30.96h-.7zm-39.33-285.22h.65v3.02h-.65v-3.02zm-896 172.76v-6.85h-60.66v6.81.04 141.04 2.31h60.66v-2.31h-.06V565.87h.06z"/><path d="M125.42 711c-.88-18.44-16.07-33.13-34.73-33.13S56.84 692.56 55.96 711h69.46z"/><path d="M74.1 709.07c-.51-10.76-9.37-19.32-20.26-19.32s-19.74 8.56-20.26 19.32h40.51zm666.95-106.4h-2.41v-73.56h-2.68V425.83h-3.44v-3.17h-3.36v-.94h0v-.3h0v-1.31h.54v-1.26h-10.88v-1.28h0v-1.1h0v-1.53h0v-1.09h0v-1.53h0v-1.1h0v-1.53h0v-1.1h0v-1.53h0v-1.09h0v-1.86h.6v-1.26h-5.77v-1.04h0v-1.1h0v-1.53h0v-1.09h0v-1.53h0v-1.1h0v-1.53h0v-.41h.37v-1.26h-8.89v-.73h0V390h0v-1.09h0v-1.53h0v-1.09h0v-1.54h0v-1.1h0v-1.53h0v-1.1h0v-1.53h0v-1.09h0v-.44h.26v-1.26h-16.94v1.26h.26v14.31h0-8.89v1.26h.37v9.36h-5.85v1.26h.65v1.31h.03v13.41h-11.29v1.26h.96v2.56h-3.31v3.17h-3.5v103.28h-2.66v73.56h-2.59v106.62h88.58V602.7h-.16zm-81.91-168.04h2.25v1.21h-2.25v-1.21zm72.13 1.21h-2.11v-.99h0v-.22h2.11v1.21zm-66.56-.99v.99h-2.06v-1.21h2.06v.22zm66.56-2.27h-2.11v-1.3h2.11v1.3zm-66.56-.36v.36h-2.06v-1.3h2.06v.94zm66.56-3.95h-2.11v-.21h0v-2.39h2.11v2.6zm-66.56-2.6v2.6h-2.06v-2.6h2.06zm-5.57 3.17h2.25v2.6h-2.25v-2.6zm-26.21 146.97v-.04h-1.89v-3.28-2.8-2.99-2.8-2.98-2.8-2.99-2.8-2.99-2.8-2.98-2.81-1.68h-.52-1.07-1.49-2.55-1.07-1.5-2.54-1.07-1.5-2.54-1.08-1.49-2.55H609h-1.49-2.55-1.07-1.49-2.55-1.07-1.5-2.54-1.08-1.49-1.31-.63-.6-1.08-1.49-.55-.64-.41v1.68 2.81 2.98 2.8 2.99 2.8 2.99 2.8 2.98 2.8 2.99 2.8 3.28h-.74-1.14v.04h-.35v2.27.52 2.99 2.8 2.99 2.8 2.98 2.8 2.99 2.8 2.98 2.8 2.99 2.8 2.98 2.81 2.98 2.81 2.98 2.8 2.98 2.81 2.98 2.8 2.99 2.8 2.98 2.8 2.99 2.8 2.98 2.8 2.99 2.8 2.99 2.8 2.98 2.81 2.98 2.8 2.99 2.8 2.98 1.82h-10.51v10.09h10.51 1.49 1.07 1.27 1.49 1.08 2.54 1.49 1.08 2.54 1.5 1.07 2.55 1.49 1.07 2.55H609h1.07 2.55 1.49 1.08 2.54 1.5 3.61 1.5 1.07 2.55 1.49 1.07 1.27 1.14.35v-10.09-1.82-2.98-2.8-2.99-2.8-2.98-2.81-2.98-2.8-2.99-2.8-2.99-2.8-2.98-2.8-2.99-2.8-2.98-2.8-2.99-2.8-2.98-2.81-2.98-2.8-2.98-2.81-2.98-2.81-2.98-2.8-2.99-2.8-2.98-2.8-2.99-2.8-2.98-2.8-2.99-2.8-2.99-.52-2.27h-.35zm178.78-49.59v-.1h-.12l-5.55-5.05v-.12h-.13l-.95-.86-3.45-3.12h-.04l-20.39-18.25-.2-.23h-.06l-4.93-4.41-.16-.19s-.78-.71-1.17-.71h-.61c-.39 0-.71.32-.71.71 0 .09.07.16.1.24v215.21h18.34v.08h7.59v-.08h14.82v.08h7.6v-.08h15.46V549.4l-25.45-23.18zm-19.07-9.26l-6.78-10.66 9.34 10.66h-2.55zm-1.87 0h-2.55l-4.23-10.67 6.79 10.67zm8.84 0h-2.55l-9.22-10.53 11.77 10.53zm-20.65-18.48h0l-3.73 7.55v-10.9l3.74 3.35zm-3.74 10.47l4.41-8.91 6.71 16.92h-11.12v-8.01zm227.25 170.08v-.04h.01v-73.82h2.05v-2.99h-2.05v-17.37h-.01-1.94-.13v-89h-1.48-1.24-.66 0-1.11v-48.75-7.71h-.29-1.03l-4.53-5.42h-.01l-20.34-24.31-24.87 29.73h-1.08v7.71 48.75h-.98-.5-.29-1.19-1.53v89h-.12-1.94v17.37h-1.89v2.99h1.89v2.98 1.77 2.21 2.61 2.21 2.61 2.21 2.62 2.21 2.61 2.21 2.61 2.21 2.61 2.21 2.61 2.21 2.61 2.21 2.62 2.2 2.62 2.21 2.61 2.21 2.61 2.21 2.61 2.21 2.62 1.6h-3.95v21.16 2.04 1.11 5.43h5.89.12v.8h22.95 2.42.89 3.36.89 3.37.88 2.48 23.89v-.8h5.38v-5.43-1.11-2.04-21.16h-3.31z"/></g><path d="M857.7,708.82c-.92-19.22-16.74-34.52-36.19-34.52s-35.27,15.31-36.19,34.52h72.38Z" class="J"/><path d="M1189.64 467.4v-2.6h-60.65v2.6h-8.83v241.83h8.83 1.97 57.13 1.55v.31h9.25v-.31-229.65-12.18h-9.25z" class="L"/><g fill="#fd514e"><path d="M548.91 560.96h-.52-70.69-1.43-.39v3.49.97 2.36.97 2.36.97 2.36.97 2.36.97 2.36.97 2.35.98 2.36.97 1.11 1.24.98 2.36.96 2.36.98 2.35.98 2.35.97 2.36.97 2.36.97 2.36.97 2.36.97 2.36.97 2.36.97 2.36.97 2.36.97 2.36.96 2.36.98 2.35.98 2.36.97 2.36.97 2.35.98 2.35.98 2.35.98V661v.97 2.36.97 2.36.97 2.36.97 2.36.97 2.36.97 2.36.97 2.36.97 2.36.97 2.36.97 2.36.97 2.36.97 2.35.97 2.36.98 2.35.98 2.35.97.14h1.62v.02h.91v-.02h2.2v.02h.91v-.02h2.21v.02h.91v-.02h2.2v.02h.91v-.02h2.2v.02h.91v-.02h2.21v.02h.91v-.02h2.2v.02h.91v-.02h2.2v.02h.91v-.02h2.21v.02h.91v-.02h2.2v.02h.91v-.02h2.2v.02h.91v-.02h2.21v.02h.91v-.02h.19 2.01v.02h.91v-.02h2.2v.02h.91v-.02h2.21v.02h.91v-.02h2.2v.02h.91v-.02h2.2v.02h.91v-.02h2.21v.02h.91v-.02h2.2v.02h.91v-.02h2.2v.02h.91v-.02h2.21v.02h.91v-.02h2.2v.02h.91v-.02h2.2v.02h.91v-.02h2.01v.02h.91v-.02-.14-.97-2.35-.98-2.35-.98-2.36-.97-2.35-.97-2.36-.97-2.36-.97-2.36-.97-2.36-.97-2.36-.97-2.36-.97-2.36-.97-2.36-.97-2.36-.97-2.36-.97-2.36-.97-2.35-.98-2.35-.98-2.35-.98-2.35-.97-2.36-.97V642v-.98-2.35-.98-2.36-.96-2.36-.97-2.36-.97-2.36-.97-2.36-.97-2.36-.97-2.36-.97-2.36-.97-2.36-.97-2.36-.97-2.35-.98-2.35-.98-2.36-.96-2.36-.98-1.24-1.11-.97-2.36-.98-2.35-.97-2.36-.97-2.36-.97-2.36-.97-2.36-.97-2.36-.97-3.49h-.91zm-148.74-12.61h-.51-.1v-1.07h-9.6v-5.74h-35.85v5.74h-9.72v1.07h-.71-.05V711.4h.05.71 1.65v.08h.5v-.08h.44.76.98v.08h.5v-.08h.44.76.98v.08h.5v-.08h.44.76.98v.08h.51v-.08h.43.76.99v.08h.5v-.08h.43.76.99v.08h.5v-.08h.43.76.99v.08h.5v-.08h.54v.08h.51v-.08h1.13v.08h.5v-.08h.55v.08h.5v-.08h1.13v.08h.5v-.08h.55v.08h.5v-.08h1.13v.08h.5v-.08h.55v.08h.5v-.08h1.13v.08h.5v-.08h.55v.08h.5v-.08h1.13v.08h.51v-.08h.54v.08h.5v-.08h1.13v.08h.51v-.08h.54v.08h.5v-.08h1.14v.08h.5v-.08h.54v.08h.51v-.08h.26.76.11v.08h.5v-.08h1.31.77.1v.08h.5v-.08h1.31.77.1v.08h.5v-.08h1.32.76.1v.08h.5v-.08h1.32.76.1v.08h.5v-.08h1.32.76.1v.08h.5v-.08h1.15v.08h.76v-.08h.17.1v.08h.51v-.08h.22v-.88-.81-2.43-.81-2.43-.81-2.43-.81-2.43-.81-2.43-.81-2.43-.81-2.42-.82-2.43-.8-2.43-.81-2.43-.82-2.42-.81-2.43-.81-2.43-.81-2.43-.81-2.43-.81-2.43-.81-2.43-.81-2.42-.82-2.43-.81-2.43-.8-2.43-.82-2.43-.81-2.42-.82-2.43-.8-2.43-.81-2.43-.81-2.43-.81-2.43-.81-2.43-.81-2.43-.81-2.43-.81-2.43-.8-2.44-.81-2.42-.81-2.43-.81-2.44-.8-2.43-.82-2.42-.81-2.43-.81-2.43-.81-2.43-.81-2.43-.81-2.43-.81-2.43-.81-2.43-.8-2.43-.82-2.43-.8-2.43-.81-2.43-.81-.99-1.65h-.22zm-75.71 125.14v-12.78h1.53v-1.11h1.35v-.01-1.14h-.86v-.95-1.44-.95h-10.1l-1.51-.23-2.92-1.3h.27l-36.42-17.57-21.57-2.39-15.24-5.25-8.05 3.11-7.98-3.11-7.72 3.05-8.12-3.05-7.72 3.05-7.71-3.05-16.04 5.15-21.37 2.49-36.42 17.57h.28l-3.12 1.38-.96.15h-9.81v.95 1.44.95h1.59v1.14.01h1.35v1.11h1.53v12.78h-7.34v2.63 1.53 3.06 1.53 3.05 1.53 3.06 1.53 3.05 1.53 3.06 1.53 3.05 1.53 2.29 1.05h-.05v.77h.05v.09h9.14 1.14.77 2.07.22.76 2.3.76 2.29.77 2.29.77 2.29.76H130h.77 1.14 54.42 3.17.65.64 3.3 1.29 3.29 1.29 3.3 1.29 3.29 1.29 3.3 1.29 3.29 1.29 3.3 1.29 3.29 1.29 3.3 1.29 3.29 1.29 3.3 1.29 3.17 57.15 1.15.76 2.07.23.76 2.29.77 2.29.76 2.3.76 2.29.77 2.29.76 1.15 8.82v-1.91-2.29-1.53-3.05-1.53-3.06-1.53-3.05-1.53-3.06-1.53-3.05-1.53-3.06-1.53-2.63h-7.31z"/><path d="M737.44 670.51h-.52l-13.27-6.32h0 0-.01l-8.71 4.16v-4.11h.49v-1.38h-.49v-1.37h-23.45v1.37h-.49v1.38h.49v4.2h-3.4l-1.31-.82h.18v-6.76h-.39v-2.84h-3.58v-3.84h1.08v-3.2h-1.38v-.25h-.63v-11.78h.63v-1.57h.27v-1.49h.16v-1.37h.37v-1.38h.27v-.79h-1.46v-.45h-1.93l.75-1.2h-1.46v-.45h-.47v-5.11h.47v-1.57h-1.21v-.48h.33v-.32h-.41c-.34-4.8-3.25-9.49-7.05-12.93l-2.54-2.3h0l-.18-.16-.54-.48h.38v-1.38h-1.03v-.25h-.26v-.52h-.3v-1.15h.3v-.57h-1.66v-3.62h.3v-.46h.55v-.55h-.21c-.03-1.55-.8-2.88-1.92-3.62h.06v-.54h.12v-.64h-.3v-.41h-1.27v-1.76c0-.22-.12-.38-.28-.5.05-.07.09-.16.09-.25v-.43c0-.22-.16-.4-.36-.4s-.36.18-.36.4v.43c0 .09.04.17.09.24-.17.11-.31.27-.31.51v1.76h-1.23v.41h-.37v.64h.14v.54h.03c-1.12.74-1.89 2.07-1.92 3.62h-.37v.55h.58v.46h.35v3.62h-1.65v.57h.29v1.15h-.29v.52h-.27v.25h-1.03v1.38h.47l-.64.58-.08.07h0l-2.53 2.3c-3.8 3.44-6.7 8.13-7.05 12.93h-.42v.32h.35v.48h-1.38v1.57h0 .63v5.11h-.63v.45h-1.31l.75 1.2h-1.93v.45h-1.46v.79h.28v1.38h.36v1.37h.16v1.49h.28v1.57h.63v11.78h-.63v.25h-.66v2.1h-.22v1.1h.87v3.84h-3.5v2.84h-.76v6.76h.13l-1.31.82h-3.33v-2.82h0v-1.37h.49v-1.38h-.49v-1.37h-23.46v1.37h-.49v1.38h.49v4.11l-8.67-4.16h0l-.01-.01h0l-13.19 6.32h-.52v2.3h.61v.94h1.7v23.13h-.81v1.39h.81v13.97h53.41v.02h3.53v-.02h5.88v.02h3.53v-.02h4.47v.02h3.53v-.02h3.52v.02h3.53v-.02h3.53v.02h3.53v-.02h10.11v.02h1.45v-.02h45.61v-13.97h.86v-1.39h-.86v-23.13h1.71v-.94h.61v-2.3zm-74.79 3.27h-.42.42 0zm21.23 0h.47-.39-.08zm33.27-.03h0 6.5 0-6.5zm-33.47-20.67h-.35v-1.42h.35v1.42zm-.71-1.42v1.42h-.32v-1.42h.32zm-16.65-48.06v1.15h-.84v-1.15h.84zm-8.29 0h.85v1.15h-.85v-1.15zm-16.53 49.48v-1.42h.3v1.42h-.3zm-40.61 20.67h5.82-5.82 0zm206.21-11.19h-1.19v-.82h-1.81v.82h-7.23-1.55v-.82h-1.82v.82h-1.18v25.36l-14.52-3.83v-.1h.01v-1.1h.16v-1.1h-10.21v1.1h.18v1.1.11l-10.14 3.27v-11.4h-.01-.47v-1.16h-.01-.97-.97v1.16h-.48v12.34l-2.68.86v1.17l.51-.16v1.75l-3.02 9.95v9.61h3.02v-.06h.65v.03h.62v.03h1.81 2.38v-.06h3.85v.06h1.83 2.37v-.06h.48v.03h1.53v.03h8.8v-.03h1.53v-.03h3.42v.06h1.82 2.37v-.06h3.87v.06h1.81.01.45.69.03.46 1.82.72.83 7.23 1.81 1.19.01v-11.88-37.05h-.01zm143.74 39.27V663.8h.02v-2.31h.72v-2.3h-.74v-7.55h-27.37v-8.32h-52.53-.12-30.24v8.32h-10.6v7.55h-1.11v2.3h1.11v2.31 38.03h-1.11v8.38h41.95.12.99 42.98 37.3v-8.38h-1.37zm106.81-13.6V639.4v-1.55-8.2h-6.32V614.4h-5.34v-18.73-1.51h.55v-2.05h-.55v-1.16h-5.35l-14.46-7.61-14.46 7.61h-5.35v1.16h-.55v2.05h.55v1.51 18.73h-5.34v14.86h-6.32v8.59 1.55 48.83h-24.25v21.98h38.61.86 2.19.05 1.12 5.31.02.52 1.7.44.03.65 9.02.24 2 1.13 5.29.09.46 1.7 1.13.43 38.45v-4.28V702v-3.5-3.92-6.35h-24.25zm97.85-140.69h85.89v162.13h-85.89z"/><path d="M1159 547.54h1.12v162.13H1159z" class="H"/><use href="#C" class="I"/><use href="#C" x="5.06" class="H"/><use href="#D" class="I"/><use href="#C" x="16.39" class="H"/><use href="#D" x="11.34" class="I"/><use href="#C" x="28.23" class="H"/><use href="#D" x="23.17" class="I"/><use href="#D" x="33.01" class="H"/><use href="#D" x="34.13" class="I"/><use href="#C" x="50.15" class="H"/><use href="#D" x="45.09" class="I"/><use href="#C" x="61.1" class="H"/><use href="#D" x="56.05" class="I"/><use href="#D" x="64.62" class="H"/><use href="#C" x="71.93" class="I"/><use href="#E" class="H"/><use href="#E" y="1.82" class="I"/><use href="#E" y="16.99" class="H"/><use href="#E" y="18.8" class="I"/><use href="#E" y="33.97" class="H"/><use href="#E" y="35.79" class="I"/><use href="#E" y="50.96" class="H"/><use href="#E" y="52.78" class="I"/><use href="#E" y="67.94" class="H"/><use href="#E" y="69.76" class="I"/><use href="#E" y="84.93" class="H"/><use href="#E" y="86.75" class="I"/><use href="#E" y="101.92" class="H"/><path d="M1155.61 657.03h85.78v1.83h-85.78z" class="I"/><use href="#E" y="121.33" class="H"/><use href="#E" y="123.15" class="I"/><use href="#E" y="140.74" class="H"/><use href="#E" y="142.56" class="I"/><path d="M1171 547.54h1.13v162.13H1171z" class="H"/><use href="#D" x="5.82" class="I"/><path d="M1183 547.54h1.13v162.13H1183z" class="H"/><use href="#D" x="17.82" class="I"/><use href="#C" x="33.65" class="H"/><use href="#C" x="34.78" class="I"/><use href="#C" x="44.33" class="H"/><use href="#C" x="45.45" class="I"/><use href="#D" x="49.11" class="H"/><use href="#C" x="56.41" class="I"/><use href="#C" x="66.24" class="H"/><use href="#C" x="67.37" class="I"/><use href="#C" x="75.38" class="H"/><use href="#D" x="70.33" class="I"/><path d="M1198.5 590.48l-43-39.35v-3.59l43 39.35v3.59z"/><path d="M1198.5 590.48l43-39.35v-3.59l-43 39.35v3.59zm-36.01-42.94h1.37V557h-1.37zm6.34 0h1.37v14.77h-1.37zm5.19 0h1.37v19.11h-1.37zm6.28 0h1.37v25.48h-1.37zm5.6 0h1.37v30.56h-1.37zm5.59 0h1.37v35.16h-1.37z"/><path d="M1197.13 547.54h1.37v39.36h-1.37zm5.13 0h1.37v36.85h-1.37zm5.65 0h1.37v31.86h-1.37zm5.31 0h1.37v27.52h-1.37zm5.71 0h1.37v22.15h-1.37zm5.14 0h1.37v17.58h-1.37zm4.96 0h1.37v13.76h-1.37zm4.57 0h1.37v8.79h-1.37zm5.08 0h1.37v4.4h-1.37zm-81.85 0h1.36v4.4h-1.36z"/></g><path d="M1344.41 699.82v-40.89h-.23v-15.6h-28.78v-6.9h-16.76v6.9h-5.3v-20.85h.23v-5.31h.33v-1.81h-.61v-.53l-.23-.5-1.36-3.07h-.03l-.26-.54h.01l-.02-.03-.93-1.95v-.14h0v-3.95h0v-.02h0v-2.98h0v-3.01h0v-5.91h0v-1.5h0l-.04-.01-.81-.63h0l-.02-.01-.04-.03.06.03v-2.53h0v-2.38h-.27v-2.41h-.31v2.41h-.27v2.37h0v2.54l.05-.02-.03.02h-.02l-.79.66h-.03v1.5h.03-.03v5.91h.03-.03v3h0v3.01h.03-.03v3.94h0v.15l-.95 1.98h-.02l.01.03-.25.51h0l-.42.87h0l-1.31 2.73v.51h-.95v1.81h.34v5.31h.25v20.85h-9.38v15.6h-.23v40.89h-.64v10.09h70.65v-10.09h-.64zm-56.06-95.18v-.55l.37.29v.26h0v.29h-.37v-.29h0zm0-6.01v-.55l.37.29v.26h0v.29h-.37v-.29h0zm1.71 5.99v.31h-.45v-.29h0v-.26l.45-.35v.57h0zm-1.71-8.89v-.55l.37.29v.26h0v.18h-.37v-.18h0zm0-3.01v-.55l.41.32v.23h-.04v.29h-.37v-.29h0zm1.71 2.99v.2h-.46v-.18h0v-.26l.46-.36v.59h0zm0 11h-.45v-1.02l.17-.13.28.23v.92zm-2.59 3.93l.32-.21h.93v.91.32l-.45-.36h0l-.82-.63.02-.03zm3.45-.03v.02l-.82.64h.29l.61-.48.25.54.36.78h-2v-.28l.78-.56h-.3l-.48.36v-1.23h.98l.33.21zm-5.43 4.23l.05-.1.89-.64.3.74h-1.24zm1.12-2.37l.96.62-1 .71.03-1.31v-.02zm1.76-3.74h.13v.12l-.14-.1v-.02zm.26 0h.09v.3l-.11-.09.02-.22zm.98 6.11v-.17l.21-.15-.13.32h-.08zm-1.02 0l-.13-.32.25.18v.14h-.13zm-.59-1.48l.72.46v.75l-.33-.23-.4-.98zm.1.78l-.87-.61.48-.35.38.96zm1.51-1.6l.79.55-.79.51v-1.06zm0 2v-.74l.68-.44-.4.98-.29.2zm.95-1.34l.48.34-.86.6.38-.94zm.14-.1l.99-.63.03 1.35-1.02-.71zm1.21.71l-.02-1.1.4.86-.37.24zm.44-.08l.36.79-.76-.53.4-.26zm-1.8-.74l-.94-.66v-.06h2.06l-1.12.72zm-1.83-3.73v.34l-.17.11.05-.55.13.1zm0 .58v.44h-.68l.68-.44zm0 3.79l-.83-.53v-.02l.83-.6v1.16zm-2.35.18l-.31-.2.32-.69-.02.89zm-.05.17l-.64.45.31-.66.33.21zm.27.01l.55-.39 1.04.72.21.52h-1.45l-.34-.85zm2.13 1.01v.35h-1.58l-.14-.35h1.72zm.89 0h1.68l-.14.35h-1.53V615zm.29-.16l.21-.52 1.03-.72.56.39-.34.84h-1.45zm1.95-.73l1 .71v.02h-1.3l.29-.73zm-2.24-3.87v-.47l.74.47h-.74zm0-.7v-.27l.17-.14.05.55-.22-.14zm-.89-.96h-.37v-.11l.37-.29v.4zm-.25.48l-.06.73-.75.48h-.02l.64-1.36.19.15zm-.49 2.24l.74.58v.23h-1.94l.61-1.28.6.47zm.73.97l-.99.71-1.03-.67.02-.04h2.01zm-3.21 2.73h1.29l.14.35h-.91l-.52-.34h0zm5.85.35l.14-.35h1.28v.02l-.51.33h-.91zm-.64-5.1l-.75-.48-.06-.74.2-.16.64 1.38h-.03zm-.71-1.52l-.12.09v-.09h.12zm-.25 0l.02.19-.16.13v-.32h.14zm-1.4-1.87h.37v.3l-.37-.29h0zm0-4.79h.37v.17l-.11.09-.26-.21v-.05zm0-1.21h.37v.3l-.37-.29h0zm0-4.79h.37v.16l-.11.08-.26-.21v-.04zm0-1.13h.37v.3l-.37-.29h0zm0-1.77h.37v.17l-.11.08-.26-.21v-.04zm0-1.24h.41v.33l-.41-.32h0zm1.71 5.76h-.46v-1.01l.17-.14.28.23v.92zm-.46-1.29l.03.03-.03.02v-.05zm.31.03l.15-.12v.23l-.15-.12zm.15-.34l-.29.23-.17-.13v-.11h.46v.02zm-.46-1.15h.39l-.39.31v-.31zm0-1.44l.03.03-.03.02v-.05zm.01 8.91l.03.02-.03.02v-.04zm-.01-3l.03.02-.03.03v-.05zm.01 6.02l.03.02-.03.02v-.04zm.3.02l.15-.12v.23l-.15-.12zm.15-.34l-.29.23-.16-.13v-.12h.45v.02zm-.45-1.26h.41l-.41.31v-.31zm.45-.15h-.45v-1.02l.17-.13.28.23v.92zm-.15-1.26l.15-.12v.23l-.15-.12zm.15-.34l-.29.23-.16-.13v-.12h.45v.02zm-.46-1.24h.44l-.44.35v-.35zm.46-.16h-.46v-1.01l.17-.14.28.23v.92zm-.15-1.26l.15-.12v.23l-.15-.12zm.15-.34l-.29.23-.17-.13v-.12h.46v.03zm-.46-1.26h.41l-.41.32v-.32zm.46-3.05h-.46v-1.02l.17-.14.28.23v.92zm-.15-1.26l.15-.12v.23l-.15-.12zm.15-.34l-.29.23-.17-.13v-.12h.46v.02zm-.46-1.26h.42l-.42.32v-.32zm0-.15v-.28l.36.28h-.36zm-.85 0h-.41l.41-.33v.33zm-.28 1.75l-.12.1v-.2l.12.1zm.14.11l.11.08v1.07h-.37v-.95l.26-.21zm-.14 2.79l-.12.1v-.19l.12.1zm.14.11l.11.08v1.07h-.37v-.94l.26-.21zm-.26 1.3h.37v.3l-.37-.29h0zm.37 1.41l-.11.08-.26-.21v-.05h.37v.17zm-.25.19l-.12.1v-.19l.12.1zm.14.11l.11.08v1.07h-.37v-.94l.26-.21zm-.26 1.54l.37.29v.26h0v.28h-.37v-.83zm.12 1.35l-.12.1v-.2l.12.1zm.14.11l.11.08v1.07h-.37v-.94l.26-.21zm-.26 1.3h.37v.31l-.37-.29h0zm.37 1.4l-.11.09-.26-.21v-.05h.37v.17zm-.25.2l-.12.1v-.2l.12.1zm.14.11l.11.09v1.06h-.37v-.94l.26-.21zm-.26 1.54l.37.29v.52l-.37.29v-1.11zm-2.85 8.12l.21.14h-.21v-.14zm7.07.13l.2-.13v.13h-.2zm-2.51-6.77h-.45v-.41l.45.36v.05zm-.45-1.72h.44l-.44.35v-.35zm.45-4.94h-.45v-.28h0v-.21l.46-.36v.85zm0-3h-.46v-.29h0v-.25l.46-.35v.58h0v.31zm-.46-5.91v-.29h0v-.25l.48-.37v.59h-.02v.32h-.46zm.48-1.35l-.41-.32h.41v.32zm-1.73-.11v-.22h.27l-.27.22zm1.91 16.1h-.2v.62l-.45-.36v-.48l.45-.36v.55h.2v.02zm-.16-16.47h-.5v-.39l.5.39zm-.82-.63h0 0zm-.21-4.78h.21v.09h-.21v-.09zm0 .31h.21v.11h-.21v-.11zm0 .32h.21v.1h-.21v-.1zm0 .32h.21v.11h-.21v-.11zm0 .33h.21v.11h-.21v-.11zm0 .31h.21v.11h-.21v-.11zm0 .33h.21v.11h-.21v-.11zm0 .33h0l.21-.01h0v.1h-.21v-.09zm0 .31h.21v.11h-.21v-.11zm0 .32h.21v.1h-.21v-.1zm0 .32h.21v.11h-.21v-.11zm0 .32h.21v.11h-.21v-.11zm0 .32h.21v.11h-.21v-.11zm0 .32h.21v.11h-.21v-.11zm.21.32v.1h-.21v-.1h.21zm-.53.93h-.48l.48-.39v.39z" class="L"/><path d="M564.42,708.92c-.97-20.22-17.62-36.33-38.08-36.33s-37.11,16.1-38.08,36.33h76.17Z" class="J"/><path d="M1378.2,709.85c-.85-17.6-15.34-31.62-33.15-31.62s-32.31,14.02-33.15,31.62h66.3Z" class="L"/><path d="M438.71,708.7c-.97-20.22-17.62-36.33-38.08-36.33s-37.11,16.1-38.08,36.33h76.17Z" class="J"/><g class="K"><path d="M407.39 701.28c0 5.61-4.54 10.16-10.14 10.16s-10.15-4.54-10.15-10.16a10.13 10.13 0 0 1 10.15-10.14c5.61 0 10.14 4.55 10.14 10.14zm146.58 1.59c0 3.83-3.11 6.94-6.93 6.94s-6.94-3.1-6.94-6.94a6.935 6.935 0 1 1 13.87 0zM386 696.53a16.71 16.71 0 0 1-16.71 16.71c-9.23 0-16.7-7.48-16.7-16.71a16.71 16.71 0 0 1 16.7-16.71c9.22 0 16.71 7.48 16.71 16.71z"/><path d="M362.62 703.09c0 5.61-4.55 10.15-10.15 10.15s-10.14-4.54-10.14-10.15 4.55-10.14 10.14-10.14 10.15 4.55 10.15 10.14zm458.89 4.9c-.42-8.6-7.5-15.45-16.2-15.45s-15.78 6.85-16.19 15.45h32.39zm-84.14 1.02c-.41-8.6-7.5-15.45-16.19-15.45s-15.78 6.85-16.19 15.45h32.39z"/></g><path d="M1130.5 708.69c-.73-15.29-13.32-27.47-28.8-27.47s-28.07 12.18-28.8 27.47h57.6zM87.53 704.77c0 4.18-3.39 7.57-7.58 7.57s-7.58-3.39-7.58-7.57 3.39-7.58 7.58-7.58 7.58 3.39 7.58 7.58z" class="J"/><path d="M40.85 703.18c-1.42 0-2.71.56-3.65 1.48-.95-.92-2.23-1.48-3.65-1.48a5.19 5.19 0 0 0-3.61 1.43 5.22 5.22 0 0 0-3.6-1.43c-2.82 0-5.12 2.22-5.26 5.01h25.03a5.26 5.26 0 0 0-5.26-5.01zm554.38 5.83c-.41-8.6-7.49-15.45-16.19-15.45s-15.78 6.85-16.19 15.45h32.38z" class="K"/><g class="J"><use href="#F"/><use href="#F" x="230.43"/></g><g class="K"><path d="M420.61 701.28c-1.9 0-3.62.75-4.89 1.98-1.27-1.23-2.99-1.98-4.89-1.98s-3.57.73-4.83 1.92a7.01 7.01 0 0 0-4.83-1.92 7.05 7.05 0 0 0-7.04 6.71h33.51c-.18-3.73-3.27-6.71-7.04-6.71zm661.29-1.89a10.15 10.15 0 0 1-10.16 10.15 10.13 10.13 0 0 1-10.14-10.15c0-5.61 4.55-10.14 10.14-10.14s10.16 4.55 10.16 10.14z"/><use href="#G"/><path d="M1155.04 703.5c-1.37 0-2.59.54-3.51 1.42a5.02 5.02 0 0 0-3.51-1.42c-1.37 0-2.57.52-3.47 1.38-.91-.85-2.13-1.38-3.47-1.38-2.72 0-4.92 2.14-5.05 4.81h24.05c-.13-2.68-2.34-4.81-5.05-4.81zm-49.13-.32c-1.36 0-2.59.54-3.51 1.42a5.02 5.02 0 0 0-3.51-1.42c-1.37 0-2.57.52-3.47 1.38-.91-.85-2.13-1.38-3.47-1.38-2.72 0-4.92 2.14-5.05 4.81h24.05c-.13-2.68-2.34-4.81-5.05-4.81zM960 703.06a5.02 5.02 0 0 0-3.51 1.42 5.02 5.02 0 0 0-3.51-1.42c-1.37 0-2.56.52-3.46 1.38-.91-.85-2.13-1.38-3.47-1.38-2.72 0-4.92 2.14-5.05 4.81h24.05c-.13-2.68-2.34-4.81-5.05-4.81zm-867.52.12c-1.42 0-2.71.56-3.65 1.48-.94-.92-2.23-1.48-3.65-1.48s-2.67.54-3.6 1.43c-.94-.89-2.21-1.43-3.61-1.43-2.82 0-5.12 2.22-5.26 5.01h25.03a5.26 5.26 0 0 0-5.26-5.01zm744.68-3.14c0 5.61-4.54 10.15-10.15 10.15s-10.14-4.54-10.14-10.15 4.55-10.14 10.14-10.14 10.15 4.55 10.15 10.14z"/></g><g class="J"><path d="M832.62 701.16c-1.9 0-3.62.75-4.89 1.98-1.26-1.23-2.99-1.98-4.89-1.98s-3.57.73-4.83 1.92c-1.26-1.19-2.96-1.92-4.82-1.92a7.05 7.05 0 0 0-7.04 6.71h33.52c-.18-3.73-3.26-6.71-7.04-6.71z"/><use href="#G" x="-336.36"/></g><path d="M846.94 703.06c-1.36 0-2.59.54-3.51 1.42-.91-.88-2.14-1.42-3.5-1.42s-2.57.52-3.47 1.38c-.91-.85-2.12-1.38-3.46-1.38-2.72 0-4.92 2.14-5.05 4.81H852c-.13-2.68-2.34-4.81-5.05-4.81zm-62.36 0c-1.36 0-2.59.54-3.51 1.42a5.02 5.02 0 0 0-3.51-1.42c-1.37 0-2.56.52-3.47 1.38-.91-.85-2.12-1.38-3.47-1.38-2.72 0-4.92 2.14-5.05 4.81h24.05c-.13-2.68-2.34-4.81-5.05-4.81zm-39.57.36c-1.36 0-2.6.54-3.51 1.42a5.02 5.02 0 0 0-3.51-1.42c-1.37 0-2.56.52-3.47 1.38-.91-.85-2.12-1.38-3.46-1.38-2.72 0-4.92 2.14-5.05 4.81h24.05c-.13-2.68-2.34-4.81-5.05-4.81zm-176.03-.1a5.02 5.02 0 0 0-3.51 1.42 5.02 5.02 0 0 0-3.51-1.42c-1.37 0-2.56.52-3.47 1.38-.91-.85-2.12-1.38-3.46-1.38-2.72 0-4.92 2.14-5.05 4.81h24.05c-.13-2.68-2.34-4.81-5.05-4.81zm-496.14.04c-1.37 0-2.59.54-3.51 1.42a5.02 5.02 0 0 0-3.51-1.42c-1.37 0-2.57.52-3.47 1.38-.91-.85-2.12-1.38-3.46-1.38-2.72 0-4.92 2.14-5.05 4.81h24.05c-.13-2.68-2.34-4.81-5.05-4.81zm52.91 0a5.02 5.02 0 0 0-3.51 1.42c-.91-.88-2.15-1.42-3.51-1.42s-2.56.52-3.47 1.38c-.91-.85-2.12-1.38-3.46-1.38-2.72 0-4.92 2.14-5.05 4.81h24.05c-.13-2.68-2.34-4.81-5.05-4.81z" class="K"/><path d="M1299.9 709.73c-.45-9.42-8.2-16.91-17.73-16.91s-17.28 7.49-17.73 16.91h35.45zm52.97 0c-.45-9.42-8.2-16.91-17.73-16.91s-17.28 7.49-17.72 16.91h35.45z" class="J"/><g class="K"><path d="M1354.14 701.79c-2.12 0-4.03.84-5.45 2.21a7.79 7.79 0 0 0-5.45-2.21c-2.12 0-3.98.81-5.37 2.14a7.81 7.81 0 0 0-5.38-2.14 7.85 7.85 0 0 0-7.84 7.47h37.32c-.2-4.16-3.62-7.47-7.84-7.47zm-83.88-.51a7.79 7.79 0 0 0-5.45 2.21 7.77 7.77 0 0 0-5.45-2.21c-2.13 0-3.97.81-5.37 2.14-1.4-1.33-3.3-2.14-5.37-2.14a7.85 7.85 0 0 0-7.84 7.47h37.32c-.19-4.16-3.62-7.47-7.83-7.47z"/><use href="#H"/><path d="M1286.96 703.31c-1.36 0-2.59.54-3.51 1.42a5.02 5.02 0 0 0-3.51-1.42c-1.37 0-2.56.52-3.47 1.38-.91-.85-2.13-1.38-3.47-1.38-2.72 0-4.92 2.14-5.05 4.81H1292c-.13-2.68-2.34-4.81-5.05-4.81zm43.46 0a5.02 5.02 0 0 0-3.51 1.42 5.02 5.02 0 0 0-3.51-1.42c-1.37 0-2.56.52-3.47 1.38-.91-.85-2.13-1.38-3.47-1.38-2.72 0-4.92 2.14-5.05 4.81h24.05c-.13-2.68-2.34-4.81-5.05-4.81z"/><use href="#H" x="156.23"/><path d="M1375.77,722.74c-1.37,0-2.6-.44-3.51-1.15-.91.72-2.15,1.15-3.51,1.15s-2.56-.43-3.46-1.12c-.91.69-2.13,1.12-3.47,1.12-2.72,0-4.92-1.73-5.05-3.9h24.05c-.13,2.17-2.34,3.9-5.05,3.9Z"/><use href="#H" x="124.71"/></g><path d="M0 707.99h1440v11.38H0z" fill="#fd514e"/></svg>