<svg xmlns="http://www.w3.org/2000/svg" viewBox="0 0 462.41 204.76" xmlns:v="https://vecta.io/nano"><g fill="#969696"><path d="M17.94 159.21v-6.42h3.2c.04 1.17.34 2.04.92 2.59s1.24.83 1.98.83c.58 0 1.06-.2 1.46-.6s.6-.87.6-1.41c0-.58-.19-1.06-.58-1.46-.39-.39-1.1-.84-2.13-1.34-2.18-1.05-3.66-1.98-4.44-2.78s-1.17-1.89-1.17-3.25c0-1.64.51-2.92 1.54-3.82s2.2-1.36 3.51-1.36c1.5 0 2.66.58 3.48 1.75v-1.56h3.18v5.73H26.3c-.1-.88-.4-1.57-.91-2.05a2.51 2.51 0 0 0-1.78-.72c-.52 0-.97.14-1.33.42s-.54.64-.54 1.1c0 .39.15.76.45 1.1.3.35 1.17.84 2.62 1.48 1.39.62 2.46 1.18 3.2 1.68s1.33 1.15 1.76 1.95.65 1.72.65 2.77c0 1.86-.54 3.26-1.62 4.2s-2.36 1.41-3.84 1.41c-1.65 0-2.92-.61-3.82-1.83v1.6h-3.2zm14.95 0v-3.18h2.36v-12.47h-2.36v-3.18h9.1v3.18h-1.98v4.13h5.13v-4.13h-1.91v-3.18h9.03v3.18H49.9v12.47h2.36v3.18h-9.03v-3.18h1.91v-5.14h-5.13v5.14h1.98v3.18h-9.1z"/><use href="#B"/><path d="M74.76 159.21v-3.18h2.32v-12.47h-2.32v-3.18h8.6c1.9 0 3.32.11 4.25.33s1.73.76 2.41 1.61 1.02 1.85 1.02 3c0 1.83-.88 3.13-2.65 3.88 2.26.84 3.38 2.34 3.38 4.51 0 1.25-.35 2.31-1.05 3.2s-1.6 1.49-2.71 1.81-2.66.48-4.65.48h-8.6zm7.22-11.39h1.38c.96 0 1.66-.16 2.11-.49.45-.32.68-.9.68-1.72 0-.75-.22-1.28-.66-1.58-.44-.31-1.2-.46-2.29-.46h-1.22v4.25zm0 8.21h1.38c1.25 0 2.13-.18 2.63-.54s.74-1 .74-1.91c0-.96-.27-1.63-.81-2.01s-1.39-.58-2.57-.58h-1.38v5.04z"/><use href="#C"/><path d="M112.74 164.67v-3.41c.53.15 1 .23 1.41.23.75 0 1.29-.21 1.61-.62.32-.42.49-1.15.49-2.19v-15.11h-2.8v-3.18h10.26v3.18h-2.56v15.28c0 2.09-.51 3.64-1.52 4.65s-2.37 1.51-4.05 1.51c-.85 0-1.8-.11-2.84-.34zm33.06-11.78v-3.18h8.83c0 2.28-.41 4.09-1.24 5.43s-2.03 2.39-3.6 3.15c-1.58.77-3.34 1.15-5.3 1.15-3.4 0-6.01-.91-7.83-2.74-1.82-1.82-2.73-4.14-2.73-6.94 0-1.95.45-3.67 1.35-5.17.9-1.49 2.12-2.62 3.64-3.38s3.18-1.14 4.97-1.14c2.53 0 4.5.61 5.9 1.84v-1.54h3.19v6.69h-3.19a4.68 4.68 0 0 0-1.99-2.67c-.99-.65-2.06-.97-3.2-.97a5.19 5.19 0 0 0-3.83 1.59c-1.05 1.06-1.58 2.53-1.58 4.41 0 2.15.54 3.78 1.61 4.91a5.23 5.23 0 0 0 3.93 1.69c1.14 0 2.08-.27 2.83-.83s1.27-1.32 1.56-2.3h-3.32zm11.57 6.32v-3.18h2.69v-12.47h-2.69v-3.18h10.34v3.18h-2.75v12.47h5.56v-5.82h3.67v9h-16.82zm29.67-19.12c3.25 0 5.81.94 7.67 2.82s2.8 4.17 2.8 6.86c0 2.71-.93 5-2.8 6.87s-4.42 2.81-7.66 2.81c-3.37 0-5.95-.96-7.76-2.89-1.8-1.93-2.71-4.19-2.71-6.79 0-2.69.93-4.98 2.78-6.86s4.41-2.82 7.68-2.82zm0 3.43c-1.44 0-2.67.54-3.68 1.62s-1.51 2.67-1.51 4.77c0 1.85.5 3.33 1.49 4.44a4.75 4.75 0 0 0 3.7 1.67c1.44 0 2.67-.54 3.68-1.63s1.52-2.66 1.52-4.7c0-1.83-.48-3.32-1.45-4.45-.97-1.15-2.22-1.72-3.75-1.72zm13.46 15.69v-3.18h2.31v-12.47h-2.31v-3.18h8.6c1.9 0 3.32.11 4.25.33s1.73.76 2.41 1.61 1.02 1.85 1.02 3c0 1.83-.88 3.13-2.65 3.88 2.26.84 3.38 2.34 3.38 4.51 0 1.25-.35 2.31-1.05 3.2s-1.6 1.49-2.71 1.81-2.66.48-4.65.48h-8.6zm7.21-11.39h1.38c.96 0 1.66-.16 2.11-.49.45-.32.68-.9.68-1.72 0-.75-.22-1.28-.66-1.58s-1.2-.46-2.29-.46h-1.22v4.25zm0 8.21h1.38c1.25 0 2.13-.18 2.63-.54s.75-1 .75-1.91c0-.96-.27-1.63-.81-2.01s-1.39-.58-2.57-.58h-1.38v5.04z"/><use href="#B" x="165.84"/><path d="M240.45 159.21v-3.18h2.69v-12.47h-2.69v-3.18h10.34v3.18h-2.75v12.47h5.56v-5.82h3.67v9h-16.82zm26.38 0v-3.18h2.26v-12.47h-2.26v-3.18h16.6v5.97h-3.6v-2.79H274v4.35h4.71v3.18H274v4.94h5.83v-2.82h3.6v6h-16.6zm18.92 0v-3.18h2.86v-12.47h-2.86v-3.18h8.92c1.88 0 3.39.12 4.54.34 1.15.23 2.24.74 3.29 1.53s1.89 1.85 2.52 3.17c.63 1.33.95 2.8.95 4.41a10.63 10.63 0 0 1-.66 3.74c-.44 1.19-.99 2.14-1.65 2.87s-1.44 1.3-2.35 1.73-1.75.71-2.51.83c-.76.13-1.94.19-3.54.19h-9.51zm7.74-3.18h1.18c1.43 0 2.56-.18 3.39-.55s1.5-1.02 2.01-1.96c.5-.93.76-2.16.76-3.66 0-1.44-.25-2.65-.76-3.66-.51-1-1.2-1.69-2.07-2.07s-1.98-.57-3.32-.57h-1.18v12.47z"/><use href="#D"/><path d="M344.41 140.38h3.18v6.63h-3.18c-.9-2.38-2.47-3.57-4.7-3.57-1.84 0-3.23.63-4.18 1.88-.94 1.25-1.42 2.76-1.42 4.51 0 1.83.5 3.31 1.5 4.45 1 1.13 2.27 1.7 3.81 1.7 1.26 0 2.37-.43 3.32-1.29s1.59-2.05 1.92-3.57l3.71 1.77c-1.41 4.37-4.51 6.56-9.3 6.56-3.38 0-5.94-.91-7.66-2.74-1.72-1.82-2.58-4.13-2.58-6.92 0-1.99.45-3.72 1.34-5.21s2.1-2.61 3.61-3.36 3.17-1.13 4.98-1.13c2.25 0 4.13.59 5.65 1.76v-1.47z"/><use href="#B" x="295.47"/><use href="#E"/><path d="M388.55 159.21v-3.18h2.86v-12.47h-2.86v-3.18h10.64v3.18h-2.88v12.47h2.88v3.18h-10.64zm23.75-19.12c3.25 0 5.81.94 7.67 2.82s2.79 4.17 2.79 6.86c0 2.71-.93 5-2.8 6.87s-4.42 2.81-7.66 2.81c-3.37 0-5.95-.96-7.76-2.89s-2.71-4.19-2.71-6.79c0-2.69.93-4.98 2.78-6.86s4.42-2.82 7.69-2.82zm0 3.43c-1.44 0-2.67.54-3.67 1.62-1.01 1.08-1.51 2.67-1.51 4.77 0 1.85.5 3.33 1.49 4.44a4.75 4.75 0 0 0 3.7 1.67c1.44 0 2.67-.54 3.68-1.63s1.52-2.66 1.52-4.7c0-1.83-.48-3.32-1.45-4.45-.98-1.15-2.23-1.72-3.76-1.72z"/><use href="#F"/></g><g fill="#22205f"><path d="M16.92 158.2v-6.42h3.2c.04 1.17.34 2.04.92 2.59s1.24.83 1.98.83a1.96 1.96 0 0 0 1.46-.6c.4-.4.6-.87.6-1.41 0-.58-.19-1.06-.58-1.46-.39-.39-1.1-.84-2.13-1.34-2.18-1.05-3.66-1.98-4.43-2.78s-1.17-1.89-1.17-3.25c0-1.64.51-2.92 1.54-3.82s2.2-1.36 3.51-1.36c1.5 0 2.66.58 3.48 1.75v-1.56h3.18v5.73H25.3c-.1-.88-.4-1.57-.91-2.05a2.51 2.51 0 0 0-1.78-.72c-.52 0-.97.14-1.33.42s-.54.64-.54 1.1c0 .39.15.76.45 1.1.3.35 1.17.84 2.62 1.48 1.39.62 2.46 1.18 3.2 1.68s1.33 1.15 1.76 1.95.65 1.72.65 2.77c0 1.86-.54 3.26-1.62 4.2s-2.36 1.41-3.84 1.41c-1.65 0-2.92-.61-3.82-1.83v1.6h-3.22zm14.95 0v-3.18h2.36v-12.47h-2.36v-3.18h9.1v3.18h-1.98v4.13h5.13v-4.13h-1.91v-3.18h9.03v3.18h-2.36v12.47h2.36v3.18h-9.03v-3.18h1.91v-5.14h-5.13v5.14h1.98v3.18h-9.1zm40.3-3.18v3.18h-9.26v-3.18h2.41l-.89-3.24h-4.89l-1 3.24h2.52v3.18h-8.34v-3.18h2.33l3.67-12.47h-2.5v-3.18H68.5v3.18h-2.53l3.95 12.47h2.25zm-8.52-6l-1.57-5.67-1.69 5.67h3.26zm10.1 9.18v-3.18h2.31v-12.47h-2.31v-3.18h8.6c1.9 0 3.32.11 4.25.33s1.73.76 2.41 1.61 1.02 1.85 1.02 3c0 1.83-.88 3.13-2.65 3.88 2.26.84 3.38 2.34 3.38 4.51 0 1.25-.35 2.31-1.05 3.2s-1.6 1.49-2.71 1.81-2.66.48-4.65.48h-8.6zm7.22-11.4h1.38c.96 0 1.66-.16 2.11-.49.45-.32.68-.9.68-1.72 0-.75-.22-1.28-.66-1.58s-1.2-.46-2.29-.46h-1.22v4.25zm0 8.22h1.38c1.25 0 2.13-.18 2.63-.54s.75-1 .75-1.91c0-.96-.27-1.63-.81-2.01s-1.39-.58-2.57-.58h-1.38v5.04z"/><use href="#D" x="-215.56" y="-1.02"/><path d="M111.73 163.66v-3.41c.53.15 1 .23 1.41.23.75 0 1.29-.21 1.61-.62s.49-1.15.49-2.19v-15.11h-2.8v-3.18h10.26v3.18h-2.56v15.28c0 2.09-.51 3.64-1.52 4.65-1.02 1.01-2.37 1.51-4.05 1.51-.86 0-1.8-.12-2.84-.34zm33.05-11.78v-3.18h8.83c0 2.28-.41 4.09-1.24 5.43s-2.03 2.39-3.6 3.15c-1.58.77-3.34 1.15-5.3 1.15-3.4 0-6.01-.91-7.83-2.74-1.82-1.82-2.73-4.14-2.73-6.94 0-1.95.45-3.67 1.35-5.17.9-1.49 2.12-2.62 3.64-3.38 1.53-.76 3.18-1.14 4.97-1.14 2.53 0 4.49.61 5.9 1.84v-1.54h3.2v6.69h-3.2a4.68 4.68 0 0 0-1.99-2.67c-.99-.65-2.06-.97-3.19-.97a5.19 5.19 0 0 0-3.83 1.59c-1.06 1.06-1.58 2.53-1.58 4.41 0 2.15.54 3.78 1.61 4.91a5.23 5.23 0 0 0 3.93 1.69c1.14 0 2.08-.27 2.83-.83s1.27-1.32 1.56-2.3h-3.33zm11.58 6.32v-3.18h2.69v-12.47h-2.69v-3.18h10.34v3.18h-2.75v12.47h5.56v-5.82h3.67v9h-16.82zm29.66-19.13c3.25 0 5.81.94 7.67 2.82s2.79 4.17 2.79 6.86c0 2.71-.93 5-2.8 6.87s-4.42 2.81-7.66 2.81c-3.37 0-5.95-.96-7.76-2.89s-2.71-4.19-2.71-6.79c0-2.69.93-4.98 2.78-6.86s4.43-2.82 7.69-2.82zm0 3.44c-1.44 0-2.67.54-3.67 1.62-1.01 1.08-1.51 2.67-1.51 4.77 0 1.85.5 3.33 1.49 4.44a4.75 4.75 0 0 0 3.7 1.67c1.44 0 2.67-.54 3.68-1.63s1.52-2.66 1.52-4.7c0-1.83-.48-3.32-1.45-4.45-.97-1.15-2.22-1.72-3.76-1.72zm13.46 15.69v-3.18h2.32v-12.47h-2.32v-3.18h8.6c1.9 0 3.32.11 4.25.33s1.73.76 2.41 1.61 1.02 1.85 1.02 3c0 1.83-.88 3.13-2.65 3.88 2.26.84 3.38 2.34 3.38 4.51 0 1.25-.35 2.31-1.05 3.2s-1.6 1.49-2.71 1.81-2.66.48-4.65.48h-8.6zm7.22-11.4h1.38c.96 0 1.66-.16 2.11-.49.45-.32.68-.9.68-1.72 0-.75-.22-1.28-.66-1.58-.44-.31-1.2-.46-2.29-.46h-1.22v4.25zm0 8.22h1.38c1.25 0 2.13-.18 2.63-.54s.74-1 .74-1.91c0-.96-.27-1.63-.81-2.01s-1.39-.58-2.57-.58h-1.38v5.04zm31.3 0v3.18h-9.26v-3.18h2.41l-.89-3.24h-4.89l-1 3.24h2.52v3.18h-8.34v-3.18h2.33l3.67-12.47h-2.5v-3.18h12.29v3.18h-2.53l3.95 12.47H238zm-8.51-6l-1.57-5.67-1.69 5.67h3.26zm9.95 9.18v-3.18h2.69v-12.47h-2.69v-3.18h10.34v3.18h-2.75v12.47h5.56v-5.82h3.67v9h-16.82zm26.38 0v-3.18h2.26v-12.47h-2.26v-3.18h16.6v5.97h-3.6v-2.79h-5.83v4.35h4.71v3.18h-4.71v4.94h5.83v-2.82h3.6v6h-16.6zm18.91 0v-3.18h2.86v-12.47h-2.86v-3.18h8.92c1.88 0 3.39.12 4.54.34 1.15.23 2.24.74 3.29 1.53s1.89 1.85 2.52 3.17c.63 1.33.95 2.8.95 4.41a10.63 10.63 0 0 1-.66 3.74c-.44 1.18-.99 2.14-1.64 2.87s-1.44 1.3-2.35 1.73-1.75.71-2.51.83-1.94.19-3.54.19h-9.52zm7.75-3.18h1.18c1.43 0 2.56-.18 3.39-.55s1.5-1.02 2.01-1.96c.51-.93.76-2.16.76-3.66 0-1.44-.25-2.65-.76-3.66s-1.2-1.69-2.07-2.07-1.98-.57-3.32-.57h-1.18v12.47z"/><use href="#C" x="213.53" y="-1.02"/><path d="M343.4 139.37h3.18V146h-3.18c-.9-2.38-2.47-3.57-4.7-3.57-1.84 0-3.23.63-4.18 1.88-.94 1.25-1.42 2.76-1.42 4.51 0 1.83.5 3.31 1.5 4.45s2.27 1.7 3.81 1.7c1.26 0 2.37-.43 3.32-1.29s1.59-2.05 1.92-3.57l3.71 1.77c-1.41 4.37-4.51 6.56-9.3 6.56-3.38 0-5.94-.91-7.66-2.74-1.72-1.82-2.58-4.13-2.58-6.92 0-1.99.45-3.72 1.34-5.21s2.1-2.61 3.61-3.36 3.17-1.13 4.97-1.13c2.25 0 4.13.59 5.65 1.76v-1.47zm24.23 15.65v3.18h-9.26v-3.18h2.41l-.89-3.24H355l-1 3.24h2.52v3.18h-8.34v-3.18h2.33l3.67-12.47h-2.5v-3.18h12.29v3.18h-2.53l3.95 12.47h2.24zm-8.51-6l-1.57-5.67-1.69 5.67h3.26z"/><use href="#E" x="-1.02" y="-1.01"/><path d="M387.54 158.2v-3.18h2.86v-12.47h-2.86v-3.18h10.64v3.18h-2.88v12.47h2.88v3.18h-10.64zm23.75-19.13c3.25 0 5.81.94 7.67 2.82s2.8 4.17 2.8 6.86c0 2.71-.93 5-2.8 6.87s-4.42 2.81-7.66 2.81c-3.37 0-5.95-.96-7.76-2.89-1.8-1.93-2.71-4.19-2.71-6.79 0-2.69.93-4.98 2.78-6.86s4.41-2.82 7.68-2.82zm0 3.44c-1.44 0-2.67.54-3.68 1.62s-1.51 2.67-1.51 4.77c0 1.85.5 3.33 1.49 4.44a4.75 4.75 0 0 0 3.7 1.67c1.44 0 2.67-.54 3.68-1.63s1.52-2.66 1.52-4.7c0-1.83-.48-3.32-1.45-4.45-.97-1.15-2.22-1.72-3.75-1.72z"/><use href="#F" x="-1.01" y="-1.01"/></g><path d="M76.07 182.71l-3.64-14.34h1.96l1.7 7.25 1.06 4.96h.04c.23-1.42.68-3.13 1.17-4.98l1.91-7.23h1.94l1.74 7.28 1 4.91h.04l1.15-4.96 1.89-7.23h1.89l-4.06 14.34h-1.94l-1.81-7.47-.94-4.68h-.04c-.25 1.42-.57 2.83-1.11 4.68l-2.04 7.47h-1.91z"/><use href="#G"/><use href="#H"/><path d="M112.88 167.61h1.87v15.1h-1.87v-15.1z"/><use href="#I"/><path d="M132.76 172.41l1.36 5.23.77 3.28h.06c.23-1.04.57-2.15.92-3.25l1.68-5.25h1.57l1.6 5.15.91 3.36h.06c.17-1.04.45-2.13.79-3.34l1.47-5.17h1.85l-3.32 10.29h-1.7l-1.57-4.91-.91-3.38h-.04c-.25 1.23-.57 2.3-.94 3.4l-1.66 4.89h-1.7l-3.11-10.29h1.91zm18.06-2.89c.02.64-.45 1.15-1.19 1.15-.66 0-1.13-.51-1.13-1.15a1.14 1.14 0 0 1 1.17-1.17c.71 0 1.15.51 1.15 1.17zm-2.08 13.19v-10.29h1.87v10.29h-1.87z"/><use href="#I" x="35.82"/><path d="M168.88 177.9c.04 2.53 1.66 3.57 3.53 3.57 1.34 0 2.15-.23 2.85-.53l.32 1.34c-.66.3-1.79.64-3.42.64-3.17 0-5.06-2.08-5.06-5.19s1.83-5.55 4.83-5.55c3.36 0 4.25 2.96 4.25 4.85 0 .38-.04.68-.06.87h-7.24zm5.49-1.34c.02-1.19-.49-3.04-2.59-3.04-1.89 0-2.72 1.74-2.87 3.04h5.46zm12.68-8.19v8.49c0 3.21 1.42 4.57 3.34 4.57 2.13 0 3.49-1.4 3.49-4.57v-8.49h1.87v8.36c0 4.4-2.32 6.21-5.42 6.21-2.94 0-5.15-1.68-5.15-6.13v-8.45h1.87z"/><use href="#J"/><use href="#K"/><path d="M219.6 172.41l2.02 5.79.83 2.64h.06c.23-.85.53-1.7.87-2.64l2-5.79h1.96l-4.04 10.29h-1.79l-3.91-10.29h2zm11.4 5.49c.04 2.53 1.66 3.57 3.53 3.57 1.34 0 2.15-.23 2.85-.53l.32 1.34c-.66.3-1.79.64-3.42.64-3.17 0-5.06-2.08-5.06-5.19s1.83-5.55 4.83-5.55c3.36 0 4.25 2.96 4.25 4.85 0 .38-.04.68-.06.87H231zm5.49-1.34c.02-1.19-.49-3.04-2.59-3.04-1.89 0-2.72 1.74-2.87 3.04h5.46z"/><use href="#H" x="136.91"/><use href="#L"/><use href="#K" x="46.35"/><path d="M267.48 169.46v2.96h2.68v1.42h-2.68v5.55c0 1.28.36 2 1.4 2 .49 0 .85-.06 1.08-.13l.08 1.4c-.36.15-.94.26-1.66.26-.87 0-1.57-.28-2.02-.79-.53-.55-.72-1.47-.72-2.68v-5.62h-1.59v-1.42h1.59v-2.47l1.84-.48zm6.72 2.95l2.25 6.08.66 2.11h.04l.66-2.15 2.04-6.04h1.98l-2.81 7.34c-1.34 3.53-2.25 5.34-3.53 6.45-.91.81-1.83 1.13-2.3 1.21l-.47-1.57c.47-.15 1.08-.45 1.64-.92.51-.4 1.15-1.13 1.57-2.08.08-.19.15-.34.15-.45s-.04-.25-.13-.49l-3.81-9.49h2.06zm18.36 5.79l-1.49 4.51h-1.92l4.87-14.34h2.23l4.89 14.34h-1.98l-1.53-4.51h-5.07zm4.7-1.45l-1.4-4.13c-.32-.94-.53-1.79-.74-2.62h-.04l-.72 2.59-1.4 4.15h4.3zm15.64-9.14v12.44l.08 2.66h-1.68l-.08-1.79h-.04c-.57 1.15-1.83 2.02-3.51 2.02-2.49 0-4.4-2.11-4.4-5.23-.02-3.42 2.11-5.53 4.62-5.53 1.57 0 2.64.75 3.11 1.57h.04v-6.15h1.86zm-1.88 8.99c0-.23-.02-.55-.09-.79-.28-1.19-1.3-2.17-2.7-2.17-1.94 0-3.08 1.7-3.08 3.98 0 2.08 1.02 3.81 3.04 3.81 1.25 0 2.4-.83 2.74-2.23.06-.25.09-.51.09-.81v-1.79zm6.05-1.4l-.08-2.79h1.64l.08 1.66h.06c.57-.98 1.53-1.89 3.23-1.89 1.4 0 2.47.85 2.91 2.06h.04c.32-.57.72-1.02 1.15-1.34.62-.47 1.3-.72 2.28-.72 1.36 0 3.38.89 3.38 4.47v6.06h-1.83v-5.83c0-1.98-.72-3.17-2.23-3.17-1.06 0-1.89.79-2.21 1.7-.08.25-.15.6-.15.94v6.36h-1.83v-6.17c0-1.64-.72-2.83-2.15-2.83-1.17 0-2.02.94-2.32 1.87-.11.28-.15.6-.15.92v6.21h-1.83v-7.51z"/><use href="#K" x="123.04"/><use href="#L" x="92.22"/><use href="#L" x="101.7"/><path d="M362.97 169.52c.02.64-.45 1.15-1.19 1.15-.66 0-1.13-.51-1.13-1.15a1.14 1.14 0 0 1 1.17-1.17c.7 0 1.15.51 1.15 1.17zm-2.08 13.19v-10.29h1.87v10.29h-1.87z"/><use href="#G" x="274.9"/><use href="#J" x="179.71"/><path d="M190.31 82.54c-.65-1.39-1.74-5.61-1.75-6.84l.6-.28c3.18-1.5 5.14-3.97 5.67-7.44.76-5.02-2.16-8.71-5.5-10.25l-.75-.33c0-.23-.04-.47.01-.68.48-2.33 1.09-4.62 1.9-6.85.06-.16.15-.31.25-.51 1.99 1.35 4.13 1.75 6.4 1.05 1.85-.57 3.25-1.74 4.16-3.45 1.02-1.91 1.17-3.92.42-5.95-.74-2-2.19-3.35-4.13-4.19.77-1.42 4.57-5.65 5.78-6.43l.39.66c1.04 1.74 2.57 2.73 4.59 2.84 3.14.17 5.59-2.14 5.92-4.99.21-1.83-.33-3.41-1.64-4.73l-.37-.38c-.02-.02-.01-.05-.02-.08 1.45-1.25 7.5-3.91 11.44-5.03 6.96-1.97 14.02-2.46 21.18-1.4 7.58 1.13 14.55 3.85 20.86 8.2 18.88 12.99 26.27 36.55 18.86 57.6-7.67 21.79-27.78 32.94-45.24 33.25-.03-.19-.07-.39-.07-.58l.02-14.69c0-.17.03-.34.04-.55.49-.07.95-.16 1.41-.21 7.09-.7 13.49-3.19 19.25-7.35.47-.34.94-.71 1.35-1.12.35-.35.64-.76.92-1.17a1.6 1.6 0 0 0 .28-1c-.04-1.02-.92-1.52-1.79-1-.32.19-.61.46-.89.71-2.82 2.54-5.97 4.54-9.48 5.97-2.59 1.06-5.27 1.8-8.05 2.12-1.49.17-2.98.3-4.48.28-5.68-.06-10.95-1.54-15.79-4.51-8.29-5.09-13.75-12.35-16.58-21.63-.45-1.49-.81-3-1.11-4.52-.08-.43-.2-.87-.4-1.25-.45-.85-1.38-.84-1.88-.02-.24.4-.28.84-.23 1.28.09.87.17 1.75.33 2.61.95 5.26 3.15 9.99 6.32 14.26 4.7 6.34 10.68 11.08 17.97 14.12 3.05 1.27 6.23 2.07 9.52 2.37.11.01.22.05.32.07.22.29.14.59.14.87l.02 5.63.03 8.36c0 .31.05.64-.09.93-1.51.22-7.16-.46-10.39-1.22a49.29 49.29 0 0 1-9.94-3.49c-3.16-1.5-6.14-3.32-8.92-5.45s-5.31-4.53-7.58-7.16c-.37.11-.37.42-.47.64-.61 1.35-1.42 2.56-2.47 3.61-2.05 2.04-4.5 3.21-7.38 3.54-6.01.69-12.33-3.39-13.32-10.34-.95-6.62 3.24-11.79 8.45-13.39 1.88-.58 3.79-.75 5.79-.31 2.05 5.92 5.07 11.3 9.13 16.08.3-.08.31-.3.36-.49 2.13-6.82-1.74-13.32-7.78-15.34-.53-.16-1.07-.3-1.59-.45zm79.58-19.05l-.01-2.9c-.01-.44-.05-.88-.14-1.31-.14-.63-.66-.95-1.32-.91-.68.05-1.09.42-1.14 1.1a5.44 5.44 0 0 0 .04 1.14c.33 3 .19 5.97-.44 8.92-2.58 12.11-12.81 21.74-25.72 22.89-1.38.12-2.7-.13-3.83-1-1.11-.86-2.19-1.77-3.17-2.79-.53-.55-1.02-1.14-1.39-1.81-.57-1.04-.82-2.13-.59-3.31.11-.57.23-1.15.41-1.71.21-.67.47-1.32.74-1.98.41-1.01.69-2.05.75-3.15.13-2.15-.55-3.98-2.15-5.45-.32-.3-.7-.53-1.04-.81-.36-.3-.73-.6-1.04-.94-.59-.67-.62-1.43-.22-2.21a5.91 5.91 0 0 1 .54-.8c.18-.23.38-.44.58-.66.92-1.03 1.52-2.22 1.76-3.58.18-1.05.19-2.11 0-3.15-.32-1.81-1.41-2.97-3.15-3.56-1.27-.43-2.54-.39-3.82-.11-1.83.39-2.64 1.39-2.68 3.27-.01.56.01 1.11.04 1.67.07 1.42-.28 2.74-1.05 3.93-.35.54-.74 1.05-1.15 1.55a32.96 32.96 0 0 1-1.58 1.78c-.28.3-.59.58-.92.8-.4.27-.83.23-1.25-.01-.49-.28-.78-.7-.91-1.24-.06-.26-.09-.52-.08-.78.04-1.06.17-2.1.57-3.09.23-.57.42-1.16.46-1.78.04-.68-.21-1.22-.83-1.52-.47-.23-.97-.43-1.48-.54a34.78 34.78 0 0 0-3.03-.5 9.52 9.52 0 0 0-1.85-.03c-1.27.11-2.41.71-2.64 2.46a7.44 7.44 0 0 0-.09 1.05c-.03 2.59.19 5.15.7 7.69 2.11 10.49 9.71 19.23 19.34 22.86 1.26.48 2.54.92 3.86 1.2.88.18 1.42-.19 1.6-1.06.1-.48-.03-.88-.45-1.14a3.84 3.84 0 0 0-.8-.36c-.67-.21-1.35-.38-2.02-.6-4.47-1.53-8.35-4-11.59-7.43-5.09-5.42-7.8-11.83-7.92-19.3a8.17 8.17 0 0 1 .1-1.4c.09-.64.47-1.05 1.13-1.19.71-.15 1.4-.11 2.09.08.52.14.7.43.67.98-.01.23-.06.46-.11.69-.07.34-.17.68-.22 1.03-.22 1.47-.17 2.92.43 4.32.31.74.72 1.41 1.33 1.95a2.69 2.69 0 0 0 1.93.71c.6-.01 1.15-.21 1.69-.45.91-.43 1.72-1.01 2.45-1.7a14.68 14.68 0 0 0 3.42-4.86c.63-1.44.99-2.94.87-4.53a6.94 6.94 0 0 1-.01-.79c.04-.85.38-1.21 1.24-1.28.35-.03.71-.01 1.05.03 1.23.15 1.96.9 2.08 2.12.11 1.14-.06 2.23-.64 3.22-.31.53-.67 1.03-1.04 1.52-.46.61-.9 1.23-1.22 1.92-.65 1.41-.49 2.73.42 3.98.42.57.93 1.05 1.46 1.51.4.34.8.69 1.15 1.08.92 1.03 1.38 2.23 1.3 3.63-.03.59-.15 1.16-.34 1.72l-.98 3.01c-.44 1.31-.46 2.65-.19 3.99.51 2.49 1.77 4.57 3.52 6.38 1.1 1.13 2.36 2.02 3.82 2.61.94.37 1.91.56 2.92.52a30.37 30.37 0 0 0 5.92-.83c10-2.45 17.66-9.35 21.39-18.07 1.72-4 2.5-8.18 2.47-12.69zm-25.16-6.47c-.16-.12-.3-.18-.38-.29-.32-.42-.67-.82-.92-1.28a57.46 57.46 0 0 1-1.44-2.82 7.57 7.57 0 0 1-.46-1.23c-.09-.31-.13-.63-.15-.95-.06-.8.26-1.44.91-1.89.41-.28.85-.53 1.31-.7.6-.23 1.22-.4 1.84-.57 1.32-.36 2.2-1.18 2.64-2.48a17.01 17.01 0 0 0 .2-.67c.39-1.41.41-2.85.09-4.27-.34-1.51-.75-3.01-1.15-4.51-.08-.31-.21-.61-.35-.9-.29-.6-.75-1.04-1.39-1.28-.3-.11-.61-.23-.92-.29-1.29-.26-2.6-.46-3.92-.54-2.29-.13-4.58-.04-6.84.36a32.46 32.46 0 0 0-9.39 3.13c-5.17 2.66-9.4 6.36-12.56 11.26-1.52 2.36-2.55 4.94-3.42 7.59-.05.14-.09.28-.11.43-.08.51.12.91.59 1.17.48.26.99.41 1.5.07.14-.09.26-.25.34-.4.12-.23.22-.48.3-.73.8-2.47 1.94-4.78 3.34-6.95 3.94-6.13 9.41-10.2 16.46-12.14 2.64-.73 5.35-1.05 8.09-1.11.91-.02 1.82.01 2.72.15 2.5.39 4.04 1.99 4.32 4.5a12.17 12.17 0 0 1 .01 2.63c-.13 1.33-.81 2.23-2.06 2.7-.36.13-.73.23-1.09.35-1.58.53-2.9 1.41-3.79 2.85-.8 1.28-.94 2.61-.31 4.02.98 2.21 2.19 4.28 3.6 6.23.25.35.57.68.91.95.89.7 1.82.72 2.78.13.48-.3.89-.68 1.21-1.14.48-.7.96-1.4 1.39-2.14.41-.71.75-1.46 1.14-2.18.18-.33.37-.67.61-.96.43-.52.96-.53 1.43-.04.24.25.44.55.63.84.48.77.86 1.59 1.22 2.43.77 1.8 2.17 2.71 4.12 2.77a18.94 18.94 0 0 0 4.12-.32c1.64-.32 3.26-.73 4.88-1.14.45-.11.89-.3 1.3-.52.77-.41 1.05-.96.88-1.82-.12-.6-.28-1.2-.52-1.76-.7-1.61-1.41-3.22-2.19-4.8-.96-1.92-2.18-3.68-3.56-5.33-3.16-3.74-7.07-6.49-11.52-8.48a5.05 5.05 0 0 0-.74-.27 1.11 1.11 0 0 0-1.39.61c-.32.63-.26 1.19.23 1.59.22.18.49.31.76.44.58.28 1.18.52 1.75.82 6.26 3.29 10.77 8.21 13.58 14.68.14.32.27.65.35.99.21.96-.07 1.43-1 1.74a3.31 3.31 0 0 1-.42.12l-3.19.65c-1.1.19-2.2.32-3.32.1-.91-.18-1.57-.63-1.94-1.47-.22-.48-.43-.97-.6-1.46-.38-1.05-1.05-1.89-1.87-2.62-.3-.27-.66-.5-1.02-.68-1.03-.52-2.06-.45-2.99.24-.4.29-.76.65-1.06 1.05-.35.46-.63.99-.9 1.5-.33.62-.62 1.27-.95 1.88-.46.8-.94 1.54-1.72 2.16zm11.24 6.55c-.87-.01-1.9.17-2.91.5-1.54.51-2.96 1.27-4.29 2.19-1.13.78-2.32 1.31-3.75 1.28-.94-.02-1.66.5-2.13 1.33-.5.87-.34 1.8.47 2.41 1.75 1.33 3.54 2.6 5.51 3.61.81.41 1.65.75 2.48 1.11.21.09.46.16.67.13.86-.15 1.73-.31 2.57-.55.87-.25 1.52-.81 2.02-1.59.58-.92 1.22-1.79 1.87-2.66.61-.82 1.28-1.61 1.91-2.41a5.32 5.32 0 0 0 .55-.79c.6-1.09.42-2.25-.45-3.15-.44-.45-.97-.75-1.56-.95-.9-.32-1.82-.46-2.96-.46zm-16.88 25.27c.18 0 .35.01.53 0 1.42-.12 2.7-1.22 3.01-2.58.38-1.69-.61-3.92-2.11-4.78-.66-.37-1.34-.44-2.02-.12-1.63.77-2.73 2.01-3.16 3.77-.33 1.35.36 2.68 1.63 3.27.66.3 1.37.45 2.12.44zm-50.78-13.21c-3.66 1.34-8.28.13-10.85-3.45-2.51-3.49-2.38-8.38.42-11.75 2.86-3.44 7.52-4.13 10.45-2.87-.12 1.17-.39 2.33-.49 3.52-.11 1.22-.21 2.45-.26 3.68-.05 1.2-.05 2.4-.01 3.6.04 1.23.14 2.46.26 3.68.12 1.19.31 2.37.48 3.59zm2.38-26.55c-2.08-1.21-3.84-5.09-2.02-8.68 1.79-3.53 5.9-4.58 8.6-3.44-.06.12-.11.25-.19.36-2.57 3.52-4.63 7.32-6.22 11.38-.04.11-.09.22-.17.38zm12.8-18.96c-.93-1.87-.24-4.78 1.81-6.31 2.01-1.51 4.94-1.43 6.56-.01-.69.55-1.47.94-2.17 1.44l-2.14 1.53-2.07 1.63-1.99 1.72zm43.71 40.51l.9-.27c.77-.24 1.42-.68 1.95-1.29l.17-.2c.86-1.21 2.07-1.89 3.5-2.16 1.09-.21 2.2-.3 3.31-.43.2-.02.41-.01.61.03a.76.76 0 0 1 .49 1.16c-.09.15-.22.28-.34.39-1.1.99-1.93 2.18-2.64 3.48a8.38 8.38 0 0 1-.76 1.17c-.37.47-.88.75-1.48.88-.48.1-.93-.01-1.38-.16-.3-.1-.6-.24-.87-.41l-3.12-1.96c-.09-.04-.16-.1-.34-.23zm-8.49 15.71c-.09-.03-.37-.08-.63-.19a.56.56 0 0 1-.34-.72c.16-.58.47-1.07.97-1.4.41-.28.85-.19 1.14.22.12.16.21.35.29.54.31.81-.1 1.47-.96 1.55h-.47z" fill="#22205f"/><defs ><path id="B" d="M73.18 156.03v3.18h-9.26v-3.18h2.41l-.89-3.24h-4.89l-1 3.24h2.52v3.18h-8.34v-3.18h2.33l3.67-12.47h-2.5v-3.18h12.29v3.18h-2.53l3.95 12.47h2.24zm-8.52-5.99l-1.57-5.67-1.69 5.67h3.26z"/><path id="C" d="M93.98 143.57v-3.18h8.99v3.18h-1.85v8.51c0 1.14.05 1.96.14 2.46.1.5.35.91.75 1.24s.92.49 1.54.49c.64 0 1.17-.15 1.6-.46.42-.31.7-.69.82-1.15s.18-1.4.18-2.82v-8.27h-1.83v-3.18h7.5v3.18h-2.3v9.42c0 1.28-.07 2.21-.2 2.8-.14.58-.45 1.16-.93 1.73s-1.19 1.04-2.12 1.39c-.93.36-1.99.54-3.19.54-1.39 0-2.57-.2-3.55-.59s-1.71-.91-2.19-1.56-.79-1.29-.92-1.94c-.13-.64-.2-1.73-.2-3.28v-8.51h-2.24z"/><path id="D" d="M308.52 143.57v-3.18h8.99v3.18h-1.86v8.51c0 1.14.05 1.96.14 2.46s.34.91.75 1.24.92.49 1.54.49c.64 0 1.17-.15 1.6-.46.42-.31.7-.69.82-1.15s.18-1.4.18-2.82v-8.27h-1.83v-3.18h7.5v3.18h-2.3v9.42c0 1.28-.07 2.21-.2 2.8-.13.58-.45 1.16-.93 1.73s-1.19 1.04-2.12 1.39-1.99.54-3.19.54c-1.39 0-2.58-.2-3.55-.59-.98-.39-1.71-.91-2.19-1.56s-.79-1.29-.92-1.94-.2-1.73-.2-3.28v-8.51h-2.23z"/><path id="E" d="M372.58 159.21v-3.18h2.83v-12.47h-2.83v4.39h-3.24v-7.57h17.07v7.57h-3.2v-4.39h-2.91v12.47h2.83v3.18h-10.55z"/><path id="F" d="M425.58 159.21v-3.18h2.52v-12.47h-2.52v-3.18h7.91l6.93 11.74v-8.56h-2.45v-3.18h8.45v3.18h-2.64v15.79h-4.2l-8.12-13.96v10.64h2.37v3.18h-8.25z"/><path id="G" d="M101.34 177.48c0 3.81-2.64 5.47-5.13 5.47-2.79 0-4.94-2.04-4.94-5.3 0-3.45 2.25-5.47 5.11-5.47 2.97 0 4.96 2.15 4.96 5.3zm-8.16.1c0 2.25 1.3 3.96 3.13 3.96 1.79 0 3.13-1.68 3.13-4 0-1.74-.87-3.96-3.08-3.96-2.23 0-3.18 2.05-3.18 4z"/><path id="H" d="M104.77 175.63l-.08-3.21h1.64l.06 2.02h.08c.47-1.38 1.6-2.25 2.85-2.25.21 0 .36.02.53.06v1.76c-.19-.04-.38-.06-.64-.06-1.32 0-2.25 1-2.51 2.4a5.61 5.61 0 0 0-.08.87v5.49h-1.85v-7.08z"/><path id="I" d="M127.85 167.61v12.44l.08 2.66h-1.68l-.08-1.79h-.04c-.57 1.15-1.83 2.02-3.51 2.02-2.49 0-4.4-2.11-4.4-5.23-.02-3.42 2.11-5.53 4.62-5.53 1.57 0 2.64.75 3.11 1.57h.04v-6.15h1.86zm-1.87 8.99c0-.23-.02-.55-.09-.79-.28-1.19-1.3-2.17-2.7-2.17-1.94 0-3.08 1.7-3.08 3.98 0 2.08 1.02 3.81 3.04 3.81 1.25 0 2.4-.83 2.74-2.23.06-.25.09-.51.09-.81v-1.79z"/><path id="J" d="M199.96 175.2l-.08-2.79h1.66l.11 1.7h.04c.51-.98 1.7-1.94 3.4-1.94 1.42 0 3.64.85 3.64 4.38v6.15h-1.87v-5.93c0-1.66-.62-3.04-2.38-3.04-1.23 0-2.19.87-2.51 1.92-.08.23-.13.55-.13.87v6.19h-1.87v-7.51z"/><path id="K" d="M214.92 169.52c.02.64-.45 1.15-1.19 1.15-.66 0-1.13-.51-1.13-1.15a1.14 1.14 0 0 1 1.17-1.17c.7 0 1.15.51 1.15 1.17zm-2.09 13.19v-10.29h1.87v10.29h-1.87z"/><path id="L" d="M249.44 180.79a4.91 4.91 0 0 0 2.47.74c1.36 0 2-.68 2-1.53 0-.89-.53-1.38-1.91-1.89-1.85-.66-2.72-1.68-2.72-2.91 0-1.66 1.34-3.02 3.55-3.02 1.04 0 1.96.3 2.53.64l-.47 1.36c-.4-.26-1.15-.6-2.11-.6-1.11 0-1.72.64-1.72 1.4 0 .85.62 1.23 1.96 1.74 1.79.68 2.7 1.57 2.7 3.11 0 1.81-1.4 3.08-3.85 3.08-1.13 0-2.17-.28-2.89-.7l.46-1.42z"/></defs></svg>