<svg width="235" height="78" viewBox="0 0 235 78" fill="none" xmlns="http://www.w3.org/2000/svg">
<path id="Vector" d="M43.35 58.17C43.35 53.27 47.31 49.3 52.2 49.3C53.77 49.3 55.2201 49.74 56.4901 50.46C58.5501 46.71 62.53 44.17 67.11 44.17C68.3 44.17 69.45 44.35 70.54 44.67C73.38 36.94 80.77 31.42 89.48 31.42C90.53 31.42 91.56 31.52 92.57 31.68C94.74 13.83 109.9 0 128.31 0C145.06 0 159.1 11.46 163.14 26.96C165.91 25.83 168.94 25.2 172.12 25.2C184.09 25.2 193.98 34.01 195.74 45.51C200.04 46.73 203.19 50.68 203.19 55.38C203.19 56.42 203.03 57.42 202.75 58.37C221.25 59.01 234.88 61.19 234.88 63.78C234.88 66.87 215.48 69.38 191.54 69.38C189.32 69.38 187.14 69.36 185.01 69.32C181.29 71.71 176.87 73.12 172.12 73.12C168.66 73.12 165.38 72.37 162.41 71.05C160.18 75.07 155.91 77.79 150.99 77.79C146.07 77.79 141.41 74.8 139.29 70.47C135.83 71.58 132.14 72.19 128.31 72.19C125.73 72.19 123.21 71.91 120.78 71.39C118.39 74.16 114.86 75.92 110.91 75.92C106 75.92 101.73 73.2 99.5 69.19C96.54 70.89 93.12 71.88 89.47 71.88C84.65 71.88 80.22 70.18 76.75 67.36C74.44 67.72 71.79 68.04 68.86 68.32C68.44 68.38 68.01 68.42 67.58 68.44C60.66 69.04 52.32 69.4 43.34 69.4C19.4 69.4 0 66.89 0 63.8C0 60.71 19.4 58.2 43.34 58.2L43.35 58.17Z" fill="white"/>
</svg>
