<svg xmlns="http://www.w3.org/2000/svg" viewBox="0 0 500 500" xmlns:v="https://vecta.io/nano"><style><![CDATA[.B{fill:#417cfe}.C{fill:#37474f}.D{fill:#263238}.E{fill:#455a64}.F{fill:#fff}.G{opacity:.2}.H{fill:#e0e0e0}.I{opacity:.4}.J{opacity:.3}.K{fill:#ffa8a7}.L{fill:#fafafa}.M{fill:#b16668}.N{fill:#f0f0f0}.O{fill:#ebebeb}.P{fill:#9a4a4d}]]></style><ellipse cx="250" cy="353.64" rx="223.42" ry="128.99" class="N"/><g class="H"><path d="M335 363.48l27.21 15.7a6.86 6.86 0 0 0 6.24 0l56.46-32.6c1.72-1 1.72-2.61 0-3.6l-27.2-15.71a6.93 6.93 0 0 0-6.24 0L335 359.87c-1.73 1-1.73 2.61 0 3.61zm-298.21 9.17l58.53 33.79 192.29-111.03-58.52-33.78-192.3 111.02z"/><ellipse cx="278.45" cy="327.94" rx="45.14" ry="26.06"/><ellipse cx="151.75" cy="395.51" rx="45.14" ry="26.06"/></g><use href="#B" class="B"/><use href="#B" opacity=".8" class="F"/><path d="M384.59 99.65h0 0a6.65 6.65 0 0 0-5.58-10.25 6.75 6.75 0 0 0-1.57.2h-.08c-3.89.87-14.25 4.16-21.74 9l9.76 16.12.32-.2c5.25-3.16 14.49-10.25 17.83-13.67a7.68 7.68 0 0 0 .85-1h0z" class="H"/><path d="M353.71 102.93a14.73 14.73 0 0 0 6.67 11.55c3.68 2.13 6.66.4 6.66-3.85a14.73 14.73 0 0 0-6.66-11.55c-3.69-2.08-6.67-.41-6.67 3.85z" class="O"/><path d="M355.59 104a10.54 10.54 0 0 0 4.79 8.29c2.64 1.53 4.78.29 4.78-2.76a10.59 10.59 0 0 0-4.78-8.29c-2.65-1.51-4.79-.24-4.79 2.76z" class="H"/><path d="M395.03 88.33L360.35 68.3l10.99 33.7 23.69-13.67z" class="N"/><path d="M395 125.29l-50.69 29.26c-5.78 3.32-15.91 8-23.64 8.67-8.59.77-11.85-1-13.7-2.51-3.84-3.08-1.45-10.07 2.66-13.86a23.62 23.62 0 0 1 5.37-10.78c4.46-5.12 18.57-13.41 30.92-20.65S395 88.33 395 88.33l32 18.48z" class="L"/><g class="B"><use href="#C"/><use href="#D"/><use href="#E"/><use href="#F"/></g><g opacity=".7" class="F"><use href="#C"/><use href="#D"/><use href="#E"/><use href="#F"/></g><path d="M343.41 149.09a1.08 1.08 0 0 1-.53-.14 1.31 1.31 0 0 1-.58-1.21v-10a3.44 3.44 0 0 1 1.58-2.74l3-1.75a1.19 1.19 0 0 1 1.92 1.11v10a3.45 3.45 0 0 1-1.59 2.74l-3 1.75a1.6 1.6 0 0 1-.8.24zm4.29-15.45a1 1 0 0 0-.47.15l-3 1.74a2.86 2.86 0 0 0-1.26 2.18v10a.73.73 0 0 0 .26.64.72.72 0 0 0 .67-.1l3-1.75a2.82 2.82 0 0 0 1.26-2.17v-10a.71.71 0 0 0-.25-.64.46.46 0 0 0-.21-.05zm9.98-1.2v2.65c0 .54.38.76.85.49l1-.56a1.87 1.87 0 0 0 .85-1.47v-2.66c0-.54-.38-.76-.85-.49l-1 .56a1.88 1.88 0 0 0-.85 1.48zm16.01-9.25v2.65c0 .55.38.77.85.5l1-.56a1.88 1.88 0 0 0 .85-1.48v-2.65c0-.54-.38-.76-.85-.49l-1 .56a1.87 1.87 0 0 0-.85 1.47zm5.31-3.08v2.65c0 .55.38.77.86.5l1-.56a1.88 1.88 0 0 0 .85-1.48v-2.65c0-.54-.38-.76-.85-.49l-1 .56a1.86 1.86 0 0 0-.86 1.47zm5.36-3.11v2.65c0 .55.38.77.85.5l1-.56a1.89 1.89 0 0 0 .86-1.48v-2.65c0-.54-.39-.76-.86-.49l-1 .56a1.87 1.87 0 0 0-.85 1.47zM403 106.25v2.65c0 .55.38.77.85.5l1-.56a1.88 1.88 0 0 0 .85-1.48v-2.65c0-.54-.38-.76-.85-.49l-1 .55a1.91 1.91 0 0 0-.85 1.48zm5.37-3.08v2.65c0 .55.38.77.85.49l1-.55a1.88 1.88 0 0 0 .85-1.48v-2.65c0-.54-.38-.76-.85-.49l-1 .55a1.91 1.91 0 0 0-.85 1.48zm6.19.06l1-.55a1.88 1.88 0 0 0 .85-1.48v-.55l-2.41-1.4a1.81 1.81 0 0 0-.25.84v2.65c-.05.55.33.77.81.49zM389.69 114v2.65c0 .55.39.77.86.5l1-.56a1.88 1.88 0 0 0 .85-1.48v-2.65c0-.54-.38-.76-.85-.49l-1 .55a1.92 1.92 0 0 0-.86 1.48zm5.31-3.13v2.65c0 .55.38.77.85.49l1-.55a1.89 1.89 0 0 0 .86-1.48v-2.65c0-.54-.39-.76-.86-.49l-1 .55a1.91 1.91 0 0 0-.85 1.48zm-32 18.48V132c0 .54.38.76.85.49l1-.56a1.88 1.88 0 0 0 .85-1.48v-2.65c0-.54-.38-.76-.85-.49l-1 .56a1.87 1.87 0 0 0-.85 1.48zm72.25-.35h0a6.54 6.54 0 0 0 1.07-3.6 6.64 6.64 0 0 0-6.64-6.64 6.83 6.83 0 0 0-1.58.19h-.07c-3.89.87-14.25 4.16-21.74 9.05l9.79 16 .32-.2c5.25-3.16 14.49-10.24 17.83-13.67a7.11 7.11 0 0 0 .85-1h0z" class="H"/><path d="M404.36 132.22a14.76 14.76 0 0 0 6.64 11.55c3.69 2.13 6.67.4 6.67-3.85a14.73 14.73 0 0 0-6.67-11.55c-3.65-2.13-6.64-.37-6.64 3.85z" class="O"/><path d="M406.25 133.31a10.59 10.59 0 0 0 4.75 8.29c2.65 1.52 4.79.29 4.79-2.77a10.57 10.57 0 0 0-4.79-8.29c-2.61-1.54-4.75-.28-4.75 2.77z" class="H"/><path d="M392.36 123.56h63.7l-31.69-18.29-32.01 18.29z" class="N"/><path d="M272.4 253.45l-2.06-3.56 4.18-2.42a5 5 0 0 0 2-5.13l-5.89-23.8a11.89 11.89 0 0 0-4.72-6.28l-24.56-14.16c-.67-.39-1-.34-1.09-.31s-.28.33-.28 1.1v18.67a11.66 11.66 0 0 1-5.21 9.34l-4.18 2.42-2.06-3.57 4.18-2.41a7.53 7.53 0 0 0 3.16-5.78v-18.67a4.73 4.73 0 0 1 7.54-4.36l24.53 14.17a16 16 0 0 1 6.66 8.85l5.89 23.8a9.1 9.1 0 0 1-3.91 9.69zM96 347.69h-5.15v46.21h0a1.28 1.28 0 0 0 .75 1 4 4 0 0 0 3.61 0 1.28 1.28 0 0 0 .75-1h0zm-33.48-19.27h-5.11v46.2h0a1.26 1.26 0 0 0 .74 1 4 4 0 0 0 3.62 0 1.25 1.25 0 0 0 .75-1h0zm76.29-5.42h-5.12v46.21h0a1.25 1.25 0 0 0 .74 1 4 4 0 0 0 3.62 0 1.26 1.26 0 0 0 .75-1h0zm-33.45-19.32h-5.11v46.2h0a1.25 1.25 0 0 0 .75 1 4 4 0 0 0 3.61 0 1.25 1.25 0 0 0 .75-1h0zm76.29-5.46h-5.11v46.2h0a1.26 1.26 0 0 0 .75 1 4 4 0 0 0 3.61 0 1.26 1.26 0 0 0 .75-1h0zm-33.44-19.28h-5.11v46.2h0a1.28 1.28 0 0 0 .75 1.05 4 4 0 0 0 3.61 0 1.28 1.28 0 0 0 .75-1.05h0zm76.29-5.46h-5.11v46.2h0a1.26 1.26 0 0 0 .75 1 4 4 0 0 0 3.61 0 1.26 1.26 0 0 0 .75-1h0zm-33.44-19.28h-5.12v46.2h0a1.28 1.28 0 0 0 .75 1.05 4 4 0 0 0 3.62 0 1.28 1.28 0 0 0 .75-1.05h0zm76.29-5.46h-5.12v46.2h0a1.25 1.25 0 0 0 .75 1 4 4 0 0 0 3.62 0 1.25 1.25 0 0 0 .75-1h0zm-33.45-19.28h-5.11v46.2h0a1.28 1.28 0 0 0 .75 1 4 4 0 0 0 3.61 0 1.28 1.28 0 0 0 .75-1h0z" class="C"/><path d="M245.97 252.06l-25.68-14.35-129.17 74.58v2.83l25.08 14.48 129.77-74.71v-2.83z" class="D"/><path d="M91.12 312.29l129.17-74.58 25.68 14.35-129.77 74.71-25.08-14.48z" class="E"/><g class="C"><use href="#G"/><use href="#G" x="31.714" y="-16.337"/></g><g class="B"><path d="M156.11,325.67h0a31.27,31.27,0,0,0-11.42-11.42L106,291.88h0L51.6,323.26v2.41l37.33,21.56a31,31,0,0,1,11.42,11.42l54.35-31.38h0Z"/><path d="M51.6,323.26l38.74,22.36a31.17,31.17,0,0,1,11.43,11.43h0l54.34-31.38h0a31.27,31.27,0,0,0-11.42-11.42L106,291.88h0Z"/></g><path d="M101.77 357.05l-1.42 1.6 54.35-31.38h0l1.41-1.6-54.34 31.38z" opacity=".5"/><path d="M51.6,325.67l37.33,21.56a31,31,0,0,1,11.42,11.42l1.42-1.6-.14-.24a31.21,31.21,0,0,0-11.29-11.19L51.6,323.26Z" class="G"/><path d="M101.77 284.64l-8.37-67.58-2.26-1.31-54.35 31.38 8.36 67.58 2.27 1.31 54.35-31.38z" class="B"/><use href="#H" class="G"/><path d="M47.42 316.02l54.35-31.38-8.37-67.58-54.34 31.38 8.36 67.58z" class="B"/><path d="M36.79 247.13l2.27 1.31 54.34-31.38-2.26-1.31-54.35 31.38z" class="F I"/><g class="C"><use href="#G" x="62.704" y="-36.202"/><use href="#G" x="94.418" y="-52.538"/></g><g class="B"><path d="M218.81,289.47h0a31.19,31.19,0,0,0-11.42-11.42l-38.74-22.37h0l-54.34,31.38v2.41L151.64,311a31.12,31.12,0,0,1,11.42,11.42l54.34-31.38h0Z"/><path d="M114.31,287.06l38.74,22.36a31.22,31.22,0,0,1,11.42,11.43h0l54.34-31.38h0a31.19,31.19,0,0,0-11.42-11.42l-38.74-22.37h0Z"/></g><path d="M164.47 320.85l-1.41 1.6 54.34-31.38h0l1.41-1.6-54.34 31.38z" opacity=".5"/><path d="M114.31,289.47,151.64,311a31.12,31.12,0,0,1,11.42,11.42l1.41-1.6-.13-.24a31.29,31.29,0,0,0-11.29-11.19l-38.74-22.36Z" class="G"/><path d="M164.47 248.44l-8.36-67.58-2.27-1.31-54.34 31.38 8.36 67.58 2.27 1.31 54.34-31.38z" class="B"/><use href="#H" x="62.71" y="-36.2" class="G"/><path d="M110.13 279.82l54.34-31.38-8.36-67.58-54.34 31.38 8.36 67.58z" class="B"/><path d="M99.5 210.93l2.27 1.31 54.34-31.38-2.27-1.31-54.34 31.38z" class="F I"/><g class="C"><use href="#G" x="125.407" y="-72.413"/><use href="#G" x="157.121" y="-88.74"/></g><g class="B"><path d="M281.52,253.27h0a31.22,31.22,0,0,0-11.42-11.43l-38.74-22.36h0L177,250.85v2.42l37.33,21.55a31.19,31.19,0,0,1,11.42,11.42l54.35-31.37h0Z"/><path d="M177,250.85l38.74,22.37a31.22,31.22,0,0,1,11.43,11.42h0l54.34-31.37h0a31.22,31.22,0,0,0-11.42-11.43l-38.74-22.36h0Z"/></g><path d="M227.18 284.64l-1.42 1.6 54.35-31.37h0l1.41-1.6-54.34 31.37z" opacity=".5"/><path d="M177,253.27l37.33,21.55a31.19,31.19,0,0,1,11.42,11.42l1.42-1.6-.14-.23a31.14,31.14,0,0,0-11.29-11.19L177,250.85Z" class="G"/><path d="M227.18 212.24l-8.37-67.58-2.27-1.31-54.34 31.37 8.36 67.58 2.27 1.31 54.35-31.37z" class="B"/><use href="#H" x="125.41" y="-72.41" class="G"/><path d="M172.83 243.61l54.35-31.37-8.37-67.58-54.34 31.37 8.36 67.58z" class="B"/><path d="M162.2 174.72l2.27 1.31 54.34-31.37-2.27-1.31-54.34 31.37z" class="F I"/><path d="M93,350l-2.71,1.56a6,6,0,0,1-3,.83,5.37,5.37,0,0,1-2.06-.41,6.15,6.15,0,0,1-3.41-4.28l-1.33-5.36-.69-2.81-3.87-15.63a12,12,0,0,0-4.72-6.29L53,307.1c-.67-.39-1-.34-1.09-.31s-.28.33-.28,1.1v18.67c0,.85.24,1.18.3,1.22a1.38,1.38,0,0,0,.8-.26l1-.61,4.12,2.38-3.1,1.79a4.86,4.86,0,0,1-4.92.26,5.29,5.29,0,0,1-2.35-4.78V307.89A4.73,4.73,0,0,1,55,303.54l18.23,10.52a16,16,0,0,1,6.66,8.86l4.83,19.47.7,2.82.37,1.51a2,2,0,0,0,1,1.48,1.53,1.53,0,0,0,1.36-.19l1-.59A29.9,29.9,0,0,1,93,350Z" class="C"/><g class="B"><path d="M180.83 37.21L73.32 99.29a2.54 2.54 0 0 0-1.15 2v31.05a2.5 2.5 0 0 0 1.15 2l4.13 2.31a2.57 2.57 0 0 0 2.31 0l107.51-62.12a2.52 2.52 0 0 0 1.15-2V41.49a2.51 2.51 0 0 0-1.16-2l-4.12-2.31a2.57 2.57 0 0 0-2.31.03z"/><path d="M78.61 136v-31a2.54 2.54 0 0 1 1.15-2l107.51-62.17c.64-.37 1.15-.07 1.15.66v31.05a2.52 2.52 0 0 1-1.15 2L79.76 136.61c-.64.39-1.15.07-1.15-.61z"/></g><path d="M79.76 136.61a2.61 2.61 0 0 1-2.31 0l-4.13-2.31a2.53 2.53 0 0 1-1.15-2v-31.02a2.38 2.38 0 0 1 .36-1.17l6.47 3.66a2.34 2.34 0 0 0-.34 1.13v31a.71.71 0 0 0 1.1.71z" class="G"/><g class="F"><path d="M188.41 41.29c-.09-.58-.57-.79-1.14-.46L79.76 102.91a2.32 2.32 0 0 0-.81.86l-6.42-3.66a2.15 2.15 0 0 1 .79-.82l107.51-62.08a2.57 2.57 0 0 1 2.31 0l4.12 2.31a2.55 2.55 0 0 1 1.15 1.77z" class="I"/><path d="M181.89 53.5a1.09 1.09 0 0 0-1.13 0l-8.73 5a1.149 1.149 0 1 0 1.13 2l5.59-3.22L171.32 73a1.13 1.13 0 0 0 .54 1.51 1.2 1.2 0 0 0 .48.11 1.13 1.13 0 0 0 1-.65l6.82-14.44v8.38a1.14 1.14 0 1 0 2.27 0V54.48a1.13 1.13 0 0 0-.54-.98zm-97.62 70.78c.34.32.9-.78.9-.78l1.32 1.81.2-.43-.48-3.43s1.71-2.59 3.79-6.45l4.69 4.5.23-.47-2.2-6.22.49-1c.09-.19.07-.4 0-.47s-.29 0-.38.22l-.3.63-.42-1.2c2.31-4.83 3.58-8.15 2.72-9s-2.53 2.1-4.8 7l-.94-.11.3-.64a.66.66 0 0 0 0-.57c-.09-.13-.23-.08-.32.11l-.49 1-4.86-.58-.22.48 4.68 4.53-2.77 7.46-2.41.63-.2.43 1.67 1.07s-.53 1.2-.2 1.48zm20.58-24.12a2.56 2.56 0 0 1 1.19-.41 1.12 1.12 0 0 1 .84.3 2 2 0 0 1 .52.94 6.81 6.81 0 0 1 .22 1.5v2.11a10.59 10.59 0 0 1-.22 1.75 7.14 7.14 0 0 1-.51 1.54 5.25 5.25 0 0 1-.83 1.27 4.52 4.52 0 0 1-1.17 1l-2.33 1.35a.13.13 0 0 1-.17 0 .32.32 0 0 1-.08-.23V102a.76.76 0 0 1 .08-.32.41.41 0 0 1 .17-.21zm1.52 3a3 3 0 0 0-.12-.78 1.23 1.23 0 0 0-.28-.52.68.68 0 0 0-.48-.18 1.51 1.51 0 0 0-.69.23l-1.24.72v6.42l1.29-.75a2.44 2.44 0 0 0 .66-.54 3 3 0 0 0 .46-.72 3.77 3.77 0 0 0 .28-.84 4.83 4.83 0 0 0 .12-.93v-2.06zm7.24.14a.14.14 0 0 1 .18 0 .3.3 0 0 1 .07.23v1a.7.7 0 0 1-.07.31.46.46 0 0 1-.18.22l-4.06 2.35a.14.14 0 0 1-.18 0 .28.28 0 0 1-.08-.22V98a.75.75 0 0 1 .08-.31.51.51 0 0 1 .18-.22l4-2.3a.12.12 0 0 1 .17 0 .32.32 0 0 1 .08.23v1a.76.76 0 0 1-.08.32.46.46 0 0 1-.17.21l-3 1.73v2.27l2.78-1.61a.14.14 0 0 1 .18 0 .3.3 0 0 1 .07.23v1a.7.7 0 0 1-.07.31.46.46 0 0 1-.18.22l-2.78 1.61v2.37zm4.59-10.86c.75-.43 1.33-.49 1.75-.19a2.48 2.48 0 0 1 .62 2A5.91 5.91 0 0 1 120 97a4.48 4.48 0 0 1-1.75 1.83l-1.48.86v3.18a.7.7 0 0 1-.07.31.51.51 0 0 1-.18.22l-.75.43a.13.13 0 0 1-.17 0 .32.32 0 0 1-.08-.23v-9.19a.76.76 0 0 1 .08-.32.46.46 0 0 1 .17-.21zm-1.48 5.49l1.44-.82a2.51 2.51 0 0 0 .84-.81 2.43 2.43 0 0 0 .32-1.3c0-.54-.11-.84-.32-.93a1 1 0 0 0-.84.18l-1.44.83zm7.98-9.23c.1-.06.17-.06.22 0a.72.72 0 0 1 .13.29l2.27 7.7a.25.25 0 0 1 0 .09.76.76 0 0 1-.08.32.46.46 0 0 1-.17.21l-.67.39c-.12.07-.21.08-.26 0a.46.46 0 0 1-.1-.18l-.4-1.35-2.92 1.69-.4 1.81a1.43 1.43 0 0 1-.1.29.77.77 0 0 1-.26.28l-.67.38a.14.14 0 0 1-.18 0 .32.32 0 0 1-.07-.23.41.41 0 0 1 0-.11L123.33 90a1.79 1.79 0 0 1 .13-.44.54.54 0 0 1 .22-.25zm.51 6l-1-3.47-1 4.65zm6.06-9.8c.78-.45 1.36-.51 1.76-.19a2.44 2.44 0 0 1 .61 2 6 6 0 0 1-.32 2 4.78 4.78 0 0 1-.91 1.62l1.28 2.67a.32.32 0 0 1 0 .14.57.57 0 0 1-.06.25.39.39 0 0 1-.14.18l-.79.45c-.13.07-.22.08-.28 0a.48.48 0 0 1-.12-.17l-1.21-2.63-1.23.72v3.36a.71.71 0 0 1-.08.31.46.46 0 0 1-.18.22l-.75.43a.12.12 0 0 1-.17 0 .3.3 0 0 1-.08-.23v-9.22a.68.68 0 0 1 .08-.31.51.51 0 0 1 .17-.22zm-1.38 5.29l1.34-.77a2.6 2.6 0 0 0 .84-.77 2.27 2.27 0 0 0 .32-1.27c0-.53-.11-.83-.32-.89a1.17 1.17 0 0 0-.84.22l-1.34.77zm9.66-10.07a.14.14 0 0 1 .18 0 .32.32 0 0 1 .07.23v1a.74.74 0 0 1-.07.32.48.48 0 0 1-.18.21l-1.66 1v7.82a.71.71 0 0 1-.08.31.51.51 0 0 1-.17.22l-.75.43a.14.14 0 0 1-.18 0 .32.32 0 0 1-.07-.23v-7.85l-1.67 1a.15.15 0 0 1-.18 0 .32.32 0 0 1-.07-.23v-1a.74.74 0 0 1 .07-.32.43.43 0 0 1 .18-.21zm6.65-3.84a.14.14 0 0 1 .18 0 .32.32 0 0 1 .07.23v5.85a8.43 8.43 0 0 1-.16 1.69 7 7 0 0 1-.5 1.52 5.19 5.19 0 0 1-.84 1.27 4.4 4.4 0 0 1-1.16.94 2.51 2.51 0 0 1-1.16.4 1.17 1.17 0 0 1-.83-.31 2 2 0 0 1-.49-.95 5.89 5.89 0 0 1-.16-1.5v-5.84a.73.73 0 0 1 .07-.31.43.43 0 0 1 .18-.21l.75-.44a.14.14 0 0 1 .17 0 .32.32 0 0 1 .08.23v5.78a3.46 3.46 0 0 0 .1.94 1 1 0 0 0 .29.51.57.57 0 0 0 .44.13 1.44 1.44 0 0 0 .56-.21 2.74 2.74 0 0 0 .58-.45 3 3 0 0 0 .45-.64 3.85 3.85 0 0 0 .29-.85 5 5 0 0 0 .1-1.06v-5.76a.76.76 0 0 1 .08-.32.46.46 0 0 1 .17-.21zm4.8-2.74c.77-.45 1.35-.51 1.75-.19a2.4 2.4 0 0 1 .61 2 6 6 0 0 1-.31 2 5 5 0 0 1-.91 1.62l1.27 2.78a.39.39 0 0 1 0 .14.62.62 0 0 1-.06.26.41.41 0 0 1-.14.17l-.79.46c-.12.07-.22.08-.27 0a.55.55 0 0 1-.13-.18l-1.22-2.7-1.23.71v3.32a.76.76 0 0 1-.08.32.67.67 0 0 1-.17.22l-.75.43a.15.15 0 0 1-.18 0 .32.32 0 0 1-.07-.23v-9.22a.74.74 0 0 1 .07-.32.48.48 0 0 1 .18-.21zm-1.39 5.29l1.34-.78a2.5 2.5 0 0 0 .84-.77 2.22 2.22 0 0 0 .32-1.26c0-.54-.11-.83-.32-.89a1.15 1.15 0 0 0-.84.21l-1.34.78zm9.69-1.91a.14.14 0 0 1 .18 0 .3.3 0 0 1 .07.23v1a.67.67 0 0 1-.07.31.46.46 0 0 1-.18.22l-4.06 2.35a.14.14 0 0 1-.18 0 .28.28 0 0 1-.08-.22V71.6a.76.76 0 0 1 .08-.32.43.43 0 0 1 .18-.21l4-2.31a.13.13 0 0 1 .17 0 .32.32 0 0 1 .08.23v1a.76.76 0 0 1-.08.32.46.46 0 0 1-.17.21l-3 1.73v2.27l2.76-1.59a.14.14 0 0 1 .18 0 .3.3 0 0 1 .07.23v1a.74.74 0 0 1-.07.32.48.48 0 0 1-.18.21l-2.78 1.61v2.37zm4.09-10.7a2.38 2.38 0 0 1 1.09-.38 1.33 1.33 0 0 1 .79.19 1.39 1.39 0 0 1 .47.57 2.11 2.11 0 0 1 .18.78.49.49 0 0 1-.07.31.39.39 0 0 1-.18.21l-.64.38c-.11.06-.19.07-.24 0a.47.47 0 0 1-.15-.16.71.71 0 0 0-.42-.38c-.19-.07-.46 0-.83.22a2.48 2.48 0 0 0-.46.34 2.27 2.27 0 0 0-.38.45 2 2 0 0 0-.26.51 1.7 1.7 0 0 0-.09.54 1 1 0 0 0 .09.48.37.37 0 0 0 .29.19 1.86 1.86 0 0 0 .55 0l.86-.19a3.58 3.58 0 0 1 1-.12 1.06 1.06 0 0 1 .65.22 1.16 1.16 0 0 1 .36.62 3 3 0 0 1 .13 1 4.55 4.55 0 0 1-.19 1.3 5.69 5.69 0 0 1-.52 1.25 5.5 5.5 0 0 1-.85 1.1 5 5 0 0 1-1.12.88 3.14 3.14 0 0 1-1 .38 1.47 1.47 0 0 1-.84-.08 1.25 1.25 0 0 1-.59-.53 2.33 2.33 0 0 1-.25-1 .71.71 0 0 1 .07-.32.65.65 0 0 1 .18-.21l.65-.37q.17-.09.24-.06a.34.34 0 0 1 .14.18 2.54 2.54 0 0 0 .16.28.42.42 0 0 0 .25.18.72.72 0 0 0 .39 0 1.84 1.84 0 0 0 .59-.25 3.23 3.23 0 0 0 .54-.37 2.85 2.85 0 0 0 .45-.47 2.61 2.61 0 0 0 .32-.56 1.59 1.59 0 0 0 .12-.62.59.59 0 0 0-.13-.43.5.5 0 0 0-.4-.12 3.25 3.25 0 0 0-.65.11l-.9.19a3 3 0 0 1-.81.06.94.94 0 0 1-.57-.25 1.24 1.24 0 0 1-.34-.61 4.13 4.13 0 0 1-.11-1 4.78 4.78 0 0 1 .18-1.29 6.28 6.28 0 0 1 .51-1.22 5.72 5.72 0 0 1 .78-1 4.16 4.16 0 0 1 .96-.93z"/></g><path d="M376.05 245.24v-51.9l3.46-2v51.9l-3.46 2z" class="E"/><path d="M372.59 191.33v55.9l3.46-1.99v-51.91l-3.46-2z" class="D"/><path d="M355.37 257.18l-3.46-1.96 20.76-11.98 3.38 2-20.68 11.94z" class="C"/><path d="M351.91 259.18v-51.9l3.46-2v51.9l-3.46 2z" class="E"/><path d="M348.45 205.28v55.9l3.46-2v-51.9l-3.46-2z" class="C"/><g class="B"><path d="M375.17 187.17a2.64 2.64 0 0 0-2.73.27l-20.31 11.72a7.91 7.91 0 0 0-3.68 6.12v4l3.46 2 27.6-16v-4a2.34 2.34 0 0 0-.89-2.09l-3.45-2.02z"/><use href="#I"/></g><use href="#I" class="G"/><path d="M353,203.89a7,7,0,0,0-1,3.39v4l-3.46-2v-4a6.86,6.86,0,0,1,1.05-3.38Z" class="I"/><use href="#J" class="B"/><use href="#J" class="G"/><use href="#K" class="B"/><use href="#K" class="I"/><path d="M359.37 359a14.61 14.61 0 0 0-6.61-11.44c-1.92-1.1-3.63-1.15-4.84-.34h0l-4.45 2.54 9.47 16.1 4.42-2.54h0c1.23-.68 2.01-2.17 2.01-4.32z" class="E"/><path d="M348.13 350.23a14.59 14.59 0 0 1 6.61 11.44c0 4.21-3 5.92-6.61 3.81a14.61 14.61 0 0 1-6.6-11.44c0-4.21 2.96-5.92 6.6-3.81z" class="C"/><path d="M348.13 355a5.56 5.56 0 0 1 2.52 4.36c0 1.6-1.13 2.25-2.52 1.45a5.57 5.57 0 0 1-2.51-4.36c0-1.65 1.13-2.3 2.51-1.45z" class="D"/><path d="M362.29,365.1l3.57,2.09a2.32,2.32,0,0,0,2.32,0l5.76-3.32V359.8a.83.83,0,0,0-1.25-.71l-3.49,2-5.67-3.29a.83.83,0,0,0-1.24.72Z" class="C"/><path d="M369.21 364.83v-3.73h0l-5.67-3.29a.83.83 0 0 0-1.24.72v6.56h0l3.21 1.85a2.82 2.82 0 0 0 2.22.41 1.8 1.8 0 0 0 .38-.16 2.58 2.58 0 0 0 1.1-2.36z" class="D"/><path d="M413.1,341.24a2.58,2.58,0,0,0,1.09-2.38v-3.72h0l-3.69,2.13a2.1,2.1,0,0,0-1.05,1.81v4.28Z" class="C"/><g class="B"><path d="M369.21,309.16c19-22.19,33.63-29.52,45-26v-4c-11.35-3.56-25.94,3.77-45,26Z"/><path d="M412 252.5l-45 26a9.75 9.75 0 0 0-3-2.84l-18.76-10.84a2.7 2.7 0 0 0-2.44-.34l44.81-25.88a2.58 2.58 0 0 1 2.6.25L409 249.66a10.19 10.19 0 0 1 3 2.84z" class="J"/></g><path d="M393.38 248.41a4.79 4.79 0 0 0-4.33 0l-2.16 1.25v.7l4.33 2.5 2.16-1.25a1.52 1.52 0 0 0 .9-1.25v-.71a1.51 1.51 0 0 0-.9-1.24z" class="D"/><path d="M386.89,249.66l2.16-1.25a4.79,4.79,0,0,1,4.33,0,1.32,1.32,0,0,1,0,2.5l-2.16,1.25Z" class="E"/><path d="M391.22 248.75v3.41l-4.33-2.5v-3.41l4.33 2.5z" class="C"/><path d="M369.57 261.3l21.65-12.55-4.33-2.5-21.65 12.5 4.33 2.55z" class="E"/><path d="M365.24 262.15v-3.4l4.33 2.55v3.35l-4.33-2.5z" class="C"/><path d="M369.56,264.65l-4.33-2.5-2.16,1.25a1.5,1.5,0,0,0-.89,1.24v.73a1.49,1.49,0,0,0,.89,1.24,4.76,4.76,0,0,0,4.33,0l2.16-1.25Z" class="D"/><path d="M365.24,262.15l-2.16,1.25a1.32,1.32,0,0,0,0,2.5,4.79,4.79,0,0,0,4.33,0l2.16-1.25Z" class="E"/><g class="D"><path d="M370.27 260.89v4.07l-.71.41v-4.07l.71-.41zm20.95-12.14v4.11l-.72.41v-4.1l.72-.42z"/><path d="M369.56 262.15l21.66-12.54v-.86l-21.66 12.55v.85z"/></g><path d="M390.5 253.27v-3.25l-2.8 1.63 2.8 1.62z" class="C"/><path d="M226.65 173.85c9.39-.51 12.43 10.73 16.15 17.47l13.06 23.25-9.43 5.78-18.36-27.23z" class="K"/><path d="M226.66,173.85a8.68,8.68,0,0,1,6.24,1.27c2.84,2,4.29,4.51,6.46,8.27s6.65,13.7,6.65,13.7-4.48,6-11.8,6.88l-7.72-15.68Z" class="E"/><path d="M264.56 310.35s1.56 10.63 4.67 14.59c2.8 3.56 4.82 8.1 8.15 11.81.72.81 2.37 2.31 3 3a1.28 1.28 0 0 1-.1 2c-1.43 1.41-7.57 1.85-11.06-.67s-7-7.37-9.05-9.42l-2.75-2.71a2.81 2.81 0 0 1-.74-2.64 17.03 17.03 0 0 0 .22-1c.44-2-2.32-10.1-2.32-10.1z" class="K"/><path d="M257.16,331a5.4,5.4,0,0,0,.34,1.91c.34.76,2.12,1.89,3.25,2.42a7.25,7.25,0,0,1,3.56,3.7,12.89,12.89,0,0,0,6.07,5.84,18.36,18.36,0,0,0,10.89.91c4.53-.91,4.85-3.59,4.85-3.59s.19-2.53-.95-2.91S257.16,331,257.16,331Z" class="D"/><path d="M256 319.92a24.32 24.32 0 0 1 .31 6.54c-.1 1.32-.13 3.4.87 4.56 1.37 1.83 4.26 2.38 6.14 4.88s4.66 7 10.63 8.1 10.47-.92 11.53-2.63 0-3.3-3.82-5.29c-4.1-2.1-9.56-8.52-9.56-8.52a23.24 23.24 0 0 1-3.85-6.41l-1.45-4.62c-.32-.9-6.75 1-7.43 2.32l.77 4.1-1.65-3.87a4.25 4.25 0 0 0-2.49.84z" class="E"/><path d="M270.05 342.65a7.57 7.57 0 0 1 4.28-6.55c4.45-2.39 7.21-1 8.6 0 1.66 1.15 4.05 3.56 2.66 5.38s-3.94 2.92-8.52 3.06a10.87 10.87 0 0 1-7.02-1.89zm-6.42-13.8a.54.54 0 0 0 .4-.22c.5-.72 3.71-3.44 6.89-2.63.15-.36-.12-.74-.78-1.11a9.26 9.26 0 0 0-7 3.19.49.49 0 0 0 .14.69.61.61 0 0 0 .35.08zm9.14-.51a1.56 1.56 0 0 0-.92-1.08 9.44 9.44 0 0 0-6.56 3.22.48.48 0 0 0 .15.68.52.52 0 0 0 .31.08.53.53 0 0 0 .41-.22c.48-.7 3.53-3.28 6.61-2.68zm-3.28-4.49a.9.9 0 0 0-.64-1.23c-3.63-.79-7.16 2.13-7.81 3.07a.47.47 0 0 0 .15.68.49.49 0 0 0 .31.09.51.51 0 0 0 .4-.23c.54-.77 4.21-3.85 7.59-2.38zm8.33 9.51a2.82 2.82 0 0 0-1.43-1.3 9.36 9.36 0 0 0-6.84 3.2.48.48 0 0 0 .15.69.55.55 0 0 0 .31.08.53.53 0 0 0 .4-.22c.52-.76 4.08-3.75 7.41-2.45zm-9.94.27a.47.47 0 0 0 .4-.22c.49-.71 3.65-3.37 6.78-2.64a1.77 1.77 0 0 0-1.08-1.12 9.48 9.48 0 0 0-6.56 3.22.47.47 0 0 0 .15.68.48.48 0 0 0 .31.08z" class="L"/><path d="M195.18 225.67c-1.2 6.7-1.57 10.49.79 17.26s10.19 12.23 19.64 17.53c7.83 4.38 18.74 11.24 20.89 12.58 2.45 1.53 3 2.66 3.17 5.92.26 4.43 1.4 11.63 6.47 20.6 5.35 9.47 8.87 17.08 8.87 17.08a32.76 32.76 0 0 1 10.55-3.87s-9.81-43.87-11.88-49.61-24.12-24-24.12-24l3.77-15.88z" class="C"/><path d="M286.64,298.64s2.87,8.87,5.17,13A63.92,63.92,0,0,0,300,323.48c.72.81,2.37,2.3,3,3a1.28,1.28,0,0,1-.1,2c-1.43,1.41-7.57,1.85-11.06-.67s-6.95-7.38-9.05-9.42L280,315.61a2.8,2.8,0,0,1-.74-2.64c.07-.27.14-.58.23-1,.43-2-2.33-10.1-2.33-10.1Z" class="K"/><path d="M217.76 212.4c-1.19 6.7-1.56 10.49.79 17.26s7.85 17.51 17.31 22.81c7.83 4.38 19.68 8.85 22 9.88 1.8.8 2.4 2.74 3.16 7.6.69 4.38 2.81 9.16 7.88 18.13l8.7 15.28a22.29 22.29 0 0 1 9.83-3.6l-13.3-47.66c-2.06-5.74-17-14.18-23.45-17.88s-10-6-17.34-11z" class="C"/><path d="M261.28 261.79c-.69-1.73-8.15-5-8.15-5l-15.68-13.19c3.58-4 4.18-10.48 4.18-10.48a22.76 22.76 0 0 1-7.73 10.48c3.3 2.56 17.53 16.09 17.56 16.12l6.39 2.62c1.8.8 2.4 2.74 3.16 7.6a29.73 29.73 0 0 0 2.31 7.36 21.71 21.71 0 0 1-.69-4.73 39.17 39.17 0 0 0-1.35-10.78zm18.37 55.91a5.4 5.4 0 0 0 .34 1.91c.35.76 2.12 1.89 3.25 2.42a7.26 7.26 0 0 1 3.57 3.7 12.82 12.82 0 0 0 6.06 5.84 18.36 18.36 0 0 0 10.89.91c4.54-.9 4.85-3.59 4.85-3.59s.19-2.53-.95-2.91-28.01-8.28-28.01-8.28z" class="D"/><path d="M278.48 306.6a24.23 24.23 0 0 1 .3 6.54c-.09 1.32-.12 3.4.87 4.56 1.38 1.83 4.26 2.38 6.14 4.88s4.66 7 10.64 8.1 10.46-.92 11.53-2.63 0-3.3-3.83-5.28c-4.09-2.11-9.55-8.53-9.55-8.53a22.86 22.86 0 0 1-3.85-6.41l-1.22-4.36c-.32-.9-6.85.78-7.53 2.06l.8 4-1.78-3.75z" class="E"/><path d="M292.54 329.33a7.57 7.57 0 0 1 4.29-6.55c4.44-2.38 7.2-1 8.59 0 1.66 1.14 4.05 3.55 2.67 5.37s-3.94 2.92-8.52 3.06a10.92 10.92 0 0 1-7.03-1.88zm-6.42-13.8a.53.53 0 0 0 .4-.22c.5-.72 3.72-3.44 6.89-2.63.15-.36-.12-.73-.77-1.11-3.33-.23-6.38 2.33-7 3.2a.48.48 0 0 0 .15.68.58.58 0 0 0 .33.08zm9.14-.53a1.55 1.55 0 0 0-.91-1.08 9.46 9.46 0 0 0-6.56 3.22.47.47 0 0 0 .15.68.48.48 0 0 0 .31.08.5.5 0 0 0 .4-.22c.48-.68 3.54-3.26 6.61-2.68zm-3.26-4.47a.9.9 0 0 0-.64-1.23c-3.63-.79-7.16 2.13-7.8 3.07a.48.48 0 0 0 .14.69.6.6 0 0 0 .31.08.54.54 0 0 0 .41-.23c.51-.77 4.18-3.85 7.58-2.38zm8.32 9.47a2.89 2.89 0 0 0-1.44-1.3A9.34 9.34 0 0 0 292 322a.48.48 0 0 0 .15.68.58.58 0 0 0 .31.08.56.56 0 0 0 .41-.22c.56-.81 4.13-3.8 7.45-2.54zm-9.95.32a.54.54 0 0 0 .41-.23c.49-.71 3.64-3.37 6.78-2.64a1.78 1.78 0 0 0-1.08-1.11 9.4 9.4 0 0 0-6.56 3.21.49.49 0 0 0 .14.69.6.6 0 0 0 .31.08z" class="L"/><path d="M234.3 233.13a52.37 52.37 0 0 1-4.74 6l1.35 1.13a19.09 19.09 0 0 0 3.39-7.13z" class="C"/><path d="M209.9 175.13a109.57 109.57 0 0 0-12.91 3.3s3.66 7 3.22 12.89a14 14 0 0 1-6.5 10.62c.53 5 1.07 11.12 1.47 17.64a91.34 91.34 0 0 0-1.47 16.24s11.91 6.24 25.51 3.41c14.13-2.94 18.58-11.84 18.58-11.84l-6-9.31 2.32-11.68a13 13 0 0 0 3.88-13.28c-2.85-10.56-11.35-19.27-11.35-19.27-2.66-.07-7.08.25-9 .35.02 0-3.01.26-7.75.93z" fill="#f5f5f5"/><path d="M219.22 239.23a35.85 35.85 0 0 0 4.17-1.14 6.9 6.9 0 0 0 .19-1.58 4 4 0 0 0-.48-2.07 4.89 4.89 0 0 0-2.72-1.82c-2.79-1-5.77-1.21-8.6-2s-5.68-2.33-7-5a9 9 0 0 1 .27-7.9c.66-1.34 1.59-2.65 1.6-4.14 0-2-1.58-3.58-2.62-5.29-4-6.49 0-15.29-2.84-22.35a5.54 5.54 0 0 0-1.85-2.6l-.43-.27a22 22 0 0 1 1.31 8.23 14 14 0 0 1-6.5 10.62c.53 5 1.07 11.12 1.47 17.64a91.34 91.34 0 0 0-1.47 16.24s11.9 6.26 25.5 3.43z" fill="#e6e6e6"/><path d="M217.19 128.13a26.87 26.87 0 0 0-8 1.39c-2.75 1.08-5.23 3.32-5.76 6.23a1 1 0 0 1-.15.42.87.87 0 0 1-.37.25 8.85 8.85 0 0 0-4.61 4.32 15.75 15.75 0 0 0-1.28 7.95c.5 11.57 7 20.29 10.67 19.87l12-1.3a13.09 13.09 0 0 0 9.47-3.84 7.16 7.16 0 0 0 1.6-1.92 12.61 12.61 0 0 0 .84-3c.4-2 .57-4.07.87-6.11a6.74 6.74 0 0 1 .62-2.21 7.81 7.81 0 0 1 2.76-2.46 12.85 12.85 0 0 0 3.81-3.6 5.88 5.88 0 0 0 .77-5.05 3.86 3.86 0 0 0-4.12-2.58c1.89-2.89 2.94-7.43-.37-9.73a8.64 8.64 0 0 0-6.19-1.11 56 56 0 0 0-6.23 1.65 35 35 0 0 1-6.33.83z" class="D"/><path d="M230.11 140.23c2.19 1.38 4.66 5.06 4.08 16.81-.5 10-3.79 12.34-5.44 13s-4.75.15-7.78-.44l-.17 4.13s3.64 5.14 2.19 8.2c-.66 1.39-3.83 2.4-8.13-.08a33.93 33.93 0 0 1-7.39-6.12l.45-13.82s-1.84 1.69-4.81-1c-2.44-2.26-3.19-6-1.18-7.91a4.37 4.37 0 0 1 6.91 1.57s0-5 7.25-7.35c5.44-1.75 11.72-2.08 14.02-6.99z" class="K"/><path d="M211.72 149.59c-.81.81-1 4.29-1.06 6.5a2 2 0 0 1-1.93 2h0l.11-3.51s-.72-5.52 2.88-4.99z" class="D"/><g class="C"><path d="M236.73 148.9h-.6a18.3 18.3 0 0 0-5.91 1.3c-1.85.93-2.48 1.71-3.53 1.91s-1.86-.32-3.91-.53a20.32 20.32 0 0 0-6.35 1l-.63.19a1.19 1.19 0 0 0-.64 1.2 2.1 2.1 0 0 0 .69 1.12 1.29 1.29 0 0 1 .23.46 20.82 20.82 0 0 0 1 3.26 3.86 3.86 0 0 0 .89 1.08 4 4 0 0 0 .43.28l.25.12a3.68 3.68 0 0 0 .73.21h.13.19.2a4.56 4.56 0 0 0 .63 0h.27l.34-.05a5.06 5.06 0 0 0 4.18-3.34c.56-1.41.29-3.21 1.48-3.43h.2c.89 0 .89 1.74 1.52 2.84a4.28 4.28 0 0 0 .93 1.16l.21.16.12.08.12.07.1.06.12.06h.09.07a3.12 3.12 0 0 0 1.06.23h.1a6 6 0 0 0 1.27-.11 4.31 4.31 0 0 0 3.53-3.05 23.29 23.29 0 0 0 .53-3.55 1.15 1.15 0 0 1 .2-.49 2.74 2.74 0 0 0 .47-1.36c.01-.47-.38-.9-.71-.88zm-12.18 7.1a4.48 4.48 0 0 1-.79 2h0a4.14 4.14 0 0 1-2.77 1.55 2.83 2.83 0 0 1-2.8-.8.94.94 0 0 1-.09-.12.48.48 0 0 1-.09-.11 1 1 0 0 1-.08-.11l-.06-.1a.25.25 0 0 1 0-.07v-.07l-.06-.12h0l-.16-.36h0a1.8 1.8 0 0 1-.08-.21 3.42 3.42 0 0 1-.11-.35v-.07-.06c-.26-.87-.6-2.6-.18-3.08a5.62 5.62 0 0 1 3.52-1.29h.21.9.34a5.84 5.84 0 0 1 .88.12l.27.06.3.09h.06.1a1.56 1.56 0 0 1 .61.37c.28.53.24 1.73.08 2.73zm11.26-2.48a4.48 4.48 0 0 1-1.65 3.23 3.62 3.62 0 0 1-1.42.58 2.81 2.81 0 0 1-3-.81h0l-.06-.08-.07-.08h0a.57.57 0 0 1-.08-.13l-.09-.15v-.07h0v-.07a4.59 4.59 0 0 1-.23-.64 4.41 4.41 0 0 1-.1-2.74 6.2 6.2 0 0 1 3.08-1.92 7.33 7.33 0 0 1 .89-.23h.1.12.3.12.14.25.66.1.13l.22.05h0a1.4 1.4 0 0 1 .49.22c.36.12.29 1.94.1 2.88z"/><path d="M215.55,153l-10-1a4.4,4.4,0,0,1,3,2l6.94.72Z"/></g><path d="M222.39,155a1.28,1.28,0,0,1-1.22,1.33,1.31,1.31,0,1,1,1.22-1.33Z" class="D"/><path d="M222.72 162.91l3.52 1.23a1.83 1.83 0 0 1-2.34 1.21 2 2 0 0 1-1.18-2.44z" fill="#f28f8f"/><path d="M233.19 148.51l-3.25-.46a1.641 1.641 0 0 1 3.25.46zm-12 1.15l-3 1.36a1.647 1.647 0 0 1 3-1.36zm11.1 4.01a1.25 1.25 0 1 1-1.28-1.28 1.28 1.28 0 0 1 1.28 1.28z" class="D"/><path d="M226.72 153.72l.67 7.68 3.84-1.6-4.23-6.12a1.3 1.3 0 0 0-.28.04zM221 169.61c-3.2-.5-9.74-2.57-10.7-5.21a6.77 6.77 0 0 0 2.22 3.39c1.93 1.74 8.4 3.82 8.4 3.82z" fill="#f28f8f"/><use href="#L" class="B"/><use href="#L" opacity=".75" class="F"/><use href="#M" class="B"/><use href="#M" opacity=".75" class="F"/><use href="#N" class="B"/><use href="#N" opacity=".8" class="F"/><use href="#N" opacity=".1"/><g opacity=".1"><path d="M259 196.61a5.37 5.37 0 0 1-1.11 1.75 15.91 15.91 0 0 1-1.56 1.4 11.2 11.2 0 0 0-1.52 1.39 3.82 3.82 0 0 0-.54.85 1.93 1.93 0 0 0-.19.92l-.33.05a2.24 2.24 0 0 1 .26-1.1 3.84 3.84 0 0 1 .61-.88 10.36 10.36 0 0 1 1.61-1.36 15.67 15.67 0 0 0 1.6-1.33 5.23 5.23 0 0 0 1.17-1.69zm-.43 1.75a5.78 5.78 0 0 1-.83 1.07l-.94 1a7.43 7.43 0 0 0-.82 1.05 2.83 2.83 0 0 0-.42 1.2h-.34a3.18 3.18 0 0 1 .55-1.29 7.62 7.62 0 0 1 .91-1l1-.92a5.37 5.37 0 0 0 .89-1.11zm-23.41 6.71a40.93 40.93 0 0 0 4.42-.65l4.36-1a20.77 20.77 0 0 1 4.44-.57 15.4 15.4 0 0 1 2.25.09 7.13 7.13 0 0 1 1.12.21 2.73 2.73 0 0 1 1.07.52l-.24.24a2.44 2.44 0 0 0-.91-.46 7.84 7.84 0 0 0-1.07-.23 14.81 14.81 0 0 0-2.21-.12 19.89 19.89 0 0 0-4.42.49l-4.37.91a41.45 41.45 0 0 1-4.44.57z"/><path d="M242.33 204.93l2.5-.44 2.51-.43a16.64 16.64 0 0 1 2.55-.17 7.23 7.23 0 0 1 2.54.47l-.13.31a6.87 6.87 0 0 0-2.42-.53 16.34 16.34 0 0 0-2.52.09l-2.52.34-2.51.36z"/></g><path d="M261.28 194.68l-4.46 7.62-10.39 33.42 1.35.78 4.46-9.33 10.39-31.71-1.35-.78z" class="B"/><path d="M258.17 203.08l4.46-7.62-10.39 31.71-4.46 9.33 10.39-33.42z" class="G"/><path d="M252.36 204.87l-26.71 1.71L215.26 240l1.35.78 26.72-1.71 10.39-33.42-1.36-.78z" class="B"/><path d="M227 207.36l-10.39 33.42 26.72-1.71 10.39-33.42-26.72 1.71z" class="G"/><path d="M221.31 239.23a.18.18 0 0 1-.13-.06.18.18 0 0 1 0-.16 1.68 1.68 0 0 0-.3-1.57 1.66 1.66 0 0 0-1.46-.66.15.15 0 0 1-.14-.06.16.16 0 0 1 0-.15l7.9-25.42a.17.17 0 0 1 .15-.12 3.63 3.63 0 0 0 3.22-2.53.17.17 0 0 1 .15-.12l18.3-1.17a.14.14 0 0 1 .14.06.14.14 0 0 1 0 .15 1.73 1.73 0 0 0 .29 1.58 1.7 1.7 0 0 0 1.47.65.2.2 0 0 1 .14.06.22.22 0 0 1 0 .16l-7.9 25.42a.17.17 0 0 1-.15.11 3.64 3.64 0 0 0-3.22 2.54.16.16 0 0 1-.15.11l-18.35 1.18zm-1.69-2.78a2 2 0 0 1 1.91 2.43l18-1.15a4 4 0 0 1 3.36-2.65l7.8-25.09a2.06 2.06 0 0 1-1.91-2.44l-18 1.16a4 4 0 0 1-3.36 2.64z" class="L"/><path d="M225.65 206.58l1.35.78-10.39 33.42-1.35-.78 10.39-33.42z" class="J"/><path d="M253.72 205.65l4.45-2.57-10.39 33.42c-.69 1.8-2.22 2.61-4.45 2.57z" class="B"/><path d="M253.72 205.65l4.45-2.57-10.39 33.42c-.78 1.91-2.35 2.63-4.45 2.57z" class="J"/><path d="M256.67,202.21a4.29,4.29,0,0,0-3.73.41c-1.22.71-1.55,1.67-.72,2.16l1.5.87,4.45-2.57-1.35-.78Z" class="E"/><path d="M251.34,213.28c1.6,0,3.35-.17,4.12-1.5l1-3.31a4.63,4.63,0,0,1-4.27,2Z" class="H"/><path d="M256.82,202.3c-.27,1.28-1.91,2.08-4.46,2.57l1.36.78a5.43,5.43,0,0,0,4.45-2.57Z" class="B"/><path d="M197.89 179.3c-4 .24-8.29 1.57-10.12 8.85s-4.62 30.8-5 34.06-.46 5.92 7.42 8.44c8.89 2.84 23.26 4 27.32 4.18 7.49.4 12.48-1.8 14.87-6.1s3.06-10-3.64-7.26c-7.13 3-10.12 3-10.12 3l1.36-4.4c-2.23 1-4.1 4-6.34 4.4-2 .33-17.09-4.9-17.09-4.9l3.25-20.36s4.38-14.46-1.91-19.91z" class="K"/><path d="M199.13 177.77c-4.08.89-6.26 1.22-9.31 4.21S187 188 186 194.45c-1 6.22-1.79 15.49-1.79 15.49s7 4.29 13.47 2.82l3.22-15.95a35.09 35.09 0 0 0 .22-13.81c-.46-2.19-1.12-4.2-1.99-5.23z" class="E"/><path d="M259.65 204.38c-.47-1.53-2.2 1.35-3 5.76l-1.73 8.65-1.16 3.6s2.79-1.73 5.07-6.46 2.17-7.22.82-11.55z" class="K"/><use href="#O" class="B"/><use href="#O" class="J"/><path d="M133 378.4s2.89 11.35 4.83 14.91c2.2 4 5.26 9.45 8.62 13.2.73.81 2.39 2.32 3 3a1.3 1.3 0 0 1-.1 2c-1.44 1.42-7.64 1.87-11.16-.68s-7.42-8.71-9.53-10.77l-2.77-2.75a2.82 2.82 0 0 1-.75-2.66c.07-.27.14-.59.23-1 .74-3.36-3.28-11.85-3.28-11.85 2.91-4.18 7.12-4.01 10.91-3.4z" class="M"/><path d="M124.92,398.06a3.3,3.3,0,0,0,.2,1.68c.34.76,2.54,2.11,3.67,2.64s2.94,3.31,4,5a14.63,14.63,0,0,0,6,5.83,18.38,18.38,0,0,0,10.87.91c4.52-.9,4.83-3.59,4.83-3.59s.19-2.52-.94-2.89Z" class="D"/><path d="M124.75 390.29a5.62 5.62 0 0 1 0 1.21l-.27 3.47a7.31 7.31 0 0 0 .49 3.09c1.37 1.82 4.54 2.37 6.41 4.86s5 8.3 11 9.36 10.44-.91 11.5-2.62 0-3.29-3.82-5.27c-4.08-2.1-9.92-9.78-9.92-9.78-.5-.58-.94-1.23-1.38-1.84a8.75 8.75 0 0 1-1.32-2.24 9.74 9.74 0 0 1-.48-2.67.34.34 0 0 0-.07-.22.29.29 0 0 0-.2-.07 10.25 10.25 0 0 0-6.35 1.48 1.69 1.69 0 0 0-.52.43 1.93 1.93 0 0 0-.2.52l-.39 1.44a1.33 1.33 0 0 1-.6 1c-.44.19-.92-.12-1.29-.41s-.64-1-1-1.29a2.07 2.07 0 0 0-1.59-.45z" class="E"/><path d="M69.28,297.21c-2,15.1-1.61,19.57,5.57,26.81,3.79,3.81,8.73,7.48,16.82,13.06,8.84,6.09,10.82,6.62,13,8.16a11.13,11.13,0,0,1,4.9,7.07c.76,3.95,1.47,7.86,5.33,16.05,3,6.44,6.42,12.34,8.12,15.61,2.57.44,9-.8,10.67-3-.93-4.88-6.25-39.46-8.53-44.59s-20.29-20.51-20.29-20.51-1.43-9.3,0-15.36Z" class="C"/><path d="M161.64 363.8s2.9 11.35 4.84 14.91c2.2 4 5.26 9.46 8.62 13.2.73.82 2.39 2.33 3 3a1.29 1.29 0 0 1-.1 2c-1.44 1.43-7.64 1.87-11.16-.67s-7.42-8.72-9.53-10.78l-2.77-2.74a2.81 2.81 0 0 1-.75-2.67 17.03 17.03 0 0 0 .22-1c.75-3.37-3.27-11.86-3.27-11.86 2.9-4.19 7.13-4 10.9-3.39z" class="M"/><path d="M153.59,383.46a3.34,3.34,0,0,0,.2,1.69c.34.76,2.54,2.11,3.67,2.63s2.93,3.31,3.95,5c1.41,2.27,3.49,4.71,6.05,5.82a18.3,18.3,0,0,0,10.87.91c4.52-.9,4.83-3.58,4.83-3.58s.19-2.52-.95-2.9Z" class="D"/><path d="M153.42 375.7a5.64 5.64 0 0 1 0 1.21l-.27 3.46a7.13 7.13 0 0 0 .49 3.09c1.37 1.83 4.54 2.37 6.41 4.87s5.05 8.29 11 9.35 10.43-.91 11.5-2.62 0-3.29-3.82-5.27c-4.08-2.1-9.92-9.78-9.93-9.78-.49-.58-.93-1.22-1.37-1.84a8.75 8.75 0 0 1-1.32-2.24 10.07 10.07 0 0 1-.49-2.67.3.3 0 0 0-.06-.22.35.35 0 0 0-.21-.07 10.31 10.31 0 0 0-6.34 1.48 1.59 1.59 0 0 0-.52.44 1.81 1.81 0 0 0-.2.52l-.39 1.43a1.33 1.33 0 0 1-.6 1c-.44.19-.92-.11-1.29-.41s-.64-1-1.05-1.28a2.07 2.07 0 0 0-1.54-.45z" class="E"/><path d="M74.88 300.63C73.8 306.71 102.33 319 102.33 319s3.91 1.47 11.88 5.36a184.68 184.68 0 0 1 18.53 10c2.25 1.39 4 2.16 4.66 5.56.76 3.95.42 5.7 5.43 15 3.37 6.27 7.14 11.17 8.84 14.43 2.57.44 9-.79 10.67-3-.93-4.88-6-39.59-8.53-44.59-3.6-7.04-39.81-25.36-39.81-25.36z" class="C"/><path d="M114.41,324.41l-7-9.47a19,19,0,0,0,7.49-11.87s-.1,8.13-4.41,12Z" class="D"/><path d="M82.46,240.49c-8.79,2.17-14.6,4.43-16.18,6.16-3.33,8,1.93,58,1.93,58,10.08,7.55,41.24,3.4,45.81-8.28,0,0-2.18-35.84-3.22-42.33-1.2-7.49-5.77-15.14-15.86-15.13Z" fill="#f5f5f5"/><path d="M79.53 300.77c-2.8-3.8-3.85-13.83-3.85-13.83s-1.27-26.18-2.68-32.37L65.1 265l3.11 39.72c.29.22.61.43.93.63l.33.19.71.38.42.2.72.32.46.18.8.29.42.09q.51.17 1 .3l.3.08c.45.12.91.22 1.39.32l.38.07 1.07.19.55.08 1 .13.59.07 1 .09h.6l1.1.06h.51q.81 0 1.62 0h.26 1.4.61c.36 0 .72 0 1.08-.06h.67l1-.09.69-.06 1.05-.12.65-.08 1.26-.18.42-.07 1.63-.29.57-.11 1.08-.23.67-.16c.32-.07.64-.15.95-.24s.46-.12.68-.18l.92-.26.66-.2 1-.31.56-.19 1.42-.53.42-.17 1-.42.55-.26.8-.38.55-.29.73-.4.52-.31c.24-.14.47-.29.7-.44l.46-.3a13.27 13.27 0 0 0 .82-.59l.25-.19h0c-13.85 5.51-27.8 3.29-30.61-.51z" class="O"/><use href="#P" class="B"/><g class="F"><use href="#P" class="J"/><path d="M84.89 322.1c2.87 2.36 9.14 5.76 15.27 5.61 9.23-.26 27.86-11.42 31.82-16.85 3.16-4.32-4.46-46.69-6.13-49.87s-11-8.43-14.94-8.14-16.67 6-23.57 10.92l4.1 2.42c4.11 2 6.65 7.95 7.47 22.42s2.34 34 .15 36.24-6.94 1.09-7.22 1a24.3 24.3 0 0 1-6.95-3.75z" opacity=".35"/></g><path d="M103 323.61a7.36 7.36 0 0 0 1.1-3.61 1.77 1.77 0 0 0-.49-1.31 2.42 2.42 0 0 0-1-.45c-2.82-.81-5.86-1.1-8.39-2.6a1.48 1.48 0 0 1-.53-.46.59.59 0 0 1 0-.67.84.84 0 0 1 .47-.23c.81-.18 1.65-.14 2.48-.26a6.26 6.26 0 0 0 3.25-1.56 2.25 2.25 0 0 0 .65-.93 1 1 0 0 0-.27-1 1.47 1.47 0 0 0-.72-.24c-2.63-.42-5-1.7-7.57-2.17-2.39-.43-4.89-.25-7.19-1a9 9 0 0 1-2.88-1.64c.26 7.88.77 14.17 1.5 15.29a8.14 8.14 0 0 0 3.92 2.68c1.63.7 3.31 1.28 5 1.87a19.34 19.34 0 0 0 5.81 1.35 5.18 5.18 0 0 0 1.62-.19 5.88 5.88 0 0 0 3.24-2.87zm26.75-44.26a330.71 330.71 0 0 0-1.82-10 17.52 17.52 0 0 0-2.05-1.26l-25.63 9-2.1 3.37.76 8.1.22 3.77a10.27 10.27 0 0 0 6.62.62 21.06 21.06 0 0 0 .6 4c.43 1.16 2.81 3.15 3.78.36a12.39 12.39 0 0 0 0-6.28l10.27-5.28s-.11 3.51.54 4.51 2.8 1.48 3.68-.8 0-6.12 0-6.12a26.75 26.75 0 0 0 5.13-3.99z" opacity=".1"/><use href="#Q" class="B"/><use href="#Q" opacity=".7" class="F"/><path d="M109.57 280.16l-3.82 1.73s1.22 9.47 1.5 14.14c0 0 1 2 1.91 2.23s1.85-2.05 1.93-3.74a136.53 136.53 0 0 0-1.52-14.36z" class="E"/><path d="M109.74 281.08l-3.89 1.62a.67.67 0 0 1-1-.55l-.27-1.92a1.06 1.06 0 0 1 .59-1.06l3.91-1.69a.67.67 0 0 1 1 .55l.27 2a1 1 0 0 1-.61 1.05z" class="C"/><path d="M109.07 292.65a1.9 1.9 0 0 0-1 1.73.77.77 0 0 0 1.14.74 1.88 1.88 0 0 0 1-1.73c-.05-.69-.56-1.03-1.14-.74z" class="H"/><path d="M123.85 273l-3.73 1.92 1.62 14s1.14 1.9 2 2.13 1.75-2.14 1.74-3.84a113.63 113.63 0 0 0-1.63-14.21z" class="E"/><path d="M124.06 273.88l-3.8 1.82a.68.68 0 0 1-1-.5l-.37-1.9a1.06 1.06 0 0 1 .53-1.09l3.82-1.89a.67.67 0 0 1 1 .5l.37 2a1 1 0 0 1-.55 1.06z" class="C"/><path d="M123.38 285.43a1.93 1.93 0 0 0-.9 1.78.78.78 0 0 0 1.18.68 1.9 1.9 0 0 0 .9-1.78c-.08-.69-.56-1-1.18-.68z" class="H"/><use href="#R" class="B"/><use href="#R" opacity=".7" class="F"/><g class="D"><path d="M80.55 214.8a13.11 13.11 0 0 0 12.84 13.38c7.09 0 11.29-6.14 12.84-13.36 2.85-13.21-5.74-13.38-12.83-13.39a13.12 13.12 0 0 0-12.85 13.37zM74 220.21s2 9.64 2.75 11.22a4.2 4.2 0 0 0 2.42 2l-.17-6.74z"/><path d="M76.48,206.4s-1.42-.35-2.92,2c-1.29,2-1.58,6.52.44,11.82l3.71.44Z"/><path d="M75.11 208.35l-4.55.09a2.15 2.15 0 0 1 2.07-2.44 2.52 2.52 0 0 1 2.48 2.35z"/><path d="M74.55 207.27L71.18 204a2.18 2.18 0 0 1 3.2-.12 2.46 2.46 0 0 1 .17 3.39z"/></g><path d="M78.82 220.66c-.75.46-1.81-1-2.72-2s-3.8-1.94-5.3 1.33 1.11 6.41 3.19 7.59c3.27 1.84 4.7-.93 4.7-.93l.65 15.35c1.9 5.29 17.2 6.44 14.07-.27V237a19 19 0 0 0 4.63.17c3-.48 4.87-2.94 5.78-6.31 1.45-5.41 2-9.78.78-20.42-1.35-11.66-14.37-11.79-21.41-7.19s-4.37 17.41-4.37 17.41z" class="M"/><path d="M95.06 208.65l-9.3-1.18a5.94 5.94 0 0 0-2 .1c-2.39.64-2.08 3.42-2.46 5.36-.66 3.34-1.2 9-2.46 9-.38 0-1.8-2.45-2.72-3.33a4.83 4.83 0 0 1-.83-2.55c-.24-1.39-.37-2.79-.47-4.19l-.2-3.58a16.18 16.18 0 0 1 .31-4 7.06 7.06 0 0 1 1.66-3l.24-.26a15.92 15.92 0 0 1 5.58-3.75 33.53 33.53 0 0 1 9.42-2l9.61-1.15a.94.94 0 0 1 .55 0 .85.85 0 0 1 .45.71 4 4 0 0 1-1.61 3.91c2.15.17 4.62-.95 6.69-1.5a1.34 1.34 0 0 1 1.06 0 1.06 1.06 0 0 1 .41.6 3.84 3.84 0 0 1 .06 1.72 9.79 9.79 0 0 1-1.86 4.72 11.58 11.58 0 0 1-6.41 4.19 18.46 18.46 0 0 1-5.72.18z" class="D"/><path d="M93.4,237s-7.52-1.53-9.85-2.83a7.78,7.78,0,0,1-3.22-3.32,11.05,11.05,0,0,0,1.83,3.92c1.7,2.27,11.24,4.08,11.24,4.08Z" class="P"/><path d="M92 219.29a1.38 1.38 0 0 1-1.33 1.44 1.45 1.45 0 1 1 1.33-1.44zm-2.15-5.76L87 215.17a1.82 1.82 0 0 1 .67-2.37 1.55 1.55 0 0 1 2.18.73z" class="D"/><path d="M93 228.91l3 1.19a1.59 1.59 0 0 1-2 1.06 1.8 1.8 0 0 1-1-2.25z" class="P"/><path d="M104.26 214.76l-2.61-2.09a1.55 1.55 0 0 1 2.27-.37 1.86 1.86 0 0 1 .34 2.46zm-1.15 4.14a1.34 1.34 0 1 1-1.34-1.45 1.4 1.4 0 0 1 1.34 1.45z" class="D"/><path d="M95.96 217.78l.15 8.44 4.79-1.09-4.94-7.35z" class="P"/><path d="M70.37 244.59c-7.2 3-11.76 3.1-13.62 15.17-1.07 6.94-6.07 27.09-3.73 31.33 4.14 7.47 18.59 25 25.58 30.12 3 2.21 6.15 4.55 9.71 5.81 3.19 1.14 7.53 1.35 10.61-.22a6.65 6.65 0 0 0 3.34-4.06 2.83 2.83 0 0 0-.3-2.6 3.51 3.51 0 0 0-1.89-.94c-2.76-.7-5.64-1.34-7.91-3.07-.23-.18-.49-.46-.39-.74.16-.44 2.25-.17 2.68-.21a11.06 11.06 0 0 0 3.49-.79 2.67 2.67 0 0 0 1.29-1 1.16 1.16 0 0 0-.23-1.49 1.69 1.69 0 0 0-.74-.23q-3-.45-5.88-1.07c-1.67-.35-3.3-.8-5-1a20 20 0 0 1-3.47-.49c-2.75-.91-9.7-8.7-11.87-11.95a60 60 0 0 1-5.49-10.28c.65-7.33 1.37-13 3.61-20.15s3.75-14.58.21-22.14z" class="M"/><use href="#S" class="B"/><g class="J"><use href="#S"/></g><defs ><path id="B" d="M279.25 154.96l188.12 108.6V130.11L279.25 21.5v133.46z"/><path id="C" d="M314.53 144.43l-1.64 4.63a6.82 6.82 0 0 1-3.23-2.21 21.33 21.33 0 0 1 1.46-4.62 11 11 0 0 0 3.41 2.2z"/><path id="D" d="M320.22 145.32l-.16 5a17 17 0 0 1-6.54-1l1.64-4.64a13.15 13.15 0 0 0 5.06.64z"/><path id="E" d="M320.94,145.27a23.14,23.14,0,0,0,5.74-1.34v5a22.13,22.13,0,0,1-5.9,1.33Z"/><path id="F" d="M331 141.91v4.94a27.19 27.19 0 0 1-3.61 1.77v-5a25.85 25.85 0 0 0 3.61-1.71z"/><path id="G" d="M56.763 298.407l4.099-.417 2.326 22.862-4.099.417z"/><path id="H" d="M36.79 247.13l2.27 1.31 8.36 67.58-2.27-1.31-8.36-67.58z"/><path id="I" d="M351.91 207.28a7.88 7.88 0 0 1 3.69-6.12l20.3-11.73c2-1.17 3.67-.35 3.65 1.85v4l-27.6 16z"/><path id="J" d="M409 249.66l-18.8-10.84a2.58 2.58 0 0 0-2.61-.25h0l-45.16 26.09 25.7 102.55 45-26a2.58 2.58 0 0 0 1.09-2.38V258.7a11.58 11.58 0 0 0-5.22-9.04z"/><path id="K" d="M345.22 355.24l20.3 11.76c2 1.17 3.69.21 3.69-2.13v-80.2a11.56 11.56 0 0 0-5.22-9l-18.77-10.84c-2-1.17-3.69-.21-3.69 2.13v81.93a8.19 8.19 0 0 0 3.69 6.35z"/><path id="L" d="M252.94,202.62a3.16,3.16,0,0,1,1.57-2.47c1.65-1.22,3.8-2.19,4.5-5.22l2.27,1.31-3.83,6.43Z"/><path id="M" d="M252.94,202.62s-2.48-1.25-7.91-.13-9.87,2.58-20.3,2.35l2.71,1.56,27.09-1.57Z"/><path id="N" d="M224.73 204.84l-9.68 31.17 2.7 1.56 9.69-31.17-2.71-1.56z"/><path id="O" d="M96.91 239a65.11 65.11 0 0 1 1.28 8.14c.59 6.36 3.27 36.88 4.47 39s12.81 13.6 12.81 13.6a26 26 0 0 1 9.84-8.5l-7.67-10.77-3.33-25.54c-.48-5.05-1.74-17.13-17.4-15.93z"/><path id="P" d="M110.9 252.85c4-.3 13.37 5.11 14.95 8.14s9.3 45.54 6.13 49.87c-4 5.43-22.59 16.59-31.82 16.84-7.62.2-15.44-5.09-16.72-7.06-2.09-3.22-2.37-48.83-.18-52.8 3.55-6.44 22.55-14.61 27.64-14.99z"/><path id="Q" d="M111.32 252.83c4.38-.28 12.43 3.73 14.88 7s4.65 13.28 3.2 16.33-12 9.61-19.19 13.1c-5.78 2.79-8.92 2.35-11.11 1-1.39-.86-1.8-3.69-2-5.79-.6-5.39-.33-8.31-3.79-11.28s-9.44-5.29-10.28-2.84c0 0-1.53-3.52 5-7.41 10.78-6.43 17.88-9.78 23.29-10.11z"/><path id="R" d="M129.49 295.47l.47 9a5.5 5.5 0 0 1-2.47 4.79c-2.21 1.79-11.86 7.66-14.73 9.25-3.5 1.93-7.36 3.32-7.48.52-.09-2.45-.47-7.66-.58-9.43-.14-2.2.83-3.69 5.18-6 4.12-2.23 13.24-8.13 15.79-9.49 2.15-1.11 3.72-.11 3.82 1.36z"/><path id="S" d="M71.06 244s-9.58 1.95-12.56 7.6-7.5 36.28-6.83 38.6c1.84 6.52 18.57 23.1 18.57 23.1s2.38-7 9-7.89l-11-18.47 5-25.77s2.08-10.7-2.18-17.17z"/></defs></svg>