<svg xmlns="http://www.w3.org/2000/svg" width="198.414" height="47.335" xmlns:v="https://vecta.io/nano"><g fill="#fff"><path d="M20.498 47.335l-.487-.226c-5.406-2.502-9.772-6.139-12.623-10.513C.552 26.107.326 15.271.088 3.8L.03 1.185 0 0h40.973l-.028 1.186-.058 2.633c-.242 11.464-.468 22.293-7.302 32.778-2.845 4.368-7.2 8.001-12.6 10.513l-.487.225zm25.628-31.003h4.27l3.746 12.255 4.062-12.308h3.411l4.06 12.308 3.75-12.255h4.164l-6.184 18.227h-3.461l-4.082-11.838-4.089 11.838h-3.465zm37.958 10.65l-2.402-5.869-2.403 5.869h4.805zm-4.191-10.654h3.676l7.753 18.23h-4.16l-1.654-4.062h-7.654l-1.656 4.062h-4.062l7.757-18.23zm15.769 3.803h-5.506V16.46h15v3.671h-5.505v14.428h-3.989zm12.523-3.671h13.652v3.536h-9.695v3.675h8.535v3.546h-8.535v3.801h9.824v3.541h-13.781zm26.08 8.792c1.943 0 3.055-1.035 3.055-2.56v-.054c0-1.706-1.193-2.588-3.133-2.588h-3.953v5.201h4.031zm-8.015-8.792h8.277c2.299 0 4.084.644 5.275 1.837 1.008 1.006 1.551 2.424 1.551 4.131v.053c0 2.926-1.574 4.762-3.879 5.616l4.42 6.462h-4.656l-3.877-5.791h-3.127v5.791h-3.984V16.46zm19.496 0h3.98v14.481h8.477v3.618h-12.457zm28.146 9.101v-.054c0-3.099-2.273-5.688-5.48-5.688s-5.432 2.534-5.432 5.638v.05c0 3.104 2.275 5.694 5.484 5.694 3.203 0 5.428-2.533 5.428-5.64m-15.078 0v-.054c0-5.142 4.061-9.36 9.65-9.36 5.582 0 9.594 4.164 9.594 9.311v.05c0 5.15-4.062 9.364-9.646 9.364s-9.598-4.165-9.598-9.311m35.439 0v-.054c0-3.099-2.277-5.688-5.486-5.688-3.203 0-5.43 2.534-5.43 5.638v.05c0 3.104 2.277 5.694 5.48 5.694s5.436-2.533 5.436-5.64m-15.078 0v-.054c0-5.142 4.059-9.36 9.643-9.36s9.596 4.164 9.596 9.311v.05c0 5.15-4.061 9.364-9.646 9.364s-9.593-4.165-9.593-9.311M56.23 7.301V2.533h1.837v4.719c0 1.357.677 2.059 1.797 2.059s1.8-.68 1.8-1.998v-4.78H63.5v4.706c0 2.526-1.421 3.764-3.659 3.764S56.23 9.754 56.23 7.301z"/><path d="M68.378 2.533h1.691l3.909 5.136V2.533h1.811v8.342h-1.562l-4.039-5.303v5.303h-1.811V2.533zm12.629 0h1.835v8.342h-1.835V2.533zm6.339 0h2.023l2.182 5.875 2.18-5.875h1.978l-3.37 8.398h-1.622l-3.371-8.398zm12.782 0h6.291v1.633h-4.469v1.691h3.932V7.49h-3.932v1.753h4.527v1.632h-6.35V2.533zm11.118 0h3.812c1.061 0 1.881.297 2.43.848.465.464.715 1.119.715 1.904v.025c0 1.344-.727 2.191-1.787 2.586l2.037 2.979h-2.145l-1.785-2.672h-1.443v2.672h-1.834V2.533zm3.693 4.053c.893 0 1.404-.479 1.404-1.182V5.38c0-.784-.547-1.19-1.439-1.19h-1.824v2.396h1.859zm7.482 3.072l1.084-1.297c.75.619 1.537 1.013 2.488 1.013.752 0 1.205-.298 1.205-.788v-.024c0-.463-.287-.701-1.682-1.06-1.678-.428-2.764-.895-2.764-2.55V4.93c0-1.514 1.217-2.516 2.92-2.516 1.215 0 2.252.381 3.098 1.061l-.953 1.383c-.738-.513-1.465-.822-2.17-.822s-1.072.32-1.072.727v.023c0 .549.359.729 1.801 1.096 1.691.44 2.645 1.05 2.645 2.502v.025c0 1.655-1.264 2.585-3.062 2.585-1.264-.001-2.54-.443-3.538-1.336zm11.412-7.125h1.834v8.342h-1.834V2.533zm8.997 1.692h-2.539V2.533h6.91v1.691h-2.539v6.65h-1.832V4.225zm11.257 3.36l-3.203-5.052h2.143l1.99 3.348 2.025-3.348h2.084l-3.203 5.016v3.326h-1.836v-3.29zm15.465-.857v-.021c0-2.375 1.873-4.316 4.447-4.316s4.418 1.918 4.418 4.289v.027c0 2.369-1.871 4.31-4.445 4.31s-4.42-1.916-4.42-4.289zm6.946 0v-.021c0-1.432-1.049-2.624-2.525-2.624s-2.502 1.169-2.502 2.597v.027c0 1.428 1.051 2.618 2.529 2.618s2.498-1.167 2.498-2.597zm5.861-4.195h6.35v1.668h-4.518v1.775h3.98v1.669h-3.98v3.229h-1.832V2.533z"/></g><path d="M36.349 27.186l-15.854-11.97L4.772 27.607c-2.92-8.296-2.808-16.933-3.023-25.795h37.476c-.213 8.712-.108 17.206-2.876 25.374zm-2.171 5.13a37.77 37.77 0 0 1-1.915 3.289c-2.856 4.387-7.102 7.631-11.766 9.8-4.687-2.169-8.929-5.413-11.785-9.8-.614-.939-1.172-1.882-1.676-2.831L20.495 21.43l13.683 10.886z" fill="#ffd74f"/><path fill="none" stroke="#231f20" stroke-width="1.152" d="M20.497 45.405c-4.687-2.169-8.929-5.413-11.785-9.8C1.746 24.918 2.035 13.564 1.749 1.812h37.476c-.287 11.752.003 23.105-6.962 33.793-2.857 4.387-7.102 7.631-11.766 9.8z"/><g fill="#cd1543"><path d="M9.534 8.232c-1.899-.403-3.59-1.812-3.18-3.605.004-.018-.074-.464-.236-.524-.014-.006-.041-.054-.07-.063-.072-.018-.132-.051-.193-.095-.021-.013-.109-.045-.109-.076-.035.073-.026.143-.075.207-.021.025-.048.063-.075.076-.034.016-.037.049-.063.073-.143.143-.066.36-.044.523.007.042.024.094-.027.104-.061.009-.012-.019-.082-.062-.016-.011-.041-.037-.058-.045-.031-.015-.148-.031-.17-.061s-.01-.039-.039-.064c-.066-.059-.072-.178-.12-.3a.82.82 0 0 1-.028-.152c0-.119-.31-.314-.189-.215.042.033-.006-.049-.173-.09-.104-.027-.225-.022-.343-.004-.024.002-.047.02-.064.032-.119.095-.233.209-.39.215.026-.019.04.014.053.03.075.094.02.215.064.32a.68.68 0 0 0 .208.256c.087.066.238-.023.306.095 0 0 .14.034.001.173-.254.259-.539.051-.751.528.32-.138.357.35.492.369.612.082 1.078.189 1.413.811.205.378-.367.396.15.484a.84.84 0 0 1 .571.364c.141.194.159.459.311.642.107.131.148.156.279.266.059.048.246.096.319.114s.112.056.178.081.146.051.207.1c.052.043.182.088.211.146.054.104.01.209.067.315.018.027.1.003.131.014s.105.018.125.013c.125-.029.154-.039.247-.049.142-.016.125.029.308.02.04 0 .054.029.107.029.034 0 .097.037.107.005.056-.173.148-.343.248-.512s.094-.187.224-.364c-.015.005.169-.122.152-.124m-4.737.221c.557.299.482 1.038.98 1.277.894.425 1.957.716 2.905.25-.212.658.021 1.211-.07 1.287-.296.236-1.201-.047-1.781-.277-.399-.158-.723.436-1.163.385.021-.055.072-.205.043-.301-.07-.215-.127-.274-.482-.232-.23.024-.134.212-.479.383-.137-.08-.428-.171-.471.087-.021.121-.263-.418-.213-.51.227-.407.271-.501.256-.587-.027-.135-.516-.312-.578-.199-.156.265-.604-.863.722-.789-.356-.23-.315-.27-.233-.541.01-.039-.124-.177-.213-.082-.03-.106.04-.218.122-.229.22-.032.433-.042.655.078"/><path d="M7.432 5.725c.804.186 2.006-.851 2.702.371-.514-.188-2.036.628-2.702-.371m6.721 1.777c-.015 1.047-1.101 2.177-.22 3.176-.361-.006-.787-.131-1.037-.332-.14-.112-.108.498-.089.625.016.106-.668-.646-.925-.465-.727.523-1.042.738-2.12.778-.299.011-.455.253-.54.514-.244-.5-.064-1.637.077-2.141.382-1.386 1.773-1.796 2.889-2.46.799-.474 1.142-1.405 1.102-2.313.568.714.877 1.727.863 2.618M9.047 19.293c.136.031.034.143-.02.179a.88.88 0 0 0-.256.274c-.053.084-.091.171-.069.274.012.075.037.139.065.211.019.041.057.064.087.1.016.013.064.073.065.08-.029-.105.118-.212.152-.193.69.402.731-.411 1.146-.687.175-.119.572.019.471.378.412-.222.533-.775.855-1.123.709-.77 1.706-1.284 2.651-1.701-.343-.361-.846-.669-1.101-1.084-.126-.207-.277-.611.002-.536 1.163.302 1.814-.405 1.941-1.321 1.722.225 2.171-1.403 2.402-2.632.112-.598.439-.651.083-1.665-.149-.426.762-.565.606-1.3a.66.66 0 0 0-.44-.428c.14.396-.522.493-.596.656-.111.255-.275.457-.296.72-.56-.774-.107-1.709.42-2.436.767-1.058 2.36-.503 3.031.179.013-.342-.254-.775-.471-.986.627-.081 1.307.302 2.163-.15.493-.265.991-.489 1.222-1.072-1.049.144-2.473-.664-3.419-.83-1.763-.307-2.946.897-3.578 2.332s-.228 2.503.456 3.575c.173.271-.605.094-.912.252-.298.154-.42.521-.352.848.375-.403 1.373-.155 1.463.537.122.93-.818 2.289-1.727 1.883-.972-.437-1.523-1.463-1.846-2.615-.833.715-2.367.124-3.082.822-.679.665 1.059 1.115 1.733 1.43.249.118.498.371.458.686-1.059-.62-2.335.083-2.274 1.215.049.846 1.085 1.371 1.945 1.443.36.03.576.428.139.701-.764.479-1.618 1.014-2.443.147-.138-.145-.631-.052-.73.21a1.09 1.09 0 0 0-.043.451c.046-.076.098-.188.167-.18.081.012.181.099.17.158-.071.423-.629.15-.802.479-.003.007-.012.015-.018.023-.01.026-.024.049-.038.074-.112.223-.267.366.01.539-.006-.041.138.179.136.218.013-.206.226-.2.226-.2l.124.014.124.051z"/><path d="M5.462 15.31c-.108-.033-.223.007-.331.057-.069.028-.152-.003-.194.066-.023.044-.041.091-.026.138.006.027.018.074.04.091-.146-.013-.281-.11-.394-.21-.035-.031-.059-.07-.094-.104-.021-.024-.02-.067-.032-.098-.017-.037-.011-.074-.011-.109-.004-.1-.006-.203.039-.295.021-.043.04-.085.072-.123.023-.03.048-.053.075-.079.073-.072.156-.126.256-.155a.63.63 0 0 1 .434.029c.108.048.241.042.354.073.061.017.175-.158.094-.181-.362-.086-.36-.183-.496-.551-.062-.07-.146.013-.181.049-.002-.7.83-.747 1.178-.469.514.413.128 1.225.76 1.447.329.115.678.205 1.017.062.612-.26.002-.875.199-1.392.399-1.05 1.282-1.104 2.333-.095-.941.312-1.38 1.558-.866 2.379-.829-.328-1.876.223-2.459.594.543-.542-.218-.98-.411-.885l-.229.161c-.11.142-.121.284-.257.421-.077.072-.119.085-.221.111-.138.038-.223.028-.346-.052-.022-.015-.094.017-.11.034-.067.083-.002.123-.004.152a4.76 4.76 0 0 1-.111-.088c-.08-.059-.169-.111-.217-.192s-.083-.281-.028-.395c.057-.108.165-.144.239-.22.069-.068-.013-.177-.098-.19m20.219-9.23c.077.05-.005.184-.091.207-.102.031-.243-.013-.331.021-.395.146-.396 1.119-.342 1.006.06-.126.353-.043.54-.008.305.064.536-.559.737-.541.476.045.92.637 1.102 1.023.031.072-.199.074-.218.312.649-.062 1.197.359 1.663.744.229-.396.458-.642.718-.898-.972-.949-2.907-1.24-2.61-2.969.039-.221-.211-.416-.321-.525-.125-.119-.414-.127-.589-.17.185.383-.149.42-.102 1.029 0 .02-.056.006-.075-.002-.115-.051-.216-.123-.325-.192-.102-.062-.195-.043-.307-.03-.066.01-.128.041-.185.082-.092.065-.139.152-.204.243-.012.017-.024.037-.039.053-.021.022-.061.085-.065.12.052-.004.208.008.235.049.045.07.047.15.102.219.065.086.12.088.219.13a.93.93 0 0 0 .452.079m2.553-.677c.608-.044 1.211-.511 1.884.277-.124-.06-.27-.079-.345-.021-.743.6-1.646.396-2.122-.346.193-.028.428.103.583.09m2.631 2.205c.998-.505 2.009-.91 2.419-2.15.079-.241.266.361.278.396.527 1.512-.525 3.014-.308 4.557-.353-.215-.75-.363-1.135-.375-1.371-.039-1.696.794-1.772.717-.377-.382-1.456-.705-1.377-.635-.641-.594 1.207-2.158 1.895-2.51m-2.73 10.064c.137.211-.045-.12.109.238.726-.303 1.473-.646 2.271-.325-.353-1.624.835-2.019.929-2.263.15-.391-.643-1.166-1.241-.95-.762.272-.445 1.235-.59 1.909-.078.375-.54.645-.923.514-.631-.219-.886-.806-1.039-1.467-.105-.437-.96-.49-1.146-.131-.526 1.02.313-.119.258.655-.009.132-.613.036-.748.492-.093.312.205.523.577.631.07.022-.072-.153.022-.192.068-.023.343.121.31.139-.36.22-.452.729.19.952.005.001-.047-.185 0-.22.505-.375 1.029.029 1.029.018M17.199 27.916c.602.278.794-.021 1.587-.148.108-.02.554.272.685.419-.793.125-1.758.813-2.272-.271m-.32.633c-.038-.04-.091-.059-.14-.077s-.102-.038-.159-.048c-.012-.004-.112-.025-.128-.031-.003.037.042.129.016.15-.062.06-.084.045-.137.121-.018.029-.038.06-.044.092-.014.071-.046.148-.055.229-.002.04.016.135.023.172.005.02.049.103.06.126l.09.099c.113.113.022.049.159.183.069.067-.032.185-.101.162-.465-.134-.53-.673-.953-.839-.307-.117-.752.122-.799.591.104-.03.213.012.232.098.114.472.807.19.823.522.013.217-.519-.036-.729.101-.276.187-.315.718-.07 1.03.253-.241.566.109.812-.065.172-.122.232-.296.408-.372.533-.235.69.255.572.747.286-.134.964-.271 1.117-.317.281-.073.295-.722.639-.96-.487-.003-1.09-.214-1.227-.689-.012-.051.022-.11.027-.167.012-.182-.005-.356-.073-.523-.006-.018-.024-.037-.038-.059-.021-.027-.035-.055-.055-.084-.049-.066-.12-.096-.189-.142-.029-.018-.068-.023-.092-.056m-3.569 3.36c.212.415-.837-.247-1.231.364-.126.197-.059.642-.059.89.242-.218.482.197.933-.2.05.045.104.072.034.143-.166.168-.259.376-.171.578a1.35 1.35 0 0 0 .432.377c.039-.273.5 0 .573-.533.03-.221.095-.582.412-.451.289.119.349.448.281.771.462-.152 1.271-.623 1.757-.273.65.47 1.719.662 2.48.898-.506-.35-.666-1.264-.581-1.86-1.198.234-2.459.195-3.569-.32-.305-.14-.263-.493-.354-.781a.95.95 0 0 0-.886-.599c-.201.016-.681.438-.588.457-.031-.008-.03.062-.046.09.089-.056.203 0 .244.099.029.066.059.142.115.196.068.068.187.083.224.154m2.875 6.552c.23-.286.424-.134.525-.131.242.008.227.352.202.569.954-.46 1.862-1.118 2.98-.878-.652-.682-.421-2.146.499-2.324.003 0-.593-.098-.656-.137-.801-.507-1.779-.992-2.317.071-.267.527.224.954.592 1.393.066.08-.042.124-.127.148-.877.224-2.489.356-2.562-.954-.007-.131-.345-.242-.562-.235-.649.021-.64.847-.566.79.143-.109.576-.072.524.263-.049.309-.654-.165-.894.146-.203.259-.197.687-.055.975-.025-.107.095-.185.161-.196.672-.111.71.121.511.775-.015.049.197.458.341.496-.013-.005-.011-.094.009-.124a.16.16 0 0 1 .087-.065c.072-.027.147-.021.222-.039.034-.014.06-.034.094-.057.052-.031.089-.078.128-.125.156-.197.293-.451.557-.475.123-.012.201.043.304.109m6.956 3.044c.613-.611 1.06-1.425 1.717-2.021-.721-.425-1.613-.868-1.709-1.819-.008-.064.102-.136.125-.124 1.002.563 2.354.606 3.076-.417.583-.826.835-2.171 1.974-2.244-.378-.73.048-1.568.67-1.951-.21-.08-.48-.253-.716-.209-.288.049-.411.438-.739.5.516-1.734-.479-4.157-2.391-4.117-.357.006-.821.295-.939.688-.11.368-.167.833.1 1.149.626.748 1.077 1.564.88 2.556.447-.386.857-.952.843-1.555-.003-.153.27-.044.312-.104.523-.768-.331-1.241-.783-1.724-.126-.131.193-.332.235-.316 1.637.486 1.792 2.506 1.09 3.818-.187-.234-.881-.156-1.115-.236.768.387.568.441.534.569-.055.23-.744.129-.877.3-.23.293-.403.424-.421 1.398.318-.342.734-.864 1.186-.633.965.498-.048 2.166-.958 2.442a1.7 1.7 0 0 1-1.977-.69c-.697-.979-.192-2.165-.685-3.157-.413.1-.319.64-.534.544-.758-.352-1.188-1.162-1.737-1.842-.228.083-.327.293-.547.284-.325-.015-.937-.118-1.067.049-.15.188-.261 1.564 1.079 2.064.91.339 1.628.641 2.201 1.352-.384.03-.518-.155-.83-.169s-.505.111-.738.23c-.224.117-.484.553-.439.902.208 1.668 2.166 1.686 3.066 2.744.155.178-.236.9-.604 1.195-.314.251-1.067-.377-.946-.91.1-.425-.929-.709-1.287-.225.142-.014.179.08.165.148-.064.391.423.405.407.605-.021.273-.259-.119-.449-.15-.412-.086-.826.059-1.068.393-.071.1-.235.261-.164.43.317-.154.482.338.777.188.182-.094.327-.252.545-.197.086.023.174.14.096.193-.576.368-1.039.887-.622 1.479a.31.31 0 0 1 .209-.26c.168-.046.392.067.556.015.268-.091.13-.359.233-.548.159-.301.704-.801 1.013-.437.057.064.012.307-.152.313.168-.007.32.16.464.127.041-.004.084-.004.121-.022.031-.017.068-.024.094-.05.067-.069.145-.141.156-.249.124.011.281.021.362-.083s.176-.188.264-.268M20.336 29.44c1.073-.3 2.266-.858 2.523-2.051.325.196.428.642.43.915.024 1.492-.628 2.783-.311 4.35.034.178.357.731.211.666-.179-.078-.558-.436-.764-.271-.259.202-.243.526-.369.45-.472-.285-.97-.711-1.198-1.256-.088-.207-.052-.648-.11-.588-.358.392-1.093.475-1.636.557.123-.11.235-.554.215-.646-.428-.215-1.043.518-1.031.424.021-.234.047-.311.07-.375.32-.935.919-1.886 1.97-2.175M12.359 3.989c.278-.008.483-.179.661-.367-.014.156.216.378.131.546-.105.209-.377.337-.427.531-.112.396.21.787-.024 1.182-.69 1.168-2.194.782-3.222 1.037.072-.123-.017-.311-.095-.362.455.058 1.064-.04 1.187-.386.147-.424.223-.739.023-1.089-.327-.579-1.012-.31-1.526-.107-.08-.358.257-.577.45-.626.544-.144 1.036-.379 1.545-.569.443-.166.844.221 1.297.21m-.761.58c.046-.021.068-.052.063-.057-.389-.546-.857-.49-1.056-.005-.135.329.647.223.993.062m20.618 1.619c-.147.126-.394.12-.56.237l-.3.209a2.14 2.14 0 0 1-.25.111c-.151.037-.119.019-.257.037a1.16 1.16 0 0 1-.204.016l-.417.006c-.195-.004-.229.01-.426-.021a1.96 1.96 0 0 1-.326-.087.78.78 0 0 0-.222-.035c.008-.081.018-.163.08-.218.082-.068.099-.006.216-.017.006 0 .17.013.176.013l.091-.004c.049-.009.094-.02.139-.041.061-.029.123-.046.177-.087.017-.019.039-.03.059-.052.039-.035.092-.053.128-.098.111-.138.195-.27.205-.443.012-.131.021-.265 0-.398-.006-.021-.009-.041-.01-.062-.008-.104-.06-.198-.11-.295-.298-.568-1.013-.014-1.504-.038 0-.106-.011-.308.045-.378.35-.452.89-.229 1.172-.437.942-.7 1.193-.196 2.181.077.295.082.719-.104.997-.224.07-.028.068.417.034.506-.117.313-.442.298-.555.577-.166.413-.192.993-.627 1.198m-.614-1.879c.043-.023-.034.034 0-.002-.425-.212-.979-.49-1.173.074-.143.419.804.129 1.173-.072m-9.842 22.035c.436.104.912.115 1.193-.267.14.593-.403.667-.502.955-.153.44-.144.88-.569 1.109-.849.453-1.912.997-2.886 1.073.008-.118-.074-.337.082-.346a.81.81 0 0 0 .684-.47c.105-.282-.015-.962-.27-1.095-.294-.156-.551.082-.82.201-.113-.3.353-.793 1.083-.752-.02-.001.361-.414.343-.402.479-.326 1.001-.162 1.662-.006m-1.297.763c.168.062.669-.214.851-.315.043-.023.075-.068.109-.104-.155-.044-.283-.056-.425-.074-.104-.011-.184-.08-.29-.102-.026-.006-.053-.002-.08.008-.04.017-.056.045-.087.061-.051.022-.122.022-.17.062s-.087.084-.1.146c-.021.068-.004.169.045.229.037.048.094.071.147.089m14.538-4.9c-.014-.143.347-.571.354-.887.033-1.067.679-1.572.698-2.714.004-.299-1.23-.577-1.283-1.221-.025-.318-.133-.778.188-.773.409.008.81-.063 1.101-.319 1.29-1.138.2-2.69.044-4.06-.035-.301.522-.947.506-1.16-.089-1.162-.305-2.225.11-3.367-.324.291-.423.77-.695 1.017-.132.12-.196-.147-.188-.192.164-1.006.563-1.886 1.029-2.838.551-1.135.273-2.055-.746-2.391-.932-.311-1.834.557-1.936 1.453-.092.816.162 1.799.357 2.471.054.195.021.418.062.588.168-.676.187-1.383.175-2.1-.002-.176.138-.409.316-.463.605-.175.921.264.88.605-.133 1.074-.351 1.895-.606 2.959-.292 1.221.144 2.426.271 3.606-.466-.272-.974-.286-1.153.44-.099.388.25.795.357 1.135.011-.463.449-1.098.875-.813.523.347.542 2.015.428 2.238-.255.482-.672.829-1.252.656-.326-.095-.193-.579-.39-.782-1.041-1.077-1.516-2.363-1.604-3.853-.013-.216.102-.788.069-.798-1.362-.562-1.988-.003-2.555.798-.097-.243-.614-.582-.657-.506-.257.48-.183 1.349.203 1.683 1.049.911 2.091 1.52 2.681 2.817-.631.081-1.246.263-1.487.921-.253.689-.166 1.643.559 1.922.593.228 1.608-.025 1.831.004.629.082 1.332.622 1.233 1.217-.005.028-.269 1.418-.87 1.074-.326-.186-.143-.949-.639-1.064-.667-.165-.831.768-.748.688.214-.201.361.131.773.362-1.397-.305-.962.976-.913.836.073-.202.326.006.827-.025.019 0-.109.104-.115.111-.079.131-.117.193-.174.332-.029.062-.024.133-.017.201s.031.129.067.188c.007.013.02.021.035.03.007.002.026.035.03.035.029.002-.027-.099.054-.105.021-.002.078-.012.094-.006.037.014.086.04.123.048a.59.59 0 0 0 .114.023c.096.013.129.015.212-.013.071-.027.142-.04.207-.087-.088.06.1-.093.094-.074.085-.185.139-.132.159-.165.148-.283.277-.311.604-.271.033.005.093.073.113.101.023.035.09.213.079.146.024.134.105.218.116.342"/><path d="M24.851 9.388c-.084-.056-.114-.185-.174-.238l-.05-.062c-.029-.029-.044-.072-.054-.113-.059-.2-.029-.438.151-.568.009-.006.006-.016.009-.023.01-.02.037-.027.042-.044s.034-.017.025-.04c.012.007.013-.012.018-.016.036-.045.038-.129-.031-.152.057.005.115.001.174.017l.068.014c.221.028.499.128.558.353l.077.084c.23.537.152 1.85 1.432 2.165.667.164 1.337.372 2.02.36-.164.665-.162 1.51.364 1.993-.767-.419-1.277-.332-1.947-.963-.296-.281-.99-.669-1.326-.612-.139.026.191-.442-.115-.533-.203-.061-.742-.047-.835.091-.442.666-.908.663-1.064.796.182-.153-.724-.891.399-1.289.106-.039.146-.285.014-.345-.22-.104-.402.048-.619.174-.249.15-.306-.392-.696-.19-.081-1.155.948-1.256 1.562-.533.043.053.215-.013.144-.076l-.146-.25z"/></g><path d="M4.551 26.738L20.495 14.06l15.968 12.331-.655 1.973L20.495 16.68 5.327 28.835zm2.038 5.213l13.906-11.382 13.978 10.792-.954 1.916-13.024-10.006L7.564 33.773z" fill="#231f20"/></svg>