<svg xmlns="http://www.w3.org/2000/svg" width="165.667" height="43.5" xmlns:v="https://vecta.io/nano"><path fill="#ed1b2f" d="M.804 18.568C-.57 13.67.234 9.139.234 3.658 5.136 1.222 9.989 1 15.25 1c4.548 0 10.998.586 14.882 2.649.399 5.168.628 9.715-.699 15.588s-5.348 13.981-14.151 19.974C5.675 32.912 2.694 25.3.804 18.568"/><path fill="#fff" d="M5.395 11.388L.662 16.429c1.063 4.934 3.848 15.221 14.584 22.2 10.641-7.322 13.651-17.198 14.295-22.206l-4.599-5.045-5.095 5.163-4.693-5.119-4.677 5.055zm-.031-3.409c.766-.002 2.225.113 2.571.362.12-.191 1.005-1.847 1.089-2.321-.316-.121-.61.298-.74.33-.223-.349-.446-.349-.554-.333-.189.055-.089.119-.013.146 1.191 1.004-.569 2.002-.877.992-1.515.124-1.12-1.093-.732-1.246.258-.076.048-.116-.032-.146-.095-.02-.284-.032-.308.047.024-.597-.048-1.061-.408-1.261-.359.2-.424.667-.398 1.266-.025-.08-.212-.068-.308-.049-.079.028-.289.067-.033.146.392.153.782 1.371-.732 1.246-.306 1.009-2.065.011-.879-.994.079-.023.181-.088-.007-.143-.113-.017-.329-.017-.557.332-.13-.031-.423-.449-.742-.328.089.472.971 2.128 1.089 2.321.348-.249 1.806-.365 2.571-.367m0 1.288c.558-.001 1.432.055 1.958.221a10.03 10.03 0 0 1 .483-.918c-.45-.27-1.833-.349-2.439-.348s-1.991.083-2.44.354c.122.184.353.642.479.915.529-.163 1.401-.222 1.959-.224m1.378-1.859l.36.516-.809-.079zm-.479 1.077a.282.282 0 1 0 0 .564.28.28 0 0 0 .276-.282.286.286 0 0 0-.276-.282m.859.178a.27.27 0 0 0-.271.274c0 .15.125.272.271.272a.27.27 0 0 0 .267-.272.27.27 0 0 0-.267-.274M5.366 9.996c-1.072.001-1.87-.105-1.87-.236s.792-.267 1.87-.269 1.868.132 1.868.265-.797.237-1.868.24m-.003-1.558c.15 0 .28.124.28.278a.286.286 0 0 1-.28.284.287.287 0 0 1-.279-.284.28.28 0 0 1 .279-.278m-.872.047a.28.28 0 0 1 .281.282.277.277 0 0 1-.281.282.28.28 0 0 1-.276-.282.29.29 0 0 1 .276-.282m-.859.178a.27.27 0 0 1 .27.274c0 .15-.122.272-.27.272a.27.27 0 0 1-.268-.272.27.27 0 0 1 .268-.274m1.724-1.824l.584.992H4.801zm-1.345.569l-.36.515.808-.077zm20.924.571c.766-.002 2.224.114 2.571.363.121-.192 1.004-1.849 1.089-2.322-.318-.122-.612.298-.74.33-.227-.351-.447-.351-.556-.333-.188.055-.089.119-.012.145 1.19 1.003-.57 2.001-.876.993-1.516.123-1.122-1.094-.731-1.246.258-.077.047-.117-.032-.145-.096-.021-.286-.032-.31.047.023-.598-.048-1.062-.406-1.262-.357.2-.422.667-.397 1.267-.024-.082-.212-.069-.308-.048-.08.028-.289.067-.034.146.393.153.784 1.371-.73 1.246-.307 1.009-2.066.013-.878-.994.079-.023.182-.088-.007-.143-.114-.017-.329-.017-.556.332-.132-.032-.424-.449-.745-.329.089.472.973 2.129 1.091 2.321.344-.25 1.799-.366 2.567-.368m0 1.288c.557-.001 1.43.055 1.958.221.128-.274.356-.732.482-.918-.45-.269-1.835-.348-2.44-.347s-1.991.083-2.44.353a9.01 9.01 0 0 1 .481.917c.527-.165 1.399-.224 1.959-.226m1.379-1.859l.359.516-.808-.078zm-.481 1.077a.284.284 0 0 0-.285.282.28.28 0 1 0 .56 0 .284.284 0 0 0-.275-.282m.859.178a.273.273 0 0 0 0 .546.27.27 0 0 0 .267-.272.27.27 0 0 0-.267-.274m-1.756 1.333c-1.071.001-1.87-.103-1.87-.236s.792-.267 1.87-.269 1.87.133 1.87.266-.8.236-1.87.239m-.003-1.558c.151 0 .28.124.28.278a.286.286 0 0 1-.28.284.29.29 0 0 1-.28-.284c0-.156.132-.278.28-.278m-.872.047a.28.28 0 0 1 .282.282.277.277 0 0 1-.282.282.284.284 0 0 1-.278-.282.29.29 0 0 1 .278-.282m-.859.178a.27.27 0 0 1 .27.274c0 .15-.122.272-.27.272s-.269-.123-.269-.272a.27.27 0 0 1 .269-.274m1.725-1.824l.584.991h-1.14zm-1.345.569l-.363.516.811-.078z"/><path fill="#ed1b2f" d="M4.772 20.909c.073-.158.243-.638.313-.798-.071-.168-.241-.325-.384-.325.071-.157.345-.36.293-.502s-.177-.129-.459-.273a.66.66 0 0 1 .456-.334c.148-.028.151-.249.414-.389s.499-.177.881-.157 1.637.366 1.311 1.813c.723 1.448 3.231-.481 4.125-.481-.168.325-.41.65-.567.964.241.168.567 0 .808 0-.241.797-.724 1.121-1.133 1.447.41 1.288 1.899.791 3.235.642-.164.44-.724.481-.966.809.456.478.966 1.123 1.292 1.771-.599-.397-1.857-.808-2.267-.966-.809-.325-2.427-.325-3.235 0 .169.313.483.481.736.642-.409.808-1.218.326-1.7.166-.41.315-1.167.338-1.376.158 0 0 0-.203.242-.379.165-.229-.483-.271-.652-.587.003-.296.312-.002.494-.325-.413-.808-2.102-.968-1.861-2.896m1.146-2.298a.161.161 0 1 1-.16.162.16.16 0 0 1 .16-.162m10.275 2.533c.071-.158.242-.641.312-.798-.07-.169-.241-.325-.386-.325.074-.155.347-.361.295-.502s-.177-.129-.459-.273a.65.65 0 0 1 .454-.334c.148-.027.151-.248.414-.389s.499-.178.881-.156 1.637.366 1.311 1.813c.725 1.446 3.234-.484 4.126-.484-.17.326-.412.653-.568.965.242.168.568 0 .808 0-.241.797-.724 1.121-1.133 1.448.409 1.292 1.898.793 3.231.639-.164.441-.723.48-.964.811.456.477.964 1.121 1.291 1.771-.6-.396-1.857-.81-2.268-.963-.808-.328-2.425-.328-3.233 0 .169.313.483.479.736.642-.411.807-1.219.325-1.701.168-.412.312-1.168.336-1.377.155 0 0 0-.201.243-.377.165-.231-.483-.274-.652-.588.003-.298.312-.005.495-.328-.408-.81-2.098-.969-1.856-2.895m1.124-2.299c.089 0 .164.073.164.164a.164.164 0 1 1-.164-.164m-6.595 10.384c.072-.158.241-.641.314-.797-.074-.168-.242-.326-.387-.326.073-.157.347-.362.293-.506-.052-.139-.177-.127-.458-.271.1-.2.304-.305.453-.333s.154-.251.414-.39.5-.181.881-.157 1.636.364 1.312 1.812c.723 1.445 3.234-.483 4.126-.483-.168.328-.41.65-.566.966.24.169.566 0 .808 0-.241.797-.725 1.123-1.133 1.448.409 1.289 1.896.791 3.232.638-.165.442-.724.481-.964.81.454.479.964 1.121 1.29 1.772-.598-.397-1.856-.81-2.267-.964-.808-.327-2.424-.327-3.233 0 .168.312.481.48.735.64-.41.808-1.219.325-1.703.167-.41.312-1.165.338-1.373.157 0 0 0-.201.24-.379.166-.229-.482-.272-.65-.585.003-.297.313-.004.494-.327-.409-.809-2.097-.963-1.858-2.892m1.137-2.297a.149.149 0 1 1 0 .298.149.149 0 1 1 0-.298"/><path fill="#fff" d="M15.241 9.441c-.229.204-.318.28-.267.486h.577c.028-.224-.057-.314-.31-.486m3.317-6.343s-.705.298-1.351.017c-.704-.307-1.339-.409-1.845-.185v6.185c.438-.21.919-.129 1.603.036s1.086.157 1.595.072zm.209.006.533.507v6.132l-.534-.502zm.41 6.807-.562-.493c-.419.167-1.326-.021-1.755-.102-.72-.137-1.014-.225-1.489-.012.258.148.419.357.407.611zm-7.852.004.562-.495c.419.169 1.323-.019 1.755-.1.72-.138 1.012-.225 1.487-.012-.258.149-.419.359-.406.611zm.373-6.762-.535.505v6.133l.535-.503zm.21-.055s.711.298 1.36.017c.704-.307 1.338-.409 1.844-.185v6.185c-.438-.21-.921-.129-1.604.036s-1.085.157-1.593.072z"/><path fill="#ed1b2f" d="M15.668 4.241c.008-.253.148-.399.377-.399.202 0 .33.113.337.294h-.164c0-.061-.045-.15-.166-.15s-.222.115-.222.29c0 .125.071.262.201.262.088 0 .176-.032.185-.158h.164c.022.141-.135.311-.337.311-.212-.001-.385-.152-.375-.45m.79.136c-.016-.225.124-.462.396-.45.209 0 .402.146.382.434-.01.185-.105.399-.391.406-.29-.007-.378-.241-.387-.39m.166-.06c0 .149.051.298.229.298.14.001.215-.112.215-.26 0-.089-.016-.27-.217-.27-.087-.001-.207.031-.227.232m.784.52v-.81h.165l.334.547v-.547h.165v.809h-.165l-.325-.547v.547zm-1.047 1.532v-.81h.572v.146h-.401v.185h.357v.141h-.357v.338zm.765.087v-.808h.173v.807zm-.611 1.602h-.395v-.81h.382c.432.053.343.769.013.81m-.23-.139h.164c.223 0 .237-.525-.006-.525h-.158zm.669-.113c-.016-.224.125-.46.395-.45.209 0 .401.145.381.437-.007.184-.104.396-.39.405-.291-.009-.38-.241-.386-.392m.165-.057c0 .148.051.295.228.295.141 0 .218-.112.218-.261 0-.088-.017-.269-.218-.269-.087 0-.209.031-.228.235m-4.294-3.001v-.81h.172v.809zm.356-.097v-.808h.164l.335.547v-.547h.164v.808h-.164l-.326-.547v.547zm-.6 1.805h-.395v-.808h.383c.431.053.343.768.012.808m-.227-.137h.164c.221 0 .237-.525-.009-.525h-.155zm.615-.389c-.016-.224.125-.463.394-.45.21 0 .402.145.382.435-.008.183-.104.397-.391.405-.289-.008-.379-.242-.385-.39m.164-.06c0 .147.052.296.228.296.143 0 .217-.113.217-.261 0-.088-.018-.27-.217-.27-.087.002-.207.033-.228.235m.769.398v-.809h.245l.148.612.15-.612h.24v.808h-.165v-.642l-.14.643h-.171l-.141-.643v.643zm-1.348 1.946v-.808h.173v.808zm.362-.101v-.807h.165l.333.547v-.547h.165v.808h-.165l-.326-.547v.547zm.836-.45c-.017-.225.124-.462.395-.45.209 0 .401.145.381.434-.008.186-.104.399-.39.406-.289-.009-.378-.241-.386-.39m.164-.06c0 .148.052.296.231.296.141 0 .216-.114.216-.262 0-.087-.016-.269-.216-.269-.09.003-.209.034-.231.235m118.709-2.24a2.35 2.35 0 0 1 2.336 2.339c0 1.292-1.063 2.357-2.336 2.357s-2.32-1.066-2.32-2.357a2.334 2.334 0 0 1 2.32-2.339m22.173 24.823c-.104 1.025-.572 1.703-2.504 2.234-1.521.494-1.336 1.292.207 1.354 4.144-.592 5.433-.488 9.148-.08 1.457-.021 1.212-.963.307-1.395-2.176-.841-2.523-.861-2.955-3.017l-.162-21.745c0-1.251.472-2.708-.863-2.38l-4.943 1.848c-1.189.512-.738 1.086.121 1.375 1.213.491 1.312 1.229 1.379 2.112zm-12.759-.124c-.104 1.024-.576 1.703-2.502 2.236-1.519.492-1.338 1.292.202 1.354 4.144-.594 5.438-.491 9.149-.082 1.457-.021 1.211-.961.308-1.395-2.176-.843-2.521-.863-2.952-3.015l-.166-21.745c0-1.253.473-2.709-.865-2.38l-4.942 1.847c-1.187.513-.735 1.088.126 1.375 1.211.492 1.312 1.231 1.374 2.113zm-11.633-8.555c-.103-1.106-.244-1.97-1.516-2.338-.903-.083-1.335-.904-.042-1.395 2.585-.841 2.956-.985 4.942-2.585.617-.327 1.332-.061.983 1.046-.142.841-.122 1.23-.185 2.135l.021 11.321c.104 1.847 1.538 2.154 2.463 2.521s1.006 1.456-.08 1.477c-4.021-.554-4.904-.612-8.779.164-1.291.021-1.577-.963.021-1.539s2.133-.838 2.217-2.215zm-35.589-2.09c.901-9.664 7.099-13.704 15.817-14.423 9.188.062 10.502.676 10.38 5.806.062 1.845-1.169 2.276-2.033.184-.981-1.887-1.804-2.974-4.144-3.937-7.918-1.785-13.784 3.302-14.137 11.958-.554 12.207 13.108 15.774 15.938 11.22.598-1.188.598-4.348.515-6.953-.492-1.724-2.133-1.56-3.734-1.621-1.723.123-2.338-1.825-.021-1.805 2.238 0 6.544.202 12.083-.309 1.641.062 1.764 1.558-.244 1.785-.863.164-2.689.144-2.936 1.581-.205 7.424 1.521 8.143-4.083 10.174-7.14 1.684-14.831.902-19.179-3.303-1.946-1.722-4.385-5.683-4.222-10.357M76.375 24.38c.8-8.042 7.468-9.931 10.892-9.95 4.062.123 5.354 1.457 5.398 2.811s-.928 2.072-1.973 1.783c-2.234-.574-1.806-2.932-4.779-3.118-3.367.493-5.396 4.268-4.822 8.781s4.943 7.875 10.277 5.129c1.297-.289 1.396.777.348 1.517-9.802 6.031-15.752-2.565-15.341-6.953M46.097 10.881c-.205-2.769-1.067-1.928-3.18-2.769-1.704-.329-1.847-1.559-.164-1.621 3.034.225 4.553.267 7.076-.123 1.149.185 1.641.656 2.072 1.763l7.303 15.653c.369.8.575.965 1.046-.063l6.239-15.938c.697-1.354 1.454-1.681 3.629-1.477 3.754.062 4.677-.042 6.522-.246 1.6.062 1.5 1.292-.081 1.723-2.421.021-3.693.842-4.063 2.647l.349 18.296c.392 2.729 1.806 2.812 4.35 3.467 1.149.514.902 1.314-.082 1.578-5.313-.613-7.159-.573-12.431-.062-1.519.146-1.622-1.17.02-1.519 1.949-.431 2.441-.775 2.873-1.805l-.39-17.64c-.063-.698-.492-.698-.759.122l-7.446 18.61c-.699 1.576-1.006 1.576-1.766.349l-8.799-19.058c-.267-.656-.595-.453-.636-.042l.083 16.821c.246 1.949 1.6 2.073 4.348 2.933.78.248.822.906.186 1.312-5.376-.451-6.237-.451-11.222.188-.779 0-1.148-1.149.063-1.312 2.646-.759 3.364-.801 3.753-2.318z"/></svg>