<svg xmlns="http://www.w3.org/2000/svg" viewBox="0 0 240 70" xmlns:v="https://vecta.io/nano"><path d="M174.2 34.8v-.2c0-19.8 15.5-34.6 35.3-34.6 14.6 0 24.5 7.1 30 17.3L221.2 28c-2.5-4.7-6-8.1-12-8.1-7.5 0-12.4 6.5-12.4 14.5v.2c0 8.6 5.1 14.7 12.4 14.7 6.3 0 9.8-3.4 12.5-8.3L240 51.3c-5.6 9.9-14.9 17.9-31.4 17.9-18.4 0-34.4-13.8-34.4-34.4M145.8 1.4H168v66.3h-22.2z" fill="#005493"/><path d="m130.6 1.4-23.1 66.8h8.9l12.8-31.8 12.1-35z" fill="#002747"/><path d="M98.7 68.2h9.2l23-66.8h-9.1z" fill="#c63527"/><path d="m116.4 68.2 26.9-66.8h-4.5c-1.6 22.3-27.2 44.6-28.1 66.8z" fill="#005493"/><path d="M118.4 1.4 95.2 68.2h5c.9-22.3 26.5-44.6 28.2-66.8z" fill="#f5aa1c"/><path d="M92.6 1.4H67.8l26.9 66.8h.5l10.3-29.6zM0 38V1.4h22.6v36.3c0 8.2 4.3 11.8 10.2 11.8S43 46.3 43 38.2V1.4h22.6v36.1c0 22.7-13.2 31.6-33 31.6S0 60 0 38" fill="#005493"/></svg>