<svg xmlns="http://www.w3.org/2000/svg" viewBox="0 0 750 500" xmlns:v="https://vecta.io/nano"><style><![CDATA[.B{fill:#263238}.C{fill:#455a64}.D{fill:#3560ff}.E{fill:#ffbe9d}.F{fill:#fff}.G{fill:#eb996e}.H{fill:#e0e0e0}.I{fill:#894536}.J{fill:#aa6550}]]></style><g fill="#ebebeb"><path d="M595.24 120.26l-1.79-3.09c-15.05-26.1-43-42.26-72.8-41a78.74 78.74 0 0 0-11.44 1.31C482 82.64 458 102.59 447.62 128.61c-6.09 15.3-8.09 33-19.27 45-14.54 15.62-38.64 15.58-59.81 14.45s-45.28-1.11-59.76 14.58c-9.07 9.82-12.19 24-11.78 37.44 1.09 35.57 25.14 67.89 56.28 84.39s68.17 18.73 102.78 12.55c48.49-8.65 95-34.35 123.51-75s36.75-96.71 15.67-141.76z"/><circle cx="197.07" cy="150.18" r="56.81"/></g><path d="M149 261.84h-17.82a21.4 21.4 0 0 0-21.11 18l-14.34 88.1a30.16 30.16 0 0 0 29.74 35h371.72a17.26 17.26 0 0 0 16.69-21.62h0a17.25 17.25 0 0 0-16.69-12.92h0a26 26 0 0 1-24.59-17.68l-22.94-68.02a26.65 26.65 0 0 0-25-18.15z" class="C"/><path d="M140.86 427.41l-9.66 44.73h10.1l11.13-44.73h-11.57m351.63 0l9.4 44.08h-10.2l-10.77-44.08h11.57" class="B"/><path d="M449.85 427.41l8.81 44.08h-10.21l-10.17-44.08h11.57m-346.15 0l-9.73 44.73h10.2l11.1-44.73H103.7" class="H"/><path d="M72 368.61v52.79a15.42 15.42 0 0 0 15.46 15.38h412.1A15.42 15.42 0 0 0 515 421.4l-.57-43z" class="C"/><path d="M458.56 308.59l-.76.58-2.26 1.67-1.69 1.2-2.1 1.35-2.47 1.55-2.89 1.63a94.1 94.1 0 0 1-15.65 6.86 102 102 0 0 1-22.11 4.76 99.62 99.62 0 0 1-27.37-1.19l-3.65-.8-1.85-.41-1.84-.5-7.42-2.3c-5-1.71-10-3.78-15.08-6-10.19-4.34-20.75-9.33-32.37-12.56a132.19 132.19 0 0 0-73.56.6c-11.55 3.47-22.23 8.15-32.66 11.93s-20.65 6.7-30.51 7.63a68.65 68.65 0 0 1-14.28-.1 54.93 54.93 0 0 1-12.79-3.14 91.55 91.55 0 0 1-10.89-5c-3.35-1.76-6.44-3.52-9.36-5.12a111.27 111.27 0 0 0-15.36-7.4 51.42 51.42 0 0 0-10.44-2.61l-2.79-.22-1-.09h1c.67 0 1.57.07 2.8.16a50 50 0 0 1 10.5 2.53 111.48 111.48 0 0 1 15.43 7.4l9.38 5.08a90 90 0 0 0 10.85 4.94 54.6 54.6 0 0 0 12.71 3.09 68.63 68.63 0 0 0 14.2.07c9.81-.94 20-3.8 30.39-7.65s21.09-8.48 32.67-12a132.48 132.48 0 0 1 73.85-.6c11.67 3.25 22.24 8.26 32.42 12.61 5.09 2.19 10.08 4.26 15 6 2.48.84 4.93 1.64 7.39 2.3l1.83.5 1.84.41 3.63.8a99.28 99.28 0 0 0 27.25 1.23 101.9 101.9 0 0 0 22.06-4.67 94 94 0 0 0 15.64-6.76l2.9-1.6c.9-.52 1.71-1.06 2.48-1.53l2.11-1.33c.64-.4 1.19-.83 1.7-1.18l2.29-1.62zm53.29 45.16l-1.13-.33-1.38-.43a18.93 18.93 0 0 0-1.93-.54 56.38 56.38 0 0 0-13.13-1.74 74.53 74.53 0 0 0-9.57.47 94.59 94.59 0 0 0-11.24 1.92c-4 .9-8.22 2.07-12.64 3.48s-9 3.08-13.89 4.84l-15.3 5.33a134.56 134.56 0 0 1-17 4.42c-1.5.25-3 .54-4.54.71l-2.32.29-2.34.19c-1.56.16-3.15.14-4.74.21l-2.41-.05h-1.21l-1.21-.1a86.4 86.4 0 0 1-19.57-3.83c-13.09-4-26-10.43-40.12-14.89a107.55 107.55 0 0 0-22.09-4.51 139.54 139.54 0 0 0-23.24-.27C275.13 350 260 353 245.52 356.13l-21.37 4.61c-7 1.44-13.89 2.66-20.65 3.63a198.7 198.7 0 0 1-19.86 1.91c-3.24.19-6.43.16-9.57.17s-6.23-.17-9.25-.51a97.64 97.64 0 0 1-32.61-8.3c-4.71-2.14-9-4.64-13-6.88a106 106 0 0 0-11.78-5.76 34.83 34.83 0 0 0-20.5-2.37 24.67 24.67 0 0 0-7.15 2.61 19.53 19.53 0 0 0-4.42 3.4 14.57 14.57 0 0 0-1.31 1.51 10.2 10.2 0 0 0-.83 1.19l-.64 1 .6-1a7.91 7.91 0 0 1 .81-1.2 13.32 13.32 0 0 1 1.29-1.54 19.35 19.35 0 0 1 4.42-3.46 24.53 24.53 0 0 1 7.19-2.68 35 35 0 0 1 20.65 2.3 104.61 104.61 0 0 1 11.81 5.77c4.08 2.23 8.32 4.71 13 6.84a97.52 97.52 0 0 0 32.5 8.2c3 .33 6.1.36 9.22.49s6.31 0 9.54-.18a195 195 0 0 0 19.81-1.93 384.62 384.62 0 0 0 20.62-3.64l21.36-4.62c14.51-3.11 29.64-6.2 45.39-7.25a140.62 140.62 0 0 1 23.33.27 108.4 108.4 0 0 1 22.19 4.54c7.1 2.23 13.86 5 20.49 7.66s13.11 5.28 19.62 7.26a85.7 85.7 0 0 0 19.46 3.83l1.2.1h1.2l2.39.05c1.59-.07 3.17-.05 4.72-.2l2.33-.19c.77-.08 1.53-.19 2.3-.28 1.53-.17 3-.46 4.52-.7a136.4 136.4 0 0 0 17-4.38c5.36-1.71 10.45-3.55 15.3-5.3l13.92-4.8c4.44-1.39 8.67-2.56 12.68-3.46a94.83 94.83 0 0 1 11.27-1.88 74.59 74.59 0 0 1 9.61-.42 55.34 55.34 0 0 1 13.14 1.84 17.89 17.89 0 0 1 1.93.56l1.38.46zm-87.17-90.29l-.59.55-1.77 1.56-3.07 2.31c-1.23.9-2.72 1.81-4.47 2.72a60.63 60.63 0 0 1-13.35 5.25l-4.23 1-4.56.79a90.43 90.43 0 0 1-10 .89 149.19 149.19 0 0 1-23-1.24l-26.2-3.45c-4.62-.51-9.37-.92-14.23-1.07s-9.83 0-14.87.37a301.39 301.39 0 0 0-31 4.23c-10.57 1.88-20.88 3.84-30.93 5.21a234.47 234.47 0 0 1-29.15 2.08 229.83 229.83 0 0 1-49.15-4.95 227.82 227.82 0 0 1-32-9.28l-4.89-1.87-3.54-1.48-2.17-.92c-.49-.21-.73-.33-.73-.33l.75.28 2.19.88 3.55 1.43c1.41.55 3.06 1.13 4.91 1.82a234.71 234.71 0 0 0 32 9.11 231.9 231.9 0 0 0 49.08 4.83 235.44 235.44 0 0 0 29.08-2.1c10-1.38 20.33-3.34 30.91-5.23a304.06 304.06 0 0 1 31.08-4.22c5.05-.38 10-.45 14.92-.35s9.64.56 14.27 1.09c9.25 1.06 18 2.5 26.19 3.49a149 149 0 0 0 22.94 1.3 92.62 92.62 0 0 0 10-.85c1.57-.19 3.07-.5 4.54-.76s2.87-.62 4.22-1a61 61 0 0 0 13.32-5.15c1.75-.89 3.2-1.87 4.48-2.67s2.27-1.63 3.09-2.27l1.8-1.51zm89.06 147.33l-1.1-.41-3.22-1.27c-1.42-.55-3.25-1-5.36-1.71l-3.49-.84-1.93-.44-2.08-.34a91.2 91.2 0 0 0-21-1 157.72 157.72 0 0 0-27.5 4.36c-10.06 2.36-20.84 5.84-32.49 9.35s-24.19 7.06-37.8 8.8a105.9 105.9 0 0 1-21 .7 82.69 82.69 0 0 1-21.45-4.42c-14.14-4.89-27.26-13.22-41.26-20.41a127.58 127.58 0 0 0-21.51-8.92c-1.82-.61-3.7-1-5.54-1.46a42.66 42.66 0 0 0-5.58-1 96.5 96.5 0 0 0-11.17-1.06A123.63 123.63 0 0 0 228.5 392a176.71 176.71 0 0 0-20.5 4.18c-13.21 3.49-25.45 7.88-37.07 11.47s-22.63 6.47-32.9 7.84a101 101 0 0 1-27.86 0A73.06 73.06 0 0 1 90 409.67a59.79 59.79 0 0 1-11.36-6.93l-3.51-3s.32.24.92.74 1.46 1.28 2.66 2.22A61.3 61.3 0 0 0 90 409.48a73.27 73.27 0 0 0 20.15 5.76 100.54 100.54 0 0 0 27.77-.12c10.24-1.39 21.23-4.25 32.82-7.89s23.85-8 37.08-11.51a177.14 177.14 0 0 1 20.58-4.24 123.63 123.63 0 0 1 21.89-1.27 97.53 97.53 0 0 1 11.23 1.06c1.88.24 3.73.69 5.61 1s3.74.85 5.57 1.46a126.48 126.48 0 0 1 21.6 9c14 7.2 27.13 15.52 41.2 20.38a82.5 82.5 0 0 0 21.31 4.42 105.78 105.78 0 0 0 20.9-.69c13.56-1.71 26.1-5.29 37.74-8.74s22.44-7 32.53-9.28a156.7 156.7 0 0 1 27.56-4.3 91 91 0 0 1 21 1.06l2.08.35 1.94.46c1.24.31 2.42.54 3.49.86 2.12.7 3.94 1.19 5.35 1.76l3.21 1.32z" class="H"/><path d="M481 325.68h14.42a19.07 19.07 0 0 1 19.07 19.07v43.64a13.79 13.79 0 0 1-13.79 13.79h-14.46a24.35 24.35 0 0 1-24.35-24.35v-33.08A19.07 19.07 0 0 1 481 325.68zm-389.94 0h14.42a19.07 19.07 0 0 1 19.07 19.07v57.43a0 0 0 0 1 0 0H96.34A24.35 24.35 0 0 1 72 377.82v-33.07a19.07 19.07 0 0 1 19.06-19.07z" class="C"/><g class="B"><path d="M127.47 369.09h.89 2.62l10.08-.05h37.06l122.28.53 122.3.69 37.06.14 10.08.06h2.62.89-.89-2.62l-10.08.05H422.7c-31.3 0-74.53-.23-122.3-.53l-122.28-.69-37.06-.14-10.06-.01h-2.62zm-2.91 67.69a1.39 1.39 0 0 1 0-.33v-1l-.08-3.72-.23-13.68-.89-45.12c-.3-8.8-.41-17.22-1.6-24.74a35.24 35.24 0 0 0-3.19-10.19 19.33 19.33 0 0 0-6-7.06 26.42 26.42 0 0 0-12.31-5.42 14.9 14.9 0 0 0-2.12-.11c-.62.05-1.14.12-1.56.17l-.93.25-.32.07a1.17 1.17 0 0 1 .31-.12l.92-.3c.42-.07 1-.16 1.57-.22a13.38 13.38 0 0 1 2.15.06 26 26 0 0 1 12.51 5.33 19.45 19.45 0 0 1 6.16 7.16 35.13 35.13 0 0 1 3.22 10.38c1.23 7.58 1.35 16 1.65 24.81l.74 45.13.06 13.68v3.72 1a1.19 1.19 0 0 1-.06.25zm-26.83-91.03c0 .06-.55.05-1.48.33a6.8 6.8 0 0 0-3.25 2.28 6.38 6.38 0 0 0-1.23 2.47 5.57 5.57 0 0 0 .14 3.12 6.17 6.17 0 0 0 11.36 1.25 5.61 5.61 0 0 0 .82-3 6.46 6.46 0 0 0-.67-2.68 6.81 6.81 0 0 0-2.72-2.95c-.84-.47-1.38-.58-1.37-.63s.14 0 .4.06a4.63 4.63 0 0 1 1.07.39 6.95 6.95 0 0 1 3.72 5.79 6.1 6.1 0 0 1-.83 3.28 6.63 6.63 0 0 1-12.24-1.35 6.07 6.07 0 0 1-.1-3.37 6.91 6.91 0 0 1 4.89-4.85 4.25 4.25 0 0 1 1.13-.15 1.79 1.79 0 0 1 .36.01z"/><path d="M93 369.29a4 4 0 0 1-.5-1.66 10 10 0 0 1 .28-4.2 10.09 10.09 0 0 1 2-3.72c.7-.82 1.27-1.19 1.3-1.14a12.63 12.63 0 0 0-3 10.72zm-3.92-12.97c-.13-.05.1-.79.78-1.42s1.43-.81 1.48-.67-.53.49-1.12 1-1.01 1.16-1.14 1.09zm23.61-.86c-.06.06-.43-.38-1.16-.89a7.59 7.59 0 0 0-3.2-1.26 7.48 7.48 0 0 0-3.42.33 13.94 13.94 0 0 1-1.37.54s.37-.48 1.23-.88a6.58 6.58 0 0 1 3.63-.5 6.48 6.48 0 0 1 3.35 1.48c.72.62.99 1.16.94 1.18zM164.05 262l-.27.05-.78.08-3 .22c-2.62.15-6.42.09-11.1.12a51.62 51.62 0 0 0-16.14 2.34 16.6 16.6 0 0 0-4.16 2.19 12.51 12.51 0 0 0-3.25 3.57c-1.77 2.83-2.58 6.28-3.17 9.77l-5.43 36.21-1.71 11-.48 3-.14.77a1.23 1.23 0 0 1-.07.26 1.37 1.37 0 0 1 0-.27c0-.21.06-.46.09-.78l.39-3 1.54-11 5.29-36.24a27.1 27.1 0 0 1 3.24-10 13.09 13.09 0 0 1 3.4-3.7 16.69 16.69 0 0 1 4.27-2.21 51.27 51.27 0 0 1 16.31-2.26l11.09.05c1.31 0 2.33-.08 3-.12h.79zm309.3 106.61c-.14 0-1.59-7.42-3.24-16.63l-2.73-16.72c.14-.02 1.59 7.42 3.24 16.63s2.87 16.7 2.73 16.72z"/><path d="M475.2 436.78a1.68 1.68 0 0 1 0-.33c0-.25 0-.56-.05-1l-.15-3.71-.46-13.61-1.33-44.93-.07-3.27v-3.23q0-3.21.13-6.32a117.21 117.21 0 0 1 .92-11.92 52.09 52.09 0 0 1 1-5.48 22.32 22.32 0 0 1 1.79-5 15.51 15.51 0 0 1 1.31-2.16 20.2 20.2 0 0 1 1.6-1.82 21.49 21.49 0 0 1 3.53-2.86 20.74 20.74 0 0 1 13.05-3.37 13.9 13.9 0 0 1 3.59.94l.87.42.29.15a16.45 16.45 0 0 0-4.78-1.3 20.72 20.72 0 0 0-12.82 3.47 20 20 0 0 0-3.44 2.83 17.94 17.94 0 0 0-1.55 1.79 15.84 15.84 0 0 0-1.27 2.1 22.71 22.71 0 0 0-1.73 4.88 53 53 0 0 0-1 5.44c-.51 3.76-.74 7.74-.88 11.87l-.12 6.3v3.23c0 1.08.05 2.17.07 3.27l1.17 44.93.3 13.62v3.7 1a2.06 2.06 0 0 1 .03.37zm19.8-89.21c0 .06-.55 0-1.48.32a6.87 6.87 0 0 0-3.29 2.29 6.38 6.38 0 0 0-1.23 2.47 5.66 5.66 0 0 0 .14 3.12 6.17 6.17 0 0 0 11.39 1.23 5.67 5.67 0 0 0 .82-3 6.5 6.5 0 0 0-.66-2.68 6.89 6.89 0 0 0-2.72-2.94c-.85-.48-1.39-.58-1.37-.64l.39.06a5.11 5.11 0 0 1 1.07.4 6.73 6.73 0 0 1 2.95 3 6.58 6.58 0 0 1 .77 2.83 6 6 0 0 1-.83 3.27 6.63 6.63 0 0 1-12.24-1.34 6.2 6.2 0 0 1-.1-3.38 6.93 6.93 0 0 1 4.89-4.84 4.84 4.84 0 0 1 1.13-.16c.27-.04.37-.03.37-.01z"/><path d="M490.31 371.11a3.81 3.81 0 0 1-.51-1.67 10.08 10.08 0 0 1 2.25-7.91 4 4 0 0 1 1.31-1.15 15.57 15.57 0 0 0-2.78 5 15.26 15.26 0 0 0-.27 5.73zm-3.93-12.97c-.13-.05.1-.79.78-1.42s1.44-.81 1.48-.68-.53.5-1.12 1.06-1.01 1.11-1.14 1.04zm23.62-.86c-.07.06-.44-.38-1.17-.9a7.44 7.44 0 0 0-6.62-.93 11.93 11.93 0 0 1-1.37.55c0-.05.37-.48 1.23-.89a6.79 6.79 0 0 1 7 1c.7.61.93 1.14.93 1.17zm171.65 70.13l9.4 44.08h-10.21l-10.76-44.08h11.57m-74.99 0l-9.4 44.08h10.21l10.76-44.08h-11.57"/></g><rect x="580.61" y="375.91" width="123.17" height="70.53" rx="16.28" class="C"/><g class="B"><path d="M701.77 381.83h-.25-.74l-2.84.09-10.46.25-34.49.59-34.49.45-10.46.08h-3.58a.13.13 0 1 1 0-.06h.74l2.84-.1 10.45-.24 34.5-.6 34.49-.44 10.45-.08h3.59z"/><path d="M686.94 446.43a2.91 2.91 0 0 1 0-.65l.06-1.88.3-6.89c.25-5.81.53-13.85.56-22.73s-.2-16.92-.48-22.73l-.35-6.88c0-.77-.06-1.39-.09-1.88a3 3 0 0 1 0-.65 3.08 3.08 0 0 1 .1.65l.19 1.86c.15 1.62.33 4 .51 6.88.37 5.82.67 13.86.64 22.76s-.38 16.93-.72 22.74l-.46 6.88-.17 1.87a2.8 2.8 0 0 1-.09.65z"/><path d="M688.23 401.73c0 .15-.81.22-1.76.43s-1.71.47-1.78.34.64-.63 1.67-.85 1.89-.06 1.87.08zm.11-1.82c0 .14-.79.09-1.69-.12s-1.61-.48-1.58-.62.79-.09 1.69.12 1.61.48 1.58.62zm-92.77 31.22c0-.14 20.5-.26 45.78-.26l45.79.26c0 .14-20.5.26-45.79.26s-45.78-.11-45.78-.26zm121.85 40.36c0 .14-153.32.26-342.4.26s-342.44-.12-342.44-.26 153.29-.26 342.44-.26l342.4.26z"/></g><path d="M400.76,220.21l5.27-9.29a24.88,24.88,0,1,1,6,6.63h0Z" fill="#fafafa"/><g class="B"><path d="M400.76 220.21l11.24-2.76-.06.18h0l-.52-.68.68.52a24.64 24.64 0 0 0 11.84 4.91 21.6 21.6 0 0 0 3.89.18c.67 0 1.35-.06 2-.12l2.08-.32a24.79 24.79 0 0 0 15.29-9.87 24.38 24.38 0 0 0 4.13-9.47 25.09 25.09 0 0 0-.3-10.89 24.24 24.24 0 0 0-5.25-10.06 24.62 24.62 0 0 0-9.42-6.73 25.06 25.06 0 0 0-11-1.7 24.23 24.23 0 0 0-10.08 3 25 25 0 0 0-11.68 14.3 26.45 26.45 0 0 0-1.1 8 24.77 24.77 0 0 0 3.6 12.24h0v.05l-5.36 9.24 5.18-9.34v.11a24.65 24.65 0 0 1-3.72-12.34 26.49 26.49 0 0 1 1.07-8.09A25.24 25.24 0 0 1 415.1 176a24.72 24.72 0 0 1 10.25-3 25.46 25.46 0 0 1 11.16 1.71 25.16 25.16 0 0 1 9.6 6.85 24.57 24.57 0 0 1 5.33 10.25 25.18 25.18 0 0 1 .29 11.08 24.55 24.55 0 0 1-4.21 9.61 25.1 25.1 0 0 1-15.56 10l-2.1.32-2.07.11a22.23 22.23 0 0 1-3.94-.2 24.87 24.87 0 0 1-11.93-5l.16-.16h0l.11.14h-.17zm32.84-21.59a2 2 0 1 0 2-2 2 2 0 0 0-2 2z"/><circle cx="427.62" cy="198.62" r="1.99"/><path d="M417.68 197.62a2 2 0 1 0 2.72-.73 2 2 0 0 0-2.72.73zm241.5-21.1a3.6 3.6 0 0 1-1.77-6.1 2.51 2.51 0 1 1 2.35-4.43 2.92 2.92 0 0 1 4.51-2.77 3.47 3.47 0 0 1 5.66 2 2.89 2.89 0 0 1 5.42 1.08c1.15-.34 2.53-.63 3.46.13s.93 2 .9 3.15a18.36 18.36 0 0 1-.38 4 9.25 9.25 0 0 1-3.33 5.12 5.38 5.38 0 0 1-6.35 1.05"/></g><path d="M657.72,181.16a3.19,3.19,0,1,1,4.09-4.89c.35.33.68.78,1.17.81s.84-.33,1.22-.59a3.16,3.16,0,0,1,4.9,3c1.61-.68,3.83-.49,4.64,1.06a3.19,3.19,0,0,1-1.45,4,7,7,0,0,1-4.53.57,18.13,18.13,0,0,1-9.82-4.78" class="D"/><path d="M667.71 181.23c0 .09.57-.12 1-.67s.4-1.11.31-1.12-.27.44-.61.92-.75.78-.7.87zm-5.71-.4c.11 0 0-.8.29-1.71s.67-1.55.59-1.62a2.44 2.44 0 0 0-.88 1.5 2.37 2.37 0 0 0 0 1.83zm-3-.75c.1 0-.1-.8.08-1.73s.63-1.59.54-1.65a2.19 2.19 0 0 0-.9 1.58 2.21 2.21 0 0 0 .28 1.8zm11 3.11s.25 0 .61-.11a2.7 2.7 0 0 0 1.59-2.35c0-.39-.08-.61-.13-.6a5.63 5.63 0 0 1-.63 1.8c-.6.88-1.44 1.16-1.44 1.26z" class="F"/><path d="M637.29,217.21a5.05,5.05,0,0,1-3.38-5.82,6.07,6.07,0,0,1-1.29-8.75,4.27,4.27,0,0,1,2.54-7.51,5.78,5.78,0,0,1,6.34-7.77,5.29,5.29,0,0,1,8.21-5.2,7.63,7.63,0,0,1,11.41-.41,7.14,7.14,0,0,1,9.81,3c2.16-2,5.92-1.29,7.88.91S681.23,191,681,194a4.87,4.87,0,0,1,.72,8.44A8.38,8.38,0,0,1,680.19,214a9.63,9.63,0,0,1-4.74,9.6" class="B"/><path d="M672.06,200.21l1.23-3.51-21.74-3.47c-6.69-.51-13.7,6.38-13.92,13.08-.25,7.45-.26,16.55.78,22.07,2.1,11.1,10.69,12.26,10.69,12.26l.67,17.51,24.57-1Z" class="E"/><path d="M640.54 215.26a1.44 1.44 0 0 0 1.43 1.4 1.37 1.37 0 0 0 1.43-1.34 1.43 1.43 0 0 0-1.42-1.4 1.38 1.38 0 0 0-1.44 1.34zm-.41-4.26c.18.18 1.24-.65 2.78-.69s2.69.69 2.85.5-.11-.42-.62-.76a3.86 3.86 0 0 0-2.28-.64 3.78 3.78 0 0 0-2.21.79c-.46.36-.65.7-.52.8zm15.45 3.84a1.43 1.43 0 0 0 1.42 1.4 1.36 1.36 0 0 0 1.43-1.33 1.43 1.43 0 0 0-1.43-1.41 1.36 1.36 0 0 0-1.42 1.34zm.02-4.05c.18.18 1.24-.65 2.78-.7s2.69.7 2.85.51-.11-.42-.61-.76a3.9 3.9 0 0 0-2.29-.64 3.8 3.8 0 0 0-2.21.79c-.46.38-.61.72-.52.8zM650 222.4a9.79 9.79 0 0 0-2.51-.38c-.4 0-.77-.1-.84-.36a2 2 0 0 1 .22-1.17l1.08-3 2.38-7.9c-.17-.05-1.52 3.38-3 7.69l-1 3a2.36 2.36 0 0 0-.16 1.55 1 1 0 0 0 .67.56 3.39 3.39 0 0 0 .67.07 10.36 10.36 0 0 0 2.49-.06z" class="B"/><path d="M649.11,240.67a29.5,29.5,0,0,0,15.19-4.46s-3.54,7.92-15.11,7.24Z" class="G"/><g class="B"><path d="M656.14 202.71c.08.44 1.63.49 3.38 1s3.11 1.22 3.4.89c.14-.16 0-.59-.57-1.08a3.58 3.58 0 0 0-2.42-1.32 5.84 5.84 0 0 0-2.75-.12c-.69.15-1.08.42-1.04.63zm-15.97 3.42c.29.33 1.32-.11 2.59-.23s2.37 0 2.59-.33c.09-.19-.1-.52-.6-.82a3.8 3.8 0 0 0-4.18.46c-.42.39-.57.79-.4.92zm20.77-13.08a5.48 5.48 0 0 1-1.31 2.4 1.88 1.88 0 0 1-2.5.15 2.48 2.48 0 0 1-3.84-.26 3.38 3.38 0 0 1-4.08.4l-3.33.73c-1.2.26-2.7.42-3.44-.57-.17-.22-.3-.51-.56-.63a1.54 1.54 0 0 0-.85 0 2.88 2.88 0 0 1-2.49-1.18 8.43 8.43 0 0 1-1.24-2.58c-.49-1.4-.87-3.2.27-4.15a3.69 3.69 0 0 1 1.6-.63 8.33 8.33 0 0 1 3.5-.26 6.11 6.11 0 0 1 3.47 2.51 1.56 1.56 0 0 1 1-1.93 3 3 0 0 1 2.32.21 6.08 6.08 0 0 1 2.6 2.21 5 5 0 0 1 4.5 2.76 3.62 3.62 0 0 1 2.86-.51 1.26 1.26 0 0 1 .86.54.58.58 0 0 1-.29.85"/><path d="M650.18 193.71a3.69 3.69 0 0 1-5.64 4.3 3.4 3.4 0 0 1-3.81 2.19 5.33 5.33 0 0 1-2.73 4.68 4.17 4.17 0 0 1 .08 3.05 2.59 2.59 0 0 1-1.26 1.49 2.9 2.9 0 0 1-2.3-.17 4.06 4.06 0 0 1-2.34-2.27 2.37 2.37 0 0 1 1.05-2.88 9 9 0 0 1-2.23-3.19 2.87 2.87 0 0 1-.18-2.18 1.25 1.25 0 0 1 1.83-.61 3.28 3.28 0 0 1 3.48-4.78 2.73 2.73 0 0 1 4.52-2m22.86 1.12a2.79 2.79 0 0 1 2.53-2.68 6.82 6.82 0 0 1 3.89.94 4.79 4.79 0 0 1 5.29-1.36c1.8.72 2.95 2.45 4.43 3.69a9.76 9.76 0 0 1 2.25 2.09 2 2 0 0 1-.36 2.74 3.46 3.46 0 0 1 1 6c-.31.24-.69.46-.82.84a1.5 1.5 0 0 0 .1 1 33 33 0 0 1 1.66 4.44c.32 1.56 0 3.4-1.33 4.27-.35.23-.79.41-.94.8a1.25 1.25 0 0 0 0 .81 14 14 0 0 0 1.12 2.46 3.74 3.74 0 0 1 .41 2.62 1.71 1.71 0 0 1-2.07 1.25 5.56 5.56 0 0 1-.55 5.17c-1.11 1.42-4.77 2.07-6.94.75l-.2-5.11c.28-.9-1.11-5.69-.53-6.66 0 0 1.53 3.32-1.92 2.77-1.12.3-3.28-3-3.43-4.14a3.1 3.1 0 0 1 1.58-2.9 5.23 5.23 0 0 1-1.35-6.57 2.8 2.8 0 0 1-.55-5.41 5.74 5.74 0 0 1-3.68-7.72"/></g><path d="M680.19 193.47s.17.09.39.38a3 3 0 0 1 .52 1.46 2.88 2.88 0 0 1-.81 2.28 3.15 3.15 0 0 1-3 .83l.28-.27a2.25 2.25 0 1 1-4.4.92h.52a2.22 2.22 0 0 1-1.4 1.63 2.19 2.19 0 0 1-1.43.08 2 2 0 0 1-1.11-.86 2.3 2.3 0 0 1 0-2.53l.33.37a5.7 5.7 0 0 1-4.48.38 5.41 5.41 0 0 1-3.58-4.38 2.05 2.05 0 0 1 0-.83 6.87 6.87 0 0 0 1 2.83 5.13 5.13 0 0 0 2.65 2 5.28 5.28 0 0 0 4.1-.41l1-.57-.68.94a1.79 1.79 0 0 0 0 1.95 1.52 1.52 0 0 0 1.9.57 1.72 1.72 0 0 0 1.08-1.23l.29-1.58.24 1.59a1.81 1.81 0 0 0 2.22 1.41 1.86 1.86 0 0 0 1.21-2.14l-.1-.39.39.12a2.77 2.77 0 0 0 2.65-.66 2.63 2.63 0 0 0 .8-2 3.64 3.64 0 0 0-.58-1.89zm-41.57-6.14a1.55 1.55 0 0 0-.12.64.8.8 0 0 0 .36.6.84.84 0 0 0 .89 0l.46-.31-.22.5a2.2 2.2 0 0 0 .54 2.38 2.09 2.09 0 0 0 2.88-.15l.26-.29.16.36a3.87 3.87 0 0 0 6.44 1.05l.16-.19.19.16a6.67 6.67 0 0 0 3.21 1.47 7.2 7.2 0 0 0 2.81-.07 11 11 0 0 0 2.38-.93s-.16.19-.53.45a6.37 6.37 0 0 1-1.77.79 7.18 7.18 0 0 1-3 .18 7 7 0 0 1-3.47-1.5h.36a4.36 4.36 0 0 1-7.29-1.18l.42.07a2.54 2.54 0 0 1-3.55.12 2.51 2.51 0 0 1-.53-2.82l.23.2a1.11 1.11 0 0 1-1.21-.05 1 1 0 0 1-.39-.8c.06-.54.33-.7.33-.68zm19.63-6.69c0 .05-.24-.09-.65-.11a2 2 0 0 0-1.53.62 2.61 2.61 0 0 0-.52 2.35 6.34 6.34 0 0 0 1.62 2.72l-.39.37h0c-.26-.27-.87 0-1 .33a1.76 1.76 0 0 0 0 1.37 6.51 6.51 0 0 0 1.4 2.2 13.56 13.56 0 0 0 2 1.48s-.26 0-.67-.19a6 6 0 0 1-1.57-1 6.3 6.3 0 0 1-1.6-2.3 2.25 2.25 0 0 1 0-1.77 1.39 1.39 0 0 1 .66-.71 1.07 1.07 0 0 1 1.09.17h0l-.38.37a6.45 6.45 0 0 1-1.7-3 2.94 2.94 0 0 1 .74-2.72 2.14 2.14 0 0 1 1.82-.56c.52.16.69.37.68.38zm18.19 4.04a7 7 0 0 0-2-.47 4 4 0 0 0-2.13.51 4.12 4.12 0 0 0-1.79 2.06l-.17.45-.27-.4a2.32 2.32 0 0 0-4.23 1.25v.31l-.3-.06a3.19 3.19 0 0 0-2.59.6 3.08 3.08 0 0 0-1.12 1.84 4.89 4.89 0 0 0 .13 2s-.15-.15-.28-.49a3.21 3.21 0 0 1-.16-1.56 3.3 3.3 0 0 1 1.16-2.12 3.57 3.57 0 0 1 3-.77l-.31.24a2.82 2.82 0 0 1 5.16-1.53l-.45.05a4.43 4.43 0 0 1 2.06-2.25 4.19 4.19 0 0 1 2.35-.44 4.05 4.05 0 0 1 1.49.45c.33.18.47.31.45.33zm-.09-17.68a2.78 2.78 0 0 0-1-.83 1.93 1.93 0 0 0-1.45 0 2 2 0 0 0-1.22 1.38l-.23 1-.17-1a2.82 2.82 0 0 0-2.08-2.2 2.77 2.77 0 0 0-3.06 1.53l-.1.24-.24-.11a2.44 2.44 0 0 0-1-.19 2.69 2.69 0 0 0-2.64 2 2.85 2.85 0 0 0 1 2.85l.63.48-.79-.08a2.2 2.2 0 0 0-2 1 2 2 0 0 0-.14 1.8 2.94 2.94 0 0 0 1.06 1.29.88.88 0 0 1-.43-.17 2.41 2.41 0 0 1-.87-1 2.34 2.34 0 0 1 .06-2.09 2.56 2.56 0 0 1 2.39-1.29l-.16.4a3.3 3.3 0 0 1-1.18-3.33 3.22 3.22 0 0 1 3.14-2.39 3.14 3.14 0 0 1 1.23.25l-.35.13a3.17 3.17 0 0 1 6 .82h-.41a2.32 2.32 0 0 1 1.51-1.6 2.14 2.14 0 0 1 2.44.84c.05.13.08.27.06.27z" class="C"/><path d="M691.92 170.82a2.74 2.74 0 0 0-1.6-.48 2.05 2.05 0 0 0-1.62.87 2.21 2.21 0 0 0-.08 2.33l.9 1.45-1.22-1.19a2.08 2.08 0 0 0-2.56-.15 2 2 0 0 0-.35 2.78l-.44.27a2.19 2.19 0 0 0-3.94 1.89l-.4-.08a.88.88 0 0 0 0-1.14 1.13 1.13 0 0 0-1.15-.32 2.38 2.38 0 0 0-1.56 1.88l-.4-.14a1.06 1.06 0 0 0-.26-1.13 1.27 1.27 0 0 0-1-.42 2.52 2.52 0 0 0-1.72.91c-.72.88-1 1.52-1 1.48s0-.16.16-.45a5.75 5.75 0 0 1 .69-1.19 2.78 2.78 0 0 1 1.89-1.1 1.69 1.69 0 0 1 1.34.5 1.46 1.46 0 0 1 .37 1.57l-.4-.14a3.81 3.81 0 0 1 .57-1.32 2.2 2.2 0 0 1 1.29-.91 1.62 1.62 0 0 1 1.66.47 1.38 1.38 0 0 1-.06 1.83l-.25.25-.15-.33a2.77 2.77 0 0 1 1.46-3.66 2.79 2.79 0 0 1 3.41 1.32l-.44.28a2.43 2.43 0 0 1 3.61-3.25l-.33.26a2.53 2.53 0 0 1 .17-2.74 2.38 2.38 0 0 1 3.16-.53c.17.18.26.32.25.33zm-62.3 53.78s.17 0 .43-.11a1.49 1.49 0 0 0 .79-.87 1.9 1.9 0 0 0-.18-1.78 6.2 6.2 0 0 0-1.87-1.68l.25-.35a3.23 3.23 0 0 0 3.36.08 2.9 2.9 0 0 0 1.23-3.47 3.25 3.25 0 0 0-.68-1.17 1.74 1.74 0 0 0-1-.61c-.29 0-.51.39-.49.74a.88.88 0 0 0 .61.78 2.74 2.74 0 0 0 2.18-.29 3.86 3.86 0 0 0 1.48-1.37 4 4 0 0 0 .49-2.88c-.15-.7-.38-1.05-.33-1.08a2.25 2.25 0 0 1 .53 1 4 4 0 0 1-.37 3.13 4.26 4.26 0 0 1-1.59 1.56 3.17 3.17 0 0 1-2.57.35 1.61 1.61 0 0 1-.64-.43 1.24 1.24 0 0 1-.3-.77 1.46 1.46 0 0 1 .2-.81 1 1 0 0 1 .78-.48 1.36 1.36 0 0 1 .82.26 3.25 3.25 0 0 1 .61.5 3.48 3.48 0 0 1 .8 1.38 3.64 3.64 0 0 1 0 2.35 3.21 3.21 0 0 1-1.47 1.72 3.63 3.63 0 0 1-3.87-.17l.26-.36a6.11 6.11 0 0 1 1.92 1.86 2.12 2.12 0 0 1 .11 2.06 1.57 1.57 0 0 1-1 .89.67.67 0 0 1-.49.02zm30.03-50.55s-.1.1-.31.24a7.43 7.43 0 0 1-1 .52 2.84 2.84 0 0 1-1.83.16 2.2 2.2 0 0 1-1-.64 1.47 1.47 0 0 1-.39-1.3l.27.22a1.89 1.89 0 1 1-1.37-3.52l.11.48a2.1 2.1 0 0 1-2.13-1.79 2.31 2.31 0 0 1 1.58-2.49 2.67 2.67 0 0 1 1.31-.16l-.15.5a2.51 2.51 0 1 1 3-3.79h-.35a2.87 2.87 0 0 1 2.85-.91 2.58 2.58 0 0 1 1.74 1.51 2.63 2.63 0 0 1 .2 1.45 1 1 0 0 1-.17.49 3.18 3.18 0 0 0-.26-1.84 2.33 2.33 0 0 0-1.59-1.26 2.47 2.47 0 0 0-2.43.84l-.17.22-.17-.23a2.17 2.17 0 0 0-3.06-.19 2.1 2.1 0 0 0 .59 3.24l1.52.71-1.67-.2a2.11 2.11 0 0 0-1.05.13 1.79 1.79 0 0 0-1.26 1.9 1.62 1.62 0 0 0 1.57 1.38l2.15-.21-2 .7a1.5 1.5 0 0 0-.82 2 1.55 1.55 0 0 0 1.86.69l.36-.16-.08.38a1.49 1.49 0 0 0 1.09 1.56 2.75 2.75 0 0 0 1.65-.07l1.41-.56z" class="B"/><path d="M671.24 214.05c.16-.09 6.3-2.58 6.75 3.89s-6.14 5.6-6.17 5.42-.58-9.31-.58-9.31z" class="E"/><path d="M673.63 220.76s.12.07.31.15a1.15 1.15 0 0 0 .85 0 2.8 2.8 0 0 0 1.12-2.6 3.82 3.82 0 0 0-.43-1.59 1.32 1.32 0 0 0-.91-.81.59.59 0 0 0-.65.36c-.07.18 0 .31 0 .32s-.15-.09-.12-.37a.77.77 0 0 1 .23-.42.84.84 0 0 1 .61-.21 1.59 1.59 0 0 1 1.25.92 3.94 3.94 0 0 1 .52 1.78 2.92 2.92 0 0 1-1.45 2.91 1.23 1.23 0 0 1-1-.09c-.31-.19-.35-.33-.33-.35zm-19.17 3.77a2.3 2.3 0 0 0-2-.57 2.27 2.27 0 0 0-1.61 1.29 2.08 2.08 0 0 0 0 1.71 1.95 1.95 0 0 0 3.69-.45c.16-.81.41-1.77-.31-2.16" class="G"/><g class="C"><path d="M651.9 213.38a16 16 0 0 1 .33-1.74 7.17 7.17 0 0 1 2.69-3.83 7 7 0 0 1 3-1.26 7.08 7.08 0 0 1 3.69.39 6.93 6.93 0 0 1 3.22 2.51 7 7 0 0 1-.14 8.3 6.57 6.57 0 0 1-1.51 1.47 6.79 6.79 0 0 1-1.79.93 7.12 7.12 0 0 1-9.22-5 16.39 16.39 0 0 1-.27-1.74 5.59 5.59 0 0 0 .13 1.78 7.27 7.27 0 0 0 9.47 5.3 6.83 6.83 0 0 0 1.88-1A6.63 6.63 0 0 0 665 218a7.31 7.31 0 0 0 1.52-4.33 7.43 7.43 0 0 0-1.37-4.39 7 7 0 0 0-1.53-1.59 7.34 7.34 0 0 0-5.72-1.39 7.26 7.26 0 0 0-5.78 5.35 5.49 5.49 0 0 0-.22 1.73zm-18.06-.31a17.36 17.36 0 0 1 .32-1.73 7.18 7.18 0 0 1 2.7-3.84 7.07 7.07 0 0 1 6.69-.87 6.67 6.67 0 0 1 1.76 1 6.6 6.6 0 0 1 1.46 1.52 7 7 0 0 1-.14 8.3 6.57 6.57 0 0 1-1.51 1.47 6.65 6.65 0 0 1-1.79.93 7.19 7.19 0 0 1-3.71.26 7 7 0 0 1-3-1.36 7.25 7.25 0 0 1-2.57-3.92c-.26-1.11-.21-1.75-.26-1.75a5.59 5.59 0 0 0 .13 1.78 7.28 7.28 0 0 0 5.59 5.54 7.36 7.36 0 0 0 3.87-.23 7.21 7.21 0 0 0 1.89-1 6.78 6.78 0 0 0 1.59-1.53 7.36 7.36 0 0 0 .15-8.73 7.05 7.05 0 0 0-1.54-1.59 6.73 6.73 0 0 0-1.85-1 7.28 7.28 0 0 0-7 1 7.12 7.12 0 0 0-2.68 4 5.51 5.51 0 0 0-.1 1.75z"/><path d="M666.2 212.2a14.5 14.5 0 0 0 5.4 1.73 15.89 15.89 0 0 0-2.68-.94 14.6 14.6 0 0 0-2.72-.79zm-18.7-.88a13.55 13.55 0 0 1 2.38-.11 14 14 0 0 1 2.29.67 3.28 3.28 0 0 0-2.24-1 3.34 3.34 0 0 0-2.43.44z"/></g><path d="M661.5 218.92a2.47 2.47 0 0 0 1.15-.43 5.57 5.57 0 0 0 2.8-5 2.5 2.5 0 0 0-.22-1.2 10.1 10.1 0 0 0 0 1.2 6.34 6.34 0 0 1-.78 2.69 6.42 6.42 0 0 1-1.91 2.06 10.55 10.55 0 0 0-1.04.68zm-17.87-.52a2.21 2.21 0 0 0 1.07-.42 5.38 5.38 0 0 0 1.95-2 5.62 5.62 0 0 0 .71-2.68 2.3 2.3 0 0 0-.2-1.14s0 .44-.06 1.12a6.42 6.42 0 0 1-.77 2.53 6.21 6.21 0 0 1-1.77 2l-.93.59z" class="F"/><path d="M656.1 224.56c.1.27-1.29 1-3.1 1.73s-3.36 1-3.46.75 1.28-1 3.09-1.73 3.37-1.02 3.47-.75z" class="B"/><path d="M673.88 245.62s16.12 5.38 18.36 8.25C698.69 262 703 279 703.27 290s-1.83 51.86-5.19 53.69-57.75-5.57-57.75-5.57a30.66 30.66 0 0 1 .1-7.47c1.47-8.85 1.09-21.36-.74-25.63s-6.42-8.55-6.11-14 2.68-26.75 3.8-29.65a41.35 41.35 0 0 1 4.33-7.53l7.94-4s0 9 7.88 7.75 16.35-11.97 16.35-11.97z" class="H"/><path d="M696.71 343.66s4.57 13.29.81 21.4-8.9 11.28-22.74 12.66-29.87 1.59-47.48-5.73l-36.19-15.23-38.68 70.53c-8.23 4.32-12.91 1.66-15.09-5.93l30.62-82.4c3.75-6.52 5.87-9.65 11.42-10.11 6.94-.59 117.22 15.29 117.33 14.81z" class="E"/><path d="M595.8,330.18l8.75,52.29s74.22.59,79.79-1.58c4.61-1.79,13.77-9.3,14.67-17.61s-1.18-19.47-1.18-19.47Z" class="B"/><path d="M592.19 357.55s-11.93 3.79-14.18 9.8-1.25 15.77 0 22 24.51 65.25 24.51 65.25l18.86-3.4s-.71-1.21-1.57-5.93l-7-42.17c-1.5-9-8.23-20.33-8.23-20.33l-3.62-21.64z" class="E"/><g class="G"><path d="M592.19 357.22l-1.78.48a26.29 26.29 0 0 0-4.69 1.72 15.88 15.88 0 0 0-5.67 4.59 15.37 15.37 0 0 0-2.05 3.79 20.6 20.6 0 0 0-1.05 4.54 31.86 31.86 0 0 0 .18 9l1.18 7.37 1.09 4.9.51 1.77a2.36 2.36 0 0 1-.22-.43c-.13-.29-.3-.72-.49-1.28a45.23 45.23 0 0 1-1.25-4.89l-1.29-7.36a31.32 31.32 0 0 1-.23-9.18 21.27 21.27 0 0 1 1.09-4.66 15.67 15.67 0 0 1 2.18-3.9 15.89 15.89 0 0 1 5.89-4.63 23.19 23.19 0 0 1 4.8-1.58 12.48 12.48 0 0 1 1.35-.25 1.35 1.35 0 0 1 .45 0z"/><path d="M600.8 360.79c-.07.14-2.31-1-5.18-2.08l-5.24-2a26.65 26.65 0 0 1 10.42 4z"/></g><path d="M563.34,323.55c1.32-.16,35.43,12.16,35.43,12.16l61.85-.83-33.76-11Z" class="C"/><path d="M574.01 324.94l23.99 8.58 45.4-1.95-21.35-6-48.04-.63z" class="F"/><path d="M641.71,253.8a14.65,14.65,0,0,0-6.87,7.53c-3.6,8.61-9,41.93-9,41.93s-4.69.78-4.49,6.47l-9.79,7.84L615,328.15s12.47,0,16.23-1.17,9.07-5.49,9.68-6.67,1.23-49,1.23-49Z" class="H"/><path d="M611.56 317.13l-8.32-3.2-6.54 2.27a6.77 6.77 0 0 0-.7 5.8s-.49 3.63.07 4.76 1.21 2.68 1.78 2.91 3.06.94 3.06.94h10.25l3.89-2.5z" class="E"/><path d="M601 302.77v24h2.55l-.51-24a1 1 0 0 0-1.06-1h0a1 1 0 0 0-.98 1z" class="B"/><path d="M604,318.21c.6.29,1.3.77,1.18,1.43s-.89.84-1.46,1.11a2.84,2.84,0,0,0-1.62,2.6,2.39,2.39,0,0,0,2,2.21,4.13,4.13,0,0,0,2.29-.65,51.35,51.35,0,0,0,4.64-2.74" class="E"/><path d="M611 322.17a13.6 13.6 0 0 1-2.19 1.51l-2.48 1.52a5.25 5.25 0 0 1-1.67.61 2.36 2.36 0 0 1-1.9-.57 2.64 2.64 0 0 1-.93-1.75 2.83 2.83 0 0 1 .45-1.78 3.12 3.12 0 0 1 1.22-1.1 9.39 9.39 0 0 0 1.18-.57.68.68 0 0 0 .29-.78 1.43 1.43 0 0 0-.45-.61c-.34-.28-.57-.4-.55-.44s.27 0 .67.28a1.5 1.5 0 0 1 .61.67 1 1 0 0 1-.34 1.17 7.5 7.5 0 0 1-1.21.66 2.7 2.7 0 0 0-1 1 2.34 2.34 0 0 0-.35 1.47 2.21 2.21 0 0 0 .75 1.41 1.9 1.9 0 0 0 1.5.45 4.59 4.59 0 0 0 1.52-.53l2.51-1.41a13.5 13.5 0 0 1 2.37-1.21z" class="G"/><path d="M601,318.72,599.31,320l3.19,4.84a4.13,4.13,0,0,1,.6,1.16,1.37,1.37,0,0,1-.25,1.24,1.29,1.29,0,0,1-1.15.32,3,3,0,0,1-1.13-.51,19.45,19.45,0,0,1-4.66-4.91" class="E"/><path d="M595.91 322.09a23.28 23.28 0 0 1 1.92 2.16 16.23 16.23 0 0 0 2.26 2.11 5.25 5.25 0 0 0 1.52.87.94.94 0 0 0 1.25-.62c.15-.66-.33-1.3-.73-1.92L601 322.9l-1.8-2.86-.08-.13.12-.08a9.59 9.59 0 0 1 1.74-1.11 9.15 9.15 0 0 1-1.55 1.36v-.21l1.92 2.78 1.18 1.76a7.4 7.4 0 0 1 .62 1 2.09 2.09 0 0 1 .2 1.32 1.3 1.3 0 0 1-.76.93 1.7 1.7 0 0 1-1.13.06 5.17 5.17 0 0 1-1.68-1 14.43 14.43 0 0 1-2.25-2.25 11.53 11.53 0 0 1-1.62-2.38z" class="G"/><path d="M602.86,326.74q2.76.21,5.5.53a2.48,2.48,0,0,1,1.64.64,1.51,1.51,0,0,1-.1,1.86,2.67,2.67,0,0,1-1.77.86" class="E"/><path d="M608.13 330.63c0-.1.67-.13 1.4-.74a1.47 1.47 0 0 0 .47-1.42c-.11-.57-.77-.85-1.52-.92a32.33 32.33 0 0 1-5.62-.81 29.5 29.5 0 0 1 5.69.3 3.17 3.17 0 0 1 1.18.33 1.47 1.47 0 0 1 .74 1 1.85 1.85 0 0 1-.7 1.81 2.58 2.58 0 0 1-1.18.48c-.3.03-.46 0-.46-.03z" class="G"/><g class="D"><path d="M661.24 288a10.08 10.08 0 0 0-2.91.41c-.86.3-1.51.87-1.38 1.45s.79.92 1.56 1.15a12.75 12.75 0 0 0 2.53.36 251.92 251.92 0 0 0 14.57.67l-.24-.68c-3.67-2.36-8.7-3.51-14.13-3.36zm13.44.75a29.61 29.61 0 0 1-9.86-8.13 3.49 3.49 0 0 1-.73-1.28 1.35 1.35 0 0 1 .36-1.36c.65-.52 1.59-.06 2.26.42a24.42 24.42 0 0 1 7.92 9.91m-26.72 34.63a2.92 2.92 0 0 0-1.41.59 1 1 0 0 0-.19 1.39 1.47 1.47 0 0 0 1 .39 34.08 34.08 0 0 0 15.2-1.55 26.45 26.45 0 0 0-14.6-.82z"/><path d="M658.59 317.43l-7.34-9.92c-.6-.81-1.54-1.73-2.46-1.31s-.87 1.63-.64 2.55a18 18 0 0 0 5.55 8.6 59 59 0 0 0 8.81 6.41c-.76-2.43-2.41-4.28-3.92-6.33z"/><path d="M669.78 307.25c-.59-.33-1.33.05-1.87.46a15.44 15.44 0 0 0-5.4 16.05 65.62 65.62 0 0 1 7.06-13.71 4 4 0 0 0 .73-1.4 1.32 1.32 0 0 0-.52-1.4zm14.65-56.86a57 57 0 0 0-7.14 4 18.71 18.71 0 0 0-5.64 5.84 1.32 1.32 0 0 0-.24.65.51.51 0 0 0 .37.53.74.74 0 0 0 .56-.23 143.78 143.78 0 0 0 12.23-10.77z"/><path d="M670 250.75c-.34.07-.73.18-.86.51a.75.75 0 0 0 .47.91 2.23 2.23 0 0 0 1.12.06l13.76-1.67c-4.89-.33-9.78-.8-14.49.19zm-33.68 26.19a34.2 34.2 0 0 0 19.26-5.21 1.33 1.33 0 0 0 .53-.52.85.85 0 0 0-.56-1 2.34 2.34 0 0 0-1.26 0 51 51 0 0 0-18 6.74"/><path d="M641.92 291.09c-2-4.86-3.56-9.34-5.52-14.2l-.17.11c.66 5 1.19 10 2.79 14.78a4 4 0 0 0 .93 1.74 1.49 1.49 0 0 0 1.82.27 1.46 1.46 0 0 0 .54-1.29 4.43 4.43 0 0 0-.39-1.41z"/></g><path d="M639 265.78a2.82 2.82 0 0 1-.08.65l-.35 1.85-1.61 6.7a89.67 89.67 0 0 0-2.21 9.94 39.77 39.77 0 0 0-.4 6c0 1 .07 2.11.16 3.16a13.85 13.85 0 0 0 .75 3.13A48.66 48.66 0 0 0 638 303a34.42 34.42 0 0 1 2.42 5.57 18.32 18.32 0 0 1 .79 5.44v4.77l-.25 6.89a17.67 17.67 0 0 1-.21 2.47 23.82 23.82 0 0 1 0-2.48l.08-6.88-.1-4.75a18.08 18.08 0 0 0-.82-5.32 34.16 34.16 0 0 0-2.42-5.47 49.91 49.91 0 0 1-2.79-5.88 14.35 14.35 0 0 1-.77-3.25l-.16-3.21a40.45 40.45 0 0 1 .43-6.05 85.64 85.64 0 0 1 2.33-10l1.77-6.65.45-1.82a4.23 4.23 0 0 1 .25-.6z" class="B"/><g class="D"><path d="M636.42,276.81l0-.08-.21.27Z"/><path d="M648.22 261.68c-.36-.36-1-.17-1.41.07a17.12 17.12 0 0 0-6.55 6.53 50.92 50.92 0 0 0-3.81 8.45c3.69-4.76 9.16-8.18 11.75-13.62.22-.46.39-1.11.02-1.43zm-13.64 56.12q-4.23-7.31-8.69-14.46l-.12.14c1.62 5.34 3.29 10.8 6.63 15.27a2.88 2.88 0 0 0 1.09 1 1.11 1.11 0 0 0 1.36-.28c.34-.47.04-1.15-.27-1.67z"/></g><path d="M701.13 335.57a1.32 1.32 0 0 1-.19.19l-.59.51a27.35 27.35 0 0 1-2.42 1.79 44.42 44.42 0 0 1-10 4.69c-8.84 3.11-21.9 4.62-36.1 3.45-1.75-.14-3.48-.32-5.18-.56h-.22v-.23-12.14-.17l.16-.06 23-8.7 6.63-2.46 1.77-.64a3.7 3.7 0 0 1 .62-.19l-.59.27-1.75.71-6.57 2.59-22.91 8.88.16-.23v12.14l-.22-.25c1.68.23 3.4.42 5.14.55 14.15 1.16 27.14-.27 35.94-3.28a47.11 47.11 0 0 0 10-4.51 33.06 33.06 0 0 0 2.46-1.7l.62-.47c.16-.14.23-.19.24-.18z" class="B"/><path d="M552.43 427.29s-13.07 2.22-15.09-5.93l-2.59 2.28-15.15 17.79a3 3 0 0 0 0 4 3 3 0 0 0 3.12.81c5.82-1.87 27.21-8.84 27.94-10.8l2.29-5a2.83 2.83 0 0 0-.57-3.13z" class="D"/><path d="M520.07 445.8l31.47-12.09-.52 1.1c-.45 1.23-1.2 1.45-2.13 1.94-2.77 1.45-9.87 4.27-26 9.54a3.05 3.05 0 0 1-2.78-.49zM550 429a1.74 1.74 0 0 0-1.43 1.88 1.77 1.77 0 0 0 1.91 1.45 1.69 1.69 0 1 0-.64-3.29" class="F"/><g class="B"><path d="M531.44 437.4a8.87 8.87 0 0 0-1.38-3.11 9.15 9.15 0 0 0-2.78-2c0-.08.44-.12 1.1.09a4.76 4.76 0 0 1 2.18 1.53 4.55 4.55 0 0 1 1 2.42c.09.67-.05 1.08-.12 1.07zm-3.52 2.6c-.18.05-.63-1.19-1.82-2.22s-2.46-1.36-2.43-1.54 1.52-.12 2.85 1.08 1.57 2.68 1.4 2.68zm9.08-5.37c-.18.06-.87-1.85-2.58-3.6s-3.58-2.58-3.51-2.75 2.16.41 4 2.32 2.29 4.01 2.09 4.03zm3.41-6c-.14.12-1.32-1.16-3.19-2.13s-3.6-1.23-3.58-1.41 1.87-.2 3.87.86 3.04 2.6 2.9 2.68z"/><path d="M536.16 425.94s.14-.37.6-.9a7.45 7.45 0 0 1 2.37-1.78 3.45 3.45 0 0 1 2.13-.44 1.22 1.22 0 0 1 1 1 1.87 1.87 0 0 1-.38 1.31 4.22 4.22 0 0 1-5.27.95 4.88 4.88 0 0 1-2.46-4.83 1.58 1.58 0 0 1 .74-1.16 1.2 1.2 0 0 1 1.37.22 4.26 4.26 0 0 1 1 1.91 8.49 8.49 0 0 1 .32 2.95 2.47 2.47 0 0 1-.21 1.06 13.29 13.29 0 0 0-.55-3.89 3.85 3.85 0 0 0-.91-1.64.64.64 0 0 0-.74-.13 1.1 1.1 0 0 0-.44.8 4.37 4.37 0 0 0 2.18 4.16 3.67 3.67 0 0 0 4.49-.74 1.3 1.3 0 0 0 .3-.9.65.65 0 0 0-.52-.56 3 3 0 0 0-1.8.34 10.65 10.65 0 0 0-3.22 2.27z"/></g><path d="M602.05 453.18l.47 1.12s-15.79 15.56-14.52 19.25l37.6-16-5.82-12.29a23.37 23.37 0 0 1-17.73 7.92z" class="D"/><path d="M617.7 450.91a1.67 1.67 0 0 1 1.81 1.3 1.61 1.61 0 0 1-1.28 1.8 1.75 1.75 0 0 1-1.9-1.38 1.67 1.67 0 0 1 1.53-1.73m7.77 6.69l-1.4-3L588.71 471s-1.37 1.44-.68 2.54z" class="F"/><path d="M602.43 454.46c.08.19 1-.12 2.19.09s2 .77 2.1.63-.58-1.09-2-1.32-2.4.45-2.29.6zm-3.25 3.31c0 .19 1 .17 1.91.68s1.49 1.26 1.66 1.17-.14-1.17-1.34-1.78-2.3-.25-2.23-.07zm-.24 5.67c.19 0 0-1.06-.85-1.86s-1.92-.84-1.94-.66.75.5 1.48 1.17 1.12 1.41 1.31 1.35z" class="B"/><path d="M646.69,333.77,631.82,330l-12.31.9s-.41,1.34,1.68,1.94a49.71,49.71,0,0,0,6.72,1L614.62,335s2.16,2.69,4.89,2.54c0,0,.34,1,2.43,1.49a31.26,31.26,0,0,1,4.33,1.35,2.09,2.09,0,0,0,2.09,2.24c2.24.15,18.33.66,18.33.66Z" class="E"/><path d="M693.13 258.63a6.17 6.17 0 0 0-8.37 0C680.57 262.5 674 270.4 674 282.25c0 17.4 4.45 15.78 4 22.46s-.61 14 1.21 16.79l-32.58 11.74v12.14s34.37 5.62 54.5-9.81h0c3.12-7.16 6.24-63.45-8-76.94z" class="H"/><path d="M686.62 327.05c-.13.11-1.58-1.65-3.79-3.32s-4.3-2.56-4.23-2.71a11.41 11.41 0 0 1 4.55 2.3 11.72 11.72 0 0 1 3.47 3.73z" class="B"/><g class="D"><path d="M699.34,313.45a36.45,36.45,0,0,0-5-5.83,12,12,0,0,0-6.9-3.16,3.46,3.46,0,0,0-1.69.22,1.56,1.56,0,0,0-1,1.32c0,.88.89,1.47,1.68,1.87q6.39,3.22,13.05,5.89Z"/><path d="M700.84 296.19c0-.62-.29-1.42-.91-1.41-.44 0-.73.46-.91.87a18.4 18.4 0 0 0-1.32 8.94 54.8 54.8 0 0 0 1.67 9l.11.21a59 59 0 0 0 1.36-17.61z"/><path d="M699.29 313.69h.1v-.13z"/><path d="M703.68 312.88c-.08-.12-.26-.1-.4-.07l-3.89.86.06.21a22.2 22.2 0 0 0 4 1.22l.29-2a.32.32 0 0 0-.06-.22zm-15.53-43.42a82.06 82.06 0 0 0-3.61-19c-1.36 6.37-1.17 13.47 1.47 19.43.29.66.91 1.45 1.58 1.17s.6-1 .56-1.6zM661.11 328l-.85.13a80.12 80.12 0 0 0-.66 10.5 5.38 5.38 0 0 0 .56 2.9 1.15 1.15 0 0 0 1.08.64c.63-.11.79-.93.8-1.57a76 76 0 0 0-.93-12.6z"/></g><path d="M678.56 263l-1.24 2a22.19 22.19 0 0 0-2.38 5.87 32.83 32.83 0 0 0-.87 9.35 63.81 63.81 0 0 0 1.62 11.44l2.64 11.32a55.43 55.43 0 0 1 1.24 9.42 29.92 29.92 0 0 1-.42 6.4c-.11.75-.29 1.32-.37 1.71a2.63 2.63 0 0 1-.18.58c-.05 0 .13-.83.35-2.32a33.33 33.33 0 0 0 .25-6.35 59.26 59.26 0 0 0-1.34-9.35c-.74-3.48-1.76-7.27-2.68-11.3a61.72 61.72 0 0 1-1.59-11.53 32.57 32.57 0 0 1 1-9.46 21 21 0 0 1 2.57-5.88 14.33 14.33 0 0 1 1-1.42 2.62 2.62 0 0 1 .4-.48z" class="B"/><path d="M664.58,378a2.58,2.58,0,0,1-.6,0h-1.72c-1.49,0-3.65-.09-6.31-.26s-5.82-.48-9.32-.94-7.32-1.14-11.3-2-7.72-1.9-11.09-2.93-6.37-2.09-8.86-3.06-4.47-1.8-5.83-2.42L608,365.7a2,2,0,0,1-.52-.29,3.59,3.59,0,0,1,.57.19l1.59.63c1.38.57,3.39,1.35,5.88,2.26s5.5,1.93,8.87,2.95,7.11,2,11.07,2.88,7.77,1.53,11.25,2,6.63.84,9.28,1.05,4.8.36,6.29.42l1.71.1A2.66,2.66,0,0,1,664.58,378Z" class="C"/><path d="M301.63,435.28l7.8,22.87s-20.63,15.61-19.6,20l44.88-13.52L324,428.47Z" class="D"/><path d="M322.72,452a1.93,1.93,0,0,1,1.9,1.71,1.85,1.85,0,0,1-1.68,1.9,2,2,0,0,1-2-1.82c0-.94,1-2,2-1.78" class="F"/><path d="M334.71 464.6l-1-3.29-43 14.05a4 4 0 0 0-.94 2.76zm-26.08-6.46c.07.22 1.2 0 2.49.37s2.14 1.13 2.32 1-.53-1.32-2.11-1.75-2.81.24-2.7.38zm-4.12 3.37c0 .23 1.07.31 2.1 1s1.53 1.62 1.75 1.55 0-1.36-1.31-2.21-2.6-.55-2.54-.34zm-.98 6.49c.22 0 .19-1.2-.73-2.23s-2.1-1.2-2.14-1 .79.66 1.54 1.52 1.11 1.71 1.33 1.71zm3.9-15.27c.15.17 1.07-.43 2.33-.72s2.35-.19 2.41-.41-1.11-.73-2.59-.36-2.31 1.35-2.15 1.49z" class="B"/><path d="M440.2,434l-2.38,24s23.65,10.49,23.64,15l-46.79-2.93,2.16-37.62Z" class="D"/><path d="M423.48,455.13a1.92,1.92,0,0,0-1.46,2.1,1.86,1.86,0,0,0,2.07,1.46,2,2,0,0,0,1.53-2.23,1.89,1.89,0,0,0-2.32-1.28" class="F"/><g class="B"><path d="M414.67 470.11l.2-3.42 45.05 3.87a4 4 0 0 1 1.54 2.48zm23.93-12.24c0 .23-1.17.26-2.34.92s-1.83 1.59-2 1.49.22-1.4 1.65-2.18 2.75-.44 2.69-.23zm4.78 2.34c0 .22-1 .55-1.82 1.47s-1.12 1.92-1.35 1.9-.29-1.33.77-2.45 2.41-1.13 2.4-.92zm2.42 6.05c-.21 0-.46-1.13.2-2.34s1.77-1.65 1.85-1.45-.61.82-1.15 1.83-.7 1.95-.9 1.96zm-7.27-13.93c-.11.2-1.14-.18-2.43-.17s-2.33.35-2.44.15.91-1 2.44-.95 2.55.8 2.43.97zm10.8-105.46s5.18 7.23 4.75 15.4-10.7 85.67-10.7 85.67l-28.88-6.25 1.63-65.31 15-24.86zm-99.53-167.2a22.26 22.26 0 0 1 9.26-5.07c3.46-.78 7.39-.16 10 2.26 2 1.88 3.16 4.71 5.59 6 3.34 1.8 7.39-.06 11.18-.11a2.14 2.14 0 0 1 2 .83 2.37 2.37 0 0 1-.21 1.93l-2.62 6.25a5.81 5.81 0 0 0 5.06-.37 17.21 17.21 0 0 1-4 11.05 1.46 1.46 0 0 1 2.05.67 3.64 3.64 0 0 1 .08 2.42 17.73 17.73 0 0 1-23.48 12.84"/><path d="M351.81,178.77a11,11,0,0,0-13.18,2.06c-2.24,2.46-3.2,5.78-4.45,8.86s-3.08,6.24-6.17,7.48c-2.5,1-5.47.58-7.8,1.92-2.53,1.45-3.61,4.66-3.36,7.57s1.58,5.59,2.89,8.2a7.56,7.56,0,0,1-5.3,2.55,10,10,0,0,0,4.77,4.29,12.74,12.74,0,0,1,3.72,1.76,7,7,0,0,1,1.83,3.59,5.27,5.27,0,0,0,7.57,3.32,25,25,0,0,0,4.24-2.78s-1.15,2.42,1.73,4.27a6.25,6.25,0,0,0,4.09-4.07"/></g><path d="M375.74 197.69a20.1 20.1 0 0 0-20.16-18.35h-1c-11.22.73-16.87 10.66-15.83 21.86l2.42 51.8 25.73-.23-.37-16.84s10.78-1.75 10.84-12.54c.03-5.25-.78-15.99-1.63-25.7z" class="J"/><path d="M373.11 206.57a1.54 1.54 0 0 1-1.47 1.57 1.48 1.48 0 0 1-1.6-1.38 1.55 1.55 0 0 1 1.48-1.57 1.47 1.47 0 0 1 1.59 1.38zm.35-3.21c-.19.2-1.36-.65-3-.64s-2.87.85-3.05.65.1-.45.63-.84a4.21 4.21 0 0 1 2.44-.77 4.08 4.08 0 0 1 2.41.76c.49.39.66.75.57.84zm-10.2 12.3a11 11 0 0 1 2.69-.5c.43 0 .83-.14.9-.43a2.23 2.23 0 0 0-.3-1.25l-1.27-3.21-2.87-8.42c.13-.07 1.77 3.59 3.54 8.17l1.22 3.23a2.42 2.42 0 0 1 .23 1.66 1 1 0 0 1-.69.62 2.53 2.53 0 0 1-.72.11 10.5 10.5 0 0 1-2.73.02zm10.02-15.26c-.35.39-1.76 0-3.44 0s-3.1.31-3.43-.08c-.15-.19.07-.57.68-.94a5.54 5.54 0 0 1 2.79-.66 5.42 5.42 0 0 1 2.75.71c.6.4.8.79.65.97z" class="B"/><path d="M340.4 209.19c-.19-.08-7.43-2.15-7.15 5.23s7.63 5.56 7.64 5.35-.49-10.58-.49-10.58z" class="J"/><path d="M339.18 217.06s-.13.1-.34.2a1.26 1.26 0 0 1-1 .06 3.18 3.18 0 0 1-1.58-2.8 4.12 4.12 0 0 1 .29-1.85 1.45 1.45 0 0 1 .92-1 .66.66 0 0 1 .78.32c.1.2.06.35.1.36s.15-.13.08-.43a.82.82 0 0 0-.31-.45.94.94 0 0 0-.71-.16 1.79 1.79 0 0 0-1.3 1.2 4.35 4.35 0 0 0-.37 2.07c.11 1.48.92 2.84 2 3.11a1.38 1.38 0 0 0 1.17-.24c.26-.21.29-.38.27-.39z" class="I"/><g class="B"><path d="M347 186.76h0a9.22 9.22 0 0 1 6.4.78l1.28.66 19.3 2c4.45-2.41 1.38-6.47-2.72-7.74-4.81-1.46-10.26-4.78-15.26-4.83s-13.59 3.15-17 8.8a17.14 17.14 0 0 0-2.38 6.16 63 63 0 0 0 .75 15.94 13.36 13.36 0 0 0 2.5 4.38h0c1.7 0 2.32-1.37 2-3l-.37-6.58a9.91 9.91 0 0 0 2.93-11.61h0a3.4 3.4 0 0 1 2.57-4.96z"/><path d="M344.13,189.32c.37-2.38,4.17-4,6.48-3.29s4.06,2.48,5.86,4.08,4,3.1,6.38,2.9,4.82-2.25,7.22-1.54c1.06.31,1.9,1.13,2.92,1.54a5.64,5.64,0,0,0,4.88-.58,16.86,16.86,0,0,0,3.79-3.37c-4.76.19-9.27-1.94-13.51-4.09s-8.65-4.43-13.41-4.54-10,2.65-10.91,7.32"/></g><path d="M324.73 223.14a5.34 5.34 0 0 0 .69.1 2.67 2.67 0 0 0 1.79-.71 3.19 3.19 0 0 0 .93-2.83 7.54 7.54 0 0 0-1.79-3.71 21.29 21.29 0 0 1-2.92-4.32 7.26 7.26 0 0 1-.26-6 5.38 5.38 0 0 1 2.27-2.43 10 10 0 0 1 3.25-1.09c2.24-.44 4.67-.49 6.75-1.56a5.12 5.12 0 0 0 2.28-2.41 8.14 8.14 0 0 0 .59-3.27c0-2.24-.6-4.39-.65-6.53a10.08 10.08 0 0 1 .36-3.11 5.67 5.67 0 0 1 1.57-2.53 6.72 6.72 0 0 1 5-1.55 9.77 9.77 0 0 1 4.12 1.3 19 19 0 0 1 2.66 1.87l1.53 1.35a2.8 2.8 0 0 1 .49.51 3 3 0 0 1-.57-.42l-1.6-1.26a19.93 19.93 0 0 0-2.67-1.76 9.55 9.55 0 0 0-4-1.18 6.36 6.36 0 0 0-4.63 1.5 6.59 6.59 0 0 0-1.72 5.27c.05 2 .67 4.2.68 6.53a8.52 8.52 0 0 1-.63 3.52 5.6 5.6 0 0 1-2.54 2.68c-2.27 1.17-4.72 1.18-6.92 1.61a10.05 10.05 0 0 0-3.08 1 5 5 0 0 0-2 2.17 6.77 6.77 0 0 0 .22 5.55 20.89 20.89 0 0 0 2.8 4.27 7.78 7.78 0 0 1 1.79 3.93 3.43 3.43 0 0 1-1.11 3 2.72 2.72 0 0 1-1.95.66 1.51 1.51 0 0 1-.73-.15zm56.75-38.33s-.06.11-.24.28a4.52 4.52 0 0 1-.81.69 7.85 7.85 0 0 1-3.68 1.33 8.61 8.61 0 0 1-5.65-1.33 8.51 8.51 0 0 1-2.41-2.51 26.08 26.08 0 0 0-2-3 6.75 6.75 0 0 0-6.12-2.11 6.3 6.3 0 0 0-4.4 3.06 7.08 7.08 0 0 0-1 3.59c0 .91.13 1.4.07 1.41s-.06-.11-.13-.35a4.73 4.73 0 0 1-.17-1 6.93 6.93 0 0 1 .9-3.81 6.65 6.65 0 0 1 4.67-3.38 7.22 7.22 0 0 1 6.65 2.26 23.74 23.74 0 0 1 2.07 3 8 8 0 0 0 2.23 2.38 8.5 8.5 0 0 0 8.91.26c.72-.45 1.07-.83 1.11-.77z" class="C"/><path d="M328.35 193.91s.07-.14.12-.41a1.56 1.56 0 0 0-.25-1.12 1.45 1.45 0 0 0-1.55-.67 2 2 0 0 0-1.43 1.71 2.51 2.51 0 0 0 1.47 2.32 4.13 4.13 0 0 0 3.32 0 6.14 6.14 0 0 0 2.89-2.44 9.33 9.33 0 0 0 1.09-4 14.66 14.66 0 0 1 .92-4.29 11.58 11.58 0 0 1 2.19-3.47 11.15 11.15 0 0 1 10.58-3.39 9.25 9.25 0 0 1 1.21.35c.27.11.41.17.4.19s-.59-.15-1.65-.32a11.6 11.6 0 0 0-4.5.18 10.89 10.89 0 0 0-5.64 3.35 11.33 11.33 0 0 0-2.06 3.33 14 14 0 0 0-.86 4.13 9.87 9.87 0 0 1-1.19 4.25 6.55 6.55 0 0 1-3.18 2.64 4.59 4.59 0 0 1-3.74 0 3 3 0 0 1-1.67-2.79 2.31 2.31 0 0 1 1.78-2 1.61 1.61 0 0 1 1.14.18 1.91 1.91 0 0 1 .67.69 1.62 1.62 0 0 1 .18 1.27c-.1.22-.23.32-.24.31z" class="B"/><path d="M366.62,235.87a26.16,26.16,0,0,1-14.16-4s3.37,7.74,14.13,6.7Z" class="I"/><path d="M356.67 206.9a1.54 1.54 0 0 1-1.48 1.56 1.47 1.47 0 0 1-1.6-1.37 1.55 1.55 0 0 1 1.48-1.57 1.48 1.48 0 0 1 1.6 1.38zm-.04-2.72c-.2.2-1.37-.65-3-.64s-2.86.86-3 .65.1-.45.63-.84a4.15 4.15 0 0 1 2.43-.77 4.1 4.1 0 0 1 2.41.76c.44.39.62.75.53.84zm.53-2.07c-.22.42-1.83 0-3.79-.08s-3.59.25-3.79-.19c-.08-.2.25-.58.94-.93a6.31 6.31 0 0 1 2.91-.56 6.24 6.24 0 0 1 2.86.77c.71.38.97.79.87.99z" class="B"/><path d="M340.27 241.42s-24.1 6.2-27.69 10.69l6.37 72.6s-5.27 12.55-5.65 14.55c-.73 3.77 3.7 5.57 3.7 5.57l84.17-6s3.95-5.51-2.11-9l-8.34-17.18-1.47-65.86-22.09-4.75c-7.25 10.96-21.94 9.06-26.89-.62z" class="D"/><path d="M319,340.72s-34,13.52-40.61,24.34l33,17,54.7-7.12s13.51-1.33,18.62-1.21c5.45.13,30.47,2.67,31.45,2.67S439,356.7,439,356.7l10.33-9.83s-3.44-4.18-10.82-6.15-20.17-6.89-44.51-3.94Z" class="B"/><g class="C"><path d="M360.81 370.2a31.82 31.82 0 0 0-.14-5.54 21 21 0 0 0-1.65-5.73 20.82 20.82 0 0 0-4.12-6 39.85 39.85 0 0 0-11-7.47l-3.67-1.78a8 8 0 0 1-1.32-.69 9 9 0 0 1 1.41.51l3.74 1.62a37.65 37.65 0 0 1 11.23 7.45 20.66 20.66 0 0 1 4.19 6.17 20.9 20.9 0 0 1 1.58 5.88 19.46 19.46 0 0 1 0 4.11l-.16 1.1a1.16 1.16 0 0 1-.09.37zm32.25-30.66a9.48 9.48 0 0 1-1.31.88l-1.53 1-2 1.41a51.31 51.31 0 0 0-4.82 4.11 50 50 0 0 0-9.32 12.32 49.3 49.3 0 0 0-2.64 5.76c-.35.83-.59 1.62-.83 2.29l-.55 1.76a9.31 9.31 0 0 1-.5 1.5 9.28 9.28 0 0 1 .3-1.55l.48-1.79.75-2.34a46.75 46.75 0 0 1 2.56-5.85 52 52 0 0 1 4.2-6.62 50.43 50.43 0 0 1 5.22-5.83 45.31 45.31 0 0 1 4.94-4.05c.72-.55 1.43-1 2-1.37l1.59-.94a8.76 8.76 0 0 1 1.46-.69zM365.61 373a7.76 7.76 0 0 1 .25-1.45l.78-3.93a83.88 83.88 0 0 0 .57-26.27l-.6-3.95a8 8 0 0 1-.19-1.46 8.81 8.81 0 0 1 .39 1.42c.23.92.5 2.27.77 3.94a73.77 73.77 0 0 1-.58 26.4l-.94 3.9a8.8 8.8 0 0 1-.45 1.4z"/><path d="M377.39 362.5a11.88 11.88 0 0 1-5-.31 6.25 6.25 0 0 1 2.51-.1 6.33 6.33 0 0 1 2.49.41zm9.99.38a12.15 12.15 0 0 1-5-.16 6 6 0 0 1 2.51-.18 6.24 6.24 0 0 1 2.49.34zm10 .3a12.44 12.44 0 0 1-5-.15 12 12 0 0 1 5 .15zm9.99.43a6.48 6.48 0 0 1-2.51.14 6.35 6.35 0 0 1-2.49-.39 6.35 6.35 0 0 1 2.51-.13 6.19 6.19 0 0 1 2.49.38zm9.78 1.85a8.71 8.71 0 0 1-2.44-.53 7.58 7.58 0 0 1-2.37-.82 5.37 5.37 0 0 1 2.5.31 5 5 0 0 1 2.31 1.04zm2.04 8.69a12.16 12.16 0 0 1 .1-5 6.55 6.55 0 0 1 .21 2.51 6.3 6.3 0 0 1-.31 2.49zm-.19 10a11.72 11.72 0 0 1 .1-5 6.55 6.55 0 0 1 .21 2.51 6.35 6.35 0 0 1-.31 2.49zm-.21 10a11.72 11.72 0 0 1 .1-5 6.47 6.47 0 0 1 .21 2.51 6.35 6.35 0 0 1-.31 2.49zm-.2 10a6.51 6.51 0 0 1-.21-2.51 6.35 6.35 0 0 1 .31-2.49 6.22 6.22 0 0 1 .21 2.5 6 6 0 0 1-.31 2.5zm-.19 10a6.32 6.32 0 0 1-.21-2.51 6.09 6.09 0 0 1 .31-2.49 6.22 6.22 0 0 1 .21 2.5 6.42 6.42 0 0 1-.31 2.5zm-.19 9.99a6 6 0 0 1-.21-2.5 6.2 6.2 0 0 1 .3-2.49 6.11 6.11 0 0 1 .22 2.5 6.3 6.3 0 0 1-.31 2.49zm-.21 10a12.16 12.16 0 0 1 .1-5 6.32 6.32 0 0 1 .21 2.51 5.9 5.9 0 0 1-.31 2.49zm-1.87-57.76a5.69 5.69 0 0 1 .17-1.16c.06-.37.18-.81.32-1.33a16.81 16.81 0 0 1 .51-1.74 41.72 41.72 0 0 1 4.55-9.47 28.69 28.69 0 0 1 7-7.8 10.87 10.87 0 0 1 1.53-1 8.33 8.33 0 0 1 1.23-.62 4.8 4.8 0 0 1 1.11-.37 28.22 28.22 0 0 0-3.65 2.27 31.27 31.27 0 0 0-6.82 7.79 48.3 48.3 0 0 0-4.63 9.31l-1.32 4.12z"/></g><path d="M281.34 361.92a19.27 19.27 0 0 0-6.74 16.31c.44 7.54 26.1 69.71 26.1 69.71l31.16-3.17-20.5-62.77-2.13-11.45z" class="B"/><g opacity=".3"><path d="M370.1 317.23c-9.09-1.21-18.32.89-27 3.77a127 127 0 0 0-28 13.13l-1.24 3.4c6.73 2.91 11.91 1.16 19-.82s13.65-5.33 20.46-8c4.33-1.72 8.88-3.2 13.53-3 5.7.22 11 2.91 16.48 4.39a39.77 39.77 0 0 0 17 .65c-9.44-6.07-19.2-12.05-30.23-13.52z"/></g><g class="J"><path d="M327.88 298.81s14.27-3.83 16.88-3.94 16 3.4 18.85 3.94 18.44.18 18.44.18l18.16-4.12 6.42 15.25-12 17.77-44.63-15.7-9.15-3.7-12.48-.92z"/><path d="M306,329.77s1,3.11,8.14,4.53a29.15,29.15,0,0,0,13.29-1l42.05-14.27-28.65-10.56-21-1.42-13.29,7.63Z"/></g><path d="M306 330.12a35.41 35.41 0 0 1-3.93-9.32c-1.6-5.77 2-52.59 2.66-56.49a19 19 0 0 1 8.48-12.88c3.05-1.91 7.15 4.58 10.54 15.33s4.58 40.81 4.58 40.81-23.52-.81-22.33 22.55zm83.25-83.29s8.48.7 14.43 14.8c3.93 9.31 9.08 42.14 8.25 48.94-.74 6.14-1.22 16.39-10.3 18.81a8.38 8.38 0 0 1-5.47-.48l-5.58-2.42s6.42.54 7.81-13.89-7.69-13.81-12-13.81l-4.32.21s1.85-35.25 3.5-40.81-2.06-11.02 3.68-11.35z" class="D"/><g class="B"><path d="M327.44 269a10 10 0 0 1 .45 1.46c.28.95.57 2.34.88 4.07a49.64 49.64 0 0 1 .6 6.16 75.28 75.28 0 0 1-.15 7.56c-.38 5.35-.79 10.17-.83 13.67v4.15a10 10 0 0 1 0 1.52 7.57 7.57 0 0 1-.17-1.51c-.09-1-.14-2.41-.17-4.16 0-3.52.3-8.37.68-13.7.17-2.67.25-5.21.19-7.52a52.92 52.92 0 0 0-.49-6.11c-.26-1.73-.49-3.12-.71-4.08a8.42 8.42 0 0 1-.28-1.51zm64.29 22.43c0 .08-.69.18-1.73.54a11.27 11.27 0 0 0-3.71 2.13 11.52 11.52 0 0 0-2.65 3.37 16.46 16.46 0 0 1-.78 1.63 4 4 0 0 1 .45-1.79 10 10 0 0 1 6.58-5.7 4 4 0 0 1 1.84-.18z"/><path d="M383.93 264a5.56 5.56 0 0 1 .19 1.16l.31 3.2c.24 2.71.49 6.44.74 10.57l.71 10.57.25 3.2a5.08 5.08 0 0 1 0 1.18 4.7 4.7 0 0 1-.23-1.16c-.12-.75-.27-1.84-.41-3.19-.31-2.69-.61-6.43-.87-10.56l-.58-10.58q-.09-1.9-.15-3.21a4.68 4.68 0 0 1 .04-1.18z"/></g><path d="M390.58 326.48a3.6 3.6 0 0 1-.64-.18l-1.82-.6-6.66-2.32-21.89-7.84-18.8-6.86h.06l-9.38-.57-2.58-.18a5 5 0 0 1-.9-.11 4.55 4.55 0 0 1 .91 0l2.59.07 9.38.39h.06l18.83 6.76 21.85 8 6.6 2.47 1.78.7a2.92 2.92 0 0 1 .61.27z" class="I"/><g opacity=".3"><path d="M403.29 291.47a14.76 14.76 0 0 0-17.39 2.08c5-2.41 11.14-3 15.88-.19a4.09 4.09 0 0 0 1.36.62 1.23 1.23 0 0 0 1.31-.52c.39-.75-.45-1.57-1.16-1.99z"/></g><g opacity=".3"><path d="M332.59 282.59c-.58-7.07-2.55-10.23-5-13.36l-.12-.25c2.45 10.73 1.81 17.49.95 29.69l3.69-.9.34-3.24a47.78 47.78 0 0 0 .14-11.94z"/></g><path d="M314.13,342.65c6.44-2.65,9.42-2.48,15.47-.61,2.76.86,5.15,2.63,7.76,3.85s5.56,2.08,8.39,1.52c3.28-.66,5.87-3.08,8.85-4.61a17.37,17.37,0,0,1,13.82-.81c3.15,1.19,6.07,3.32,9.43,3.38,3.8.06,7.07-2.54,10.7-3.67,2.58-.8,5.36-.85,7.9-1.76s6.22-2.55,5.84-6.24c-.13-1.19-37.56-2.25-37.56-2.25l-16.62,3.09c-13.56,2.78-27.06,5.52-34.27,5Z" class="D"/><path d="M327.61 263.34c-.09 0-.34-1.09-1.21-2.67a13.13 13.13 0 0 0-11.46-6.92c-1.81 0-2.91.26-2.93.17a2.37 2.37 0 0 1 .76-.26 11 11 0 0 1 2.17-.27 12.61 12.61 0 0 1 11.78 7.11 10.11 10.11 0 0 1 .77 2.05c.12.5.16.79.12.79zm57.07 71.02a45.73 45.73 0 0 0-7-2.62 34.1 34.1 0 0 0-8-1.17 35.47 35.47 0 0 0-9.78 1.12 33.07 33.07 0 0 0-9.05 3.86c-2.55 1.63-4.78 3.34-7 4.13a8.64 8.64 0 0 1-5.46.32 5.64 5.64 0 0 1-1.37-.62 2.08 2.08 0 0 1-.41-.33 9 9 0 0 0 1.83.76 8.76 8.76 0 0 0 5.28-.48c2.15-.8 4.32-2.51 6.9-4.19a32.69 32.69 0 0 1 9.17-3.95 34.64 34.64 0 0 1 9.93-1.1 33.15 33.15 0 0 1 8.05 1.29c1.13.29 2.1.71 3 1s1.58.67 2.16 1l1.31.72a1.91 1.91 0 0 1 .44.26zm-12.28-4.57a23.91 23.91 0 0 1-2.74-.29 41.82 41.82 0 0 0-6.58-.24 44.81 44.81 0 0 0-6.54.81 22.2 22.2 0 0 1-2.69.54 10.61 10.61 0 0 1 2.61-.89 32.42 32.42 0 0 1 13.25-.59 11.12 11.12 0 0 1 2.69.66z" class="B"/><g class="C"><path d="M297.74 363.83a2 2 0 0 1 1-.1 5.46 5.46 0 0 1 2.52.9 16.24 16.24 0 0 1 3 2.55 26.4 26.4 0 0 1 3 3.77 26.1 26.1 0 0 1 3.53 8 22.24 22.24 0 0 1 .48 2.61 3.27 3.27 0 0 1 0 1c-.09 0-.27-1.36-.87-3.49a29.38 29.38 0 0 0-3.61-7.81 28.34 28.34 0 0 0-2.94-3.73 17.91 17.91 0 0 0-2.88-2.57 5.73 5.73 0 0 0-2.35-1c-.53-.13-.88-.08-.88-.13zm60.46.45c0-.14.5-.36 1.18-.49s1.25-.13 1.28 0-.5.36-1.18.5-1.25.14-1.28-.01zm-10.43 2.08a6.85 6.85 0 0 1 2.56-.78 7.16 7.16 0 0 1 2.66-.26 14 14 0 0 1-5.22 1zm-10.44 2.07a6.85 6.85 0 0 1 2.56-.78 7.16 7.16 0 0 1 2.66-.26 7 7 0 0 1-2.56.77 7 7 0 0 1-2.66.27zm-10.44 2.07a6.93 6.93 0 0 1 2.56-.78 7.16 7.16 0 0 1 2.66-.26 7 7 0 0 1-2.56.77 7 7 0 0 1-2.66.27zm-10.43 2.07a6.77 6.77 0 0 1 2.56-.78 7.16 7.16 0 0 1 2.66-.26 14 14 0 0 1-5.22 1z"/><path d="M308.16 376.51a11.2 11.2 0 0 1 .37-2.46h0l.21-.22h.12.12.25l.46-.08.79-.1h.76c.02 0-.25.19-.68.32l-.77.21-.46.11-.25.05h-.12-.12l.2-.21h0a4.33 4.33 0 0 1-.88 2.38zm.7 9.87a13.39 13.39 0 0 1-1.43-5.1 7 7 0 0 1 1 2.48 7.12 7.12 0 0 1 .43 2.62zm3.08 10.14a7.39 7.39 0 0 1-1-2.46 6.86 6.86 0 0 1-.53-2.6 6.73 6.73 0 0 1 1 2.45 6.9 6.9 0 0 1 .53 2.61zm3.2 10.11a7.07 7.07 0 0 1-1.05-2.45 7.29 7.29 0 0 1-.56-2.6 6.87 6.87 0 0 1 1.06 2.44 7 7 0 0 1 .55 2.61zm3.25 10.09a13.71 13.71 0 0 1-1.63-5.05 7 7 0 0 1 1.06 2.45 6.9 6.9 0 0 1 .57 2.6zm3.28 10.08a7.33 7.33 0 0 1-1.07-2.44 6.93 6.93 0 0 1-.57-2.6 7 7 0 0 1 1.07 2.44 6.9 6.9 0 0 1 .57 2.6zm3.33 10.07a13.41 13.41 0 0 1-1.66-5 6.88 6.88 0 0 1 1.07 2.44 7.19 7.19 0 0 1 .59 2.56zm2.44 7.41c-.14 0-.42-.45-.64-1.1s-.28-1.22-.15-1.27.43.45.64 1.1.28 1.22.15 1.27zM293.5 376a2.14 2.14 0 0 1 .76-.13 14.24 14.24 0 0 1 2.1-.06 22.88 22.88 0 0 1 6.78 1.26 23.35 23.35 0 0 1 6.11 3.22 17.81 17.81 0 0 1 1.6 1.35c.36.34.54.55.51.57s-.88-.64-2.33-1.61a26.75 26.75 0 0 0-6.06-3 27.87 27.87 0 0 0-6.64-1.39l-2.83-.21z"/></g><path d="M364.26 219.83a1.6 1.6 0 0 0-.25-.67.57.57 0 0 0-.58-.22 2.11 2.11 0 0 0-2.23.64 3 3 0 0 0-.61 2.4 2.17 2.17 0 0 0 .86 1.54 2.69 2.69 0 0 0 1.9.2 1 1 0 0 0 1.06-1.15 12 12 0 0 0-.15-2.74z" class="I"/><path d="M364.25 223.77a2.87 2.87 0 0 1-1.54.31 2.5 2.5 0 0 1-1.68-.61 3.31 3.31 0 0 1-.9-2 2.58 2.58 0 0 1 .09-1.17 2 2 0 0 1 .66-.89 3 3 0 0 1 1.68-.58 3.06 3.06 0 0 1 1.56.22 10.72 10.72 0 0 1-1.52.15 2.93 2.93 0 0 0-1.42.58 1.7 1.7 0 0 0-.54 1.62 3 3 0 0 0 .72 1.7 2.23 2.23 0 0 0 1.37.59 13.64 13.64 0 0 1 1.52.08z" class="B"/></svg>