<svg xmlns="http://www.w3.org/2000/svg" width="2500" height="2500" viewBox="0 0 192.756 192.756" fill-rule="evenodd" xmlns:v="https://vecta.io/nano"><path fill="#fff" fill-opacity="0" d="M0 0h192.756v192.756H0V0z"/><path d="M66.037 65.812l.005 21.87H15.85v-21.87h50.187z" fill="#1d5a98"/><path fill="#fff" d="M48.353 72.082l1.822.001.764-1.288.75 1.288 1.823-.001-.887 1.527.887 1.527-1.823-.001-.75 1.288-.764-1.288-1.822.001.887-1.527-.887-1.527zm-16.157-2.541l1.139 1.536 1.94-.102-.548 1.802 1.286 1.434-1.813.696-.338 1.864-1.666-.901-1.729.88-.316-1.822-1.772-.758 1.266-1.413-.527-1.782 1.939.082 1.139-1.516zm10.572-3.288l1.139 1.537 1.94-.103-.549 1.803 1.287 1.433-1.814.697-.337 1.863-1.666-.901-1.729.881-.316-1.823-1.771-.758 1.265-1.413-.527-1.782 1.939.082 1.139-1.516zm3.62 10.837l.898 1.281 1.538.444-.989 1.228.037 1.53-1.484-.516-1.52.533.037-1.547-.952-1.228 1.52-.462.915-1.263zm-3.679 5.234l-1.352-1.328v-1.982h-2.063l-1.447-1.412-1.451 1.412h-1.994l-.003 1.936-1.405 1.364 1.405 1.384.003 1.936h1.994l1.451 1.412 1.447-1.412h2.063v-1.981l1.352-1.329z"/><path d="M68.488 63.371H13.395v25.158c0 19.764 9.112 33.639 27.078 41.238l.473.203.479-.203c17.961-7.604 27.068-21.477 27.068-41.238l-.005-25.158zm-2.451 2.441l.005 21.87H15.85v-21.87h50.187zm-25.091 61.483c-16.525-7.176-24.973-20.088-25.09-38.388h50.183c-.116 18.3-8.56 31.206-25.093 38.388z"/><path d="M40.946 127.295c-16.525-7.176-24.973-20.088-25.09-38.388h50.183c-.116 18.3-8.56 31.206-25.093 38.388z" fill="#fff"/><path d="M15.856 88.907c.117 18.3 8.563 31.205 25.085 38.382V88.907H15.856z" fill="#997f57"/><path d="M74.314 115.93c-6.437 1.406-11.732 3.785-15.034 6.754l.042.078-.167-.039 2.326 5.193c-4.632 2.293-11.138 4.01-19.902 4.01h-.296c-8.816 0-15.35-1.736-19.993-4.055l2.15-4.992.112-.195c-3.311-2.969-8.595-5.348-15.048-6.754l.008 8.236c3.079 1.037 5.07 1.801 6.76 3.334l-.769 1.541-1.557 3.041.041-.004-.3.572c5.409 4.836 16.24 8.281 28.596 8.281h.296c12.35 0 23.167-3.445 28.572-8.281l-2.583-5.164c1.69-1.52 3.68-2.293 6.746-3.32v-8.236z" fill="#cc2131"/><path d="M16.948 131.834l-.054.105c-.196.363-.219.566.011.693.174.092.351.018.467-.186.156-.291.004-.479-.16-.803-.196-.361-.342-.633-.373-.877a1.329 1.329 0 0 1 .164-.738c.335-.617.918-.779 1.535-.439.684.363.854.918.507 1.564-.018.037-.049.072-.063.109l-.746-.396a.106.106 0 0 1 .031-.041c.162-.311.148-.52-.034-.621-.145-.08-.312-.025-.417.164-.139.26.016.467.22.83.178.318.334.576.357.857.014.211-.039.447-.173.693-.385.709-.971.896-1.649.531-.713-.381-.871-.947-.485-1.66a1.35 1.35 0 0 1 .119-.191l.743.406zm4.326-.848l-.934 2.324c-.202.508-.298.783-.004.9.287.115.394-.137.589-.609a.202.202 0 0 1 .02-.049l.934-2.324.87.354-.84 2.082-.119.285c-.149.375-.283.686-.526.881-.319.266-.709.275-1.225.066-.488-.195-.743-.449-.798-.854-.046-.357.12-.797.369-1.408l.808-1.996.856.348zm2.463 4.371l.297-.988c.02.004.042.006.065.014.395.127.537.318.437.646-.105.346-.344.461-.724.35a.285.285 0 0 1-.075-.022zm-1.097.409l1.06.318c.468.141.808.213 1.124.029.273-.148.494-.42.598-.771.131-.42.041-.77-.249-1.041.36-.158.558-.365.664-.693.107-.369.048-.691-.174-.934-.21-.223-.506-.318-.912-.439l-.959-.295-1.152 3.826zm1.591-2.063l.263-.863c.031.006.061.018.093.021.315.092.436.299.354.564-.097.312-.305.402-.653.303-.018-.009-.03-.021-.057-.025zm6.959 2.522l-.029.203c-.177.953-.67 1.338-1.549 1.186-.513-.094-.833-.326-.999-.715-.137-.334-.069-.844.063-1.59.14-.742.254-1.24.504-1.504.283-.301.682-.404 1.178-.312.857.158 1.202.715 1.022 1.664l-.002.039-.894-.164c.086-.51.037-.744-.247-.789-.375-.074-.457.297-.611 1.17-.015.02-.016.051-.017.064-.167.922-.245 1.33.143 1.395.304.057.411-.141.501-.629a2.63 2.63 0 0 1 .034-.178l.903.16zm2.253-.479l.119-.971c.042.012.081.006.114.014.382.041.516.184.472.529-.042.367-.207.488-.586.443l-.119-.015zm-1.188 2.205l.917.113.187-1.594.188.016c.353.047.422.236.368.689l-.059.406a1.83 1.83 0 0 0 .003.559l1.091.127c-.228-.229-.151-.57-.104-1.082.039-.463.065-.727-.351-.971.368-.158.555-.441.61-.896.042-.365-.029-.654-.237-.865-.22-.215-.565-.283-1.093-.348l-1.049-.123-.471 3.969zm4.993-3.519l-.146 2.496c-.033.553-.038.834.29.859.302.02.322-.256.355-.766.004-.016.004-.039.005-.057l.146-2.492.931.049-.132 2.248a2.672 2.672 0 0 1-.019.301c-.021.408-.055.742-.217 1.006-.216.357-.585.492-1.145.457-.523-.031-.837-.195-1.023-.557-.16-.332-.138-.799-.105-1.453l.128-2.15.932.059zm5.284 2.582l.003.203c-.003.967-.416 1.438-1.305 1.438-.518-.002-.882-.174-1.11-.525-.195-.299-.218-.816-.218-1.568s.029-1.27.229-1.574c.225-.348.592-.52 1.099-.514.873 0 1.308.488 1.305 1.453v.037l-.905-.002c-.005-.514-.094-.738-.386-.738-.384 0-.391.381-.401 1.26v.08c-.001.928-.003 1.344.391 1.346.312 0 .38-.221.381-.715v-.182l.917.001zm1.122-2.477l2.171-.113.037.775-1.237.063.04.738 1.139-.064.043.8-1.146.061.046.875 1.244-.068.04.812-2.174.113-.203-3.992zm5.748 3.549l-.545-3.949.927-.131.433 3.16 1.115-.156.11.802-2.04.274zm3.301-4.566l.491 2.455c.113.543.174.822.499.758.301-.061.252-.336.149-.832 0-.021-.005-.039-.008-.055l-.493-2.449.912-.189.45 2.207.058.295c.077.402.136.723.045 1.027-.124.402-.439.621-.992.738-.507.102-.862.025-1.128-.275-.242-.279-.344-.734-.479-1.383l-.425-2.111.921-.186zm2.608-.541l1.26-.379.826 1.535.388.854-.135-.949-.142-1.717 1.236-.371 1.147 3.828-.847.248-.805-2.982.274 3.143-.68.205-1.485-2.777.957 2.936-.846.256-1.148-3.83zm4.424-1.415l2-.847.306.719-1.149.482.285.676 1.057-.449.315.738-1.053.451.332.803 1.142-.485.318.75-2 .844-1.553-3.682zm2.89-1.261l.841-.492 1.91 1.736a26.504 26.504 0 0 1-.998-1.539l-.317-.541.718-.424 2.011 3.457-.842.488-1.955-1.805a17.27 17.27 0 0 1 1.028 1.561l.344.584-.731.42-2.009-3.445z" fill="#fff"/><path d="M58.082 100.49v-2.271h-.475v-2.636H24.218v2.636h-.42v2.271h.42v7.533h-.42v2.275h.42v4.588h13.89a3.043 3.043 0 0 0 5.569 0h13.93v-4.588h.475v-2.275h-.475v-7.533h.475z" fill="#cc2131"/><path d="M55.993 93.357h-1.578v-1.978h-2.116v-1.943l-.967.359c-1.324.492-2.464.919-5.152.919-3.19 0-4.639.745-5.299 1.292-.645-.547-2.088-1.292-5.271-1.292-2.687 0-3.829-.429-5.151-.919l-.968-.362v1.947h-2.112v1.978H25.26v20.547l13.811-.008c.011.008.029.02.061.035.05.947.775 1.709 1.691 1.709.881 0 1.598-.717 1.691-1.633l.213-.111 13.805.008V93.357h-.539z"/><path d="M40.47 110.908l-.011-.012c-1.208-1.344-2.494-1.801-3.706-1.801l-1.264.119-4.131.338H29.49V92.466h-1.028v18.263h2.896c.844 0 2.754-.197 4.024-.33l1.372-.129c1.152 0 2.449-.176 3.716.734v-.096zm11.828-18.442v17.087h-1.86c-.905 0-2.77-.191-4.141-.338l-1.26-.119c-1.213 0-2.505.457-3.7 1.801l-.054.059v.088c1.265-.953 2.593-.773 3.754-.773l1.372.129 4.029.33h2.888V92.467l-1.028-.001zm-15.544 15.546l-1.372.125-4.024.324h-.781V91c1.204.436 2.504.805 5.033.805 4.032 0 4.773 1.24 4.781 1.258l.079.127v16.015c-1.267-.992-2.566-1.193-3.716-1.193zm14.454.449h-.771c-.844 0-2.76-.195-4.029-.324l-1.372-.125c-1.158 0-2.486.207-3.754 1.232V93.202l.076-.136c.009-.012.78-1.261 4.821-1.261 2.526 0 3.828-.369 5.029-.805v17.461z" fill="#fff"/><path d="M35.917 96.799c-1.726.021-3.124-.094-4.172-.338v.557c1.073.236 2.471.348 4.177.324l1.012.023c.954.053 1.707.189 2.296.398v-.568c-.608-.199-1.35-.322-2.266-.379l-1.047-.017zm.053 2.172c-1.826.055-3.304-.006-4.225-.148v.553c1.209.18 2.935.18 4.245.145a137.41 137.41 0 0 1 .908 0c1.006.051 1.73.18 2.326.418v-.578c-.611-.219-1.343-.334-2.306-.389h-.948v-.001zm.063 2.191l-4.288.029v.547c1.106.094 2.853.031 4.307-.037l.8-.012c.74.031 1.588.105 2.367.439v-.586c-.792-.301-1.613-.373-2.35-.393l-.836.013zm.049 2.277l-.472.033-3.864.18v.547c1.027.021 2.671-.096 3.898-.182l.482-.037.69-.027c.776.012 1.604.09 2.381.451l.004-.592c-.805-.318-1.639-.389-2.38-.408l-.739.035zm.695 2.227l-1.344.125-3.688.324v.543l3.74-.322 1.292-.127c.726 0 1.578.066 2.412.469l.004-.594c-.872-.363-1.733-.418-2.416-.418zm-.925-11.039c-1.419 0-2.402-.122-3.166-.289V92.94a4.606 4.606 0 0 1-.935-.26v1.975c.917.277 2.081.513 4.1.513 1.366 0 2.503.142 3.396.427v-.563c-.915-.262-2.045-.405-3.395-.405zm10.115.614c2.033 0 3.199-.238 4.116-.515v-.573c-.898.287-2.041.538-4.116.538a15.36 15.36 0 0 0-2.356.175v-1.588c-.2.032-.366.072-.534.119a4.677 4.677 0 0 0-.436.137v2.108c.882-.262 1.992-.401 3.326-.401zm-.055 1.626l-1.052.023c-.882.045-1.613.174-2.218.355v.572c.592-.205 1.322-.334 2.25-.393l1.013-.016c1.701.025 3.104-.088 4.179-.328v-.564c-1.05.255-2.449.379-4.172.351zm-.056 2.178h-.952c-.934.039-1.658.162-2.263.369v.578c.596-.229 1.309-.357 2.295-.408h.907c1.303.041 3.034.035 4.24-.146v-.539c-.923.14-2.403.185-4.227.146zm-.056 2.189l-.85-.02c-.717.023-1.533.105-2.309.385v.584c.762-.32 1.602-.396 2.337-.422l.795.012 4.31.041v-.547c-1.068.094-2.822.028-4.283-.033zm.422 2.311l-.479-.037-.744-.027c-.727.012-1.552.076-2.358.398v.588c.793-.355 1.64-.428 2.376-.449l.684.033.479.037 3.903.182v-.545c-.989.017-2.62-.09-3.861-.18zm.171 2.312l-1.34-.125c-.688 0-1.543.057-2.412.42v.588c.836-.398 1.692-.461 2.412-.461l1.277.121 3.753.326v-.549c-.96-.031-2.581-.198-3.69-.32z"/><path d="M36.754 111.363l-1.264.123-4.131.33h-3.98V94.443h-1.036v18.371h5.016c.844 0 2.754-.201 4.024-.332l1.372-.121c.899 0 1.916-.27 2.919.047l.031-.08c-.978-.754-1.992-.965-2.951-.965zm17.661-16.92v17.373h-3.977c-.905 0-2.77-.189-4.141-.33l-1.26-.123c-1.006 0-2.064.229-3.073 1.07l.005.025c1.049-.4 2.114-.098 3.067-.098l1.372.121 4.029.332h5.009V94.442l-1.031.001z" fill="#fff"/><path d="M79.375 105.623h1.156l-2.445-8.004h-1.268l-2.512 8.004h1.145l.556-1.945h2.835l.533 1.945zm-3.102-2.891l1.167-3.867 1.123 3.867h-2.29zm5.818-5.113H81.09v5.07c0 .844.022 1.545.467 2.166.456.635 1.089.902 2.012.902 1.834 0 2.489-.979 2.489-3.125v-5.014h-1.011v5.182c0 .6-.011 1.066-.222 1.422-.267.445-.678.656-1.256.656s-.979-.211-1.245-.656c-.223-.367-.233-.834-.233-1.434v-5.169zm4.898 5.692l-.011.246c0 1.467.789 2.201 2.334 2.201 1.567 0 2.446-.812 2.446-2.213 0-.934-.534-1.391-1.556-2.057-1.278-.834-2.045-1.201-2.045-2.078 0-.602.5-1.09 1.245-1.09.778 0 1.179.445 1.179 1.301v.166h1.101v-.199c0-1.355-.79-2.102-2.234-2.102-1.435 0-2.368.846-2.368 2.045 0 1.146.611 1.59 1.79 2.346 1.123.711 1.812 1.057 1.812 1.824 0 .699-.556 1.223-1.345 1.223-.834 0-1.178-.457-1.178-1.469v-.145h-1.17v.001zm7.309 2.312h1.056v-7.18h1.912v-.824H92.33v.824h1.968v7.18zm5.909-8.004h-2.102v8.004h1.057v-3.656h1.268c.711 0 .934.344.955 1.178.033.934-.033 1.756.189 2.479h1.09a5.792 5.792 0 0 1-.211-1.633l.01-.812c0-1.078-.277-1.578-1.189-1.678.945-.268 1.379-.9 1.379-1.957-.001-1.356-.768-1.925-2.446-1.925zm-1.045 3.481v-2.646h1.189c.834 0 1.244.4 1.244 1.223 0 1.023-.533 1.424-1.656 1.424h-.777v-.001zm9.488 4.523h1.154l-2.445-8.004h-1.268l-2.512 8.004h1.145l.557-1.945h2.834l.535 1.945zm-3.101-2.891l1.166-3.867 1.123 3.867h-2.289zm4.928 2.891h3.779v-.922h-2.735v-7.082h-1.044v8.004zm4.697 0h1.078v-8.004h-1.078v8.004zm7.033 0h1.156l-2.445-8.004h-1.268l-2.514 8.004h1.146l.555-1.945h2.836l.534 1.945zm-3.102-2.891l1.166-3.867 1.123 3.867h-2.289zM80.67 86.841c0 3.42-.194 5.13-2.345 5.13-.952 0-1.587-.406-1.957-1.252-.335-.775-.353-2.062-.353-3.878 0-2.027 0-3.403.582-4.284.353-.529.952-.829 1.728-.829 2.152.001 2.345 1.693 2.345 5.113zm1.71.141c0-2.68-.07-4.425-1.04-5.536-.652-.723-1.692-1.146-2.997-1.146-1.587 0-2.768.582-3.385 1.675-.582 1.005-.653 2.592-.653 4.866 0 2.592.071 4.319 1.041 5.412.652.723 1.692 1.146 2.997 1.146 1.587 0 2.75-.6 3.385-1.693.547-.951.652-2.502.652-4.724zm1.621 6.206h1.675v-5.8h4.214v-1.429h-4.214v-4.072h4.425v-1.392h-6.1v12.693zm17.981 0h1.834l-3.879-12.693h-2.01l-3.985 12.693h1.816l.881-3.085h4.497l.846 3.085zm-4.92-4.584l1.852-6.136 1.781 6.136h-3.633zm9.682 3.138V81.87h1.781c1.357 0 2.115.3 2.521 1.41.105.265.246 1.446.246 3.473 0 2.081-.105 3.42-.512 4.108-.387.652-1.092.881-2.256.881h-1.78zm-1.691 1.446h3.049c1.904 0 3.156-.088 4.072-1.463.67-.987.76-2.539.76-4.743 0-2.785-.035-4.548-1.164-5.606-.898-.846-2.045-.881-3.668-.881h-3.049v12.693zm9.41 0h6.346v-1.393h-4.672v-4.407h4.531v-1.429h-4.531v-4.072h4.672v-1.392h-6.346v12.693zm8.529 0h5.994v-1.463h-4.338v-11.23h-1.656v12.693zm14.606 0h1.834l-3.879-12.693h-2.01l-3.984 12.693h1.816l.881-3.085h4.496l.846 3.085zm-4.918-4.584l1.85-6.136 1.781 6.136h-3.631zm7.97 4.584h1.709V80.495h-1.709v12.693zm5.528-1.446V81.87h1.781c1.357 0 2.115.3 2.521 1.41.105.265.246 1.446.246 3.473 0 2.081-.105 3.42-.512 4.108-.389.652-1.094.881-2.256.881h-1.78zm-1.692 1.446h3.049c1.904 0 3.156-.088 4.072-1.463.67-.987.758-2.539.758-4.743 0-2.785-.035-4.548-1.162-5.606-.9-.846-2.047-.881-3.668-.881h-3.049v12.693zm9.409 0h6.347v-1.393h-4.672v-4.407h4.532v-1.429h-4.532v-4.072h4.672v-1.392h-6.347v12.693zm-76.469-17.12h1.676v-11.39h3.032v-1.304h-7.828v1.304h3.12v11.39zm5.896 0h1.675v-5.801h4.355v5.801h1.674V63.374h-1.674v5.43h-4.355v-5.43h-1.675v12.694zm9.331 0H99v-1.394h-4.672v-4.407h4.531v-1.428h-4.531v-4.072H99v-1.393h-6.347v12.694zm13.63-12.694h-1.588v8.039c0 1.34.035 2.451.74 3.438.723 1.005 1.729 1.428 3.191 1.428 2.908 0 3.949-1.551 3.949-4.954v-7.951h-1.604v8.216c0 .952-.018 1.692-.354 2.257-.424.705-1.076 1.04-1.992 1.04s-1.551-.335-1.975-1.04c-.352-.582-.369-1.322-.369-2.274v-8.199h.002zm15.487 11.23l-4.672-11.23h-2.381v12.694h1.516v-9.15c0-.582-.053-1.393-.141-2.397l4.883 11.548h2.275V63.374h-1.553v8.903l.073 2.327zm3.603 1.464h1.711V63.374h-1.711v12.694zm6.621 0h2.01l3.598-12.694h-1.764l-2.416 9.485-.422 1.922-.424-1.939-2.273-9.468h-1.904l3.595 12.694zm6.59 0h6.348v-1.394h-4.674v-4.407h4.531v-1.428h-4.531v-4.072h4.674v-1.393h-6.348v12.694zm11.297-12.694h-3.332v12.694h1.676v-5.801h2.01c1.129 0 1.48.547 1.516 1.869.053 1.48-.053 2.785.301 3.932h1.727c-.229-.794-.334-1.64-.334-2.592l.018-1.287c0-1.71-.441-2.504-1.887-2.662 1.498-.423 2.186-1.428 2.186-3.103-.002-2.151-1.217-3.05-3.881-3.05zm-1.656 5.518v-4.196h1.887c1.322 0 1.975.635 1.975 1.939 0 1.622-.846 2.257-2.627 2.257h-1.235zm6.88 3.508l-.018.388c0 2.327 1.252 3.49 3.703 3.49 2.484 0 3.877-1.287 3.877-3.508 0-1.481-.846-2.204-2.467-3.261-2.027-1.322-3.244-1.904-3.244-3.297 0-.952.793-1.728 1.975-1.728 1.234 0 1.869.706 1.869 2.063v.264h1.744v-.317c0-2.151-1.252-3.332-3.543-3.332-2.275 0-3.756 1.34-3.756 3.244 0 1.816.971 2.521 2.838 3.72 1.781 1.128 2.875 1.675 2.875 2.891 0 1.111-.883 1.939-2.133 1.939-1.322 0-1.869-.723-1.869-2.327V72.4h-1.851zm9.227 3.668h1.709V63.374h-1.709v12.694zm6.004 0h1.674v-11.39h3.033v-1.304h-7.828v1.304h3.121v11.39zm8.68 0h1.711v-5.166l3.525-7.528h-1.693l-2.538 5.976-2.416-5.976h-1.921l3.332 7.369v5.325z"/></svg>