<svg xmlns="http://www.w3.org/2000/svg" viewBox="0 0 293.32 400" xmlns:v="https://vecta.io/nano"><g fill="#535363"><path d="M167.25 387.09H63.32a2.66 2.66 0 0 1-1.92-.82c-.5-.52-.77-1.23-.74-1.95L71.7 128.93c.06-1.47 1.34-2.61 2.77-2.54 1.47.06 2.6 1.3 2.54 2.77L66.09 381.78h98.9c5.35-33.38 33.43-242.22-85.01-321.23l-2.67 61.83c-.06 1.47-1.31 2.63-2.77 2.54-1.47-.06-2.6-1.3-2.54-2.77l2.87-66.47c.04-.94.58-1.8 1.42-2.24a2.67 2.67 0 0 1 2.65.1c128.97 80.79 95.21 305.92 90.94 331.33a2.66 2.66 0 0 1-2.62 2.22z"/><path d="M198.99 387.09h-31.74a2.66 2.66 0 1 1 0-5.32h31.74a2.66 2.66 0 1 1 0 5.32zm-40.21 0a2.92 2.92 0 0 1-.5-.05 2.66 2.66 0 0 1-2.12-3.1c16.85-89.15 12.65-252.97-70.32-313.02-1.19-.86-1.45-2.52-.59-3.71s2.52-1.45 3.71-.6c38.93 28.18 65.02 80.8 75.46 152.2 9.12 62.35 4.41 126.69-3.04 166.11-.24 1.28-1.35 2.16-2.61 2.16z"/><path d="M94.67 387.09c-1.11 0-2.14-.7-2.52-1.81l-2.14-6.34a99.44 99.44 0 0 1-5.25-31.95V68.77a2.66 2.66 0 0 1 5.32 0V347a94.26 94.26 0 0 0 4.97 30.25l2.14 6.34c.47 1.39-.28 2.9-1.67 3.37-.28.1-.57.14-.85.14zm7.26-1.33a1.34 1.34 0 0 1-1.26-.9l-2.14-6.34c-3.44-10.17-5.19-20.78-5.19-31.52V68.77a1.33 1.33 0 0 1 1.33-1.33c.74 0 1.33.59 1.33 1.33V347a95.5 95.5 0 0 0 5.05 30.67l2.14 6.34c.23.7-.14 1.45-.83 1.68a1.25 1.25 0 0 1-.43.07zM85.71 63.94a2.65 2.65 0 0 1-1.48-.45L76.04 58a2.67 2.67 0 0 1-1.17-2.43l2.74-33.12c.04-.46.2-.91.46-1.29l5.44-7.88c.66-.96 1.87-1.37 2.98-1.03a2.67 2.67 0 0 1 1.87 2.54v46.49c0 .98-.54 1.88-1.41 2.34a2.63 2.63 0 0 1-1.25.31zm-5.4-9.48l2.75 1.84V23.31l-.2.29-2.55 30.86z"/><path d="M167.26 387.09c-.15 0-.29-.01-.44-.04-1.45-.24-2.42-1.61-2.18-3.06 4.21-25.05 37.53-246.99-88.52-325.94-1.24-.78-1.62-2.42-.84-3.66s2.42-1.62 3.66-.84c128.97 80.79 95.21 305.92 90.94 331.33a2.66 2.66 0 0 1-2.62 2.22z"/><path d="M178.21 385.76c-.06 0-.12 0-.18-.01-.73-.1-1.24-.77-1.14-1.49 5.63-41.69 27.24-253.4-100.03-327.31-.63-.37-.85-1.18-.48-1.82s1.18-.85 1.82-.48c128.74 74.76 106.99 287.98 101.33 329.96-.09.67-.66 1.15-1.31 1.15z"/><path d="M187.11 387.09a3.22 3.22 0 0 1-.43-.03 2.66 2.66 0 0 1-2.2-3.05c17.84-110.62.2-260.76-108.23-319.8-1.29-.7-1.77-2.31-1.06-3.6.7-1.29 2.31-1.77 3.6-1.06 110.87 60.37 129.05 212.98 110.94 325.32a2.65 2.65 0 0 1-2.62 2.23zm-99.7-81.14c-.62 0-1.22-.22-1.7-.61a2.65 2.65 0 0 1-.96-2.04v-6.43a2.66 2.66 0 0 1 2.18-2.61l79.42-14.61a2.68 2.68 0 0 1 2.18.57 2.65 2.65 0 0 1 .96 2.04v6.43a2.66 2.66 0 0 1-2.18 2.61l-79.42 14.61c-.16.03-.32.04-.48.04zm2.66-6.87v1.02l74.1-13.63v-1.02l-74.1 13.63zm-2.66-76.31a2.7 2.7 0 0 1-1.57-.51 2.67 2.67 0 0 1-1.09-2.14v-6.43c0-1.14.73-2.16 1.82-2.52l69.15-23.08c.72-.25 1.51-.16 2.17.22s1.12 1.03 1.27 1.78l1.45 7.23c.27 1.33-.51 2.65-1.81 3.06l-70.6 22.27a2.72 2.72 0 0 1-.8.12zm2.66-7.17v.89l64.87-20.47-.39-1.94-64.48 21.52z"/><path d="M87.41 149.67c-.49 0-.98-.14-1.42-.41-.77-.49-1.24-1.34-1.24-2.25v-6.43a2.65 2.65 0 0 1 1.52-2.4l43.67-20.59c1.29-.61 2.82-.09 3.48 1.16l2.57 4.85a2.69 2.69 0 0 1 .18 2.08c-.23.69-.72 1.25-1.38 1.56l-46.24 22.17c-.36.18-.76.26-1.15.26zm2.66-7.41v.52l39.94-19.15-.09-.17-39.85 18.79zm-2.66-13.85a2.66 2.66 0 0 1-.73-5.21L127 111.57c1.43-.4 2.88.41 3.29 1.82a2.66 2.66 0 0 1-1.82 3.29l-40.32 11.63a2.69 2.69 0 0 1-.74.1zm111.58 258.76c-.9 0-1.78-.46-2.28-1.28-2.22-3.66-3.03-7.25-2.43-10.65.44-2.5 1.53-4.06 2.4-5.32.77-1.12 1.33-1.92 1.52-3.36.18-1.37-.12-2.01-.67-3.17-.63-1.32-1.48-3.12-1.43-6.03.05-3.29 1.21-5.19 2.14-6.71.79-1.29 1.41-2.31 1.58-4.35.16-1.91-.23-2.92-.72-4.21-.59-1.55-1.33-3.48-.89-6.6.44-3.07 1.62-4.74 2.58-6.08.78-1.1 1.25-1.76 1.34-3.21.1-1.53-.34-2.34-1.01-3.56-.82-1.51-1.84-3.39-1.78-6.52.06-3.1 1.14-4.84 2.01-6.25.71-1.15 1.18-1.91 1.24-3.53.07-1.8-.45-2.71-1.23-4.1-.91-1.6-2.04-3.6-2.02-6.94.02-3.08 1-4.9 1.79-6.36.68-1.27 1.09-2.03 1-3.65-.09-1.53-.54-2.21-1.29-3.32-.89-1.32-1.99-2.97-2.4-5.98-.44-3.25.31-5.32.92-6.99.51-1.39.84-2.31.5-3.95-.31-1.53-.88-2.19-1.75-3.18-1.06-1.22-2.39-2.74-2.9-5.71-.52-3.06.25-5.04.88-6.63.51-1.29.81-2.07.53-3.48-.29-1.41-.91-2.05-1.85-3.02-1.2-1.24-2.69-2.78-3.26-5.83-.51-2.71.14-4.56.61-5.91.39-1.12.63-1.79.34-3.02-.29-1.24-.79-1.72-1.69-2.59-1.05-1.01-2.49-2.39-3.35-5.08-.95-2.97-.44-5.06-.03-6.74.34-1.39.54-2.22.05-3.61-.44-1.27-1-1.71-2-2.49-1.19-.93-2.83-2.21-3.97-5.03-1.09-2.68-.93-4.67-.8-6.28.11-1.39.19-2.31-.52-3.73-.53-1.07-.98-1.41-1.74-1.97-.92-.69-2.18-1.62-3.32-3.74-1.55-2.88-1.48-5.23-1.42-7.32.04-1.46.08-2.72-.4-4.29-.14-.46-1.15-1.55-2.12-2.61-1.77-1.92-4.45-4.82-7.56-9.56-.8-1.23-.46-2.88.76-3.68a2.67 2.67 0 0 1 3.68.76c2.87 4.37 5.27 6.97 7.02 8.87 1.63 1.76 2.8 3.04 3.3 4.66.73 2.4.67 4.39.63 5.99-.05 1.75-.08 3.02.79 4.65.58 1.08 1.07 1.45 1.81 2 .99.74 2.23 1.66 3.32 3.87 1.36 2.75 1.19 4.84 1.05 6.52-.11 1.36-.19 2.34.42 3.84.61 1.51 1.33 2.07 2.33 2.84 1.24.97 2.79 2.18 3.75 4.93 1 2.88.5 4.95.09 6.62-.33 1.35-.57 2.32-.07 3.87.45 1.4 1.08 2.01 1.96 2.85 1.14 1.09 2.55 2.44 3.19 5.23.63 2.72 0 4.52-.5 5.97-.39 1.12-.65 1.86-.4 3.18.28 1.48.9 2.13 1.86 3.11 1.17 1.21 2.63 2.72 3.23 5.64.61 2.96-.17 4.92-.79 6.5-.5 1.27-.86 2.19-.59 3.79.26 1.49.79 2.1 1.67 3.11 1.05 1.2 2.36 2.7 2.95 5.61.64 3.11-.11 5.18-.71 6.84-.51 1.4-.91 2.51-.65 4.46.24 1.79.81 2.64 1.54 3.73.89 1.33 2.01 2.99 2.18 5.97.18 3.13-.82 4.99-1.62 6.48-.66 1.23-1.14 2.12-1.15 3.88-.01 1.92.55 2.91 1.33 4.29.91 1.61 2.04 3.61 1.91 6.92-.12 3.01-1.17 4.73-2.02 6.11-.71 1.16-1.18 1.92-1.22 3.57-.04 1.73.45 2.63 1.13 3.87.82 1.5 1.83 3.37 1.64 6.43-.18 2.97-1.36 4.62-2.31 5.96-.78 1.1-1.39 1.96-1.65 3.75-.25 1.76.08 2.63.59 3.95.58 1.53 1.31 3.43 1.05 6.55-.27 3.29-1.42 5.17-2.34 6.68-.8 1.32-1.33 2.19-1.36 4.03-.03 1.67.39 2.55.92 3.67.68 1.43 1.53 3.22 1.14 6.13-.35 2.71-1.5 4.37-2.42 5.69-.72 1.05-1.29 1.87-1.54 3.23-.37 2.09.21 4.44 1.74 6.96.76 1.26.36 2.89-.9 3.65-.43.26-.91.38-1.37.38zm-10.55-10.18h-19.76a1.33 1.33 0 0 1-1.33-1.33c0-.74.59-1.33 1.33-1.33h19.76a1.33 1.33 0 0 1 1.33 1.33c0 .74-.59 1.33-1.33 1.33zm-28.11 0H91.75a1.33 1.33 0 0 1-1.33-1.33c0-.74.59-1.33 1.33-1.33h68.58a1.33 1.33 0 0 1 1.33 1.33c0 .74-.59 1.33-1.33 1.33zm-71.31-11.07c-.73 0-1.32-.58-1.33-1.31 0-.73.58-1.34 1.31-1.35l73.1-.94h.02c.73 0 1.32.58 1.33 1.31s-.58 1.34-1.31 1.35l-73.11.94h-.02zm-1.38-10.89c-.72 0-1.31-.58-1.33-1.3-.01-.73.57-1.34 1.3-1.35l75.88-1.48c.76-.06 1.34.57 1.35 1.3s-.57 1.34-1.3 1.35l-75.88 1.48h-.03zm-.23-9.96c-.71 0-1.29-.56-1.33-1.27-.03-.73.54-1.35 1.27-1.39l77.29-3.34c.69-.04 1.35.54 1.39 1.27.03.73-.54 1.35-1.27 1.39l-77.29 3.34h-.06z"/><path d="M87.41 334.47c-.7 0-1.29-.55-1.33-1.26-.04-.73.53-1.36 1.26-1.39l78.15-3.77c.82-.1 1.35.53 1.39 1.26s-.53 1.36-1.26 1.39l-78.15 3.77h-.06zm0-9.79c-.69 0-1.28-.54-1.32-1.24-.05-.73.51-1.37 1.24-1.41l78.78-5.1c.66-.05 1.36.51 1.41 1.24a1.33 1.33 0 0 1-1.24 1.41l-78.78 5.1h-.09zm0-10.02a1.32 1.32 0 0 1-1.32-1.23 1.33 1.33 0 0 1 1.23-1.42l79.19-5.84a1.33 1.33 0 0 1 1.42 1.23 1.33 1.33 0 0 1-1.23 1.42l-79.19 5.84h-.1zm0-10.03a1.32 1.32 0 0 1-1.32-1.22 1.33 1.33 0 0 1 1.22-1.43l79.39-6.23c.74-.04 1.37.49 1.43 1.22a1.33 1.33 0 0 1-1.22 1.43l-79.39 6.23h-.11zm0-18.9c-.67 0-1.25-.5-1.32-1.18-.08-.73.45-1.39 1.18-1.47l79.19-8.65a1.34 1.34 0 0 1 1.47 1.18c.08.73-.45 1.39-1.18 1.47l-79.19 8.65h-.15zm0-8.59c-.66 0-1.23-.49-1.32-1.15-.1-.73.41-1.4 1.14-1.49l78.79-10.49c.7-.1 1.4.41 1.49 1.14.1.73-.42 1.4-1.14 1.49l-78.79 10.49c-.06 0-.12.01-.18.01z"/><path d="M87.41 267.79c-.65 0-1.22-.48-1.31-1.14-.1-.73.4-1.4 1.13-1.5l78.22-11.09c.71-.1 1.4.4 1.5 1.13s-.4 1.4-1.13 1.5L87.6 267.78c-.06 0-.13.01-.19.01z"/><path d="M87.41,258.61c-.65,0-1.21-.47-1.31-1.13-.11-.73.39-1.4,1.12-1.51l77.46-11.62c.72-.11,1.4.39,1.51,1.12.11.73-.39,1.4-1.12,1.51l-77.46,11.62c-.07.01-.13.02-.2.02Z"/><path d="M87.41,249.86c-.64,0-1.2-.46-1.31-1.11-.12-.72.37-1.41,1.1-1.53l76.51-12.6c.72-.12,1.41.37,1.53,1.1.12.72-.37,1.41-1.1,1.53l-76.51,12.6c-.07.01-.15.02-.22.02Z"/><path d="M87.41 240.52a1.33 1.33 0 0 1-1.31-1.11c-.12-.72.37-1.41 1.09-1.53l75.41-12.59c.71-.13 1.41.37 1.53 1.09s-.37 1.41-1.09 1.53L87.63 240.5c-.07.01-.15.02-.22.02z"/><path d="M87.41,231.91c-.63,0-1.19-.45-1.31-1.08-.13-.72.34-1.42,1.06-1.55l73.78-13.72c.73-.14,1.42.34,1.55,1.06.13.72-.34,1.42-1.06,1.55l-73.78,13.72c-.08.02-.16.02-.24.02Z"/><path d="M87.41 222.16c-.63 0-1.19-.45-1.31-1.08a1.33 1.33 0 0 1 1.06-1.55l72.48-13.48c.73-.14 1.42.34 1.55 1.06a1.33 1.33 0 0 1-1.06 1.55l-72.49 13.48c-.08.02-.16.02-.24.02zm0-16.25c-.6 0-1.15-.42-1.29-1.03-.17-.72.28-1.43.99-1.6l68.71-15.95c.73-.16 1.43.28 1.6.99.17.72-.28 1.43-.99 1.6l-68.71 15.95c-.1.02-.2.03-.3.03z"/><path d="M87.41 197.93c-.6 0-1.15-.42-1.29-1.03-.17-.72.28-1.43.99-1.6L154 179.77c.72-.17 1.43.28 1.6.99.17.72-.28 1.43-.99 1.6l-66.89 15.53c-.1.02-.2.03-.3.03z"/><path d="M87.41,189.05c-.6,0-1.15-.42-1.29-1.03-.17-.72.28-1.43.99-1.6l64.66-15.01c.73-.16,1.43.28,1.6.99.17.72-.28,1.43-.99,1.6l-64.66,15.01c-.1.02-.2.03-.3.03Z"/><path d="M87.41 180.97c-.6 0-1.14-.4-1.29-1.01-.18-.71.26-1.43.97-1.61l62.15-15.41c.71-.18 1.43.26 1.61.97s-.26 1.43-.97 1.61l-62.15 15.41a1.17 1.17 0 0 1-.32.04zm0-7.72c-.59 0-1.13-.39-1.28-.99a1.32 1.32 0 0 1 .95-1.62l59.55-15.61a1.31 1.31 0 0 1 1.62.95 1.32 1.32 0 0 1-.95 1.62l-59.55 15.61c-.11.03-.23.04-.34.04z"/><path d="M87.41,165.22c-.58,0-1.12-.39-1.28-.98-.19-.71.22-1.44.93-1.63l56.69-15.47c.72-.19,1.44.23,1.63.93.19.71-.22,1.44-.93,1.63l-56.69,15.47c-.12.03-.23.05-.35.05Z"/><path d="M87.41,157.04c-.58,0-1.12-.39-1.28-.98-.19-.71.22-1.44.93-1.63l53.75-14.67c.71-.19,1.44.23,1.63.93.19.71-.22,1.44-.93,1.63l-53.75,14.67c-.12.03-.23.05-.35.05Z"/><path d="M87.41 149.04c-.58 0-1.12-.39-1.28-.98-.19-.71.22-1.44.93-1.63l50.63-13.81c.71-.19 1.44.23 1.63.93.19.71-.22 1.44-.93 1.63l-50.63 13.81a1.41 1.41 0 0 1-.35.05zm0-15.2a1.35 1.35 0 0 1-1.27-.92c-.22-.7.16-1.45.86-1.67l42.97-13.79c.7-.21 1.45.16 1.67.86s-.16 1.45-.86 1.67l-42.97 13.79c-.13.04-.27.06-.41.06zm-20.69-1.37c-7.35 0-15.94-1.79-15.94-6.85s8.59-6.85 15.94-6.85 15.94 1.79 15.94 6.85-8.59 6.85-15.94 6.85zm-9.77-6.85c1.65.72 5.04 1.53 9.77 1.53s8.12-.81 9.77-1.53c-1.65-.71-5.04-1.53-9.77-1.53s-8.12.82-9.77 1.53zm20.57.63h.03-.03z"/><path d="M72.9 165.47c-.96 0-1.88-.52-2.36-1.42l-19.47-37.19a2.66 2.66 0 0 1 1.12-3.59c1.3-.69 2.91-.18 3.59 1.12l19.47 37.19a2.66 2.66 0 0 1-1.12 3.59 2.57 2.57 0 0 1-1.23.3zm112.74-44.2H148.5a1.33 1.33 0 0 1-1.33-1.33v-4.07a1.33 1.33 0 0 1 1.33-1.33h37.14a1.33 1.33 0 0 1 1.33 1.33v4.07a1.33 1.33 0 0 1-1.33 1.33zm-35.82-2.66h34.49v-1.41h-34.49v1.41z"/><path d="M170.81 125.38h-7.49c-.12 0-.24-.02-.35-.05l-14.82-4.07c-.64-.18-1.06-.8-.97-1.46s.65-1.15 1.32-1.15h37.14c.66 0 1.23.49 1.32 1.15s-.32 1.28-.97 1.46l-14.83 4.07c-.11.03-.23.05-.35.05zm-7.32-2.66h7.14l5.14-1.41h-17.41l5.14 1.41z"/><path d="M151.24 134.83c-.39 0-.78-.17-1.05-.51-.45-.58-.35-1.41.23-1.86l12.08-9.45c.57-.46 1.41-.36 1.86.23.45.58.35 1.41-.23 1.86l-12.07 9.45c-.24.19-.53.28-.82.28zm5.42 9.48c-.28 0-.56-.09-.8-.26-.59-.44-.71-1.27-.27-1.86l14.15-18.93c.44-.59 1.27-.71 1.86-.27s.71 1.27.27 1.86l-14.15 18.93c-.26.35-.66.53-1.06.53zm33.27 221.13h-.12l-9.31-.83a1.32 1.32 0 0 1-1.2-1.44c.06-.73.71-1.26 1.44-1.2l9.31.83a1.32 1.32 0 0 1 1.2 1.44c-.06.69-.64 1.21-1.32 1.21z"/><path d="M180.62 364.61H170.3a1.33 1.33 0 0 1-1.33-1.33c0-.74.59-1.33 1.33-1.33h10.32a1.33 1.33 0 0 1 1.33 1.33c0 .74-.59 1.33-1.33 1.33zm9.97-10.74c-.06 0-.13 0-.19-.01l-8.96-1.28c-.72-.1-1.23-.78-1.13-1.51s.79-1.22 1.51-1.13l8.96 1.28c.72.1 1.23.78 1.13 1.51-.1.66-.66 1.14-1.31 1.14z"/><path d="M181.64 352.59h-.06l-9.93-.45a1.33 1.33 0 0 1-1.27-1.39c.03-.73.58-1.32 1.39-1.27l9.93.45a1.33 1.33 0 0 1 1.27 1.39 1.33 1.33 0 0 1-1.33 1.27zm10-9.49c-.1 0-.2-.01-.3-.03l-9.26-2.15c-.71-.17-1.16-.88-.99-1.6.17-.71.87-1.15 1.6-.99l9.26 2.15c.71.17 1.16.88.99 1.6-.14.61-.69 1.03-1.29 1.03z"/><path d="M182.38 340.95h-.03l-9.65-.18a1.32 1.32 0 0 1-1.3-1.35 1.33 1.33 0 0 1 1.33-1.3h.03l9.65.18a1.32 1.32 0 0 1 1.3 1.35 1.33 1.33 0 0 1-1.33 1.3zm.5-11.17h-.02l-9.37-.11c-.73 0-1.32-.61-1.31-1.34 0-.73.6-1.31 1.33-1.31h.02l9.37.11c.73 0 1.32.61 1.31 1.34 0 .73-.6 1.31-1.33 1.31z"/><path d="M192.66 332.16a1.1 1.1 0 0 1-.31-.04l-9.78-2.38a1.33 1.33 0 0 1-.98-1.6c.17-.71.89-1.14 1.6-.98l9.78 2.38a1.33 1.33 0 0 1 .98 1.6c-.15.61-.69 1.01-1.29 1.01zm.4-11.07c-.11 0-.23-.02-.35-.05l-9.89-2.67a1.33 1.33 0 0 1-.94-1.63c.19-.71.93-1.12 1.63-.94l9.89 2.67a1.33 1.33 0 0 1 .94 1.63c-.16.59-.7.98-1.28.98z"/><path d="M174.08 318.48c-.73 0-1.32-.59-1.33-1.32 0-.73.59-1.33 1.32-1.34l9.09-.05c.73.03 1.33.59 1.34 1.32 0 .73-.59 1.33-1.32 1.34l-9.09.05h0zm.34-10.76c-.73 0-1.32-.58-1.33-1.31s.58-1.34 1.31-1.35l8.82-.12c.66-.12 1.34.58 1.35 1.31s-.58 1.34-1.31 1.35l-8.82.12h-.02z"/><path d="M193.2 310.55c-.12 0-.25-.02-.38-.05l-9.96-2.95a1.34 1.34 0 0 1-.9-1.65c.21-.7.94-1.1 1.65-.9l9.96 2.95a1.34 1.34 0 0 1 .9 1.65c-.17.58-.7.95-1.27.95zm0-11a1.32 1.32 0 0 1-.39-.06l-9.96-3.07c-.7-.22-1.1-.96-.88-1.66s.96-1.1 1.66-.88l9.96 3.07c.7.22 1.1.96.88 1.66-.17.57-.7.94-1.27.94zm-.4-9.84c-.15 0-.3-.03-.45-.08L182.33 286a1.33 1.33 0 0 1-.8-1.7c.25-.69 1.02-1.05 1.7-.8l10.02 3.63a1.33 1.33 0 0 1 .8 1.7c-.19.54-.71.88-1.25.88zm-.53-9.99c-.19 0-.39-.04-.57-.13l-10.06-4.77c-.66-.32-.95-1.11-.63-1.77a1.33 1.33 0 0 1 1.77-.63l10.06 4.77c.66.32.95 1.11.63 1.77-.23.48-.71.76-1.2.76zm-.54-10.66a1.23 1.23 0 0 1-.53-.11l-10.27-4.44c-.67-.29-.98-1.07-.69-1.75a1.32 1.32 0 0 1 1.75-.69l10.27 4.44c.67.29.98 1.07.69 1.75-.22.5-.71.8-1.22.8zm-1.29-10.05c-.19 0-.38-.04-.56-.12l-9.92-4.64c-.66-.31-.95-1.1-.64-1.77a1.33 1.33 0 0 1 1.77-.64l9.92 4.64c.66.31.95 1.1.64 1.77-.23.48-.71.77-1.2.77zm-1.15-9.15a1.41 1.41 0 0 1-.66-.17l-9.94-5.68c-.64-.37-.86-1.18-.5-1.81a1.34 1.34 0 0 1 1.81-.5l9.94 5.68c.64.37.86 1.18.5 1.81a1.34 1.34 0 0 1-1.15.67zm-1.39-9.4a1.25 1.25 0 0 1-.71-.21l-9.9-6.24a1.33 1.33 0 0 1-.42-1.83 1.33 1.33 0 0 1 1.83-.42l9.9 6.24a1.33 1.33 0 0 1 .42 1.83 1.32 1.32 0 0 1-1.12.62zm-1.61-9.28c-.26 0-.52-.08-.75-.23l-9.84-6.7c-.61-.41-.76-1.24-.35-1.85.42-.61 1.25-.76 1.85-.35l9.84 6.7c.61.41.76 1.24.35 1.85a1.32 1.32 0 0 1-1.1.58zm-1.78-8.91c-.26 0-.53-.08-.77-.24l-9.71-6.85a1.33 1.33 0 0 1-.32-1.85 1.33 1.33 0 0 1 1.85-.32l9.71 6.85a1.33 1.33 0 0 1 .32 1.85c-.26.37-.67.56-1.08.56zm-2.27-9.93c-.24 0-.48-.06-.69-.19l-9.24-5.64a1.33 1.33 0 0 1-.44-1.83c.39-.63 1.21-.83 1.83-.44l9.24 5.64a1.33 1.33 0 0 1 .44 1.83c-.25.41-.69.64-1.13.64zm-2.27-8.82c-.24 0-.48-.06-.7-.2l-8.99-5.59a1.34 1.34 0 0 1-.43-1.83 1.34 1.34 0 0 1 1.83-.43l8.99 5.59c.62.39.82 1.21.43 1.83-.25.4-.69.63-1.13.63zm-2.59-8.98a1.34 1.34 0 0 1-.72-.21l-8.74-5.66c-.62-.4-.79-1.22-.39-1.84s1.23-.78 1.84-.39l8.74 5.66c.62.4.79 1.22.39 1.84-.25.39-.68.61-1.12.61zm-2.82-7.69c-.29 0-.58-.09-.83-.29l-8.42-6.69c-.57-.46-.67-1.29-.21-1.87s1.29-.67 1.87-.21l8.42 6.69c.57.46.67 1.29.21 1.87a1.32 1.32 0 0 1-1.04.5zm-3-9.56c-.26 0-.53-.08-.77-.24l-8.14-5.74a1.33 1.33 0 0 1-.32-1.85 1.33 1.33 0 0 1 1.85-.32l8.14 5.74a1.33 1.33 0 0 1 .32 1.85c-.26.37-.67.56-1.08.56zm-3.67-8.45c-.29 0-.57-.09-.81-.28l-7.42-5.73c-.58-.45-.69-1.28-.24-1.86s1.29-.69 1.86-.24l7.42 5.73c.58.45.69 1.28.24 1.86-.26.34-.65.52-1.05.52zm-3.36-8.63c-.26 0-.52-.08-.76-.24l-7.04-4.85a1.34 1.34 0 0 1-.34-1.85 1.32 1.32 0 0 1 1.85-.34l7.04 4.85a1.34 1.34 0 0 1 .34 1.85 1.33 1.33 0 0 1-1.09.57z"/><path d="M174.56 296.54c-.73 0-1.32-.59-1.33-1.32 0-.73.59-1.33 1.32-1.34l8.68-.06h.01c.73 0 1.32.59 1.33 1.32 0 .73-.59 1.33-1.32 1.34l-8.68.06h-.01zm-.07-10.37a1.33 1.33 0 0 1-1.33-1.31c0-.73.58-1.34 1.31-1.34l8.28-.09h.02a1.33 1.33 0 0 1 1.33 1.31c0 .73-.58 1.34-1.31 1.34l-8.28.09h-.02zm-.29-11a1.33 1.33 0 0 1-1.33-1.29c-.02-.73.56-1.34 1.29-1.37l8-.23h.04a1.33 1.33 0 0 1 1.33 1.29 1.33 1.33 0 0 1-1.29 1.36l-8 .23h-.04zm-.47-10.19c-.71 0-1.29-.56-1.33-1.27-.03-.73.53-1.35 1.27-1.39l7.73-.35c.8-.12 1.35.53 1.39 1.27.03.73-.53 1.35-1.27 1.39l-7.73.35h-.06zm-.68-10.09c-.69 0-1.27-.53-1.32-1.24a1.33 1.33 0 0 1 1.23-1.42l7.46-.52c.72-.07 1.37.5 1.42 1.23a1.33 1.33 0 0 1-1.23 1.42l-7.46.52h-.1zm-.89-10.14a1.32 1.32 0 0 1-1.32-1.22 1.33 1.33 0 0 1 1.22-1.43l7.19-.57c.68-.04 1.37.49 1.43 1.22a1.33 1.33 0 0 1-1.22 1.43l-7.19.57h-.11zm-1.07-9.78a1.33 1.33 0 0 1-1.32-1.19 1.32 1.32 0 0 1 1.18-1.46l6.91-.74a1.32 1.32 0 0 1 1.46 1.18c.07.73-.45 1.39-1.18 1.46l-6.91.74h-.15zm-1.27-9.61c-.66 0-1.22-.49-1.32-1.15a1.33 1.33 0 0 1 1.14-1.49l6.63-.88c.72-.1 1.39.41 1.49 1.14a1.33 1.33 0 0 1-1.14 1.49l-6.63.88c-.06 0-.12.01-.18.01zm-1.42-9.18c-.66 0-1.24-.5-1.32-1.17-.09-.73.43-1.39 1.16-1.47l6.39-.76c.71-.11 1.39.43 1.47 1.16.09.73-.43 1.39-1.16 1.47l-6.39.76c-.05 0-.11.01-.16.01zm-1.84-8.89c-.68 0-1.26-.52-1.32-1.2-.07-.73.47-1.38 1.2-1.45l6.44-.6c.77-.04 1.38.47 1.45 1.2s-.47 1.38-1.2 1.45l-6.44.6h-.13zm-1.51-8.71a1.33 1.33 0 0 1-1.32-1.18c-.08-.73.45-1.39 1.18-1.47l5.92-.65c.71-.07 1.39.45 1.47 1.18s-.45 1.39-1.18 1.47l-5.92.65h-.15zm-2.11-9.2c-.68 0-1.26-.52-1.32-1.21-.06-.73.48-1.38 1.21-1.44l5.7-.5c.76-.06 1.38.47 1.44 1.21.06.73-.48 1.38-1.21 1.44l-5.7.5h-.12zm-2.23-8.67a1.33 1.33 0 0 1-1.32-1.19c-.08-.73.46-1.38 1.19-1.46l5.44-.55c.71-.08 1.38.45 1.46 1.19.08.73-.46 1.38-1.19 1.46l-5.44.55h-.14zm-2.46-8.56c-.66 0-1.24-.5-1.32-1.18-.08-.73.44-1.39 1.17-1.47l5.17-.6c.71-.07 1.39.44 1.47 1.17s-.44 1.39-1.17 1.47l-5.17.6h-.16zM91.74 295.88c-.27 0-.53-.08-.76-.24-.53-.38-.72-1.09-.43-1.67.14-.28 13.8-28.01 26.96-47.42 15.74-23.21 38.21-47.18 38.43-47.42a1.34 1.34 0 0 1 1.72-.19 1.33 1.33 0 0 1 .45 1.67c-.13.27-12.88 27.17-26.36 47.12-16.3 24.13-38.84 47.51-39.06 47.74-.26.27-.61.4-.95.4zm59.77-87.91c-7.82 8.8-21.32 24.62-31.81 40.07-8.58 12.64-17.38 28.88-22.45 38.62 7.88-8.7 21.48-24.4 32.3-40.41 8.71-12.89 17.12-28.73 21.96-38.28zM89.92 370.25c-.33 0-.67-.13-.92-.37-.46-.44-.54-1.15-.19-1.69.14-.22 14.59-22.01 30.68-39.09 19.23-20.41 45.21-40.52 45.47-40.72.52-.4 1.25-.37 1.73.09a1.34 1.34 0 0 1 .18 1.72c-.17.25-17.03 24.79-33.5 42.34-19.94 21.25-42.45 37.32-42.68 37.48-.23.17-.5.25-.77.25zm69.27-73.85c-9.11 7.45-24.96 20.92-37.76 34.52-10.47 11.11-20.24 24.25-25.75 32.02 8.11-6.3 22.51-18.11 35.76-32.23 10.65-11.35 21.47-25.65 27.76-34.3zm-71.78-81.38c-.21 0-.42-.05-.62-.16-.58-.31-.84-.99-.63-1.6.09-.25 8.76-25.38 17.98-43.4 11.02-21.55 27.83-44.58 28-44.81a1.35 1.35 0 0 1 1.68-.4c.58.3.86.98.66 1.6-.08.24-8.05 24.56-17.48 43.08-11.4 22.41-28.35 44.94-28.52 45.16-.26.34-.66.53-1.06.53zm41.42-80.65c-5.86 8.55-15.29 22.94-22.33 36.69-5.72 11.18-11.24 25.16-14.58 34.09 5.93-8.48 15.45-22.79 22.7-37.03 5.8-11.39 11.04-25.01 14.21-33.75z"/><use href="#B"/><use href="#C"/><path d="M222.81 364.47c-.51 0-.99-.29-1.21-.79-1.65-3.66-5.97-5.31-9.63-3.67a1.32 1.32 0 0 1-1.75-.67c-.3-.67 0-1.46.67-1.75 5.01-2.24 10.9.01 13.13 5.01a1.32 1.32 0 0 1-1.21 1.87z"/><use href="#D"/><path d="M222.81,364.47c-.18,0-.37-.04-.54-.12-.67-.3-.97-1.08-.67-1.75,2.23-5,8.12-7.25,13.13-5.01.67.3.97,1.08.67,1.75-.3.67-1.09.98-1.75.67-3.67-1.64-7.98.01-9.62,3.67-.22.49-.71.79-1.21.79Z"/><use href="#B" x="-181.49"/><path d="M30.2 369.45c-.16 0-.32-.03-.47-.09a1.33 1.33 0 0 1-.77-1.72 9.96 9.96 0 0 1 12.83-5.74c.69.26 1.03 1.03.77 1.71a1.33 1.33 0 0 1-1.72.77c-3.76-1.43-7.97.45-9.4 4.21-.2.53-.71.85-1.24.85z"/><path d="M41.32 364.47c-.51 0-.99-.29-1.21-.79-1.64-3.66-5.96-5.31-9.62-3.67-.68.31-1.46 0-1.76-.67a1.32 1.32 0 0 1 .67-1.75c5-2.24 10.89.01 13.13 5.01a1.32 1.32 0 0 1-1.21 1.87z"/><path d="M52.43,369.45c-.53,0-1.04-.32-1.24-.85-1.43-3.75-5.65-5.64-9.4-4.21-.69.26-1.45-.08-1.72-.77-.26-.69.08-1.45.77-1.71,5.12-1.95,10.88.62,12.83,5.74.26.69-.08,1.45-.77,1.72-.16.06-.32.09-.47.09Z"/><path d="M41.32,364.47c-.18,0-.37-.04-.54-.12-.67-.3-.97-1.08-.67-1.75,2.24-5,8.13-7.25,13.13-5.01.67.3.97,1.08.67,1.75-.3.67-1.08.98-1.76.67-3.66-1.64-7.98,0-9.62,3.67-.22.49-.71.79-1.21.79Z"/><use href="#B" x="30.73"/><use href="#C" x="30.73"/><path d="M253.54 364.47c-.51 0-.99-.29-1.21-.79-1.65-3.66-5.97-5.31-9.63-3.67a1.32 1.32 0 1 1-1.08-2.42c5.01-2.24 10.9.01 13.13 5.01.3.67 0 1.46-.67 1.75a1.32 1.32 0 0 1-.54.12z"/><use href="#D" x="30.72"/><path d="M253.54 364.47c-.18 0-.37-.04-.54-.12a1.32 1.32 0 0 1-.67-1.75 9.95 9.95 0 0 1 13.13-5.01 1.32 1.32 0 0 1 .67 1.75c-.3.67-1.09.98-1.75.67-3.66-1.64-7.98.01-9.62 3.67a1.34 1.34 0 0 1-1.21.79zm27.32 22.62H12.75a2.66 2.66 0 1 1 0-5.32h268.11a2.66 2.66 0 1 1 0 5.32z"/></g><defs ><path id="B" d="M222.81,385.84c-.73,0-1.33-.59-1.33-1.33v-21.33c0-.73.59-1.33,1.33-1.33s1.33.59,1.33,1.33v21.33c0,.73-.59,1.33-1.33,1.33Z"/><path id="C" d="M211.69 369.45c-.16 0-.32-.03-.47-.09a1.33 1.33 0 0 1-.77-1.72 9.96 9.96 0 0 1 12.83-5.74c.69.26 1.03 1.03.77 1.71-.26.69-1.03 1.03-1.71.77-3.76-1.43-7.97.46-9.4 4.21-.2.53-.71.85-1.24.85z"/><path id="D" d="M233.93,369.45c-.53,0-1.04-.32-1.24-.85-1.43-3.75-5.65-5.64-9.4-4.21-.68.26-1.45-.08-1.71-.77-.26-.69.08-1.45.77-1.71,5.11-1.95,10.87.62,12.83,5.74.26.69-.08,1.45-.77,1.72-.16.06-.32.09-.47.09Z"/></defs></svg>