<svg xmlns="http://www.w3.org/2000/svg" viewBox="0 0 1440 720" xmlns:v="https://vecta.io/nano"><style><![CDATA[.R{fill:#fff}.S{fill:#768276}.T{opacity:.7}]]></style><defs><linearGradient id="A" x1="946.79" y1="647.37" x2="946.79" y2="555.66" href="#b"><stop offset=".52" stop-color="#86705a" stop-opacity="0"/><stop offset=".82" stop-color="#fff"/></linearGradient><linearGradient id="B" x1="1137.51" y1="616.5" x2="1137.51" y2="524.79" href="#A"/><linearGradient id="C" x1="502.9" y1="639.95" x2="502.9" y2="501.35" href="#A"/><linearGradient id="D" x1="1140.18" y1="720" x2="1140.18" y2="518.57" href="#b"><stop offset=".19" stop-color="#fff" stop-opacity="0"/><stop offset=".82" stop-color="#fff"/></linearGradient><linearGradient id="E" x1="684.76" y1="702.23" x2="684.76" y2="500.8" href="#D"/><linearGradient id="F" x1="215.14" y1="544.76" x2="215.14" y2="343.33" href="#D"/><linearGradient id="G" x1="135.64" y1="205.48" x2="135.64" y2="248.39" href="#b"><stop offset="0" stop-color="#fff"/><stop offset=".18" stop-color="#fff" stop-opacity=".99"/><stop offset=".32" stop-color="#fff" stop-opacity=".95"/><stop offset=".43" stop-color="#fff" stop-opacity=".89"/><stop offset=".54" stop-color="#fff" stop-opacity=".8"/><stop offset=".64" stop-color="#fff" stop-opacity=".69"/><stop offset=".74" stop-color="#fff" stop-opacity=".55"/><stop offset=".83" stop-color="#fff" stop-opacity=".38"/><stop offset=".92" stop-color="#fff" stop-opacity=".2"/><stop offset="1" stop-color="#fff" stop-opacity="0"/></linearGradient><linearGradient id="H" x1="1207.68" y1="191.54" x2="1207.68" y2="221.43" href="#b"><stop offset="0" stop-color="#fff"/><stop offset=".09" stop-color="#fff" stop-opacity=".97"/><stop offset=".22" stop-color="#fff" stop-opacity=".89"/><stop offset=".38" stop-color="#fff" stop-opacity=".75"/><stop offset=".56" stop-color="#fff" stop-opacity=".57"/><stop offset=".76" stop-color="#fff" stop-opacity=".33"/><stop offset=".97" stop-color="#fff" stop-opacity=".04"/><stop offset="1" stop-color="#fff" stop-opacity="0"/></linearGradient><linearGradient id="I" x1="188.39" y1="27.65" x2="188.39" y2="45.27" href="#H"/><linearGradient id="J" x1="1249.05" y1="0" x2="1249.05" y2="26.54" href="#H"/><linearGradient id="K" x1="250.19" y1="377.88" x2="250.19" y2="456.4" gradientTransform="translate(1442) rotate(-180) scale(1 -1)" href="#G"/><path id="L" d="M1050.99 364.95h58.42"/><path id="M" d="M1050.99 364.01h58.42v1.87h-58.42z"/><path id="N" d="M747.19 447.21h1.87v28.37h-1.87z"/><path id="O" d="M732.65 485.9h46.43"/><path id="P" d="M732.65 484.96h46.43v1.87h-46.43z"/><path id="Q" d="M703.42 523.73h-46.43"/><path id="R" d="M462.71 464.55h64.5"/><path id="S" d="M462.71 463.61h64.51v1.87h-64.51z"/><path id="T" d="M1236.81 558.18h-43.65c-5.51 0-10-4.48-10-10v-.94h63.65v.94c0 5.51-4.48 10-10 10zm-51.72-9.06c.47 4.04 3.91 7.19 8.07 7.19h43.65c4.16 0 7.6-3.15 8.07-7.19h-59.79z"/><path id="U" d="M1229.71 625.47h-58.17"/><path id="V" d="M1171.54 624.53h58.17v1.87h-58.17z"/><path id="W" d="M911.21 456.5h-16.42"/><path id="X" d="M894.79 455.56h16.42v1.87h-16.42z"/><path id="Y" d="M1014.55 493.83v184.14"/><path id="Z" d="M1013.61 493.83h1.87v184.14h-1.87z"/><path id="a" d="M594.1 602.21h7.76v14.97h-7.76z"/><linearGradient id="b" gradientUnits="userSpaceOnUse"/></defs><path d="M0 0h1440v720H0z" fill="#f9daa4"/><path d="M1011.91 598.78a11.09 11.09 0 0 0 .35-2.78 11.06 11.06 0 0 0-11.06-11.05c-.56 0-1.09.04-1.63.12-1.25-9.57-9.21-17.03-19-17.5-3.15-7.02-10.21-11.9-18.4-11.9-11.14 0-20.17 9.03-20.17 20.17 0 .27 0 .54.02.81-.97-.18-1.96-.27-2.98-.27a16.31 16.31 0 0 0-16.26 15.08h-.08l.05 9.19c-.2-.02-.4-.06-.6-.06-.32 0-.64.02-.95.07a11.71 11.71 0 0 0-11.02-10.16c-1.83-4.07-5.92-6.9-10.68-6.9-6.46 0-11.7 5.24-11.7 11.7a7.37 7.37 0 0 0 .01.47 9.85 9.85 0 0 0-1.73-.16c-4.98 0-9.07 3.86-9.43 8.74h-.04l.18 32.45h46.17l.06 10.58h93.93v-43.09a5.52 5.52 0 0 0-5.05-5.5z" fill="url(#A)" class="T"/><path d="M1202.64,567.91c.23-.89.35-1.82.35-2.78,0-6.1-4.95-11.05-11.06-11.05-.56,0-1.09.04-1.63.12-1.25-9.57-9.21-17.03-19-17.5-3.15-7.02-10.21-11.9-18.4-11.9-11.14,0-20.17,9.03-20.17,20.17,0,.27,0,.54.02.81-.96-.18-1.96-.27-2.98-.27-8.59,0-15.63,6.64-16.26,15.08h-.08s.05,9.19.05,9.19c-.2-.02-.4-.06-.6-.06-.32,0-.64.02-.95.07-.72-5.55-5.34-9.88-11.02-10.16-1.83-4.07-5.92-6.9-10.68-6.9-6.46,0-11.7,5.24-11.7,11.7,0,.16,0,.31.01.47-.56-.1-1.14-.16-1.73-.16-4.98,0-9.07,3.86-9.43,8.74h-.04s.18,32.45.18,32.45h46.17l.06,10.58h93.93v-43.09c0-2.89-2.22-5.26-5.05-5.5Z" fill="url(#B)" class="T"/><path d="M566.5,566.51c.35-1.34.53-2.75.53-4.21,0-9.23-7.48-16.71-16.71-16.71-.84,0-1.66.06-2.46.18-1.9-14.46-13.92-25.73-28.71-26.45-4.77-10.61-15.43-17.99-27.82-17.99-16.83,0-30.48,13.65-30.48,30.48,0,.41.01.82.03,1.22-1.46-.27-2.97-.41-4.5-.41-12.98,0-23.62,10.05-24.57,22.78l-.12.02.48,84.51h141.95v-65.11c0-4.37-3.35-7.95-7.62-8.32Z" fill="url(#C)" class="T"/><path d="M1344.09,613.28c.51-1.95.78-4,.78-6.11,0-13.41-10.87-24.28-24.28-24.28-1.22,0-2.41.09-3.58.26-2.75-21.01-20.23-37.39-41.73-38.43-6.94-15.41-22.42-26.14-40.42-26.14-24.47,0-44.3,19.83-44.3,44.3,0,.59.01,1.18.04,1.77-2.12-.39-4.31-.6-6.55-.6-18.87,0-34.32,14.59-35.7,33.11l-.17.02v1.95c-4.65-3.34-10.35-5.33-16.53-5.33-1.78,0-3.52.17-5.21.47.02-.47.03-.94.03-1.41,0-19.47-15.78-35.26-35.26-35.26-14.32,0-26.65,8.54-32.17,20.81-17.11.84-31.02,13.87-33.21,30.59-.93-.14-1.88-.21-2.85-.21-7.95,0-14.78,4.8-17.74,11.67-1.38-9.89-9.62-17.57-19.76-18.07-3.29-7.31-10.63-12.4-19.17-12.4-11.6,0-21.01,9.41-21.01,21.01,0,.28,0,.56.02.84-1.01-.19-2.04-.28-3.11-.28-8.95,0-16.28,6.92-16.93,15.7h-.08s.33,58.26.33,58.26h69.92v32.39h153.41v2.08h206.31v-94.63c0-6.35-4.87-11.55-11.08-12.09Z" fill="url(#D)" class="T"/><path d="M888.66,595.5c.51-1.95.78-4,.78-6.11,0-13.41-10.87-24.28-24.28-24.28-1.22,0-2.41.09-3.58.26-2.75-21.01-20.23-37.39-41.73-38.43-6.94-15.41-22.42-26.14-40.42-26.14-24.47,0-44.3,19.83-44.3,44.3,0,.59.01,1.18.04,1.77-2.12-.39-4.31-.6-6.55-.6-18.87,0-34.32,14.59-35.7,33.11l-.17.02v1.95c-4.65-3.34-10.35-5.33-16.53-5.33-1.78,0-3.52.17-5.21.47.02-.47.03-.94.03-1.41,0-19.47-15.78-35.26-35.26-35.26-14.32,0-26.65,8.54-32.17,20.81-17.11.84-31.02,13.87-33.21,30.59-.93-.14-1.88-.21-2.85-.21-7.95,0-14.78,4.8-17.74,11.67-1.38-9.89-9.62-17.57-19.76-18.07-3.29-7.31-10.63-12.4-19.17-12.4-11.6,0-21.01,9.41-21.01,21.01,0,.28,0,.56.02.84-1.01-.19-2.04-.28-3.11-.28-8.95,0-16.28,6.92-16.93,15.7h-.08s.33,58.26.33,58.26h69.92v32.39h153.41v2.08h206.31v-94.63c0-6.35-4.87-11.55-11.08-12.09Z" fill="url(#E)" class="T"/><path d="M11.23,438.04c-.51-1.95-.78-4-.78-6.11,0-13.41,10.87-24.28,24.28-24.28,1.22,0,2.41.09,3.58.26,2.75-21.01,20.23-37.39,41.73-38.43,6.94-15.41,22.42-26.14,40.42-26.14,24.47,0,44.3,19.83,44.3,44.3,0,.59-.01,1.18-.04,1.77,2.12-.39,4.31-.6,6.55-.6,18.87,0,34.32,14.59,35.7,33.11l.17.02v1.95c4.65-3.34,10.35-5.33,16.53-5.33,1.78,0,3.52.17,5.21.47-.02-.47-.03-.94-.03-1.41,0-19.47,15.78-35.26,35.26-35.26,14.32,0,26.65,8.54,32.17,20.81,17.11.84,31.02,13.87,33.21,30.59.93-.14,1.88-.21,2.85-.21,7.95,0,14.78,4.8,17.74,11.67,1.38-9.89,9.62-17.57,19.76-18.07,3.29-7.31,10.63-12.4,19.17-12.4,11.6,0,21.01,9.41,21.01,21.01,0,.28,0,.56-.02.84,1.01-.19,2.04-.28,3.11-.28,8.95,0,16.28,6.92,16.93,15.7h.08s-.33,58.26-.33,58.26h-69.92v32.39h-153.41v2.08H.15v-94.63c0-6.35,4.87-11.55,11.08-12.09Z" fill="url(#F)" class="T"/><path d="M0 200.84l.49-1.35c4.73-15.42 34.68-4.88 42.77 2.05 5.93 5.08 12.33 12.56 19.78 10.22 2.61-.82 4.68-2.77 6.95-4.32 8.62-5.9 21.04-5.53 29.3.86 5.16 4 9.44 10.33 15.97 10.64 3.62.17 7.06-1.66 10.67-1.8 8.58-.34 14.39 8.26 21.61 12.92 8.01 5.18 15.1 3.53 23.74 2.14 7.67-1.23 15.75-.13 23.51.66 10.85 1.11 22.49 5.21 33.33 5.23 2.04 0 43.17 6.8 43.17 6.8S239 250.33 222 248.63s-8.59-1.83-24.07 0-32.88 6.46-39.76 5.78 3.58.14-21.37.07-26.69 3.72-51.32 3.5c-24.63-.21-27.06-6.97-42.16-9.35s-43.31.91-43.31.91v-48.71z" fill="url(#G)" class="T"/><path d="M1276.94 215.08s.11-23.54-17.38-23.54-16.8 19.38-16.8 19.38-2.62-11.06-13.78-9.79c-12.79 1.45-11.85 13.95-11.85 13.95s-2.67-9.82-15.47-6.98c-7.85 1.74-9.3 10.46-9.3 10.46s-4.37-12.66-13.95-13.08c-13.37-.58-19.18 13.95-19.18 13.95l-44.46 5.23 185.83-3.49-23.66-6.1z" fill="url(#H)" class="T"/><path d="M229.22 41.53s.06-13.88-10.25-13.88-9.9 11.43-9.9 11.43-1.54-6.52-8.12-5.77c-7.54.86-6.98 8.22-6.98 8.22s-1.57-5.79-9.12-4.11c-4.63 1.03-5.48 6.17-5.48 6.17s-2.58-7.46-8.22-7.71c-7.88-.34-11.31 8.22-11.31 8.22l-26.21 3.08 109.55-2.06-13.95-3.6z" fill="url(#I)" class="T"/><path d="M1310.55 20.9s.1-20.9-15.44-20.9-14.91 17.21-14.91 17.21-2.32-9.82-12.23-8.7c-11.35 1.29-10.52 12.39-10.52 12.39s-2.37-8.72-13.74-6.19c-6.97 1.55-8.26 9.29-8.26 9.29s-3.88-11.24-12.39-11.61c-11.87-.52-17.03 12.39-17.03 12.39l-39.48 4.64 165.01-3.1-21.01-5.42z" fill="url(#J)" class="T"/><path d="M1440 369.4l-.9-2.47c-8.65-28.21-63.46-8.93-78.25 3.75-10.84 9.29-22.57 22.98-36.2 18.71-4.78-1.5-8.57-5.07-12.71-7.9-15.78-10.79-38.49-10.12-53.6 1.58-9.45 7.31-17.28 18.9-29.21 19.46-6.62.31-12.91-3.04-19.53-3.3-15.7-.62-26.33 15.12-39.53 23.64-14.66 9.47-27.63 6.46-43.44 3.92-14.03-2.25-28.82-.24-43.01 1.21-19.85 2.03-41.15 9.54-60.98 9.56-3.73 0-79 12.44-79 12.44s59.09 9.95 90.19 6.84 15.72-3.35 44.04 0 60.16 11.82 72.75 10.58-6.55.25 39.1.12c45.65-.12 48.84 6.8 93.91 6.41 45.06-.39 49.51-12.76 77.13-17.11s79.25 1.67 79.25 1.67v-89.12z" fill="url(#K)" class="T"/><path d="M0 543.73l10.85 1.53v22.89l1.02-2.03 4.51-6.55 1.14-.7 1.4-7.76.83 8.01 2.73-.06v9.35l5.66 10.55v13.73l5.21 5.98v21.74h9.54l7.25 3.43v-30.26h15.13v9.79h3.94v10.68H89.3v72.1h12.08v5.34h17.04V702h5.34v-64.68h19.46v4.45h19.96v7.63h8.9v-19.46l11.32 8.27v-8.27l14.37 8.9v-32.3l9.79 11.06h26.7v-54.21h5.38v-14.41h35.78v16.28h5.09v25.94h5.93v55.27h6.44v-42.22h146.3v35.3h78.86s11.25-10.39 21.8-10.7c0 0 11.57 21.09 8.58 41.4h15.11l5.82-14.64h5.35v-54.78h25.5v2.47h-4.36v5.67h5.56v54.46h8.29V628.8h2.83v-14.59h3.88v-3.78h4.83v-2.31h4.3v2.31h3.31V567.3h4.41v-73.98h7.5V358.1h3.04v-33.37h1.26v-33.42h.84l1.05-43.71.79 43.66h1.5v12.97h2.28v65.92h2.6v31.77h3.86v26.76h2.94v89.2h2.89v72.41h5.04v47.38h13.54v-52.58h12.91v-58.87h5.35v-13.07h35.89v13.38h7.4v86.1h24.35V569.5l5.88-5.88v-8.61h14.9v12.17h8.82v56.46s10.91 11.54 10.91 26.03h13.64v-6.93h17.21v-9.23h3.57v-9.03h15.32v9.34h3.04v15.64h2.94v-23.19h3.04v-6.61h8.61v-16.27h19.94v15.85h113.86l122.47 64.85V575.16l12.59-21.09v-6.93h1.57v6.93l14.32 21.41v105.26h14.53v-86.68h39.46v85.95l14.01 4.88v-9.13h16.53v-9.29h29.28v6.14h5.19v-8.97h6.3l5.82-5.82h11.02v4.72h11.49v9.76h11.33v-23.14h13.54v26.29h18.57v-14.01h17.16v11.49h19.36v-10.86h9.13v-10.55h36.35v68.47H0V543.72z" fill="#7397a0"/><path d="M281.91,703.17c-1.67,10.98-8.94,16.51-9.39,16.83l9.39-16.83Z" class="R"/><path d="M0 702.52h1440V720H0z" fill="#89b5a3"/><path d="M842.7 668.1V491.05h82.54" class="S"/><path d="M843.64 668.1h-1.88V490.12h83.48v1.87h-81.6V668.1z" class="R"/><path d="M866.78 685.29V508.25h82.54" class="S"/><path d="M867.71 685.29h-1.87V507.31h83.48v1.88h-81.61v176.1z" class="R"/><path d="M1049.17 332.08h51.12v239.16h-51.12z" class="S"/><path d="M1101.22 572.18h-52.99V331.14h52.99v241.04zm-51.12-1.87h49.24V333.02h-49.24v237.29z" class="R"/><path d="M1049.17 353.99h60.86v341.32h-60.86z" class="S"/><path d="M1110.96 696.25h-62.73v-343.2h62.73v343.2zm-60.86-1.87h58.98V354.93h-58.98v339.45z" class="R"/><use href="#L" class="S"/><use href="#M" class="R"/><use href="#L" y="12.17" class="S"/><use href="#M" y="12.17" class="R"/><use href="#L" y="24.34" class="S"/><use href="#M" y="24.34" class="R"/><use href="#L" y="36.51" class="S"/><use href="#M" y="36.51" class="R"/><use href="#L" y="48.68" class="S"/><use href="#M" y="48.68" class="R"/><use href="#L" y="60.85" class="S"/><use href="#M" y="60.85" class="R"/><use href="#L" y="73.02" class="S"/><use href="#M" y="73.02" class="R"/><use href="#L" y="85.19" class="S"/><use href="#M" y="85.2" class="R"/><use href="#L" y="97.36" class="S"/><use href="#M" y="97.37" class="R"/><use href="#L" y="109.54" class="S"/><use href="#M" y="109.54" class="R"/><use href="#L" y="121.71" class="S"/><use href="#M" y="121.71" class="R"/><use href="#L" y="133.88" class="S"/><use href="#M" y="133.88" class="R"/><use href="#L" y="146.05" class="S"/><use href="#M" y="146.05" class="R"/><use href="#L" y="158.22" class="S"/><use href="#M" y="158.22" class="R"/><use href="#L" y="170.39" class="S"/><use href="#M" y="170.39" class="R"/><use href="#L" y="182.56" class="S"/><use href="#M" y="182.57" class="R"/><use href="#L" y="194.73" class="S"/><use href="#M" y="194.74" class="R"/><use href="#L" y="206.9" class="S"/><use href="#M" y="206.91" class="R"/><use href="#L" y="229.16" class="S"/><use href="#M" y="229.16" class="R"/><use href="#L" y="241.33" class="S"/><use href="#M" y="241.33" class="R"/><use href="#L" y="253.5" class="S"/><use href="#M" y="253.5" class="R"/><use href="#L" y="265.67" class="S"/><use href="#M" y="265.68" class="R"/><use href="#L" y="277.84" class="S"/><use href="#M" y="277.85" class="R"/><use href="#L" y="290.01" class="S"/><use href="#M" y="290.02" class="R"/><use href="#L" y="302.19" class="S"/><use href="#M" y="302.19" class="R"/><use href="#L" y="314.36" class="S"/><use href="#M" y="314.36" class="R"/><use href="#L" y="219.08" class="S"/><use href="#M" y="219.08" class="R"/><path d="M419.69 719.74v-237.3h-63.63v197.7" class="S"/><path d="M420.62 719.74h-1.87V483.37H357v196.77h-1.88V481.5h65.5v238.24z" class="R"/><path d="M393.89 513.41h37.83v177.12h-37.83z" class="S"/><path d="M432.66 691.46h-39.7V512.47h39.7v178.99zm-37.83-1.87h35.96V514.35h-35.96v175.24z" class="R"/><path d="M380.23 451.04v29.38" class="S"/><path d="M379.3 451.05h1.87v29.37h-1.87z" class="R"/><path d="M798.85 671.61l-1.72-244.18-60.18-37.83v288.03l61.9-6.02z" class="S"/><path d="M736.01 678.66V387.9l62.06 39.01 1.73 245.55-63.78 6.2zm1.87-287.37v285.3l60.02-5.84-1.71-242.81-58.32-36.66z" class="R"/><path d="M736.09 674.19V352.63" class="S"/><path d="M735.15 352.63h1.87v321.56h-1.87z" class="R"/><path d="M739.53 426.57h16.33" class="S"/><path d="M739.53 425.63h16.34v1.87h-16.34z" class="R"/><path d="M739.53 446.35h40.41v224.4" class="S"/><path d="M780.87 670.75H779V447.28h-39.47v-1.87h41.34v225.34z" class="R"/><path d="M739.53 476.44h40.41" class="S"/><path d="M739.53 475.5h40.41v1.87h-40.41z" class="R"/><path d="M748.12 447.21v28.37" class="S"/><use href="#N" class="R"/><path d="M756.72 447.21v28.37" class="S"/><use href="#N" x="8.6" class="R"/><path d="M765.32 447.21v28.37" class="S"/><use href="#N" x="17.19" class="R"/><path d="M732.65 476.44h47.29v203.77h-47.29z" class="S"/><path d="M780.87 681.15h-49.16V475.51h49.16v205.64zm-47.28-1.88H779v-201.9h-45.41v201.9z" class="R"/><use href="#O" class="S"/><use href="#P" class="R"/><use href="#O" y="8.59" class="S"/><use href="#P" y="8.6" class="R"/><use href="#O" y="17.19" class="S"/><use href="#P" y="17.19" class="R"/><use href="#O" y="25.79" class="S"/><use href="#P" y="25.79" class="R"/><use href="#O" y="34.39" class="S"/><use href="#P" y="34.39" class="R"/><use href="#O" y="42.99" class="S"/><use href="#P" y="42.99" class="R"/><use href="#O" y="51.58" class="S"/><use href="#P" y="51.59" class="R"/><use href="#O" y="60.18" class="S"/><use href="#P" y="60.18" class="R"/><use href="#O" y="68.78" class="S"/><use href="#P" y="68.78" class="R"/><use href="#O" y="77.38" class="S"/><use href="#P" y="77.38" class="R"/><use href="#O" y="85.98" class="S"/><use href="#P" y="85.98" class="R"/><use href="#O" y="94.57" class="S"/><use href="#P" y="94.58" class="R"/><use href="#O" y="103.17" class="S"/><path d="M732.65 588.13h46.43V590h-46.43z" class="R"/><use href="#O" y="111.77" class="S"/><use href="#P" y="111.77" class="R"/><use href="#O" y="120.37" class="S"/><use href="#P" y="120.37" class="R"/><use href="#O" y="128.96" class="S"/><use href="#P" y="128.97" class="R"/><use href="#O" y="137.56" class="S"/><use href="#P" y="137.57" class="R"/><use href="#O" y="146.16" class="S"/><use href="#P" y="146.16" class="R"/><use href="#O" y="154.76" class="S"/><use href="#P" y="154.76" class="R"/><use href="#O" y="163.36" class="S"/><use href="#P" y="163.36" class="R"/><use href="#O" y="171.95" class="S"/><use href="#P" y="171.96" class="R"/><use href="#O" y="180.55" class="S"/><use href="#P" y="180.56" class="R"/><use href="#O" y="189.15" class="S"/><use href="#P" y="189.15" class="R"/><path d="M637.21 709.44l1.72-244.18 60.19-37.83v288.03l-61.91-6.02z" class="S"/><path d="M700.05 716.49l-63.78-6.2L638 464.74l62.06-39.01v290.76zm-61.9-7.9l60.03 5.84v-285.3l-58.32 36.65-1.71 242.81z" class="R"/><path d="M699.98 712.02V390.46" class="S"/><path d="M699.04 390.46h1.87v321.56h-1.87z" class="R"/><path d="M696.54 464.4H680.2" class="S"/><path d="M680.2 463.46h16.34v1.87H680.2z" class="R"/><path d="M696.54 484.18h-40.41v224.4" class="S"/><path d="M657.06 708.58h-1.87V483.24h41.35v1.87h-39.48v223.47z" class="R"/><path d="M696.54 514.27h-40.41" class="S"/><path d="M656.13 513.33h40.41v1.87h-40.41z" class="R"/><path d="M687.94 485.04v28.37" class="S"/><path d="M687 485.04h1.87v28.37H687z" class="R"/><path d="M679.34 485.04v28.37" class="S"/><use href="#N" x="-68.79" y="37.83" class="R"/><path d="M670.74 485.04v28.37" class="S"/><use href="#N" x="-77.38" y="37.83" class="R"/><path d="M656.13 514.27h47.29v203.77h-47.29z" class="S"/><path d="M704.35 718.98h-49.16V513.34h49.16v205.64zm-47.29-1.88h45.41V515.2h-45.41v201.9z" class="R"/><use href="#Q" class="S"/><use href="#P" x="-75.66" y="37.83" class="R"/><use href="#Q" y="8.59" class="S"/><use href="#P" x="-75.66" y="46.43" class="R"/><use href="#Q" y="17.19" class="S"/><use href="#P" x="-75.66" y="55.03" class="R"/><use href="#Q" y="25.79" class="S"/><use href="#P" x="-75.66" y="63.62" class="R"/><use href="#Q" y="34.39" class="S"/><use href="#P" x="-75.66" y="72.22" class="R"/><use href="#Q" y="42.99" class="S"/><use href="#P" x="-75.66" y="80.82" class="R"/><use href="#Q" y="51.58" class="S"/><use href="#P" x="-75.66" y="89.42" class="R"/><use href="#Q" y="60.18" class="S"/><use href="#P" x="-75.66" y="98.02" class="R"/><use href="#Q" y="68.78" class="S"/><use href="#P" x="-75.66" y="106.61" class="R"/><use href="#Q" y="77.38" class="S"/><use href="#P" x="-75.66" y="115.21" class="R"/><use href="#Q" y="85.98" class="S"/><use href="#P" x="-75.66" y="123.81" class="R"/><use href="#Q" y="94.57" class="S"/><use href="#P" x="-75.66" y="132.41" class="R"/><use href="#Q" y="103.17" class="S"/><use href="#P" x="-75.66" y="141" class="R"/><use href="#Q" y="111.77" class="S"/><use href="#P" x="-75.66" y="149.6" class="R"/><use href="#Q" y="120.37" class="S"/><use href="#P" x="-75.66" y="158.2" class="R"/><use href="#Q" y="128.97" class="S"/><use href="#P" x="-75.66" y="166.8" class="R"/><use href="#Q" y="137.56" class="S"/><use href="#P" x="-75.66" y="175.4" class="R"/><use href="#Q" y="146.16" class="S"/><use href="#P" x="-75.66" y="183.99" class="R"/><use href="#Q" y="154.76" class="S"/><use href="#P" x="-75.66" y="192.59" class="R"/><use href="#Q" y="163.36" class="S"/><use href="#P" x="-75.66" y="201.19" class="R"/><use href="#Q" y="171.95" class="S"/><use href="#P" x="-75.66" y="209.79" class="R"/><use href="#Q" y="180.55" class="S"/><use href="#P" x="-75.66" y="218.39" class="R"/><use href="#Q" y="189.15" class="S"/><use href="#P" x="-75.66" y="226.98" class="R"/><path d="M447.92 409.45h56.44v286.24h-56.44z" class="S"/><path d="M505.3 696.62h-58.32V408.51h58.32v288.11zm-56.44-1.87h54.57V410.39h-54.57v284.36z" class="R"/><path d="M460.69 428.26h56.44v264.07h-56.44z" class="S"/><path d="M518.07 693.27h-58.32V427.33h58.32v265.94zm-56.44-1.87h54.57V429.2h-54.57v262.2z" class="R"/><path d="M460.69 452.45h67.19v264.07h-67.19z" class="S"/><path d="M528.82 717.46h-69.07V451.52h69.07v265.94zm-67.19-1.87h65.32v-262.2h-65.32v262.2z" class="R"/><use href="#R" class="S"/><use href="#S" class="R"/><use href="#R" y="13.44" class="S"/><use href="#S" y="13.44" class="R"/><use href="#R" y="26.88" class="S"/><use href="#S" y="26.88" class="R"/><use href="#R" y="40.31" class="S"/><use href="#S" y="40.32" class="R"/><use href="#R" y="53.75" class="S"/><use href="#S" y="53.76" class="R"/><use href="#R" y="67.19" class="S"/><use href="#S" y="67.2" class="R"/><use href="#R" y="80.63" class="S"/><use href="#S" y="80.63" class="R"/><use href="#R" y="94.07" class="S"/><use href="#S" y="94.07" class="R"/><use href="#R" y="107.51" class="S"/><use href="#S" y="107.51" class="R"/><use href="#R" y="120.95" class="S"/><use href="#S" y="120.95" class="R"/><use href="#R" y="134.39" class="S"/><use href="#S" y="134.39" class="R"/><use href="#R" y="147.82" class="S"/><use href="#S" y="147.83" class="R"/><use href="#R" y="161.26" class="S"/><use href="#S" y="161.27" class="R"/><use href="#R" y="174.7" class="S"/><use href="#S" y="174.7" class="R"/><use href="#R" y="188.14" class="S"/><use href="#S" y="188.14" class="R"/><use href="#R" y="201.58" class="S"/><use href="#S" y="201.58" class="R"/><use href="#R" y="215.02" class="S"/><use href="#S" y="215.02" class="R"/><use href="#R" y="228.46" class="S"/><use href="#S" y="228.46" class="R"/><use href="#R" y="241.9" class="S"/><use href="#S" y="241.9" class="R"/><path d="M294.66 301.95v-64.59h13.71v64.59" class="S"/><path d="M309.3 301.95h-1.87V238.3H295.6v63.65h-1.87v-65.52h15.57v65.52z" class="R"/><path d="M285.53 399.16v-96.55h26.1v41.75" class="S"/><path d="M286.47 399.16h-1.88v-97.49h27.97v42.69h-1.87v-40.82h-24.22v95.62z" class="R"/><path d="M279.66 399.16h22.83v94.6h-22.83z" class="S"/><path d="M303.43 494.7h-24.71v-96.47h24.71v96.47zm-22.83-1.88h20.96v-92.73H280.6v92.73z" class="R"/><path d="M302.49 435.7v-90.04h17.62v88.73" class="S"/><path d="M303.43 435.7h-1.87v-90.97h19.49v89.66h-1.88V346.6h-15.74v89.1z" class="R"/><path d="M302.49 521.16V435.7h22.84v84.16" class="S"/><path d="M303.43 521.16h-1.87v-86.4h24.7v85.1h-1.87v-83.23h-20.96v84.53z" class="R"/><path d="M301.84 683.61V521.16h33.93v129.83" class="S"/><path d="M302.78 683.61h-1.88V520.22h35.8v130.77h-1.87V522.1h-32.05v161.51z" class="R"/><path d="M273.79 571.89v-78.13h27.4" class="S"/><path d="M274.72 571.89h-1.87v-79.07h28.34v1.88h-26.47v77.19z" class="R"/><path d="M267.26 573.35h15.01v50.4h-15.01z" class="S"/><path d="M283.21 624.69h-16.88v-52.27h16.88v52.27zm-15.01-1.87h13.13V574.3H268.2v48.52z" class="R"/><path d="M314.24 589.66h15.01v61.82h-15.01z" class="S"/><path d="M330.18 652.42H313.3v-63.69h16.88v63.69zm-15.01-1.88h13.13V590.6h-13.13v59.94z" class="R"/><path d="M314.24 681.65v-30.01h26.09v28.38" class="S"/><path d="M315.17 681.65h-1.87v-30.94h27.97v29.31h-1.87v-27.44h-24.23v29.07z" class="R"/><path d="M260.09 623.59h31.32v61.33h-31.32z" class="S"/><path d="M292.34 685.85h-33.19v-63.2h33.19v63.2zm-31.32-1.87h29.44v-59.45h-29.44v59.45z" class="R"/><path d="M247.69 684.92h65.89v33.93h-65.89z" class="S"/><path d="M314.52 719.78h-67.77v-35.8h67.77v35.8zm-65.89-1.88h64.02v-32.05h-64.02v32.05z" class="R"/><path d="M313.58 681.65h32.62v37.19h-32.62z" class="S"/><path d="M347.14 719.78h-34.49v-39.06h34.49v39.06zm-32.62-1.88h30.75v-35.31h-30.75v35.31z" class="R"/><path d="M277.05 694.05h36.53v24.79h-36.53z" class="S"/><path d="M314.52 719.78h-38.41v-26.67h38.41v26.67zm-36.53-1.88h34.66v-22.92h-34.66v22.92z" class="R"/><path d="M301.84 187.78v46.97" class="S"/><path d="M300.9 187.78h1.87v46.97h-1.87z" class="R"/><path d="M295.37 685.27v8.36" class="S"/><path d="M294.43 685.27h1.87v8.36h-1.87z" class="R"/><path d="M1245.87,548.18c0,5-4.06,9.06-9.06,9.06h-43.65c-5,0-9.06-4.06-9.06-9.06h61.77Z" class="S"/><use href="#T" class="R"/><path d="M1132,715.44h79.07s28.17-60.89,7.27-129.97c-14.87-49.15-67.26-125.42-67.26-125.42h-17.27l-1.82,255.39Z" class="S"/><path d="M1211.67 716.38h-80.61v-.94l1.83-256.32h18.69l.28.41c.53.76 52.63 76.96 67.38 125.68 20.77 68.62-7.03 130.02-7.32 130.63l-.25.54zm-78.72-1.87h77.52c2.69-6.21 26.5-64.27 6.98-128.76-14.1-46.61-62.72-118.67-66.85-124.76h-15.84l-1.81 253.51z" class="R"/><path d="M1149.27,715.44h79.07s28.17-60.89,7.27-129.97c-20.9-69.07-84.52-125.42-84.52-125.42l-1.82,255.39Z" class="S"/><path d="M1228.94 716.38h-80.61v-.94l1.84-257.45 1.54 1.37c.64.57 64.06 57.32 84.8 125.85 20.77 68.62-7.03 130.02-7.32 130.63l-.25.54zm-78.72-1.87h77.52c2.69-6.21 26.5-64.27 6.98-128.76-18.77-62.04-72.86-114.42-82.7-123.58l-1.8 252.34z" class="R"/><path d="M1151.09 460.06v-72.71l-7.27-6.36v79.07h7.27z" class="S"/><path d="M1152.03 460.99h-9.14v-82.07l9.14 8v74.07zm-7.27-1.87h5.4v-71.35l-5.4-4.72v76.07z" class="R"/><path d="M1165.92,558.21l-4.83-73.62s31.75,28.75,52.45,73.62h-47.62Z" class="S"/><path d="M1215 559.15h-49.96l-5.04-76.8 1.71 1.55c.32.29 32.13 29.4 52.67 73.92l.61 1.33zm-48.21-1.87h45.27c-17.62-37.51-43.09-63.73-49.89-70.35l4.61 70.35z" class="R"/><path d="M1169.49 612.74l-3.1-47.26h50.32c3.47 8.32 6.53 17.12 8.91 26.36a194.37 194.37 0 0 1 4.16 20.9h-60.29z" class="S"/><path d="M1230.86 613.68h-62.25l-3.22-49.13h51.94l.24.58c3.7 8.86 6.71 17.77 8.95 26.48 1.74 6.76 3.15 13.83 4.18 21l.16 1.07zm-60.49-1.87h58.33c-1.01-6.74-2.35-13.37-3.99-19.73-2.17-8.44-5.07-17.06-8.62-25.65h-48.69l2.98 45.39z" class="R"/><path d="M1230.78,662.73c-2.73,26.62-9.71,43.62-9.71,43.62h-45.44l-2.86-43.62h58.01Z" class="S"/><path d="M1221.7 707.29h-46.95l-2.98-45.5h60.05l-.11 1.03c-2.72 26.45-9.7 43.71-9.77 43.88l-.24.58zm-45.19-1.87h43.93c1.2-3.15 6.83-18.85 9.31-41.75h-55.97l2.74 41.75z" class="R"/><path d="M1172.29,655.46l-2.32-35.45h60.74c1.38,12.83,1.4,24.77.68,35.45h-59.1Z" class="S"/><path d="M1232.27 656.4h-60.85l-2.45-37.32h62.58l.09.84c1.26 11.71 1.49 23.69.69 35.61l-.06.87zm-59.1-1.88h57.35a203.11 203.11 0 0 0-.65-33.57h-58.9l2.2 33.57z" class="R"/><path d="M1230.78 662.73l-55.15 43.63" class="S"/><path d="M1175.044 705.532l55.155-43.621 1.16 1.467-55.155 43.621z" class="R"/><path d="M1230.71 620.01l-58.42 35.45" class="S"/><path d="M1171.818 654.703l58.416-35.448.97 1.599-58.416 35.448z" class="R"/><path d="M1216.71 565.48l-47.22 47.26" class="S"/><path d="M1168.828 612.074l47.242-47.242 1.322 1.322-47.242 47.242z" class="R"/><path d="M1217.89 571.39h-49.99" class="S"/><path d="M1167.9 570.45h49.99v1.87h-49.99z" class="R"/><path d="M1220.16 578.21h-52.26" class="S"/><path d="M1167.9 577.27h52.26v1.87h-52.26z" class="R"/><path d="M1223.34 585.02h-55.44" class="S"/><path d="M1167.9 584.09h55.44v1.87h-55.44z" class="R"/><path d="M1225.62 591.84h-55.9" class="S"/><path d="M1169.72 590.9h55.89v1.87h-55.89z" class="R"/><path d="M1226.53 598.66h-56.81" class="S"/><path d="M1169.72 597.72h56.8v1.87h-56.8z" class="R"/><path d="M1228.34 605.47h-58.62" class="S"/><path d="M1169.72 604.54h58.62v1.87h-58.62z" class="R"/><use href="#U" class="S"/><use href="#V" class="R"/><use href="#U" y="5.9" class="S"/><use href="#V" y="5.91" class="R"/><use href="#U" y="11.81" class="S"/><use href="#V" y="11.81" class="R"/><use href="#U" y="17.72" class="S"/><use href="#V" y="17.72" class="R"/><path d="M1229.71 649.1h-56.35" class="S"/><path d="M1173.36 648.16h56.35v1.87h-56.35z" class="R"/><path d="M1229.71 668.18h-56.35" class="S"/><path d="M1173.36 667.25h56.35v1.87h-56.35z" class="R"/><path d="M1227.66 674.45h-52.71" class="S"/><path d="M1174.95 673.52h52.71v1.87h-52.71z" class="R"/><path d="M1226.75 680.73h-52.03" class="S"/><path d="M1174.72 679.79h52.03v1.87h-52.03z" class="R"/><path d="M1226.07 687h-51.12" class="S"/><path d="M1174.95 686.06h51.12v1.87h-51.12z" class="R"/><path d="M1224.93 693.27h-49.75" class="S"/><path d="M1175.18 692.33h49.76v1.87h-49.76z" class="R"/><path d="M1222.66 699.54h-46.8" class="S"/><path d="M1175.86 698.6h46.81v1.87h-46.81z" class="R"/><path d="M1181.88,549.39c0,5-4.06,9.06-9.06,9.06h-43.65c-5,0-9.06-4.06-9.06-9.06h61.77Z" class="S"/><use href="#T" x="-63.99" y="1.21" class="R"/><path d="M885.89 430.5h63.62v279.81h-63.62z" class="S"/><path d="M950.46 711.25h-65.5V429.56h65.5v281.69zm-63.63-1.88h61.75V431.43h-61.75v277.94z" class="R"/><path d="M893.42 446.23h19.16v262.71h-19.16z" class="S"/><path d="M913.51 709.88h-21.03V445.3h21.03v264.58zM894.36 708h17.28V447.17h-17.28V708z" class="R"/><use href="#W" class="S"/><use href="#X" class="R"/><use href="#W" y="8.21" class="S"/><use href="#X" y="8.21" class="R"/><use href="#W" y="16.42" class="S"/><use href="#X" y="16.42" class="R"/><use href="#W" y="24.63" class="S"/><use href="#X" y="24.63" class="R"/><use href="#W" y="32.84" class="S"/><use href="#X" y="32.84" class="R"/><use href="#W" y="41.04" class="S"/><use href="#X" y="41.05" class="R"/><use href="#W" y="49.25" class="S"/><use href="#X" y="49.26" class="R"/><use href="#W" y="57.46" class="S"/><use href="#X" y="57.47" class="R"/><use href="#W" y="65.67" class="S"/><use href="#X" y="65.68" class="R"/><use href="#W" y="73.88" class="S"/><use href="#X" y="73.89" class="R"/><use href="#W" y="82.09" class="S"/><use href="#X" y="82.1" class="R"/><use href="#W" y="90.3" class="S"/><use href="#X" y="90.31" class="R"/><use href="#W" y="98.51" class="S"/><use href="#X" y="98.51" class="R"/><use href="#W" y="106.72" class="S"/><use href="#X" y="106.73" class="R"/><use href="#W" y="114.93" class="S"/><use href="#X" y="114.93" class="R"/><use href="#W" y="123.14" class="S"/><use href="#X" y="123.14" class="R"/><use href="#W" y="131.35" class="S"/><use href="#X" y="131.35" class="R"/><use href="#W" y="139.56" class="S"/><use href="#X" y="139.56" class="R"/><use href="#W" y="147.77" class="S"/><use href="#X" y="147.77" class="R"/><use href="#W" y="155.98" class="S"/><use href="#X" y="155.98" class="R"/><use href="#W" y="164.19" class="S"/><use href="#X" y="164.19" class="R"/><use href="#W" y="172.4" class="S"/><use href="#X" y="172.4" class="R"/><use href="#W" y="180.61" class="S"/><use href="#X" y="180.61" class="R"/><use href="#W" y="188.82" class="S"/><use href="#X" y="188.82" class="R"/><use href="#W" y="197.03" class="S"/><use href="#X" y="197.03" class="R"/><use href="#W" y="205.24" class="S"/><use href="#X" y="205.24" class="R"/><use href="#W" y="213.45" class="S"/><use href="#X" y="213.45" class="R"/><use href="#W" y="221.66" class="S"/><use href="#X" y="221.66" class="R"/><use href="#W" y="229.87" class="S"/><use href="#X" y="229.87" class="R"/><use href="#W" y="238.08" class="S"/><use href="#X" y="238.08" class="R"/><use href="#W" y="246.28" class="S"/><use href="#X" y="246.29" class="R"/><path d="M922.15 446.23h19.16v262.71h-19.16z" class="S"/><path d="M942.25 709.88h-21.03V445.3h21.03v264.58zM923.09 708h17.28V447.17h-17.28V708z" class="R"/><use href="#W" x="28.73" class="S"/><use href="#X" x="28.73" class="R"/><use href="#W" x="28.73" y="8.21" class="S"/><use href="#X" x="28.73" y="8.21" class="R"/><use href="#W" x="28.73" y="16.42" class="S"/><use href="#X" x="28.73" y="16.42" class="R"/><use href="#W" x="28.73" y="24.63" class="S"/><use href="#X" x="28.73" y="24.63" class="R"/><use href="#W" x="28.73" y="32.84" class="S"/><use href="#X" x="28.73" y="32.84" class="R"/><use href="#W" x="28.73" y="41.04" class="S"/><use href="#X" x="28.73" y="41.05" class="R"/><use href="#W" x="28.73" y="49.25" class="S"/><use href="#X" x="28.73" y="49.26" class="R"/><use href="#W" x="28.73" y="57.46" class="S"/><use href="#X" x="28.73" y="57.47" class="R"/><use href="#W" x="28.73" y="65.67" class="S"/><use href="#X" x="28.73" y="65.68" class="R"/><use href="#W" x="28.73" y="73.88" class="S"/><use href="#X" x="28.73" y="73.89" class="R"/><use href="#W" x="28.73" y="82.09" class="S"/><use href="#X" x="28.73" y="82.1" class="R"/><use href="#W" x="28.73" y="90.3" class="S"/><use href="#X" x="28.73" y="90.31" class="R"/><use href="#W" x="28.73" y="98.51" class="S"/><use href="#X" x="28.73" y="98.51" class="R"/><use href="#W" x="28.73" y="106.72" class="S"/><use href="#X" x="28.73" y="106.73" class="R"/><use href="#W" x="28.73" y="114.93" class="S"/><use href="#X" x="28.73" y="114.93" class="R"/><use href="#W" x="28.73" y="123.14" class="S"/><use href="#X" x="28.73" y="123.14" class="R"/><use href="#W" x="28.73" y="131.35" class="S"/><use href="#X" x="28.73" y="131.35" class="R"/><use href="#W" x="28.73" y="139.56" class="S"/><use href="#X" x="28.73" y="139.56" class="R"/><use href="#W" x="28.73" y="147.77" class="S"/><use href="#X" x="28.73" y="147.77" class="R"/><use href="#W" x="28.73" y="155.98" class="S"/><use href="#X" x="28.73" y="155.98" class="R"/><use href="#W" x="28.73" y="164.19" class="S"/><use href="#X" x="28.73" y="164.19" class="R"/><use href="#W" x="28.73" y="172.4" class="S"/><use href="#X" x="28.73" y="172.4" class="R"/><use href="#W" x="28.73" y="180.61" class="S"/><use href="#X" x="28.73" y="180.61" class="R"/><use href="#W" x="28.73" y="188.82" class="S"/><use href="#X" x="28.73" y="188.82" class="R"/><use href="#W" x="28.73" y="197.03" class="S"/><use href="#X" x="28.73" y="197.03" class="R"/><use href="#W" x="28.73" y="205.24" class="S"/><use href="#X" x="28.73" y="205.24" class="R"/><use href="#W" x="28.73" y="213.45" class="S"/><use href="#X" x="28.73" y="213.45" class="R"/><use href="#W" x="28.73" y="221.66" class="S"/><use href="#X" x="28.73" y="221.66" class="R"/><use href="#W" x="28.73" y="229.87" class="S"/><use href="#X" x="28.73" y="229.87" class="R"/><use href="#W" x="28.73" y="238.08" class="S"/><use href="#X" x="28.73" y="238.08" class="R"/><use href="#W" x="28.73" y="246.28" class="S"/><use href="#X" x="28.73" y="246.29" class="R"/><path d="M1004.73 485.77h67.67v191.6h-67.67z" class="S"/><path d="M1073.34 678.31h-69.54V484.83h69.54v193.48zm-67.67-1.88h65.79V486.7h-65.79v189.73z" class="R"/><path d="M1002.05 481.75h74.37v12.06h-74.37z" class="S"/><path d="M1077.36 494.74h-76.24v-13.93h76.24v13.93zm-74.37-1.87h72.49v-10.19h-72.49v10.19z" class="R"/><use href="#Y" class="S"/><use href="#Z" class="R"/><use href="#Y" x="11.57" class="S"/><use href="#Z" x="11.57" class="R"/><use href="#Y" x="23.14" class="S"/><use href="#Z" x="23.14" class="R"/><use href="#Y" x="34.71" class="S"/><use href="#Z" x="34.71" class="R"/><use href="#Y" x="46.28" class="S"/><use href="#Z" x="46.28" class="R"/><path d="M1019.82 445.49v35.25" class="S"/><path d="M1018.88 445.49h1.87v35.25h-1.87z" class="R"/><path d="M1034.43 454.94v25.8" class="S"/><path d="M1033.5 454.94h1.87v25.79h-1.87z" class="R"/><path d="M587.6 502.43h22.73v192.39H587.6z" class="S"/><path d="M611.27 695.76h-24.61V501.5h24.61v194.26zm-22.74-1.87h20.86V503.37h-20.86v190.52z" class="R"/><path d="M618.09 523.5a5.54 5.54 0 0 1-5.54 5.54h-27.17a5.54 5.54 0 0 1-5.54-5.54h0a5.54 5.54 0 0 1 5.54-5.54h27.17a5.54 5.54 0 0 1 5.54 5.54h0z" class="S"/><path d="M612.55,529.98h-27.17c-3.57,0-6.48-2.91-6.48-6.48s2.91-6.48,6.48-6.48h27.17c3.57,0,6.48,2.91,6.48,6.48s-2.91,6.48-6.48,6.48ZM585.38,518.9c-2.54,0-4.61,2.07-4.61,4.61s2.07,4.61,4.61,4.61h27.17c2.54,0,4.61-2.07,4.61-4.61s-2.07-4.61-4.61-4.61h-27.17Z" class="R"/><path d="M582.64 505.76l16.32-28.28 16.33 28.28h-32.65z" class="S"/><path d="M616.91 506.7h-35.9l17.95-31.09 17.95 31.09zm-32.65-1.88h29.41l-14.7-25.47-14.7 25.47z" class="R"/><path d="M601.86,560.65v-22.73c0-2.14-1.74-3.88-3.88-3.88s-3.88,1.74-3.88,3.88v22.73h7.76Z" class="S"/><path d="M602.8 561.59h-9.64v-23.67c0-2.66 2.16-4.82 4.82-4.82s4.82 2.16 4.82 4.82v23.67zm-7.76-1.88h5.89v-21.79c0-1.62-1.32-2.94-2.94-2.94s-2.94 1.32-2.94 2.94v21.79z" class="R"/><use href="#a" class="S"/><path d="M602.8 618.12h-9.64v-16.84h9.64v16.84zm-7.76-1.87h5.89v-13.1h-5.89v13.1z" class="R"/><use href="#a" y="21.63" class="S"/><path d="M602.8 639.74h-9.64V622.9h9.64v16.84zm-7.76-1.87h5.89v-13.1h-5.89v13.1z" class="R"/><use href="#a" y="43.25" class="S"/><path d="M602.8 661.37h-9.64v-16.84h9.64v16.84zm-7.76-1.88h5.89v-13.1h-5.89v13.1z" class="R"/><path d="M1241.45,678.37c28.44,1.7,59.78,12.23,87.89,41.18H108.44" class="S"/><path d="M1331.56 720.48H108.44v-1.87H1327.1c-24.09-24.12-52.91-37.34-85.71-39.31l.11-1.87c33.99 2.04 63.77 15.99 88.51 41.46l1.54 1.59z" class="R"/></svg>