<?xml version="1.0" encoding="utf-8"?>
<!-- Generator: Adobe Illustrator 28.3.0, SVG Export Plug-In . SVG Version: 6.00 Build 0)  -->
<svg version="1.1" id="Layer_1" xmlns="http://www.w3.org/2000/svg" xmlns:xlink="http://www.w3.org/1999/xlink" x="0px" y="0px"
	 viewBox="0 0 16 16" style="enable-background:new 0 0 16 16;" xml:space="preserve">
<style type="text/css">
	.st0{fill:#7367F0;}
</style>
<g>
	<g>
		<g>
			<path class="st0" d="M2.23,10.23c-0.08-0.2-0.24-0.79-0.25-0.95C2,9.26,2.03,9.24,2.06,9.23c0.45-0.21,0.72-0.56,0.8-1.04
				c0.11-0.7-0.31-1.22-0.77-1.43C2.06,6.75,2.02,6.73,1.98,6.72c0-0.03,0-0.07,0-0.1C2.05,6.3,2.13,5.98,2.24,5.67
				C2.26,5.64,2.26,5.62,2.27,5.6c0.28,0.18,0.58,0.25,0.9,0.14C3.43,5.65,3.62,5.5,3.76,5.25C3.9,4.98,3.92,4.7,3.81,4.4
				C3.71,4.12,3.5,3.94,3.24,3.82c0.11-0.2,0.65-0.79,0.81-0.9c0.01,0.03,0.04,0.06,0.06,0.1c0.14,0.24,0.36,0.38,0.65,0.39
				c0.43,0.03,0.79-0.29,0.83-0.7c0.03-0.25-0.04-0.48-0.22-0.66C5.34,2.03,5.33,2.02,5.3,1.99c0,0,0,0,0-0.01
				c0.2-0.17,1.05-0.55,1.6-0.7C7.88,1,8.86,0.93,9.87,1.08c1.07,0.15,2.03,0.55,2.93,1.15c2.65,1.82,3.69,5.12,2.65,8.08
				c-1.08,3.06-3.9,4.61-6.34,4.66c0-0.03-0.01-0.06-0.01-0.08c0-0.69,0-1.37,0-2.06c0-0.03,0-0.04,0-0.08
				c0.07-0.01,0.13-0.03,0.2-0.03c1-0.1,1.89-0.45,2.69-1.02c0.07-0.04,0.13-0.1,0.2-0.15c0.06-0.04,0.08-0.11,0.13-0.17
				c0.03-0.04,0.04-0.08,0.04-0.14c0-0.14-0.13-0.21-0.25-0.14c-0.04,0.03-0.08,0.07-0.13,0.1c-0.39,0.35-0.84,0.63-1.33,0.84
				c-0.36,0.15-0.74,0.25-1.14,0.29c-0.21,0.03-0.42,0.04-0.63,0.04c-0.8-0.01-1.53-0.21-2.22-0.63C5.5,11.01,4.72,10,4.33,8.7
				C4.28,8.49,4.22,8.28,4.18,8.07C4.16,8.01,4.15,7.94,4.12,7.9c-0.06-0.11-0.2-0.11-0.27,0C3.83,7.95,3.81,8.01,3.83,8.08
				c0.01,0.13,0.03,0.25,0.04,0.36C4,9.19,4.3,9.85,4.75,10.45c0.66,0.88,1.5,1.56,2.52,1.98c0.43,0.18,0.87,0.29,1.33,0.34
				c0.01,0,0.03,0.01,0.04,0.01c0.03,0.04,0.01,0.08,0.01,0.13c0,0.27,0,0.53,0,0.79c0,0.39,0,0.79,0,1.18
				c0,0.04,0.01,0.08-0.01,0.13c-0.21,0.03-1.01-0.07-1.46-0.17c-0.48-0.11-0.95-0.28-1.39-0.49c-0.45-0.21-0.86-0.46-1.25-0.76
				c-0.39-0.29-0.74-0.63-1.07-1.01c-0.06,0.01-0.06,0.06-0.07,0.08c-0.08,0.18-0.2,0.36-0.35,0.51c-0.29,0.28-0.63,0.45-1.04,0.49
				c-0.84,0.1-1.73-0.48-1.87-1.44c-0.13-0.93,0.45-1.66,1.18-1.88c0.27-0.08,0.53-0.11,0.81-0.04c0.29,0.83,0.72,1.59,1.28,2.26
				c0.04-0.01,0.04-0.04,0.06-0.07c0.29-0.95-0.24-1.87-1.09-2.15C2.38,10.27,2.3,10.25,2.23,10.23z M13.39,7.56
				c0-0.11,0-0.27,0-0.41c0-0.06,0-0.13-0.01-0.18c-0.01-0.08-0.1-0.14-0.18-0.13c-0.1,0-0.15,0.06-0.15,0.15c0,0.06,0,0.11,0,0.15
				C13.08,7.57,13.07,8,12.99,8.4c-0.36,1.7-1.8,3.04-3.61,3.21C9.19,11.63,9,11.6,8.85,11.47c-0.15-0.13-0.31-0.25-0.45-0.39
				C8.33,11,8.26,10.93,8.2,10.83c-0.08-0.14-0.11-0.29-0.08-0.46c0.01-0.08,0.03-0.17,0.06-0.24c0.03-0.1,0.07-0.18,0.1-0.28
				c0.06-0.14,0.1-0.29,0.11-0.45C8.4,9.09,8.3,8.84,8.09,8.64C8.05,8.6,7.99,8.57,7.95,8.53C7.89,8.49,7.85,8.44,7.81,8.4
				c-0.08-0.1-0.08-0.2-0.03-0.31C7.8,8.05,7.82,8.02,7.85,7.98c0.03-0.03,0.06-0.06,0.08-0.1c0.13-0.14,0.21-0.31,0.25-0.51
				c0.03-0.14,0.03-0.29,0-0.45c-0.04-0.25-0.2-0.42-0.43-0.51C7.57,6.37,7.4,6.37,7.22,6.41c-0.25,0.06-0.36,0.2-0.38,0.46
				c0,0.08,0,0.15,0,0.24c0.01,0.2-0.04,0.38-0.15,0.55c-0.06,0.07-0.1,0.15-0.15,0.22C6.46,7.97,6.39,8.05,6.31,8.14
				C6.27,8.18,6.23,8.22,6.18,8.25c-0.06,0.04-0.11,0.03-0.17,0C5.94,8.21,5.9,8.15,5.89,8.08C5.87,8.04,5.87,8.01,5.87,7.97
				c0-0.15,0.03-0.29,0.08-0.43c0.03-0.08,0.06-0.17,0.07-0.25c0-0.1-0.03-0.17-0.11-0.21C5.85,7.04,5.78,7.01,5.71,7
				C5.57,6.97,5.43,6.94,5.29,6.93c-0.08-0.01-0.17-0.01-0.27,0c-0.18,0.01-0.34,0.1-0.36,0.35c-0.01,0.04-0.01,0.1-0.01,0.14
				c0,0.36,0.03,0.72,0.1,1.08c0.29,1.47,1.36,2.69,2.71,3.21c0.18,0.07,0.35,0.13,0.55,0.17c0.13,0.03,0.2-0.03,0.22-0.15
				c0.01-0.07,0-0.13-0.06-0.15c-0.03-0.03-0.07-0.04-0.11-0.06c-0.1-0.03-0.2-0.06-0.28-0.08c-0.63-0.21-1.18-0.56-1.63-1.04
				C5.43,9.64,5.05,8.74,5.03,7.69c0-0.07,0-0.13,0.01-0.2C5.06,7.41,5.12,7.35,5.2,7.32C5.3,7.29,5.4,7.31,5.5,7.34
				c0.07,0.01,0.1,0.06,0.1,0.14c0,0.03-0.01,0.07-0.01,0.1c-0.01,0.04-0.03,0.1-0.03,0.14c-0.03,0.21-0.03,0.41,0.06,0.6
				c0.04,0.1,0.1,0.2,0.18,0.27c0.08,0.07,0.17,0.1,0.27,0.1c0.08,0,0.15-0.03,0.24-0.06c0.13-0.06,0.24-0.14,0.34-0.24
				C6.84,8.19,7,7.97,7.11,7.7c0.08-0.2,0.14-0.41,0.13-0.63c0-0.04,0-0.07,0-0.11c0-0.11,0.06-0.17,0.17-0.18c0.06,0,0.1,0,0.15,0
				C7.73,6.8,7.84,6.9,7.85,7.07c0.01,0.15-0.01,0.31-0.08,0.45c-0.04,0.07-0.1,0.14-0.14,0.21C7.56,7.81,7.5,7.9,7.46,8
				c-0.08,0.2-0.07,0.38,0.06,0.56c0.06,0.08,0.13,0.15,0.21,0.21c0.06,0.04,0.11,0.1,0.15,0.15c0.13,0.14,0.2,0.31,0.18,0.51
				c0,0.08-0.01,0.17-0.04,0.24c-0.04,0.14-0.08,0.28-0.14,0.42c-0.06,0.18-0.07,0.38-0.03,0.56c0.07,0.35,0.25,0.65,0.49,0.9
				c0.15,0.15,0.34,0.28,0.53,0.36c0.13,0.06,0.27,0.08,0.41,0.07c0.28-0.01,0.56-0.06,0.83-0.11c1.4-0.34,2.48-1.3,3-2.54
				C13.28,8.78,13.39,8.19,13.39,7.56z M9.86,6.65C9.83,6.63,9.82,6.62,9.8,6.61C9.76,6.55,9.7,6.49,9.68,6.42
				C9.61,6.3,9.54,6.16,9.48,6.03C9.45,5.98,9.44,5.92,9.41,5.86C9.4,5.82,9.4,5.78,9.4,5.72c-0.01-0.11,0.04-0.2,0.13-0.27
				c0.06-0.04,0.13-0.07,0.18-0.1C9.79,5.33,9.87,5.3,9.96,5.27c0.18-0.06,0.31-0.17,0.36-0.35c0.01-0.03,0.01-0.07,0.03-0.1
				c0.06-0.2,0.06-0.39,0.01-0.6c-0.04-0.21-0.11-0.42-0.15-0.63c-0.01-0.04-0.03-0.08-0.06-0.13c-0.04-0.08-0.11-0.14-0.2-0.18
				C9.91,3.27,9.87,3.25,9.83,3.24C9.65,3.2,9.47,3.17,9.28,3.17c-0.32-0.01-0.65,0-0.95,0.06c-0.46,0.08-0.9,0.22-1.32,0.43
				c-0.73,0.38-1.32,0.9-1.77,1.59C5.03,5.58,4.88,5.93,4.77,6.31C4.75,6.33,4.75,6.35,4.75,6.37C4.74,6.44,4.77,6.49,4.84,6.54
				c0.07,0.04,0.14,0.06,0.21,0.01c0.01-0.01,0.04-0.03,0.04-0.06C5.1,6.47,5.12,6.42,5.13,6.4C5.24,6.05,5.4,5.72,5.59,5.41
				c0.55-0.86,1.32-1.43,2.31-1.7c0.36-0.1,0.76-0.14,1.14-0.15c0.13,0,0.25,0,0.38,0.03c0.35,0.06,0.56,0.28,0.6,0.63
				c0.01,0.13,0.01,0.25,0,0.36C10.01,4.77,9.91,4.9,9.73,4.97c-0.06,0.01-0.1,0.03-0.15,0.04C9.35,5.08,9.17,5.2,9.05,5.4
				C8.93,5.58,8.92,5.77,9,5.96c0.14,0.31,0.31,0.6,0.51,0.87c0.03,0.04,0.08,0.1,0.13,0.14c0.13,0.1,0.25,0.1,0.39,0.01
				c0.07-0.04,0.13-0.1,0.17-0.15c0.07-0.1,0.14-0.2,0.2-0.29c0.06-0.1,0.11-0.21,0.15-0.31c0.03-0.04,0.06-0.1,0.08-0.14
				c0.06-0.07,0.14-0.07,0.2,0c0.03,0.03,0.06,0.07,0.08,0.11c0.07,0.11,0.13,0.22,0.17,0.34c0.11,0.25,0.31,0.38,0.58,0.39
				c0.2,0,0.39-0.01,0.58-0.04c0.22-0.04,0.46-0.1,0.69-0.15c0.07-0.01,0.13-0.04,0.18-0.07c0.11-0.06,0.14-0.14,0.13-0.25
				c-0.01-0.08-0.04-0.17-0.07-0.25c-0.1-0.22-0.2-0.45-0.31-0.67c-0.14-0.27-0.31-0.52-0.51-0.74c-0.45-0.52-1-0.91-1.61-1.19
				c-0.03-0.01-0.07-0.03-0.1-0.04c-0.08-0.03-0.15,0.01-0.2,0.08c-0.04,0.08-0.04,0.17,0.03,0.22c0.03,0.03,0.07,0.04,0.11,0.06
				c0.08,0.04,0.17,0.07,0.25,0.11c0.88,0.46,1.51,1.15,1.91,2.06c0.01,0.04,0.04,0.1,0.06,0.14c0.03,0.14-0.01,0.2-0.14,0.24
				c-0.01,0-0.04,0.01-0.06,0.01c-0.15,0.03-0.29,0.07-0.45,0.1c-0.15,0.03-0.31,0.04-0.46,0.01c-0.13-0.03-0.22-0.08-0.27-0.21
				c-0.03-0.07-0.06-0.14-0.08-0.21c-0.06-0.14-0.15-0.27-0.27-0.36c-0.04-0.04-0.1-0.07-0.14-0.1C10.78,5.6,10.63,5.6,10.5,5.7
				c-0.06,0.04-0.11,0.1-0.15,0.14c-0.06,0.07-0.08,0.14-0.13,0.21c-0.04,0.08-0.08,0.18-0.13,0.27C10.04,6.47,9.97,6.56,9.86,6.65z
				 M11.44,7.57c-0.13,0-0.27,0.03-0.41,0.07c-0.21,0.07-0.42,0.18-0.6,0.31c-0.15,0.11-0.32,0.18-0.53,0.18
				c-0.13,0-0.24,0.07-0.29,0.18C9.54,8.44,9.56,8.57,9.68,8.65c0.25,0.18,0.49,0.36,0.77,0.51c0.11,0.06,0.22,0.11,0.35,0.15
				c0.03,0.01,0.07,0.03,0.1,0.01c0.13-0.03,0.24-0.04,0.36-0.08c0.13-0.03,0.21-0.11,0.28-0.22c0.08-0.13,0.17-0.25,0.27-0.38
				c0.08-0.11,0.18-0.22,0.27-0.34c0.03-0.03,0.06-0.07,0.07-0.11c0.08-0.15,0.06-0.31-0.07-0.45c-0.06-0.06-0.14-0.11-0.22-0.13
				C11.72,7.59,11.6,7.57,11.44,7.57z M9.07,11.11c0.03,0,0.06,0,0.07,0c0.2-0.01,0.38-0.17,0.42-0.36
				c0.06-0.24-0.08-0.55-0.29-0.67c-0.1-0.06-0.18-0.06-0.28-0.01c-0.22,0.11-0.38,0.28-0.45,0.53c-0.04,0.18,0.06,0.38,0.22,0.46
				C8.86,11.1,8.96,11.11,9.07,11.11z"/>
		</g>
	</g>
	<g>
		<g>
			<path class="st0" d="M1.95,9.26C1.43,9.44,0.78,9.27,0.42,8.78C0.07,8.29,0.08,7.6,0.47,7.13c0.41-0.48,1.05-0.58,1.46-0.41
				C1.92,6.89,1.88,7.04,1.86,7.21C1.85,7.38,1.83,7.56,1.82,7.73c-0.01,0.17-0.01,0.34,0,0.51c0,0.17,0.01,0.35,0.04,0.52
				C1.89,8.92,1.92,9.09,1.95,9.26z"/>
		</g>
	</g>
	<g>
		<g>
			<path class="st0" d="M2.28,5.54C1.99,5.37,1.75,4.83,2,4.32c0.25-0.49,0.83-0.65,1.21-0.48C3.2,3.86,3.2,3.87,3.18,3.9
				C2.82,4.39,2.54,4.92,2.31,5.5C2.3,5.5,2.3,5.51,2.28,5.54z"/>
		</g>
	</g>
	<g>
		<g>
			<path class="st0" d="M4.08,2.88C3.95,2.61,4.05,2.2,4.33,1.99c0.28-0.21,0.69-0.2,0.93,0c-0.1,0.07-0.21,0.13-0.31,0.2
				c-0.1,0.07-0.2,0.14-0.29,0.21c-0.1,0.07-0.2,0.15-0.29,0.22C4.26,2.71,4.18,2.79,4.08,2.88z"/>
		</g>
	</g>
	<g>
		<g>
			<path class="st0" d="M10.21,8.56c0.06-0.01,0.08-0.03,0.13-0.04c0.11-0.03,0.2-0.1,0.27-0.18c0.01-0.01,0.01-0.01,0.03-0.03
				c0.13-0.17,0.29-0.27,0.49-0.31c0.15-0.03,0.31-0.04,0.46-0.06c0.03,0,0.06,0,0.08,0c0.07,0.01,0.11,0.1,0.07,0.17
				c-0.01,0.03-0.03,0.04-0.04,0.06c-0.15,0.14-0.27,0.31-0.36,0.49c-0.03,0.06-0.07,0.11-0.11,0.17c-0.06,0.07-0.13,0.11-0.21,0.13
				c-0.07,0.01-0.13,0-0.2-0.03c-0.04-0.01-0.08-0.03-0.13-0.06c-0.15-0.08-0.29-0.18-0.43-0.28C10.24,8.58,10.24,8.58,10.21,8.56z"
				/>
		</g>
	</g>
	<g>
		<g>
			<path class="st0" d="M9.02,10.76c-0.01,0-0.06-0.01-0.08-0.03c-0.04-0.01-0.06-0.06-0.04-0.1c0.03-0.08,0.07-0.15,0.14-0.2
				c0.06-0.04,0.13-0.03,0.15,0.03c0.01,0.03,0.03,0.04,0.04,0.07c0.04,0.11-0.01,0.21-0.14,0.22C9.07,10.76,9.06,10.76,9.02,10.76z
				"/>
		</g>
	</g>
</g>
</svg>
