<?xml version="1.0" encoding="utf-8"?>
<!-- Generator: Adobe Illustrator 28.3.0, SVG Export Plug-In . SVG Version: 6.00 Build 0)  -->
<svg version="1.1" id="Layer_1" xmlns="http://www.w3.org/2000/svg" xmlns:xlink="http://www.w3.org/1999/xlink" x="0px" y="0px"
	 viewBox="0 0 48 48" style="enable-background:new 0 0 48 48;" xml:space="preserve">
<style type="text/css">
	.st0{fill:#7367F0;}
</style>
<g>
	<g>
		<g>
			<path class="st0" d="M7.09,30.52c-0.25-0.58-0.7-2.3-0.74-2.79c0.08-0.04,0.16-0.08,0.25-0.12c1.31-0.62,2.1-1.64,2.34-3.04
				c0.33-2.05-0.9-3.57-2.26-4.19c-0.08-0.04-0.21-0.08-0.33-0.12c0-0.08,0-0.21,0-0.29c0.21-0.95,0.45-1.89,0.78-2.79
				c0.04-0.08,0.04-0.12,0.08-0.21c0.82,0.53,1.68,0.74,2.63,0.41c0.78-0.25,1.31-0.7,1.73-1.44c0.41-0.78,0.49-1.6,0.16-2.47
				c-0.29-0.82-0.9-1.36-1.68-1.73c0.33-0.58,1.89-2.3,2.38-2.63c0.04,0.08,0.12,0.16,0.16,0.29c0.41,0.7,1.07,1.11,1.89,1.15
				c1.27,0.08,2.3-0.86,2.42-2.05c0.08-0.74-0.12-1.4-0.66-1.93c-0.04-0.04-0.08-0.08-0.16-0.16c0,0,0,0,0-0.04
				c0.58-0.49,3.08-1.6,4.68-2.05c2.88-0.82,5.75-1.03,8.71-0.58c3.12,0.45,5.96,1.6,8.59,3.37c7.77,5.34,10.81,15,7.77,23.67
				c-3.16,8.96-11.42,13.52-18.57,13.64c0-0.08-0.04-0.16-0.04-0.25c0-2.01,0-4.03,0-6.04c0-0.08,0-0.12,0-0.25
				c0.21-0.04,0.37-0.08,0.58-0.08c2.92-0.29,5.55-1.31,7.89-3c0.21-0.12,0.37-0.29,0.58-0.45c0.16-0.12,0.25-0.33,0.37-0.49
				c0.08-0.12,0.12-0.25,0.12-0.41c0-0.41-0.37-0.62-0.74-0.41c-0.12,0.08-0.25,0.21-0.37,0.29c-1.15,1.03-2.47,1.85-3.9,2.47
				c-1.07,0.45-2.18,0.74-3.33,0.86c-0.62,0.08-1.23,0.12-1.85,0.12c-2.34-0.04-4.48-0.62-6.49-1.85c-3.41-2.1-5.67-5.05-6.82-8.87
				c-0.16-0.62-0.33-1.23-0.45-1.85c-0.04-0.16-0.08-0.37-0.16-0.49c-0.16-0.33-0.58-0.33-0.78,0c-0.08,0.16-0.12,0.33-0.08,0.53
				c0.04,0.37,0.08,0.74,0.12,1.07c0.37,2.18,1.27,4.11,2.59,5.88c1.93,2.59,4.4,4.56,7.4,5.79c1.27,0.53,2.55,0.86,3.9,0.99
				c0.04,0,0.08,0.04,0.12,0.04c0.08,0.12,0.04,0.25,0.04,0.37c0,0.78,0,1.56,0,2.3c0,1.15,0,2.3,0,3.45c0,0.12,0.04,0.25-0.04,0.37
				c-0.62,0.08-2.96-0.21-4.27-0.49c-1.4-0.33-2.79-0.82-4.07-1.44c-1.31-0.62-2.51-1.36-3.66-2.22s-2.18-1.85-3.12-2.96
				c-0.16,0.04-0.16,0.16-0.21,0.25c-0.25,0.53-0.58,1.07-1.03,1.48c-0.86,0.82-1.85,1.31-3.04,1.44c-2.47,0.29-5.05-1.4-5.46-4.23
				c-0.37-2.71,1.31-4.85,3.45-5.51c0.78-0.25,1.56-0.33,2.38-0.12c0.86,2.42,2.1,4.64,3.74,6.62c0.12-0.04,0.12-0.12,0.16-0.21
				c0.86-2.79-0.7-5.46-3.2-6.29C7.54,30.64,7.3,30.6,7.09,30.52z M39.8,22.71c0-0.33,0-0.78,0-1.19c0-0.16,0-0.37-0.04-0.53
				c-0.04-0.25-0.29-0.41-0.53-0.37c-0.29,0-0.45,0.16-0.45,0.45c0,0.16,0,0.33,0,0.45c0.12,1.23,0.08,2.47-0.16,3.66
				c-1.07,4.97-5.26,8.92-10.56,9.41c-0.58,0.04-1.11-0.04-1.56-0.41s-0.9-0.74-1.31-1.15c-0.21-0.25-0.41-0.45-0.58-0.74
				c-0.25-0.41-0.33-0.86-0.25-1.36c0.04-0.25,0.08-0.49,0.16-0.7c0.08-0.29,0.21-0.53,0.29-0.82c0.16-0.41,0.29-0.86,0.33-1.31
				c0.04-0.9-0.25-1.64-0.86-2.22c-0.12-0.12-0.29-0.21-0.41-0.33c-0.16-0.12-0.29-0.25-0.41-0.37c-0.25-0.29-0.25-0.58-0.08-0.9
				c0.04-0.12,0.12-0.21,0.21-0.33c0.08-0.08,0.16-0.16,0.25-0.29c0.37-0.41,0.62-0.9,0.74-1.48c0.08-0.41,0.08-0.86,0-1.31
				c-0.12-0.74-0.58-1.23-1.27-1.48c-0.53-0.16-1.03-0.16-1.56-0.04c-0.74,0.16-1.07,0.58-1.11,1.36c0,0.25,0,0.45,0,0.7
				c0.04,0.58-0.12,1.11-0.45,1.6c-0.16,0.21-0.29,0.45-0.45,0.66c-0.21,0.25-0.41,0.49-0.66,0.74c-0.12,0.12-0.25,0.25-0.37,0.33
				c-0.16,0.12-0.33,0.08-0.49,0c-0.21-0.12-0.33-0.29-0.37-0.49c-0.04-0.12-0.04-0.21-0.04-0.33c0-0.45,0.08-0.86,0.25-1.27
				c0.08-0.25,0.16-0.49,0.21-0.74c0-0.29-0.08-0.49-0.33-0.62c-0.21-0.08-0.41-0.16-0.62-0.21c-0.41-0.08-0.82-0.16-1.23-0.21
				c-0.25-0.04-0.49-0.04-0.78,0c-0.53,0.04-0.99,0.29-1.07,1.03c-0.04,0.12-0.04,0.29-0.04,0.41c0,1.07,0.08,2.1,0.29,3.16
				c0.86,4.31,3.99,7.89,7.93,9.41c0.53,0.21,1.03,0.37,1.6,0.49c0.37,0.08,0.58-0.08,0.66-0.45c0.04-0.21,0-0.37-0.16-0.45
				c-0.08-0.08-0.21-0.12-0.33-0.16c-0.29-0.08-0.58-0.16-0.82-0.25c-1.85-0.62-3.45-1.64-4.77-3.04c-2.1-2.22-3.2-4.85-3.25-7.93
				c0-0.21,0-0.37,0.04-0.58c0.04-0.25,0.21-0.41,0.45-0.49c0.29-0.08,0.58-0.04,0.86,0.04c0.21,0.04,0.29,0.16,0.29,0.41
				c0,0.08-0.04,0.21-0.04,0.29c-0.04,0.12-0.08,0.29-0.08,0.41c-0.08,0.62-0.08,1.19,0.16,1.77c0.12,0.29,0.29,0.58,0.53,0.78
				c0.25,0.21,0.49,0.29,0.78,0.29c0.25,0,0.45-0.08,0.7-0.16c0.37-0.16,0.7-0.41,0.99-0.7c0.62-0.58,1.07-1.23,1.4-2.01
				c0.25-0.58,0.41-1.19,0.37-1.85c0-0.12,0-0.21,0-0.33c0-0.33,0.16-0.49,0.49-0.53c0.16,0,0.29,0,0.45,0
				c0.49,0.08,0.82,0.37,0.86,0.86c0.04,0.45-0.04,0.9-0.25,1.31c-0.12,0.21-0.29,0.41-0.41,0.62c-0.21,0.25-0.37,0.49-0.49,0.78
				c-0.25,0.58-0.21,1.11,0.16,1.64c0.16,0.25,0.37,0.45,0.62,0.62c0.16,0.12,0.33,0.29,0.45,0.45c0.37,0.41,0.58,0.9,0.53,1.48
				c0,0.25-0.04,0.49-0.12,0.7c-0.12,0.41-0.25,0.82-0.41,1.23c-0.16,0.53-0.21,1.11-0.08,1.64c0.21,1.03,0.74,1.89,1.44,2.63
				c0.45,0.45,0.99,0.82,1.56,1.07c0.37,0.16,0.78,0.25,1.19,0.21c0.82-0.04,1.64-0.16,2.42-0.33c4.11-0.99,7.27-3.82,8.79-7.44
				C39.47,26.29,39.8,24.56,39.8,22.71z M29.44,20.04c-0.08-0.04-0.12-0.08-0.16-0.12c-0.12-0.16-0.29-0.33-0.37-0.53
				c-0.21-0.37-0.41-0.78-0.58-1.15c-0.08-0.16-0.12-0.33-0.21-0.49c-0.04-0.12-0.04-0.25-0.04-0.41c-0.04-0.33,0.12-0.58,0.37-0.78
				c0.16-0.12,0.37-0.21,0.53-0.29c0.25-0.08,0.49-0.16,0.74-0.25c0.53-0.16,0.9-0.49,1.07-1.03c0.04-0.08,0.04-0.21,0.08-0.29
				c0.16-0.58,0.16-1.15,0.04-1.77c-0.12-0.62-0.33-1.23-0.45-1.85c-0.04-0.12-0.08-0.25-0.16-0.37c-0.12-0.25-0.33-0.41-0.58-0.53
				c-0.12-0.04-0.25-0.08-0.37-0.12c-0.53-0.12-1.07-0.21-1.6-0.21c-0.95-0.04-1.89,0-2.79,0.16c-1.36,0.25-2.63,0.66-3.86,1.27
				c-2.14,1.11-3.86,2.63-5.18,4.64c-0.62,0.99-1.07,2.01-1.4,3.12c-0.04,0.04-0.04,0.12-0.04,0.16c-0.04,0.21,0.04,0.37,0.25,0.49
				c0.21,0.12,0.41,0.16,0.62,0.04c0.04-0.04,0.12-0.08,0.12-0.16c0.04-0.08,0.08-0.21,0.12-0.29c0.33-1.03,0.78-1.97,1.36-2.88
				c1.6-2.51,3.86-4.19,6.78-4.97c1.07-0.29,2.22-0.41,3.33-0.45c0.37,0,0.74,0,1.11,0.08c1.03,0.16,1.64,0.82,1.77,1.85
				c0.04,0.37,0.04,0.74,0,1.07c-0.04,0.53-0.33,0.9-0.86,1.11c-0.16,0.04-0.29,0.08-0.45,0.12c-0.66,0.21-1.19,0.58-1.56,1.15
				c-0.33,0.53-0.37,1.07-0.12,1.64c0.41,0.9,0.9,1.77,1.48,2.55c0.08,0.12,0.25,0.29,0.37,0.41c0.37,0.29,0.74,0.29,1.15,0.04
				c0.21-0.12,0.37-0.29,0.49-0.45c0.21-0.29,0.41-0.58,0.58-0.86c0.16-0.29,0.33-0.62,0.45-0.9c0.08-0.12,0.16-0.29,0.25-0.41
				c0.16-0.21,0.41-0.21,0.58,0c0.08,0.08,0.16,0.21,0.25,0.33c0.21,0.33,0.37,0.66,0.49,0.99c0.33,0.74,0.9,1.11,1.68,1.15
				c0.58,0,1.15-0.04,1.68-0.12c0.66-0.12,1.36-0.29,2.01-0.45c0.21-0.04,0.37-0.12,0.53-0.21c0.33-0.16,0.41-0.41,0.37-0.74
				c-0.04-0.25-0.12-0.49-0.21-0.74c-0.29-0.66-0.58-1.31-0.9-1.97c-0.41-0.78-0.9-1.52-1.48-2.18c-1.31-1.52-2.92-2.67-4.72-3.49
				c-0.08-0.04-0.21-0.08-0.29-0.12c-0.25-0.08-0.45,0.04-0.58,0.25c-0.12,0.25-0.12,0.49,0.08,0.66c0.08,0.08,0.21,0.12,0.33,0.16
				c0.25,0.12,0.49,0.21,0.74,0.33c2.59,1.36,4.44,3.37,5.59,6.04c0.04,0.12,0.12,0.29,0.16,0.41c0.08,0.41-0.04,0.58-0.41,0.7
				c-0.04,0-0.12,0.04-0.16,0.04c-0.45,0.08-0.86,0.21-1.31,0.29c-0.45,0.08-0.9,0.12-1.36,0.04c-0.37-0.08-0.66-0.25-0.78-0.62
				c-0.08-0.21-0.16-0.41-0.25-0.62c-0.16-0.41-0.45-0.78-0.78-1.07c-0.12-0.12-0.29-0.21-0.41-0.29c-0.41-0.21-0.86-0.21-1.23,0.08
				c-0.16,0.12-0.33,0.29-0.45,0.41c-0.16,0.21-0.25,0.41-0.37,0.62c-0.12,0.25-0.25,0.53-0.37,0.78
				C29.98,19.51,29.77,19.8,29.44,20.04z M34.09,22.75c-0.37,0-0.78,0.08-1.19,0.21c-0.62,0.21-1.23,0.53-1.77,0.9
				c-0.45,0.33-0.95,0.53-1.56,0.53c-0.37,0-0.7,0.21-0.86,0.53c-0.21,0.37-0.12,0.74,0.21,0.99c0.74,0.53,1.44,1.07,2.26,1.48
				c0.33,0.16,0.66,0.33,1.03,0.45c0.08,0.04,0.21,0.08,0.29,0.04c0.37-0.08,0.7-0.12,1.07-0.25c0.37-0.08,0.62-0.33,0.82-0.66
				c0.25-0.37,0.49-0.74,0.78-1.11c0.25-0.33,0.53-0.66,0.78-0.99c0.08-0.08,0.16-0.21,0.21-0.33c0.25-0.45,0.16-0.9-0.21-1.31
				c-0.16-0.16-0.41-0.33-0.66-0.37C34.91,22.8,34.54,22.75,34.09,22.75z M27.14,33.11c0.08,0,0.16,0,0.21,0
				c0.58-0.04,1.11-0.49,1.23-1.07c0.16-0.7-0.25-1.6-0.86-1.97c-0.29-0.16-0.53-0.16-0.82-0.04c-0.66,0.33-1.11,0.82-1.31,1.56
				c-0.12,0.53,0.16,1.11,0.66,1.36C26.53,33.07,26.81,33.11,27.14,33.11z"/>
		</g>
	</g>
	<g>
		<g>
			<path class="st0" d="M6.27,27.69c-1.52,0.53-3.41,0.04-4.48-1.4c-1.03-1.44-0.99-3.45,0.16-4.85c1.19-1.4,3.08-1.68,4.27-1.19
				c-0.04,0.49-0.16,0.95-0.21,1.44c-0.04,0.49-0.08,1.03-0.12,1.52c-0.04,0.49-0.04,0.99,0,1.48c0,0.49,0.04,1.03,0.12,1.52
				C6.11,26.7,6.19,27.19,6.27,27.69z"/>
		</g>
	</g>
	<g>
		<g>
			<path class="st0" d="M7.26,16.8c-0.86-0.49-1.56-2.1-0.82-3.57c0.74-1.44,2.42-1.89,3.53-1.4c-0.04,0.04-0.04,0.08-0.08,0.16
				c-1.07,1.44-1.89,3-2.55,4.68C7.3,16.67,7.3,16.71,7.26,16.8z"/>
		</g>
	</g>
	<g>
		<g>
			<path class="st0" d="M12.52,8.99c-0.37-0.78-0.08-1.97,0.74-2.59c0.82-0.62,2.01-0.58,2.71,0c-0.29,0.21-0.62,0.37-0.9,0.58
				c-0.29,0.21-0.58,0.41-0.86,0.62c-0.29,0.21-0.58,0.45-0.86,0.66C13.05,8.5,12.8,8.74,12.52,8.99z"/>
		</g>
	</g>
	<g>
		<g>
			<path class="st0" d="M30.47,25.63c0.16-0.04,0.25-0.08,0.37-0.12c0.33-0.08,0.58-0.29,0.78-0.53c0.04-0.04,0.04-0.04,0.08-0.08
				c0.37-0.49,0.86-0.78,1.44-0.9c0.45-0.08,0.9-0.12,1.36-0.16c0.08,0,0.16,0,0.25,0c0.21,0.04,0.33,0.29,0.21,0.49
				c-0.04,0.08-0.08,0.12-0.12,0.16c-0.45,0.41-0.78,0.9-1.07,1.44c-0.08,0.16-0.21,0.33-0.33,0.49c-0.16,0.21-0.37,0.33-0.62,0.37
				c-0.21,0.04-0.37,0-0.58-0.08c-0.12-0.04-0.25-0.08-0.37-0.16C31.42,26.29,31,26,30.59,25.71
				C30.55,25.71,30.55,25.71,30.47,25.63z"/>
		</g>
	</g>
	<g>
		<g>
			<path class="st0" d="M26.98,32.08c-0.04,0-0.16-0.04-0.25-0.08c-0.12-0.04-0.16-0.16-0.12-0.29c0.08-0.25,0.21-0.45,0.41-0.58
				c0.16-0.12,0.37-0.08,0.45,0.08c0.04,0.08,0.08,0.12,0.12,0.21c0.12,0.33-0.04,0.62-0.41,0.66
				C27.14,32.08,27.1,32.08,26.98,32.08z"/>
		</g>
	</g>
</g>
</svg>
