<?xml version="1.0" encoding="utf-8"?>
<!-- Generator: Adobe Illustrator 28.3.0, SVG Export Plug-In . SVG Version: 6.00 Build 0)  -->
<svg version="1.1" id="Layer_1" xmlns="http://www.w3.org/2000/svg" xmlns:xlink="http://www.w3.org/1999/xlink" x="0px" y="0px"
	 viewBox="0 0 512 512" style="enable-background:new 0 0 512 512;" xml:space="preserve">
<style type="text/css">
	.st0{fill:#7367F0;}
</style>
<g>
	<g>
		<g>
			<path class="st0" d="M76.62,325.17c-2.62-6.1-7.41-24.41-7.85-29.64c0.87-0.44,1.74-0.87,2.62-1.31
				c13.95-6.54,22.23-17.44,24.84-32.26c3.49-21.79-9.59-37.92-23.97-44.46c-0.87-0.44-2.18-0.87-3.49-1.31c0-0.87,0-2.18,0-3.05
				c2.18-10.03,4.8-20.05,8.28-29.64c0.44-0.87,0.44-1.31,0.87-2.18c8.72,5.67,17.87,7.85,27.9,4.36
				c8.28-2.62,13.95-7.41,18.31-15.26c4.36-8.28,5.23-17,1.74-26.15c-3.05-8.72-9.59-14.38-17.87-18.31
				c3.49-6.1,20.05-24.41,25.28-27.9c0.44,0.87,1.31,1.74,1.74,3.05c4.36,7.41,11.33,11.77,20.05,12.21
				c13.51,0.87,24.41-9.16,25.72-21.79c0.87-7.85-1.31-14.82-6.98-20.49c-0.44-0.44-0.87-0.87-1.74-1.74c0,0,0,0,0-0.44
				c6.1-5.23,32.69-17,49.69-21.79c30.51-8.72,61.02-10.9,92.41-6.1c33.13,4.8,63.2,17,91.1,35.74
				c82.38,56.66,114.64,159.1,82.38,251.07c-33.56,95.02-121.18,143.41-197.02,144.72c0-0.87-0.44-1.74-0.44-2.62
				c0-21.36,0-42.72,0-64.08c0-0.87,0-1.31,0-2.62c2.18-0.44,3.92-0.87,6.1-0.87c30.95-3.05,58.84-13.95,83.69-31.82
				c2.18-1.31,3.92-3.05,6.1-4.8c1.74-1.31,2.62-3.49,3.92-5.23c0.87-1.31,1.31-2.62,1.31-4.36c0-4.36-3.92-6.54-7.85-4.36
				c-1.31,0.87-2.62,2.18-3.92,3.05c-12.21,10.9-26.15,19.61-41.41,26.15c-11.33,4.8-23.1,7.85-35.31,9.16
				c-6.54,0.87-13.08,1.31-19.61,1.31c-24.84-0.44-47.51-6.54-68.87-19.61c-36.18-22.23-60.15-53.61-72.36-94.15
				c-1.74-6.54-3.49-13.08-4.8-19.61c-0.44-1.74-0.87-3.92-1.74-5.23c-1.74-3.49-6.1-3.49-8.28,0c-0.87,1.74-1.31,3.49-0.87,5.67
				c0.44,3.92,0.87,7.85,1.31,11.33c3.92,23.1,13.51,43.59,27.46,62.33c20.49,27.46,46.64,48.38,78.46,61.46
				c13.51,5.67,27.02,9.16,41.41,10.46c0.44,0,0.87,0.44,1.31,0.44c0.87,1.31,0.44,2.62,0.44,3.92c0,8.28,0,16.56,0,24.41
				c0,12.21,0,24.41,0,36.62c0,1.31,0.44,2.62-0.44,3.92c-6.54,0.87-31.38-2.18-45.33-5.23c-14.82-3.49-29.64-8.72-43.15-15.26
				c-13.95-6.54-26.59-14.38-38.8-23.54s-23.1-19.61-33.13-31.38c-1.74,0.44-1.74,1.74-2.18,2.62c-2.62,5.67-6.1,11.33-10.9,15.69
				c-9.16,8.72-19.61,13.95-32.26,15.26c-26.15,3.05-53.61-14.82-57.97-44.9c-3.92-28.77,13.95-51.43,36.62-58.41
				c8.28-2.62,16.56-3.49,25.28-1.31c9.16,25.72,22.23,49.26,39.67,70.18c1.31-0.44,1.31-1.31,1.74-2.18
				c9.16-29.64-7.41-57.97-34-66.69C81.42,326.48,78.8,326.04,76.62,325.17z M423.6,242.35c0-3.49,0-8.28,0-12.64
				c0-1.74,0-3.92-0.44-5.67c-0.44-2.62-3.05-4.36-5.67-3.92c-3.05,0-4.8,1.74-4.8,4.8c0,1.74,0,3.49,0,4.8
				c1.31,13.08,0.87,26.15-1.74,38.8c-11.33,52.74-55.79,94.59-112.02,99.82c-6.1,0.44-11.77-0.44-16.56-4.36
				s-9.59-7.85-13.95-12.21c-2.18-2.62-4.36-4.8-6.1-7.85c-2.62-4.36-3.49-9.16-2.62-14.38c0.44-2.62,0.87-5.23,1.74-7.41
				c0.87-3.05,2.18-5.67,3.05-8.72c1.74-4.36,3.05-9.16,3.49-13.95c0.44-9.59-2.62-17.44-9.16-23.54c-1.31-1.31-3.05-2.18-4.36-3.49
				c-1.74-1.31-3.05-2.62-4.36-3.92c-2.62-3.05-2.62-6.1-0.87-9.59c0.44-1.31,1.31-2.18,2.18-3.49c0.87-0.87,1.74-1.74,2.62-3.05
				c3.92-4.36,6.54-9.59,7.85-15.69c0.87-4.36,0.87-9.16,0-13.95c-1.31-7.85-6.1-13.08-13.51-15.69c-5.67-1.74-10.9-1.74-16.56-0.44
				c-7.85,1.74-11.33,6.1-11.77,14.38c0,2.62,0,4.8,0,7.41c0.44,6.1-1.31,11.77-4.8,17c-1.74,2.18-3.05,4.8-4.8,6.98
				c-2.18,2.62-4.36,5.23-6.98,7.85c-1.31,1.31-2.62,2.62-3.92,3.49c-1.74,1.31-3.49,0.87-5.23,0c-2.18-1.31-3.49-3.05-3.92-5.23
				c-0.44-1.31-0.44-2.18-0.44-3.49c0-4.8,0.87-9.16,2.62-13.51c0.87-2.62,1.74-5.23,2.18-7.85c0-3.05-0.87-5.23-3.49-6.54
				c-2.18-0.87-4.36-1.74-6.54-2.18c-4.36-0.87-8.72-1.74-13.08-2.18c-2.62-0.44-5.23-0.44-8.28,0c-5.67,0.44-10.46,3.05-11.33,10.9
				c-0.44,1.31-0.44,3.05-0.44,4.36c0,11.33,0.87,22.23,3.05,33.56c9.16,45.77,42.28,83.69,84.13,99.82c5.67,2.18,10.9,3.92,17,5.23
				c3.92,0.87,6.1-0.87,6.98-4.8c0.44-2.18,0-3.92-1.74-4.8c-0.87-0.87-2.18-1.31-3.49-1.74c-3.05-0.87-6.1-1.74-8.72-2.62
				c-19.61-6.54-36.62-17.44-50.56-32.26c-22.23-23.54-34-51.43-34.44-84.13c0-2.18,0-3.92,0.44-6.1c0.44-2.62,2.18-4.36,4.8-5.23
				c3.05-0.87,6.1-0.44,9.16,0.44c2.18,0.44,3.05,1.74,3.05,4.36c0,0.87-0.44,2.18-0.44,3.05c-0.44,1.31-0.87,3.05-0.87,4.36
				c-0.87,6.54-0.87,12.64,1.74,18.74c1.31,3.05,3.05,6.1,5.67,8.28c2.62,2.18,5.23,3.05,8.28,3.05c2.62,0,4.8-0.87,7.41-1.74
				c3.92-1.74,7.41-4.36,10.46-7.41c6.54-6.1,11.33-13.08,14.82-21.36c2.62-6.1,4.36-12.64,3.92-19.61c0-1.31,0-2.18,0-3.49
				c0-3.49,1.74-5.23,5.23-5.67c1.74,0,3.05,0,4.8,0c5.23,0.87,8.72,3.92,9.16,9.16c0.44,4.8-0.44,9.59-2.62,13.95
				c-1.31,2.18-3.05,4.36-4.36,6.54c-2.18,2.62-3.92,5.23-5.23,8.28c-2.62,6.1-2.18,11.77,1.74,17.44c1.74,2.62,3.92,4.8,6.54,6.54
				c1.74,1.31,3.49,3.05,4.8,4.8c3.92,4.36,6.1,9.59,5.67,15.69c0,2.62-0.44,5.23-1.31,7.41c-1.31,4.36-2.62,8.72-4.36,13.08
				c-1.74,5.67-2.18,11.77-0.87,17.44c2.18,10.9,7.85,20.05,15.26,27.9c4.8,4.8,10.46,8.72,16.56,11.33
				c3.92,1.74,8.28,2.62,12.64,2.18c8.72-0.44,17.44-1.74,25.72-3.49c43.59-10.46,77.15-40.54,93.28-78.9
				C420.11,280.27,423.6,261.96,423.6,242.35z M313.75,214.02c-0.87-0.44-1.31-0.87-1.74-1.31c-1.31-1.74-3.05-3.49-3.92-5.67
				c-2.18-3.92-4.36-8.28-6.1-12.21c-0.87-1.74-1.31-3.49-2.18-5.23c-0.44-1.31-0.44-2.62-0.44-4.36c-0.44-3.49,1.31-6.1,3.92-8.28
				c1.74-1.31,3.92-2.18,5.67-3.05c2.62-0.87,5.23-1.74,7.85-2.62c5.67-1.74,9.59-5.23,11.33-10.9c0.44-0.87,0.44-2.18,0.87-3.05
				c1.74-6.1,1.74-12.21,0.44-18.74c-1.31-6.54-3.49-13.08-4.8-19.61c-0.44-1.31-0.87-2.62-1.74-3.92c-1.31-2.62-3.49-4.36-6.1-5.67
				c-1.31-0.44-2.62-0.87-3.92-1.31c-5.67-1.31-11.33-2.18-17-2.18c-10.03-0.44-20.05,0-29.64,1.74
				c-14.38,2.62-27.9,6.98-40.98,13.51c-22.66,11.77-40.98,27.9-54.92,49.26c-6.54,10.46-11.33,21.36-14.82,33.13
				c-0.44,0.44-0.44,1.31-0.44,1.74c-0.44,2.18,0.44,3.92,2.62,5.23c2.18,1.31,4.36,1.74,6.54,0.44c0.44-0.44,1.31-0.87,1.31-1.74
				c0.44-0.87,0.87-2.18,1.31-3.05c3.49-10.9,8.28-20.92,14.38-30.51c17-26.59,40.98-44.46,71.92-52.74
				c11.33-3.05,23.54-4.36,35.31-4.8c3.92,0,7.85,0,11.77,0.87c10.9,1.74,17.44,8.72,18.74,19.61c0.44,3.92,0.44,7.85,0,11.33
				c-0.44,5.67-3.49,9.59-9.16,11.77c-1.74,0.44-3.05,0.87-4.8,1.31c-6.98,2.18-12.64,6.1-16.56,12.21
				c-3.49,5.67-3.92,11.33-1.31,17.44c4.36,9.59,9.59,18.74,15.69,27.02c0.87,1.31,2.62,3.05,3.92,4.36
				c3.92,3.05,7.85,3.05,12.21,0.44c2.18-1.31,3.92-3.05,5.23-4.8c2.18-3.05,4.36-6.1,6.1-9.16c1.74-3.05,3.49-6.54,4.8-9.59
				c0.87-1.31,1.74-3.05,2.62-4.36c1.74-2.18,4.36-2.18,6.1,0c0.87,0.87,1.74,2.18,2.62,3.49c2.18,3.49,3.92,6.98,5.23,10.46
				c3.49,7.85,9.59,11.77,17.87,12.21c6.1,0,12.21-0.44,17.87-1.31c6.98-1.31,14.38-3.05,21.36-4.8c2.18-0.44,3.92-1.31,5.67-2.18
				c3.49-1.74,4.36-4.36,3.92-7.85c-0.44-2.62-1.31-5.23-2.18-7.85c-3.05-6.98-6.1-13.95-9.59-20.92
				c-4.36-8.28-9.59-16.13-15.69-23.1c-13.95-16.13-30.95-28.33-50.13-37.05c-0.87-0.44-2.18-0.87-3.05-1.31
				c-2.62-0.87-4.8,0.44-6.1,2.62c-1.31,2.62-1.31,5.23,0.87,6.98c0.87,0.87,2.18,1.31,3.49,1.74c2.62,1.31,5.23,2.18,7.85,3.49
				c27.46,14.38,47.08,35.74,59.28,64.08c0.44,1.31,1.31,3.05,1.74,4.36c0.87,4.36-0.44,6.1-4.36,7.41c-0.44,0-1.31,0.44-1.74,0.44
				c-4.8,0.87-9.16,2.18-13.95,3.05c-4.8,0.87-9.59,1.31-14.38,0.44c-3.92-0.87-6.98-2.62-8.28-6.54c-0.87-2.18-1.74-4.36-2.62-6.54
				c-1.74-4.36-4.8-8.28-8.28-11.33c-1.31-1.31-3.05-2.18-4.36-3.05c-4.36-2.18-9.16-2.18-13.08,0.87c-1.74,1.31-3.49,3.05-4.8,4.36
				c-1.74,2.18-2.62,4.36-3.92,6.54c-1.31,2.62-2.62,5.67-3.92,8.28C319.42,208.35,317.24,211.4,313.75,214.02z M363.01,242.79
				c-3.92,0-8.28,0.87-12.64,2.18c-6.54,2.18-13.08,5.67-18.74,9.59c-4.8,3.49-10.03,5.67-16.56,5.67c-3.92,0-7.41,2.18-9.16,5.67
				c-2.18,3.92-1.31,7.85,2.18,10.46c7.85,5.67,15.26,11.33,23.97,15.69c3.49,1.74,6.98,3.49,10.9,4.8
				c0.87,0.44,2.18,0.87,3.05,0.44c3.92-0.87,7.41-1.31,11.33-2.62c3.92-0.87,6.54-3.49,8.72-6.98c2.62-3.92,5.23-7.85,8.28-11.77
				c2.62-3.49,5.67-6.98,8.28-10.46c0.87-0.87,1.74-2.18,2.18-3.49c2.62-4.8,1.74-9.59-2.18-13.95c-1.74-1.74-4.36-3.49-6.98-3.92
				C371.72,243.22,367.8,242.79,363.01,242.79z M289.34,352.63c0.87,0,1.74,0,2.18,0c6.1-0.44,11.77-5.23,13.08-11.33
				c1.74-7.41-2.62-17-9.16-20.92c-3.05-1.74-5.67-1.74-8.72-0.44c-6.98,3.49-11.77,8.72-13.95,16.56
				c-1.31,5.67,1.74,11.77,6.98,14.38C282.8,352.2,285.85,352.63,289.34,352.63z"/>
		</g>
	</g>
	<g>
		<g>
			<path class="st0" d="M67.91,295.09c-16.13,5.67-36.18,0.44-47.51-14.82c-10.9-15.26-10.46-36.62,1.74-51.43
				c12.64-14.82,32.69-17.87,45.33-12.64c-0.44,5.23-1.74,10.03-2.18,15.26c-0.44,5.23-0.87,10.9-1.31,16.13
				c-0.44,5.23-0.44,10.46,0,15.69c0,5.23,0.44,10.9,1.31,16.13C66.17,284.63,67.04,289.86,67.91,295.09z"/>
		</g>
	</g>
	<g>
		<g>
			<path class="st0" d="M78.37,179.58c-9.16-5.23-16.56-22.23-8.72-37.92c7.85-15.26,25.72-20.05,37.49-14.82
				c-0.44,0.44-0.44,0.87-0.87,1.74c-11.33,15.26-20.05,31.82-27.02,49.69C78.8,178.27,78.8,178.71,78.37,179.58z"/>
		</g>
	</g>
	<g>
		<g>
			<path class="st0" d="M134.16,96.76c-3.92-8.28-0.87-20.92,7.85-27.46s21.36-6.1,28.77,0c-3.05,2.18-6.54,3.92-9.59,6.1
				c-3.05,2.18-6.1,4.36-9.16,6.54c-3.05,2.18-6.1,4.8-9.16,6.98C139.83,91.53,137.21,94.15,134.16,96.76z"/>
		</g>
	</g>
	<g>
		<g>
			<path class="st0" d="M324.65,273.3c1.74-0.44,2.62-0.87,3.92-1.31c3.49-0.87,6.1-3.05,8.28-5.67c0.44-0.44,0.44-0.44,0.87-0.87
				c3.92-5.23,9.16-8.28,15.26-9.59c4.8-0.87,9.59-1.31,14.38-1.74c0.87,0,1.74,0,2.62,0c2.18,0.44,3.49,3.05,2.18,5.23
				c-0.44,0.87-0.87,1.31-1.31,1.74c-4.8,4.36-8.28,9.59-11.33,15.26c-0.87,1.74-2.18,3.49-3.49,5.23
				c-1.74,2.18-3.92,3.49-6.54,3.92c-2.18,0.44-3.92,0-6.1-0.87c-1.31-0.44-2.62-0.87-3.92-1.74c-4.8-2.62-9.16-5.67-13.51-8.72
				C325.52,274.17,325.52,274.17,324.65,273.3z"/>
		</g>
	</g>
	<g>
		<g>
			<path class="st0" d="M287.6,341.73c-0.44,0-1.74-0.44-2.62-0.87c-1.31-0.44-1.74-1.74-1.31-3.05c0.87-2.62,2.18-4.8,4.36-6.1
				c1.74-1.31,3.92-0.87,4.8,0.87c0.44,0.87,0.87,1.31,1.31,2.18c1.31,3.49-0.44,6.54-4.36,6.98
				C289.34,341.73,288.91,341.73,287.6,341.73z"/>
		</g>
	</g>
</g>
</svg>
