<?xml version="1.0" encoding="utf-8"?>
<!-- Generator: Adobe Illustrator 28.3.0, SVG Export Plug-In . SVG Version: 6.00 Build 0)  -->
<svg version="1.1" id="Layer_1" xmlns="http://www.w3.org/2000/svg" xmlns:xlink="http://www.w3.org/1999/xlink" x="0px" y="0px"
	 viewBox="0 0 192 192" style="enable-background:new 0 0 192 192;" xml:space="preserve">
<style type="text/css">
	.st0{fill:#7367F0;}
</style>
<g>
	<g>
		<g>
			<path class="st0" d="M27.56,122.39c-1-2.33-2.83-9.31-2.99-11.31c0.33-0.17,0.66-0.33,1-0.5c5.32-2.49,8.48-6.65,9.48-12.31
				c1.33-8.32-3.66-14.47-9.15-16.96c-0.33-0.17-0.83-0.33-1.33-0.5c0-0.33,0-0.83,0-1.16c0.83-3.83,1.83-7.65,3.16-11.31
				c0.17-0.33,0.17-0.5,0.33-0.83c3.33,2.16,6.82,2.99,10.65,1.66c3.16-1,5.32-2.83,6.99-5.82c1.66-3.16,2-6.49,0.66-9.98
				c-1.16-3.33-3.66-5.49-6.82-6.99c1.33-2.33,7.65-9.31,9.65-10.65c0.17,0.33,0.5,0.66,0.66,1.16c1.66,2.83,4.33,4.49,7.65,4.66
				c5.16,0.33,9.31-3.49,9.81-8.32c0.33-2.99-0.5-5.65-2.66-7.82c-0.17-0.17-0.33-0.33-0.66-0.66c0,0,0,0,0-0.17
				c2.33-2,12.47-6.49,18.96-8.32c11.64-3.33,23.28-4.16,35.26-2.33c12.64,1.83,24.12,6.49,34.76,13.64
				c31.44,21.62,43.74,60.71,31.44,95.8c-12.81,36.26-46.24,54.72-75.18,55.22c0-0.33-0.17-0.66-0.17-1c0-8.15,0-16.3,0-24.45
				c0-0.33,0-0.5,0-1c0.83-0.17,1.5-0.33,2.33-0.33c11.81-1.16,22.45-5.32,31.93-12.14c0.83-0.5,1.5-1.16,2.33-1.83
				c0.66-0.5,1-1.33,1.5-2c0.33-0.5,0.5-1,0.5-1.66c0-1.66-1.5-2.49-2.99-1.66c-0.5,0.33-1,0.83-1.5,1.16
				c-4.66,4.16-9.98,7.48-15.8,9.98c-4.33,1.83-8.82,2.99-13.47,3.49c-2.49,0.33-4.99,0.5-7.48,0.5
				c-9.48-0.17-18.13-2.49-26.28-7.48c-13.8-8.48-22.95-20.46-27.61-35.93c-0.66-2.49-1.33-4.99-1.83-7.48
				c-0.17-0.66-0.33-1.5-0.66-2c-0.66-1.33-2.33-1.33-3.16,0c-0.33,0.66-0.5,1.33-0.33,2.16c0.17,1.5,0.33,2.99,0.5,4.33
				c1.5,8.82,5.16,16.63,10.48,23.78c7.82,10.48,17.8,18.46,29.94,23.45c5.16,2.16,10.31,3.49,15.8,3.99c0.17,0,0.33,0.17,0.5,0.17
				c0.33,0.5,0.17,1,0.17,1.5c0,3.16,0,6.32,0,9.31c0,4.66,0,9.31,0,13.97c0,0.5,0.17,1-0.17,1.5c-2.49,0.33-11.97-0.83-17.3-2
				c-5.65-1.33-11.31-3.33-16.47-5.82c-5.32-2.49-10.15-5.49-14.8-8.98c-4.66-3.49-8.82-7.48-12.64-11.97
				c-0.66,0.17-0.66,0.66-0.83,1c-1,2.16-2.33,4.33-4.16,5.99c-3.49,3.33-7.48,5.32-12.31,5.82c-9.98,1.16-20.46-5.65-22.12-17.13
				c-1.5-10.98,5.32-19.63,13.97-22.29c3.16-1,6.32-1.33,9.65-0.5c3.49,9.81,8.48,18.79,15.14,26.78c0.5-0.17,0.5-0.5,0.66-0.83
				c3.49-11.31-2.83-22.12-12.97-25.45C29.39,122.89,28.39,122.73,27.56,122.39z M159.95,90.79c0-1.33,0-3.16,0-4.82
				c0-0.66,0-1.5-0.17-2.16c-0.17-1-1.16-1.66-2.16-1.5c-1.16,0-1.83,0.66-1.83,1.83c0,0.66,0,1.33,0,1.83
				c0.5,4.99,0.33,9.98-0.66,14.8c-4.33,20.13-21.29,36.09-42.75,38.09c-2.33,0.17-4.49-0.17-6.32-1.66
				c-1.83-1.5-3.66-2.99-5.32-4.66c-0.83-1-1.66-1.83-2.33-2.99c-1-1.66-1.33-3.49-1-5.49c0.17-1,0.33-2,0.66-2.83
				c0.33-1.16,0.83-2.16,1.16-3.33c0.66-1.66,1.16-3.49,1.33-5.32c0.17-3.66-1-6.65-3.49-8.98c-0.5-0.5-1.16-0.83-1.66-1.33
				c-0.66-0.5-1.16-1-1.66-1.5c-1-1.16-1-2.33-0.33-3.66c0.17-0.5,0.5-0.83,0.83-1.33c0.33-0.33,0.66-0.66,1-1.16
				c1.5-1.66,2.49-3.66,2.99-5.99c0.33-1.66,0.33-3.49,0-5.32c-0.5-2.99-2.33-4.99-5.16-5.99c-2.16-0.66-4.16-0.66-6.32-0.17
				c-2.99,0.66-4.33,2.33-4.49,5.49c0,1,0,1.83,0,2.83c0.17,2.33-0.5,4.49-1.83,6.49c-0.66,0.83-1.16,1.83-1.83,2.66
				c-0.83,1-1.66,2-2.66,2.99c-0.5,0.5-1,1-1.5,1.33c-0.66,0.5-1.33,0.33-2,0c-0.83-0.5-1.33-1.16-1.5-2
				c-0.17-0.5-0.17-0.83-0.17-1.33c0-1.83,0.33-3.49,1-5.16c0.33-1,0.66-2,0.83-2.99c0-1.16-0.33-2-1.33-2.49
				c-0.83-0.33-1.66-0.66-2.49-0.83c-1.66-0.33-3.33-0.66-4.99-0.83c-1-0.17-2-0.17-3.16,0c-2.16,0.17-3.99,1.16-4.33,4.16
				c-0.17,0.5-0.17,1.16-0.17,1.66c0,4.33,0.33,8.48,1.16,12.81c3.49,17.46,16.13,31.93,32.1,38.09c2.16,0.83,4.16,1.5,6.49,2
				c1.5,0.33,2.33-0.33,2.66-1.83c0.17-0.83,0-1.5-0.66-1.83c-0.33-0.33-0.83-0.5-1.33-0.66c-1.16-0.33-2.33-0.66-3.33-1
				c-7.48-2.49-13.97-6.65-19.29-12.31c-8.48-8.98-12.97-19.63-13.14-32.1c0-0.83,0-1.5,0.17-2.33c0.17-1,0.83-1.66,1.83-2
				c1.16-0.33,2.33-0.17,3.49,0.17c0.83,0.17,1.16,0.66,1.16,1.66c0,0.33-0.17,0.83-0.17,1.16c-0.17,0.5-0.33,1.16-0.33,1.66
				c-0.33,2.49-0.33,4.82,0.66,7.15c0.5,1.16,1.16,2.33,2.16,3.16c1,0.83,2,1.16,3.16,1.16c1,0,1.83-0.33,2.83-0.66
				c1.5-0.66,2.83-1.66,3.99-2.83c2.49-2.33,4.33-4.99,5.65-8.15c1-2.33,1.66-4.82,1.5-7.48c0-0.5,0-0.83,0-1.33
				c0-1.33,0.66-2,2-2.16c0.66,0,1.16,0,1.83,0c2,0.33,3.33,1.5,3.49,3.49c0.17,1.83-0.17,3.66-1,5.32
				c-0.5,0.83-1.16,1.66-1.66,2.49c-0.83,1-1.5,2-2,3.16c-1,2.33-0.83,4.49,0.66,6.65c0.66,1,1.5,1.83,2.49,2.49
				c0.66,0.5,1.33,1.16,1.83,1.83c1.5,1.66,2.33,3.66,2.16,5.99c0,1-0.17,2-0.5,2.83c-0.5,1.66-1,3.33-1.66,4.99
				c-0.66,2.16-0.83,4.49-0.33,6.65c0.83,4.16,2.99,7.65,5.82,10.65c1.83,1.83,3.99,3.33,6.32,4.33c1.5,0.66,3.16,1,4.82,0.83
				c3.33-0.17,6.65-0.66,9.81-1.33c16.63-3.99,29.44-15.47,35.59-30.1C158.62,105.26,159.95,98.28,159.95,90.79z M118.04,79.98
				c-0.33-0.17-0.5-0.33-0.66-0.5c-0.5-0.66-1.16-1.33-1.5-2.16c-0.83-1.5-1.66-3.16-2.33-4.66c-0.33-0.66-0.5-1.33-0.83-2
				c-0.17-0.5-0.17-1-0.17-1.66c-0.17-1.33,0.5-2.33,1.5-3.16c0.66-0.5,1.5-0.83,2.16-1.16c1-0.33,2-0.66,2.99-1
				c2.16-0.66,3.66-2,4.33-4.16c0.17-0.33,0.17-0.83,0.33-1.16c0.66-2.33,0.66-4.66,0.17-7.15c-0.5-2.49-1.33-4.99-1.83-7.48
				c-0.17-0.5-0.33-1-0.66-1.5c-0.5-1-1.33-1.66-2.33-2.16c-0.5-0.17-1-0.33-1.5-0.5c-2.16-0.5-4.33-0.83-6.49-0.83
				c-3.83-0.17-7.65,0-11.31,0.66c-5.49,1-10.65,2.66-15.64,5.16c-8.65,4.49-15.64,10.65-20.96,18.79
				c-2.49,3.99-4.33,8.15-5.65,12.64c-0.17,0.17-0.17,0.5-0.17,0.66c-0.17,0.83,0.17,1.5,1,2c0.83,0.5,1.66,0.66,2.49,0.17
				c0.17-0.17,0.5-0.33,0.5-0.66c0.17-0.33,0.33-0.83,0.5-1.16c1.33-4.16,3.16-7.98,5.49-11.64c6.49-10.15,15.64-16.96,27.44-20.13
				c4.33-1.16,8.98-1.66,13.47-1.83c1.5,0,2.99,0,4.49,0.33c4.16,0.66,6.65,3.33,7.15,7.48c0.17,1.5,0.17,2.99,0,4.33
				c-0.17,2.16-1.33,3.66-3.49,4.49c-0.66,0.17-1.16,0.33-1.83,0.5c-2.66,0.83-4.82,2.33-6.32,4.66c-1.33,2.16-1.5,4.33-0.5,6.65
				c1.66,3.66,3.66,7.15,5.99,10.31c0.33,0.5,1,1.16,1.5,1.66c1.5,1.16,2.99,1.16,4.66,0.17c0.83-0.5,1.5-1.16,2-1.83
				c0.83-1.16,1.66-2.33,2.33-3.49c0.66-1.16,1.33-2.49,1.83-3.66c0.33-0.5,0.66-1.16,1-1.66c0.66-0.83,1.66-0.83,2.33,0
				c0.33,0.33,0.66,0.83,1,1.33c0.83,1.33,1.5,2.66,2,3.99c1.33,2.99,3.66,4.49,6.82,4.66c2.33,0,4.66-0.17,6.82-0.5
				c2.66-0.5,5.49-1.16,8.15-1.83c0.83-0.17,1.5-0.5,2.16-0.83c1.33-0.66,1.66-1.66,1.5-2.99c-0.17-1-0.5-2-0.83-2.99
				c-1.16-2.66-2.33-5.32-3.66-7.98c-1.66-3.16-3.66-6.15-5.99-8.82c-5.32-6.15-11.81-10.81-19.13-14.14
				c-0.33-0.17-0.83-0.33-1.16-0.5c-1-0.33-1.83,0.17-2.33,1c-0.5,1-0.5,2,0.33,2.66c0.33,0.33,0.83,0.5,1.33,0.66
				c1,0.5,2,0.83,2.99,1.33c10.48,5.49,17.96,13.64,22.62,24.45c0.17,0.5,0.5,1.16,0.66,1.66c0.33,1.66-0.17,2.33-1.66,2.83
				c-0.17,0-0.5,0.17-0.66,0.17c-1.83,0.33-3.49,0.83-5.32,1.16c-1.83,0.33-3.66,0.5-5.49,0.17c-1.5-0.33-2.66-1-3.16-2.49
				c-0.33-0.83-0.66-1.66-1-2.49c-0.66-1.66-1.83-3.16-3.16-4.33c-0.5-0.5-1.16-0.83-1.66-1.16c-1.66-0.83-3.49-0.83-4.99,0.33
				c-0.66,0.5-1.33,1.16-1.83,1.66c-0.66,0.83-1,1.66-1.5,2.49c-0.5,1-1,2.16-1.5,3.16C120.2,77.82,119.37,78.98,118.04,79.98z
				 M136.83,90.96c-1.5,0-3.16,0.33-4.82,0.83c-2.49,0.83-4.99,2.16-7.15,3.66c-1.83,1.33-3.83,2.16-6.32,2.16
				c-1.5,0-2.83,0.83-3.49,2.16c-0.83,1.5-0.5,2.99,0.83,3.99c2.99,2.16,5.82,4.33,9.15,5.99c1.33,0.66,2.66,1.33,4.16,1.83
				c0.33,0.17,0.83,0.33,1.16,0.17c1.5-0.33,2.83-0.5,4.33-1c1.5-0.33,2.49-1.33,3.33-2.66c1-1.5,2-2.99,3.16-4.49
				c1-1.33,2.16-2.66,3.16-3.99c0.33-0.33,0.66-0.83,0.83-1.33c1-1.83,0.66-3.66-0.83-5.32c-0.66-0.66-1.66-1.33-2.66-1.5
				C140.16,91.12,138.66,90.96,136.83,90.96z M108.72,132.87c0.33,0,0.66,0,0.83,0c2.33-0.17,4.49-2,4.99-4.33
				c0.66-2.83-1-6.49-3.49-7.98c-1.16-0.66-2.16-0.66-3.33-0.17c-2.66,1.33-4.49,3.33-5.32,6.32c-0.5,2.16,0.66,4.49,2.66,5.49
				C106.23,132.71,107.39,132.87,108.72,132.87z"/>
		</g>
	</g>
	<g>
		<g>
			<path class="st0" d="M24.23,110.92c-6.15,2.16-13.8,0.17-18.13-5.65c-4.16-5.82-3.99-13.97,0.66-19.63
				c4.82-5.65,12.47-6.82,17.3-4.82c-0.17,2-0.66,3.83-0.83,5.82c-0.17,2-0.33,4.16-0.5,6.15c-0.17,2-0.17,3.99,0,5.99
				c0,2,0.17,4.16,0.5,6.15C23.56,106.92,23.9,108.92,24.23,110.92z"/>
		</g>
	</g>
	<g>
		<g>
			<path class="st0" d="M28.22,66.84c-3.49-2-6.32-8.48-3.33-14.47c2.99-5.82,9.81-7.65,14.3-5.65c-0.17,0.17-0.17,0.33-0.33,0.66
				c-4.33,5.82-7.65,12.14-10.31,18.96C28.39,66.34,28.39,66.51,28.22,66.84z"/>
		</g>
	</g>
	<g>
		<g>
			<path class="st0" d="M49.51,35.24c-1.5-3.16-0.33-7.98,2.99-10.48c3.33-2.49,8.15-2.33,10.98,0c-1.16,0.83-2.49,1.5-3.66,2.33
				c-1.16,0.83-2.33,1.66-3.49,2.49c-1.17,0.83-2.33,1.83-3.49,2.66C51.67,33.24,50.67,34.24,49.51,35.24z"/>
		</g>
	</g>
	<g>
		<g>
			<path class="st0" d="M122.19,102.6c0.66-0.17,1-0.33,1.5-0.5c1.33-0.33,2.33-1.16,3.16-2.16c0.17-0.17,0.17-0.17,0.33-0.33
				c1.5-2,3.49-3.16,5.82-3.66c1.83-0.33,3.66-0.5,5.49-0.66c0.33,0,0.66,0,1,0c0.83,0.17,1.33,1.16,0.83,2
				c-0.17,0.33-0.33,0.5-0.5,0.66c-1.83,1.66-3.16,3.66-4.33,5.82c-0.33,0.66-0.83,1.33-1.33,2c-0.66,0.83-1.5,1.33-2.49,1.5
				c-0.83,0.17-1.5,0-2.33-0.33c-0.5-0.17-1-0.33-1.5-0.66c-1.83-1-3.49-2.16-5.16-3.33C122.53,102.93,122.53,102.93,122.19,102.6z"
				/>
		</g>
	</g>
	<g>
		<g>
			<path class="st0" d="M108.06,128.71c-0.17,0-0.66-0.17-1-0.33c-0.5-0.17-0.66-0.66-0.5-1.16c0.33-1,0.83-1.83,1.66-2.33
				c0.66-0.5,1.5-0.33,1.83,0.33c0.17,0.33,0.33,0.5,0.5,0.83c0.5,1.33-0.17,2.49-1.66,2.66
				C108.72,128.71,108.56,128.71,108.06,128.71z"/>
		</g>
	</g>
</g>
</svg>
