<?xml version="1.0" encoding="utf-8"?>
<!-- Generator: Adobe Illustrator 28.3.0, SVG Export Plug-In . SVG Version: 6.00 Build 0)  -->
<svg version="1.1" id="Layer_1" xmlns="http://www.w3.org/2000/svg" xmlns:xlink="http://www.w3.org/1999/xlink" x="0px" y="0px"
	 viewBox="0 0 32 32" style="enable-background:new 0 0 32 32;" xml:space="preserve">
<style type="text/css">
	.st0{fill:#7367F0;}
</style>
<g>
	<g>
		<g>
			<path class="st0" d="M4.97,20.25c-0.16-0.38-0.46-1.5-0.48-1.82c0.05-0.03,0.11-0.05,0.16-0.08c0.86-0.4,1.37-1.07,1.53-1.98
				c0.21-1.34-0.59-2.33-1.47-2.73c-0.05-0.03-0.13-0.05-0.21-0.08c0-0.05,0-0.13,0-0.19c0.13-0.62,0.29-1.23,0.51-1.82
				c0.03-0.05,0.03-0.08,0.05-0.13c0.54,0.35,1.1,0.48,1.72,0.27c0.51-0.16,0.86-0.46,1.13-0.94C8.16,10.23,8.21,9.69,8,9.13
				C7.81,8.6,7.41,8.25,6.9,8.01c0.21-0.38,1.23-1.5,1.55-1.72C8.48,6.34,8.54,6.4,8.56,6.48C8.83,6.93,9.26,7.2,9.8,7.23
				c0.83,0.05,1.5-0.56,1.58-1.34c0.05-0.48-0.08-0.91-0.43-1.26c-0.03-0.03-0.05-0.05-0.11-0.11c0,0,0,0,0-0.03
				c0.38-0.32,2.01-1.05,3.05-1.34c1.88-0.54,3.75-0.67,5.68-0.38c2.04,0.29,3.89,1.05,5.6,2.2c5.06,3.48,7.05,9.78,5.06,15.43
				c-2.06,5.84-7.45,8.82-12.11,8.9c0-0.05-0.03-0.11-0.03-0.16c0-1.31,0-2.63,0-3.94c0-0.05,0-0.08,0-0.16
				c0.13-0.03,0.24-0.05,0.38-0.05c1.9-0.19,3.62-0.86,5.15-1.96c0.13-0.08,0.24-0.19,0.38-0.29c0.11-0.08,0.16-0.21,0.24-0.32
				c0.05-0.08,0.08-0.16,0.08-0.27c0-0.27-0.24-0.4-0.48-0.27c-0.08,0.05-0.16,0.13-0.24,0.19c-0.75,0.67-1.61,1.21-2.55,1.61
				c-0.7,0.29-1.42,0.48-2.17,0.56c-0.4,0.05-0.8,0.08-1.21,0.08c-1.53-0.03-2.92-0.4-4.23-1.21c-2.22-1.37-3.7-3.3-4.45-5.79
				c-0.11-0.4-0.21-0.8-0.29-1.21c-0.03-0.11-0.05-0.24-0.11-0.32c-0.11-0.21-0.38-0.21-0.51,0C8.03,15.91,8,16.02,8.03,16.15
				c0.03,0.24,0.05,0.48,0.08,0.7c0.24,1.42,0.83,2.68,1.69,3.83c1.26,1.69,2.87,2.97,4.82,3.78c0.83,0.35,1.66,0.56,2.55,0.64
				c0.03,0,0.05,0.03,0.08,0.03c0.05,0.08,0.03,0.16,0.03,0.24c0,0.51,0,1.02,0,1.5c0,0.75,0,1.5,0,2.25c0,0.08,0.03,0.16-0.03,0.24
				c-0.4,0.05-1.93-0.13-2.79-0.32c-0.91-0.21-1.82-0.54-2.65-0.94c-0.86-0.4-1.63-0.88-2.38-1.45S8,25.45,7.38,24.73
				c-0.11,0.03-0.11,0.11-0.13,0.16c-0.16,0.35-0.38,0.7-0.67,0.96c-0.56,0.54-1.21,0.86-1.98,0.94c-1.61,0.19-3.3-0.91-3.56-2.76
				c-0.24-1.77,0.86-3.16,2.25-3.59c0.51-0.16,1.02-0.21,1.55-0.08c0.56,1.58,1.37,3.03,2.44,4.31c0.08-0.03,0.08-0.08,0.11-0.13
				c0.56-1.82-0.46-3.56-2.09-4.1C5.27,20.33,5.11,20.31,4.97,20.25z M26.3,15.16c0-0.21,0-0.51,0-0.78c0-0.11,0-0.24-0.03-0.35
				c-0.03-0.16-0.19-0.27-0.35-0.24c-0.19,0-0.29,0.11-0.29,0.29c0,0.11,0,0.21,0,0.29c0.08,0.8,0.05,1.61-0.11,2.39
				c-0.7,3.24-3.43,5.81-6.89,6.14c-0.38,0.03-0.72-0.03-1.02-0.27c-0.29-0.24-0.59-0.48-0.86-0.75c-0.13-0.16-0.27-0.29-0.38-0.48
				c-0.16-0.27-0.21-0.56-0.16-0.88c0.03-0.16,0.05-0.32,0.11-0.46c0.05-0.19,0.13-0.35,0.19-0.54c0.11-0.27,0.19-0.56,0.21-0.86
				c0.03-0.59-0.16-1.07-0.56-1.45c-0.08-0.08-0.19-0.13-0.27-0.21c-0.11-0.08-0.19-0.16-0.27-0.24c-0.16-0.19-0.16-0.38-0.05-0.59
				c0.03-0.08,0.08-0.13,0.13-0.21c0.05-0.05,0.11-0.11,0.16-0.19c0.24-0.27,0.4-0.59,0.48-0.96c0.05-0.27,0.05-0.56,0-0.86
				c-0.08-0.48-0.38-0.8-0.83-0.96c-0.35-0.11-0.67-0.11-1.02-0.03c-0.48,0.11-0.7,0.38-0.72,0.88c0,0.16,0,0.29,0,0.46
				c0.03,0.38-0.08,0.72-0.29,1.05c-0.11,0.13-0.19,0.29-0.29,0.43c-0.13,0.16-0.27,0.32-0.43,0.48c-0.08,0.08-0.16,0.16-0.24,0.21
				c-0.11,0.08-0.21,0.05-0.32,0c-0.13-0.08-0.21-0.19-0.24-0.32c-0.03-0.08-0.03-0.13-0.03-0.21c0-0.29,0.05-0.56,0.16-0.83
				c0.05-0.16,0.11-0.32,0.13-0.48c0-0.19-0.05-0.32-0.21-0.4c-0.13-0.05-0.27-0.11-0.4-0.13c-0.27-0.05-0.54-0.11-0.8-0.13
				c-0.16-0.03-0.32-0.03-0.51,0c-0.35,0.03-0.64,0.19-0.7,0.67c-0.03,0.08-0.03,0.19-0.03,0.27c0,0.7,0.05,1.37,0.19,2.06
				c0.56,2.81,2.6,5.15,5.17,6.14c0.35,0.13,0.67,0.24,1.05,0.32c0.24,0.05,0.38-0.05,0.43-0.29c0.03-0.13,0-0.24-0.11-0.29
				c-0.05-0.05-0.13-0.08-0.21-0.11c-0.19-0.05-0.38-0.11-0.54-0.16c-1.21-0.4-2.25-1.07-3.11-1.98c-1.37-1.45-2.09-3.16-2.12-5.17
				c0-0.13,0-0.24,0.03-0.38c0.03-0.16,0.13-0.27,0.29-0.32c0.19-0.05,0.38-0.03,0.56,0.03c0.13,0.03,0.19,0.11,0.19,0.27
				c0,0.05-0.03,0.13-0.03,0.19c-0.03,0.08-0.05,0.19-0.05,0.27c-0.05,0.4-0.05,0.78,0.11,1.15c0.08,0.19,0.19,0.38,0.35,0.51
				c0.16,0.13,0.32,0.19,0.51,0.19c0.16,0,0.29-0.05,0.46-0.11c0.24-0.11,0.46-0.27,0.64-0.46c0.4-0.38,0.7-0.8,0.91-1.31
				c0.16-0.38,0.27-0.78,0.24-1.21c0-0.08,0-0.13,0-0.21c0-0.21,0.11-0.32,0.32-0.35c0.11,0,0.19,0,0.29,0
				c0.32,0.05,0.54,0.24,0.56,0.56c0.03,0.29-0.03,0.59-0.16,0.86c-0.08,0.13-0.19,0.27-0.27,0.4c-0.13,0.16-0.24,0.32-0.32,0.51
				c-0.16,0.38-0.13,0.72,0.11,1.07c0.11,0.16,0.24,0.29,0.4,0.4c0.11,0.08,0.21,0.19,0.29,0.29c0.24,0.27,0.38,0.59,0.35,0.96
				c0,0.16-0.03,0.32-0.08,0.46c-0.08,0.27-0.16,0.54-0.27,0.8c-0.11,0.35-0.13,0.72-0.05,1.07c0.13,0.67,0.48,1.23,0.94,1.72
				c0.29,0.29,0.64,0.54,1.02,0.7c0.24,0.11,0.51,0.16,0.78,0.13c0.54-0.03,1.07-0.11,1.58-0.21c2.68-0.64,4.74-2.49,5.73-4.85
				C26.09,17.49,26.3,16.37,26.3,15.16z M19.55,13.42c-0.05-0.03-0.08-0.05-0.11-0.08c-0.08-0.11-0.19-0.21-0.24-0.35
				c-0.13-0.24-0.27-0.51-0.38-0.75c-0.05-0.11-0.08-0.21-0.13-0.32c-0.03-0.08-0.03-0.16-0.03-0.27c-0.03-0.21,0.08-0.38,0.24-0.51
				c0.11-0.08,0.24-0.13,0.35-0.19c0.16-0.05,0.32-0.11,0.48-0.16c0.35-0.11,0.59-0.32,0.7-0.67c0.03-0.05,0.03-0.13,0.05-0.19
				c0.11-0.38,0.11-0.75,0.03-1.15c-0.08-0.4-0.21-0.8-0.29-1.21c-0.03-0.08-0.05-0.16-0.11-0.24c-0.08-0.16-0.21-0.27-0.38-0.35
				c-0.08-0.03-0.16-0.05-0.24-0.08c-0.35-0.08-0.7-0.13-1.04-0.13c-0.62-0.03-1.23,0-1.82,0.11c-0.88,0.16-1.72,0.43-2.52,0.83
				c-1.39,0.72-2.52,1.72-3.38,3.03c-0.4,0.64-0.7,1.31-0.91,2.04C9.8,12.8,9.8,12.86,9.8,12.88c-0.03,0.13,0.03,0.24,0.16,0.32
				s0.27,0.11,0.4,0.03c0.03-0.03,0.08-0.05,0.08-0.11c0.03-0.05,0.05-0.13,0.08-0.19c0.21-0.67,0.51-1.29,0.88-1.88
				c1.05-1.63,2.52-2.73,4.42-3.24c0.7-0.19,1.45-0.27,2.17-0.29c0.24,0,0.48,0,0.72,0.05c0.67,0.11,1.07,0.54,1.15,1.21
				c0.03,0.24,0.03,0.48,0,0.7c-0.03,0.35-0.21,0.59-0.56,0.72c-0.11,0.03-0.19,0.05-0.29,0.08c-0.43,0.13-0.78,0.38-1.02,0.75
				c-0.21,0.35-0.24,0.7-0.08,1.07c0.27,0.59,0.59,1.15,0.96,1.66c0.05,0.08,0.16,0.19,0.24,0.27c0.24,0.19,0.48,0.19,0.75,0.03
				c0.13-0.08,0.24-0.19,0.32-0.29c0.13-0.19,0.27-0.38,0.38-0.56c0.11-0.19,0.21-0.4,0.29-0.59c0.05-0.08,0.11-0.19,0.16-0.27
				c0.11-0.13,0.27-0.13,0.38,0c0.05,0.05,0.11,0.13,0.16,0.21c0.13,0.21,0.24,0.43,0.32,0.64c0.21,0.48,0.59,0.72,1.1,0.75
				c0.38,0,0.75-0.03,1.1-0.08c0.43-0.08,0.88-0.19,1.31-0.29c0.13-0.03,0.24-0.08,0.35-0.13c0.21-0.11,0.27-0.27,0.24-0.48
				c-0.03-0.16-0.08-0.32-0.13-0.48c-0.19-0.43-0.38-0.86-0.59-1.29c-0.27-0.51-0.59-0.99-0.96-1.42c-0.86-0.99-1.9-1.74-3.08-2.28
				c-0.05-0.03-0.13-0.05-0.19-0.08c-0.16-0.05-0.29,0.03-0.38,0.16c-0.08,0.16-0.08,0.32,0.05,0.43c0.05,0.05,0.13,0.08,0.21,0.11
				c0.16,0.08,0.32,0.13,0.48,0.21c1.69,0.88,2.89,2.2,3.64,3.94c0.03,0.08,0.08,0.19,0.11,0.27c0.05,0.27-0.03,0.38-0.27,0.46
				c-0.03,0-0.08,0.03-0.11,0.03c-0.29,0.05-0.56,0.13-0.86,0.19c-0.29,0.05-0.59,0.08-0.88,0.03c-0.24-0.05-0.43-0.16-0.51-0.4
				c-0.05-0.13-0.11-0.27-0.16-0.4c-0.11-0.27-0.29-0.51-0.51-0.7c-0.08-0.08-0.19-0.13-0.27-0.19c-0.27-0.13-0.56-0.13-0.8,0.05
				c-0.11,0.08-0.21,0.19-0.29,0.27c-0.11,0.13-0.16,0.27-0.24,0.4c-0.08,0.16-0.16,0.35-0.24,0.51
				C19.9,13.07,19.76,13.26,19.55,13.42z M22.58,15.19c-0.24,0-0.51,0.05-0.78,0.13c-0.4,0.13-0.8,0.35-1.15,0.59
				c-0.29,0.21-0.62,0.35-1.02,0.35c-0.24,0-0.46,0.13-0.56,0.35c-0.13,0.24-0.08,0.48,0.13,0.64c0.48,0.35,0.94,0.7,1.47,0.96
				c0.21,0.11,0.43,0.21,0.67,0.29c0.05,0.03,0.13,0.05,0.19,0.03c0.24-0.05,0.46-0.08,0.7-0.16c0.24-0.05,0.4-0.21,0.54-0.43
				c0.16-0.24,0.32-0.48,0.51-0.72c0.16-0.21,0.35-0.43,0.51-0.64c0.05-0.05,0.11-0.13,0.13-0.21c0.16-0.29,0.11-0.59-0.13-0.86
				c-0.11-0.11-0.27-0.21-0.43-0.24C23.11,15.21,22.87,15.19,22.58,15.19z M18.05,21.94c0.05,0,0.11,0,0.13,0
				c0.38-0.03,0.72-0.32,0.8-0.7c0.11-0.46-0.16-1.05-0.56-1.29c-0.19-0.11-0.35-0.11-0.54-0.03c-0.43,0.21-0.72,0.54-0.86,1.02
				c-0.08,0.35,0.11,0.72,0.43,0.88C17.65,21.91,17.84,21.94,18.05,21.94z"/>
		</g>
	</g>
	<g>
		<g>
			<path class="st0" d="M4.44,18.4c-0.99,0.35-2.22,0.03-2.92-0.91c-0.67-0.94-0.64-2.25,0.11-3.16c0.78-0.91,2.01-1.1,2.79-0.78
				c-0.03,0.32-0.11,0.62-0.13,0.94s-0.05,0.67-0.08,0.99s-0.03,0.64,0,0.96c0,0.32,0.03,0.67,0.08,0.99
				C4.33,17.76,4.38,18.08,4.44,18.4z"/>
		</g>
	</g>
	<g>
		<g>
			<path class="st0" d="M5.08,11.3c-0.56-0.32-1.02-1.37-0.54-2.33c0.48-0.94,1.58-1.23,2.3-0.91C6.82,8.09,6.82,8.11,6.8,8.17
				c-0.7,0.94-1.23,1.96-1.66,3.05C5.11,11.22,5.11,11.25,5.08,11.3z"/>
		</g>
	</g>
	<g>
		<g>
			<path class="st0" d="M8.51,6.21C8.27,5.7,8.46,4.92,8.99,4.52s1.31-0.38,1.77,0c-0.19,0.13-0.4,0.24-0.59,0.38
				C9.98,5.03,9.8,5.17,9.61,5.3C9.42,5.43,9.23,5.59,9.05,5.73C8.86,5.89,8.7,6.05,8.51,6.21z"/>
		</g>
	</g>
	<g>
		<g>
			<path class="st0" d="M20.22,17.06c0.11-0.03,0.16-0.05,0.24-0.08c0.21-0.05,0.38-0.19,0.51-0.35c0.03-0.03,0.03-0.03,0.05-0.05
				c0.24-0.32,0.56-0.51,0.94-0.59c0.29-0.05,0.59-0.08,0.88-0.11c0.05,0,0.11,0,0.16,0c0.13,0.03,0.21,0.19,0.13,0.32
				c-0.03,0.05-0.05,0.08-0.08,0.11c-0.29,0.27-0.51,0.59-0.7,0.94c-0.05,0.11-0.13,0.21-0.21,0.32c-0.11,0.13-0.24,0.21-0.4,0.24
				c-0.13,0.03-0.24,0-0.38-0.05c-0.08-0.03-0.16-0.05-0.24-0.11c-0.29-0.16-0.56-0.35-0.83-0.54
				C20.27,17.12,20.27,17.12,20.22,17.06z"/>
		</g>
	</g>
	<g>
		<g>
			<path class="st0" d="M17.94,21.27c-0.03,0-0.11-0.03-0.16-0.05c-0.08-0.03-0.11-0.11-0.08-0.19c0.05-0.16,0.13-0.29,0.27-0.38
				c0.11-0.08,0.24-0.05,0.29,0.05c0.03,0.05,0.05,0.08,0.08,0.13c0.08,0.21-0.03,0.4-0.27,0.43
				C18.05,21.27,18.02,21.27,17.94,21.27z"/>
		</g>
	</g>
</g>
</svg>
